<?xml version="1.0" encoding="UTF-8" standalone="no"?>
<!-- Created with Inkscape (http://www.inkscape.org/) -->

<svg
   width="400"
   height="350"
   viewBox="0 0 105.83366 92.604239"
   version="1.1"
   id="svg1"
   inkscape:version="1.3.2 (091e20e, 2023-11-25, custom)"
   sodipodi:docname="books.svg"
   xmlns:inkscape="http://www.inkscape.org/namespaces/inkscape"
   xmlns:sodipodi="http://sodipodi.sourceforge.net/DTD/sodipodi-0.dtd"
   xmlns="http://www.w3.org/2000/svg"
   xmlns:svg="http://www.w3.org/2000/svg">
  <sodipodi:namedview
     id="namedview1"
     pagecolor="#ffffff"
     bordercolor="#000000"
     borderopacity="0.25"
     inkscape:showpageshadow="2"
     inkscape:pageopacity="0.0"
     inkscape:pagecheckerboard="0"
     inkscape:deskcolor="#d1d1d1"
     inkscape:document-units="mm"
     inkscape:zoom="1.4022026"
     inkscape:cx="223.22024"
     inkscape:cy="231.42162"
     inkscape:window-width="1920"
     inkscape:window-height="1001"
     inkscape:window-x="-9"
     inkscape:window-y="-9"
     inkscape:window-maximized="1"
     inkscape:current-layer="layer1" />
  <defs
     id="defs1" />
  <g
     inkscape:label="Layer 1"
     inkscape:groupmode="layer"
     id="layer1">
    <path
       id="rect1"
       style="fill:#483737;stroke-width:0.305514;fill-opacity:1"
       d="M 4.1512049,74.344366 H 91.137869 l 6.4155,2.075587 v 10.00064 H 4.1512049 Z"
       sodipodi:nodetypes="cccccc" />
    <rect
       style="fill:#6c5353;fill-opacity:1;stroke-width:0.259672"
       id="rect2"
       width="93.438347"
       height="9.8491592"
       x="4.1164913"
       y="76.446762" />
    <rect
       style="fill:#9e601f;fill-opacity:1;stroke-width:0.240105"
       id="rect3"
       width="86.420578"
       height="1.3208386"
       x="2.5473309"
       y="75.287796" />
    <path
       id="rect4"
       style="fill:#f4f3c7;fill-opacity:1;stroke-width:0.264583"
       d="M 3.4907879,72.834813 H 87.647079 c 0,0 0.24305,0.16636 0.23349,1.23606 -0.008,0.94683 -0.23349,1.21692 -0.23349,1.21692 H 3.4907879 c 0,0 -0.35995,0.0232 -0.353796,-1.29724 0.0054,-1.14883 0.353796,-1.15574 0.353796,-1.15574 z"
       sodipodi:nodetypes="ccsccsc" />
    <path
       id="rect5"
       style="fill:#9e601f;stroke-width:0.240105"
       d="m 5.2833539,69.283677 79.7220351,0.0162 3.96252,3.572866 H 2.5473309 Z"
       sodipodi:nodetypes="ccccc" />
    <path
       id="path5"
       style="fill:#5a9892;fill-opacity:1;stroke-width:0.267573"
       d="M 8.8684859,59.379711 H 95.855149 l 6.415501,3.331182 v 7.67095 H 8.8684859 Z"
       sodipodi:nodetypes="cccccc" />
    <rect
       style="fill:#426f6b;fill-opacity:1;stroke-width:0.227876"
       id="rect6"
       width="93.438347"
       height="7.5848646"
       x="8.9197865"
       y="62.766647" />
    <rect
       style="fill:#cf5e33;fill-opacity:1;stroke-width:0.272195"
       id="rect7"
       width="92.453041"
       height="10.937347"
       x="5.809968"
       y="51.808949" />
    <path
       id="rect8"
       style="fill:#9a4524;stroke-width:0.116193"
       d="M 9.1698407,50.598737 H 98.755659 v 1.273426 H 5.7418725 Z"
       sodipodi:nodetypes="ccccc" />
    <rect
       style="fill:#aea7a5;fill-opacity:1;stroke-width:0.302003"
       id="rect9"
       width="93.438347"
       height="13.322133"
       x="10.387461"
       y="38.48333" />
    <rect
       style="fill:#92931f;fill-opacity:1;stroke-width:0.184396"
       id="rect10"
       width="88.59053"
       height="1.6038752"
       x="7.8306866"
       y="36.983482" />
    <path
       id="rect11"
       style="fill:#f4f3c7;fill-opacity:1;stroke-width:0.322599"
       d="m 10.232334,31.845583 h 84.320935 c 0,0 -0.36556,0.82565 -0.35024,2.63146 0.016,1.88149 0.35024,2.52609 0.35024,2.52609 H 10.232334 c 0,0 0.424256,-0.68957 0.424555,-2.59057 2.69e-4,-1.70542 -0.424555,-2.56698 -0.424555,-2.56698 z"
       sodipodi:nodetypes="ccsccsc" />
    <rect
       style="fill:#92931f;fill-opacity:1;stroke-width:0.184396"
       id="rect12"
       width="88.59053"
       height="1.6038752"
       x="7.8306866"
       y="30.473633" />
    <rect
       style="fill:#93421f;fill-opacity:1;stroke-width:0.175233"
       id="rect13"
       width="80.005081"
       height="1.6038752"
       x="18.963469"
       y="28.964111" />
    <path
       id="rect22"
       style="fill:#41a0a1;fill-opacity:1;stroke-width:0.114639"
       d="m 12.789108,17.095603 h 75.425991 v 2.37804 H 17.317698 Z"
       sodipodi:nodetypes="ccccc" />
    <path
       id="rect14"
       style="fill:#f4f3c7;fill-opacity:1;stroke-width:0.436182"
       d="m 20.661688,18.641363 h 76.608641 c 0,0 -0.5225,1.27565 -0.50034,4.87817 0.0286,4.64277 0.50034,5.49985 0.50034,5.49985 H 20.661688 c 0,0 0.400969,-1.17686 0.33021,-5.36222 -0.06707,-3.96711 -0.33021,-5.0158 -0.33021,-5.0158 z"
       sodipodi:nodetypes="ccsccsc" />
    <rect
       style="fill:#93421f;fill-opacity:1;stroke-width:0.175233"
       id="rect15"
       width="80.005081"
       height="1.6038752"
       x="18.963469"
       y="16.969284" />
    <rect
       style="fill:#645b59;fill-opacity:1;stroke-width:0.0366379"
       id="rect16"
       width="1.3751971"
       height="13.322133"
       x="16.791853"
       y="38.48333" />
    <rect
       style="fill:#645b59;fill-opacity:1;stroke-width:0.0366379"
       id="rect17"
       width="1.3751971"
       height="13.322133"
       x="19.994051"
       y="38.48333" />
    <rect
       style="fill:#645b59;fill-opacity:1;stroke-width:0.0366379"
       id="rect18"
       width="1.3751971"
       height="13.322133"
       x="23.062822"
       y="38.48333" />
    <circle
       style="fill:#645b59;fill-opacity:1;stroke-width:0.150576"
       id="path18"
       cx="52.330723"
       cy="57.678955"
       r="1.2149278" />
    <circle
       style="fill:#645b59;fill-opacity:1;stroke-width:0.169498"
       id="circle18"
       cx="46.141319"
       cy="57.594376"
       r="1.3676047" />
    <circle
       style="fill:#645b59;fill-opacity:1;stroke-width:0.103353"
       id="circle19"
       cx="58.339527"
       cy="57.578186"
       r="0.83390528" />
    <rect
       style="fill:#85cdce;fill-opacity:1;stroke-width:0.271337"
       id="rect19"
       width="75.425987"
       height="13.322133"
       x="12.789108"
       y="3.7928693" />
    <rect
       style="fill:#48b1b3;fill-opacity:1;stroke-width:0.264583"
       id="rect20"
       width="14.409883"
       height="8.2723408"
       x="16.282434"
       y="6.2410126" />
    <rect
       style="fill:#48b1b3;fill-opacity:1;stroke-width:0.0844396"
       id="rect21"
       width="1.4676721"
       height="8.2723408"
       x="32.693687"
       y="6.2410126" />
  </g>
</svg>
