<?xml version="1.0" encoding="UTF-8" standalone="no"?>
<!-- Created with Inkscape (http://www.inkscape.org/) -->

<svg
   width="400"
   height="825"
   viewBox="0 0 105.83333 218.28119"
   version="1.1"
   id="svg1"
   inkscape:version="1.4 (86a8ad7, 2024-10-11)"
   sodipodi:docname="curtain.svg"
   xmlns:inkscape="http://www.inkscape.org/namespaces/inkscape"
   xmlns:sodipodi="http://sodipodi.sourceforge.net/DTD/sodipodi-0.dtd"
   xmlns="http://www.w3.org/2000/svg"
   xmlns:svg="http://www.w3.org/2000/svg">
  <sodipodi:namedview
     id="namedview1"
     pagecolor="#505050"
     bordercolor="#eeeeee"
     borderopacity="1"
     inkscape:showpageshadow="0"
     inkscape:pageopacity="0"
     inkscape:pagecheckerboard="0"
     inkscape:deskcolor="#505050"
     inkscape:document-units="mm"
     inkscape:zoom="0.69753788"
     inkscape:cx="-40.857996"
     inkscape:cy="415.03122"
     inkscape:window-width="1920"
     inkscape:window-height="1001"
     inkscape:window-x="-9"
     inkscape:window-y="-9"
     inkscape:window-maximized="1"
     inkscape:current-layer="layer1" />
  <defs
     id="defs1" />
  <g
     inkscape:label="Layer 1"
     inkscape:groupmode="layer"
     id="layer1">
    <path
       id="path1"
       style="fill:#af9469;fill-opacity:1;stroke:none;stroke-width:1.104"
       d="m 2.6551351,1.1782227 c 0,0 -1.521464,43.8557583 -1.137915,87.5801843 0.379311,43.241383 14.4135909,90.276143 14.4135909,90.276143 -0.884032,9.16371 -2.309198,30.39881 -2.842753,37.328 0,0 2.248052,-5.37948 4.64427,-6.75434 2.396218,-1.37486 4.015299,-1.96834 5.909881,-2.16138 1.894582,-0.19305 2.939819,-3.03835 6.529675,-3.09069 5.536497,-0.0807 4.037471,2.04192 7.025061,2.13513 3.565531,0.11124 7.659416,-1.4068 7.659416,-1.4068 -6.591916,-13.46688 0.962155,-14.57706 -0.124847,-22.95041 0,0 20.224547,-10.08546 29.233997,-20.54806 11.75862,-13.65516 18.586373,-26.9307 24.655343,-59.93071 C 104.41159,70.168123 103.55182,1.1782227 103.55182,1.1782227 Z"
       sodipodi:nodetypes="cscczzssccsscc" />
    <path
       style="fill:#866e48;fill-opacity:1;stroke:none;stroke-width:1.104"
       d="m 9.9489195,26.343685 c 0.5364235,4.291406 0.2689815,96.981155 4.3183625,120.579415 4.036672,23.52418 6.084755,33.54962 6.084755,33.54962 0,0 -4.67861,-45.54065 -5.751464,-66.99768 C 13.527722,92.018007 15.58139,26.709517 15.58139,26.709517 Z"
       id="path3"
       sodipodi:nodetypes="cscscc" />
    <path
       style="fill:#866e48;fill-opacity:1;stroke:none;stroke-width:1.104"
       d="m 24.658559,181.19881 c 0,0 6.03479,-55.11776 5.230152,-79.52514 -0.80464,-24.407374 0.597557,-69.343524 0.597557,-69.343524 l 6.418048,1.87422 c 0,0 -2.187774,79.807104 -3.797052,98.313794 -1.609278,18.50669 -8.448705,48.68065 -8.448705,48.68065 z"
       id="path4"
       sodipodi:nodetypes="csccsc" />
    <path
       style="fill:#866e48;fill-opacity:1;stroke:none;stroke-width:1.104"
       d="m 28.287212,181.98877 c 0,0 18.367959,-30.64394 22.540372,-60.23015 4.172413,-29.586207 4.153353,-88.610078 4.153353,-88.610078 l 7.965516,-0.379309 c 0,0 -3.394731,94.299727 -13.256799,114.023877 -9.862069,19.72413 -21.402442,35.19566 -21.402442,35.19566 z"
       id="path5"
       sodipodi:nodetypes="csccsc" />
    <path
       style="fill:#866e48;fill-opacity:1;stroke:none;stroke-width:1.104"
       d="m 34.04601,180.66238 c 0,0 26.955402,-18.10437 36.611062,-49.21707 9.65567,-31.1127 11.330021,-98.482077 11.330021,-98.482077 l 4.29141,-0.80464 c 0,0 -3.015421,86.412497 -13.743941,106.796677 -10.72852,20.38418 -17.70205,26.55308 -24.139161,32.18555 -6.437109,5.63248 -14.349391,9.52156 -14.349391,9.52156 z"
       id="path6"
       sodipodi:nodetypes="csccssc" />
    <rect
       style="fill:#866e48;fill-opacity:1;stroke:none;stroke-width:0.980032"
       id="rect6"
       width="40.875919"
       height="9.368187"
       x="19.49824"
       y="174.72278"
       transform="matrix(0.9913229,0.13144926,-0.08186133,0.99664373,0,0)" />
    <circle
       style="fill:#bda884;fill-opacity:1;stroke:none;stroke-width:0.744"
       id="path7"
       cx="9.0086212"
       cy="181.97415"
       r="2.9396553" />
    <path
       style="fill:#866e48;fill-opacity:1;stroke:none;stroke-width:1.104"
       d="m 19.62931,188.13793 c 0,0 -1.517241,9.53017 -1.659483,11.33189 -0.142241,1.80173 -0.478205,9.7454 -0.478205,9.7454 l 0.480065,-0.0593 c 0,0 0.300318,-8.26448 0.501477,-10.27607 0.20116,-2.0116 1.257249,-8.78398 1.274012,-9.57185 0.01676,-0.78788 0.15087,-1.13991 0.15087,-1.13991 z"
       id="path16"
       sodipodi:nodetypes="csccsscc" />
    <path
       style="fill:#866e48;fill-opacity:1;stroke:none;stroke-width:1.104"
       d="m 22.995689,205.01724 c 0,0 -0.663793,-7.30172 -0.331896,-11.28448 0.331896,-3.98276 0.758621,-5.12069 0.758621,-5.12069 h 0.616379 c 0,0 -1.090517,3.65086 -1.090517,7.72845 0,4.07758 0.24857,10.95653 0.24857,10.95653 z"
       id="path17"
       sodipodi:nodetypes="csccscc" />
    <path
       style="fill:#866e48;fill-opacity:1;stroke:none;stroke-width:1.104"
       d="m 27.5,189.13362 c 0,0 -0.09483,6.06897 0.806035,9.2931 0.900861,3.22414 1.991378,6.02155 1.991378,6.02155 l 1.137931,-0.0948 c 0,0 -1.991379,-2.98707 -2.560344,-6.82759 -0.568965,-3.84052 -0.758621,-4.88362 -0.806034,-6.40086 -0.04741,-1.51724 -0.04741,-1.99138 -0.04741,-1.99138 z"
       id="path18" />
    <path
       style="fill:#866e48;fill-opacity:1;stroke:none;stroke-width:1.104"
       d="m 33.928933,189.69358 c 0,0 0,3.48677 2.682129,7.91228 2.682129,4.42552 6.504165,7.57702 6.504165,7.57702 h 1.743382 c 0,0 -3.95614,-3.08445 -6.168896,-6.37006 -2.212758,-3.28561 -4.76078,-9.11924 -4.76078,-9.11924 z"
       id="path19" />
  </g>
  <g
     inkscape:groupmode="layer"
     id="layer2"
     inkscape:label="Layer 2"
     style="display:none"
     transform="translate(0.56896551,-41.30479)">
    <path
       style="fill:#6b5839;fill-opacity:1;stroke:none;stroke-width:1.104"
       d="m 1.4756581,41.958121 c 0,0 5.689657,42.862068 49.3103449,44.379309 48.149269,1.674758 53.103447,-43.999999 53.103447,-43.999999 z"
       id="path2"
       sodipodi:nodetypes="cscc" />
    <rect
       style="fill:#6b5839;fill-opacity:1;stroke:none;stroke-width:1.104"
       id="rect12"
       width="1.0431035"
       height="16.310345"
       x="5.363585"
       y="54.57019" />
    <circle
       style="fill:#6b5839;fill-opacity:1;stroke:none;stroke-width:1.104"
       id="circle12"
       cx="5.7428956"
       cy="72.587425"
       r="2.5603449" />
    <rect
       style="fill:#6b5839;fill-opacity:1;stroke:none;stroke-width:1.104"
       id="rect13"
       width="1.0431035"
       height="16.310345"
       x="13.007654"
       y="65.432816" />
    <circle
       style="fill:#6b5839;fill-opacity:1;stroke:none;stroke-width:1.104"
       id="circle13"
       cx="13.386965"
       cy="83.45005"
       r="2.5603449" />
    <rect
       style="fill:#6b5839;fill-opacity:1;stroke:none;stroke-width:1.104"
       id="rect14"
       width="1.0431035"
       height="16.310345"
       x="87.623016"
       y="69.207199" />
    <circle
       style="fill:#6b5839;fill-opacity:1;stroke:none;stroke-width:1.104"
       id="circle14"
       cx="88.002319"
       cy="87.224426"
       r="2.5603449" />
    <rect
       style="fill:#6b5839;fill-opacity:1;stroke:none;stroke-width:1.104"
       id="rect15"
       width="1.0431035"
       height="16.310345"
       x="95.21492"
       y="61.342567" />
    <circle
       style="fill:#6b5839;fill-opacity:1;stroke:none;stroke-width:1.104"
       id="circle15"
       cx="95.594223"
       cy="79.359802"
       r="2.5603449" />
  </g>
</svg>
