<?xml version="1.0" encoding="UTF-8" standalone="no"?>
<!-- Created with Inkscape (http://www.inkscape.org/) -->

<svg
   width="1400"
   height="250"
   viewBox="0 0 370.41664 66.145837"
   version="1.1"
   id="svg1"
   inkscape:version="1.4 (86a8ad7, 2024-10-11)"
   sodipodi:docname="house-roof-clouds.svg"
   xmlns:inkscape="http://www.inkscape.org/namespaces/inkscape"
   xmlns:sodipodi="http://sodipodi.sourceforge.net/DTD/sodipodi-0.dtd"
   xmlns="http://www.w3.org/2000/svg"
   xmlns:svg="http://www.w3.org/2000/svg">
  <sodipodi:namedview
     id="namedview1"
     pagecolor="#505050"
     bordercolor="#eeeeee"
     borderopacity="1"
     inkscape:showpageshadow="0"
     inkscape:pageopacity="0"
     inkscape:pagecheckerboard="0"
     inkscape:deskcolor="#505050"
     inkscape:document-units="mm"
     inkscape:zoom="0.7071068"
     inkscape:cx="559.32145"
     inkscape:cy="204.35386"
     inkscape:window-width="1920"
     inkscape:window-height="1001"
     inkscape:window-x="-9"
     inkscape:window-y="-9"
     inkscape:window-maximized="1"
     inkscape:current-layer="layer1" />
  <defs
     id="defs1">
    <inkscape:path-effect
       effect="fillet_chamfer"
       id="path-effect301"
       is_visible="true"
       lpeversion="1"
       nodesatellites_param="F,0,0,1,0,0,0,1 @ F,0,0,1,0,0,0,1 @ F,0,0,1,0,0,0,1 @ F,0,0,1,0,0,0,1"
       radius="0"
       unit="px"
       method="auto"
       mode="F"
       chamfer_steps="1"
       flexible="false"
       use_knot_distance="true"
       apply_no_radius="true"
       apply_with_radius="true"
       only_selected="false"
       hide_knots="false" />
    <inkscape:path-effect
       effect="fillet_chamfer"
       id="path-effect299"
       is_visible="true"
       lpeversion="1"
       nodesatellites_param="F,0,0,1,0,0,0,1 @ F,0,0,1,0,0,0,1 @ F,0,0,1,0,0,0,1 @ F,0,0,1,0,0,0,1"
       radius="0"
       unit="px"
       method="auto"
       mode="F"
       chamfer_steps="1"
       flexible="false"
       use_knot_distance="true"
       apply_no_radius="true"
       apply_with_radius="true"
       only_selected="false"
       hide_knots="false" />
  </defs>
  <g
     inkscape:label="Layer 1"
     inkscape:groupmode="layer"
     id="layer1">
    <path
       id="rect74"
       style="fill:#884949;fill-opacity:1;stroke-width:7.10673"
       d="M 20.759794,4.8956847 H 350.35797 L 367.31619,60.168529 H 3.5841633 Z"
       sodipodi:nodetypes="ccccc" />
    <rect
       style="fill:#6a3939;fill-opacity:1;stroke-width:9.07271"
       id="rect99"
       width="356.59714"
       height="0.95171589"
       x="7.696682"
       y="51.186424" />
    <rect
       style="fill:#6a3939;fill-opacity:1;stroke-width:9.00088"
       id="rect100"
       width="350.97211"
       height="0.95171589"
       x="10.725537"
       y="42.75193" />
    <rect
       style="fill:#6a3939;fill-opacity:1;stroke-width:8.93126"
       id="rect101"
       width="345.56345"
       height="0.95171589"
       x="13.429874"
       y="34.137985" />
    <rect
       style="fill:#6a3939;fill-opacity:1;stroke-width:8.87235"
       id="rect102"
       width="341.0202"
       height="0.95171589"
       x="15.701515"
       y="25.703491" />
    <rect
       style="fill:#6a3939;fill-opacity:1;stroke-width:8.80312"
       id="rect103"
       width="335.71967"
       height="0.95171589"
       x="18.081331"
       y="18.166292" />
    <rect
       style="fill:#6a3939;fill-opacity:1;stroke-width:8.7348"
       id="rect104"
       width="330.52734"
       height="0.95171589"
       x="21.00201"
       y="9.7317972" />
    <path
       id="rect105"
       style="fill:#a96960;fill-opacity:1;stroke-width:9.80527"
       d="M 19.484709,4.6295741 21.652025,5.0063861 5.9690623,60.387099 3.6748083,60.007222 Z"
       sodipodi:nodetypes="ccccc" />
    <path
       style="fill:#a96960;fill-opacity:1;stroke-width:10.9585"
       d="M 70.59114,51.567117 C 69.956661,49.240189 68.560814,42.72479 68.560814,42.72479 l 3.743415,0.06648 z"
       id="path112" />
    <path
       style="fill:#a96960;fill-opacity:1;stroke-width:10.9585"
       d="M 72.206255,42.953167 C 71.571776,40.626239 70.17593,34.110841 70.17593,34.110841 l 3.743415,0.06648 z"
       id="path113" />
    <path
       style="fill:#a96960;fill-opacity:1;stroke-width:10.9585"
       d="m 73.82137,34.56354 c -0.634478,-2.326929 -2.030325,-8.842327 -2.030325,-8.842327 l 3.743415,0.06648 z"
       id="path114" />
    <path
       style="fill:#a96960;fill-opacity:1;stroke-width:10.9585"
       d="M 69.385633,60.196008 C 68.751154,57.86908 67.101516,51.163339 67.101516,51.163339 l 3.584796,0.03475 z"
       id="path115"
       sodipodi:nodetypes="cccc" />
    <path
       style="fill:#a96960;fill-opacity:1;stroke-width:10.9585"
       d="m 75.301893,26.891741 c -0.634479,-2.326928 -2.030326,-8.842327 -2.030326,-8.842327 l 3.743415,0.06648 z"
       id="path116" />
    <path
       style="fill:#a96960;fill-opacity:1;stroke-width:10.9585"
       d="M 76.917008,18.45725 C 76.282529,16.130321 74.886683,9.6149229 74.886683,9.6149229 l 3.743414,0.06648 z"
       id="path117" />
    <path
       style="fill:#a96960;fill-opacity:1;stroke-width:10.9585"
       d="M 78.173209,11.682737 C 77.53873,9.3558089 75.918562,4.724712 75.918562,4.724712 l 3.743415,0.06648 z"
       id="path118"
       sodipodi:nodetypes="cccc" />
    <path
       style="fill:#a96960;fill-opacity:1;stroke-width:10.9585"
       d="M 56.60185,51.567117 C 55.967371,49.240189 54.571525,42.72479 54.571525,42.72479 l 3.743415,0.06648 z"
       id="path125" />
    <path
       style="fill:#a96960;fill-opacity:1;stroke-width:10.9585"
       d="M 58.216965,42.953167 C 57.582487,40.626239 56.18664,34.110841 56.18664,34.110841 l 3.743415,0.06648 z"
       id="path126" />
    <path
       style="fill:#a96960;fill-opacity:1;stroke-width:10.9585"
       d="m 59.832081,34.56354 c -0.634479,-2.326929 -2.030326,-8.842327 -2.030326,-8.842327 l 3.743415,0.06648 z"
       id="path127" />
    <path
       style="fill:#a96960;fill-opacity:1;stroke-width:10.9585"
       d="M 55.396343,60.196008 C 54.761865,57.86908 53.112226,51.163339 53.112226,51.163339 l 3.584796,0.03475 z"
       id="path128"
       sodipodi:nodetypes="cccc" />
    <path
       style="fill:#a96960;fill-opacity:1;stroke-width:10.9585"
       d="m 61.312603,26.891741 c -0.634479,-2.326928 -2.030326,-8.842327 -2.030326,-8.842327 l 3.743415,0.06648 z"
       id="path129" />
    <path
       style="fill:#a96960;fill-opacity:1;stroke-width:10.9585"
       d="M 62.927718,18.45725 C 62.29324,16.130321 60.897393,9.6149229 60.897393,9.6149229 l 3.743415,0.06648 z"
       id="path130" />
    <path
       style="fill:#a96960;fill-opacity:1;stroke-width:10.9585"
       d="M 64.183919,11.682737 C 63.54944,9.3558089 61.929272,4.724712 61.929272,4.724712 l 3.743415,0.06648 z"
       id="path131"
       sodipodi:nodetypes="cccc" />
    <path
       style="fill:#a96960;fill-opacity:1;stroke-width:10.9585"
       d="M 84.042058,51.567117 C 83.40758,49.240189 82.011733,42.72479 82.011733,42.72479 l 3.743415,0.06648 z"
       id="path132" />
    <path
       style="fill:#a96960;fill-opacity:1;stroke-width:10.9585"
       d="m 85.657174,42.953167 c -0.634479,-2.326928 -2.030326,-8.842326 -2.030326,-8.842326 l 3.743415,0.06648 z"
       id="path133" />
    <path
       style="fill:#a96960;fill-opacity:1;stroke-width:10.9585"
       d="M 87.272289,34.56354 C 86.63781,32.236611 85.241963,25.721213 85.241963,25.721213 l 3.743415,0.06648 z"
       id="path134" />
    <path
       style="fill:#a96960;fill-opacity:1;stroke-width:10.9585"
       d="M 82.836551,60.196008 C 82.202073,57.86908 80.552434,51.163339 80.552434,51.163339 l 3.584796,0.03475 z"
       id="path135"
       sodipodi:nodetypes="cccc" />
    <path
       style="fill:#a96960;fill-opacity:1;stroke-width:10.9585"
       d="m 88.752811,26.891741 c -0.634479,-2.326928 -2.030325,-8.842327 -2.030325,-8.842327 l 3.743415,0.06648 z"
       id="path136" />
    <path
       style="fill:#a96960;fill-opacity:1;stroke-width:10.9585"
       d="M 90.367926,18.45725 C 89.733448,16.130321 88.337601,9.6149229 88.337601,9.6149229 l 3.743415,0.06648 z"
       id="path137" />
    <path
       style="fill:#a96960;fill-opacity:1;stroke-width:10.9585"
       d="M 91.624127,11.682737 C 90.989648,9.3558089 89.36948,4.724712 89.36948,4.724712 l 3.743415,0.06648 z"
       id="path138"
       sodipodi:nodetypes="cccc" />
    <rect
       style="fill:#ffffff;fill-opacity:1;stroke-width:9.49652"
       id="rect139"
       width="366.10788"
       height="5.5833998"
       x="2.3573937"
       y="60.005661" />
    <path
       style="fill:#a96960;fill-opacity:1;stroke-width:10.9585"
       d="M 98.937012,51.567117 C 98.302534,49.240189 96.906687,42.72479 96.906687,42.72479 l 3.743413,0.06648 z"
       id="path156" />
    <path
       style="fill:#a96960;fill-opacity:1;stroke-width:10.9585"
       d="m 100.55213,42.953167 c -0.634481,-2.326928 -2.030328,-8.842326 -2.030328,-8.842326 l 3.743418,0.06648 z"
       id="path157" />
    <path
       style="fill:#a96960;fill-opacity:1;stroke-width:10.9585"
       d="m 102.16724,34.56354 c -0.63448,-2.326929 -2.03032,-8.842327 -2.03032,-8.842327 l 3.74341,0.06648 z"
       id="path158" />
    <path
       style="fill:#a96960;fill-opacity:1;stroke-width:10.9585"
       d="M 97.731506,60.196008 C 97.097027,57.86908 95.447388,51.163339 95.447388,51.163339 l 3.584796,0.03475 z"
       id="path159"
       sodipodi:nodetypes="cccc" />
    <path
       style="fill:#a96960;fill-opacity:1;stroke-width:10.9585"
       d="m 103.64776,26.891741 c -0.63447,-2.326928 -2.03032,-8.842327 -2.03032,-8.842327 l 3.74341,0.06648 z"
       id="path160" />
    <path
       style="fill:#a96960;fill-opacity:1;stroke-width:10.9585"
       d="m 105.26288,18.45725 c -0.63448,-2.326929 -2.03033,-8.8423271 -2.03033,-8.8423271 l 3.74342,0.06648 z"
       id="path161" />
    <path
       style="fill:#a96960;fill-opacity:1;stroke-width:10.9585"
       d="M 106.51908,11.682737 C 105.8846,9.3558089 104.26443,4.724712 104.26443,4.724712 l 3.74342,0.06648 z"
       id="path162"
       sodipodi:nodetypes="cccc" />
    <path
       style="fill:#a96960;fill-opacity:1;stroke-width:10.9585"
       d="m 113.65251,51.567117 c -0.63448,-2.326928 -2.03033,-8.842327 -2.03033,-8.842327 l 3.74342,0.06648 z"
       id="path163" />
    <path
       style="fill:#a96960;fill-opacity:1;stroke-width:10.9585"
       d="m 115.26762,42.953167 c -0.63448,-2.326928 -2.03032,-8.842326 -2.03032,-8.842326 l 3.74341,0.06648 z"
       id="path164" />
    <path
       style="fill:#a96960;fill-opacity:1;stroke-width:10.9585"
       d="m 116.88274,34.56354 c -0.63448,-2.326929 -2.03033,-8.842327 -2.03033,-8.842327 l 3.74342,0.06648 z"
       id="path165" />
    <path
       style="fill:#a96960;fill-opacity:1;stroke-width:10.9585"
       d="m 112.447,60.196008 c -0.63448,-2.326928 -2.28412,-9.032669 -2.28412,-9.032669 l 3.5848,0.03475 z"
       id="path166"
       sodipodi:nodetypes="cccc" />
    <path
       style="fill:#a96960;fill-opacity:1;stroke-width:10.9585"
       d="m 118.36326,26.891741 c -0.63448,-2.326928 -2.03032,-8.842327 -2.03032,-8.842327 l 3.74341,0.06648 z"
       id="path167" />
    <path
       style="fill:#a96960;fill-opacity:1;stroke-width:10.9585"
       d="m 119.97838,18.45725 c -0.63448,-2.326929 -2.03033,-8.8423271 -2.03033,-8.8423271 l 3.74342,0.06648 z"
       id="path168" />
    <path
       style="fill:#a96960;fill-opacity:1;stroke-width:10.9585"
       d="M 121.23458,11.682737 C 120.6001,9.3558089 118.97993,4.724712 118.97993,4.724712 l 3.74341,0.06648 z"
       id="path169"
       sodipodi:nodetypes="cccc" />
    <path
       style="fill:#a96960;fill-opacity:1;stroke-width:10.9585"
       d="m 128.18855,51.567117 c -0.63448,-2.326928 -2.03033,-8.842327 -2.03033,-8.842327 l 3.74342,0.06648 z"
       id="path170" />
    <path
       style="fill:#a96960;fill-opacity:1;stroke-width:10.9585"
       d="m 129.80367,42.953167 c -0.63448,-2.326928 -2.03033,-8.842326 -2.03033,-8.842326 l 3.74341,0.06648 z"
       id="path171" />
    <path
       style="fill:#a96960;fill-opacity:1;stroke-width:10.9585"
       d="m 131.41877,34.56354 c -0.63448,-2.326929 -2.03032,-8.842327 -2.03032,-8.842327 l 3.74342,0.06648 z"
       id="path172" />
    <path
       style="fill:#a96960;fill-opacity:1;stroke-width:10.9585"
       d="m 126.98305,60.196008 c -0.63448,-2.326928 -2.28413,-9.032669 -2.28413,-9.032669 l 3.5848,0.03475 z"
       id="path173"
       sodipodi:nodetypes="cccc" />
    <path
       style="fill:#a96960;fill-opacity:1;stroke-width:10.9585"
       d="m 132.8993,26.891741 c -0.63448,-2.326928 -2.03033,-8.842327 -2.03033,-8.842327 l 3.74341,0.06648 z"
       id="path174" />
    <path
       style="fill:#a96960;fill-opacity:1;stroke-width:10.9585"
       d="m 134.51442,18.45725 c -0.63448,-2.326929 -2.03033,-8.8423271 -2.03033,-8.8423271 l 3.74341,0.06648 z"
       id="path175" />
    <path
       style="fill:#a96960;fill-opacity:1;stroke-width:10.9585"
       d="m 135.77061,11.682737 c -0.63447,-2.3269281 -2.25464,-6.958025 -2.25464,-6.958025 l 3.74341,0.06648 z"
       id="path176"
       sodipodi:nodetypes="cccc" />
    <path
       style="fill:#a96960;fill-opacity:1;stroke-width:10.9585"
       d="m 143.37318,51.629774 c -0.69131,-2.310678 -2.24642,-8.789907 -2.24642,-8.789907 l 3.7439,-0.02529 z"
       id="path177" />
    <path
       style="fill:#a96960;fill-opacity:1;stroke-width:10.9585"
       d="m 144.7767,42.978826 c -0.69133,-2.310678 -2.24644,-8.789907 -2.24644,-8.789907 l 3.74392,-0.02529 z"
       id="path178" />
    <path
       style="fill:#a96960;fill-opacity:1;stroke-width:10.9585"
       d="m 146.18568,34.552133 c -0.69131,-2.310679 -2.24644,-8.789908 -2.24644,-8.789908 l 3.74394,-0.02529 z"
       id="path179" />
    <path
       style="fill:#a96960;fill-opacity:1;stroke-width:10.9585"
       d="m 142.37954,60.28562 c -0.69133,-2.310679 -2.50483,-8.973972 -2.50483,-8.973972 l 3.58457,-0.05313 z"
       id="path180"
       sodipodi:nodetypes="cccc" />
    <path
       style="fill:#a96960;fill-opacity:1;stroke-width:10.9585"
       d="m 147.47773,26.846352 c -0.69131,-2.310679 -2.24644,-8.789908 -2.24644,-8.789908 l 3.74392,-0.02529 z"
       id="path181" />
    <path
       style="fill:#a96960;fill-opacity:1;stroke-width:10.9585"
       d="M 148.88564,18.374808 C 148.19432,16.064129 146.6392,9.5848997 146.6392,9.5848997 l 3.74391,-0.025291 z"
       id="path182" />
    <path
       style="fill:#a96960;fill-opacity:1;stroke-width:10.9585"
       d="m 149.97541,11.571541 c -0.6913,-2.3106779 -2.4245,-6.9006743 -2.4245,-6.9006743 l 3.74391,-0.025291 z"
       id="path183"
       sodipodi:nodetypes="cccc" />
    <path
       style="fill:#a96960;fill-opacity:1;stroke-width:10.9585"
       d="m 158.39649,51.687416 c -0.75806,-2.289651 -2.50048,-8.721042 -2.50048,-8.721042 l 3.7416,-0.133881 z"
       id="path190" />
    <path
       style="fill:#a96960;fill-opacity:1;stroke-width:10.9585"
       d="m 159.54845,42.999393 c -0.75807,-2.289651 -2.50048,-8.72104 -2.50048,-8.72104 l 3.74161,-0.133883 z"
       id="path191" />
    <path
       style="fill:#a96960;fill-opacity:1;stroke-width:10.9585"
       d="m 160.71241,34.535372 c -0.75808,-2.28965 -2.5005,-8.72104 -2.5005,-8.72104 l 3.74162,-0.133883 z"
       id="path192" />
    <path
       style="fill:#a96960;fill-opacity:1;stroke-width:10.9585"
       d="m 157.65437,60.368442 c -0.75806,-2.289649 -2.76412,-8.897532 -2.76412,-8.897532 l 3.58154,-0.157089 z"
       id="path193"
       sodipodi:nodetypes="cccc" />
    <path
       style="fill:#a96960;fill-opacity:1;stroke-width:10.9585"
       d="m 161.78036,26.795353 c -0.75807,-2.289651 -2.50048,-8.721041 -2.50048,-8.721041 l 3.74161,-0.133882 z"
       id="path194" />
    <path
       style="fill:#a96960;fill-opacity:1;stroke-width:10.9585"
       d="m 162.94192,18.286533 c -0.75806,-2.289651 -2.50049,-8.7210408 -2.50049,-8.7210408 l 3.74161,-0.1338826 z"
       id="path195" />
    <path
       style="fill:#a96960;fill-opacity:1;stroke-width:10.9585"
       d="M 163.83388,11.454515 C 163.07583,9.1648641 161.2102,4.6270791 161.2102,4.6270791 l 3.74161,-0.1338826 z"
       id="path196"
       sodipodi:nodetypes="cccc" />
    <path
       style="fill:#a96960;fill-opacity:1;stroke-width:10.9585"
       d="m 305.93367,51.567117 c 0.63448,-2.326928 2.03032,-8.842327 2.03032,-8.842327 l -3.74341,0.06648 z"
       id="path197" />
    <path
       style="fill:#a96960;fill-opacity:1;stroke-width:10.9585"
       d="m 304.31855,42.953167 c 0.63448,-2.326928 2.03033,-8.842326 2.03033,-8.842326 l -3.74342,0.06648 z"
       id="path198" />
    <path
       style="fill:#a96960;fill-opacity:1;stroke-width:10.9585"
       d="m 302.70343,34.56354 c 0.63448,-2.326929 2.03033,-8.842327 2.03033,-8.842327 l -3.74341,0.06648 z"
       id="path199" />
    <path
       style="fill:#a96960;fill-opacity:1;stroke-width:10.9585"
       d="m 307.13917,60.196008 c 0.63448,-2.326928 2.28413,-9.032669 2.28413,-9.032669 l -3.5848,0.03475 z"
       id="path200"
       sodipodi:nodetypes="cccc" />
    <path
       style="fill:#a96960;fill-opacity:1;stroke-width:10.9585"
       d="m 301.22291,26.891741 c 0.63448,-2.326928 2.03032,-8.842327 2.03032,-8.842327 l -3.74341,0.06648 z"
       id="path201" />
    <path
       style="fill:#a96960;fill-opacity:1;stroke-width:10.9585"
       d="m 299.6078,18.45725 c 0.63448,-2.326929 2.03033,-8.8423271 2.03033,-8.8423271 l -3.74343,0.06648 z"
       id="path202" />
    <path
       style="fill:#a96960;fill-opacity:1;stroke-width:10.9585"
       d="m 298.3516,11.682737 c 0.63448,-2.3269281 2.25464,-6.958025 2.25464,-6.958025 l -3.74341,0.06648 z"
       id="path203"
       sodipodi:nodetypes="cccc" />
    <path
       style="fill:#a96960;fill-opacity:1;stroke-width:10.9585"
       d="m 319.92295,51.567117 c 0.63448,-2.326928 2.03033,-8.842327 2.03033,-8.842327 l -3.74341,0.06648 z"
       id="path204" />
    <path
       style="fill:#a96960;fill-opacity:1;stroke-width:10.9585"
       d="m 318.30784,42.953167 c 0.63448,-2.326928 2.03032,-8.842326 2.03032,-8.842326 l -3.74341,0.06648 z"
       id="path205" />
    <path
       style="fill:#a96960;fill-opacity:1;stroke-width:10.9585"
       d="m 316.69273,34.56354 c 0.63447,-2.326929 2.03033,-8.842327 2.03033,-8.842327 l -3.74343,0.06648 z"
       id="path206" />
    <path
       style="fill:#a96960;fill-opacity:1;stroke-width:10.9585"
       d="m 321.12846,60.196008 c 0.63448,-2.326928 2.28412,-9.032669 2.28412,-9.032669 l -3.5848,0.03475 z"
       id="path207"
       sodipodi:nodetypes="cccc" />
    <path
       style="fill:#a96960;fill-opacity:1;stroke-width:10.9585"
       d="m 315.21221,26.891741 c 0.63448,-2.326928 2.03032,-8.842327 2.03032,-8.842327 l -3.74342,0.06648 z"
       id="path208" />
    <path
       style="fill:#a96960;fill-opacity:1;stroke-width:10.9585"
       d="m 313.59709,18.45725 c 0.63448,-2.326929 2.03032,-8.8423271 2.03032,-8.8423271 l -3.74341,0.06648 z"
       id="path209" />
    <path
       style="fill:#a96960;fill-opacity:1;stroke-width:10.9585"
       d="m 312.34088,11.682737 c 0.63448,-2.3269281 2.25466,-6.958025 2.25466,-6.958025 l -3.74343,0.06648 z"
       id="path210"
       sodipodi:nodetypes="cccc" />
    <path
       style="fill:#a96960;fill-opacity:1;stroke-width:10.9585"
       d="m 292.48274,51.567117 c 0.63448,-2.326928 2.03033,-8.842327 2.03033,-8.842327 l -3.74341,0.06648 z"
       id="path211" />
    <path
       style="fill:#a96960;fill-opacity:1;stroke-width:10.9585"
       d="m 290.86764,42.953167 c 0.63448,-2.326928 2.03032,-8.842326 2.03032,-8.842326 l -3.74342,0.06648 z"
       id="path212" />
    <path
       style="fill:#a96960;fill-opacity:1;stroke-width:10.9585"
       d="m 289.25252,34.56354 c 0.63448,-2.326929 2.03032,-8.842327 2.03032,-8.842327 l -3.74341,0.06648 z"
       id="path213" />
    <path
       style="fill:#a96960;fill-opacity:1;stroke-width:10.9585"
       d="m 293.68826,60.196008 c 0.63448,-2.326928 2.28411,-9.032669 2.28411,-9.032669 l -3.5848,0.03475 z"
       id="path214"
       sodipodi:nodetypes="cccc" />
    <path
       style="fill:#a96960;fill-opacity:1;stroke-width:10.9585"
       d="m 287.77199,26.891741 c 0.63448,-2.326928 2.03033,-8.842327 2.03033,-8.842327 l -3.74341,0.06648 z"
       id="path215" />
    <path
       style="fill:#a96960;fill-opacity:1;stroke-width:10.9585"
       d="m 286.15688,18.45725 c 0.63448,-2.326929 2.03032,-8.8423271 2.03032,-8.8423271 l -3.74341,0.06648 z"
       id="path216" />
    <path
       style="fill:#a96960;fill-opacity:1;stroke-width:10.9585"
       d="m 284.90068,11.682737 c 0.63448,-2.3269281 2.25465,-6.958025 2.25465,-6.958025 l -3.74342,0.06648 z"
       id="path217"
       sodipodi:nodetypes="cccc" />
    <path
       style="fill:#a96960;fill-opacity:1;stroke-width:10.9585"
       d="m 277.5878,51.567117 c 0.63448,-2.326928 2.03032,-8.842327 2.03032,-8.842327 l -3.74341,0.06648 z"
       id="path218" />
    <path
       style="fill:#a96960;fill-opacity:1;stroke-width:10.9585"
       d="m 275.97268,42.953167 c 0.63448,-2.326928 2.03032,-8.842326 2.03032,-8.842326 l -3.74341,0.06648 z"
       id="path219" />
    <path
       style="fill:#a96960;fill-opacity:1;stroke-width:10.9585"
       d="m 274.35756,34.56354 c 0.63448,-2.326929 2.03033,-8.842327 2.03033,-8.842327 l -3.74342,0.06648 z"
       id="path220" />
    <path
       style="fill:#a96960;fill-opacity:1;stroke-width:10.9585"
       d="m 278.7933,60.196008 c 0.63448,-2.326928 2.28412,-9.032669 2.28412,-9.032669 l -3.58479,0.03475 z"
       id="path221"
       sodipodi:nodetypes="cccc" />
    <path
       style="fill:#a96960;fill-opacity:1;stroke-width:10.9585"
       d="m 272.87704,26.891741 c 0.63448,-2.326928 2.03032,-8.842327 2.03032,-8.842327 l -3.74341,0.06648 z"
       id="path222" />
    <path
       style="fill:#a96960;fill-opacity:1;stroke-width:10.9585"
       d="m 271.26193,18.45725 c 0.63448,-2.326929 2.03033,-8.8423271 2.03033,-8.8423271 l -3.74343,0.06648 z"
       id="path223" />
    <path
       style="fill:#a96960;fill-opacity:1;stroke-width:10.9585"
       d="m 270.00572,11.682737 c 0.63448,-2.3269281 2.25465,-6.958025 2.25465,-6.958025 l -3.74341,0.06648 z"
       id="path224"
       sodipodi:nodetypes="cccc" />
    <path
       style="fill:#a96960;fill-opacity:1;stroke-width:10.9585"
       d="m 262.8723,51.567117 c 0.63448,-2.326928 2.03032,-8.842327 2.03032,-8.842327 l -3.74341,0.06648 z"
       id="path225" />
    <path
       style="fill:#a96960;fill-opacity:1;stroke-width:10.9585"
       d="m 261.25718,42.953167 c 0.63448,-2.326928 2.03033,-8.842326 2.03033,-8.842326 l -3.74341,0.06648 z"
       id="path226" />
    <path
       style="fill:#a96960;fill-opacity:1;stroke-width:10.9585"
       d="m 259.64206,34.56354 c 0.63448,-2.326929 2.03033,-8.842327 2.03033,-8.842327 l -3.74341,0.06648 z"
       id="path227" />
    <path
       style="fill:#a96960;fill-opacity:1;stroke-width:10.9585"
       d="m 264.0778,60.196008 c 0.63448,-2.326928 2.28413,-9.032669 2.28413,-9.032669 l -3.5848,0.03475 z"
       id="path228"
       sodipodi:nodetypes="cccc" />
    <path
       style="fill:#a96960;fill-opacity:1;stroke-width:10.9585"
       d="m 258.16155,26.891741 c 0.63447,-2.326928 2.03033,-8.842327 2.03033,-8.842327 l -3.74343,0.06648 z"
       id="path229" />
    <path
       style="fill:#a96960;fill-opacity:1;stroke-width:10.9585"
       d="m 256.54643,18.45725 c 0.63448,-2.326929 2.03033,-8.8423271 2.03033,-8.8423271 l -3.74343,0.06648 z"
       id="path230" />
    <path
       style="fill:#a96960;fill-opacity:1;stroke-width:10.9585"
       d="m 255.29023,11.682737 c 0.63448,-2.3269281 2.25465,-6.958025 2.25465,-6.958025 l -3.74342,0.06648 z"
       id="path231"
       sodipodi:nodetypes="cccc" />
    <path
       style="fill:#a96960;fill-opacity:1;stroke-width:10.9585"
       d="m 248.33625,51.567117 c 0.63448,-2.326928 2.03033,-8.842327 2.03033,-8.842327 l -3.74342,0.06648 z"
       id="path232" />
    <path
       style="fill:#a96960;fill-opacity:1;stroke-width:10.9585"
       d="m 246.72113,42.953167 c 0.63448,-2.326928 2.03033,-8.842326 2.03033,-8.842326 l -3.74341,0.06648 z"
       id="path233" />
    <path
       style="fill:#a96960;fill-opacity:1;stroke-width:10.9585"
       d="m 245.10603,34.56354 c 0.63448,-2.326929 2.03032,-8.842327 2.03032,-8.842327 l -3.74342,0.06648 z"
       id="path234" />
    <path
       style="fill:#a96960;fill-opacity:1;stroke-width:10.9585"
       d="m 249.54175,60.196008 c 0.63448,-2.326928 2.28413,-9.032669 2.28413,-9.032669 l -3.5848,0.03475 z"
       id="path235"
       sodipodi:nodetypes="cccc" />
    <path
       style="fill:#a96960;fill-opacity:1;stroke-width:10.9585"
       d="m 243.6255,26.891741 c 0.63448,-2.326928 2.03033,-8.842327 2.03033,-8.842327 l -3.74341,0.06648 z"
       id="path236" />
    <path
       style="fill:#a96960;fill-opacity:1;stroke-width:10.9585"
       d="m 242.01038,18.45725 c 0.63448,-2.326929 2.03033,-8.8423271 2.03033,-8.8423271 l -3.74341,0.06648 z"
       id="path237" />
    <path
       style="fill:#a96960;fill-opacity:1;stroke-width:10.9585"
       d="m 240.75419,11.682737 c 0.63447,-2.3269281 2.25464,-6.958025 2.25464,-6.958025 l -3.74341,0.06648 z"
       id="path238"
       sodipodi:nodetypes="cccc" />
    <path
       style="fill:#a96960;fill-opacity:1;stroke-width:10.9585"
       d="m 233.15162,51.629774 c 0.69131,-2.310678 2.24642,-8.789907 2.24642,-8.789907 l -3.7439,-0.02529 z"
       id="path239" />
    <path
       style="fill:#a96960;fill-opacity:1;stroke-width:10.9585"
       d="m 231.7481,42.978826 c 0.69133,-2.310678 2.24644,-8.789907 2.24644,-8.789907 l -3.74392,-0.02529 z"
       id="path240" />
    <path
       style="fill:#a96960;fill-opacity:1;stroke-width:10.9585"
       d="m 230.33912,34.552133 c 0.69131,-2.310679 2.24644,-8.789908 2.24644,-8.789908 l -3.74394,-0.02529 z"
       id="path241" />
    <path
       style="fill:#a96960;fill-opacity:1;stroke-width:10.9585"
       d="m 234.14526,60.28562 c 0.69133,-2.310679 2.50483,-8.973972 2.50483,-8.973972 l -3.58457,-0.05313 z"
       id="path242"
       sodipodi:nodetypes="cccc" />
    <path
       style="fill:#a96960;fill-opacity:1;stroke-width:10.9585"
       d="m 229.04707,26.846352 c 0.69132,-2.310679 2.24644,-8.789908 2.24644,-8.789908 l -3.74392,-0.02529 z"
       id="path243" />
    <path
       style="fill:#a96960;fill-opacity:1;stroke-width:10.9585"
       d="m 227.63916,18.374808 c 0.69132,-2.310679 2.24644,-8.7899083 2.24644,-8.7899083 l -3.74391,-0.025291 z"
       id="path244" />
    <path
       style="fill:#a96960;fill-opacity:1;stroke-width:10.9585"
       d="m 226.54939,11.571541 c 0.6913,-2.3106779 2.4245,-6.9006743 2.4245,-6.9006743 l -3.74391,-0.025291 z"
       id="path245"
       sodipodi:nodetypes="cccc" />
    <path
       style="fill:#a96960;fill-opacity:1;stroke-width:10.9585"
       d="m 218.12831,51.687416 c 0.75806,-2.289651 2.50048,-8.721042 2.50048,-8.721042 l -3.7416,-0.133881 z"
       id="path246" />
    <path
       style="fill:#a96960;fill-opacity:1;stroke-width:10.9585"
       d="m 216.97635,42.999393 c 0.75807,-2.289651 2.50048,-8.72104 2.50048,-8.72104 l -3.74161,-0.133883 z"
       id="path247" />
    <path
       style="fill:#a96960;fill-opacity:1;stroke-width:10.9585"
       d="m 215.8124,34.535372 c 0.75807,-2.28965 2.50049,-8.72104 2.50049,-8.72104 l -3.74162,-0.133883 z"
       id="path248" />
    <path
       style="fill:#a96960;fill-opacity:1;stroke-width:10.9585"
       d="m 218.87044,60.368442 c 0.75806,-2.289649 2.76411,-8.897532 2.76411,-8.897532 l -3.58154,-0.157089 z"
       id="path249"
       sodipodi:nodetypes="cccc" />
    <path
       style="fill:#a96960;fill-opacity:1;stroke-width:10.9585"
       d="m 214.74444,26.795353 c 0.75808,-2.289651 2.50048,-8.721041 2.50048,-8.721041 l -3.7416,-0.133882 z"
       id="path250" />
    <path
       style="fill:#a96960;fill-opacity:1;stroke-width:10.9585"
       d="m 213.58288,18.286533 c 0.75806,-2.289651 2.5005,-8.7210408 2.5005,-8.7210408 l -3.74162,-0.1338826 z"
       id="path251" />
    <path
       style="fill:#a96960;fill-opacity:1;stroke-width:10.9585"
       d="m 212.69093,11.454515 c 0.75804,-2.2896509 2.62367,-6.8274359 2.62367,-6.8274359 l -3.74161,-0.1338826 z"
       id="path252"
       sodipodi:nodetypes="cccc" />
    <path
       id="path253"
       style="fill:#a96960;fill-opacity:1;stroke-width:9.67134"
       d="m 351.76421,4.7555174 -2.12721,0.374739 15.42742,54.8787126 2.25181,-0.377851 z"
       sodipodi:nodetypes="ccccc" />
    <path
       style="fill:#8c534a;fill-opacity:1;stroke-width:9.23216"
       d="M 168.96051,17.644416 189.27167,3.8999174 207.95853,17.877098 Z"
       id="path271"
       sodipodi:nodetypes="cccc" />
    <rect
       style="fill:#8c534a;fill-opacity:1;stroke-width:9.51109"
       id="rect154"
       width="34.994167"
       height="42.778725"
       x="170.72916"
       y="17.265312" />
    <path
       id="rect271"
       style="fill:#ffffff;fill-opacity:1;stroke-width:10.8494"
       d="m 188.24262,0.98374188 2.41725,3.08328752 -23.47488,19.8721416 -2.67103,-3.146745 z"
       sodipodi:nodetypes="ccccc" />
    <path
       id="path272"
       style="fill:#ffffff;fill-opacity:1;stroke-width:10.8494"
       d="m 188.18619,1.1106379 -2.41724,3.0832862 23.47486,19.8721419 2.67104,-3.146745 z"
       sodipodi:nodetypes="ccccc" />
    <path
       style="fill:#33312e;fill-opacity:0.48;stroke-width:10.7053"
       d="m 188.19493,6.2418853 -16.86898,14.2668527 9.24205,-1.525387 10.04961,-7.268019 15.0744,20.45813 0.18709,-11.006097 z"
       id="path296"
       sodipodi:nodetypes="ccccccc" />
    <path
       style="fill:#a96960;fill-opacity:1;stroke-width:10.9585"
       d="m 334.60732,51.567117 c 0.63448,-2.326928 2.03033,-8.842327 2.03033,-8.842327 l -3.74341,0.06648 z"
       id="path1" />
    <path
       style="fill:#a96960;fill-opacity:1;stroke-width:10.9585"
       d="m 332.99221,42.953167 c 0.63448,-2.326928 2.03032,-8.842326 2.03032,-8.842326 l -3.74341,0.06648 z"
       id="path2" />
    <path
       style="fill:#a96960;fill-opacity:1;stroke-width:10.9585"
       d="m 331.3771,34.56354 c 0.63447,-2.326929 2.03033,-8.842327 2.03033,-8.842327 l -3.74343,0.06648 z"
       id="path3" />
    <path
       style="fill:#a96960;fill-opacity:1;stroke-width:10.9585"
       d="m 335.81283,60.196008 c 0.63448,-2.326928 2.28412,-9.032669 2.28412,-9.032669 l -3.5848,0.03475 z"
       id="path4"
       sodipodi:nodetypes="cccc" />
    <path
       style="fill:#a96960;fill-opacity:1;stroke-width:10.9585"
       d="m 329.89658,26.891741 c 0.63448,-2.326928 2.03032,-8.842327 2.03032,-8.842327 l -3.74342,0.06648 z"
       id="path5" />
    <path
       style="fill:#a96960;fill-opacity:1;stroke-width:10.9585"
       d="m 328.28146,18.45725 c 0.63448,-2.326929 2.03032,-8.8423271 2.03032,-8.8423271 l -3.74341,0.06648 z"
       id="path6" />
    <path
       style="fill:#a96960;fill-opacity:1;stroke-width:10.9585"
       d="m 327.02525,11.682737 c 0.63448,-2.3269281 2.25466,-6.958025 2.25466,-6.958025 l -3.74343,0.06648 z"
       id="path7"
       sodipodi:nodetypes="cccc" />
    <path
       style="fill:#a96960;fill-opacity:1;stroke-width:10.9585"
       d="m 347.96878,51.567117 c 0.63448,-2.326928 2.03033,-8.842327 2.03033,-8.842327 l -3.74341,0.06648 z"
       id="path8" />
    <path
       style="fill:#a96960;fill-opacity:1;stroke-width:10.9585"
       d="m 346.35367,42.953167 c 0.63448,-2.326928 2.03032,-8.842326 2.03032,-8.842326 l -3.74341,0.06648 z"
       id="path9" />
    <path
       style="fill:#a96960;fill-opacity:1;stroke-width:10.9585"
       d="m 344.73856,34.56354 c 0.63447,-2.326929 2.03033,-8.842327 2.03033,-8.842327 l -3.74343,0.06648 z"
       id="path10" />
    <path
       style="fill:#a96960;fill-opacity:1;stroke-width:10.9585"
       d="m 349.17429,60.196008 c 0.63448,-2.326928 2.28412,-9.032669 2.28412,-9.032669 l -3.5848,0.03475 z"
       id="path11"
       sodipodi:nodetypes="cccc" />
    <path
       style="fill:#a96960;fill-opacity:1;stroke-width:10.9585"
       d="m 343.25804,26.891741 c 0.63448,-2.326928 2.03032,-8.842327 2.03032,-8.842327 l -3.74342,0.06648 z"
       id="path12" />
    <path
       style="fill:#a96960;fill-opacity:1;stroke-width:10.9585"
       d="m 341.64292,18.45725 c 0.63448,-2.326929 2.03032,-8.8423271 2.03032,-8.8423271 l -3.74341,0.06648 z"
       id="path13" />
    <path
       style="fill:#a96960;fill-opacity:1;stroke-width:10.9585"
       d="m 340.38671,11.682737 c 0.63448,-2.3269281 2.25466,-6.958025 2.25466,-6.958025 l -3.74343,0.06648 z"
       id="path14"
       sodipodi:nodetypes="cccc" />
    <path
       style="fill:#a96960;fill-opacity:1;stroke-width:10.9585"
       d="M 42.102479,51.567117 C 41.468,49.240189 40.072154,42.72479 40.072154,42.72479 l 3.743415,0.06648 z"
       id="path15" />
    <path
       style="fill:#a96960;fill-opacity:1;stroke-width:10.9585"
       d="m 43.717594,42.953167 c -0.634478,-2.326928 -2.030325,-8.842326 -2.030325,-8.842326 l 3.743415,0.06648 z"
       id="path16" />
    <path
       style="fill:#a96960;fill-opacity:1;stroke-width:10.9585"
       d="m 45.33271,34.56354 c -0.634479,-2.326929 -2.030326,-8.842327 -2.030326,-8.842327 l 3.743415,0.06648 z"
       id="path17" />
    <path
       style="fill:#a96960;fill-opacity:1;stroke-width:10.9585"
       d="M 40.896972,60.196008 C 40.262494,57.86908 38.612855,51.163339 38.612855,51.163339 l 3.584796,0.03475 z"
       id="path18"
       sodipodi:nodetypes="cccc" />
    <path
       style="fill:#a96960;fill-opacity:1;stroke-width:10.9585"
       d="m 46.813232,26.891741 c -0.634479,-2.326928 -2.030326,-8.842327 -2.030326,-8.842327 l 3.743415,0.06648 z"
       id="path19" />
    <path
       style="fill:#a96960;fill-opacity:1;stroke-width:10.9585"
       d="M 48.428347,18.45725 C 47.793869,16.130321 46.398022,9.6149229 46.398022,9.6149229 l 3.743415,0.06648 z"
       id="path20" />
    <path
       style="fill:#a96960;fill-opacity:1;stroke-width:10.9585"
       d="M 49.684548,11.682737 C 49.050069,9.3558089 47.429901,4.724712 47.429901,4.724712 l 3.743415,0.06648 z"
       id="path21"
       sodipodi:nodetypes="cccc" />
    <path
       style="fill:#a96960;fill-opacity:1;stroke-width:10.9585"
       d="M 27.22893,51.567117 C 26.594451,49.240189 25.198605,42.72479 25.198605,42.72479 l 3.743415,0.06648 z"
       id="path22" />
    <path
       style="fill:#a96960;fill-opacity:1;stroke-width:10.9585"
       d="M 28.844045,42.953167 C 28.209567,40.626239 26.81372,34.110841 26.81372,34.110841 l 3.743415,0.06648 z"
       id="path23" />
    <path
       style="fill:#a96960;fill-opacity:1;stroke-width:10.9585"
       d="m 30.459161,34.56354 c -0.634479,-2.326929 -2.030326,-8.842327 -2.030326,-8.842327 l 3.743415,0.06648 z"
       id="path24" />
    <path
       style="fill:#a96960;fill-opacity:1;stroke-width:10.9585"
       d="M 26.023423,60.196008 C 25.388945,57.86908 23.739306,51.163339 23.739306,51.163339 l 3.584796,0.03475 z"
       id="path25"
       sodipodi:nodetypes="cccc" />
    <path
       style="fill:#a96960;fill-opacity:1;stroke-width:10.9585"
       d="m 31.939683,26.891741 c -0.634479,-2.326928 -2.030326,-8.842327 -2.030326,-8.842327 l 3.743415,0.06648 z"
       id="path26" />
    <path
       style="fill:#a96960;fill-opacity:1;stroke-width:10.9585"
       d="M 33.554798,18.45725 C 32.92032,16.130321 31.524473,9.6149229 31.524473,9.6149229 l 3.743415,0.06648 z"
       id="path27" />
    <path
       style="fill:#a96960;fill-opacity:1;stroke-width:10.9585"
       d="M 34.810999,11.682737 C 34.17652,9.3558089 32.556352,4.724712 32.556352,4.724712 l 3.743415,0.06648 z"
       id="path28"
       sodipodi:nodetypes="cccc" />
  </g>
  <g
     inkscape:groupmode="layer"
     id="g153"
     inkscape:label="window"
     transform="matrix(0.43776913,0,0,0.43776913,78.796568,-33.242838)">
    <path
       style="fill:#69bab7;fill-opacity:1;stroke-width:12.2939"
       d="m 224.74469,202.07366 c 0,0 -2.26694,-63.8866 4.32781,-74.1909 6.59475,-10.30429 13.80776,-12.98341 21.84511,-12.57124 8.03734,0.41217 23.08161,3.09129 22.46335,27.82159 -0.61826,24.73031 -0.41217,59.97099 -0.41217,59.97099 z"
       id="path139" />
    <rect
       style="display:inline;fill:#613e21;fill-opacity:1;stroke-width:0.139281"
       id="rect140"
       width="4.2068977"
       height="63.656368"
       x="223.84966"
       y="142.42282"
       inkscape:label="ram-left" />
    <rect
       style="display:inline;fill:#613e21;fill-opacity:1;stroke-width:0.139281"
       id="rect141"
       width="4.2068977"
       height="63.656368"
       x="271.3093"
       y="142.42282"
       inkscape:label="ram-right" />
    <rect
       style="display:inline;fill:#613e21;fill-opacity:1;stroke-width:0.155097"
       id="rect142"
       width="5.2165527"
       height="63.656368"
       x="247.10274"
       y="142.35652"
       inkscape:label="ram-middle" />
    <rect
       style="display:inline;fill:#613e21;fill-opacity:1;stroke-width:0.132533"
       id="rect143"
       width="51.661839"
       height="6.3069196"
       x="223.83472"
       y="199.74326"
       inkscape:label="ram-down" />
    <rect
       style="display:inline;fill:#613e21;fill-opacity:1;stroke-width:0.105019"
       id="rect144"
       width="51.779903"
       height="3.9510565"
       x="223.72989"
       y="142.35652"
       inkscape:label="ram-up" />
    <path
       id="path144"
       style="display:inline;fill:#613e21;fill-opacity:1;stroke-width:0.134833"
       d="m 249.5279,111.801 c -1.85383,-0.0276 -9.74267,0.29749 -17.31729,7.26094 -9.88034,9.08316 -8.36093,23.36079 -8.36093,23.36079 1.8428,-0.0107 3.68561,-0.0134 5.5284,-0.0201 l -1.42259,-2.6e-4 c 0,0 -0.62597,-9.76749 5.63321,-17.0608 5.54346,-6.45933 10.63606,-7.61185 16.24337,-7.94431 0.0202,-0.003 0.0321,-0.003 0.0917,-0.003 0.0352,0.003 0.0464,-3.5e-4 0.11294,0.003 5.60728,0.33246 10.69965,1.48499 16.2431,7.94431 6.2592,7.29331 5.02949,17.08117 5.02949,17.08117 l -0.55474,-0.0107 c 1.60633,0.004 3.21264,0.007 4.81896,0.009 0,0 1.51941,-14.27763 -8.36094,-23.36078 -2.19609,-2.01892 -7.89637,-7.11554 -17.68465,-7.26094 z m 21.22665,30.61199 c -13.79219,-0.0352 -27.5843,-0.0632 -41.37647,-0.0107 z"
       sodipodi:nodetypes="sscccscccscccssccc"
       inkscape:label="ark-up-part" />
    <rect
       style="display:inline;fill:#613e21;fill-opacity:1;stroke-width:0.0508328"
       id="rect145"
       width="0.66754395"
       height="53.435661"
       x="237.63181"
       y="146.3076"
       inkscape:label="left-ontheglass" />
    <rect
       style="display:inline;fill:#613e21;fill-opacity:1;stroke-width:0.0508328"
       id="rect146"
       width="0.66754395"
       height="53.435661"
       x="261.07193"
       y="146.3076"
       inkscape:label="right-ontheglass" />
    <rect
       style="display:inline;fill:#613e21;fill-opacity:1;stroke-width:0.0478697"
       id="rect147"
       width="0.66754395"
       height="47.388111"
       x="166.20813"
       y="-273.54599"
       inkscape:label="vertical-ontheglass"
       transform="rotate(90)" />
    <rect
       style="display:inline;fill:#895b33;fill-opacity:1;stroke-width:0.0648536"
       id="rect148"
       width="1.0865782"
       height="53.43565"
       x="271.31808"
       y="146.3076"
       inkscape:label="shadow-ram-left-rightside" />
    <rect
       style="display:inline;fill:#492f18;fill-opacity:1;stroke-width:0.0689463"
       id="rect149"
       width="1.0865782"
       height="60.392235"
       x="249.16774"
       y="142.42282"
       inkscape:label="shadow-ram-middle" />
    <path
       id="path149"
       style="display:inline;fill:#613e21;fill-opacity:1;stroke-width:0.134833"
       d="m 249.53122,131.03647 c -0.98646,-0.0151 -4.83391,0.1033 -7.85637,2.96553 -3.91034,3.70305 -4.09713,8.34479 -4.0018,8.27851 l 0.80559,0.003 c 0.026,-0.84525 0.56249,-4.52248 3.74317,-7.53456 2.81641,-2.66711 6.40153,-2.77765 7.32073,-2.76353 0.0925,0.001 0.1203,0.003 0.15536,0.005 0.0349,-0.001 0.0629,-0.003 0.15538,-0.005 0.9192,-0.0141 4.50432,0.0965 7.32073,2.76353 3.18068,3.01208 3.71719,6.68931 3.74317,7.53456 l 0.80557,-0.003 c 0.0953,0.0664 -0.0914,-4.57546 -4.00178,-8.27851 -3.02246,-2.86225 -6.86991,-2.98067 -7.85637,-2.96553 -0.0992,0.001 -0.12914,0.003 -0.1667,0.005 -0.0376,-0.003 -0.0674,-0.003 -0.16668,-0.005 z"
       inkscape:label="little-ark" />
    <rect
       style="display:inline;fill:#613e21;fill-opacity:1;stroke-width:0.0257063"
       id="rect150"
       width="0.66754395"
       height="13.665363"
       x="249.86459"
       y="117.37112"
       inkscape:label="perekladina-up" />
    <rect
       style="display:inline;fill:#613e21;fill-opacity:1;stroke-width:0.0202859"
       id="rect151"
       width="0.63657755"
       height="11.368023"
       x="256.48685"
       y="-159.05833"
       inkscape:label="perekladina-right"
       transform="matrix(0.5308162,0.84748697,-0.83858265,0.5447744,0,0)" />
    <rect
       style="display:inline;fill:#613e21;fill-opacity:1;stroke-width:0.0202859"
       id="rect152"
       width="0.71620244"
       height="11.095869"
       x="-16.299734"
       y="264.47159"
       inkscape:label="perekladina-left"
       transform="matrix(-0.5308162,0.84748697,0.83858265,0.5447744,0,0)"
       ry="0" />
    <path
       id="path152"
       style="display:inline;fill:#895b33;fill-opacity:1;stroke-width:0.134833"
       inkscape:label="ark-up-shadow"
       d="m 250.19838,117.371 c 0.23606,0.0284 0.47127,0.0626 0.70628,0.098 5.26644,0.40777 10.12077,1.75023 15.37514,7.8727 6.24354,7.27508 5.03622,17.02368 5.03014,17.07237 0.36499,8.2e-4 0.72999,10e-4 1.09499,0.003 0.8281,-11.66091 -5.61224,-22.37444 -16.80799,-24.64197 -1.56717,-0.31741 -5.39856,-0.40319 -5.39856,-0.40319 z m 21.11156,25.04303 c -0.18513,-4e-4 -0.37026,-5.5e-4 -0.55539,-0.001 l 0.3584,0.007 c 0.0566,1.6e-4 0.13787,3.4e-4 0.19646,4.9e-4 10e-6,-1e-5 5.2e-4,-0.007 5.2e-4,-0.007 z m -0.55539,-0.001 c -0.53503,-0.001 -1.07007,-0.003 -1.6051,-0.003 0,4e-5 0,0.003 0,0.003 z m -20.50034,-0.034 v 0.029 l 18.00514,0.004 c -6.00168,-0.0153 -12.00349,-0.0273 -18.00514,-0.0335 z" />
    <rect
       style="display:inline;fill:#492f18;fill-opacity:1;stroke-width:0.0499867"
       id="rect153"
       width="0.66754395"
       height="51.672508"
       x="202.73164"
       y="-275.50983"
       inkscape:label="shadow-dark-down"
       transform="rotate(90)" />
  </g>
</svg>
