<?xml version="1.0" encoding="UTF-8" standalone="no"?>
<!-- Created with Inkscape (http://www.inkscape.org/) -->

<svg
   width="141"
   height="245"
   viewBox="0 0 37.306253 64.822917"
   version="1.1"
   id="svg1"
   inkscape:version="1.4 (86a8ad7, 2024-10-11)"
   sodipodi:docname="user-window-night-offline.svg"
   xmlns:inkscape="http://www.inkscape.org/namespaces/inkscape"
   xmlns:sodipodi="http://sodipodi.sourceforge.net/DTD/sodipodi-0.dtd"
   xmlns="http://www.w3.org/2000/svg"
   xmlns:svg="http://www.w3.org/2000/svg">
  <sodipodi:namedview
     id="namedview1"
     pagecolor="#505050"
     bordercolor="#eeeeee"
     borderopacity="1"
     inkscape:showpageshadow="0"
     inkscape:pageopacity="0"
     inkscape:pagecheckerboard="0"
     inkscape:deskcolor="#505050"
     inkscape:document-units="mm"
     inkscape:zoom="1.9729351"
     inkscape:cx="-7.3494561"
     inkscape:cy="148.76313"
     inkscape:window-width="1920"
     inkscape:window-height="1001"
     inkscape:window-x="-9"
     inkscape:window-y="-9"
     inkscape:window-maximized="1"
     inkscape:current-layer="layer1" />
  <defs
     id="defs1">
    <inkscape:path-effect
       effect="fillet_chamfer"
       id="path-effect301"
       is_visible="true"
       lpeversion="1"
       nodesatellites_param="F,0,0,1,0,0,0,1 @ F,0,0,1,0,0,0,1 @ F,0,0,1,0,0,0,1 @ F,0,0,1,0,0,0,1"
       radius="0"
       unit="px"
       method="auto"
       mode="F"
       chamfer_steps="1"
       flexible="false"
       use_knot_distance="true"
       apply_no_radius="true"
       apply_with_radius="true"
       only_selected="false"
       hide_knots="false" />
    <inkscape:path-effect
       effect="fillet_chamfer"
       id="path-effect299"
       is_visible="true"
       lpeversion="1"
       nodesatellites_param="F,0,0,1,0,0,0,1 @ F,0,0,1,0,0,0,1 @ F,0,0,1,0,0,0,1 @ F,0,0,1,0,0,0,1"
       radius="0"
       unit="px"
       method="auto"
       mode="F"
       chamfer_steps="1"
       flexible="false"
       use_knot_distance="true"
       apply_no_radius="true"
       apply_with_radius="true"
       only_selected="false"
       hide_knots="false" />
  </defs>
  <g
     inkscape:groupmode="layer"
     id="g46"
     inkscape:label="window"
     transform="matrix(0.87078892,0,0,0.87078892,-203.52507,-63.111868)"
     style="display:none">
    <path
       style="fill:#aef2e6;fill-opacity:1;stroke-width:9.18707"
       d="m 236.61165,141.80233 c 0,0 -1.69406,-47.741756 3.23412,-55.442046 4.92819,-7.70028 10.31839,-9.70236 16.32461,-9.39435 6.00622,0.30801 17.24864,2.31009 16.78662,20.79077 -0.46202,18.480686 -0.30801,44.815656 -0.30801,44.815656 z"
       id="path52-4" />
    <path
       id="rect255"
       style="fill:#eafcf9;stroke-width:9.5681"
       d="m 269.94065,83.395167 3.9814,22.057733 -9.59463,37.79268 -9.5256,-2.19099 z"
       sodipodi:nodetypes="ccccc" />
    <rect
       style="fill:#eafcf9;fill-opacity:1;stroke-width:9.57242"
       id="rect253"
       width="5.932971"
       height="67.19426"
       x="264.95712"
       y="-1.2504754"
       transform="matrix(0.95659555,0.29141886,-0.25051083,0.9681138,0,0)" />
    <path
       id="rect254"
       style="fill:#eafcf9;stroke-width:9.52502"
       d="m 263.22175,76.22069 2.12107,1.72334 -16.88936,64.83954 -1.96795,-1.72334 z"
       sodipodi:nodetypes="ccccc" />
    <rect
       style="display:inline;fill:#764c28;fill-opacity:1;stroke-width:0.104083"
       id="rect33"
       width="3.1437685"
       height="47.569706"
       x="235.94281"
       y="97.225929"
       inkscape:label="ram-left" />
    <rect
       style="display:inline;fill:#764c28;fill-opacity:1;stroke-width:0.104083"
       id="rect34"
       width="3.1437685"
       height="47.569706"
       x="271.40884"
       y="97.225929"
       inkscape:label="ram-right" />
    <rect
       style="display:inline;fill:#764c28;fill-opacity:1;stroke-width:0.115902"
       id="rect35"
       width="3.8982728"
       height="47.569706"
       x="253.31958"
       y="97.176384"
       inkscape:label="ram-middle" />
    <rect
       style="display:inline;fill:#764c28;fill-opacity:1;stroke-width:0.0990401"
       id="rect36"
       width="38.606327"
       height="4.7130919"
       x="235.93164"
       y="140.06085"
       inkscape:label="ram-down" />
    <rect
       style="display:inline;fill:#764c28;fill-opacity:1;stroke-width:0.0784799"
       id="rect37"
       width="38.694553"
       height="2.9525812"
       x="235.8533"
       y="97.176384"
       inkscape:label="ram-up" />
    <path
       id="path37"
       style="display:inline;fill:#764c28;fill-opacity:1;stroke-width:0.100759"
       d="m 255.13187,74.342564 c -1.38535,-0.0206 -7.28059,0.22231 -12.94102,5.42602 -7.38347,6.78774 -6.24803,17.45726 -6.24803,17.45726 1.3771,-0.008 2.75421,-0.01 4.13131,-0.015 l -1.06309,-1.9e-4 c 0,0 -0.46778,-7.29914 4.20964,-12.74935 4.14257,-4.82699 7.94821,-5.68825 12.13849,-5.9367 0.0151,-0.002 0.024,-0.002 0.0685,-0.002 0.0263,0.002 0.0347,-2.6e-4 0.0844,0.002 4.19026,0.24845 7.99573,1.10972 12.13829,5.9367 4.67743,5.45021 3.75848,12.76457 3.75848,12.76457 l -0.41455,-0.008 c 1.20039,0.003 2.40077,0.005 3.60115,0.007 0,0 1.13544,-10.66952 -6.24803,-17.45726 -1.64112,-1.50871 -5.90087,-5.31736 -13.21555,-5.42602 z m 15.86244,22.876 c -10.30675,-0.0263 -20.61344,-0.0472 -30.92018,-0.008 z"
       sodipodi:nodetypes="sscccscccscccssccc"
       inkscape:label="ark-up-part" />
    <rect
       style="display:inline;fill:#764c28;fill-opacity:1;stroke-width:0.0379868"
       id="rect38"
       width="0.49884829"
       height="39.931885"
       x="246.24205"
       y="100.12897"
       inkscape:label="left-ontheglass" />
    <rect
       style="display:inline;fill:#764c28;fill-opacity:1;stroke-width:0.0379868"
       id="rect39"
       width="0.49884829"
       height="39.931885"
       x="263.75861"
       y="100.12897"
       inkscape:label="right-ontheglass" />
    <rect
       style="display:inline;fill:#764c28;fill-opacity:1;stroke-width:0.0357725"
       id="rect40"
       width="0.49884829"
       height="35.412617"
       x="115.00042"
       y="-273.08032"
       inkscape:label="vertical-ontheglass"
       transform="rotate(90)" />
    <rect
       style="display:inline;fill:#c9976e;fill-opacity:1;stroke-width:0.0484644"
       id="rect41"
       width="0.811988"
       height="39.931877"
       x="271.41544"
       y="100.12897"
       inkscape:label="shadow-ram-left-rightside" />
    <rect
       style="display:inline;fill:#5b3b1f;fill-opacity:1;stroke-width:0.0515228"
       id="rect42"
       width="0.811988"
       height="45.130455"
       x="254.86273"
       y="97.225929"
       inkscape:label="shadow-ram-middle" />
    <path
       id="path42"
       style="display:inline;fill:#764c28;fill-opacity:1;stroke-width:0.100759"
       d="m 255.13435,88.717014 c -0.73717,-0.0113 -3.61233,0.0772 -5.87098,2.21611 -2.92215,2.76725 -3.06174,6.23597 -2.9905,6.18644 l 0.60201,0.002 c 0.0194,-0.63164 0.42034,-3.3796 2.79723,-5.63049 2.10467,-1.9931 4.78379,-2.07571 5.4707,-2.06516 0.0691,7.7e-4 0.0899,0.002 0.1161,0.004 0.0261,-7.7e-4 0.047,-0.002 0.11611,-0.004 0.68691,-0.0105 3.36603,0.0721 5.4707,2.06516 2.37689,2.25089 2.77782,4.99885 2.79723,5.63049 l 0.602,-0.002 c 0.0712,0.0496 -0.0683,-3.41919 -2.99049,-6.18644 -2.25865,-2.13893 -5.13381,-2.22742 -5.87098,-2.21611 -0.0741,7.7e-4 -0.0965,0.002 -0.12457,0.004 -0.0281,-0.002 -0.0504,-0.002 -0.12456,-0.004 z"
       inkscape:label="little-ark" />
    <rect
       style="display:inline;fill:#764c28;fill-opacity:1;stroke-width:0.01921"
       id="rect43"
       width="0.49884829"
       height="10.211976"
       x="255.38348"
       y="78.505058"
       inkscape:label="perekladina-up" />
    <rect
       style="display:inline;fill:#764c28;fill-opacity:1;stroke-width:0.0151594"
       id="rect44"
       width="0.47570741"
       height="8.4951992"
       x="221.36017"
       y="-181.94791"
       inkscape:label="perekladina-right"
       transform="matrix(0.5308162,0.84748697,-0.83858265,0.5447744,0,0)" />
    <rect
       style="display:inline;fill:#764c28;fill-opacity:1;stroke-width:0.0151594"
       id="rect45"
       width="0.53521025"
       height="8.2918215"
       x="-57.311554"
       y="250.9483"
       inkscape:label="perekladina-left"
       transform="matrix(-0.5308162,0.84748697,0.83858265,0.5447744,0,0)"
       ry="0" />
    <path
       id="path45"
       style="display:inline;fill:#c9976e;fill-opacity:1;stroke-width:0.100759"
       inkscape:label="ark-up-shadow"
       d="m 255.63291,78.504964 c 0.17641,0.0212 0.35218,0.0468 0.5278,0.0732 3.93555,0.30472 7.56314,1.30793 11.48967,5.88318 4.66573,5.43659 3.76351,12.72161 3.75897,12.758 0.27275,6.1e-4 0.54551,7.7e-4 0.81827,0.002 0.61883,-8.71407 -4.19396,-16.72017 -12.56042,-18.41467 -1.17113,-0.2372 -4.03429,-0.3013 -4.03429,-0.3013 z m 15.77644,18.71438 c -0.13835,-3e-4 -0.27669,-4.1e-4 -0.41504,-7.6e-4 l 0.26783,0.005 c 0.0423,1.2e-4 0.10303,2.6e-4 0.14681,3.7e-4 10e-6,-1e-5 3.9e-4,-0.005 3.9e-4,-0.005 z m -0.41504,-7.6e-4 c -0.39982,-7.7e-4 -0.79965,-0.002 -1.19947,-0.002 0,3e-5 0,0.002 0,0.002 z m -15.31968,-0.0254 v 0.0217 l 13.45505,0.003 c -4.48499,-0.0114 -8.97008,-0.0204 -13.45505,-0.025 z" />
    <rect
       style="display:inline;fill:#5b3b1f;fill-opacity:1;stroke-width:0.0373545"
       id="rect46"
       width="0.49884829"
       height="38.6143"
       x="142.29404"
       y="-274.54785"
       inkscape:label="shadow-dark-down"
       transform="rotate(90)" />
  </g>
  <g
     inkscape:groupmode="layer"
     id="layer1"
     inkscape:label="window 1"
     style="display:inline">
    <path
       style="display:inline;fill:#051f1a;stroke:none;stroke-width:1.802;fill-opacity:1"
       d="m 3.3526613,60.482011 c 0,-0.938747 -1.0728516,-43.316385 0.9387451,-46.266727 C 6.3030033,11.264942 11.130835,1.7433839 19.177223,2.6821291 27.223611,3.6208742 33.2584,9.2533453 34.197147,15.288136 c 0.938744,6.03479 0.26821,46.132619 0.26821,46.132619 z"
       id="path1" />
    <rect
       style="display:inline;fill:#51341c;fill-opacity:1;stroke-width:0.0906343"
       id="rect16"
       width="2.7375588"
       height="41.423172"
       x="1.9479088"
       y="21.584723"
       inkscape:label="ram-left" />
    <rect
       style="display:inline;fill:#51341c;fill-opacity:1;stroke-width:0.0906343"
       id="rect20"
       width="2.7375588"
       height="41.423172"
       x="32.831364"
       y="21.584723"
       inkscape:label="ram-right" />
    <rect
       style="display:inline;fill:#51341c;fill-opacity:1;stroke-width:0.100926"
       id="rect21"
       width="3.3945727"
       height="41.423172"
       x="17.079407"
       y="21.541586"
       inkscape:label="ram-middle" />
    <rect
       style="display:inline;fill:#51341c;fill-opacity:1;stroke-width:0.086243"
       id="rect22"
       width="33.617962"
       height="4.1041083"
       x="1.9381813"
       y="58.884918"
       inkscape:label="ram-down" />
    <rect
       style="display:inline;fill:#51341c;fill-opacity:1;stroke-width:0.0683394"
       id="rect23"
       width="33.694786"
       height="2.571075"
       x="1.869967"
       y="21.541586"
       inkscape:label="ram-up" />
    <path
       id="path23"
       style="display:inline;fill:#51341c;fill-opacity:1;stroke-width:0.0877398"
       d="M 18.657526,1.6581425 C 17.451179,1.6402045 12.317669,1.8517276 7.3886281,6.3830615 0.95918512,12.29375 1.9479131,21.58465 1.9479131,21.58465 c 1.199164,-0.007 2.398336,-0.0087 3.597499,-0.01306 l -0.925727,-1.66e-4 c 0,0 -0.407337,-6.35601 3.665708,-11.101992 3.6073039,-4.2032894 6.9212139,-4.953265 10.5700629,-5.1696125 0.01315,-0.00174 0.0209,-0.00174 0.05965,-0.00174 0.0229,0.00174 0.03022,-2.264e-4 0.07349,0.00174 3.648832,0.2163475 6.962593,0.9663318 10.569888,5.1696125 4.073054,4.745982 3.272843,11.115246 3.272843,11.115246 l -0.360986,-0.007 c 1.045287,0.0026 2.090564,0.0044 3.135842,0.0061 0,0 0.988728,-9.2909 -5.440715,-15.2015882 C 28.736399,5.0684219 25.027056,1.7518908 18.657513,1.6572709 Z M 32.470363,21.57831 c -8.975004,-0.0229 -17.949955,-0.0411 -26.9249509,-0.007 z"
       sodipodi:nodetypes="sscccscccscccssccc"
       inkscape:label="ark-up-part" />
    <rect
       style="display:inline;fill:#51341c;fill-opacity:1;stroke-width:0.0330785"
       id="rect24"
       width="0.43439156"
       height="34.772243"
       x="10.916384"
       y="24.112669"
       inkscape:label="left-ontheglass" />
    <rect
       style="display:inline;fill:#51341c;fill-opacity:1;stroke-width:0.0330785"
       id="rect25"
       width="0.43439156"
       height="34.772243"
       x="26.169594"
       y="24.112669"
       inkscape:label="right-ontheglass" />
    <rect
       style="display:inline;fill:#51341c;fill-opacity:1;stroke-width:0.0311503"
       id="rect26"
       width="0.43439156"
       height="30.836914"
       x="37.062565"
       y="-34.286842"
       inkscape:label="vertical-ontheglass"
       transform="rotate(90)" />
    <rect
       style="display:inline;fill:#8a5b33;fill-opacity:1;stroke-width:0.0422023"
       id="rect27"
       width="0.70707017"
       height="34.772236"
       x="32.837074"
       y="24.112669"
       inkscape:label="shadow-ram-left-rightside" />
    <rect
       style="display:inline;fill:#382413;fill-opacity:1;stroke-width:0.0448655"
       id="rect28"
       width="0.70707017"
       height="39.299099"
       x="18.423166"
       y="21.584723"
       inkscape:label="shadow-ram-middle" />
    <path
       id="path28"
       style="display:inline;fill:#51341c;fill-opacity:1;stroke-width:0.0877398"
       d="m 18.659686,14.175255 c -0.64192,-0.0098 -3.145577,0.06722 -5.112385,1.929764 -2.544576,2.40969 -2.66613,5.430213 -2.604095,5.387083 l 0.524224,0.0017 c 0.01689,-0.550025 0.366027,-2.942919 2.435798,-4.902969 1.832723,-1.735569 4.165671,-1.807505 4.763825,-1.798318 0.06017,6.71e-4 0.07828,0.0017 0.101098,0.0035 0.02273,-6.7e-4 0.04093,-0.0017 0.101107,-0.0035 0.598154,-0.0091 2.931102,0.06278 4.763825,1.798318 2.06977,1.96005 2.418895,4.352944 2.435797,4.902969 l 0.524215,-0.0017 c 0.062,0.04319 -0.05947,-2.977393 -2.604085,-5.387083 -1.966808,-1.862557 -4.470465,-1.939613 -5.112385,-1.929764 -0.06452,6.7e-4 -0.08403,0.0017 -0.108474,0.0035 -0.02447,-0.0017 -0.04389,-0.0017 -0.108465,-0.0035 z"
       inkscape:label="little-ark" />
    <rect
       style="display:inline;fill:#51341c;fill-opacity:1;stroke-width:0.0167279"
       id="rect29"
       width="0.43439156"
       height="8.8924751"
       x="18.876631"
       y="5.2828031"
       inkscape:label="perekladina-up" />
    <rect
       style="display:inline;fill:#51341c;fill-opacity:1;stroke-width:0.0132006"
       id="rect30"
       width="0.41424075"
       height="7.3975253"
       x="28.972752"
       y="-19.431507"
       inkscape:label="perekladina-right"
       transform="matrix(0.5308162,0.84748697,-0.83858264,0.5447744,0,0)" />
    <rect
       style="display:inline;fill:#51341c;fill-opacity:1;stroke-width:0.0132006"
       id="rect31"
       width="0.46605515"
       height="7.2204261"
       x="8.0713272"
       y="12.540895"
       inkscape:label="perekladina-left"
       transform="matrix(-0.5308162,0.84748697,0.83858264,0.5447744,0,0)"
       ry="0" />
    <path
       id="path31"
       style="display:inline;fill:#8a5b33;fill-opacity:1;stroke-width:0.0877398"
       inkscape:label="ark-up-shadow"
       d="m 19.093826,5.2827152 c 0.153616,0.018461 0.306675,0.040753 0.459603,0.063742 3.427033,0.2653468 6.585898,1.138931 10.005077,5.1230078 4.062865,4.734122 3.277222,11.077836 3.273269,11.109524 0.237508,5.32e-4 0.475024,6.71e-4 0.71254,0.0017 C 34.083186,13.992615 29.892262,7.0209927 22.606841,5.5454409 21.587034,5.3388898 19.093826,5.2830722 19.093826,5.2830722 Z M 32.831775,21.578989 c -0.120474,-2.61e-4 -0.240939,-3.57e-4 -0.361412,-6.61e-4 l 0.233223,0.0044 c 0.03683,1.04e-4 0.08972,2.26e-4 0.127841,3.22e-4 8e-6,-9e-6 3.39e-4,-0.0044 3.39e-4,-0.0044 z m -0.361412,-6.61e-4 c -0.348159,-6.71e-4 -0.696327,-0.0017 -1.044485,-0.0017 0,2.6e-5 0,0.0017 0,0.0017 z m -13.340207,-0.02212 v 0.0189 l 11.716508,0.0026 c -3.90548,-0.0099 -7.811046,-0.01776 -11.716508,-0.02177 z" />
    <rect
       style="display:inline;fill:#382413;fill-opacity:1;stroke-width:0.0325279"
       id="rect32"
       width="0.43439156"
       height="33.624905"
       x="60.829552"
       y="-35.564777"
       inkscape:label="shadow-dark-down"
       transform="rotate(90)" />
  </g>
</svg>
