<svg xmlns="http://www.w3.org/2000/svg" width="400" height="350" viewBox="0 0 105.834 92.604"><path d="M4.151 74.344h86.987l6.415 2.076v10H4.151Z" style="fill:#483737;stroke-width:.305514;fill-opacity:1"/><path d="M4.116 76.447h93.438v9.849H4.116z" style="fill:#6c5353;fill-opacity:1;stroke-width:.259672"/><path d="M2.547 75.288h86.421v1.321H2.547z" style="fill:#9e601f;fill-opacity:1;stroke-width:.240105"/><path d="M3.49 72.835h84.157s.243.166.234 1.236c-.008.947-.234 1.217-.234 1.217H3.491s-.36.023-.354-1.297c.005-1.15.354-1.156.354-1.156" style="fill:#f4f3c7;fill-opacity:1;stroke-width:.264583"/><path d="m5.283 69.284 79.722.016 3.963 3.573H2.548Z" style="fill:#9e601f;stroke-width:.240105"/><path d="M8.868 59.38h86.987l6.416 3.33v7.672H8.868Z" style="fill:#5a9892;fill-opacity:1;stroke-width:.267573"/><path d="M8.92 62.767h93.438v7.585H8.92z" style="fill:#426f6b;fill-opacity:1;stroke-width:.227876"/><path d="M5.81 51.809h92.453v10.937H5.81z" style="fill:#cf5e33;fill-opacity:1;stroke-width:.272195"/><path d="M9.17 50.599h89.586v1.273H5.742Z" style="fill:#9a4524;stroke-width:.116193"/><path d="M10.387 38.483h93.438v13.322H10.387z" style="fill:#aea7a5;fill-opacity:1;stroke-width:.302003"/><path d="M7.831 36.983h88.591v1.604H7.831z" style="fill:#92931f;fill-opacity:1;stroke-width:.184396"/><path d="M10.232 31.846h84.321s-.365.825-.35 2.631c.016 1.882.35 2.526.35 2.526h-84.32s.424-.69.424-2.59c0-1.706-.425-2.567-.425-2.567" style="fill:#f4f3c7;fill-opacity:1;stroke-width:.322599"/><path d="M7.831 30.474h88.591v1.604H7.831z" style="fill:#92931f;fill-opacity:1;stroke-width:.184396"/><path d="M18.963 28.964h80.005v1.604H18.963z" style="fill:#93421f;fill-opacity:1;stroke-width:.175233"/><path d="M12.79 17.096h75.425v2.378H17.318Z" style="fill:#41a0a1;fill-opacity:1;stroke-width:.114639"/><path d="M20.662 18.641H97.27s-.522 1.276-.5 4.879c.029 4.642.5 5.5.5 5.5H20.662s.4-1.177.33-5.363c-.067-3.967-.33-5.016-.33-5.016" style="fill:#f4f3c7;fill-opacity:1;stroke-width:.436182"/><path d="M18.963 16.969h80.005v1.604H18.963z" style="fill:#93421f;fill-opacity:1;stroke-width:.175233"/><path d="M16.792 38.483h1.375v13.322h-1.375zm3.202 0h1.375v13.322h-1.375zm3.069 0h1.375v13.322h-1.375z" style="fill:#645b59;fill-opacity:1;stroke-width:.0366379"/><circle cx="52.331" cy="57.679" r="1.215" style="fill:#645b59;fill-opacity:1;stroke-width:.150576"/><circle cx="46.141" cy="57.594" r="1.368" style="fill:#645b59;fill-opacity:1;stroke-width:.169498"/><circle cx="58.34" cy="57.578" r=".834" style="fill:#645b59;fill-opacity:1;stroke-width:.103353"/><path d="M12.789 3.793h75.426v13.322H12.789z" style="fill:#85cdce;fill-opacity:1;stroke-width:.271337"/><path d="M16.282 6.241h14.41v8.272h-14.41z" style="fill:#48b1b3;fill-opacity:1;stroke-width:.264583"/><path d="M32.694 6.241h1.468v8.272h-1.468z" style="fill:#48b1b3;fill-opacity:1;stroke-width:.0844396"/></svg>