<svg xmlns="http://www.w3.org/2000/svg" width="793.701" height="1150.52" viewBox="0 0 210 304.408"><path d="M1.519.759h206.628v303.259H1.519z" style="fill:#3d2b0c;stroke-width:.997213"/><path d="M10.572 9.684h188.801v285.431H10.572z" style="fill:#2e2009;fill-opacity:1;stroke-width:1.00527"/><path d="M1.898 67.55h202.873v9.103H1.898zm0 71.67h202.873v9.103H1.898zm0 74.332h202.873v9.103H1.898z" style="fill:#3d2b0c;fill-opacity:1;stroke-width:.957906"/><path d="M10.891 10.64h8.499v56.933h-8.499z" style="fill:#605e13;fill-opacity:1;stroke-width:1.41458"/><path d="M19.513 10.64h8.499v56.933h-8.499z" style="fill:#3e8366;fill-opacity:1;stroke-width:1.41458"/><path d="M27.874 13.296h8.499v54.277h-8.499z" style="fill:#b49cda;fill-opacity:1;stroke-width:1.3812"/><path d="M35.97 17.727h4.619v51.575H35.97z" style="fill:#115829;fill-opacity:1;stroke-width:.992556" transform="rotate(-2.525)"/><path d="M40.205 18.862h4.619v51.575h-4.619z" style="fill:#583611;fill-opacity:1;stroke-width:.992556" transform="rotate(-3.735)"/><path d="M49.434 17.394h6.4v50.269h-6.4z" style="fill:#581124;fill-opacity:1;stroke-width:1.15348" transform="rotate(-.097)skewX(.099)"/><path d="M88.681 55.762h67.492V67.53H88.681z" style="fill:#404040;fill-opacity:1;stroke-width:1.99763"/><path d="M88.335 57.28h64.303v8.788H88.335s.26-2.422.26-4.509c0-2.316-.26-4.279-.26-4.279" style="fill:#d6d3c7;stroke-width:1.84425"/><path d="M93.386 46.071h57.07v9.951h-57.07z" style="fill:#75560b;fill-opacity:1;stroke-width:1.68919"/><path d="M93.094 47.354h54.374v7.432H93.094s.22-2.049.22-3.813c0-1.959-.22-3.619-.22-3.619" style="fill:#d6d3c7;stroke-width:1.55948"/><path d="M92.272 39.062h56.07v6.922h-56.07z" style="fill:#5b254b;fill-opacity:1;stroke-width:2.00273"/><path d="M105.424 31.967h40.322v6.922h-40.322z" style="fill:#ac6746;fill-opacity:1;stroke-width:1.69835"/><path d="M93.336-11.016h6.4v50.269h-6.4z" style="fill:#5b6cb2;fill-opacity:1;stroke-width:1.15348" transform="rotate(17.7)skewX(.099)"/><path d="M86.413-18.564h6.4v50.269h-6.4z" style="fill:#42bfcb;fill-opacity:1;stroke-width:1.15348" transform="rotate(24.255)skewX(.099)"/><path d="M80.334-10.074h5.522v43.375h-5.522z" style="fill:#a3e08d;fill-opacity:1;stroke-width:.995289" transform="rotate(25.981)skewX(.099)"/><path d="M183.703 10.64h15.519v56.933h-15.519z" style="fill:#603813;fill-opacity:1;stroke-width:1.91156"/><path d="M188.391 16.385h6.663v4.572h-6.663z" style="fill:#45280e;fill-opacity:1;stroke-width:1.51186"/><path d="M179.374 6.415h5.755v44.261h-5.755z" style="fill:#83773e;fill-opacity:1;stroke-width:1.02639" transform="rotate(5.36)"/><path d="M173.521 6.964h5.755v44.261h-5.755z" style="fill:#833e5a;fill-opacity:1;stroke-width:1.02639" transform="rotate(5.36)"/><path d="M168.081 1.092h5.74v40.366h-5.74z" style="fill:#b84509;fill-opacity:1;stroke-width:.978929" transform="matrix(.9876 .15699 -.18884 .982 0 0)"/><path d="M-64.241 129.77h53.601v9.346h-53.601z" style="fill:#0c741e;fill-opacity:1;stroke-width:1.58649" transform="scale(-1 1)"/><path d="M64.516 130.976h-51.07v6.979h51.07s-.206-1.924-.206-3.581c0-1.84.206-3.398.206-3.398" style="fill:#d6d3c7;stroke-width:1.46469"/><path d="M-60.504 117.849h45.325v12.127h-45.325z" style="fill:#9275b8;fill-opacity:1;stroke-width:1.6618" transform="scale(-1 1)"/><path d="M60.736 119.414H17.553v9.056h43.183s-.174-2.496-.174-4.647c0-2.386.174-4.41.174-4.41" style="fill:#d6d3c7;stroke-width:1.53421"/><path d="M96.262 87.079h4.426v52.061h-4.426z" style="fill:#403f33;fill-opacity:1;stroke-width:.976253"/><path d="M192.137 93.33h7.239v45.979h-7.239z" style="fill:#dab6d5;fill-opacity:1;stroke-width:1.17329"/><path d="M190.18 85.728h1.892v53.582h-1.892z" style="fill:#d9c688;fill-opacity:1;stroke-width:.647564"/><path d="M192.483 75.015h5.947v45.979h-5.947z" style="fill:#abc974;fill-opacity:1;stroke-width:1.06342" transform="rotate(5.51)"/><path d="M101.035 129.913h51.272v9.197h-51.272z" style="fill:#419f42;fill-opacity:1;stroke-width:2.20752"/><path d="M102.229 121.073h46.016v9.197h-46.016z" style="fill:#48419f;fill-opacity:1;stroke-width:2.09131"/><path d="M106.052 115.578h50.078v5.613h-50.078z" style="fill:#9f8141;fill-opacity:1;stroke-width:1.70438"/><path d="M103.424 110.321h40.521v5.613h-40.521z" style="fill:#ad8aac;fill-opacity:1;stroke-width:1.53315"/><path d="M107.486 104.587h40.521v5.613h-40.521z" style="fill:#ccc87c;fill-opacity:1;stroke-width:1.53315"/><path d="M20.819 111.983h34.779v5.724H20.819z" style="fill:#41809f;fill-opacity:1;stroke-width:1.43426"/><path d="M146.525 112.145h4.33v39.391h-4.33z" style="fill:#93bfa3;fill-opacity:1;stroke-width:.839839" transform="rotate(-4.556)"/><path d="M162.392 106.829h5.445v32.48h-5.445z" style="fill:#3a1d36;fill-opacity:1;stroke-width:.855241"/><path d="M167.887 105.246h4.131v34.153h-4.131z" style="fill:#498792;fill-opacity:1;stroke-width:.763867"/><path d="M171.978 107.576h4.131v31.823h-4.131z" style="fill:#60777b;fill-opacity:1;stroke-width:.737356"/><path d="M176.159 97.183h3.832v42.216h-3.832z" style="fill:#737b60;fill-opacity:1;stroke-width:.817994"/><path d="M64.62 85.244h11.536v54.088H64.62z" style="fill:#8e6844;fill-opacity:1;stroke-width:1.60641"/><path d="M67.033 90.989h6.663v4.572h-6.663z" style="fill:#875c33;fill-opacity:1;stroke-width:1.51186"/><path d="M87.477 89.725h8.798v49.584h-8.798z" style="fill:#a19977;fill-opacity:1;stroke-width:1.34321"/><path d="M32.614 157.204h4.451v56.428h-4.451z" style="fill:#c4a415;fill-opacity:1;stroke-width:1.0192"/><path d="M28.148 170.173h4.451v43.46h-4.451z" style="fill:#304340;fill-opacity:1;stroke-width:.894449"/><path d="M24.995 157.884h3.092v55.749h-3.092z" style="fill:#655171;fill-opacity:1;stroke-width:.844342"/><path d="M19.134 160.772h5.81v52.861h-5.81z" style="fill:#528a66;fill-opacity:1;stroke-width:1.12704"/><path d="M10.64 167.397h8.358v46.235H10.64z" style="fill:#4d3027;fill-opacity:1;stroke-width:1.26423"/><path d="M37.056 162.713h8.019v50.92h-8.019z" style="fill:#684e0b;fill-opacity:1;stroke-width:1.29948"/><path d="M45.105 160.671h6.663v52.962h-6.663z" style="fill:#443e2f;fill-opacity:1;stroke-width:1.20809"/><path d="M51.578 156.398h8.739v57.235h-8.739z" style="fill:#a3977a;fill-opacity:1;stroke-width:1.4383"/><path d="M60.246 162.811h8.358v50.822h-8.358z" style="fill:#8f5948;fill-opacity:1;stroke-width:1.32546"/><path d="M-116.517 206.545h48.098v6.857h-48.098z" style="fill:#868686;fill-opacity:1;stroke-width:1.28724" transform="scale(-1 1)"/><path d="M116.763 207.82H70.938v4.237h45.825s-.185-1.167-.185-2.174c0-1.116.185-2.063.185-2.063" style="fill:#d6d3c7;stroke-width:1.08102"/><path d="M-118.322 197.513h44.647v9.15h-44.647z" style="fill:#806262;fill-opacity:1;stroke-width:1.43269" transform="scale(-1 1)"/><path d="M118.55 198.694H76.014v6.833h42.538s-.172-1.884-.172-3.506c0-1.801.172-3.327.172-3.327" style="fill:#d6d3c7;stroke-width:1.32267"/><path d="M-122.012 190.948h40.274v6.62h-40.274z" style="fill:#557251;fill-opacity:1;stroke-width:1.65988" transform="scale(-1 1)"/><path d="M-124.831 184.559h36.591v6.365h-36.591z" style="fill:#86aec4;fill-opacity:1;stroke-width:1.55143" transform="scale(-1 1)"/><path d="M-120.535 179.854h37.008v4.753h-37.008z" style="fill:#aec486;fill-opacity:1;stroke-width:1.34827" transform="scale(-1 1)"/><path d="M124.945 170.285h11.756v43.347h-11.756z" style="fill:#716866;fill-opacity:1;stroke-width:1.45174"/><path d="M114.319 178.813h4.961v50.822h-4.961z" style="fill:#8ac4bd;fill-opacity:1;stroke-width:1.02112" transform="rotate(-7.237)"/><path d="M-180.242 206.114h32.959v7.333h-32.959z" style="fill:#806262;fill-opacity:1;stroke-width:1.10199" transform="scale(-1 1)"/><path d="M180.411 207.06H149.01v5.477h31.402s-.127-1.51-.127-2.81c0-1.443.127-2.667.127-2.667" style="fill:#d6d3c7;stroke-width:1.01736"/><path d="M-181.301 198.769h32.959v7.333h-32.959z" style="fill:#206ac2;fill-opacity:1;stroke-width:1.10199" transform="scale(-1 1)"/><path d="M181.47 199.715h-31.402v5.477h31.402s-.127-1.51-.127-2.81c0-1.444.127-2.667.127-2.667" style="fill:#d6d3c7;stroke-width:1.01736"/><path d="M-179.665 193.715h32.959v5.071h-32.959z" style="fill:#818959;fill-opacity:1;stroke-width:.916356" transform="scale(-1 1)"/><path d="M179.834 194.613h-31.402v3.262h31.402s-.127-.9-.127-1.674c0-.86.127-1.588.127-1.588" style="fill:#d6d3c7;stroke-width:.785201"/><path d="M-180.618 188.677h32.959v5.071h-32.959z" style="fill:#5e5989;fill-opacity:1;stroke-width:.916356" transform="scale(-1 1)"/><path d="M180.787 189.575h-31.402v3.262h31.402s-.127-.899-.127-1.674c0-.86.127-1.588.127-1.588" style="fill:#d6d3c7;stroke-width:.785201"/><path d="M-178.721 182.052h26.383v6.599h-26.383z" style="fill:#86a7c4;fill-opacity:1;stroke-width:1.34135" transform="scale(-1 1)"/><path d="M217.636 135.903h7.824v38.806h-7.824z" style="fill:#803b50;fill-opacity:1;stroke-width:1.1206" transform="rotate(10.652)"/><path d="M196.315 158.884h2.896v54.44h-2.896z" style="fill:#7b7561;fill-opacity:1;stroke-width:.807499"/><path d="M10.678 233.862h7.156v61.218h-7.156z" style="fill:#a68c36;fill-opacity:1;stroke-width:1.34604"/><path d="M17.935 238.979h8.419v56.01h-8.419z" style="fill:#86d6cc;fill-opacity:1;stroke-width:1.39647"/><path d="M26.16 252.567h8.419v42.423H26.16z" style="fill:#213961;fill-opacity:1;stroke-width:1.21533"/><path d="M34.676 243.549h6.591v51.441h-6.591z" style="fill:#39a79e;fill-opacity:1;stroke-width:1.18413"/><path d="M41.358 249.567h10.179v45.481H41.358z" style="fill:#000;fill-opacity:1;stroke-width:1.38368"/><path d="M51.63 252.199h8.408v42.885H51.63z" style="fill:#13605e;fill-opacity:1;stroke-width:1.22118"/><path d="M60.16 240.566h8.408v54.517H60.16z" style="fill:#3e8366;fill-opacity:1;stroke-width:1.37688"/><path d="M68.432 233.716h8.408v61.368h-8.408z" style="fill:#9ca0da;fill-opacity:1;stroke-width:1.46081"/><path d="M66.217 247.341h4.57v51.026h-4.57z" style="fill:#0c625f;fill-opacity:1;stroke-width:.982003" transform="rotate(-2.525)"/><path d="M65.678 249.068h4.57v51.026h-4.57z" style="fill:#35409e;fill-opacity:1;stroke-width:.982003" transform="rotate(-3.735)"/><path d="M90.007 283.49h61.227v11.643H90.007z" style="fill:#868686;fill-opacity:1;stroke-width:1.89251"/><path d="M89.693 284.993h58.335v8.694H89.693s.235-2.396.235-4.46c0-2.292-.235-4.234-.235-4.234" style="fill:#d6d3c7;stroke-width:1.7472"/><path d="M94.655 273.902h49.371v9.845H94.655z" style="fill:#6c0a0a;fill-opacity:1;stroke-width:1.56273"/><path d="M94.401 275.173h47.039v7.352H94.401s.19-2.027.19-3.772c0-1.938-.19-3.58-.19-3.58" style="fill:#d6d3c7;stroke-width:1.44274"/><path d="M92.217 267.076h51.269v6.849H92.217z" style="fill:#726d51;fill-opacity:1;stroke-width:1.90489"/><path d="M99.929 260.223h39.893v6.849H99.929z" style="fill:#7fcbc9;fill-opacity:1;stroke-width:1.68031"/><path d="M93.466 255.828h39.893v4.457H93.466z" style="fill:#bacb7f;fill-opacity:1;stroke-width:1.3556"/><path d="M128.284 253.077h8.405v51.82h-8.405z" style="fill:#7e4344;fill-opacity:1;stroke-width:1.3421" transform="matrix(.99774 -.06724 .07946 .99684 0 0)"/><path d="M124.089 268.77h6.34v44.695h-6.34z" style="fill:#b2c9ad;fill-opacity:1;stroke-width:1.08256" transform="rotate(-7.25)"/><path d="M179.632 236.757h4.71v58.381h-4.71z" style="fill:#5764b3;fill-opacity:1;stroke-width:1.06644"/><path d="M112.897 280.835h7.547v43.572h-7.547z" style="fill:#999fbe;fill-opacity:1;stroke-width:1.16618" transform="matrix(.97842 -.20662 .18925 .98193 0 0)"/><path d="M193.402 235.208h5.942v59.983h-5.942z" style="fill:#655171;fill-opacity:1;stroke-width:1.2141"/><path d="M184.394 245.444h8.993v49.747h-8.993z" style="fill:#a6887f;fill-opacity:1;stroke-width:1.36024"/><path d="M76.189 85.244h11.536v54.088H76.189z" style="fill:#5f5e2e;fill-opacity:1;stroke-width:1.60641"/><path d="M78.602 90.989h6.663v4.572h-6.663z" style="fill:#535228;fill-opacity:1;stroke-width:1.51186"/></svg>