<svg xmlns="http://www.w3.org/2000/svg" xml:space="preserve" width="207mm" height="265mm" viewBox="0 0 207 265"><path d="M2.178 22.783h171.828v239.724H2.178z" style="fill:#a3a5de;fill-opacity:1;stroke-width:.862872" transform="rotate(-6.365)"/><path d="M21.621 53.335h160.828v194.658H21.621z" style="fill:#b2b2b2;fill-opacity:1;stroke-width:.752655;stroke-dasharray:none"/><path d="M99 12.517h67.897v45.138H99z" style="opacity:1;fill:#fff;fill-opacity:1;stroke:none;stroke-width:.782984;stroke-opacity:1" transform="translate(6.448 -.759)"/><path d="M132.162 12.328h1.951v45.485h-1.951z" style="opacity:1;fill:#425085;fill-opacity:1;stroke:none;stroke-width:.524222;stroke-opacity:1" transform="translate(6.448 -.759)"/><path d="M104.335 19.714c.536-.224 1.047-.524 1.61-.67.477-.126.986-.062 1.474-.135.408-.061.8-.21 1.207-.268.664-.095 1.341 0 2.012 0 .268 0 .548-.077.804 0 .215.064.34.298.537.402.566.3 1.185.491 1.743.805.357.2.294.46.67.536 1.337.267 3.24-1.438 4.158-2.011.152-.095.358 0 .537 0 1.37 0 1.283.739 2.28.938 1.452.29 2.796.67 4.29.67m-22.663 5.633 5.632-.536c1.207.134 2.407.435 3.621.402 2.112-.057 4.21-.377 6.303-.67.16-.023.253-.209.402-.269.23-.092 1.376-.02 1.476 0 .373.08.73.232 1.072.403.296.148.708.764 1.073.804 1.33.148 3.108-.386 4.292.403m-22.798 5.229c13.73-.291 2.178-.387 8.18.135 1.428.124 2.86.348 4.292.268.546-.03.417-1.136 1.743-.804 1.053.263 1.81 1.005 2.816 1.34.533.178 2.33-.062 3.085 0 .315.027.636.044.938.135.425.127.586.402 1.073.402m-21.591 5.767 7.376-.269c1.43.135 2.855.43 4.291.403.014 0 2.795-.777 3.755-.537.392.098.717.378 1.073.537.647.287 1.078.268 1.744.268m-16.898 4.291 9.79.134c2.235.492 4.422 1.315 6.705 1.476.974.068 1.87-.568 2.816-.805.675-.169 1.237.268 1.878.268m-22.396 8.449c1.673-1.171 3.456-2.883 5.767-2.682 1.117.097 2.017.997 3.084 1.34.02.007 2.127.062 2.28 0 .67-.267 0-.2.402-.401.294-.147 1.317-.013 1.61.134.153.076.72.583.938.67.607.243 2.47-.187 3.219 0 .391.098 1.036.276 1.34.537.218.186.257.614.537.67.395.08.805 0 1.207 0m13.813-32.454c3.398-1.207 6.648-2.962 10.192-3.62 1.648-.307 3.29.696 4.962.804 1.12.072 2.235-.188 3.353-.268 1.81-.13 3.681 0 5.498 0m-23.602 7.376c2.548-.715 5.039-1.68 7.644-2.146.474-.085.864.468 1.34.537.842.12 1.7 0 2.549 0 .313 0 .642-.1.939 0 .19.063.344.213.536.268 1.09.311 2.16-.58 3.218-.403 1.647.275-.703-.055.671.403.753.25 2.065-.25 2.816 0 .12.04.155.211.268.268.32.16.716 0 1.073 0h1.61m-21.86 6.303c2.012 0 4.025.07 6.035 0 1.196-.042 5.478-.812 7.51-.134.06.02.072.122.134.134.53.106 1.493.074 2.012 0 .172-.025.33-.248.67-.134.06.02.072.122.134.134.262.052.67-.083.94 0 .54.166 1.062.392 1.608.536.969.255 1.237.09 1.744-.67m-21.189 6.571c2.1-.626 4.12-1.68 6.303-1.877 2.37-.214 4.738.455 7.108.67.662.06 1.357.025 2.011.134.14.023.263.114.402.134.444.064 1.046-.143 1.476 0 .12.04.145.238.268.269.778.194 1.65-.248 2.414.134M138.13 43.45c2.682-.58 5.318-1.446 8.046-1.743 1.428-.155 2.858.302 4.291.402 1.116.079 2.235.106 3.353.135.626.016 1.252 0 1.878 0 .134 0 .29-.075.402 0 .105.07.147.233.268.268.614.175 2.167 0 2.95 0 .274 0 1.095.38 1.342.134.178-.179-.224-.134.134-.134" style="fill:none;stroke:#000;stroke-width:.296;stroke-dasharray:none;stroke-opacity:1" transform="translate(6.448 -.759)"/><text xml:space="preserve" x="5.561" y="44.661" style="font-size:16.682px;text-align:start;writing-mode:lr-tb;direction:ltr;text-anchor:start;fill:none;stroke:#425085;stroke-width:.855;stroke-dasharray:none;stroke-opacity:1" transform="translate(6.448 -.759)"><tspan x="5.561" y="44.661" style="stroke:#425085;stroke-width:.855;stroke-dasharray:none;stroke-opacity:1">NEW BOOK</tspan></text><path d="M137.69 52.724c2.788 0 .673.164 3.603-.569l1.138-.19c.063-.063.11-.15.19-.19.202-.1.556.102.758 0 2.338-1.168-1.776.53 1.518-.568.084-.028.102-.172.19-.19.247-.05.515.07.758 0 .219-.062.357-.294.569-.38.33-.131 1.193-.053 1.517 0 1.087.182 1.721.861 2.655 1.329.294.146 2.836.191 2.845.19.077-.016 1.693-.915 1.897-.95.405-.067 4.855.165 5.5.38.17.057.252.253.379.38" style="fill:none;fill-opacity:1;stroke:#000;stroke-width:.255;stroke-dasharray:none;stroke-opacity:1" transform="translate(6.448 -.759)"/></svg>