<?xml version="1.0" encoding="UTF-8" standalone="no"?>
<!-- Created with Inkscape (http://www.inkscape.org/) -->

<svg
   width="370"
   height="330"
   viewBox="0 0 97.895831 87.312502"
   version="1.1"
   id="svg1"
   inkscape:version="1.4 (86a8ad7, 2024-10-11)"
   sodipodi:docname="chat-night.svg"
   xmlns:inkscape="http://www.inkscape.org/namespaces/inkscape"
   xmlns:sodipodi="http://sodipodi.sourceforge.net/DTD/sodipodi-0.dtd"
   xmlns="http://www.w3.org/2000/svg"
   xmlns:svg="http://www.w3.org/2000/svg">
  <sodipodi:namedview
     id="namedview1"
     pagecolor="#505050"
     bordercolor="#eeeeee"
     borderopacity="1"
     inkscape:showpageshadow="0"
     inkscape:pageopacity="0"
     inkscape:pagecheckerboard="0"
     inkscape:deskcolor="#505050"
     inkscape:document-units="mm"
     inkscape:zoom="0.98646753"
     inkscape:cx="126.2079"
     inkscape:cy="173.85266"
     inkscape:window-width="1920"
     inkscape:window-height="1001"
     inkscape:window-x="-9"
     inkscape:window-y="-9"
     inkscape:window-maximized="1"
     inkscape:current-layer="layer1" />
  <defs
     id="defs1">
    <inkscape:path-effect
       effect="fillet_chamfer"
       id="path-effect3"
       is_visible="true"
       lpeversion="1"
       nodesatellites_param="F,0,0,1,0,5.8208332,0,1 @ F,0,0,1,0,5.8208332,0,1 @ F,0,0,1,0,0,0,1 @ F,0,0,1,0,5.8208332,0,1 @ F,0,0,1,0,5.8208332,0,1 @ F,0,0,1,0,5.8208332,0,1 @ F,0,0,1,0,5.8208332,0,1"
       radius="22"
       unit="px"
       method="auto"
       mode="F"
       chamfer_steps="1"
       flexible="false"
       use_knot_distance="true"
       apply_no_radius="true"
       apply_with_radius="true"
       only_selected="false"
       hide_knots="false" />
    <inkscape:path-effect
       effect="fillet_chamfer"
       id="path-effect1"
       is_visible="true"
       lpeversion="1"
       nodesatellites_param="F,0,0,1,0,5.8208332,0,1 @ F,0,0,1,0,5.8208332,0,1 @ F,0,0,1,0,5.8208332,0,1 @ F,0,0,1,0,5.8208332,0,1 @ F,0,0,1,0,5.8208332,0,1 @ F,0,0,1,0,5.8208332,0,1 @ F,0,0,1,0,5.8208332,0,1"
       radius="22"
       unit="px"
       method="auto"
       mode="F"
       chamfer_steps="1"
       flexible="false"
       use_knot_distance="true"
       apply_no_radius="true"
       apply_with_radius="true"
       only_selected="false"
       hide_knots="false" />
  </defs>
  <g
     inkscape:label="Layer 1"
     inkscape:groupmode="layer"
     id="layer1">
    <path
       style="fill:#5b5b5b;fill-opacity:1;stroke:#6e4710;stroke-width:8;stroke-dasharray:none;stroke-opacity:1"
       d="M 16.689655,121.58004 V 53.993247 a 5.8208332,5.8208332 135 0 1 5.820833,-5.820833 H 131.24138 v 73.455026 a 5.8208332,5.8208332 135 0 1 -5.82083,5.82083 H 51.338074 a 11.152074,11.152074 152.43766 0 0 -9.149142,4.7754 l -10.791657,15.48369 a 1.8283411,1.8283411 17.43766 0 1 -3.328309,-1.04543 V 133.2691 a 5.8451301,5.8451301 45.119331 0 0 -5.820783,-5.84508 5.714959,5.714959 46.434084 0 1 -5.558528,-5.84398 z"
       id="path2"
       sodipodi:nodetypes="cccccccc"
       inkscape:path-effect="#path-effect3"
       inkscape:original-d="M 16.689655,127.40087 V 48.172414 H 131.24138 V 127.44827 H 45.517241 l -17.448275,25.03449 v -25.03449 z"
       transform="matrix(-0.58983099,0,0,0.65574784,102.58136,-14.333376)" />
    <path
       style="fill:#353535;fill-opacity:1;stroke:#6e4710;stroke-width:8;stroke-dasharray:none;stroke-opacity:1"
       d="M 16.689655,121.58004 V 53.993247 a 5.8208332,5.8208332 135 0 1 5.820833,-5.820833 H 125.42055 a 5.8208332,5.8208332 45 0 1 5.82083,5.820833 v 67.634193 a 5.8208332,5.8208332 135 0 1 -5.82083,5.82083 H 51.338074 a 11.152074,11.152074 152.43766 0 0 -9.149142,4.7754 l -10.791657,15.48369 a 1.8283411,1.8283411 17.43766 0 1 -3.328309,-1.04543 V 133.2691 a 5.8451301,5.8451301 45.119331 0 0 -5.820783,-5.84508 5.714959,5.714959 46.434084 0 1 -5.558528,-5.84398 z"
       id="path1"
       sodipodi:nodetypes="cccccccc"
       inkscape:path-effect="#path-effect1"
       inkscape:original-d="M 16.689655,127.40087 V 48.172414 H 131.24138 V 127.44827 H 45.517241 l -17.448275,25.03449 v -25.03449 z"
       transform="matrix(0.61703008,0,0,0.65466333,-6.0635081,-27.467758)" />
    <circle
       style="fill:#5b5b5b;fill-opacity:1;stroke:#6e4710;stroke-width:1.39655;stroke-dasharray:none;stroke-opacity:1"
       id="path3"
       cx="25.748442"
       cy="42.243534"
       r="2.7156436" />
    <circle
       style="fill:#5b5b5b;fill-opacity:1;stroke:#6e4710;stroke-width:1.39655;stroke-dasharray:none;stroke-opacity:1"
       id="circle3"
       cx="39.29546"
       cy="42.243534"
       r="2.7156436" />
    <circle
       style="fill:#5b5b5b;fill-opacity:1;stroke:#6e4710;stroke-width:1.39655;stroke-dasharray:none;stroke-opacity:1"
       id="circle4"
       cx="52.91069"
       cy="42.243534"
       r="2.7156436" />
  </g>
</svg>
