<svg xmlns="http://www.w3.org/2000/svg" width="500" height="500" viewBox="0 0 132.292 132.292"><circle cx="65.853" cy="66.231" r="55.496" style="display:inline;fill:#b8b8a0;fill-opacity:1;stroke:none;stroke-width:10.973;stroke-linecap:round;stroke-linejoin:round;stroke-dasharray:none;stroke-opacity:1;paint-order:markers fill stroke"/><path d="M65.853 10.735A55.496 55.496 0 0 0 10.358 66.23a55.5 55.5 0 0 0 39.324 53.048 53.609 52.005 0 0 1-29.89-46.539 53.609 52.005 0 0 1 53.609-52.005 53.609 52.005 0 0 1 40.815 18.311 55.5 55.5 0 0 0-48.363-28.311" style="display:inline;fill:#969673;fill-opacity:1;stroke:none;stroke-width:10.973;stroke-linecap:round;stroke-linejoin:round;stroke-dasharray:none;stroke-opacity:1;paint-order:markers fill stroke"/><path d="M65.807 26.71c1.512 0 2.737-1.077 2.737-2.405q0-.02-.004-.037h.006v-8.043h-5.475v8.038l-.003.042c0 1.328 1.225 2.404 2.737 2.404zM25.995 66.3c.006-1.511-1.066-2.74-2.394-2.746l-.037.004v-.006l-8.042-.03-.02 5.475 8.036.03.042.004c1.328.005 2.41-1.217 2.415-2.729zm79.701 0c-.006-1.511 1.066-2.74 2.394-2.746l.037.004v-.006l8.042-.03.02 5.475-8.036.03-.043.004c-1.328.005-2.409-1.217-2.414-2.729zM94.972 93.466c-1.05 1.087-1.126 2.717-.17 3.64l.03.022-.005.004 5.788 5.584 3.801-3.94-5.784-5.58-.027-.032c-.956-.922-2.582-.788-3.632.3zm-58.004 0c1.05 1.087 1.126 2.717.17 3.64l-.029.022.004.004-5.787 5.584-3.802-3.94 5.784-5.58.027-.032c.956-.922 2.582-.788 3.632.3zm58.004-54.309c-1.05-1.088-1.126-2.718-.17-3.64l.03-.023-.005-.004 5.788-5.584 3.801 3.94-5.784 5.58-.027.033c-.956.922-2.582.787-3.632-.3zm-58.004 0c1.05-1.088 1.126-2.718.17-3.64l-.03-.023.005-.004-5.787-5.584-3.802 3.94 5.784 5.58q.015.015.027.033c.956.922 2.582.787 3.632-.3zm28.839 67.263c1.512 0 2.737 1.076 2.737 2.404q0 .019-.004.038h.006v8.042h-5.475v-8.037l-.003-.042c0-1.329 1.225-2.405 2.737-2.405z" style="fill:#48483f;fill-opacity:1;stroke:none;stroke-width:4.31048;stroke-linecap:round;stroke-linejoin:round;stroke-dasharray:none;stroke-opacity:1;paint-order:markers fill stroke"/><circle cx="65.853" cy="66.231" r="55.496" style="display:inline;fill:none;stroke:#f1b955;stroke-width:10.9725;stroke-linecap:round;stroke-linejoin:round;stroke-dasharray:none;stroke-opacity:1;paint-order:markers fill stroke"/><circle cx="65.853" cy="66.231" r="55.496" style="display:inline;fill:none;stroke:#bc995c;stroke-width:10.9725;stroke-linecap:round;stroke-linejoin:round;stroke-dasharray:none;stroke-opacity:1;paint-order:markers fill stroke;fill-opacity:1"/><path d="M59.578 68.535s-7.27.457-14.654.611c-5.788.121-8.518.317-12.11-1.094-1.201-.472-2.672-1.771-2.633-2.086.036-.286 2.04-1.218 3.144-1.519 3.737-1.017 6.517-1.05 12.705-.894 8.072.204 13.149.5 13.149.5z" style="fill:#82801e;fill-opacity:1;stroke:none;stroke-width:9.42554;stroke-linecap:round;stroke-linejoin:round;stroke-dasharray:none;stroke-opacity:1;paint-order:markers fill stroke"/><path d="M68.047 58.92s3.258-6.58 6.838-13.109c2.805-5.116 6.352-11.381 9.391-13.81 1.016-.811 2.891-1.442 3.146-1.25.232.176.038 2.396-.255 3.51-.991 3.776-4.705 10.004-7.954 15.33-4.238 6.948-7.05 11.234-7.05 11.234z" style="fill:#1e6d83;fill-opacity:1;stroke:none;stroke-width:9.50043;stroke-linecap:round;stroke-linejoin:round;stroke-dasharray:none;stroke-opacity:1;paint-order:markers fill stroke"/><circle cx="65.499" cy="66.231" r="8.959" style="fill:#a2a2a2;fill-opacity:1;stroke:none;stroke-width:1.77145;stroke-linecap:round;stroke-linejoin:round;stroke-dasharray:none;stroke-opacity:1;paint-order:markers fill stroke"/><circle cx="65.499" cy="66.231" r="5.061" style="fill:#444;fill-opacity:1;stroke:none;stroke-width:1.00076;stroke-linecap:round;stroke-linejoin:round;stroke-dasharray:none;stroke-opacity:1;paint-order:markers fill stroke"/><path d="M65.853 5.42c-33.671 0-60.967 27.11-60.968 60.554a60.2 60.2 0 0 0 2.692 17.652 64 64 0 0 1-.616-8.563c0-35.565 25.065-66.661 60.874-66.661 12.006.005 27.738 5.586 37.959 11.844A61.2 61.2 0 0 0 65.854 5.42" style="fill:#eac88a;fill-opacity:1;stroke:none;stroke-width:12.0135;stroke-linecap:round;stroke-linejoin:round;stroke-dasharray:none;stroke-opacity:1;paint-order:markers fill stroke"/><path d="M66.03 127.214c33.672 0 60.969-27.111 60.969-60.555a60.2 60.2 0 0 0-2.692-17.652c.397 2.838.603 5.698.616 8.563 2.936 36.766-23.731 67.062-62.341 67.195-12.007-.005-26.271-6.12-36.491-12.378 11.082 9.556 25.264 14.82 39.94 14.827" style="fill:#8b7244;fill-opacity:1;stroke:none;stroke-width:12.0135;stroke-linecap:round;stroke-linejoin:round;stroke-dasharray:none;stroke-opacity:1;paint-order:markers fill stroke"/></svg>