<svg xmlns="http://www.w3.org/2000/svg" xmlns:xlink="http://www.w3.org/1999/xlink" xml:space="preserve" width="1200" height="793.701" viewBox="0 0 317.5 210"><defs><linearGradient id="a"><stop offset=".339" style="stop-color:#73a8b2;stop-opacity:1"/><stop offset="1" style="stop-color:#dfdfdf;stop-opacity:1"/></linearGradient><linearGradient xlink:href="#a" id="b" x1="159.015" x2="159.015" y1="16.217" y2="184.492" gradientTransform="translate(0 -4.917)" gradientUnits="userSpaceOnUse"/></defs><g style="display:inline"><path d="M33.867 180.027V54.349S38.365 28.42 63.5 18.631s40.746-5.821 46.302-3.704 17.992 10.847 17.992 10.847 13.758-16.14 31.75-14.552c17.991 1.588 30.427 12.7 30.427 12.7s41.466-24.304 68.791-4.233c29.898 21.96 26.194 45.773 26.194 45.773v116.417z" style="display:inline;fill:url(#b);stroke-width:.264583"/></g><g style="display:inline"><g style="display:inline"><path d="M-36.636 80.173c-.193-1.935.323-2.257 1.161-5.16s1.097-5.095 2.903-5.16c1.806-.064 5.74.58 6.643 1.097.903.516 2.774 1.29 3.419 2.45.645 1.162 2 3.29 2.644 4.451s2.258 3.612 1.677 3.934c-.58.323-1.29 1.548-1.87 1.548s-4.064 2.322-6.58 1.226-3.87-2.451-4.708-3.483-2.838-2.515-2.838-2.515z" style="display:inline;fill:#224b16;fill-opacity:1;stroke-width:.600001;stroke-linecap:square;stroke-linejoin:bevel;stroke-dasharray:.600001,1.8" transform="translate(144.363 -37.317)scale(2.7168)"/><path d="M-35.152 63.403c.58-1.87.903-2.838 1.87-2.773s1.226.064.968.064-.839-1.483.645-1.419 1.612.774 1.612.774 1.742-4.515 4.902-3.16 3.29 2.967 3.032 2.967-.774-2.193 2.902-.903 3.29 2.322 3.29 2.322 1.806-1.548 2.58.387.451 3.096.451 3.096l.323 2.773s-.387 4.064.387 4.128 2.515-1.741 3.225-.645.774 3.29.58 3.612c-.193.323-1.677 1.355-1.677 1.355s2.193-2.451 2.451.193-2 5.87-2 5.87.646 1.29-1.29 1.225c-1.934-.065-2.063-.129-2.063-.129s1.032 1.548 0 1.612-4.128.903-3.548-1.096 2.774-6.514 2.58-6.837-3.805-10.384-9.288-10.449c-5.482-.064-10.578.452-11.287.13-.71-.323-.645-3.097-.645-3.097" style="display:inline;fill:#61a51e;fill-opacity:1;stroke-width:.600001;stroke-linecap:square;stroke-linejoin:bevel;stroke-dasharray:.600001,1.8" transform="translate(144.363 -37.317)scale(2.7168)"/><path d="M-27.928 62.049s1.096-3.16 2.644-2.322a19 19 0 0 1 2.838 1.935s-.774-2.516 2.645-1.548c3.418.967 3.612 2.838 3.29 2.902s-1.936 1.548-1.936 1.548 1.42-1.806 2.71-1.354 1.74.58 1.29 1.096a25 25 0 0 1-.968 1.032s.774-2.193 2.709.903-.58 3.16-.58 3.16 2.386-1.354 3.289 1.355.064 3.999-.58 3.999c-.646 0-9.353-3.096-9.934-4.644s-7.224-6.127-7.224-6.127z" style="display:inline;fill:#3fb61d;fill-opacity:1;stroke-width:.600001;stroke-linecap:square;stroke-linejoin:bevel;stroke-dasharray:.600001,1.8" transform="translate(144.363 -37.317)scale(2.7168)"/><path d="m-24.897 65.274-.645.129s.387 2.709-.258 5.934-4.773 7.482-5.934 7.353c-1.16-.13-7.869-9.675-7.869-9.675l-.903.258s4.644 7.481 6.063 9.158c1.42 1.677 1.677 3.097 3.483 6.967l.006.015h5.06c.59-.408 1.533-.144 2.803-.854 2.193-1.226 6.708-.58 6.708-.58l.516-2.323s-5.418 1.29-7.353 1.162c-1.935-.13.903 0 2.967-2.193s4.386-2.065 6.837-4.258-.129-1.934-.129-1.934-1.29-.13-2.064 1.677-4.902 3.225-5.676 3.999 2.064-6.192 3.096-6.837.13 0-1.16.129-3.758 8.936-6.257 7.772c-2.828-1.318 1.234-5.057 1.967-5.87 2.386-2.644 2.014-5.884 2.967-8.45.42-1.128.61-1.321-.161-1.225-.77.097-1.613 6.483-2.645 6.483s-1.419-6.837-1.419-6.837" style="display:inline;fill:#855727;fill-opacity:1;stroke-width:.600001;stroke-linecap:square;stroke-linejoin:bevel;stroke-dasharray:.600001,1.8" transform="translate(144.363 -37.317)scale(2.7168)"/><path d="M-28.916 77.716c-1.824-1.642-1.824-.182-2.28-3.466s-.638-5.29-.638-5.29l.82.09.457 5.656s.912-.82 1.185-2.554c.274-1.733.639-2.463.639-2.463s.547-.273.547.091c0 .365-.547 3.923-.82 5.017-.274 1.095 1.003 2.28 1.003 2.28z" style="display:inline;fill:#764d23;fill-opacity:1;stroke-width:.600001;stroke-linecap:square;stroke-linejoin:bevel;stroke-dasharray:.600001,1.8" transform="translate(144.363 -37.317)scale(2.7168)"/><path d="M-35.483 74.706c-.091-1.55-.183-2.828-.365-4.287s-.82-2.007-.365-2.098l.456-.091s1.642 4.196 1.368 6.202l-.273 2.007z" style="display:inline;fill:#825526;fill-opacity:1;stroke-width:.600001;stroke-linecap:square;stroke-linejoin:bevel;stroke-dasharray:.600001,1.8" transform="translate(144.363 -37.317)scale(2.7168)"/><path d="M-25.51 69.266c-.057.65-.144 1.344-.29 2.07-.645 3.226-4.773 7.483-5.934 7.354-.364-.04-1.294-1.049-2.371-2.357a834 834 0 0 1 1.176 2.312c1.558 1.412.194 3.019 1.655 1.85 1.461-1.168 1.558-1.607 2.24-2.434s2.776-1.17 2.922-2.046 1.022-1.217 1.899-1.801c.876-.585 1.85-1.656 2.094-2.289.05-.131-.204-.418-.633-.78-.232.58-.473.966-.726.966-.384 0-.679-.95-.898-2.14a30 30 0 0 0-1.134-.705" style="display:inline;fill:#674421;fill-opacity:1;stroke-width:.600001;stroke-linecap:square;stroke-linejoin:bevel;stroke-dasharray:.600001,1.8" transform="translate(144.363 -37.317)scale(2.7168)"/><path d="M-34.297 64.946c.638-2.098 3.74-3.193 4.287-3.193s1.915 1.916 1.915 1.916 2.007-3.831 3.467-2.372-2.554 3.467 1.46 1.46 2.918-1.186 4.195-.548c1.277.639.821 3.467.821 3.467s.547-2.554 2.007.273 0 2.828 0 2.828 4.56-3.74 4.743-.547c.182 3.192-.912 3.83-.912 3.83s1.094-1.367 2.554 1.095c1.46 2.463.547 3.831.547 3.831s2.372 1.004-.091 2.463-.365 4.014-3.193 3.284c-2.827-.73-4.925-3.01-4.925-3.649 0-.638 2.645-3.01-.365-3.466s-5.108-2.007-5.108-2.645c0-.639 5.2-4.378-.821-5.29-6.02-.913-7.754-.913-8.666-1.004s-1.915-1.733-1.915-1.733" style="display:inline;fill:#45992c;fill-opacity:1;stroke-width:.600001;stroke-linecap:square;stroke-linejoin:bevel;stroke-dasharray:.600001,1.8" transform="translate(144.363 -37.317)scale(2.7168)"/><path d="m-25.768 71.166-.032.17c-.286 1.429-1.254 3.058-2.346 4.42.393-.132.132.108.69-.32.684-.525.023-.57 1.277-.935s1.436-.388 2.12-.57c.685-.183 2.304-1.46 1.688-1.779-.133-.069-.41-.166-.761-.274-.113.147-.228.232-.346.232-.163 0-.31-.172-.443-.462a65 65 0 0 0-1.847-.482" style="display:inline;fill:#5d3d1b;fill-opacity:1;stroke-width:.600001;stroke-linecap:square;stroke-linejoin:bevel;stroke-dasharray:.600001,1.8" transform="translate(144.363 -37.317)scale(2.7168)"/><path d="M-19.64 75.544c-.525.222-1.075.459-1.6.686-.408.813-.847 1.693-1.306 2.49q.021.209-.03.456c-.182.866-.639 1.413-.639 1.413l.137.822s1.186-.183.73.045-1.55.867-1.55.867-.365.82-.092.82c.274 0 1.551.502 1.551.502s.188.237.453.486c.7-.186 1.483-.273 2.24-.305a29 29 0 0 0 1.672-1.69c-1.73.352-4.02.757-5.146.682-1.935-.13.903 0 2.967-2.193 1.23-1.306 2.55-1.79 3.935-2.43-.062-.3-.142-.62-.232-.94-1.504 1.26-4.133 2.251-4.735 2.853-.513.513.561-2.37 1.644-4.564" style="fill:#855727;fill-opacity:1;stroke-width:.600001;stroke-linecap:square;stroke-linejoin:bevel;stroke-dasharray:.600001,1.8" transform="translate(144.363 -37.317)scale(2.7168)"/><path d="M-32.572 66.37c.838-1.032 1.16-2.644 1.483-2.709s1.87-1.354 1.935.258.452 3.548.452 3.548 1.548-2.967 2.967-3.29 2.709 1.355 2.709 1.355l1.483.387s2.903-1.226 3.096.967-.129 3.548-.58 3.548c-.452 0-3.548 1.548-3.548 1.548s3.612-2.258 4.709-1.548.58 2.515.58 2.515.839-3.354 2.645-2.064 1.806 1.677 1.806 1.677.58-.516 1.032.839c.451 1.354.064 2.773-.516 3.289s-3.032 2-3.032 2 3.935-2.193 3.483-.13c-.451 2.065 1.226 3.419-1.29 3.677s-3.612.387-3.612.387-4.192-5.87-4.515-6.579c-.322-.71-8.514-7.353-9.223-7.417s-2.645-1.097-2.645-1.097z" style="display:inline;fill:#6bbf1a;fill-opacity:1;stroke-width:.600001;stroke-linecap:square;stroke-linejoin:bevel;stroke-dasharray:.600001,1.8" transform="translate(144.363 -37.317)scale(2.7168)"/><path d="M-29.127 70.915a15 15 0 0 0-.245 1.237c-.273 1.733-1.185 2.554-1.185 2.554l-.276-3.416c-.24.086-.485.175-.715.26.092.758.208 1.665.352 2.7.265 1.906.377 2.213.78 2.457a.4.4 0 0 0 .064-.154c.114-.547.16-1.277.16-1.277l.319.456.387-.889-.114-.57s.274-.57.274-.342-.023.958.137.342c.057-.22.2-.327.374-.392.165-.873.353-2.034.48-2.905a34 34 0 0 0-.792-.061" style="display:inline;fill:#6e4820;fill-opacity:1;stroke-width:.600001;stroke-linecap:square;stroke-linejoin:bevel;stroke-dasharray:.600001,1.8" transform="translate(144.363 -37.317)scale(2.7168)"/><path d="M-40.828 70.176c-1.29-2-2-2.064-.452-3.354s2.838-1.484 2.838-1.484.774-2.257 2.258-2.45 1.935.515 1.935.515 1.483 1.677 1.483 1.097.13-4.128 1.42-4.128 3.16.516 3.16.838c0 .323.838 2.064.838 2.064s.323 4.709-.129 4.709c-.451 0-7.417.516-8.062.774s-5.29 1.419-5.29 1.419" style="display:inline;fill:#4aa530;fill-opacity:1;stroke-width:.600001;stroke-linecap:square;stroke-linejoin:bevel;stroke-dasharray:.600001,1.8" transform="translate(144.363 -37.317)scale(2.7168)"/><path d="M-19.885 85.743c1.733 1.095 2.919 2.92 4.47 1.186s2.371-3.557 1.368-4.834l-1.004-1.277s5.747-1.551 4.196-3.74c-1.55-2.19-1.642-2.19-1.642-2.19s.092-3.192-1.277-3.1c-1.368.09-3.283 2.006-3.283 2.006s1.368-2.554-.639-2.372c-2.007.183-3.01 2.737-3.01 2.737s-.456-3.74.638-4.287c1.095-.548 1.369-.821 1.277-2.554-.09-1.734-.182-2.372-.73-2.463-.547-.091-.455-3.01-2.28-2.19-1.824.821-1.915 2.19-2.463 2.19-.547 0-2.28-2.463-3.466-1.095s-1.003 1.824-1.003 1.824-2.645-2.918-4.196-2.098-1.186 2.007-1.186 2.007-1.003-3.466-3.101-1.186-1.916 2.463-1.916 2.463-5.746 2.828-3.648 4.926 2.098 2.372 2.098 2.372-3.626-1.292-2.646 1.185c1.733 4.379 3.01 2.098 3.01 2.098s-2.189 3.831-.182 4.926 3.649.73 4.287-.82c.639-1.552 2.463.455 3.375-3.011s.183-4.47.183-5.747.638.092 2.098.639 1.824-2.007 2.462-.274 1.551.274 3.375.274.639 3.192 1.46 3.83c.82.64 2.28 1.187 2.28 1.187s-2.098.73-1.55 2.098 2.189 1.642 2.189 1.642-1.368 0-1.277 1.46 1.733 2.188 1.733 2.188" style="display:inline;fill:#367823;fill-opacity:1;stroke-width:.600001;stroke-linecap:square;stroke-linejoin:bevel;stroke-dasharray:.600001,1.8" transform="translate(144.363 -37.317)scale(2.7168)"/><path d="M-28.38 78.174s.065.064.194.516c.129.451-1.613.645-1.613.645s.258-.968-.064-.968c-.323 0-1.161 1.16-1.548 1.483s-.71-.064-1.355-1.612l-.672 1.65c.692 1.248 1.195 2.759 2.478 5.51q.133.287.245.6h1.532c-.11-.446-.206-.872-.229-1.116-.049-.543.535.56.817 1.116h.21l.328-1.697-1.097.064s-.064-1.419 1.097-2.193c1.16-.774.71-.451 1.741-.967s-1.548-.58-1.419-1.42c.13-.838.516-1.096.71-1.354s-1.355-.257-1.355-.257" style="display:inline;fill:#855727;fill-opacity:1;stroke-width:.600001;stroke-linecap:square;stroke-linejoin:bevel;stroke-dasharray:.600001,1.8" transform="translate(144.363 -37.317)scale(2.7168)"/><path d="M-33.351 80.05c.595 1.117 1.084 2.48 2.108 4.73h1.213l-.285-.672s0-.645.58-2.387c.581-1.741-1.225.387-1.74.258-.517-.129.063-1.225.063-1.225l-.967.128s-.533-.62-.972-.831" style="display:inline;fill:#6e4820;fill-opacity:1;stroke-width:.600001;stroke-linecap:square;stroke-linejoin:bevel;stroke-dasharray:.600001,1.8" transform="translate(144.363 -37.317)scale(2.7168)"/><path d="M-32.96 70.111c1.871.58 2.58 2.58 4.451 1.484s1.226-.839.71-.774-1.484 1.032-2.064.645-3.096-1.355-3.096-1.355" style="fill:#275619;fill-opacity:1;stroke-width:.600001;stroke-linecap:square;stroke-linejoin:bevel;stroke-dasharray:.600001,1.8" transform="translate(144.363 -37.317)scale(2.7168)"/><path d="M-22.51 73.788c.58 1.612-.323 2.58.774 3.031s2.45.58 1.419.194c-1.032-.387-1.097.451-1.42-.839s-.773-2.386-.773-2.386" style="fill:#265418;fill-opacity:1;stroke-width:.600001;stroke-linecap:square;stroke-linejoin:bevel;stroke-dasharray:.600001,1.8" transform="translate(144.363 -37.317)scale(2.7168)"/><path d="M-20.446 83.785c2.257 2.322 3.547 2.838 4.58 1.419 1.031-1.419 1.87-2.451.967-1.806s-1.032 2.193-2.064 2-3.483-1.613-3.483-1.613" style="fill:#377a23;fill-opacity:1;stroke-width:.600001;stroke-linecap:square;stroke-linejoin:bevel;stroke-dasharray:.600001,1.8" transform="translate(144.363 -37.317)scale(2.7168)"/><path d="M-38.893 79.593c1.419.322 3.031 1.483 3.999-.323.967-1.806.193-2.128.193-2.128s-.129 2.064-1.225 2.193-2.967.258-2.967.258" style="fill:#28591a;fill-opacity:1;stroke-width:.600001;stroke-linecap:square;stroke-linejoin:bevel;stroke-dasharray:.600001,1.8" transform="translate(144.363 -37.317)scale(2.7168)"/><path d="M-21.201 62.52a1.4 1.4 0 0 0-.6.145c-1.824.821-1.915 2.19-2.463 2.19-.547 0-2.28-2.463-3.466-1.095-1.185 1.368-1.003 1.825-1.003 1.825s-2.646-2.92-4.196-2.098c-1.55.82-1.186 2.006-1.186 2.006s-1.003-3.466-3.101-1.186-1.916 2.463-1.916 2.463-5.746 2.828-3.648 4.926c.213.213.39.395.562.572-.534-1.229-1.16-.859-.416-2.06.838-1.355 2.967-2.387 2.967-2.387h1.038c-.12.018-.453.14-1.2.839-1 .935-1.096 1.612-1.096 1.612s.58-1.612 3.16-2.29 4.644-.225 3.483-.71c-1.16-.483-3.45.13-3.45.13s-.355-.548.935-1.806-.29-1.903 1.71-.42 1.321 2.807 1.934 1.13-.451-2.838 1.452-1.839c.915.482 1.511.878 1.89 1.162-.142.032-.318.126-.536.322-.935.839-1.097 1.193-1.097 1.193s-.71.387 1.032-.129 2-1.032 2.645-.613 1.322.678 1.322.678-.645-.58-1.096-.968c-.452-.387-.452-1.096-.226-1.16.225-.065.258-.646 1.322-.323 1.064.322 2.71 1.386 2.806 1.225s1.064-2.225 2.128-2.257c.73-.022 1.217-.075 1.513.32-.214-.647-.506-1.391-1.203-1.397m1.472 2.13q.013.066.024.14c.194 1.322 1.129 2.064.258 2.935-.87.87-.58.322-1.322 1.838-.742 1.515.032 5.03.032 5.03s2.193-3.418 2.742-2.224.903 1.515.903 1.515 2.262-1.35 3.22-2.086c-1.36.171-3.185 1.996-3.185 1.996s1.368-2.554-.64-2.371c-2.006.182-3.01 2.736-3.01 2.736s-.455-3.74.64-4.287c1.094-.548 1.368-.822 1.276-2.555-.09-1.733-.182-2.37-.73-2.462-.08-.014-.147-.09-.208-.206" style="display:inline;fill:#48a02e;fill-opacity:1;stroke-width:.600001;stroke-linecap:square;stroke-linejoin:bevel;stroke-dasharray:.600001,1.8" transform="translate(144.363 -37.317)scale(2.7168)"/><path d="M-27.09 68.628c.452-.13 2.451-1.548 3.548-.58 1.096.967 1.806 3.16 1.548 3.224s-1.097-1.483-2.129-2.128-2.967-.516-2.967-.516" style="fill:#479f2e;fill-opacity:1;stroke-width:.600001;stroke-linecap:square;stroke-linejoin:bevel;stroke-dasharray:.600001,1.8" transform="translate(144.363 -37.317)scale(2.7168)"/><path d="M-16.512 75.271c1.484-1.032 2.064-1.87 2.71-1.096.644.774.773 2.064.773 2.064s2.129.193 1.161.967c-.967.774-1.29 2.064-1.29.839s.71-1.29 0-1.29-.355-1.839-.87-1.968c-.517-.129-.613.42-1.387.484-.774.065-1.097 0-1.097 0" style="display:inline;fill:#5cc73d;fill-opacity:1;stroke-width:.600001;stroke-linecap:square;stroke-linejoin:bevel;stroke-dasharray:.600001,1.8" transform="translate(144.363 -37.317)scale(2.7168)"/></g><path d="M225.726 115.008s-14.791 20.994-17.416 22.187 4.294.715 4.294.715l-7.634 15.269h2.625s-10.498 16.7-12.883 18.847c-2.386 2.147 5.01.715 5.01.715l-6.919 15.984 5.964-.477-6.68 12.883 10.02-2.147.035.148V194.6h45.56l-1.46-3.728h3.34c3.102 0-7.157-17.177-7.157-17.177l3.579.239-5.964-13.122 2.862-.477-5.487-18.37 2.625-.715s-5.01-15.746-10.974-25.527z" style="display:inline;fill:#3d8827;fill-opacity:1;stroke-width:1.46335;stroke-linecap:square;stroke-linejoin:bevel;stroke-dasharray:1.46335,4.39001"/><path d="M225.356 115.548c.44.33 2.527 1.208 2.527 1.208l.878 5.6s-2.087-.878-1.318 0c.769.88.989 3.955.989 3.955s-2.966-1.1-1.318.218c1.647 1.318 1.756 1.537 1.427 2.196-.33.66-1.098 1.867-1.098 1.867s-2.196 1.21-1.427 1.43c.768.22 1.647.877 1.647.877s-.22 3.075.22 3.075 1.647 1.758 1.098 1.978c-.55.22.33.657-1.098 1.536s-4.063-.11-4.063-.11l-.99-2.195s-1.318 1.318-1.757 1.318c-.44 0-1.098 1.647-2.197 0s-1.207-1.758-1.207-1.758-1.977 2.417-2.416 1.978c-.44-.44-1.209-1.21-1.758-1.21s-1.976-.768-1.976-.768-1.757.11-1.867-.658c-.002-.017-.01-.037-.015-.057 4.235-4.336 14.566-18.92 15.657-20.464z" style="display:inline;fill:#4ba530;fill-opacity:1;stroke-width:1.46335;stroke-linecap:square;stroke-linejoin:bevel;stroke-dasharray:1.46335,4.39001"/><path d="M216.571 138.854c.3.008.619.147.968.54 1.243 1.398 2.718 1.865 3.572 1.71s1.553-1.01 1.941-.233 2.408 1.088 2.408 1.088l2.175-.544 1.165 3.727-.39 4.815-.932.155 1.01 1.786-1.475 1.554 1.553.853.698 1.941-3.106 1.242-2.018.467-1.941-1.864s-1.631 2.719-2.253 1.01c-.62-1.708-4.038-2.486-4.038-2.486s-1.708 1.088-2.562.855c-.855-.233-3.805 1.32-3.106-.466s-2.175-2.253-3.029-2.951c-.2-.165-.886-.052-1.804.207l6.112-12.223.352.056c2.33-.621 1.553-.932 2.562-.621.726.223 1.371-.635 2.138-.618m-10.68 17.469c2.563.389 4.116.777 4.892.544s2.951.31 3.029.621c.078.31-1.01 4.427.387 3.34s1.01-1.942 3.029-2.02 5.047.545 4.193.778-3.027 1.008-2.25 1.008c.776 0 6.289-.621 6.289-.621l2.407 1.399s-2.718 1.785-4.737 5.202.7 3.96.7 3.96l.31 2.796-6.368.312-5.36-.545s-1.551 1.554-1.474 1.01c.078-.543-2.485-4.194-2.485-4.194l-3.028 1.475s-3.184-.543-3.727-.543c-.544 0-.855-.698-2.175-.387s-3.262 1.165-3.572 1.087c-.05-.012-.287-.1-.62-.229 2.159-2.537 6.952-9.878 9.865-14.419.423-.348.695-.574.695-.574" style="display:inline;fill:#4ba530;fill-opacity:1;stroke-width:1.46335;stroke-linecap:square;stroke-linejoin:bevel;stroke-dasharray:1.46335,4.39001"/><path d="m203.83 172.874 3.297 1.647-.99.44 6.04.658s-4.282.44-1.756.88c2.526.439 5.161.878 5.161.878s-6.369-1.318.99-1.427c7.357-.11 5.38.658 5.38.658l3.844 2.416s1.537-.44 0 .109c-1.538.549-8.018 3.404-5.492 3.514 2.525.11 3.955-.11 2.967.22-.989.33-5.822.44-3.955 2.416 1.867 1.977 2.855 3.294 2.855 3.294l-1.977 4.833s4.174 2.087 2.857 2.307-2.747 3.843-2.747 3.843-5.27-4.064-6.149-3.405c-.878.659-5.712 2.966-6.041 2.307s1.209-3.514-1.756-2.525-9.007 2.195-9.007.987 1.318-4.832 1.318-4.832-.876.225-2.187.519l2.286-4.41-5.966.479 5.522-12.76.345.03c3.185-1.208 5.162-3.076 5.162-3.076" style="display:inline;fill:#4ba530;fill-opacity:1;stroke-width:1.46335;stroke-linecap:square;stroke-linejoin:bevel;stroke-dasharray:1.46335,4.39001"/><path d="M224.993 116.022c.855 1.01 2.563.077 1.709 1.32-.854 1.242-1.785 1.242-1.397 1.708s2.25.155.93.776c-1.32.622-1.94 1.398-1.94 1.398l1.708 2.95-1.397 1.088 1.864 1.941s-.854 1.708-1.32 1.941-3.03.544-3.185 1.165 2.95 4.505 2.95 4.505-.154.932-2.095 1.088c-1.941.155-2.64-.779-2.874-.08s-1.165-2.095-2.33-1.085c-1.164 1.01-3.416.62-4.425.154-.264-.121-1.14-.207-2.251-.293 4.482-5.164 12.33-16.178 14.029-18.574zm-14.023 24.784c3.075-.439 2.526-1.098 4.722-.878s1.098.769 4.063 1.537c2.966.769 4.393 1.318 4.393 1.318l-5.161.988s-4.064 1.428-3.075 1.758 1.757.11.988.33c-.769.219-2.306 3.074-1.428 3.184s2.526 1.647 1.648 1.757c-.879.11-3.624 1.318-3.734 1.757-.11.44-2.087 1.098-2.087 1.098s-6.37-.439-5.71-1.976c.658-1.538 5.38-10.873 5.38-10.873m-5.6 16.364h2.745v1.647l2.526-.11s-6.48 2.855-4.393 3.514c2.087.66 4.942 2.087 4.942 2.087s-4.722.22-4.173.988c.55.77 2.087.55.879 1.099s-2.087 0-2.087 1.537c0 1.538-.769 2.196-1.757 1.867s-8.676 1.537-8.676 1.537zm-7.578 20.097c1.428-.11 5.272-1.757 5.272-1.757l-.55 2.965s4.942.988 4.174 1.867c-.769.878-3.185 3.184-3.185 3.184s6.15-4.283 7.797-3.843c1.648.439 4.283 1.977 4.283 1.977l-5.052 5.051s3.185 1.648.33 2.306c-2.856.66-3.624 2.197-4.722 2.856s-4.174 3.075-4.174 3.075l-2.635-4.722s-2.197 1.098-1.757.439c.439-.66 1.537-2.746 1.537-2.746l-6.37.879z" style="display:inline;fill:#58c735;fill-opacity:1;stroke-width:1.46335;stroke-linecap:square;stroke-linejoin:bevel;stroke-dasharray:1.46335,4.39001"/><g style="display:inline"><path d="M52.89 80.202c-.885 0-2.242.182-4.363.615-8.483 1.734-12.132-.09-10.216 4.379a20.6 20.6 0 0 0 2.749 4.611h14.608v.827c.426-.161.704-.325.704-.604 0-.82 2.371-4.834-.365-6.75-2.053-1.436-.462-3.078-3.117-3.078" style="display:inline;fill:#2c621c;fill-opacity:1;stroke-width:.600001;stroke-linecap:square;stroke-linejoin:bevel;stroke-dasharray:.600001,1.8" transform="translate(-2.385 -90.594)scale(3.20033)"/><path d="M47.085 81.915s.888 1.745.774 3.87c-.068 1.245-.555 2.937-1.007 4.28h3.874a3.4 3.4 0 0 1-.416-.798l.516-6.32zm9.417 2.322s-1.935 3.353-3.612 5.546a4 4 0 0 1-.242.282h2.386c1.032-.644 1.855-1.056 1.855-1.056l-.296-.659s-1.647 1.394-2.292 1.136 2.55-4.52 2.55-4.52zm-15.61 3.16s-.423 1.602-.4 2.668h1.873c-1.302-1.48-1.472-2.668-1.472-2.668" style="display:inline;fill:#a26a2f;fill-opacity:1;stroke-width:.600001;stroke-linecap:square;stroke-linejoin:bevel;stroke-dasharray:.600001,1.8" transform="translate(-2.385 -90.594)scale(3.20033)"/><path d="M54.05 88.106c-1.418-1.225-1.225-1.548-1.225-2.838s-.129-2.58-.129-2.58.71-.322.58 0c-.128.323-.322 3.677.194 4.064s.968 1.161.968 1.161zm-5.98-1.176c-1.64-.73-3.1-2.92-3.739-4.288s.456-2.737.456-2.737-1.55.456.456 3.284 3.284 2.463 3.284 2.463z" style="fill:#a26a2f;fill-opacity:1;stroke-width:.600001;stroke-linecap:square;stroke-linejoin:bevel;stroke-dasharray:.600001,1.8" transform="translate(-2.385 -90.594)scale(3.20033)"/><path d="M42.572 91.13c-4.113.373-4.925-.27-4.94-.78l-.05-1.87s-5.018-2.554-2.464-5.017 2.007-.821 2.007-.821-1.916-2.828-.73-2.919 2.737.091 2.737.091-3.102-6.75.365-5.564l3.466 1.186s-1.733-1.55 1.186-1.916 2.189 1.916 2.189 1.916-1.186-2.92 1.733-3.01c2.919-.092 2.554 2.736 2.554 2.736s1.368-4.105 3.284-2.28c1.915 1.824 1.368 3.83 1.368 3.83s1.368-2.553 2.919-.638.274 5.93.274 5.93 2.645-.365 2.462 2.371-.364 3.922-1.641 3.922.71 3.42-1.479 2.964-2.626-.592-2.261-3.055.273-4.378-1.004-4.378-2.28 2.371-3.283 2.827-2.92-1.094-4.014-2.554.365-2.827-1.733-1.46c-2.098 1.37.638 2.464-.821 4.106s0 2.28-.456 3.01l-.418 1.259z" style="display:inline;fill:#3a8025;fill-opacity:1;stroke-width:.600001;stroke-linecap:square;stroke-linejoin:bevel;stroke-dasharray:.600001,1.8" transform="translate(-2.385 -90.594)scale(3.20033)"/><path d="M38.7 86.623c2.322-.516 2.644-.839 3.096-2.064s-.452-1.87-.516-1.613c-.065.258.71 1.484-.516 2.193S38.7 86.623 38.7 86.623" style="display:inline;fill:#2a5c1a;fill-opacity:1;stroke-width:.600001;stroke-linecap:square;stroke-linejoin:bevel;stroke-dasharray:.600001,1.8" transform="translate(-2.385 -90.594)scale(3.20033)"/><path d="M44.053 80.496c2.129.709 3.311.892 4.064.253.752-.638 1.026-.479-.046-.182-1.072.296-.975.457-2.043.276-.795-.134-1.081-.367-1.514-.436-.434-.068-.46.089-.46.089" style="display:inline;fill:#2b5f1b;fill-opacity:1;stroke-width:.600001;stroke-linecap:square;stroke-linejoin:bevel;stroke-dasharray:.600001,1.8" transform="translate(-2.385 -90.594)scale(3.20033)"/><path d="M49.462 84.056c1.368.775 3.77.383 4.158-.05.388-.434-.122.21-1.467.255s-2.691-.205-2.691-.205" style="display:inline;fill:#2b5e1b;fill-opacity:1;stroke-width:.600001;stroke-linecap:square;stroke-linejoin:bevel;stroke-dasharray:.600001,1.8" transform="translate(-2.385 -90.594)scale(3.20033)"/><path d="M50.6 81.14c.935.936 1.201 1.161 1.75 1.161s.991-.451.991-.451.13.613.935.613c.807 0 1.42-.13.452-.194s-1.516-.903-1.516-.903-.226.891-1.217.621c-.331-.09-1.395-.846-1.395-.846" style="display:inline;fill:#275619;fill-opacity:1;stroke-width:.600001;stroke-linecap:square;stroke-linejoin:bevel;stroke-dasharray:.600001,1.8" transform="translate(-2.385 -90.594)scale(3.20033)"/><path d="M52.895 72.415c-1.367.037-2.27 2.747-2.27 2.747s.365-2.828-2.554-2.736c-1.452.045-1.888.79-1.96 1.527-.302-.34-.882-.568-1.962-.433-2.92.365-1.186 1.916-1.186 1.916l-3.466-1.186c-3.466-1.186-.365 5.564-.365 5.564s-1.55-.183-2.737-.091c-.87.067-.072 1.603.416 2.419-.292.105-.804.464-1.693 1.32-2.554 2.463 2.463 5.018 2.463 5.018v1.298h.775c-.024-1.401-.158-1.646-.41-1.754-.32-.137-3.193-2.007-2.554-3.193.638-1.186 1.14-2.053 1.596-2.098.456-.046.365-.501.228.958s-.866 3.466-.137 1.687c.73-1.778.46-2.77 1.411-3.125s3.418-1.16 3.048-1.145c-.371.016-.646-.613-2.226.161s-1.644.775-1.644.775-2.064-1.162-.033-1.484 2.58-.42 2.58-.42-2.45-2.934-1.128-3.934c.996-.753 2.924-.408 3.815-.192-.155.051-.35.179-.59.45-.742.839-.774 1.032-.774 1.032s.709-.967 3.16-1.129c2.451-.16 2.483-.387 2.29-.387s-2.032.29-2.774-.064c-.741-.355-.29-1.806.387-1.645.678.162 2.129.42 2.129.42s-.194-2.193 1.354-1.516 2.322 2.74 2.322 2.74-1.354-.58-1.903.291c-.548.87-.548.903-.548.903s.549-1 2.065-.806c1.515.193 1.612.355 1.547.194-.064-.162-.419-2.452.645-2.806s.742-1.161 1.742.29.935 3.031.935 3.031-.935-.612-1.645.194-1.064 1.355-.741 1.032c.322-.322.806-1.161 1.741-.935s1.935.677 2.193 1.677.452 2.774.42 1.613.096-1.484-.388-2.516c-.483-1.032.323-1.58.323-1.58s1.935-.613 1.258 2.58c-.678 3.192-.387 4.095-.387 4.095s2.515-.903 2.483 1.387-.806 2.644-.806 2.644-.903 1.806-1.194 1.064c-.29-.741 1.516-1.418.517-2.128-1-.709-2.097-1.548-1.323-.516s1 .387.355 1.967.58.71.742 2.419c.06.635-.046.942-.16 1.353 1.302-.27-.137-3.064 1.013-3.064 1.277 0 1.46-1.186 1.642-3.923.183-2.736-2.462-2.372-2.462-2.372s1.277-4.013-.274-5.929c-1.55-1.915-2.919.639-2.919.639s.547-2.007-1.368-3.831c-.36-.342-.7-.476-1.015-.467" style="display:inline;fill:#51b534;fill-opacity:1;stroke-width:.600001;stroke-linecap:square;stroke-linejoin:bevel;stroke-dasharray:.600001,1.8" transform="translate(-2.385 -90.594)scale(3.20033)"/></g><path d="M268.397 133.1c-2.103.02-3.84 1.198-4.979 5.016-2.802 9.396-2.638 14.177-3.462 14.506s-9.89-4.945-11.045 2.308-4.286 14.177-1.648 20.77c2.637 6.595-4.869 6.962 4.692 6.797 9.561-.164 16.079 4.084 20.2-3.17s7.418-9.725 8.572-10.055c.71-.203 3.445.996 5.519 1.974v-32.063c-2.012-1.918-4.313-3.174-7.003-3.375-3.915-.294-7.772-2.738-10.846-2.708" style="display:inline;fill:#2c621c;fill-opacity:1;stroke-width:1.53348;stroke-linecap:square;stroke-linejoin:bevel;stroke-dasharray:1.53348,4.60042"/><path d="m266.22 133.335-2.637 2.638s9.89 27.364 6.594 30.002l-3.297 2.637s-4.286 2.968-4.286-6.264v-13.517s-3.297-.66-3.297.989c0 1.648 1.319 19.122.33 16.814-.99-2.308-1.32-9.56-3.297-10.55-1.979-.99-2.473.165-2.473.165s5.653 12.08 5.324 16.036c-.33 3.956-1.61 6.675-7.817-1.472-2.096-2.75-3.154-4.48-3.604-5.564l-.992.396s-4.808-5.885 2.116 6.644 20.66 1.473 17.336 8.903a6.4 6.4 0 0 0-.34 1.033h13.125c1.375-3.047 2.898-5.466 4.69-9.986.265-.67 1.683-3.179 3.392-6.141v-6.359l-.425.631s.148-2.004.425-4.957v-12.477h1.387c.525-5.497.166-7.953.166-7.953h-2.308s-1.319 27.365-5.935 26.376-9.56-4.945-10.22-12.528-3.957-15.496-3.957-15.496m-18.46 31.914 2.305-.923s-3.555-2.087-2.305.923" style="display:inline;fill:#a26a2f;fill-opacity:1;stroke-width:1.53348;stroke-linecap:square;stroke-linejoin:bevel;stroke-dasharray:1.53348,4.60042"/><path d="M288.935 159.968c-1.966.599-1.846.863-2.684 1.182-2.448.933-1.866 2.914-7.11 5.129-5.246 2.214-5.013.234-3.497 3.73 1.515 3.498-1.4 3.73-3.265 5.946-1.865 2.214.001 3.497 1.516 4.895 1.516 1.4-1.982 5.361-2.099 6.177-.116.816 1.4-.35 3.148-3.03 1.748-2.681-.816 5.129-1.749 7.11-.353.75-.824 1.166-1.385 1.488h4.037c2.197-10.902 4.581-12.114 7.847-20.356.45-1.135 1.975-6.732 5.241-12.271" style="display:inline;fill:#92602b;fill-opacity:1;stroke-width:1.53348;stroke-linecap:square;stroke-linejoin:bevel;stroke-dasharray:1.53348,4.60042"/><path d="M259.372 151.25c.202 3.978 1.147 17.466.255 15.384-.99-2.308-1.32-9.56-3.297-10.55-1.379-.69-2.027-.34-2.3-.063l-.045.514c.097.208.413.895.96 2.15.272.52.398.817.922 1.727.889 1.544 1.17 1.404 1.216 2.9.007.236.021.495.034.748 1.182 3.17 2.209 6.482 2.064 8.225-.283 3.387-1.272 5.844-5.443 1.375.258.816.321 1.425 1.147 1.954 1.169.748 1.824 1.683 2.946 1.356s2.152-.842 4.678-.281 2.9 1.965 4.957 1.59c2.058-.374 1.497 6.175 5.099 1.45 3.601-4.723 4.723-12.254 4.63-16.183-.023-.976-.11-2.2-.228-3.485a12.7 12.7 0 0 1-2.852-2.182c-1.022 3.006-2.291 6.118-3.355 6.813-.1.6-.286 1.045-.583 1.283l-3.297 2.637s-4.286 2.968-4.286-6.264v-9.814a23.4 23.4 0 0 0-3.222-1.283" style="display:inline;fill:#835626;fill-opacity:1;stroke-width:1.53348;stroke-linecap:square;stroke-linejoin:bevel;stroke-dasharray:1.53348,4.60042"/><path d="m268.259 139.298-3.04 1.425c2.655 7.944 7.39 23.306 4.958 25.252l-3.297 2.637s-4.286 2.968-4.286-6.264v-13.517s-3.297-.66-3.297.989c0 .622.185 3.613.366 6.829q.053.062.092.05c-.03.167-.046.309-.064.454.033.593.065 1.125.096 1.722.127.5.315 1.005.497 1.793.397 1.72.132 4.167.33 5.689.199 1.521-1.851 1.587 1.059 4.895s4.233 4.96 5.225 4.762c.993-.198 7.276-2.976 7.144-6.879s-3.373-12.502-3.77-15.015-2.25-2.514-1.588-6.416c.232-1.37.445-2.86.638-4.283a60 60 0 0 0-1.063-4.123" style="display:inline;fill:#744c22;fill-opacity:1;stroke:none;stroke-width:.779999"/><path d="m260.373 149.377 2.22 2.854v10.117c0 9.232 4.286 6.264 4.286 6.264l3.298-2.637c.276-.221.457-.619.562-1.156.119.34.056.666-.341 1.46-1.05 2.098-3.38 3.497-4.546 3.497s-1.982.815-3.497-2.099c-1.516-2.914-.7-5.244-1.05-7.46-.349-2.214-.932-10.84-.932-10.84" style="display:inline;fill:#5d3d1b;fill-opacity:1;stroke-width:1.53348;stroke-linecap:square;stroke-linejoin:bevel;stroke-dasharray:1.53348,4.60042"/><path d="M278.538 120.92c-.822-.037-1.886.17-3.25.71-5.328 2.112-6.91 5.748-7.338 8.27-.143-3.416-1.294-8.542-7.17-6.62-8.572 2.802-11.374 5.934-10.55 7.253s1.814 5.604 1.814 5.604-5.935-2.307-9.232 1.484-1.154 9.396-1.154 9.396l.82 2.13c-1.142-2.588-3.272-5.812-5.106.838-1.966 7.126 1.378 8.115 3.21 8.157-1.707.224-4.858 1.133-4.858 4.866 0 5.11-.152 2.215-.66 3.956-1.154 3.956-2.637 1.319-2.143 4.121 1.027 5.82 3.132 9.726 8.572 5.11 5.44-4.615 3.297 2.638 4.451 5.11s9.396 7.254 7.748 2.144-2.802-12.199-1.813-13.518-1.814-11.704 2.472-13.352c4.286-1.649 9.397 3.132 10.716-.825s1.318-5.934 1.318-7.253 1.154-12.528 8.572-7.418c7.419 5.11 9.891 5.275 10.55 9.066.126.723.36 1.162.645 1.472v-27.69c-4.882.972-5.755 4.459-5.755 4.459s2.582-7.276-1.859-7.47" style="display:inline;fill:#49a22f;fill-opacity:1;stroke-width:1.53348;stroke-linecap:square;stroke-linejoin:bevel;stroke-dasharray:1.53348,4.60042"/><path d="M284.498 139.6c-.56-.018-.35 2.678.185 4.285.21.628 1.001 1.356 2.03 2.072v-2.21c-.549-1.096-.952-2.478-1.7-3.653-.216-.34-.386-.489-.515-.493m-21.08 4.614c-1.319 6.924.744 6.91-4.443 8.834-5.188 1.923-5.13 2.156-3.031.7 2.098-1.458 5.187-1.341 5.537-3.148s1.937-6.386 1.937-6.386m-16.566 25.445c-4.313 3.147-5.945 6.06-7.927 6.06s-3.38-1.281-2.33-1.398c1.048-.116.232 2.448 3.962-1.049s6.295-3.613 6.295-3.613" style="display:inline;fill:#377a23;fill-opacity:1;stroke-width:1.53348;stroke-linecap:square;stroke-linejoin:bevel;stroke-dasharray:1.53348,4.60042"/><path d="M278.284 120.915c-.784.012-1.768.229-2.997.716-5.308 2.103-6.903 5.726-7.338 8.247-.147-3.416-1.306-8.515-7.169-6.599-8.572 2.803-11.374 5.935-10.55 7.254s1.814 5.605 1.814 5.605-5.936-2.308-9.232 1.483c-3.297 3.792-1.153 9.396-1.153 9.396l.25.651c1.444 1.135 3.078 3.808 3.078 3.808s-.116-2.914 1.166-5.013 5.36-2.68 5.36-2.68-1.281-1.632-5.477.35c-1.057.498-1.647 1.005-1.947 1.486.033-1.259.162-3 .431-5.334.7-6.061 8.626-2.565 8.626-2.565s-1.456-8.304-1.485-8.916 2.884-1.603 9.645-4.284 5.595 5.275 5.77 5.566c.175.292-3.205 1.89-6.337 5.887-3.132 3.998 1.854-.577 4.945-3.215 3.09-2.637 5.88.766 8.211 2.981s.116-.349-2.915-3.846c-.793-.915-1.301-1.337-1.615-1.512.109-.125.226-.342.334-.703.7-2.33 3.73-5.712 6.177-7.693 2.448-1.982 3.498 2.097 3.847 4.895.35 2.797-1.166 1.866-3.38 2.798-2.215.933-2.448 1.515 2.215 1.399 2.858-.072 4.53 1.302 5.453 2.537a41 41 0 0 0-.907-1.372c-2.332-3.38-2.1-3.38-2.1-3.38s3.375-2.181 5.896-3.625v-1.425c-4.815.65-6.175 3.632-6.445 4.398.27-.807 2.331-7.365-2.17-7.295zm5.727 12.7c.332.524.584.952.75 1.26a7 7 0 0 0-.75-1.26m.75 1.26c.102.224.172.407.207.514.147.442.291.414-.207-.514m-44.843 11.18c-.833-.05-1.721.942-2.545 3.93-1.96 7.1 1.352 8.106 3.188 8.155-1.714.23-4.838 1.156-4.838 4.867 0 5.11-.151 2.216-.659 3.957-1.154 3.956-2.637 1.318-2.142 4.12.374 2.124.894 3.991 1.665 5.284.46-1.96 1.097-5.201 3.755-8.923.994-1.391 1.78-2.075 2.397-2.343a34 34 0 0 1-2.28-1.853c-2.913-2.564 2.68-4.547 3.963-5.363 1.282-.815-2.798-1.515-2.681-8.159.046-2.624.874-2.899 1.86-2.276-.5-.77-1.076-1.361-1.683-1.397m.821 19.047c1.356 1.002 2.033 1.294 2.033 1.294s-.478-1.97-2.033-1.294m3.41-17.545c.253.44.536.73.371.771-.162.041-.295-.197-.372-.771" style="display:inline;fill:#5cc73d;fill-opacity:1;stroke-width:1.53348;stroke-linecap:square;stroke-linejoin:bevel;stroke-dasharray:1.53348,4.60042"/><path d="M285.668 163.715s-4.312 3.847-4.546 4.546.932-.35 2.098-.7-.467 2.449-.467 2.449l-3.845.698-2.215 4.546 4.196-1.865s-1.749 3.031-2.331 3.264c-.583.233-1.865 1.632-1.865 1.632s.116 1.865.698 1.865c.434 0-.553 3.873-1.47 7.44h1.128c1.877-6.542 3.963-8.584 6.645-15.35.297-.752 1.915-3.614 3.916-7.061l.04-.181zm-15.975-18.425c.209 1.168.381 2.356.484 3.54.66 7.583 5.605 11.54 10.22 12.529 2.178.467 3.62-5.38 4.538-11.686l.15.17c.35 3.964.116 5.596-.933 6.529s-1.165 4.778-1.165 4.778l-2.098 1.399s-2.099.467-4.896-1.631c-2.798-2.098-5.595-6.878-6.528-9.792-.487-1.524-.178-3.908.228-5.837" style="display:inline;fill:#7d5225;fill-opacity:1;stroke-width:1.53348;stroke-linecap:square;stroke-linejoin:bevel;stroke-dasharray:1.53348,4.60042"/></g><g style="display:inline"><path d="M158.668 33.873s-4.163 3.087-6.174-.562 1.263-5.659 1.263-5.659-.047-4.07 3.461-4.35 3.976 2.292 3.976 2.292 2.479-3.087 5.987-2.947 4.443 1.45 4.443 1.45 1.766-5.363 6.548-6.08c6.548-.982 7.764 4.022 7.764 4.022s8.606-.56 8.56 4.771c-.047 5.332-2.386 6.782-2.386 6.782s-1.777 1.684-3.975 1.45-3.602-1.029-3.602-1.029-1.291 1.78-3.77 1.5c-2.479-.281-3.012-1.547-3.012-1.547s-1.917 4.958-7.343 5.566-8.279-.748-9.869-2.947-1.87-2.712-1.87-2.712" style="display:inline;fill:#fafafa;fill-opacity:1;stroke-width:.264583"/><path d="M178.173 22.624c-3.245.102-6.081 3.391-6.081 3.391s-.702-1.45-4.163-1.918-6.782 2.666-6.782 2.666-.842-1.917-4.35-1.075c-2.206.53-1.824 2.806-1.824 2.806s-1.45.093-2.666 1.356c0 0-.205.03-.286.04-.29.892-.289 2.038.473 3.421 2.012 3.649 6.174.562 6.174.562s.28.514 1.87 2.713 4.444 3.554 9.87 2.946 7.343-5.566 7.343-5.566.533 1.266 3.012 1.547 3.77-1.5 3.77-1.5 1.403.795 3.602 1.029 3.975-1.45 3.975-1.45 2.01-1.254 2.338-5.693c-.03-.019-.063-.05-.093-.06-1.122-.421-1.029-.327-1.029-.327s.281-2.012-2.291-3.649-6.502 1.357-6.502 1.357-2.198-2.198-5.706-2.573a5 5 0 0 0-.654-.023" style="display:inline;fill:#ececec;fill-opacity:1;stroke-width:.264583"/><path d="M192.391 28.213s-1.871 1.45-3.508 1.73c-1.637.281-3.04-.794-3.04-.794l2.104 1.543s-.841 1.263-3.881 2.058-4.958-.795-4.958-.795.14-.093.7-.795c.562-.702 2.06-2.245 2.06-2.245s-2.9 2.01-5.847 2.946-7.203-2.057-7.203-2.057.888 1.402 3.274 2.712c2.385 1.31 5.144.375 5.144.375s-2.104 2.572-7.763 3.554c-5.66.982-7.53-3.46-7.53-3.46s-.469.14-1.685.233-1.543-1.73-1.543-1.73.374-.562 1.076-1.217c.701-.655 1.075-1.59 1.075-1.59s-.42.467-2.15 1.45c-1.731.982-3.322-.234-3.322-.234l.889.795c.888.796 2.245.375 2.245.375s-1.17 1.356-3.04 2.057c-1.5.563-2.922-.433-3.446-.864.104.334.25.684.452 1.051 2.012 3.649 6.174.562 6.174.562s.28.514 1.87 2.713 4.444 3.554 9.87 2.946 7.343-5.566 7.343-5.566.533 1.266 3.012 1.547 3.77-1.5 3.77-1.5 1.403.795 3.602 1.029 3.975-1.45 3.975-1.45 1.45-.914 2.087-3.912c-.401.467-1.358 1.478-2.555 2.041-1.59.749-2.806-.748-2.806-.748s-.561-.234.655-.562c1.216-.327 2.9-2.198 2.9-2.198" style="display:inline;fill:#d1d1d1;fill-opacity:1;stroke-width:.264583"/><path d="M132.37 99.89s-6.528-.296-5.51-3.687c1.016-3.391 2.542-4.96 5.51-5.468 2.84-.487 4.153.424 4.153.424s.3-5.59 4.24-6.952c3.433-1.187 3.856-1.06 6.188-.17 2.079.794 3.39 2.544 3.39 2.544s1.71-1.635 2.968-2.204c1.78-.806 3.476-.254 3.476-.254s-1.453-3.592.678-5.935c2.662-2.927 5.256-1.526 5.256-1.526s-4.281-3.815-.848-8.308c3.258-4.262 9.325-.084 9.325-.084s6.817-7.825 15.464-2.739 3.441 14.777 3.441 14.777 5.002-1.187 6.443 1.102 1.78 5.086 1.78 5.086 2.846-.372 4.07.933c1.27 1.356 1.017 3.815 1.017 3.815s2.5-.552 3.687.974 1.484 2.756 1.484 2.756 4.662.254 5.171 3.56c.503 3.269-1.187 5.468-4.79 5.044-4.594-.54-4.62-3.179-4.62-3.179s-2.61 4.434-6.951 4.578c-5.13.17-7.037-4.323-7.037-4.323s-1.178 2.545-4.238 2.797c-3.603.297-4.748-1.695-4.748-1.695s-.802 4.194-4.154 4.916c-6.485 1.4-7.63-1.865-7.63-1.865s-1.186 6.274-9.07 6.02-7.715-7.545-7.715-7.545-2.373 1.78-5.68.762c-3.306-1.017-5.17-2.797-5.17-2.797s-1.95 2.543-4.96 1.823c-3.156-.756-4.62-3.18-4.62-3.18" style="display:inline;fill:#eaeaea;fill-opacity:1;stroke-width:.239778"/><path d="M180.33 68.749c-3.585.223-6.59 2.827-6.59 2.827s-3.942-2.331-7.206.339c-3.025 2.475-.764 6.358-.764 6.358s-.249-.203-1.44.17c-1.056.329-5.341 4.832-5.341 4.832s2.712-.17 6.951 0 7.545 3.221 7.545 3.221-3.094-.975-7.163-.975-6.028 2.438-6.231 2.501c-.923.287-1.187-1.823-3.985-1.865-2.327-.035-4.408 2.628-4.408 2.628s-3.476-2.798-8.054-2.12c-4.577.679-6.612 5.342-6.612 5.342s-1.526-1.188-4.493-.425-3.645.976-5.68 4.918l-.064.07c-.444 3.038 5.575 3.32 5.575 3.32s1.464 2.424 4.62 3.18c3.01.72 4.96-1.823 4.96-1.823s1.864 1.78 5.17 2.797 5.68-.763 5.68-.763-.17 7.291 7.715 7.546 9.07-6.02 9.07-6.02 1.145 3.264 7.63 1.866c3.352-.723 4.154-4.917 4.154-4.917s1.145 1.992 4.748 1.695c3.06-.252 4.238-2.798 4.238-2.798s1.908 4.493 7.037 4.324c4.342-.144 6.951-4.578 6.951-4.578s.026 2.639 4.62 3.18c3.297.387 4.97-1.433 4.849-4.248-.57-.736-.552-1.792-2.305-3.001-2.459-1.696-4.112-.763-4.112-.763s-.509-1.78-2.204-2.713c-1.696-.932-3.56 1.018-3.56 1.018s-.763-.763-.51-1.78c.255-1.018.424-2.459-.508-3.646-.933-1.187-4.154-.932-4.154-.932s.254-.848-.424-2.459c-.678-1.61-.82-2.263-4.662-2.12-4.536.17-12.886 3.476-12.886 3.476s0-.932 1.78-2.627c1.78-1.696 7.46-2.544 6.952-2.374-.51.17 3.39-6.697-1.865-11.02-1.643-1.352-3.393-1.743-5.023-1.641" style="display:inline;fill:#d4d4d4;fill-opacity:1;stroke-width:.239778"/><path d="M196.374 90.904s-.423.51-2.882 2.29-4.154 2.203-8.647 2.373-7.375-3.052-7.375-3.052.593 2.459 3.645 4.07c3.052 1.61 7.63.17 7.63.17s0 2.457-4.324 3.56c-4.323 1.101-5.765-1.95-5.765-1.95s-1.017 4.323-6.951 3.73-4.917-4.07-4.917-4.07.424-.508 2.204-1.186 3.645-3.052 3.645-3.052-3.984 2.204-7.884 2.628-4.662-2.12-5.086-2.035.254 4.663-4.493 6.443c-4.748 1.78-5.934-3.815-5.934-3.815s.084 0 1.61-.678 2.29-2.458 2.29-2.458-4.748 1.695-8.563 2.203c-3.815.51-7.714-2.966-7.714-2.966s.254.593 2.034 2.458 4.493 2.12 4.493 2.12-1.017.932-4.663 1.61c-3.645.678-3.9-2.797-3.9-2.797s-.677.847-3.814 2.119c-2.79 1.131-3.85-1.637-4.062-2.29-.032.063-.059.107-.092.17l-.064.07c-.444 3.039 5.575 3.321 5.575 3.321s1.464 2.424 4.62 3.18c3.01.72 4.96-1.823 4.96-1.823s1.864 1.78 5.17 2.797 5.68-.763 5.68-.763-.17 7.291 7.715 7.546 9.07-6.02 9.07-6.02 1.145 3.264 7.63 1.866c3.352-.723 4.154-4.917 4.154-4.917s1.145 1.992 4.748 1.695c3.06-.252 4.238-2.798 4.238-2.798s1.908 4.493 7.037 4.324c4.342-.144 6.951-4.578 6.951-4.578s.026 2.639 4.62 3.18c2.764.325 4.37-.914 4.75-2.978-.277.25-1.31.916-4.707.985-4.154.085-4.24-3.645-4.24-3.645s-3.898 3.052-7.883 1.61c-3.984-1.44-.509-8.647-.509-8.647" style="display:inline;fill:#848484;fill-opacity:1;stroke-width:.239778"/><path d="M75.412 105.46s-2.405 3.307-6.012 3.307-5.812-1.503-5.812-1.503-2.705 2.38-7.415 1.303c-3.99-.913-5.811-1.904-5.811-1.904s-.702 2.18-3.608 1.879c-2.906-.3-3.006-2.18-3.006-2.18s-2.805 1.704-4.91.502c-2.104-1.203-3.607-3.407-3.607-3.407s-1.303 2.505-5.41 2.304c-4.11-.2-2.706-7.214-2.706-7.214s.701-3.106 5.611-2.405l4.91.701s-4.94-4.75-1.603-8.817c2.855-3.483 6.413-.802 6.413-.802s-1.503-2.305-.1-3.407 4.208-.902 4.208-.902-2.806-4.309 1.703-6.613 7.516 0 7.516 0l2.104 2.805s-1.208-2.445 1.38-3.158c3.212-.885 3.53 1.255 3.53 1.255s1.403-.301 3.206-1.103c1.804-.801 4.109-1.703 5.411.301 1.303 2.004.501 4.008.501 4.008s3.613-.985 5.812.702c2.58 1.979 2.004 4.509 2.004 4.509s2.285-.404 4.108 1.402c2.68 2.656 1.904 4.209 1.904 4.209s2.606-2.204 4.51-1.202 3.132 2.552 3.132 2.552 1.878-1.523 3.685-.921c1.806.602 2.409 1.878 2.409 1.878s1.275-1.453 2.87-.532c1.594.921 1.31 2.02 1.31 2.02s3.472-.461 3.437 2.125-1.24 3.543-1.24 3.543-1.001.769-3.295.177c-1.478-.381-1.736-.496-1.736-.496s-1.569 1.197-3.624 1.268c-2.054.07-3.143-.63-3.143-.63s-3.082 4.286-6.589 5.03-6.66-1.488-6.66-1.488-.921 1.56-3.047 1.63-2.34-.725-2.34-.725" style="display:inline;fill:#eaeaea;fill-opacity:1;stroke-width:.141708"/><path d="M52.34 78.97c-2.138.267-3.488 3.126-3.142 4.507.425 1.7-.921.107-3.826 1.24s-.46 4.535-.46 4.535-2.375-1.878-6.165.354.673 6.413.708 6.873c.036.46-1.736 2.905-2.976 3.047s-2.302-.532-5.066-1.736c-2.243-.978-2.07-.783-3.575-.45-.563.61-.723 1.207-.723 1.207s-1.403 7.014 2.705 7.214 5.41-2.304 5.41-2.304 1.504 2.204 3.608 3.407 4.91-.501 4.91-.501.1 1.878 3.006 2.179 3.608-1.879 3.608-1.879 1.82.991 5.811 1.904c4.71 1.077 7.415-1.303 7.415-1.303s2.205 1.504 5.812 1.504 6.012-3.307 6.012-3.307.214.796 2.34.725c2.126-.07 3.047-1.63 3.047-1.63s3.153 2.232 6.66 1.488 6.59-5.03 6.59-5.03 1.088.7 3.142.63c2.055-.071 3.624-1.268 3.624-1.268s.258.115 1.736.496c2.294.592 3.295-.177 3.295-.177s.89-.717 1.16-2.567c-.259-.275-.478-.48-.558-.48-.284 0 1.01-.903-1.966-1.824s-3.844.053-3.844.053.16-1.116-1.665-1.878c-2.37-.989-4.358.106-4.358.106s-.567-1.363-4.605-1.86c-4.039-.495-5.456 1.364-5.456 1.364v-2.196s-.602-2.196-2.657-3.968-5.279-1.417-5.279-1.417 3.153-2.409-2.302-4.251c-5.456-1.842-8.042 1.417-8.042 1.417s.956-2.161-2.48-3.472c-3.165-1.207-5.881 1.842-6.377 2.197-.41.292-.08-3.575-5.078-2.95" style="display:inline;fill:#d4d4d4;fill-opacity:1;stroke-width:.141708"/><path d="M58.267 84.186s-.07.921.354 3.755c.425 2.834.992 1.276 3.189 4.393s.425 12.329-5.03 13.392c-5.457 1.062-5.386-1.913-7.086-3.401s-.638-2.48-.638-2.48 1.346-.496 2.763-1.913 2.268-3.685 1.134-2.48c-1.134 1.204-2.622 2.55-5.952 2.692s-5.03-3.117-5.03-3.117-.567.07.85 2.834c1.417 2.763 3.4.92 3.613 1.63.213.708.355 2.408-.708 4.109-1.063 1.7-2.976.921-5.668.992s-3.047-3.543-3.047-3.543l-1.913 1.913c-1.913 1.913-4.11 1.134-6.235.78-1.15-.192-1.524-.745-1.928-1.601.173 1.758.855 3.521 2.885 3.62 4.108.2 5.41-2.304 5.41-2.304s1.504 2.204 3.608 3.407 4.91-.501 4.91-.501.1 1.878 3.006 2.179 3.608-1.879 3.608-1.879 1.82.991 5.811 1.904c4.71 1.077 7.415-1.303 7.415-1.303s2.205 1.504 5.812 1.504 6.012-3.307 6.012-3.307.214.796 2.34.725c2.126-.07 3.047-1.63 3.047-1.63s3.153 2.232 6.66 1.488 6.59-5.03 6.59-5.03 1.088.7 3.142.63c2.055-.071 3.624-1.268 3.624-1.268s.258.115 1.736.496c2.294.592 3.295-.177 3.295-.177s.723-.594 1.062-2.073c-.232.04-.354.054-.531.089-.709.142.567.567-2.267 1.275-2.834.709-2.834-1.488-2.834-1.488s-.78 0-2.976.496c-2.197.496-3.189-1.204-3.189-1.204s-3.117 2.267-5.88 2.48c-2.764.212-4.11-1.205-4.323-1.559-.212-.354-1.063 1.771-3.33 3.118s-4.251-.78-4.251-.78.354-1.346 2.409-2.196 3.755-3.26 3.755-3.26-3.897 1.772-8.786 2.835-6.235-2.622-7.227-4.11.992 1.771 1.559 4.606-.354 3.33-2.55 5.526c-2.197 2.197-3.331-.354-3.331-.354s-.283-1.63 1.063-6.519-1.134-7.368-1.134-7.368.142 0 2.55-.496c2.41-.496 4.323-2.268 4.323-2.268s-1.559.567-6.59.709c-5.03.141-5.1-3.968-5.1-3.968" style="display:inline;fill:#848484;fill-opacity:1;stroke-width:.141708"/><path d="M107.85 62.156c-.29 0-5.872.87-6.887-3.987-.776-3.717 2.827-6.089 4.132-6.016 1.305.072 2.9.58 3.552.29s.672-4.92 7.757-6.452c6.503-1.407 9.279.942 9.279.942s1.082-3.72 5.002-4.567c5.364-1.16 6.054 2.807 6.959 2.465.96-.362 2.347.298 3.425 1.106 1.149.86 1.142 2.156 1.142 2.156s3.044-1.232 5.292.58 2.464 3.625 2.464 3.625 5.22-2.682 7.467.58 1.015 6.886 1.015 6.886-.87 2.247-2.9 2.972-2.9.145-2.9.145-.145 1.813-1.957 2.683-4.64.217-4.64.217.073 4.277-5.654 5.22c-5.59.92-6.886-1.595-7.756-1.958-.87-.362-.58-1.595-1.087-1.377-.508.217-3.698 2.537-6.887 2.247-3.19-.29-5.22-3.48-5.22-3.48s-5.291 2.683-7.829.58-3.769-4.857-3.769-4.857" style="display:inline;fill:#f6f6f6;fill-opacity:1;stroke-width:.205035"/><path d="M134.262 47.02a8 8 0 0 0-1.09 0c-2.768.206-3.896 3.179-3.896 3.179s-3.895-1.435-5.536-.82 1.743 1.845 1.948 2.153c.205.307-6.356-.513-8.201.205-1.845.717.717-1.436.717-1.436s.82-.41-2.05-1.742-5.33 3.69-5.946 4.305-2.665.103-4.716-.205c-2.05-.307-4.408 3.896-4.408 3.896l-.219.413c-.014.383.011.782.098 1.201 1.015 4.857 6.597 3.988 6.887 3.988 0 0 1.232 2.754 3.77 4.856 2.537 2.103 7.828-.58 7.828-.58s2.03 3.19 5.22 3.48 6.38-2.03 6.887-2.247.217 1.015 1.087 1.377 2.166 2.877 7.756 1.957c5.727-.942 5.655-5.22 5.655-5.22s2.827.653 4.64-.217c1.811-.87 1.956-2.682 1.956-2.682s.87.58 2.9-.144c2.03-.725 2.9-2.973 2.9-2.973s.422-1.26.315-2.957c-.685-1.281-1.62-2.822-2.525-3.84-1.64-1.845-6.87-.205-6.87-.205s-1.742-1.948-3.587-2.973-3.998-.308-3.998-.308l-1.743-1.127s-3.14-1.178-5.78-1.335" style="display:inline;fill:#e2e2e2;fill-opacity:1;stroke-width:.205035"/><path d="M131.532 55.325s.359 2.409 1.384 3.895 2.768 6.87-3.793 6.972c-6.562.102-2.153-7.33-2.153-7.33s-4.306 1.589-8.458 2.05-8.253-2.82-8.253-2.82.308.82 2.41 2.666c2.101 1.846 3.536 1.384 4.408 1.384.871 0-.564 1.18-.564 1.18s-2.41 1.127-4.818.563c-2.41-.564-2.666-3.998-2.666-3.998s-1.845.717-5.126.307c-2.97-.37-2.791-3.223-2.73-3.783l-.09.144-.037.072-.177.543c0 .322.022.652.094 1 1.015 4.856 6.597 3.987 6.887 3.987 0 0 1.232 2.754 3.77 4.856 2.536 2.103 7.828-.58 7.828-.58s2.03 3.19 5.22 3.48 6.38-2.03 6.887-2.247.217 1.015 1.087 1.377 2.166 2.877 7.756 1.957c5.727-.942 5.655-5.22 5.655-5.22s2.827.653 4.64-.217c1.811-.87 1.956-2.682 1.956-2.682s.87.58 2.9-.144c2.03-.725 2.9-2.973 2.9-2.973s.265-.807.32-1.992c-.624.602-2.071 2.166-4.632 2.679-3.076.615-5.485-2.46-5.485-2.46v.512c0 .512 1.538 1.281 2 2.204.46.923-.103 1.64-2.512 2.153-2.41.512-3.947-1.487-3.947-1.487s-1.026 1.128-2.717 1.436c-1.692.307-3.178-.923-4.408-1.948s1.127-1.487 4.05-1.948c2.92-.461 3.228-2.102 3.228-2.102s-2.409.667-5.843.872-6.971-2.358-6.971-2.358" style="display:inline;fill:#9a9a9a;fill-opacity:1;stroke-width:.205035"/><path d="M61.759 39.221c-.3 0-3.62 1.545-4.667.048-1.048-1.497-.06-2.16.476-2.667.541-.511.897-.938 3.142-1.237s2.62.19 2.845-.11.15-2.245 3.218-2.694c3.069-.45 4.191-.45 4.191-.45s-.299-2.619 2.844-3.667c3.144-1.047 4.266.075 4.566.075s.598-3.442 3.293-4.19c2.694-.75 6.211.448 6.211.448s1.048-3.293 4.79-2.694 4.64 3.143 4.64 3.143 3.185-.385 4.49.524c1.684 1.171 1.797 3.143 1.797 3.143s2.13-.404 3.143.524c1.335 1.224.824 2.545.824 2.545s2.095-1.572 4.265-.45 3.219 3.967 3.069 3.593.748-1.048 1.721-.823a4.6 4.6 0 0 1 1.62.726l1.075.92s.947-1.096 2.743-.572 1.448 1.92 1.448 1.92.24 1.518-1.705 1.518-1.289-.022-1.289-.022-1.727 2.246-5.395 1.572-3.736-1.347-3.736-1.347-1.355 1.553-4.148 1.268c-2.81-.288-3.036-1.567-3.86-1.268-.823.3-1.645 2.393-6.81 2.77-4.732.343-7.334-1.273-7.334-1.273s-3.576 2.328-6.287 1.197c-2.695-1.124-3.443-3.592-3.443-3.592s-1.916 2.373-4.76 2.298-3.397-2.148-3.397-2.148-.645 2.509-4.836 2.359c-4.19-.15-4.744-1.387-4.744-1.387" style="display:inline;fill:#f9f9f9;fill-opacity:1;stroke-width:.149682"/><path d="M92.164 26.886c-1.31-.052-2.113 1.171-2.113 1.171s-1.879-1.244-5.61-1.006c-3.73.238-4.233 3.493-4.233 3.493s-2.01-.608-5.345-.08c-3.334.53-3.97 3.758-3.97 3.758s-.581-.82-3.968-.926c-2.025-.063-2.885.883-3.258 1.656-.039.136-.073.25-.112.303-.006.009-.015.01-.022.018a3.2 3.2 0 0 0-.154.643s-.529.053-2.593.08c-2.035.025-2.518.28-4.08 1.672-.139.402-.098.91.386 1.601 1.047 1.497 4.368-.048 4.667-.048 0 0 .553 1.237 4.744 1.387 4.192.15 4.836-2.36 4.836-2.36s.553 2.074 3.397 2.149 4.76-2.298 4.76-2.298.748 2.468 3.443 3.592c2.71 1.131 6.287-1.197 6.287-1.197s2.602 1.616 7.334 1.272c5.165-.376 5.987-2.47 6.81-2.769.824-.3 1.05.98 3.86 1.268 2.793.285 4.148-1.268 4.148-1.268s.07.674 3.736 1.347c3.637.668 5.355-1.523 5.384-1.56.1.005.38.01 1.3.01 1.946 0 1.705-1.518 1.705-1.518s.138-.596-.261-1.155c-.361-.168-.768-.302-1.174-.311-1.164-.027-2.752.185-2.752.317 0 .133-.846-.635-2.593-1.428-.967-.44-1.495-.18-1.782.138-.053.095-.077.189-.045.268a1 1 0 0 1-.064-.142c-.15.217-.2.423-.2.423s-2.01-2.857-3.968-3.466c-1.958-.608-3.758.582-3.758.582s-1.296-.635-2.937-2.249-5.318 0-5.318 0-.238-.423-.873-.952c-.635-.53-2.62-.212-2.62-.212s-.132-.98-2.01-1.932a2.4 2.4 0 0 0-.984-.27" style="display:inline;fill:#f0f0f0;fill-opacity:1;stroke-width:.149682"/><path d="M88.103 31.887s-1.628 1.778-5.912 2.77c-3.748.866-5.464-1.273-5.464-1.273s.561 1.048.412 1.946-1.142 1.609-4.435 1.89c-3.11.265-3.723-.43-3.723-.43s-.561.935-2.881 1.72c-2.32.786-4.042-.935-4.042-.935s-2.993 1.422-4.415 1.347c-.833-.044-.98-.636-.964-1.122-.089.381-.022.849.413 1.47 1.047 1.496 4.368-.049 4.667-.049 0 0 .553 1.237 4.744 1.387 4.192.15 4.836-2.36 4.836-2.36s.553 2.074 3.397 2.149 4.76-2.298 4.76-2.298.748 2.468 3.443 3.592c2.71 1.131 6.287-1.197 6.287-1.197s2.602 1.616 7.334 1.272c5.165-.376 5.987-2.47 6.81-2.77.824-.298 1.05.981 3.86 1.269 2.793.285 4.148-1.268 4.148-1.268s.07.674 3.736 1.347c3.637.668 5.355-1.523 5.384-1.56.1.005.38.01 1.3.01.95 0 1.375-.362 1.565-.733-.287.062-.333.2-.684.262-2.095.375-2.17-.336-2.17-.336s-1.291 1.609-5.201.935c-3.651-.629-4.865-2.095-4.865-2.095s-1.497-.038-3.069-.225-2.32-1.497-1.796-2.17c.524-.674 1.198-1.572 1.198-1.572s-.824.898-3.967 2.133-5.089-1.085-5.089-1.085l.075.449c.07.419 2.17 1.384 2.17 1.384s-.037.225-2.395 1.198-4.34-1.048-4.34-1.048-1.572 2.844-6.1 2.956-3.188-3.455-1.871-4.228c1.497-.88 2.844-2.732 2.844-2.732" style="display:inline;fill:#d6d6d6;fill-opacity:1;stroke-width:.149682"/><path d="M221.657 86.721c2.31 1.897 5.275.085 5.445-.34s1.966 3.122 5.877 1.286c3.888-1.826 1.696-5.115 1.696-5.115s2.32-2.357 1.191-4c-1.423-2.07-3.233-.85-3.573-1.02s-.17-4.138-4-4.68c-3.824-.542-4.765 2.382-4.765 2.382s-2.952-2.367-6.1.428c-1.653 1.467-1.848 4.312-1.252 5.418.595 1.107.545 1.387.545 1.387s-3.063-4.255-6.552-1.957 0 4.68 0 4.68-4.424 0-2.722 1.616c1.701 1.617 6.296-.085 6.296-.085s-.294 1.638 3.706 1.382c3.999-.255 3.365-2.074 3.365-2.074z" style="display:inline;fill:#f9f9f9;fill-opacity:1;stroke-width:.340357"/><path d="M226.78 75.661c-1.667.052-2.12 1.515-2.12 1.515s-1.835-1.955-4.994-.481c-3.294 1.537-2.647 6.167-2.647 6.167s-2.226-2.166-4.633-.843c-2.715 1.494-1.384 2.979-1.083 3.16.3.18-.451.24-1.083.21-.549-.027-1.266.095-3.16.73-.011.188.1.414.387.687 1.701 1.617 6.296-.085 6.296-.085s-.294 1.638 3.706 1.382c3.999-.255 3.365-2.074 3.365-2.074l.843.692c2.31 1.897 5.275.085 5.445-.34s1.966 3.122 5.877 1.285c1.94-.91 2.367-2.185 2.306-3.235a45 45 0 0 0-.637-.487c-1.444-1.083-1.535-.932-1.384-1.323.15-.391 1.113-2.256.06-3.46-1.053-1.203-2.376-.45-2.376-.45-.69-2.207-1.018-3.147-4.169-3.05" style="display:inline;fill:#eaeaea;fill-opacity:1;stroke-width:.340357"/><path d="M223.667 78.168s-.221.815.387 1.864c.661 1.14 1.088 1.325.787 1.777-.301.45-.33.33-3.37 1.143-3.038.812-3.85-1.655-3.85-1.655s-.064.907.765 1.483c.83.577 2.153.443 2.574.894.757.812-1.081 2.176-1.298 2.24-.727.217-2.041.528-3.064-.014-.931-.493-1.173-.842-1.233-1.474-.032-.334.44-.557.916-.708a11 11 0 0 1-1.338.226c-1.624.181-2.617-.51-2.617-.51s.692.66 1.715.901.09 1.144.21 1.144-.631.572-2.436 1.023-1.083-.662-1.083-.662l-1.114.601c-1.04.563-1.074.028-2.45.03.063.103.15.214.279.335 1.701 1.617 6.296-.085 6.296-.085s-.294 1.638 3.706 1.382c3.999-.255 3.365-2.074 3.365-2.074l.843.692c2.31 1.897 5.275.085 5.445-.34s1.966 3.122 5.877 1.285c1.196-.56 1.816-1.26 2.102-1.96-.067-.004-.137-.006-.192-.016-.662-.12-1.354-1.444-1.354-1.444l-.421.571c-.421.572-1.674.32-2.487.32-.812 0-1.606-.97-1.804-1.594-.215-.677-.162-1.524.17-1.915.33-.391 1.082-.902 2.225-1.715 1.144-.812-.66.15-.781.18-.12.03-2.003.891-3.898.891s-2.872-2.816-2.872-2.816m-7.386 5.55a8 8 0 0 0 .657-.18c-.177.044-.412.103-.657.18m.657-.18c.129-.031.232-.057.261-.075.057-.034-.06.01-.26.075" style="display:inline;fill:#c6c6c6;fill-opacity:1;stroke-width:.340357"/><path d="M230.997 52.383s-.792 2.404-3.274 2.526c-2.181.107-3.18-2.245-3.18-2.245s-.418.659-2.433 0c-2.263-.74-1.876-2.024-1.876-2.024s-3.083 2.48-3.363-.233 2.032-2.64 2.032-2.64 2.085-1.651 3.02-1.183l.936.467s-.562-2.525 1.777-2.9c2.339-.374 2.9.842 3.087 0 .187-.841-1.422-1.096 1.497-4.209 2.28-2.433 4.21-1.964 4.21-1.964s-1.498-7.297 4.209-8.42c5.706-1.122 8.512 2.34 8.512 2.34s4.251-4.008 8.513-.281c3.43 3 2.151 5.612 2.151 5.612s3.301-.841 4.584 1.216c.895 1.436.187 2.807.187 2.807s3.929-2.9 6.735-.094.655 6.829.655 6.829 5.478-1.046 6.455 2.432c.862 3.074-2.34 4.022-2.34 4.022s3.65 0 1.965 1.31c-1.683 1.31-2.355.995-3.274 1.029-3.966.147-2.806 1.777-6.828.842-4.023-.936-4.958-2.713-6.08-3.087-1.123-.374-2.433 2.245-6.736 1.777-4.303-.467-4.21-2.619-4.21-2.619s1.014.554-2.151.935c-2.468.298-3.368-1.59-3.368-1.59s-.808 2.387-5.145 2.339c-4.384-.049-6.267-2.994-6.267-2.994" style="display:inline;fill:#f9f9f9;fill-opacity:1;stroke-width:.264583"/><path d="M251.057 33.84c-2.004-.172-3.941 1.978-4.122 2.58-.327-.63-2.554-3.047-6.49-2.371-4.63.795-5.519 5.8-5.519 5.8s-1.777-.14-4.303 1.543c-2.526 1.684-2.292 3.601-2.433 4.022-.14.421-1.496 0-2.806.187-1.31.188-1.684 2.105-1.684 2.105s-.841.187-3.18.468c-1.796.215-2.502.767-3.659 1.56-.014.205-.016.423.01.673.28 2.713 3.363.233 3.363.233s-.387 1.284 1.876 2.024c2.014.659 2.432 0 2.432 0s1 2.352 3.18 2.245c2.483-.122 3.275-2.525 3.275-2.525s1.883 2.944 6.267 2.993c4.336.048 5.145-2.339 5.145-2.339s.9 1.888 3.368 1.59c1.477-.178 2.027-.392 2.212-.571.185.633.951 1.908 4.149 2.255 4.303.468 5.613-2.151 6.735-1.777 1.123.374 2.058 2.152 6.08 3.087s2.863-.695 6.829-.842c.919-.034 1.59.28 3.274-1.029q.158-.124.256-.231c-.26-.017-.497-.029-.77-.05-2.433-.187-2.293-1.31-2.293-1.31s1.544-.56 1.217-3.32-5.426-2.385-5.566-1.87.655-2.106-1.17-5.38-8.372-.234-8.372-.234 1.263-.327.562-3.134c-.702-2.806-4.397-1.403-4.724-1.122-.328.28 1.075-2.292-1.59-4.584-.5-.43-1.027-.632-1.549-.677z" style="display:inline;fill:#e9e9e9;fill-opacity:1;stroke-width:.264583"/><path d="M250.407 39.615s-2.9 1.964-7.577 2.946-7.436-1.637-7.436-1.637-.234.375 1.216 1.637 3.554 1.73 3.788 1.778c.234.046.045 3.686-4.864 3.928-3.789.188-6.735-2.01-6.735-2.01s2.713 2.244 3.461 2.993-.608.795-2.9 1.45-5.286-1.357-5.286-1.357-.467.187-1.73.327-1.029-.981-1.356-.514c-.328.468-.375.328-2.246.562-1.59.198-.653.017-1.888.246-.002.139 0 .283.017.443.28 2.713 3.363.233 3.363.233s-.387 1.284 1.876 2.024c2.015.659 2.433 0 2.433 0s.999 2.352 3.18 2.245c2.482-.122 3.274-2.525 3.274-2.525s1.883 2.944 6.267 2.993c4.336.048 5.145-2.339 5.145-2.339s.9 1.888 3.368 1.59c1.478-.178 2.028-.392 2.212-.571.185.633.952 1.908 4.149 2.255 4.303.468 5.613-2.151 6.735-1.777 1.123.374 2.058 2.152 6.08 3.087s2.863-.695 6.83-.842c.918-.034 1.59.28 3.273-1.029.045-.035.072-.065.11-.098a19 19 0 0 0-3.197-.042c-1.824.14-1.824-1.31-1.824-1.31s-1.122.655-3.32 0c-2.199-.655.327-3.602.327-3.602s-1.03.047-4.584-.42c-3.554-.468-1.918-1.45-1.918-1.45s.515-.515.842-1.03c.328-.514.655-.982.655-.982s-1.918 1.45-4.584 1.778-3.788-2.152-3.788-2.152-.047 1.497 2.058 2.62 4.022-.094 4.022-.094-.42.608-2.245 1.824c-1.824 1.216-3.929-.655-3.929-.655s-.888.515-5.566.047c-4.677-.468-5.285-5.566-5.285-5.566s1.31-.561 4.07-1.918c2.759-1.356 3.507-3.086 3.507-3.086" style="display:inline;fill:#cdcdcd;fill-opacity:1;stroke-width:.264583"/><path d="M279.272 109.928c.234 0 4.737.702 5.556-3.217.627-3-2.28-4.912-3.334-4.854-1.052.059-2.339.468-2.865.234s-.542-3.968-6.258-5.205c-5.247-1.135-7.486.76-7.486.76s-.873-3-4.036-3.684c-4.327-.936-4.884 2.264-5.614 1.988-.775-.292-1.894.24-2.763.892-.927.695-.922 1.74-.922 1.74s-2.456-.994-4.269.468-1.988 2.924-1.988 2.924-4.211-2.164-6.024.468-.82 5.556-.82 5.556.703 1.813 2.34 2.398 2.34.117 2.34.117.117 1.462 1.579 2.164 3.743.175 3.743.175-.059 3.45 4.562 4.211c4.51.742 5.556-1.287 6.257-1.579.702-.292.468-1.287.878-1.111.409.175 2.982 2.047 5.556 1.813s4.21-2.807 4.21-2.807 4.27 2.163 6.317.467 3.041-3.918 3.041-3.918" style="display:inline;fill:#eaeaea;fill-opacity:1;stroke-width:.165418"/><path d="M257.963 97.716q.459-.03.88 0c2.233.166 3.143 2.565 3.143 2.565s3.143-1.158 4.466-.662-1.406 1.489-1.572 1.737c-.165.248 5.128-.413 6.617.165 1.489.58-.579-1.157-.579-1.157s-.662-.331 1.654-1.407c2.316-1.075 4.301 2.978 4.797 3.474.497.497 2.15.083 3.805-.165 1.654-.248 3.557 3.143 3.557 3.143l.176.333c.012.31-.009.631-.08.97-.818 3.918-5.32 3.216-5.555 3.216 0 0-.994 2.222-3.041 3.918s-6.316-.467-6.316-.467-1.638 2.573-4.211 2.807-5.147-1.638-5.556-1.813c-.41-.176-.176.818-.878 1.11-.701.293-1.747 2.322-6.257 1.58-4.62-.76-4.562-4.211-4.562-4.211s-2.281.526-3.743-.175-1.58-2.164-1.58-2.164-.701.468-2.339-.117-2.34-2.398-2.34-2.398-.34-1.016-.254-2.386c.553-1.033 1.308-2.277 2.038-3.098 1.323-1.489 5.541-.165 5.541-.165s1.407-1.572 2.895-2.399c1.49-.827 3.226-.248 3.226-.248l1.406-.91s2.533-.95 4.662-1.076" style="display:inline;fill:#d4d4d4;fill-opacity:1;stroke-width:.165418"/><path d="M260.166 104.416s-.29 1.944-1.117 3.143c-.827 1.2-2.233 5.542 3.06 5.624 5.294.083 1.738-5.913 1.738-5.913s3.473 1.282 6.823 1.654 6.658-2.275 6.658-2.275-.248.662-1.944 2.15c-1.695 1.49-2.853 1.117-3.556 1.117s.455.952.455.952 1.944.91 3.887.455 2.15-3.226 2.15-3.226 1.49.579 4.136.248c2.396-.3 2.252-2.6 2.203-3.053l.072.117.03.058c.042.124.075.227.143.438 0 .26-.018.526-.076.806-.819 3.919-5.322 3.217-5.556 3.217 0 0-.994 2.222-3.04 3.918-2.048 1.696-6.317-.467-6.317-.467s-1.638 2.573-4.211 2.807-5.147-1.638-5.556-1.813c-.41-.176-.176.818-.877 1.11s-1.748 2.322-6.258 1.58c-4.62-.76-4.562-4.211-4.562-4.211s-2.281.526-3.743-.175-1.58-2.164-1.58-2.164-.701.468-2.339-.117-2.339-2.398-2.339-2.398-.214-.651-.258-1.608c.503.486 1.67 1.748 3.737 2.162 2.481.496 4.425-1.985 4.425-1.985v.413c0 .414-1.241 1.034-1.613 1.778-.372.745.083 1.324 2.026 1.737 1.944.414 3.184-1.199 3.184-1.199s.828.91 2.192 1.158 2.564-.744 3.557-1.571c.992-.828-.91-1.2-3.267-1.572s-2.606-1.695-2.606-1.695 1.944.537 4.715.703 5.624-1.903 5.624-1.903" style="display:inline;fill:#848484;fill-opacity:1;stroke-width:.165418"/></g><g style="display:inline"><path d="M158.668 33.873s-4.163 3.087-6.174-.562 1.263-5.659 1.263-5.659-.047-4.07 3.461-4.35 3.976 2.292 3.976 2.292 2.479-3.087 5.987-2.947 4.443 1.45 4.443 1.45 1.766-5.363 6.548-6.08c6.548-.982 7.764 4.022 7.764 4.022s8.606-.56 8.56 4.771c-.047 5.332-2.386 6.782-2.386 6.782s-1.777 1.684-3.975 1.45-3.602-1.029-3.602-1.029-1.291 1.78-3.77 1.5c-2.479-.281-3.012-1.547-3.012-1.547s-1.917 4.958-7.343 5.566-8.279-.748-9.869-2.947-1.87-2.712-1.87-2.712" style="opacity:1;fill:#fff;fill-opacity:1;stroke-width:.264583"/><path d="M178.173 22.624c-3.245.102-6.081 3.391-6.081 3.391s-.702-1.45-4.163-1.918-6.782 2.666-6.782 2.666-.842-1.917-4.35-1.075c-2.206.53-1.824 2.806-1.824 2.806s-1.45.093-2.666 1.356c0 0-.205.03-.286.04-.29.892-.289 2.038.473 3.421 2.012 3.649 6.174.562 6.174.562s.28.514 1.87 2.713 4.444 3.554 9.87 2.946 7.343-5.566 7.343-5.566.533 1.266 3.012 1.547 3.77-1.5 3.77-1.5 1.403.795 3.602 1.029 3.975-1.45 3.975-1.45 2.01-1.254 2.338-5.693c-.03-.019-.063-.05-.093-.06-1.122-.421-1.029-.327-1.029-.327s.281-2.012-2.291-3.649-6.502 1.357-6.502 1.357-2.198-2.198-5.706-2.573a5 5 0 0 0-.654-.023" style="opacity:1;fill:#f2f2f2;fill-opacity:1;stroke-width:.264583"/><path d="M192.391 28.213s-1.871 1.45-3.508 1.73c-1.637.281-3.04-.794-3.04-.794l2.104 1.543s-.841 1.263-3.881 2.058-4.958-.795-4.958-.795.14-.093.7-.795c.562-.702 2.06-2.245 2.06-2.245s-2.9 2.01-5.847 2.946-7.203-2.057-7.203-2.057.888 1.402 3.274 2.712c2.385 1.31 5.144.375 5.144.375s-2.104 2.572-7.763 3.554c-5.66.982-7.53-3.46-7.53-3.46s-.469.14-1.685.233-1.543-1.73-1.543-1.73.374-.562 1.076-1.217c.701-.655 1.075-1.59 1.075-1.59s-.42.467-2.15 1.45c-1.731.982-3.322-.234-3.322-.234l.889.795c.888.796 2.245.375 2.245.375s-1.17 1.356-3.04 2.057c-1.5.563-2.922-.433-3.446-.864.104.334.25.684.452 1.051 2.012 3.649 6.174.562 6.174.562s.28.514 1.87 2.713 4.444 3.554 9.87 2.946 7.343-5.566 7.343-5.566.533 1.266 3.012 1.547 3.77-1.5 3.77-1.5 1.403.795 3.602 1.029 3.975-1.45 3.975-1.45 1.45-.914 2.087-3.912c-.401.467-1.358 1.478-2.555 2.041-1.59.749-2.806-.748-2.806-.748s-.561-.234.655-.562c1.216-.327 2.9-2.198 2.9-2.198" style="opacity:1;fill:#d8d8d8;fill-opacity:1;stroke-width:.264583"/><path d="M132.37 99.89s-6.528-.296-5.51-3.687c1.016-3.391 2.542-4.96 5.51-5.468 2.84-.487 4.153.424 4.153.424s.3-5.59 4.24-6.952c3.433-1.187 3.856-1.06 6.188-.17 2.079.794 3.39 2.544 3.39 2.544s1.71-1.635 2.968-2.204c1.78-.806 3.476-.254 3.476-.254s-1.453-3.592.678-5.935c2.662-2.927 5.256-1.526 5.256-1.526s-4.281-3.815-.848-8.308c3.258-4.262 9.325-.084 9.325-.084s6.817-7.825 15.464-2.739 3.441 14.777 3.441 14.777 5.002-1.187 6.443 1.102 1.78 5.086 1.78 5.086 2.846-.372 4.07.933c1.27 1.356 1.017 3.815 1.017 3.815s2.5-.552 3.687.974 1.484 2.756 1.484 2.756 4.662.254 5.171 3.56c.503 3.269-1.187 5.468-4.79 5.044-4.594-.54-4.62-3.179-4.62-3.179s-2.61 4.434-6.951 4.578c-5.13.17-7.037-4.323-7.037-4.323s-1.178 2.545-4.238 2.797c-3.603.297-4.748-1.695-4.748-1.695s-.802 4.194-4.154 4.916c-6.485 1.4-7.63-1.865-7.63-1.865s-1.186 6.274-9.07 6.02-7.715-7.545-7.715-7.545-2.373 1.78-5.68.762c-3.306-1.017-5.17-2.797-5.17-2.797s-1.95 2.543-4.96 1.823c-3.156-.756-4.62-3.18-4.62-3.18" style="fill:#fff;fill-opacity:1;stroke-width:.239778"/><path d="M180.33 68.749c-3.585.223-6.59 2.827-6.59 2.827s-3.942-2.331-7.206.339c-3.025 2.475-.764 6.358-.764 6.358s-.249-.203-1.44.17c-1.056.329-5.341 4.832-5.341 4.832s2.712-.17 6.951 0 7.545 3.221 7.545 3.221-3.094-.975-7.163-.975-6.028 2.438-6.231 2.501c-.923.287-1.187-1.823-3.985-1.865-2.327-.035-4.408 2.628-4.408 2.628s-3.476-2.798-8.054-2.12c-4.577.679-6.612 5.342-6.612 5.342s-1.526-1.188-4.493-.425-3.645.976-5.68 4.918l-.064.07c-.444 3.038 5.575 3.32 5.575 3.32s1.464 2.424 4.62 3.18c3.01.72 4.96-1.823 4.96-1.823s1.864 1.78 5.17 2.797 5.68-.763 5.68-.763-.17 7.291 7.715 7.546 9.07-6.02 9.07-6.02 1.145 3.264 7.63 1.866c3.352-.723 4.154-4.917 4.154-4.917s1.145 1.992 4.748 1.695c3.06-.252 4.238-2.798 4.238-2.798s1.908 4.493 7.037 4.324c4.342-.144 6.951-4.578 6.951-4.578s.026 2.639 4.62 3.18c3.297.387 4.97-1.433 4.849-4.248-.57-.736-.552-1.792-2.305-3.001-2.459-1.696-4.112-.763-4.112-.763s-.509-1.78-2.204-2.713c-1.696-.932-3.56 1.018-3.56 1.018s-.763-.763-.51-1.78c.255-1.018.424-2.459-.508-3.646-.933-1.187-4.154-.932-4.154-.932s.254-.848-.424-2.459c-.678-1.61-.82-2.263-4.662-2.12-4.536.17-12.886 3.476-12.886 3.476s0-.932 1.78-2.627c1.78-1.696 7.46-2.544 6.952-2.374-.51.17 3.39-6.697-1.865-11.02-1.643-1.352-3.393-1.743-5.023-1.641" style="fill:#f2f2f2;fill-opacity:1;stroke-width:.239778"/><path d="M196.374 90.904s-.423.51-2.882 2.29-4.154 2.203-8.647 2.373-7.375-3.052-7.375-3.052.593 2.459 3.645 4.07c3.052 1.61 7.63.17 7.63.17s0 2.457-4.324 3.56c-4.323 1.101-5.765-1.95-5.765-1.95s-1.017 4.323-6.951 3.73-4.917-4.07-4.917-4.07.424-.508 2.204-1.186 3.645-3.052 3.645-3.052-3.984 2.204-7.884 2.628-4.662-2.12-5.086-2.035.254 4.663-4.493 6.443c-4.748 1.78-5.934-3.815-5.934-3.815s.084 0 1.61-.678 2.29-2.458 2.29-2.458-4.748 1.695-8.563 2.203c-3.815.51-7.714-2.966-7.714-2.966s.254.593 2.034 2.458 4.493 2.12 4.493 2.12-1.017.932-4.663 1.61c-3.645.678-3.9-2.797-3.9-2.797s-.677.847-3.814 2.119c-2.79 1.131-3.85-1.637-4.062-2.29-.032.063-.059.107-.092.17l-.064.07c-.444 3.039 5.575 3.321 5.575 3.321s1.464 2.424 4.62 3.18c3.01.72 4.96-1.823 4.96-1.823s1.864 1.78 5.17 2.797 5.68-.763 5.68-.763-.17 7.291 7.715 7.546 9.07-6.02 9.07-6.02 1.145 3.264 7.63 1.866c3.352-.723 4.154-4.917 4.154-4.917s1.145 1.992 4.748 1.695c3.06-.252 4.238-2.798 4.238-2.798s1.908 4.493 7.037 4.324c4.342-.144 6.951-4.578 6.951-4.578s.026 2.639 4.62 3.18c2.764.325 4.37-.914 4.75-2.978-.277.25-1.31.916-4.707.985-4.154.085-4.24-3.645-4.24-3.645s-3.898 3.052-7.883 1.61c-3.984-1.44-.509-8.647-.509-8.647" style="fill:#d2d2d2;fill-opacity:1;stroke-width:.239778"/><path d="M75.412 105.46s-2.405 3.307-6.012 3.307-5.812-1.503-5.812-1.503-2.705 2.38-7.415 1.303c-3.99-.913-5.811-1.904-5.811-1.904s-.702 2.18-3.608 1.879c-2.906-.3-3.006-2.18-3.006-2.18s-2.805 1.704-4.91.502c-2.104-1.203-3.607-3.407-3.607-3.407s-1.303 2.505-5.41 2.304c-4.11-.2-2.706-7.214-2.706-7.214s.701-3.106 5.611-2.405l4.91.701s-4.94-4.75-1.603-8.817c2.855-3.483 6.413-.802 6.413-.802s-1.503-2.305-.1-3.407 4.208-.902 4.208-.902-2.806-4.309 1.703-6.613 7.516 0 7.516 0l2.104 2.805s-1.208-2.445 1.38-3.158c3.212-.885 3.53 1.255 3.53 1.255s1.403-.301 3.206-1.103c1.804-.801 4.109-1.703 5.411.301 1.303 2.004.501 4.008.501 4.008s3.613-.985 5.812.702c2.58 1.979 2.004 4.509 2.004 4.509s2.285-.404 4.108 1.402c2.68 2.656 1.904 4.209 1.904 4.209s2.606-2.204 4.51-1.202 3.132 2.552 3.132 2.552 1.878-1.523 3.685-.921c1.806.602 2.409 1.878 2.409 1.878s1.275-1.453 2.87-.532c1.594.921 1.31 2.02 1.31 2.02s3.472-.461 3.437 2.125-1.24 3.543-1.24 3.543-1.001.769-3.295.177c-1.478-.381-1.736-.496-1.736-.496s-1.569 1.197-3.624 1.268c-2.054.07-3.143-.63-3.143-.63s-3.082 4.286-6.589 5.03-6.66-1.488-6.66-1.488-.921 1.56-3.047 1.63-2.34-.725-2.34-.725" style="opacity:1;fill:#fff;stroke-width:.141708"/><path d="M52.34 78.97c-2.138.267-3.488 3.126-3.142 4.507.425 1.7-.921.107-3.826 1.24s-.46 4.535-.46 4.535-2.375-1.878-6.165.354.673 6.413.708 6.873c.036.46-1.736 2.905-2.976 3.047s-2.302-.532-5.066-1.736c-2.243-.978-2.07-.783-3.575-.45-.563.61-.723 1.207-.723 1.207s-1.403 7.014 2.705 7.214 5.41-2.304 5.41-2.304 1.504 2.204 3.608 3.407 4.91-.501 4.91-.501.1 1.878 3.006 2.179 3.608-1.879 3.608-1.879 1.82.991 5.811 1.904c4.71 1.077 7.415-1.303 7.415-1.303s2.205 1.504 5.812 1.504 6.012-3.307 6.012-3.307.214.796 2.34.725c2.126-.07 3.047-1.63 3.047-1.63s3.153 2.232 6.66 1.488 6.59-5.03 6.59-5.03 1.088.7 3.142.63c2.055-.071 3.624-1.268 3.624-1.268s.258.115 1.736.496c2.294.592 3.295-.177 3.295-.177s.89-.717 1.16-2.567c-.259-.275-.478-.48-.558-.48-.284 0 1.01-.903-1.966-1.824s-3.844.053-3.844.053.16-1.116-1.665-1.878c-2.37-.989-4.358.106-4.358.106s-.567-1.363-4.605-1.86c-4.039-.495-5.456 1.364-5.456 1.364v-2.196s-.602-2.196-2.657-3.968-5.279-1.417-5.279-1.417 3.153-2.409-2.302-4.251c-5.456-1.842-8.042 1.417-8.042 1.417s.956-2.161-2.48-3.472c-3.165-1.207-5.881 1.842-6.377 2.197-.41.292-.08-3.575-5.078-2.95" style="opacity:1;fill:#f2f2f2;fill-opacity:1;stroke-width:.141708"/><path d="M58.267 84.186s-.07.921.354 3.755c.425 2.834.992 1.276 3.189 4.393s.425 12.329-5.03 13.392c-5.457 1.062-5.386-1.913-7.086-3.401s-.638-2.48-.638-2.48 1.346-.496 2.763-1.913 2.268-3.685 1.134-2.48c-1.134 1.204-2.622 2.55-5.952 2.692s-5.03-3.117-5.03-3.117-.567.07.85 2.834c1.417 2.763 3.4.92 3.613 1.63.213.708.355 2.408-.708 4.109-1.063 1.7-2.976.921-5.668.992s-3.047-3.543-3.047-3.543l-1.913 1.913c-1.913 1.913-4.11 1.134-6.235.78-1.15-.192-1.524-.745-1.928-1.601.173 1.758.855 3.521 2.885 3.62 4.108.2 5.41-2.304 5.41-2.304s1.504 2.204 3.608 3.407 4.91-.501 4.91-.501.1 1.878 3.006 2.179 3.608-1.879 3.608-1.879 1.82.991 5.811 1.904c4.71 1.077 7.415-1.303 7.415-1.303s2.205 1.504 5.812 1.504 6.012-3.307 6.012-3.307.214.796 2.34.725c2.126-.07 3.047-1.63 3.047-1.63s3.153 2.232 6.66 1.488 6.59-5.03 6.59-5.03 1.088.7 3.142.63c2.055-.071 3.624-1.268 3.624-1.268s.258.115 1.736.496c2.294.592 3.295-.177 3.295-.177s.723-.594 1.062-2.073c-.232.04-.354.054-.531.089-.709.142.567.567-2.267 1.275-2.834.709-2.834-1.488-2.834-1.488s-.78 0-2.976.496c-2.197.496-3.189-1.204-3.189-1.204s-3.117 2.267-5.88 2.48c-2.764.212-4.11-1.205-4.323-1.559-.212-.354-1.063 1.771-3.33 3.118s-4.251-.78-4.251-.78.354-1.346 2.409-2.196 3.755-3.26 3.755-3.26-3.897 1.772-8.786 2.835-6.235-2.622-7.227-4.11.992 1.771 1.559 4.606-.354 3.33-2.55 5.526c-2.197 2.197-3.331-.354-3.331-.354s-.283-1.63 1.063-6.519-1.134-7.368-1.134-7.368.142 0 2.55-.496c2.41-.496 4.323-2.268 4.323-2.268s-1.559.567-6.59.709c-5.03.141-5.1-3.968-5.1-3.968" style="opacity:1;fill:#cbcbcb;fill-opacity:1;stroke-width:.141708"/><path d="M107.85 62.156c-.29 0-5.872.87-6.887-3.987-.776-3.717 2.827-6.089 4.132-6.016 1.305.072 2.9.58 3.552.29s.672-4.92 7.757-6.452c6.503-1.407 9.279.942 9.279.942s1.082-3.72 5.002-4.567c5.364-1.16 6.054 2.807 6.959 2.465.96-.362 2.347.298 3.425 1.106 1.149.86 1.142 2.156 1.142 2.156s3.044-1.232 5.292.58 2.464 3.625 2.464 3.625 5.22-2.682 7.467.58 1.015 6.886 1.015 6.886-.87 2.247-2.9 2.972-2.9.145-2.9.145-.145 1.813-1.957 2.683-4.64.217-4.64.217.073 4.277-5.654 5.22c-5.59.92-6.886-1.595-7.756-1.958-.87-.362-.58-1.595-1.087-1.377-.508.217-3.698 2.537-6.887 2.247-3.19-.29-5.22-3.48-5.22-3.48s-5.291 2.683-7.829.58-3.769-4.857-3.769-4.857" style="opacity:1;fill:#fff;fill-opacity:1;stroke-width:.205035"/><path d="M134.262 47.02a8 8 0 0 0-1.09 0c-2.768.206-3.896 3.179-3.896 3.179s-3.895-1.435-5.536-.82 1.743 1.845 1.948 2.153c.205.307-6.356-.513-8.201.205-1.845.717.717-1.436.717-1.436s.82-.41-2.05-1.742-5.33 3.69-5.946 4.305-2.665.103-4.716-.205c-2.05-.307-4.408 3.896-4.408 3.896l-.219.413c-.014.383.011.782.098 1.201 1.015 4.857 6.597 3.988 6.887 3.988 0 0 1.232 2.754 3.77 4.856 2.537 2.103 7.828-.58 7.828-.58s2.03 3.19 5.22 3.48 6.38-2.03 6.887-2.247.217 1.015 1.087 1.377 2.166 2.877 7.756 1.957c5.727-.942 5.655-5.22 5.655-5.22s2.827.653 4.64-.217c1.811-.87 1.956-2.682 1.956-2.682s.87.58 2.9-.144c2.03-.725 2.9-2.973 2.9-2.973s.422-1.26.315-2.957c-.685-1.281-1.62-2.822-2.525-3.84-1.64-1.845-6.87-.205-6.87-.205s-1.742-1.948-3.587-2.973-3.998-.308-3.998-.308l-1.743-1.127s-3.14-1.178-5.78-1.335" style="opacity:1;fill:#f2f2f2;fill-opacity:1;stroke-width:.205035"/><path d="M131.532 55.325s.359 2.409 1.384 3.895 2.768 6.87-3.793 6.972c-6.562.102-2.153-7.33-2.153-7.33s-4.306 1.589-8.458 2.05-8.253-2.82-8.253-2.82.308.82 2.41 2.666c2.101 1.846 3.536 1.384 4.408 1.384.871 0-.564 1.18-.564 1.18s-2.41 1.127-4.818.563c-2.41-.564-2.666-3.998-2.666-3.998s-1.845.717-5.126.307c-2.97-.37-2.791-3.223-2.73-3.783l-.09.144-.037.072-.177.543c0 .322.022.652.094 1 1.015 4.856 6.597 3.987 6.887 3.987 0 0 1.232 2.754 3.77 4.856 2.536 2.103 7.828-.58 7.828-.58s2.03 3.19 5.22 3.48 6.38-2.03 6.887-2.247.217 1.015 1.087 1.377 2.166 2.877 7.756 1.957c5.727-.942 5.655-5.22 5.655-5.22s2.827.653 4.64-.217c1.811-.87 1.956-2.682 1.956-2.682s.87.58 2.9-.144c2.03-.725 2.9-2.973 2.9-2.973s.265-.807.32-1.992c-.624.602-2.071 2.166-4.632 2.679-3.076.615-5.485-2.46-5.485-2.46v.512c0 .512 1.538 1.281 2 2.204.46.923-.103 1.64-2.512 2.153-2.41.512-3.947-1.487-3.947-1.487s-1.026 1.128-2.717 1.436c-1.692.307-3.178-.923-4.408-1.948s1.127-1.487 4.05-1.948c2.92-.461 3.228-2.102 3.228-2.102s-2.409.667-5.843.872-6.971-2.358-6.971-2.358" style="opacity:1;fill:#dadada;fill-opacity:1;stroke-width:.205035"/><path d="M61.759 39.221c-.3 0-3.62 1.545-4.667.048-1.048-1.497-.06-2.16.476-2.667.541-.511.897-.938 3.142-1.237s2.62.19 2.845-.11.15-2.245 3.218-2.694c3.069-.45 4.191-.45 4.191-.45s-.299-2.619 2.844-3.667c3.144-1.047 4.266.075 4.566.075s.598-3.442 3.293-4.19c2.694-.75 6.211.448 6.211.448s1.048-3.293 4.79-2.694 4.64 3.143 4.64 3.143 3.185-.385 4.49.524c1.684 1.171 1.797 3.143 1.797 3.143s2.13-.404 3.143.524c1.335 1.224.824 2.545.824 2.545s2.095-1.572 4.265-.45 3.219 3.967 3.069 3.593.748-1.048 1.721-.823a4.6 4.6 0 0 1 1.62.726l1.075.92s.947-1.096 2.743-.572 1.448 1.92 1.448 1.92.24 1.518-1.705 1.518-1.289-.022-1.289-.022-1.727 2.246-5.395 1.572-3.736-1.347-3.736-1.347-1.355 1.553-4.148 1.268c-2.81-.288-3.036-1.567-3.86-1.268-.823.3-1.645 2.393-6.81 2.77-4.732.343-7.334-1.273-7.334-1.273s-3.576 2.328-6.287 1.197c-2.695-1.124-3.443-3.592-3.443-3.592s-1.916 2.373-4.76 2.298-3.397-2.148-3.397-2.148-.645 2.509-4.836 2.359c-4.19-.15-4.744-1.387-4.744-1.387" style="opacity:1;fill:#fff;fill-opacity:1;stroke-width:.149682"/><path d="M92.164 26.886c-1.31-.052-2.113 1.171-2.113 1.171s-1.879-1.244-5.61-1.006c-3.73.238-4.233 3.493-4.233 3.493s-2.01-.608-5.345-.08c-3.334.53-3.97 3.758-3.97 3.758s-.581-.82-3.968-.926c-2.025-.063-2.885.883-3.258 1.656-.039.136-.073.25-.112.303-.006.009-.015.01-.022.018a3.2 3.2 0 0 0-.154.643s-.529.053-2.593.08c-2.035.025-2.518.28-4.08 1.672-.139.402-.098.91.386 1.601 1.047 1.497 4.368-.048 4.667-.048 0 0 .553 1.237 4.744 1.387 4.192.15 4.836-2.36 4.836-2.36s.553 2.074 3.397 2.149 4.76-2.298 4.76-2.298.748 2.468 3.443 3.592c2.71 1.131 6.287-1.197 6.287-1.197s2.602 1.616 7.334 1.272c5.165-.376 5.987-2.47 6.81-2.769.824-.3 1.05.98 3.86 1.268 2.793.285 4.148-1.268 4.148-1.268s.07.674 3.736 1.347c3.637.668 5.355-1.523 5.384-1.56.1.005.38.01 1.3.01 1.946 0 1.705-1.518 1.705-1.518s.138-.596-.261-1.155c-.361-.168-.768-.302-1.174-.311-1.164-.027-2.752.185-2.752.317 0 .133-.846-.635-2.593-1.428-.967-.44-1.495-.18-1.782.138-.053.095-.077.189-.045.268a1 1 0 0 1-.064-.142c-.15.217-.2.423-.2.423s-2.01-2.857-3.968-3.466c-1.958-.608-3.758.582-3.758.582s-1.296-.635-2.937-2.249-5.318 0-5.318 0-.238-.423-.873-.952c-.635-.53-2.62-.212-2.62-.212s-.132-.98-2.01-1.932a2.4 2.4 0 0 0-.984-.27" style="opacity:1;fill:#f2f2f2;fill-opacity:1;stroke-width:.149682"/><path d="M88.103 31.887s-1.628 1.778-5.912 2.77c-3.748.866-5.464-1.273-5.464-1.273s.561 1.048.412 1.946-1.142 1.609-4.435 1.89c-3.11.265-3.723-.43-3.723-.43s-.561.935-2.881 1.72c-2.32.786-4.042-.935-4.042-.935s-2.993 1.422-4.415 1.347c-.833-.044-.98-.636-.964-1.122-.089.381-.022.849.413 1.47 1.047 1.496 4.368-.049 4.667-.049 0 0 .553 1.237 4.744 1.387 4.192.15 4.836-2.36 4.836-2.36s.553 2.074 3.397 2.149 4.76-2.298 4.76-2.298.748 2.468 3.443 3.592c2.71 1.131 6.287-1.197 6.287-1.197s2.602 1.616 7.334 1.272c5.165-.376 5.987-2.47 6.81-2.77.824-.298 1.05.981 3.86 1.269 2.793.285 4.148-1.268 4.148-1.268s.07.674 3.736 1.347c3.637.668 5.355-1.523 5.384-1.56.1.005.38.01 1.3.01.95 0 1.375-.362 1.565-.733-.287.062-.333.2-.684.262-2.095.375-2.17-.336-2.17-.336s-1.291 1.609-5.201.935c-3.651-.629-4.865-2.095-4.865-2.095s-1.497-.038-3.069-.225-2.32-1.497-1.796-2.17c.524-.674 1.198-1.572 1.198-1.572s-.824.898-3.967 2.133-5.089-1.085-5.089-1.085l.075.449c.07.419 2.17 1.384 2.17 1.384s-.037.225-2.395 1.198-4.34-1.048-4.34-1.048-1.572 2.844-6.1 2.956-3.188-3.455-1.871-4.228c1.497-.88 2.844-2.732 2.844-2.732" style="opacity:1;fill:#d8d8d8;fill-opacity:1;stroke-width:.149682"/><path d="M221.657 86.721c2.31 1.897 5.275.085 5.445-.34s1.966 3.122 5.877 1.286c3.888-1.826 1.696-5.115 1.696-5.115s2.32-2.357 1.191-4c-1.423-2.07-3.233-.85-3.573-1.02s-.17-4.138-4-4.68c-3.824-.542-4.765 2.382-4.765 2.382s-2.952-2.367-6.1.428c-1.653 1.467-1.848 4.312-1.252 5.418.595 1.107.545 1.387.545 1.387s-3.063-4.255-6.552-1.957 0 4.68 0 4.68-4.424 0-2.722 1.616c1.701 1.617 6.296-.085 6.296-.085s-.294 1.638 3.706 1.382c3.999-.255 3.365-2.074 3.365-2.074z" style="opacity:1;fill:#fff;fill-opacity:1;stroke-width:.340357"/><path d="M226.78 75.661c-1.667.052-2.12 1.515-2.12 1.515s-1.835-1.955-4.994-.481c-3.294 1.537-2.647 6.167-2.647 6.167s-2.226-2.166-4.633-.843c-2.715 1.494-1.384 2.979-1.083 3.16.3.18-.451.24-1.083.21-.549-.027-1.266.095-3.16.73-.011.188.1.414.387.687 1.701 1.617 6.296-.085 6.296-.085s-.294 1.638 3.706 1.382c3.999-.255 3.365-2.074 3.365-2.074l.843.692c2.31 1.897 5.275.085 5.445-.34s1.966 3.122 5.877 1.285c1.94-.91 2.367-2.185 2.306-3.235a45 45 0 0 0-.637-.487c-1.444-1.083-1.535-.932-1.384-1.323.15-.391 1.113-2.256.06-3.46-1.053-1.203-2.376-.45-2.376-.45-.69-2.207-1.018-3.147-4.169-3.05" style="opacity:1;fill:#f2f2f2;fill-opacity:1;stroke-width:.340357"/><path d="M223.667 78.168s-.221.815.387 1.864c.661 1.14 1.088 1.325.787 1.777-.301.45-.33.33-3.37 1.143-3.038.812-3.85-1.655-3.85-1.655s-.064.907.765 1.483c.83.577 2.153.443 2.574.894.757.812-1.081 2.176-1.298 2.24-.727.217-2.041.528-3.064-.014-.931-.493-1.173-.842-1.233-1.474-.032-.334.44-.557.916-.708a11 11 0 0 1-1.338.226c-1.624.181-2.617-.51-2.617-.51s.692.66 1.715.901.09 1.144.21 1.144-.631.572-2.436 1.023-1.083-.662-1.083-.662l-1.114.601c-1.04.563-1.074.028-2.45.03.063.103.15.214.279.335 1.701 1.617 6.296-.085 6.296-.085s-.294 1.638 3.706 1.382c3.999-.255 3.365-2.074 3.365-2.074l.843.692c2.31 1.897 5.275.085 5.445-.34s1.966 3.122 5.877 1.285c1.196-.56 1.816-1.26 2.102-1.96-.067-.004-.137-.006-.192-.016-.662-.12-1.354-1.444-1.354-1.444l-.421.571c-.421.572-1.674.32-2.487.32-.812 0-1.606-.97-1.804-1.594-.215-.677-.162-1.524.17-1.915.33-.391 1.082-.902 2.225-1.715 1.144-.812-.66.15-.781.18-.12.03-2.003.891-3.898.891s-2.872-2.816-2.872-2.816m-7.386 5.55a8 8 0 0 0 .657-.18c-.177.044-.412.103-.657.18m.657-.18c.129-.031.232-.057.261-.075.057-.034-.06.01-.26.075" style="opacity:1;fill:#d8d8d8;fill-opacity:1;stroke-width:.340357"/><path d="M230.997 52.383s-.792 2.404-3.274 2.526c-2.181.107-3.18-2.245-3.18-2.245s-.418.659-2.433 0c-2.263-.74-1.876-2.024-1.876-2.024s-3.083 2.48-3.363-.233 2.032-2.64 2.032-2.64 2.085-1.651 3.02-1.183l.936.467s-.562-2.525 1.777-2.9c2.339-.374 2.9.842 3.087 0 .187-.841-1.422-1.096 1.497-4.209 2.28-2.433 4.21-1.964 4.21-1.964s-1.498-7.297 4.209-8.42c5.706-1.122 8.512 2.34 8.512 2.34s4.251-4.008 8.513-.281c3.43 3 2.151 5.612 2.151 5.612s3.301-.841 4.584 1.216c.895 1.436.187 2.807.187 2.807s3.929-2.9 6.735-.094.655 6.829.655 6.829 5.478-1.046 6.455 2.432c.862 3.074-2.34 4.022-2.34 4.022s3.65 0 1.965 1.31c-1.683 1.31-2.355.995-3.274 1.029-3.966.147-2.806 1.777-6.828.842-4.023-.936-4.958-2.713-6.08-3.087-1.123-.374-2.433 2.245-6.736 1.777-4.303-.467-4.21-2.619-4.21-2.619s1.014.554-2.151.935c-2.468.298-3.368-1.59-3.368-1.59s-.808 2.387-5.145 2.339c-4.384-.049-6.267-2.994-6.267-2.994" style="opacity:1;fill:#fff;fill-opacity:1;stroke-width:.264583"/><path d="M251.057 33.84c-2.004-.172-3.941 1.978-4.122 2.58-.327-.63-2.554-3.047-6.49-2.371-4.63.795-5.519 5.8-5.519 5.8s-1.777-.14-4.303 1.543c-2.526 1.684-2.292 3.601-2.433 4.022-.14.421-1.496 0-2.806.187-1.31.188-1.684 2.105-1.684 2.105s-.841.187-3.18.468c-1.796.215-2.502.767-3.659 1.56-.014.205-.016.423.01.673.28 2.713 3.363.233 3.363.233s-.387 1.284 1.876 2.024c2.014.659 2.432 0 2.432 0s1 2.352 3.18 2.245c2.483-.122 3.275-2.525 3.275-2.525s1.883 2.944 6.267 2.993c4.336.048 5.145-2.339 5.145-2.339s.9 1.888 3.368 1.59c1.477-.178 2.027-.392 2.212-.571.185.633.951 1.908 4.149 2.255 4.303.468 5.613-2.151 6.735-1.777 1.123.374 2.058 2.152 6.08 3.087s2.863-.695 6.829-.842c.919-.034 1.59.28 3.274-1.029q.158-.124.256-.231c-.26-.017-.497-.029-.77-.05-2.433-.187-2.293-1.31-2.293-1.31s1.544-.56 1.217-3.32-5.426-2.385-5.566-1.87.655-2.106-1.17-5.38-8.372-.234-8.372-.234 1.263-.327.562-3.134c-.702-2.806-4.397-1.403-4.724-1.122-.328.28 1.075-2.292-1.59-4.584-.5-.43-1.027-.632-1.549-.677z" style="opacity:1;fill:#f2f2f2;fill-opacity:1;stroke-width:.264583"/><path d="M250.407 39.615s-2.9 1.964-7.577 2.946-7.436-1.637-7.436-1.637-.234.375 1.216 1.637 3.554 1.73 3.788 1.778c.234.046.045 3.686-4.864 3.928-3.789.188-6.735-2.01-6.735-2.01s2.713 2.244 3.461 2.993-.608.795-2.9 1.45-5.286-1.357-5.286-1.357-.467.187-1.73.327-1.029-.981-1.356-.514c-.328.468-.375.328-2.246.562-1.59.198-.653.017-1.888.246-.002.139 0 .283.017.443.28 2.713 3.363.233 3.363.233s-.387 1.284 1.876 2.024c2.015.659 2.433 0 2.433 0s.999 2.352 3.18 2.245c2.482-.122 3.274-2.525 3.274-2.525s1.883 2.944 6.267 2.993c4.336.048 5.145-2.339 5.145-2.339s.9 1.888 3.368 1.59c1.478-.178 2.028-.392 2.212-.571.185.633.952 1.908 4.149 2.255 4.303.468 5.613-2.151 6.735-1.777 1.123.374 2.058 2.152 6.08 3.087s2.863-.695 6.83-.842c.918-.034 1.59.28 3.273-1.029.045-.035.072-.065.11-.098a19 19 0 0 0-3.197-.042c-1.824.14-1.824-1.31-1.824-1.31s-1.122.655-3.32 0c-2.199-.655.327-3.602.327-3.602s-1.03.047-4.584-.42c-3.554-.468-1.918-1.45-1.918-1.45s.515-.515.842-1.03c.328-.514.655-.982.655-.982s-1.918 1.45-4.584 1.778-3.788-2.152-3.788-2.152-.047 1.497 2.058 2.62 4.022-.094 4.022-.094-.42.608-2.245 1.824c-1.824 1.216-3.929-.655-3.929-.655s-.888.515-5.566.047c-4.677-.468-5.285-5.566-5.285-5.566s1.31-.561 4.07-1.918c2.759-1.356 3.507-3.086 3.507-3.086" style="opacity:1;fill:#d8d8d8;fill-opacity:1;stroke-width:.264583"/><path d="M279.272 109.928c.234 0 4.737.702 5.556-3.217.627-3-2.28-4.912-3.334-4.854-1.052.059-2.339.468-2.865.234s-.542-3.968-6.258-5.205c-5.247-1.135-7.486.76-7.486.76s-.873-3-4.036-3.684c-4.327-.936-4.884 2.264-5.614 1.988-.775-.292-1.894.24-2.763.892-.927.695-.922 1.74-.922 1.74s-2.456-.994-4.269.468-1.988 2.924-1.988 2.924-4.211-2.164-6.024.468-.82 5.556-.82 5.556.703 1.813 2.34 2.398 2.34.117 2.34.117.117 1.462 1.579 2.164 3.743.175 3.743.175-.059 3.45 4.562 4.211c4.51.742 5.556-1.287 6.257-1.579.702-.292.468-1.287.878-1.111.409.175 2.982 2.047 5.556 1.813s4.21-2.807 4.21-2.807 4.27 2.163 6.317.467 3.041-3.918 3.041-3.918" style="opacity:1;fill:#fff;fill-opacity:1;stroke-width:.165418"/><path d="M257.963 97.716q.459-.03.88 0c2.233.166 3.143 2.565 3.143 2.565s3.143-1.158 4.466-.662-1.406 1.489-1.572 1.737c-.165.248 5.128-.413 6.617.165 1.489.58-.579-1.157-.579-1.157s-.662-.331 1.654-1.407c2.316-1.075 4.301 2.978 4.797 3.474.497.497 2.15.083 3.805-.165 1.654-.248 3.557 3.143 3.557 3.143l.176.333c.012.31-.009.631-.08.97-.818 3.918-5.32 3.216-5.555 3.216 0 0-.994 2.222-3.041 3.918s-6.316-.467-6.316-.467-1.638 2.573-4.211 2.807-5.147-1.638-5.556-1.813c-.41-.176-.176.818-.878 1.11-.701.293-1.747 2.322-6.257 1.58-4.62-.76-4.562-4.211-4.562-4.211s-2.281.526-3.743-.175-1.58-2.164-1.58-2.164-.701.468-2.339-.117-2.34-2.398-2.34-2.398-.34-1.016-.254-2.386c.553-1.033 1.308-2.277 2.038-3.098 1.323-1.489 5.541-.165 5.541-.165s1.407-1.572 2.895-2.399c1.49-.827 3.226-.248 3.226-.248l1.406-.91s2.533-.95 4.662-1.076" style="opacity:1;fill:#f2f2f2;fill-opacity:1;stroke-width:.165418"/><path d="M260.166 104.416s-.29 1.944-1.117 3.143c-.827 1.2-2.233 5.542 3.06 5.624 5.294.083 1.738-5.913 1.738-5.913s3.473 1.282 6.823 1.654 6.658-2.275 6.658-2.275-.248.662-1.944 2.15c-1.695 1.49-2.853 1.117-3.556 1.117s.455.952.455.952 1.944.91 3.887.455 2.15-3.226 2.15-3.226 1.49.579 4.136.248c2.396-.3 2.252-2.6 2.203-3.053l.072.117.03.058c.042.124.075.227.143.438 0 .26-.018.526-.076.806-.819 3.919-5.322 3.217-5.556 3.217 0 0-.994 2.222-3.04 3.918-2.048 1.696-6.317-.467-6.317-.467s-1.638 2.573-4.211 2.807-5.147-1.638-5.556-1.813c-.41-.176-.176.818-.877 1.11s-1.748 2.322-6.258 1.58c-4.62-.76-4.562-4.211-4.562-4.211s-2.281.526-3.743-.175-1.58-2.164-1.58-2.164-.701.468-2.339-.117-2.339-2.398-2.339-2.398-.214-.651-.258-1.608c.503.486 1.67 1.748 3.737 2.162 2.481.496 4.425-1.985 4.425-1.985v.413c0 .414-1.241 1.034-1.613 1.778-.372.745.083 1.324 2.026 1.737 1.944.414 3.184-1.199 3.184-1.199s.828.91 2.192 1.158 2.564-.744 3.557-1.571c.992-.828-.91-1.2-3.267-1.572s-2.606-1.695-2.606-1.695 1.944.537 4.715.703 5.624-1.903 5.624-1.903" style="opacity:1;fill:#dadada;fill-opacity:1;stroke-width:.165418"/></g></svg>