<svg xmlns="http://www.w3.org/2000/svg" width="400" height="825" viewBox="0 0 105.833 218.281"><path d="M2.655 1.178s-1.521 43.856-1.138 87.58c.38 43.242 14.414 90.277 14.414 90.277-.884 9.163-2.31 30.398-2.843 37.328 0 0 2.248-5.38 4.644-6.755s4.016-1.968 5.91-2.161 2.94-3.039 6.53-3.09c5.536-.082 4.037 2.041 7.025 2.134 3.565.112 7.66-1.407 7.66-1.407-6.593-13.466.962-14.577-.125-22.95 0 0 20.224-10.085 29.234-20.548 11.758-13.655 18.586-26.93 24.655-59.93 5.79-31.488 4.93-100.478 4.93-100.478Z" style="fill:#af9469;fill-opacity:1;stroke:none;stroke-width:1.104"/><path d="M9.949 26.344c.536 4.291.269 96.98 4.318 120.58 4.037 23.523 6.085 33.549 6.085 33.549s-4.679-45.54-5.751-66.998c-1.073-21.457.98-86.765.98-86.765Zm14.71 154.855s6.034-55.118 5.23-79.525c-.805-24.408.597-69.344.597-69.344l6.418 1.874s-2.187 79.807-3.797 98.314c-1.609 18.507-8.448 48.68-8.448 48.68m3.628.791s18.368-30.644 22.54-60.23c4.173-29.587 4.154-88.61 4.154-88.61l7.965-.38s-3.394 94.3-13.256 114.024-21.403 35.196-21.403 35.196" style="fill:#866e48;fill-opacity:1;stroke:none;stroke-width:1.104"/><path d="M34.046 180.662s26.955-18.104 36.611-49.217c9.656-31.112 11.33-98.482 11.33-98.482l4.292-.804s-3.016 86.412-13.744 106.796-17.702 26.553-24.14 32.186-14.349 9.521-14.349 9.521" style="fill:#866e48;fill-opacity:1;stroke:none;stroke-width:1.104"/><path d="M19.498 174.723h40.876v9.368H19.498z" style="fill:#866e48;fill-opacity:1;stroke:none;stroke-width:.980032" transform="matrix(.99132 .13145 -.08186 .99664 0 0)"/><circle cx="9.009" cy="181.974" r="2.94" style="fill:#bda884;fill-opacity:1;stroke:none;stroke-width:.744"/><path d="M19.63 188.138s-1.518 9.53-1.66 11.332-.478 9.745-.478 9.745l.48-.06s.3-8.264.501-10.275 1.257-8.784 1.274-9.572.151-1.14.151-1.14zm3.366 16.879s-.664-7.301-.332-11.284.758-5.12.758-5.12h.617s-1.09 3.65-1.09 7.728.248 10.956.248 10.956zm4.504-15.883s-.095 6.069.806 9.293a72 72 0 0 0 1.991 6.021l1.138-.095s-1.991-2.987-2.56-6.827-.759-4.884-.806-6.401-.047-1.991-.047-1.991zm6.429.56s0 3.486 2.682 7.912c2.682 4.425 6.504 7.577 6.504 7.577h1.744s-3.957-3.085-6.17-6.37-4.76-9.12-4.76-9.12" style="fill:#866e48;fill-opacity:1;stroke:none;stroke-width:1.104"/></svg>