<?xml version="1.0" encoding="UTF-8" standalone="no"?>
<svg
   width="171mm"
   height="295mm"
   viewBox="0 0 171 295"
   version="1.1"
   id="svg17"
   sodipodi:docname="door-day.svg"
   inkscape:version="1.4 (86a8ad7, 2024-10-11)"
   xmlns:inkscape="http://www.inkscape.org/namespaces/inkscape"
   xmlns:sodipodi="http://sodipodi.sourceforge.net/DTD/sodipodi-0.dtd"
   xmlns="http://www.w3.org/2000/svg"
   xmlns:svg="http://www.w3.org/2000/svg">
  <defs
     id="defs17">
    <rect
       x="766.09045"
       y="350.29414"
       width="375.92542"
       height="122.46055"
       id="rect18" />
    <rect
       x="-381.62126"
       y="223.56171"
       width="301.87951"
       height="91.133436"
       id="rect17" />
  </defs>
  <sodipodi:namedview
     id="namedview17"
     pagecolor="#505050"
     bordercolor="#eeeeee"
     borderopacity="1"
     inkscape:showpageshadow="0"
     inkscape:pageopacity="0"
     inkscape:pagecheckerboard="0"
     inkscape:deskcolor="#505050"
     inkscape:document-units="mm"
     showgrid="false"
     inkscape:zoom="0.70226695"
     inkscape:cx="322.52693"
     inkscape:cy="557.48031"
     inkscape:window-width="1920"
     inkscape:window-height="1001"
     inkscape:window-x="-9"
     inkscape:window-y="-9"
     inkscape:window-maximized="1"
     inkscape:current-layer="svg17" />
  <g
     style="display:inline"
     transform="translate(35.097)"
     id="g9">
    <path
       d="M -30.828,5.556 H 132.201 V 290.857 H -30.828 Z"
       style="display:inline;fill:#8a6318;fill-opacity:1;stroke:none;stroke-width:0.493196;stroke-linecap:round;stroke-linejoin:round;paint-order:markers fill stroke"
       id="path1" />
    <path
       d="M -14.128,114.714 H 117.163 V 272.46 H -14.128 Z"
       style="display:inline;fill:#7f5c16;fill-opacity:1;stroke:none;stroke-width:0.592879;stroke-linecap:round;stroke-linejoin:round;stroke-opacity:1;paint-order:markers fill stroke"
       id="path2" />
    <circle
       cx="-20.414"
       cy="153.832"
       r="5.8559999"
       style="display:inline;fill:#3e3a3a;fill-opacity:1;stroke:none;stroke-width:0.369431;stroke-linecap:round;stroke-linejoin:round;paint-order:markers fill stroke"
       id="circle2" />
    <path
       d="m -14.128,25.328 h 131.291 v 79.574 H -14.128 Z"
       style="display:inline;fill:#7f5c16;fill-opacity:1;stroke:none;stroke-width:0.421087;stroke-linecap:round;stroke-linejoin:round;stroke-opacity:1;paint-order:markers fill stroke"
       id="path3" />
    <path
       d="M -10.213,119.418 H 113.248 V 267.756 H -10.213 Z"
       style="display:inline;fill:#906819;fill-opacity:1;stroke:none;stroke-width:0.55752;stroke-linecap:round;stroke-linejoin:round;stroke-opacity:1;paint-order:markers fill stroke"
       id="path4" />
    <path
       d="m -14.126,272.434 3.977,-4.714 123.412,-0.096 3.89,4.811 z"
       style="display:inline;fill:#9c701b;fill-opacity:1;stroke:none;stroke-width:0.499999;stroke-linecap:round;stroke-linejoin:round;stroke-opacity:1;paint-order:markers fill stroke"
       id="path5" />
    <path
       d="m -10.362,30.657 h 123.758 v 70.417 H -10.362 Z"
       style="display:inline;fill:#906819;fill-opacity:1;stroke:none;stroke-width:0.384589;stroke-linecap:round;stroke-linejoin:round;stroke-opacity:1;paint-order:markers fill stroke"
       id="path6" />
    <path
       d="m 31.94,149.302 h 26.456 a 2.646,2.646 45 0 1 2.646,2.646 v 1.501 a 2.646,2.646 135 0 1 -2.646,2.646 H 31.94 a 2.646,2.646 45 0 1 -2.646,-2.646 v -1.501 a 2.646,2.646 135 0 1 2.646,-2.646"
       style="display:inline;fill:#6a6363;fill-opacity:1;stroke:none;stroke-width:0.499999;stroke-linecap:round;stroke-linejoin:round;stroke-opacity:1;paint-order:markers fill stroke"
       transform="matrix(0.76465,0,0,0.77778,-45.444,35.15)"
       id="path7" />
    <path
       d="m -14.126,105.443 3.856,-4.937 123.62,0.085 3.803,4.852 z"
       style="display:inline;fill:#9c701b;fill-opacity:1;stroke:none;stroke-width:0.485193;stroke-linecap:round;stroke-linejoin:round;stroke-opacity:1;paint-order:markers fill stroke"
       id="path8" />
    <path
       d="M 10.524,59.927 50.885,40.338 91.35,64.003"
       style="display:inline;fill:none;fill-opacity:1;stroke:#383838;stroke-width:0.5;stroke-linecap:round;stroke-linejoin:round;stroke-dasharray:none;stroke-opacity:1;paint-order:markers fill stroke"
       id="path9" />
    <circle
       cx="50.692001"
       cy="40.591"
       r="1.51"
       style="display:inline;fill:#5b5b5b;fill-opacity:1;stroke:#383838;stroke-width:0.500001;stroke-linecap:round;stroke-linejoin:round;stroke-dasharray:none;stroke-opacity:1;paint-order:markers fill stroke"
       id="circle9" />
  </g>
  <g
     style="display:inline"
     id="g10">
    <path
       d="m 47.902,55.682 h 81.656 v 28.82 H 47.902 Z"
       style="display:inline;fill:#606060;fill-opacity:1;stroke:none;stroke-width:0.499999;stroke-linecap:round;stroke-linejoin:round;stroke-opacity:1;paint-order:markers fill stroke"
       transform="rotate(2.866)"
       id="path10" />
  </g>
  <g
     style="display:inline"
     id="g11">
    <path
       d="m 47.918,55.699 h 81.656 v 28.82 H 47.918 Z"
       style="display:inline;fill:#ffffff;fill-opacity:1;stroke:none;stroke-width:0.499999;stroke-linecap:round;stroke-linejoin:round;stroke-opacity:1;paint-order:markers fill stroke"
       transform="rotate(2.866)"
       id="path11" />
  </g>
  <g
     style="display:none"
     transform="translate(14.907,39.814)"
     id="g14">
    <path
       d="M 29.193,94.87 V 208.877 H 111.5 V 95.425 Z"
       style="display:inline;fill:#606060;fill-opacity:1;stroke:#9a9a9a;stroke-width:0.245611;stroke-linecap:round;stroke-linejoin:round;stroke-dasharray:none;stroke-opacity:1;paint-order:markers fill stroke"
       id="path12" />
    <path
       d="m 27.34,102.099 c 0,0 -1.387,-4.945 -1.127,-8.762 0.252,-3.685 3.49,-3.52 3.49,-3.52 l 81.705,0.325 c 0,0 3.285,1.493 3.05,7.629 l -0.281,7.313 c 0,0 -11.896,-8.91 -45.313,-9.103 -30.7,-0.177 -41.525,6.118 -41.525,6.118"
       style="display:inline;fill:#606060;fill-opacity:1;stroke:#979797;stroke-width:0.246;stroke-linecap:round;stroke-linejoin:round;stroke-dasharray:none;stroke-opacity:1;paint-order:markers fill stroke"
       id="path13" />
    <path
       d="m 29.31,208.848 c 0,0 -0.724,-0.098 -0.878,-2.345 l -0.34,-4.933 c 0,0 20.936,3.785 43.553,3.785 22.617,0 40.041,-1.298 40.783,-2.78 0.741,-1.484 0.597,6.148 -1.257,6.705 -1.853,0.556 -9.69,0.895 -9.69,0.895 z"
       style="display:inline;fill:#606060;fill-opacity:1;stroke:#989898;stroke-width:0.24561;stroke-linecap:round;stroke-linejoin:round;stroke-dasharray:none;stroke-opacity:1;paint-order:markers fill stroke"
       id="path14" />
    <circle
       cx="70.960999"
       cy="101.332"
       r="1.51"
       style="display:inline;fill:#5b5b5b;fill-opacity:1;stroke:#383838;stroke-width:0.500001;stroke-linecap:round;stroke-linejoin:round;stroke-dasharray:none;stroke-opacity:1;paint-order:markers fill stroke"
       id="circle14" />
  </g>
  <g
     style="display:none"
     transform="matrix(0.49122,0,0,0.49122,66.998,104.584)"
     id="g17">
    <path
       d="m -46.585,61.071 v 232.09 H 120.973 V 62.203 Z"
       style="display:inline;fill:#ffffff;fill-opacity:1;stroke:#878787;stroke-width:0.499999;stroke-linecap:round;stroke-linejoin:round;stroke-dasharray:none;stroke-opacity:1;paint-order:markers fill stroke"
       id="path15" />
    <path
       d="m -50.359,75.79 c 0,0 -2.821,-10.067 -2.291,-17.838 0.511,-7.502 7.103,-7.164 7.103,-7.164 l 166.331,0.66 c 0,0 6.687,3.04 6.208,15.53 l -0.572,14.887 c 0,0 -24.217,-18.136 -92.245,-18.53 -62.495,-0.36 -84.534,12.454 -84.534,12.454"
       style="display:inline;fill:#ffffff;stroke:#878787;stroke-width:0.499999;stroke-linecap:round;stroke-linejoin:round;stroke-dasharray:none;stroke-opacity:1;paint-order:markers fill stroke"
       id="path16" />
    <path
       d="m -46.346,293.102 c 0,0 -1.474,-0.2 -1.788,-4.774 l -0.691,-10.043 c 0,0 42.62,7.706 88.66,7.706 46.04,0 81.515,-2.642 83.025,-5.66 1.51,-3.02 1.216,12.517 -2.558,13.65 -3.774,1.132 -19.728,1.822 -19.728,1.822 z"
       style="display:inline;fill:#ffffff;fill-opacity:1;stroke:#878787;stroke-width:0.499998;stroke-linecap:round;stroke-linejoin:round;stroke-dasharray:none;stroke-opacity:1;paint-order:markers fill stroke"
       id="path17" />
    <circle
       cx="38.443001"
       cy="74.227997"
       r="3.073"
       style="display:inline;fill:#5b5b5b;fill-opacity:1;stroke:#383838;stroke-width:1.01787;stroke-linecap:round;stroke-linejoin:round;stroke-dasharray:none;stroke-opacity:1;paint-order:markers fill stroke"
       id="circle17" />
  </g>
  <text
     xml:space="preserve"
     transform="scale(0.26458333)"
     id="text17"
     style="font-size:85.3333px;font-family:Satisfy;-inkscape-font-specification:Satisfy;text-align:center;writing-mode:lr-tb;direction:ltr;white-space:pre;shape-inside:url(#rect17);display:none;fill:#252525;fill-opacity:0.882353;stroke-width:4.1726"><tspan
       x="-381.62109"
       y="377.3227"
       id="tspan2"><tspan
         dx="0 62.583305 34.666649 23.916656 33.583328 27.749985 27.749985 23.416656 31"
         id="tspan1">My office</tspan></tspan></text>
  <text
     xml:space="preserve"
     transform="matrix(0.18979684,0.02250691,-0.02250691,0.18979684,-88.319048,-21.231705)"
     id="text18"
     style="font-size:85.3333px;font-family:Satisfy;-inkscape-font-specification:Satisfy;text-align:center;writing-mode:lr-tb;direction:ltr;white-space:pre;shape-inside:url(#rect18);display:inline;fill:#252525;fill-opacity:0.882353;stroke-width:4.1726"><tspan
       x="805.84446"
       y="412.92231"
       id="tspan3">My office</tspan></text>
</svg>
