<svg xmlns="http://www.w3.org/2000/svg" width="171mm" height="295mm" viewBox="0 0 171 295"><g style="display:inline" transform="translate(35.097)"><path d="M-30.828 5.556h163.029v285.301H-30.828z" style="display:inline;fill:#8a6318;fill-opacity:1;stroke:none;stroke-width:.493196;stroke-linecap:round;stroke-linejoin:round;paint-order:markers fill stroke"/><path d="M-14.128 114.714h131.291V272.46H-14.128z" style="display:inline;fill:#7f5c16;fill-opacity:1;stroke:none;stroke-width:.592879;stroke-linecap:round;stroke-linejoin:round;stroke-opacity:1;paint-order:markers fill stroke"/><circle cx="-20.414" cy="153.832" r="5.856" style="display:inline;fill:#3e3a3a;fill-opacity:1;stroke:none;stroke-width:.369431;stroke-linecap:round;stroke-linejoin:round;paint-order:markers fill stroke"/><path d="M-14.128 25.328h131.291v79.574H-14.128z" style="display:inline;fill:#7f5c16;fill-opacity:1;stroke:none;stroke-width:.421087;stroke-linecap:round;stroke-linejoin:round;stroke-opacity:1;paint-order:markers fill stroke"/><path d="M-10.213 119.418h123.461v148.338H-10.213z" style="display:inline;fill:#906819;fill-opacity:1;stroke:none;stroke-width:.55752;stroke-linecap:round;stroke-linejoin:round;stroke-opacity:1;paint-order:markers fill stroke"/><path d="m-14.126 272.434 3.977-4.714 123.412-.096 3.89 4.811z" style="display:inline;fill:#9c701b;fill-opacity:1;stroke:none;stroke-width:.499999;stroke-linecap:round;stroke-linejoin:round;stroke-opacity:1;paint-order:markers fill stroke"/><path d="M-10.362 30.657h123.758v70.417H-10.362z" style="display:inline;fill:#906819;fill-opacity:1;stroke:none;stroke-width:.384589;stroke-linecap:round;stroke-linejoin:round;stroke-opacity:1;paint-order:markers fill stroke"/><path d="M31.94 149.302h26.456a2.646 2.646 45 0 1 2.646 2.646v1.501a2.646 2.646 135 0 1-2.646 2.646H31.94a2.646 2.646 45 0 1-2.646-2.646v-1.501a2.646 2.646 135 0 1 2.646-2.646" style="display:inline;fill:#6a6363;fill-opacity:1;stroke:none;stroke-width:.499999;stroke-linecap:round;stroke-linejoin:round;stroke-opacity:1;paint-order:markers fill stroke" transform="matrix(.76465 0 0 .77778 -45.444 35.15)"/><path d="m-14.126 105.443 3.856-4.937 123.62.085 3.803 4.852z" style="display:inline;fill:#9c701b;fill-opacity:1;stroke:none;stroke-width:.485193;stroke-linecap:round;stroke-linejoin:round;stroke-opacity:1;paint-order:markers fill stroke"/><path d="m10.524 59.927 40.361-19.589L91.35 64.003" style="display:inline;fill:none;fill-opacity:1;stroke:#383838;stroke-width:.5;stroke-linecap:round;stroke-linejoin:round;stroke-dasharray:none;stroke-opacity:1;paint-order:markers fill stroke"/><circle cx="50.692" cy="40.591" r="1.51" style="display:inline;fill:#5b5b5b;fill-opacity:1;stroke:#383838;stroke-width:.500001;stroke-linecap:round;stroke-linejoin:round;stroke-dasharray:none;stroke-opacity:1;paint-order:markers fill stroke"/></g><g style="display:inline"><path d="M47.902 55.682h81.656v28.82H47.902z" style="display:inline;fill:#606060;fill-opacity:1;stroke:none;stroke-width:.499999;stroke-linecap:round;stroke-linejoin:round;stroke-opacity:1;paint-order:markers fill stroke" transform="rotate(2.866)"/></g><g style="display:inline"><path d="M47.918 55.699h81.656v28.82H47.918z" style="display:inline;fill:#fff;fill-opacity:1;stroke:none;stroke-width:.499999;stroke-linecap:round;stroke-linejoin:round;stroke-opacity:1;paint-order:markers fill stroke" transform="rotate(2.866)"/></g><g style="display:inline" transform="translate(14.907 39.814)"><path d="M29.193 94.87v114.007H111.5V95.425Z" style="display:inline;fill:#606060;fill-opacity:1;stroke:#9a9a9a;stroke-width:.245611;stroke-linecap:round;stroke-linejoin:round;stroke-dasharray:none;stroke-opacity:1;paint-order:markers fill stroke"/><path d="M27.34 102.099s-1.387-4.945-1.127-8.762c.252-3.685 3.49-3.52 3.49-3.52l81.705.325s3.285 1.493 3.05 7.629l-.281 7.313s-11.896-8.91-45.313-9.103c-30.7-.177-41.525 6.118-41.525 6.118" style="display:inline;fill:#606060;fill-opacity:1;stroke:#979797;stroke-width:.246;stroke-linecap:round;stroke-linejoin:round;stroke-dasharray:none;stroke-opacity:1;paint-order:markers fill stroke"/><path d="M29.31 208.848s-.724-.098-.878-2.345l-.34-4.933s20.936 3.785 43.553 3.785 40.041-1.298 40.783-2.78c.741-1.484.597 6.148-1.257 6.705-1.853.556-9.69.895-9.69.895z" style="display:inline;fill:#606060;fill-opacity:1;stroke:#989898;stroke-width:.24561;stroke-linecap:round;stroke-linejoin:round;stroke-dasharray:none;stroke-opacity:1;paint-order:markers fill stroke"/><circle cx="70.961" cy="101.332" r="1.51" style="display:inline;fill:#5b5b5b;fill-opacity:1;stroke:#383838;stroke-width:.500001;stroke-linecap:round;stroke-linejoin:round;stroke-dasharray:none;stroke-opacity:1;paint-order:markers fill stroke"/></g><g style="display:inline" transform="translate(66.998 104.584)scale(.49122)"><path d="M-46.585 61.071v232.09h167.558V62.203Z" style="display:inline;fill:#fff;fill-opacity:1;stroke:#878787;stroke-width:.499999;stroke-linecap:round;stroke-linejoin:round;stroke-dasharray:none;stroke-opacity:1;paint-order:markers fill stroke"/><path d="M-50.359 75.79s-2.821-10.067-2.291-17.838c.511-7.502 7.103-7.164 7.103-7.164l166.331.66s6.687 3.04 6.208 15.53l-.572 14.887s-24.217-18.136-92.245-18.53c-62.495-.36-84.534 12.454-84.534 12.454" style="display:inline;fill:#fff;stroke:#878787;stroke-width:.499999;stroke-linecap:round;stroke-linejoin:round;stroke-dasharray:none;stroke-opacity:1;paint-order:markers fill stroke"/><path d="M-46.346 293.102s-1.474-.2-1.788-4.774l-.691-10.043s42.62 7.706 88.66 7.706 81.515-2.642 83.025-5.66c1.51-3.02 1.216 12.517-2.558 13.65-3.774 1.132-19.728 1.822-19.728 1.822z" style="display:inline;fill:#fff;fill-opacity:1;stroke:#878787;stroke-width:.499998;stroke-linecap:round;stroke-linejoin:round;stroke-dasharray:none;stroke-opacity:1;paint-order:markers fill stroke"/><circle cx="38.443" cy="74.228" r="3.073" style="display:inline;fill:#5b5b5b;fill-opacity:1;stroke:#383838;stroke-width:1.01787;stroke-linecap:round;stroke-linejoin:round;stroke-dasharray:none;stroke-opacity:1;paint-order:markers fill stroke"/></g></svg>