<svg xmlns="http://www.w3.org/2000/svg" width="160mm" height="222mm" viewBox="0 0 160 222"><path d="M6.059 18.669h18.207v139.966H6.059z" style="fill:#3d3434;fill-opacity:1;stroke:none;stroke-width:.2" transform="rotate(-13.262 49.004 45.307)scale(1.33906)"/><path d="M8.462 18.613h3.526V158.69H8.462zm5.118 0h3.526V158.69H13.58zm5.029 0h3.526V158.69h-3.526z" style="fill:#291616;fill-opacity:1;stroke:none;stroke-width:.0880462" transform="rotate(-13.262 49.004 45.307)scale(1.33906)"/><path d="M6.106 18.692 14.878.368l9.387 18.35Z" style="fill:#a09d9d;fill-opacity:1;stroke:none;stroke-width:.2" transform="rotate(-13.262 49.004 45.307)scale(1.33906)"/><path d="M12.827 4.586 14.884.378l2.145 4.267Z" style="fill:#262525;fill-opacity:1;stroke:none;stroke-width:.2;stroke-opacity:1" transform="rotate(-13.262 49.004 45.307)scale(1.33906)"/><path d="M76.207 26.846h14.817v124.883H76.207z" style="fill:#4a7a80;fill-opacity:1;stroke:none;stroke-width:.170692;stroke-opacity:1" transform="rotate(-7.397 -34.519 506.709)scale(1.32996)"/><path d="M76.211 26.853c0-.534 7.474-13.015 7.474-13.015l7.339 13.028z" style="fill:#a09d9d;fill-opacity:1;stroke:none;stroke-width:.2009;stroke-opacity:1" transform="rotate(-7.397 -34.519 506.709)scale(1.32996)"/><path d="M81.852 16.883c.328-.573 1.836-3.076 1.836-3.076l1.73 3.11z" style="fill:#243e07;fill-opacity:1;stroke:none;stroke-width:.2;stroke-opacity:1" transform="rotate(-7.397 -34.519 506.709)scale(1.32996)"/><path d="M66.05 197.568s.094-11.675-1.165-59.266c-1.2-45.316 1.813-75.671 1.813-75.671l6.217.529s2.46 35.19 2.59 67.469c.147 36.607-1.943 67.469-1.943 67.469z" style="fill:#efe887;fill-opacity:1;stroke:none;stroke-width:.139933;stroke-opacity:1" transform="rotate(23.456 185.035 196.843)scale(1.13389)"/><path d="M69.544 63.094s-7.673-5.027-7.143-13.758c.529-8.732 11.377-20.638 11.112-19.05-.264 1.587-.794 6.614-.794 6.614s3.705-7.408 3.175-1.587c-.529 5.82-3.704 9.79-2.645 11.641 1.058 1.852 2.38-1.058 2.38-1.058s3.97 1.323.795 7.144-6.88 10.054-6.88 10.054" style="fill:#8f6b3b;fill-opacity:1;stroke:none;stroke-width:.2;stroke-opacity:1" transform="rotate(23.456 185.035 196.843)scale(1.13389)"/><path d="M53.279 34.599h14.817v124.883H53.279z" style="fill:#71804a;fill-opacity:1;stroke:none;stroke-width:.170692;stroke-opacity:1" transform="rotate(17.574 82.968 174.61)scale(1.17518)"/><path d="M53.283 34.606c0-.534 7.475-13.015 7.475-13.015l7.338 13.028z" style="fill:#a09d9d;fill-opacity:1;stroke:none;stroke-width:.2009;stroke-opacity:1" transform="rotate(17.574 82.968 174.61)scale(1.17518)"/><path d="M58.924 24.636c.328-.573 1.836-3.075 1.836-3.075l1.73 3.11z" style="fill:#523244;fill-opacity:1;stroke:none;stroke-width:.2;stroke-opacity:1" transform="rotate(17.574 82.968 174.61)scale(1.17518)"/><path d="M14.985 93.366 32.812 217.78h77l15.931-125.173Z" style="fill:#656565;fill-opacity:1;stroke:#4193a8;stroke-width:.2"/></svg>