<svg xmlns="http://www.w3.org/2000/svg" width="282" height="333" viewBox="0 0 74.613 88.106"><path d="M41.963 63.605c2.149-17.861 0-17.497 5.193-29.343s8.237-13.852 8.237-13.852-7.7 14.398-8.953 19.502c-1.254 5.103-2.686 16.585-2.686 16.585l-.18 7.472z" style="fill:#247521;fill-opacity:1;stroke:none;stroke-width:.51097;stroke-opacity:1"/><ellipse cx="37.727" cy="46.848" rx="2.406" ry="4.072" style="display:inline;fill:#f9ca82;fill-opacity:1;stroke-width:.512635" transform="matrix(.87284 -.48801 .47497 .88 0 0)"/><ellipse cx="49.961" cy="24.036" rx="1.765" ry="9.157" style="display:inline;fill:#f3ec3b;fill-opacity:1;stroke-width:.522839" transform="matrix(.96582 -.2592 .17013 .98542 0 0)"/><ellipse cx="43.462" cy="59.695" rx="1.777" ry="8.819" style="display:inline;fill:#f3ec3b;fill-opacity:1;stroke-width:.514831" transform="matrix(.86745 -.49752 .36726 .93012 0 0)"/><ellipse cx="56.578" cy="39.848" rx="1.604" ry="8.035" style="display:inline;fill:#f3ec3b;fill-opacity:1;stroke-width:.466918" transform="matrix(.99344 -.11437 -.03653 .99933 0 0)"/><ellipse cx="59.301" cy="5.933" rx="1.609" ry="7.99" style="display:inline;fill:#f3ec3b;fill-opacity:1;stroke-width:.466362" transform="matrix(.89477 .44653 -.56256 .82676 0 0)"/><ellipse cx="46.038" cy="-24.756" rx="1.394" ry="6.809" style="display:inline;fill:#f3ec3b;fill-opacity:1;stroke-width:.400684" transform="matrix(.55913 .82908 -.88744 .46092 0 0)"/><ellipse cx="34.928" cy="39.38" rx="1.774" ry="9.12" style="display:inline;fill:#f3ec3b;fill-opacity:1;stroke-width:.523058" transform="matrix(.80647 -.59128 .50781 .86147 0 0)"/><ellipse cx="3.596" cy="49.654" rx="1.49" ry="8.181" style="display:inline;fill:#f3ec3b;fill-opacity:1;stroke-width:.454129" transform="matrix(.3385 -.94096 .89851 .43895 0 0)"/><ellipse cx="-17.293" cy="46.712" rx="1.196" ry="6.931" style="display:inline;fill:#f3ec3b;fill-opacity:1;stroke-width:.374502" transform="matrix(-.01937 -.99981 .99436 .10603 0 0)"/><ellipse cx="58.101" cy="7.52" rx="1.565" ry="8.718" style="display:inline;fill:#f3ec3b;fill-opacity:1;stroke-width:.480392" transform="matrix(.9979 .06467 -.16462 .98636 0 0)"/><ellipse cx="58.013" cy="-17.343" rx="1.571" ry="8.675" style="display:inline;fill:#f3ec3b;fill-opacity:1;stroke-width:.480129" transform="matrix(.87855 .47765 -.55397 .83254 0 0)"/><ellipse cx="50.384" cy="-36.424" rx="1.376" ry="7.5" style="display:inline;fill:#f3ec3b;fill-opacity:1;stroke-width:.417831" transform="matrix(.65513 .75552 -.81149 .58437 0 0)"/><ellipse cx="37.285" cy="-56.604" rx="1.335" ry="6.807" style="display:inline;fill:#f3ec3b;fill-opacity:1;stroke-width:.392037" transform="matrix(.2429 .97005 -.95969 .28106 0 0)"/><ellipse cx="16.853" cy="-68.234" rx="1.548" ry="6.435" style="display:inline;fill:#f3ec3b;fill-opacity:1;stroke-width:.410421" transform="matrix(-.24544 .96941 -.99378 -.11136 0 0)"/><ellipse cx="6.141" cy="-70.08" rx="1.551" ry="7.191" style="display:inline;fill:#f3ec3b;fill-opacity:1;stroke-width:.434297" transform="matrix(-.45392 .89104 -.95123 -.30847 0 0)"/><ellipse cx="-17.506" cy="-67.43" rx="1.995" ry="7.355" style="display:inline;fill:#f3ec3b;fill-opacity:1;stroke-width:.498122" transform="matrix(-.67422 .73853 -.7623 -.64723 0 0)"/><g style="display:inline"><path d="M21.128 63.118h30.47l-5.192 24.805H27.1Z" style="fill:#634525;fill-opacity:1;stroke-width:.12869"/><path d="M21.404 67.273h30.08l-.804 3.671H22.321Z" style="fill:#8b6134;fill-opacity:1;stroke-width:.12869"/></g><g style="display:inline"><path d="M27.742 63.3s1.16-23.266-11.85-27.426l-5.02-1.605s3.41-3.218 9.82 1.499c4.68 3.443 8.724 14.52 8.81 16.377.148 3.24 1.137 11.149 1.137 11.149z" style="fill:#247521;fill-opacity:1;stroke-width:.51097"/><path d="M27.815 47.83c-1.9-7.346-3.165-6.057-.76-9.28 2.406-3.221 3.04-1.16 3.04-1.16s3.291 2.836.886 5.929c-2.406 3.093-3.166 4.51-3.166 4.51m.886 10.568c-.633-.386-3.798-3.35-3.798-3.866 0-.515-2.533 2.835-4.685-2.577l-2.153-5.413s4.179 1.16 5.825 3.48 1.52 4.381 1.52 4.381z" style="fill:#247521;fill-opacity:1;stroke-width:.51097"/><ellipse cx="-8.875" cy="38.6" rx="6.27" ry="1.519" style="fill:#f28428;fill-opacity:1;stroke:none;stroke-width:.407704;stroke-opacity:1" transform="matrix(.79157 -.61107 .49703 .86773 0 0)"/><ellipse cx="27.34" cy="24.435" rx="7.785" ry="1.469" style="fill:#f28428;fill-opacity:1;stroke:none;stroke-width:.446758;stroke-opacity:1" transform="matrix(.91633 .40042 -.53993 .8417 0 0)"/><ellipse cx="4.633" cy="39.171" rx="5.113" ry="1.786" style="fill:#f28428;fill-opacity:1;stroke:none;stroke-width:.399174;stroke-opacity:1" transform="matrix(.95976 -.28082 .10142 .99484 0 0)"/><ellipse cx="7.734" cy="33.05" rx="4.815" ry="1.566" style="display:inline;fill:#f28428;fill-opacity:1;stroke:none;stroke-width:.36274;stroke-opacity:1" transform="matrix(.99342 .11456 .01961 .9998 0 0)"/><ellipse cx="14.865" cy="34.813" rx="2.128" ry="3.547" style="display:inline;fill:#f9ca82;fill-opacity:1;stroke:none;stroke-width:.448553;stroke-opacity:1"/><ellipse cx="28.732" cy="12.013" rx="5.563" ry="1.217" style="fill:#f28428;fill-opacity:1;stroke:none;stroke-width:.343737;stroke-opacity:1" transform="matrix(.70562 .70859 -.81806 .57513 0 0)"/><ellipse cx="23.031" cy="-12.855" rx="5.919" ry="1.77" style="fill:#f28428;fill-opacity:1;stroke:none;stroke-width:.427523;stroke-opacity:1" transform="matrix(.10594 .99437 -.96322 -.2687 0 0)"/><ellipse cx="18.528" cy="-25.1" rx="6.065" ry="1.391" style="fill:#f28428;fill-opacity:1;stroke:none;stroke-width:.383661;stroke-opacity:1" transform="matrix(-.26694 .96371 -.92072 -.39023 0 0)"/><path d="M44.582 53.181s.397-6.747 6.35-8.599 7.012.133 7.012.133 0 3.968-3.704 6.217c-3.705 2.25-9.658 2.25-9.658 2.25m-6.945 8.995s-1.058 2.91.53-1.058c1.587-3.969 2.116-4.432 3.77-4.829s2.315.86 2.315.86 1.19 1.323-.993 2.447-5.622 2.58-5.622 2.58" style="display:inline;fill:#247521;fill-opacity:1;stroke:none;stroke-width:.264583;stroke-opacity:1"/><path d="m36.922 63.18.704-7.732.76-1.289s-.127 1.998-.127 3.544-.134 5.437-.134 5.437z" style="display:inline;fill:#247521;fill-opacity:1;stroke:none;stroke-width:.51097;stroke-opacity:1"/><path d="M44.369 41.882c-.397-1.191-1.19.132-2.447-4.035S40.73 30.57 40.73 30.57s3.572.793 3.638 3.109 0 8.202 0 8.202" style="display:inline;fill:#247521;fill-opacity:1;stroke:none;stroke-width:.264583;stroke-opacity:1"/><ellipse cx="-19.444" cy="35.034" rx="5.151" ry="1.203" style="fill:#f28428;fill-opacity:1;stroke:none;stroke-width:.328748;stroke-opacity:1" transform="matrix(.53449 -.84518 .68258 .7308 0 0)"/><ellipse cx="36.741" cy="47.718" rx="3.411" ry="3.472" style="display:inline;fill:#f9ca82;fill-opacity:1;stroke:none;stroke-width:.561873;stroke-opacity:1"/><ellipse cx="24.002" cy="66.652" rx="5.224" ry="1.418" style="fill:#f2284b;fill-opacity:1;stroke:none;stroke-width:.359524;stroke-opacity:1" transform="matrix(.60805 -.7939 .4149 .90987 0 0)"/><ellipse cx="1.513" cy="57.363" rx="5.171" ry="1.399" style="fill:#f2284b;fill-opacity:1;stroke:none;stroke-width:.355299;stroke-opacity:1" transform="matrix(.33175 -.94337 .687 .72666 0 0)"/><ellipse cx="-12.105" cy="47.416" rx="5.447" ry="1.423" style="fill:#f2284b;fill-opacity:1;stroke:none;stroke-width:.367729;stroke-opacity:1" transform="matrix(.10737 -.99422 .81783 .57546 0 0)"/><ellipse cx="-37.317" cy="24.04" rx="5.171" ry="1.399" style="fill:#f2284b;fill-opacity:1;stroke:none;stroke-width:.355299;stroke-opacity:1" transform="matrix(-.28926 -.95725 .98351 .18084 0 0)"/><ellipse cx="-55.75" cy="-9.2" rx="5.171" ry="1.399" style="fill:#f2284b;fill-opacity:1;stroke:none;stroke-width:.355299;stroke-opacity:1" transform="matrix(-.72099 -.69295 .94606 -.32398 0 0)"/><ellipse cx="-57.552" cy="-31.532" rx="4.653" ry="1.286" style="fill:#f2284b;fill-opacity:1;stroke:none;stroke-width:.323179;stroke-opacity:1" transform="matrix(-.9208 -.39005 .72863 -.6849 0 0)"/><ellipse cx="-52.604" cy="-49.885" rx="4.901" ry="1.301" style="fill:#f2284b;fill-opacity:1;stroke:none;stroke-width:.333531;stroke-opacity:1" transform="matrix(-.99864 -.05208 .47228 -.88145 0 0)"/><ellipse cx="-47.998" cy="-63.679" rx="5.057" ry="1.647" style="fill:#f2284b;fill-opacity:1;stroke:none;stroke-width:.381171;stroke-opacity:1" transform="matrix(-.91788 .39685 -.0028 -1 0 0)"/><ellipse cx="-37.24" cy="-59.048" rx="4.416" ry="1.263" style="fill:#f2284b;fill-opacity:1;stroke:none;stroke-width:.311969;stroke-opacity:1" transform="matrix(-.96787 .25147 .10918 -.99402 0 0)"/><ellipse cx="-19.842" cy="-64.287" rx="5.007" ry="1.433" style="fill:#f2284b;fill-opacity:1;stroke:none;stroke-width:.353867;stroke-opacity:1" transform="matrix(-.83918 .54385 -.2091 -.9779 0 0)"/><ellipse cx="1.467" cy="-62.355" rx="4.749" ry="1.354" style="fill:#f2284b;fill-opacity:1;stroke:none;stroke-width:.334961;stroke-opacity:1" transform="matrix(-.62485 .78074 -.53073 -.84754 0 0)"/><ellipse cx="-14.157" cy="57.924" rx="5.174" ry="1.378" style="fill:#f2284b;fill-opacity:1;stroke:none;stroke-width:.352662;stroke-opacity:1" transform="matrix(.35568 -.9346 .68142 .73189 0 0)"/><ellipse cx="-69.267" cy="-50.841" rx="5.065" ry="1.311" style="fill:#f2284b;fill-opacity:1;stroke:none;stroke-width:.340343;stroke-opacity:1" transform="matrix(-.99873 -.0504 .48444 -.87482 0 0)"/><ellipse cx="-73.225" cy="-32.457" rx="4.653" ry="1.286" style="fill:#f2284b;fill-opacity:1;stroke:none;stroke-width:.323179;stroke-opacity:1" transform="matrix(-.9208 -.39005 .72863 -.6849 0 0)"/><ellipse cx="-67.76" cy=".295" rx="4.653" ry="1.286" style="fill:#f2284b;fill-opacity:1;stroke:none;stroke-width:.323179;stroke-opacity:1" transform="matrix(-.61352 -.78968 .97017 -.24243 0 0)"/><ellipse cx="-52.936" cy="24.759" rx="5.171" ry="1.399" style="fill:#f2284b;fill-opacity:1;stroke:none;stroke-width:.355299;stroke-opacity:1" transform="matrix(-.28926 -.95725 .98351 .18084 0 0)"/><ellipse cx="-33.873" cy="44.654" rx="4.956" ry="1.388" style="fill:#f2284b;fill-opacity:1;stroke:none;stroke-width:.34647;stroke-opacity:1" transform="matrix(.0563 -.99841 .87015 .49278 0 0)"/><ellipse cx="20.976" cy="-35.102" rx="3.672" ry="1.001" style="fill:#f28428;fill-opacity:1;stroke:none;stroke-width:.25318;stroke-opacity:1" transform="matrix(-.60298 .79775 -.90111 -.4336 0 0)"/><ellipse cx="-41.476" cy="8.381" rx="4.137" ry="1.047" style="fill:#f28428;fill-opacity:1;stroke:none;stroke-width:.274949;stroke-opacity:1" transform="matrix(-.20326 -.97913 .9981 .06163 0 0)"/><ellipse cx="-42.97" cy="-9.187" rx="3.761" ry=".884" style="fill:#f28428;fill-opacity:1;stroke:none;stroke-width:.240882;stroke-opacity:1" transform="matrix(-.60413 -.79688 .8013 -.59828 0 0)"/><ellipse cx="-24.139" cy="-29.925" rx="2.482" ry=".872" style="fill:#f28428;fill-opacity:1;stroke:none;stroke-width:.194395;stroke-opacity:1" transform="matrix(-.9507 -.31009 .13764 -.99048 0 0)"/><ellipse cx="-7.377" cy="-38.561" rx="2.845" ry="1.177" style="fill:#f28428;fill-opacity:1;stroke:none;stroke-width:.241727;stroke-opacity:1" transform="matrix(-.96904 .2469 -.31493 -.94911 0 0)"/></g></svg>