<?xml version="1.0" encoding="UTF-8" standalone="no"?>
<!-- Created with Inkscape (http://www.inkscape.org/) -->

<svg
   width="310"
   height="405"
   viewBox="0 0 82.020826 107.15624"
   version="1.1"
   id="svg1"
   inkscape:version="1.3.2 (091e20e, 2023-11-25, custom)"
   sodipodi:docname="flowers-on-shelf.svg"
   xmlns:inkscape="http://www.inkscape.org/namespaces/inkscape"
   xmlns:sodipodi="http://sodipodi.sourceforge.net/DTD/sodipodi-0.dtd"
   xmlns="http://www.w3.org/2000/svg"
   xmlns:svg="http://www.w3.org/2000/svg">
  <sodipodi:namedview
     id="namedview1"
     pagecolor="#ffffff"
     bordercolor="#000000"
     borderopacity="0.25"
     inkscape:showpageshadow="2"
     inkscape:pageopacity="0.0"
     inkscape:pagecheckerboard="0"
     inkscape:deskcolor="#d1d1d1"
     inkscape:document-units="mm"
     inkscape:zoom="4"
     inkscape:cx="153.25"
     inkscape:cy="227.125"
     inkscape:window-width="1920"
     inkscape:window-height="1001"
     inkscape:window-x="-9"
     inkscape:window-y="-9"
     inkscape:window-maximized="1"
     inkscape:current-layer="layer4" />
  <defs
     id="defs1" />
  <g
     inkscape:label="Layer 1"
     inkscape:groupmode="layer"
     id="layer1" />
  <g
     inkscape:groupmode="layer"
     id="layer3"
     inkscape:label="flower_yellow"
     transform="matrix(1.2978883,0,0,1.2978883,-18.100286,-45.96448)">
    <path
       style="fill:#2f6524;fill-opacity:1;stroke-width:0.264583"
       d="m 47.830972,100.18518 c 1.334249,-0.533697 0.586093,-10.128297 12.237299,-27.002447 l 5.803982,-8.40576 c 0,0 -3.00206,6.00411 -5.003432,9.20631 -2.001372,3.2022 -5.994992,9.65475 -8.315236,15.73341 -2.311117,6.05475 -2.98809,11.002187 -2.98809,11.002187 z"
       id="path2"
       sodipodi:nodetypes="cscsscc" />
    <ellipse
       style="fill:#f9ca82;fill-opacity:1;stroke-width:0.340087"
       id="path3"
       cx="1.4379181"
       cy="92.741081"
       rx="1.6038754"
       ry="2.6888502"
       transform="rotate(-43.788745)" />
    <ellipse
       style="fill:#f3ec3b;fill-opacity:1;stroke-width:0.346764"
       id="path4"
       cx="30.884687"
       cy="81.756081"
       rx="1.1800219"
       ry="6.0249257"
       transform="matrix(0.86795296,-0.49664641,0.42219133,0.90650675,0,0)" />
    <ellipse
       style="fill:#f3ec3b;fill-opacity:1;stroke-width:0.34124"
       id="ellipse4"
       cx="12.700054"
       cy="101.4318"
       rx="1.1842862"
       ry="5.8134785"
       transform="matrix(0.71435923,-0.69977917,0.60043616,0.79967269,0,0)" />
    <ellipse
       style="fill:#f3ec3b;fill-opacity:1;stroke-width:0.309744"
       id="ellipse5"
       cx="49.400795"
       cy="93.13694"
       rx="1.0734383"
       ry="5.2844687"
       transform="matrix(0.93066959,-0.36586079,0.22284871,0.97485304,0,0)" />
    <ellipse
       style="fill:#f3ec3b;fill-opacity:1;stroke-width:0.309744"
       id="ellipse6"
       cx="84.784447"
       cy="59.482277"
       rx="1.0734383"
       ry="5.2844687"
       transform="matrix(0.9812487,0.19274593,-0.33704986,0.9414868,0,0)" />
    <ellipse
       style="fill:#f3ec3b;fill-opacity:1;stroke-width:0.266083"
       id="ellipse7"
       cx="93.476776"
       cy="13.456614"
       rx="0.9218846"
       ry="4.5407939"
       transform="matrix(0.7600955,0.64981139,-0.74265104,0.66967861,0,0)" />
    <ellipse
       style="fill:#f3ec3b;fill-opacity:1;stroke-width:0.346764"
       id="ellipse8"
       cx="-2.8990755"
       cy="84.688881"
       rx="1.1800219"
       ry="6.0249257"
       transform="matrix(0.63237601,-0.77466159,0.71896384,0.69504748,0,0)" />
    <ellipse
       style="fill:#f3ec3b;fill-opacity:1;stroke-width:0.301095"
       id="ellipse9"
       cx="-53.132412"
       cy="64.250214"
       rx="0.98219746"
       ry="5.4573469"
       transform="matrix(0.08894182,-0.99603682,0.98282735,0.1845275,0,0)" />
    <ellipse
       style="fill:#f3ec3b;fill-opacity:1;stroke-width:0.248439"
       id="ellipse10"
       cx="-76.165802"
       cy="39.002949"
       rx="0.78678656"
       ry="4.6382728"
       transform="matrix(-0.2779298,-0.96060139,0.98761688,-0.156885,0,0)" />
    <ellipse
       style="fill:#f3ec3b;fill-opacity:1;stroke-width:0.318781"
       id="ellipse11"
       cx="58.830261"
       cy="70.189262"
       rx="1.0474608"
       ry="5.7361727"
       transform="matrix(0.98039666,-0.19703399,0.09353046,0.99561642,0,0)" />
    <ellipse
       style="fill:#f3ec3b;fill-opacity:1;stroke-width:0.318781"
       id="ellipse12"
       cx="83.131279"
       cy="42.447483"
       rx="1.0474608"
       ry="5.7361727"
       transform="matrix(0.97396288,0.22670753,-0.32722006,0.94494816,0,0)" />
    <ellipse
       style="fill:#f3ec3b;fill-opacity:1;stroke-width:0.277443"
       id="ellipse13"
       cx="92.455429"
       cy="12.64465"
       rx="0.91199452"
       ry="4.9903374"
       transform="matrix(0.83327534,0.55285821,-0.63893404,0.76926153,0,0)" />
    <ellipse
       style="fill:#f3ec3b;fill-opacity:1;stroke-width:0.260055"
       id="ellipse14"
       cx="90.089134"
       cy="-30.334768"
       rx="0.87890011"
       ry="4.5495443"
       transform="matrix(0.48944489,0.87203423,-0.85662436,0.5159406,0,0)" />
    <ellipse
       style="fill:#f3ec3b;fill-opacity:1;stroke-width:0.27241"
       id="ellipse15"
       cx="75.963959"
       cy="-70.978783"
       rx="1.018967"
       ry="4.3058929"
       transform="matrix(0.00972538,0.99995271,-0.98843062,0.15167369,0,0)" />
    <ellipse
       style="fill:#f3ec3b;fill-opacity:1;stroke-width:0.288427"
       id="ellipse16"
       cx="64.69249"
       cy="-85.546928"
       rx="1.0236363"
       ry="4.8051085"
       transform="matrix(-0.21472119,0.97667539,-0.99891759,-0.04651494,0,0)" />
    <ellipse
       style="fill:#f3ec3b;fill-opacity:1;stroke-width:0.330607"
       id="ellipse17"
       cx="33.070377"
       cy="-96.09893"
       rx="1.3223701"
       ry="4.8870573"
       transform="matrix(-0.46777662,0.88384672,-0.90757022,-0.41990033,0,0)" />
    <path
       style="fill:#2f6524;fill-opacity:1;stroke-width:0.345671"
       d="m 58.68987,87.334563 c 0.361351,-1.24923 1.167937,-1.69965 3.822728,-1.33143 2.654784,0.36823 5.014988,4.37649 5.014988,4.37649 0,0 -4.137131,1.89953 -5.432773,1.79206 -1.29564,-0.10744 -3.327051,-2.42476 -3.398066,-3.19434 -0.07107,-0.76956 -0.09815,-1.32723 -0.09815,-1.32723 z"
       id="path18"
       sodipodi:nodetypes="sscsccs" />
    <path
       style="fill:#2f6524;fill-opacity:1;stroke-width:0.344888"
       d="m 51.856899,90.302423 c 1.097429,-1.89002 4.48043,-2.65047 5.944519,-2.95119 1.40989,-0.28959 3.408785,0.91181 3.408785,0.91181 l -0.182904,0.30484 c 0,0 -2.561127,-0.66498 -4.634048,-0.11626 -1.997281,0.75131 -4.06734,1.85567 -5.024096,3.98469 z"
       id="path19"
       sodipodi:nodetypes="csccscc" />
    <path
       style="fill:#2f6524;fill-opacity:1;stroke-width:0.203857"
       d="m 53.405013,85.423773 c 0.560606,-1.68182 0.713499,-4.79063 0.560606,-6.42148 -0.152892,-1.63086 -0.968319,-4.48486 -0.968319,-4.48486 l 0.560606,-0.45867 c 0,0 0.05096,1.37603 0.203856,2.08953 0.152892,0.7135 0.611571,1.63086 0.662535,3.00688 0.05097,1.37604 0,4.07714 0,4.07714 v 0.66254 z"
       id="path32" />
    <path
       style="fill:#2f6524;fill-opacity:1;stroke-width:0.203857"
       d="m 53.166757,75.445033 c 0,0 -4.280992,-0.10193 -3.465565,-4.99449 0.815427,-4.89257 0.509642,-7.5427 0.509642,-7.5427 0,0 2.54821,3.15978 3.77135,5.09641 1.223141,1.93664 2.242425,3.46557 1.426998,4.99449 -0.815427,1.52893 -2.242425,2.44629 -2.242425,2.44629 z"
       id="path21" />
    <path
       style="fill:#2f6524;fill-opacity:1;stroke-width:0.243364"
       d="m 41.566048,76.28164 c 0,0 -3.696301,3.5314 -7.142766,-1.28353 -3.446474,-4.81494 -5.943652,-6.79142 -5.943652,-6.79142 0,0 4.818865,0.51146 7.486757,1.1111 2.667901,0.59965 4.819382,1.02772 5.423637,3.00608 0.604265,1.97837 0.176024,3.95777 0.176024,3.95777 z"
       id="path49" />
    <path
       style="fill:#2f6524;fill-opacity:1;stroke-width:0.364491"
       d="m 37.081738,91.498643 c 0.145086,-1.36354 -0.462829,-2.1247 -3.201272,-2.82324 -2.738443,-0.69852 -6.639952,2.27388 -6.639952,2.27388 0,0 3.281801,3.50314 4.589481,3.91457 1.307666,0.41146 4.214313,-1.04122 4.590337,-1.76421 0.376071,-0.72294 0.624755,-1.25657 0.624755,-1.25657 z"
       id="path74"
       sodipodi:nodetypes="sscsccs" />
    <path
       style="fill:#2f6524;fill-opacity:1;stroke-width:0.203857"
       d="m 40.103357,97.757103 c 0.101929,-1.63085 0.611571,-7.03306 0.611571,-7.03306 l 0.305785,5.80992 -0.407714,2.1405 z"
       id="path75" />
  </g>
  <g
     inkscape:groupmode="layer"
     id="layer4"
     inkscape:label="flower_red">
    <path
       style="fill:#2f6524;fill-opacity:1;stroke-width:0.320511"
       d="m 37.703605,82.915302 c 0,-3.94365 0.02992,-10.71188 1.29163,-20.08912 3.330794,-24.75494 -0.0057,-31.8135 -0.992477,-38.081752 -0.793169,-5.038357 2.184842,5.940992 2.184842,6.466792 0,0.52583 1.905901,8.10145 1.58982,17.54927 -0.323304,9.66372 -0.792876,11.99896 -1.223557,15.09015 -0.416357,2.98839 -0.366269,6.0084 -1.161178,13.23844 -0.79491,7.23002 0.426655,5.78636 0.426655,5.78636 z"
       id="path5"
       sodipodi:nodetypes="csssssscc" />
    <ellipse
       style="fill:#cc1d0e;fill-opacity:1;stroke-width:0.217517"
       id="path33"
       cx="44.153797"
       cy="-1.71856"
       rx="2.2153709"
       ry="10.480971"
       transform="matrix(0.95515112,0.29611879,-0.33048042,0.94381285,0,0)" />
    <ellipse
       style="fill:#f3e251;fill-opacity:1;stroke-width:0.264583"
       id="path34"
       cx="19.904415"
       cy="39.478859"
       rx="5.1593747"
       ry="2.1166666"
       transform="rotate(-31.29767)" />
    <ellipse
       style="fill:#cc1d0e;fill-opacity:1;stroke-width:0.217517"
       id="ellipse34"
       cx="43.66581"
       cy="-23.91667"
       rx="2.2153709"
       ry="10.480971"
       transform="matrix(0.71458968,0.69954385,-0.72493834,0.68881377,0,0)" />
    <ellipse
       style="fill:#cc1d0e;fill-opacity:1;stroke-width:0.217517"
       id="ellipse35"
       cx="42.149887"
       cy="4.7838564"
       rx="2.2153709"
       ry="10.480971"
       transform="matrix(0.71458968,0.69954385,-0.72493834,0.68881377,0,0)" />
    <ellipse
       style="fill:#cc1d0e;fill-opacity:1;stroke-width:0.206503"
       id="ellipse36"
       cx="38.511131"
       cy="10.523896"
       rx="2.2136145"
       ry="9.453968"
       transform="matrix(0.99932555,0.03672111,-0.05776951,0.99832995,0,0)" />
    <ellipse
       style="fill:#cc1d0e;fill-opacity:1;stroke-width:0.196463"
       id="ellipse37"
       cx="44.629372"
       cy="12.082451"
       rx="1.9896548"
       ry="9.5202074"
       transform="matrix(0.84970987,0.52725055,-0.53791904,0.84299651,0,0)" />
    <ellipse
       style="fill:#cc1d0e;fill-opacity:1;stroke-width:0.189536"
       id="ellipse38"
       cx="41.778999"
       cy="27.343725"
       rx="1.9860262"
       ry="8.8768635"
       transform="matrix(0.98819299,0.15321429,-0.18965412,0.98185096,0,0)" />
    <ellipse
       style="fill:#cc1d0e;fill-opacity:1;stroke-width:0.208757"
       id="ellipse39"
       cx="36.024422"
       cy="-38.777538"
       rx="2.1382103"
       ry="10.002192"
       transform="matrix(0.39271553,0.91966,-0.92917007,0.3696525,0,0)" />
    <ellipse
       style="fill:#cc1d0e;fill-opacity:1;stroke-width:0.173402"
       id="ellipse40"
       cx="35.871597"
       cy="37.982059"
       rx="1.8162565"
       ry="8.1243916"
       transform="matrix(0.98939113,-0.14527625,0.10838613,0.99410887,0,0)" />
    <ellipse
       style="fill:#cc1d0e;fill-opacity:1;stroke-width:0.208757"
       id="ellipse41"
       cx="24.971813"
       cy="-48.3321"
       rx="2.1382103"
       ry="10.002192"
       transform="matrix(0.06825748,0.99766774,-0.99905997,0.04334952,0,0)" />
    <ellipse
       style="fill:#cc1d0e;fill-opacity:1;stroke-width:0.161709"
       id="ellipse42"
       cx="18.651737"
       cy="49.751297"
       rx="1.6988823"
       ry="7.5538154"
       transform="matrix(0.81516052,-0.57923513,0.56196106,0.82716369,0,0)" />
    <ellipse
       style="fill:#cc1d0e;fill-opacity:1;stroke-width:0.18998"
       id="ellipse43"
       cx="-2.693078"
       cy="54.50407"
       rx="2.0285425"
       ry="8.731535"
       transform="matrix(0.3752224,-0.92693481,0.88682712,0.46210135,0,0)" />
    <ellipse
       style="fill:#cc1d0e;fill-opacity:1;stroke-width:0.190839"
       id="ellipse44"
       cx="33.831123"
       cy="-14.817578"
       rx="1.8899437"
       ry="9.4568443"
       transform="matrix(0.34101633,0.94005737,-0.96324886,0.26861055,0,0)" />
    <ellipse
       style="fill:#cc1d0e;fill-opacity:1;stroke-width:0.177197"
       id="ellipse45"
       cx="23.143829"
       cy="-24.564774"
       rx="1.750663"
       ry="8.8018141"
       transform="matrix(0.05012031,0.99874319,-0.99966149,-0.02601755,0,0)" />
    <ellipse
       style="fill:#cc1d0e;fill-opacity:1;stroke-width:0.188552"
       id="ellipse46"
       cx="24.817835"
       cy="27.781252"
       rx="1.9830413"
       ry="8.7982483"
       transform="matrix(0.88600392,-0.46367775,0.40187216,0.91569578,0,0)" />
    <ellipse
       style="fill:#cc1d0e;fill-opacity:1;stroke-width:0.149252"
       id="ellipse47"
       cx="7.3037004"
       cy="-33.125072"
       rx="1.5376911"
       ry="7.1093893"
       transform="matrix(-0.27572363,0.96123695,-0.91056075,-0.41337527,0,0)" />
    <ellipse
       style="fill:#cc1d0e;fill-opacity:1;stroke-width:0.165708"
       id="ellipse48"
       cx="9.9761086"
       cy="33.28389"
       rx="1.7452122"
       ry="7.7215872"
       transform="matrix(0.720312,-0.69365022,0.68742985,0.72625078,0,0)" />
    <path
       style="fill:#2f6524;fill-opacity:1;stroke-width:0.216141"
       d="m 39.988752,63.378469 c -0.423068,-1.49073 1.498866,-2.120463 -2.097215,-7.006733 -3.596084,-4.88625 -4.442221,-5.05189 -4.442221,-5.05189 0,0 2.39739,1.49073 3.243526,2.48454 0.846137,0.99381 2.749945,3.39554 3.173013,4.05808 0.423069,0.66255 0.686989,4.108103 0.686989,4.108103 z"
       id="path48"
       sodipodi:nodetypes="cccsscc" />
    <path
       style="fill:#2f6524;fill-opacity:1;stroke-width:0.264583"
       d="m 39.313852,75.649052 c 0.06615,-1.45521 5.615748,-8.6925 5.615748,-8.6925 l -1.984375,4.10104 -3.697519,6.31125 z"
       id="path50"
       sodipodi:nodetypes="ccccc" />
    <path
       style="fill:#2f6524;fill-opacity:1;stroke-width:0.264583"
       d="m 43.639756,69.122822 c -0.529167,-2.38125 0.79375,-6.61458 2.38125,-7.40833 1.5875,-0.79375 5.55625,-1.71979 4.7625,-1.25677 -0.79375,0.46302 -0.992188,3.175 -2.447396,5.55625 -1.455208,2.38125 -4.696354,3.10885 -4.696354,3.10885 z"
       id="path51" />
    <path
       style="fill:#2f6524;fill-opacity:1;stroke-width:0.224331"
       d="m 34.311028,74.447762 c 1.761405,-1.08399 3.556233,-4.3885 3.101897,-5.82314 -0.454337,-1.43463 -2.234164,-4.39634 -2.047244,-3.63997 0.18692,0.75637 -1.346122,2.47838 -1.935871,4.76984 -0.58975,2.29147 0.881218,4.69327 0.881218,4.69327 z"
       id="path76" />
  </g>
  <g
     inkscape:groupmode="layer"
     id="layer5"
     inkscape:label="flower_purple">
    <path
       style="fill:#2f6524;fill-opacity:1;stroke-width:0.264583"
       d="m 17.866969,54.302492 c 0,0 11.038229,4.53689 13.283295,11.73981 2.245064,7.20291 3.835315,16.93152 3.835315,16.93152 0,0 0.280633,0.8419 -0.280633,0.93544 -0.561266,0.0935 -0.987064,-0.68084 -1.086283,-1.24308 -0.09922,-0.56224 -0.396876,0.0992 -0.959115,-4.06796 -0.56224,-4.16719 -1.061832,-5.62717 -1.504817,-7.27605 -0.297657,-1.10794 -0.637272,-3.58363 -2.083595,-6.61458 -1.264021,-2.64892 -3.310532,-4.19361 -6.069283,-6.42693 -2.291833,-1.85533 -5.134884,-3.97817 -5.134884,-3.97817 z"
       id="path72"
       sodipodi:nodetypes="csccsssssc" />
    <ellipse
       style="fill:#f3e251;fill-opacity:1;stroke-width:0.28714"
       id="path53"
       cx="-7.3115621"
       cy="58.931049"
       rx="2.0505209"
       ry="3.5057292"
       transform="rotate(-21.801409)" />
    <ellipse
       style="fill:#c98dc0;fill-opacity:1;stroke-width:0.234329"
       id="path54"
       cx="-4.4236317"
       cy="49.367416"
       rx="1.5147347"
       ry="7.3045144"
       transform="matrix(0.94525325,-0.3263377,0.31826877,0.94800052,0,0)" />
    <ellipse
       style="fill:#c98dc0;fill-opacity:1;stroke-width:0.190336"
       id="ellipse54"
       cx="-6.813746"
       cy="66.7882"
       rx="1.2068909"
       ry="6.0485411"
       transform="matrix(0.91312247,-0.40768536,0.36384486,0.93145956,0,0)" />
    <ellipse
       style="fill:#c98dc0;fill-opacity:1;stroke-width:0.221776"
       id="ellipse55"
       cx="12.116446"
       cy="49.397366"
       rx="1.5142895"
       ry="6.544786"
       transform="matrix(0.99880519,-0.04886912,0.05136998,0.99867969,0,0)" />
    <ellipse
       style="fill:#c98dc0;fill-opacity:1;stroke-width:0.186787"
       id="ellipse56"
       cx="28.483295"
       cy="42.832142"
       rx="1.2152598"
       ry="5.7849455"
       transform="matrix(0.95523331,0.29585356,-0.23784556,0.97130299,0,0)" />
    <ellipse
       style="fill:#c98dc0;fill-opacity:1;stroke-width:0.155328"
       id="ellipse57"
       cx="40.15617"
       cy="35.020504"
       rx="1.0057826"
       ry="4.8335595"
       transform="matrix(0.85549762,0.51780674,-0.45184965,0.89209411,0,0)" />
    <ellipse
       style="fill:#c98dc0;fill-opacity:1;stroke-width:0.149196"
       id="ellipse58"
       cx="54.396282"
       cy="7.0043907"
       rx="1.0113569"
       ry="4.4348731"
       transform="matrix(0.45557658,0.8901966,-0.7006768,0.71347882,0,0)" />
    <ellipse
       style="fill:#c98dc0;fill-opacity:1;stroke-width:0.159701"
       id="ellipse59"
       cx="62.069859"
       cy="-20.076475"
       rx="1.1005644"
       ry="4.6695309"
       transform="matrix(0.0354964,0.9993698,-0.93200018,0.36245782,0,0)" />
    <ellipse
       style="fill:#c98dc0;fill-opacity:1;stroke-width:0.167398"
       id="ellipse60"
       cx="-21.203325"
       cy="60.150345"
       rx="1.0521635"
       ry="5.3665214"
       transform="matrix(0.72486037,-0.68889581,0.58212595,0.81309863,0,0)" />
    <ellipse
       style="fill:#c98dc0;fill-opacity:1;stroke-width:0.159451"
       id="ellipse61"
       cx="-40.428143"
       cy="39.411133"
       rx="1.0504549"
       ry="4.8770232"
       transform="matrix(0.29221722,-0.95635197,0.80832467,0.58873698,0,0)" />
    <ellipse
       style="fill:#c98dc0;fill-opacity:1;stroke-width:0.146056"
       id="ellipse62"
       cx="-46.741844"
       cy="37.066761"
       rx="0.91929227"
       ry="4.6758885"
       transform="matrix(0.26800059,-0.96341875,0.91023148,0.41409981,0,0)" />
    <ellipse
       style="fill:#c98dc0;fill-opacity:1;stroke-width:0.15005"
       id="ellipse63"
       cx="-55.521084"
       cy="20.271273"
       rx="1.0562067"
       ry="4.2954259"
       transform="matrix(-0.02128114,-0.99977353,0.98699064,0.16077771,0,0)" />
    <ellipse
       style="fill:#c98dc0;fill-opacity:1;stroke-width:0.17616"
       id="ellipse64"
       cx="60.492558"
       cy="-32.599644"
       rx="1.4073461"
       ry="4.4430761"
       transform="matrix(-0.18518503,0.98270367,-0.99630955,0.08583286,0,0)"
       inkscape:transform-center-x="0.23386084"
       inkscape:transform-center-y="-0.18708867" />
    <ellipse
       style="fill:#c98dc0;fill-opacity:1;stroke-width:0.221776"
       id="ellipse65"
       cx="-24.454321"
       cy="45.087208"
       rx="1.5142895"
       ry="6.544786"
       transform="matrix(0.77843275,-0.627728,0.62967524,0.77685848,0,0)" />
    <ellipse
       style="fill:#c98dc0;fill-opacity:1;stroke-width:0.221776"
       id="ellipse66"
       cx="-43.129665"
       cy="31.63776"
       rx="1.5142895"
       ry="6.544786"
       transform="matrix(0.46331109,-0.88619571,0.88735306,0.4610906,0,0)" />
    <ellipse
       style="fill:#c98dc0;fill-opacity:1;stroke-width:0.194302"
       id="ellipse67"
       cx="-53.637917"
       cy="16.961712"
       rx="1.3411386"
       ry="5.6722755"
       transform="matrix(0.16576553,-0.98616519,0.98530531,0.17080237,0,0)" />
    <ellipse
       style="fill:#c98dc0;fill-opacity:1;stroke-width:0.18649"
       id="ellipse68"
       cx="-58.504055"
       cy="5.5208116"
       rx="1.3408864"
       ry="5.2263074"
       transform="matrix(-0.04593167,-0.99894458,0.99882003,-0.0485649,0,0)" />
    <ellipse
       style="fill:#c98dc0;fill-opacity:1;stroke-width:0.176199"
       id="ellipse69"
       cx="17.364395"
       cy="65.564438"
       rx="1.2068331"
       ry="5.1836734"
       transform="matrix(0.99986768,-0.01626698,-0.03329878,0.99944544,0,0)" />
    <ellipse
       style="fill:#c98dc0;fill-opacity:1;stroke-width:0.15144"
       id="ellipse70"
       cx="39.738976"
       cy="51.599148"
       rx="1.0169526"
       ry="4.5442219"
       transform="matrix(0.89581047,0.44443628,-0.44241955,0.8968082,0,0)" />
    <ellipse
       style="fill:#c98dc0;fill-opacity:1;stroke-width:0.15144"
       id="ellipse71"
       cx="53.550575"
       cy="34.492252"
       rx="1.0169526"
       ry="4.5442219"
       transform="matrix(0.68057851,0.73267516,-0.73114198,0.68222533,0,0)" />
    <ellipse
       style="fill:#c98dc0;fill-opacity:1;stroke-width:0.18649"
       id="ellipse72"
       cx="-60.378979"
       cy="-10.980018"
       rx="1.3408864"
       ry="5.2263074"
       transform="matrix(-0.3247167,-0.94581133,0.94495203,-0.32720889,0,0)" />
    <path
       style="fill:#2f6524;fill-opacity:1;stroke-width:0.264583"
       d="m 32.824912,77.539882 c 0,0 -0.03307,-3.73724 -1.488281,-4.66328 -1.455208,-0.92604 -2.711979,-0.79375 -2.711979,-0.79375 0,0 0.8597,0.4902 1.814876,0.71107 1.665069,0.38503 2.385384,4.74596 2.385384,4.74596 z"
       id="path73"
       sodipodi:nodetypes="cscsc" />
  </g>
  <g
     inkscape:groupmode="layer"
     id="layer2"
     inkscape:label="pot">
    <path
       id="rect1"
       style="fill:#634525;fill-opacity:1;stroke-width:0.12869"
       d="M 25.096925,81.373812 H 55.56682 L 50.375141,106.17897 H 31.067356 Z"
       sodipodi:nodetypes="ccccc" />
    <path
       id="rect2"
       style="fill:#8b6134;fill-opacity:1;stroke-width:0.12869"
       d="m 25.372254,85.529192 h 30.079843 l -0.803047,3.67107 H 26.290022 Z"
       sodipodi:nodetypes="ccccc" />
  </g>
</svg>
