<svg xmlns="http://www.w3.org/2000/svg" width="310" height="405" viewBox="0 0 82.021 107.156"><g transform="translate(-18.1 -45.964)scale(1.29789)"><path d="M47.831 100.185c1.334-.534.586-10.128 12.237-27.002l5.804-8.406s-3.002 6.004-5.003 9.206-5.995 9.655-8.315 15.734c-2.312 6.054-2.989 11.002-2.989 11.002z" style="fill:#2f6524;fill-opacity:1;stroke-width:.264583"/><ellipse cx="1.438" cy="92.741" rx="1.604" ry="2.689" style="fill:#f9ca82;fill-opacity:1;stroke-width:.340087" transform="rotate(-43.789)"/><ellipse cx="30.885" cy="81.756" rx="1.18" ry="6.025" style="fill:#f3ec3b;fill-opacity:1;stroke-width:.346764" transform="matrix(.86795 -.49665 .4222 .9065 0 0)"/><ellipse cx="12.7" cy="101.432" rx="1.184" ry="5.813" style="fill:#f3ec3b;fill-opacity:1;stroke-width:.34124" transform="matrix(.71436 -.69978 .60044 .79967 0 0)"/><ellipse cx="49.401" cy="93.137" rx="1.073" ry="5.284" style="fill:#f3ec3b;fill-opacity:1;stroke-width:.309744" transform="matrix(.93067 -.36586 .22285 .97485 0 0)"/><ellipse cx="84.784" cy="59.482" rx="1.073" ry="5.284" style="fill:#f3ec3b;fill-opacity:1;stroke-width:.309744" transform="matrix(.98125 .19275 -.33705 .94149 0 0)"/><ellipse cx="93.477" cy="13.457" rx=".922" ry="4.541" style="fill:#f3ec3b;fill-opacity:1;stroke-width:.266083" transform="matrix(.7601 .64981 -.74265 .66968 0 0)"/><ellipse cx="-2.899" cy="84.689" rx="1.18" ry="6.025" style="fill:#f3ec3b;fill-opacity:1;stroke-width:.346764" transform="matrix(.63238 -.77466 .71896 .69505 0 0)"/><ellipse cx="-53.132" cy="64.25" rx=".982" ry="5.457" style="fill:#f3ec3b;fill-opacity:1;stroke-width:.301095" transform="matrix(.08894 -.99604 .98283 .18453 0 0)"/><ellipse cx="-76.166" cy="39.003" rx=".787" ry="4.638" style="fill:#f3ec3b;fill-opacity:1;stroke-width:.248439" transform="matrix(-.27793 -.9606 .98762 -.15688 0 0)"/><ellipse cx="58.83" cy="70.189" rx="1.047" ry="5.736" style="fill:#f3ec3b;fill-opacity:1;stroke-width:.318781" transform="matrix(.9804 -.19703 .09353 .99562 0 0)"/><ellipse cx="83.131" cy="42.447" rx="1.047" ry="5.736" style="fill:#f3ec3b;fill-opacity:1;stroke-width:.318781" transform="matrix(.97396 .2267 -.32722 .94495 0 0)"/><ellipse cx="92.455" cy="12.645" rx=".912" ry="4.99" style="fill:#f3ec3b;fill-opacity:1;stroke-width:.277443" transform="matrix(.83328 .55286 -.63893 .76926 0 0)"/><ellipse cx="90.089" cy="-30.335" rx=".879" ry="4.55" style="fill:#f3ec3b;fill-opacity:1;stroke-width:.260055" transform="matrix(.48944 .87203 -.85662 .51594 0 0)"/><ellipse cx="75.964" cy="-70.979" rx="1.019" ry="4.306" style="fill:#f3ec3b;fill-opacity:1;stroke-width:.27241" transform="matrix(.00973 .99995 -.98843 .15167 0 0)"/><ellipse cx="64.692" cy="-85.547" rx="1.024" ry="4.805" style="fill:#f3ec3b;fill-opacity:1;stroke-width:.288427" transform="matrix(-.21472 .97668 -.99892 -.04651 0 0)"/><ellipse cx="33.07" cy="-96.099" rx="1.322" ry="4.887" style="fill:#f3ec3b;fill-opacity:1;stroke-width:.330607" transform="matrix(-.46778 .88385 -.90757 -.4199 0 0)"/><path d="M58.69 87.335c.361-1.25 1.168-1.7 3.823-1.332 2.654.368 5.015 4.377 5.015 4.377s-4.138 1.9-5.433 1.792c-1.296-.108-3.327-2.425-3.398-3.195s-.098-1.327-.098-1.327z" style="fill:#2f6524;fill-opacity:1;stroke-width:.345671"/><path d="M51.857 90.302c1.097-1.89 4.48-2.65 5.944-2.95 1.41-.29 3.41.911 3.41.911l-.184.305s-2.56-.665-4.634-.116c-1.997.75-4.067 1.855-5.024 3.984z" style="fill:#2f6524;fill-opacity:1;stroke-width:.344888"/><path d="M53.405 85.424c.56-1.682.714-4.79.56-6.422-.152-1.63-.968-4.485-.968-4.485l.56-.458s.052 1.376.205 2.09c.153.713.611 1.63.662 3.006s0 4.077 0 4.077v.663z" style="fill:#2f6524;fill-opacity:1;stroke-width:.203857"/><path d="M53.167 75.445s-4.281-.102-3.466-4.994c.816-4.893.51-7.543.51-7.543s2.548 3.16 3.771 5.096c1.223 1.937 2.243 3.466 1.427 4.995s-2.242 2.446-2.242 2.446" style="fill:#2f6524;fill-opacity:1;stroke-width:.203857"/><path d="M41.566 76.282s-3.696 3.531-7.143-1.284-5.943-6.791-5.943-6.791 4.818.511 7.486 1.11 4.82 1.029 5.424 3.007.176 3.958.176 3.958" style="fill:#2f6524;fill-opacity:1;stroke-width:.243364"/><path d="M37.082 91.499c.145-1.364-.463-2.125-3.202-2.824s-6.64 2.274-6.64 2.274 3.282 3.503 4.59 3.915 4.214-1.041 4.59-1.764.625-1.257.625-1.257z" style="fill:#2f6524;fill-opacity:1;stroke-width:.364491"/><path d="M40.103 97.757c.102-1.63.612-7.033.612-7.033l.306 5.81-.408 2.14z" style="fill:#2f6524;fill-opacity:1;stroke-width:.203857"/></g><path d="M37.704 82.915c0-3.943.03-10.712 1.291-20.089 3.331-24.755-.005-31.813-.992-38.082-.793-5.038 2.185 5.941 2.185 6.467s1.906 8.102 1.59 17.55c-.324 9.663-.793 11.998-1.224 15.09-.416 2.988-.366 6.008-1.161 13.238s.426 5.786.426 5.786z" style="fill:#2f6524;fill-opacity:1;stroke-width:.320511"/><ellipse cx="44.154" cy="-1.719" rx="2.215" ry="10.481" style="fill:#cc1d0e;fill-opacity:1;stroke-width:.217517" transform="matrix(.95515 .29612 -.33048 .94381 0 0)"/><ellipse cx="19.904" cy="39.479" rx="5.159" ry="2.117" style="fill:#f3e251;fill-opacity:1;stroke-width:.264583" transform="rotate(-31.298)"/><ellipse cx="43.666" cy="-23.917" rx="2.215" ry="10.481" style="fill:#cc1d0e;fill-opacity:1;stroke-width:.217517" transform="matrix(.71459 .69954 -.72494 .68881 0 0)"/><ellipse cx="42.15" cy="4.784" rx="2.215" ry="10.481" style="fill:#cc1d0e;fill-opacity:1;stroke-width:.217517" transform="matrix(.71459 .69954 -.72494 .68881 0 0)"/><ellipse cx="38.511" cy="10.524" rx="2.214" ry="9.454" style="fill:#cc1d0e;fill-opacity:1;stroke-width:.206503" transform="matrix(.99933 .03672 -.05777 .99833 0 0)"/><ellipse cx="44.629" cy="12.082" rx="1.99" ry="9.52" style="fill:#cc1d0e;fill-opacity:1;stroke-width:.196463" transform="matrix(.84971 .52725 -.53792 .843 0 0)"/><ellipse cx="41.779" cy="27.344" rx="1.986" ry="8.877" style="fill:#cc1d0e;fill-opacity:1;stroke-width:.189536" transform="matrix(.9882 .15321 -.18965 .98185 0 0)"/><ellipse cx="36.024" cy="-38.778" rx="2.138" ry="10.002" style="fill:#cc1d0e;fill-opacity:1;stroke-width:.208757" transform="matrix(.39272 .91966 -.92917 .36965 0 0)"/><ellipse cx="35.872" cy="37.982" rx="1.816" ry="8.124" style="fill:#cc1d0e;fill-opacity:1;stroke-width:.173402" transform="matrix(.9894 -.14528 .10839 .9941 0 0)"/><ellipse cx="24.972" cy="-48.332" rx="2.138" ry="10.002" style="fill:#cc1d0e;fill-opacity:1;stroke-width:.208757" transform="matrix(.06826 .99767 -.99906 .04335 0 0)"/><ellipse cx="18.652" cy="49.751" rx="1.699" ry="7.554" style="fill:#cc1d0e;fill-opacity:1;stroke-width:.161709" transform="matrix(.81516 -.57924 .56196 .82716 0 0)"/><ellipse cx="-2.693" cy="54.504" rx="2.029" ry="8.732" style="fill:#cc1d0e;fill-opacity:1;stroke-width:.18998" transform="matrix(.37522 -.92693 .88683 .4621 0 0)"/><ellipse cx="33.831" cy="-14.818" rx="1.89" ry="9.457" style="fill:#cc1d0e;fill-opacity:1;stroke-width:.190839" transform="matrix(.34102 .94006 -.96325 .26861 0 0)"/><ellipse cx="23.144" cy="-24.565" rx="1.751" ry="8.802" style="fill:#cc1d0e;fill-opacity:1;stroke-width:.177197" transform="matrix(.05012 .99874 -.99966 -.02602 0 0)"/><ellipse cx="24.818" cy="27.781" rx="1.983" ry="8.798" style="fill:#cc1d0e;fill-opacity:1;stroke-width:.188552" transform="matrix(.886 -.46368 .40187 .9157 0 0)"/><ellipse cx="7.304" cy="-33.125" rx="1.538" ry="7.109" style="fill:#cc1d0e;fill-opacity:1;stroke-width:.149252" transform="matrix(-.27572 .96124 -.91056 -.41338 0 0)"/><ellipse cx="9.976" cy="33.284" rx="1.745" ry="7.722" style="fill:#cc1d0e;fill-opacity:1;stroke-width:.165708" transform="matrix(.72031 -.69365 .68743 .72625 0 0)"/><path d="M39.989 63.378c-.423-1.49 1.499-2.12-2.097-7.006s-4.443-5.052-4.443-5.052 2.398 1.49 3.244 2.484 2.75 3.396 3.173 4.058c.423.663.687 4.109.687 4.109z" style="fill:#2f6524;fill-opacity:1;stroke-width:.216141"/><path d="M39.314 75.65c.066-1.456 5.616-8.693 5.616-8.693l-1.985 4.1-3.697 6.312z" style="fill:#2f6524;fill-opacity:1;stroke-width:.264583"/><path d="M43.64 69.123c-.53-2.381.794-6.615 2.381-7.409 1.588-.793 5.556-1.72 4.763-1.256s-.993 3.175-2.448 5.556-4.696 3.109-4.696 3.109" style="fill:#2f6524;fill-opacity:1;stroke-width:.264583"/><path d="M34.311 74.448c1.761-1.084 3.556-4.389 3.102-5.823s-2.234-4.397-2.047-3.64c.187.756-1.346 2.478-1.936 4.77s.881 4.693.881 4.693" style="fill:#2f6524;fill-opacity:1;stroke-width:.224331"/><path d="M17.867 54.302s11.038 4.537 13.283 11.74 3.836 16.932 3.836 16.932.28.842-.281.935-.987-.68-1.086-1.243c-.1-.562-.397.1-.96-4.068s-1.061-5.627-1.504-7.276c-.298-1.108-.638-3.583-2.084-6.614-1.264-2.65-3.31-4.194-6.07-6.427-2.291-1.856-5.134-3.979-5.134-3.979" style="fill:#2f6524;fill-opacity:1;stroke-width:.264583"/><ellipse cx="-7.312" cy="58.931" rx="2.051" ry="3.506" style="fill:#f3e251;fill-opacity:1;stroke-width:.28714" transform="rotate(-21.801)"/><ellipse cx="-4.424" cy="49.367" rx="1.515" ry="7.305" style="fill:#c98dc0;fill-opacity:1;stroke-width:.234329" transform="matrix(.94525 -.32634 .31827 .948 0 0)"/><ellipse cx="-6.814" cy="66.788" rx="1.207" ry="6.049" style="fill:#c98dc0;fill-opacity:1;stroke-width:.190336" transform="matrix(.91312 -.40769 .36384 .93146 0 0)"/><ellipse cx="12.116" cy="49.397" rx="1.514" ry="6.545" style="fill:#c98dc0;fill-opacity:1;stroke-width:.221776" transform="rotate(-2.801)skewX(.143)"/><ellipse cx="28.483" cy="42.832" rx="1.215" ry="5.785" style="fill:#c98dc0;fill-opacity:1;stroke-width:.186787" transform="matrix(.95523 .29585 -.23785 .9713 0 0)"/><ellipse cx="40.156" cy="35.021" rx="1.006" ry="4.834" style="fill:#c98dc0;fill-opacity:1;stroke-width:.155328" transform="matrix(.8555 .5178 -.45185 .8921 0 0)"/><ellipse cx="54.396" cy="7.004" rx="1.011" ry="4.435" style="fill:#c98dc0;fill-opacity:1;stroke-width:.149196" transform="matrix(.45558 .8902 -.70068 .71348 0 0)"/><ellipse cx="62.07" cy="-20.076" rx="1.101" ry="4.67" style="fill:#c98dc0;fill-opacity:1;stroke-width:.159701" transform="matrix(.0355 .99937 -.932 .36246 0 0)"/><ellipse cx="-21.203" cy="60.15" rx="1.052" ry="5.367" style="fill:#c98dc0;fill-opacity:1;stroke-width:.167398" transform="matrix(.72486 -.6889 .58213 .8131 0 0)"/><ellipse cx="-40.428" cy="39.411" rx="1.05" ry="4.877" style="fill:#c98dc0;fill-opacity:1;stroke-width:.159451" transform="matrix(.29222 -.95635 .80832 .58874 0 0)"/><ellipse cx="-46.742" cy="37.067" rx=".919" ry="4.676" style="fill:#c98dc0;fill-opacity:1;stroke-width:.146056" transform="matrix(.268 -.96342 .91023 .4141 0 0)"/><ellipse cx="-55.521" cy="20.271" rx="1.056" ry="4.295" style="fill:#c98dc0;fill-opacity:1;stroke-width:.15005" transform="matrix(-.02128 -.99977 .987 .16078 0 0)"/><ellipse cx="60.493" cy="-32.6" rx="1.407" ry="4.443" style="fill:#c98dc0;fill-opacity:1;stroke-width:.17616" transform="matrix(-.18519 .9827 -.99631 .08583 0 0)"/><ellipse cx="-24.454" cy="45.087" rx="1.514" ry="6.545" style="fill:#c98dc0;fill-opacity:1;stroke-width:.221776" transform="rotate(-38.883)skewX(.143)"/><ellipse cx="-43.13" cy="31.638" rx="1.514" ry="6.545" style="fill:#c98dc0;fill-opacity:1;stroke-width:.221776" transform="rotate(-62.399)skewX(.143)"/><ellipse cx="-53.638" cy="16.962" rx="1.341" ry="5.672" style="fill:#c98dc0;fill-opacity:1;stroke-width:.194302" transform="matrix(.16577 -.98617 .9853 .1708 0 0)"/><ellipse cx="-58.504" cy="5.521" rx="1.341" ry="5.226" style="fill:#c98dc0;fill-opacity:1;stroke-width:.18649" transform="rotate(-92.633)skewX(.151)"/><ellipse cx="17.364" cy="65.564" rx="1.207" ry="5.184" style="fill:#c98dc0;fill-opacity:1;stroke-width:.176199" transform="matrix(.99987 -.01627 -.0333 .99945 0 0)"/><ellipse cx="39.739" cy="51.599" rx="1.017" ry="4.544" style="fill:#c98dc0;fill-opacity:1;stroke-width:.15144" transform="rotate(26.387)skewX(.129)"/><ellipse cx="53.551" cy="34.492" rx="1.017" ry="4.544" style="fill:#c98dc0;fill-opacity:1;stroke-width:.15144" transform="rotate(47.111)skewX(.129)"/><ellipse cx="-60.379" cy="-10.98" rx="1.341" ry="5.226" style="fill:#c98dc0;fill-opacity:1;stroke-width:.18649" transform="rotate(-108.948)skewX(.151)"/><path d="M32.825 77.54s-.033-3.737-1.488-4.663-2.712-.794-2.712-.794.86.49 1.815.71c1.665.386 2.385 4.747 2.385 4.747" style="fill:#2f6524;fill-opacity:1;stroke-width:.264583"/><path d="M25.097 81.374h30.47l-5.192 24.805H31.067Z" style="fill:#634525;fill-opacity:1;stroke-width:.12869"/><path d="M25.372 85.53h30.08l-.803 3.67H26.29Z" style="fill:#8b6134;fill-opacity:1;stroke-width:.12869"/></svg>