<?xml version="1.0" encoding="UTF-8" standalone="no"?>
<!-- Created with Inkscape (http://www.inkscape.org/) -->

<svg
   width="282"
   height="333"
   viewBox="0 0 74.612502 88.106306"
   version="1.1"
   id="svg1"
   inkscape:version="1.4 (86a8ad7, 2024-10-11)"
   sodipodi:docname="flowers-on-shelf-1.svg"
   xmlns:inkscape="http://www.inkscape.org/namespaces/inkscape"
   xmlns:sodipodi="http://sodipodi.sourceforge.net/DTD/sodipodi-0.dtd"
   xmlns="http://www.w3.org/2000/svg"
   xmlns:svg="http://www.w3.org/2000/svg">
  <sodipodi:namedview
     id="namedview1"
     pagecolor="#ffffff"
     bordercolor="#000000"
     borderopacity="0.25"
     inkscape:showpageshadow="2"
     inkscape:pageopacity="0.0"
     inkscape:pagecheckerboard="0"
     inkscape:deskcolor="#d1d1d1"
     inkscape:document-units="mm"
     inkscape:zoom="1"
     inkscape:cx="152.5"
     inkscape:cy="215.5"
     inkscape:window-width="1920"
     inkscape:window-height="1001"
     inkscape:window-x="-9"
     inkscape:window-y="-9"
     inkscape:window-maximized="1"
     inkscape:current-layer="layer6"
     showgrid="false" />
  <defs
     id="defs1" />
  <g
     inkscape:label="Layer 1"
     inkscape:groupmode="layer"
     id="layer1" />
  <g
     inkscape:groupmode="layer"
     id="layer7"
     inkscape:label="flower_">
    <path
       style="fill:#247521;fill-opacity:1;stroke:none;stroke-width:0.51097;stroke-opacity:1"
       d="m 41.962999,63.604708 c 2.148844,-17.860972 0,-17.49646 5.193041,-29.343024 5.19304,-11.846561 8.237229,-13.851367 8.237229,-13.851367 0,0 -7.700018,14.398132 -8.953513,19.501264 -1.253491,5.103138 -2.686054,16.585189 -2.686054,16.585189 l -0.179062,7.472448 z"
       id="path55" />
    <ellipse
       style="display:inline;fill:#f9ca82;fill-opacity:1;stroke-width:0.512635"
       id="path3-8"
       cx="37.726673"
       cy="46.847897"
       rx="2.4062202"
       ry="4.0722752"
       transform="matrix(0.87283716,-0.48801157,0.4749729,0.88000042,0,0)" />
    <ellipse
       style="display:inline;fill:#f3ec3b;fill-opacity:1;stroke-width:0.522839"
       id="path4-8"
       cx="49.960621"
       cy="24.03591"
       rx="1.7650697"
       ry="9.1568823"
       transform="matrix(0.96582499,-0.25919506,0.17012863,0.98542186,0,0)" />
    <ellipse
       style="display:inline;fill:#f3ec3b;fill-opacity:1;stroke-width:0.514831"
       id="ellipse4-2"
       cx="43.462231"
       cy="59.694771"
       rx="1.7770208"
       ry="8.8187885"
       transform="matrix(0.86745095,-0.49752271,0.36726327,0.93011703,0,0)" />
    <ellipse
       style="display:inline;fill:#f3ec3b;fill-opacity:1;stroke-width:0.466918"
       id="ellipse5-4"
       cx="56.57793"
       cy="39.84819"
       rx="1.6041367"
       ry="8.0354881"
       transform="matrix(0.99343808,-0.11437122,-0.03652826,0.99933262,0,0)" />
    <ellipse
       style="display:inline;fill:#f3ec3b;fill-opacity:1;stroke-width:0.466362"
       id="ellipse6-5"
       cx="59.301273"
       cy="5.9326177"
       rx="1.6093408"
       ry="7.9904385"
       transform="matrix(0.89476732,0.4465327,-0.56255933,0.82675692,0,0)" />
    <ellipse
       style="display:inline;fill:#f3ec3b;fill-opacity:1;stroke-width:0.400684"
       id="ellipse7-5"
       cx="46.038368"
       cy="-24.756363"
       rx="1.3940407"
       ry="6.8092861"
       transform="matrix(0.55913385,0.8290774,-0.88744322,0.46091705,0,0)" />
    <ellipse
       style="display:inline;fill:#f3ec3b;fill-opacity:1;stroke-width:0.523058"
       id="ellipse8-1"
       cx="34.927895"
       cy="39.379791"
       rx="1.7737882"
       ry="9.1195402"
       transform="matrix(0.80646849,-0.59127707,0.50781379,0.86146686,0,0)" />
    <ellipse
       style="display:inline;fill:#f3ec3b;fill-opacity:1;stroke-width:0.454129"
       id="ellipse9-7"
       cx="3.5957789"
       cy="49.653835"
       rx="1.4904901"
       ry="8.1809101"
       transform="matrix(0.33850519,-0.94096453,0.89851278,0.43894736,0,0)" />
    <ellipse
       style="display:inline;fill:#f3ec3b;fill-opacity:1;stroke-width:0.374502"
       id="ellipse10-1"
       cx="-17.292953"
       cy="46.7118"
       rx="1.1963971"
       ry="6.9311733"
       transform="matrix(-0.01937146,-0.99981236,0.99436311,0.1060283,0,0)" />
    <ellipse
       style="display:inline;fill:#f3ec3b;fill-opacity:1;stroke-width:0.480392"
       id="ellipse11-1"
       cx="58.100971"
       cy="7.5198994"
       rx="1.5650749"
       ry="8.7183142"
       transform="matrix(0.99790657,0.06467213,-0.16461507,0.98635789,0,0)" />
    <ellipse
       style="display:inline;fill:#f3ec3b;fill-opacity:1;stroke-width:0.480129"
       id="ellipse12-5"
       cx="58.013016"
       cy="-17.343235"
       rx="1.5711825"
       ry="8.6749182"
       transform="matrix(0.87854986,0.47765065,-0.55396917,0.83253718,0,0)" />
    <ellipse
       style="display:inline;fill:#f3ec3b;fill-opacity:1;stroke-width:0.417831"
       id="ellipse13-2"
       cx="50.38401"
       cy="-36.423935"
       rx="1.3762419"
       ry="7.5003195"
       transform="matrix(0.65512596,0.75551967,-0.81149017,0.58436608,0,0)" />
    <ellipse
       style="display:inline;fill:#f3ec3b;fill-opacity:1;stroke-width:0.392037"
       id="ellipse14-7"
       cx="37.28455"
       cy="-56.603672"
       rx="1.3350626"
       ry="6.8065777"
       transform="matrix(0.24289209,0.97005331,-0.95968874,0.28106497,0,0)" />
    <ellipse
       style="display:inline;fill:#f3ec3b;fill-opacity:1;stroke-width:0.410421"
       id="ellipse15-6"
       cx="16.853157"
       cy="-68.234207"
       rx="1.547792"
       ry="6.4346123"
       transform="matrix(-0.24543561,0.9694129,-0.99377985,-0.11136256,0,0)" />
    <ellipse
       style="display:inline;fill:#f3ec3b;fill-opacity:1;stroke-width:0.434297"
       id="ellipse16-1"
       cx="6.1409202"
       cy="-70.079842"
       rx="1.5508417"
       ry="7.1909466"
       transform="matrix(-0.45392121,0.89104182,-0.95123272,-0.30847416,0,0)" />
    <ellipse
       style="display:inline;fill:#f3ec3b;fill-opacity:1;stroke-width:0.498122"
       id="ellipse17-4"
       cx="-17.505535"
       cy="-67.429512"
       rx="1.9946231"
       ry="7.3550801"
       transform="matrix(-0.67422215,0.7385286,-0.76229749,-0.64722681,0,0)" />
  </g>
  <g
     inkscape:groupmode="layer"
     id="layer3"
     inkscape:label="flower_yellow"
     transform="matrix(1.2978883,0,0,1.2978883,-18.100286,-45.96448)"
     style="display:none">
    <path
       style="fill:#2f6524;fill-opacity:1;stroke-width:0.264583"
       d="m 47.830972,100.18518 c 1.334249,-0.533697 0.586093,-10.128297 12.237299,-27.002447 l 5.803982,-8.40576 c 0,0 -3.00206,6.00411 -5.003432,9.20631 -2.001372,3.2022 -5.994992,9.65475 -8.315236,15.73341 -2.311117,6.05475 -2.98809,11.002187 -2.98809,11.002187 z"
       id="path2"
       sodipodi:nodetypes="cscsscc" />
    <ellipse
       style="fill:#f9ca82;fill-opacity:1;stroke-width:0.340087"
       id="path3"
       cx="1.4379181"
       cy="92.741081"
       rx="1.6038754"
       ry="2.6888502"
       transform="rotate(-43.788745)" />
    <ellipse
       style="fill:#f3ec3b;fill-opacity:1;stroke-width:0.346764"
       id="path4"
       cx="30.884687"
       cy="81.756081"
       rx="1.1800219"
       ry="6.0249257"
       transform="matrix(0.86795296,-0.49664641,0.42219133,0.90650675,0,0)" />
    <ellipse
       style="fill:#f3ec3b;fill-opacity:1;stroke-width:0.34124"
       id="ellipse4"
       cx="12.700054"
       cy="101.4318"
       rx="1.1842862"
       ry="5.8134785"
       transform="matrix(0.71435923,-0.69977917,0.60043616,0.79967269,0,0)" />
    <ellipse
       style="fill:#f3ec3b;fill-opacity:1;stroke-width:0.309744"
       id="ellipse5"
       cx="49.400795"
       cy="93.13694"
       rx="1.0734383"
       ry="5.2844687"
       transform="matrix(0.93066959,-0.36586079,0.22284871,0.97485304,0,0)" />
    <ellipse
       style="fill:#f3ec3b;fill-opacity:1;stroke-width:0.309744"
       id="ellipse6"
       cx="84.784447"
       cy="59.482277"
       rx="1.0734383"
       ry="5.2844687"
       transform="matrix(0.9812487,0.19274593,-0.33704986,0.9414868,0,0)" />
    <ellipse
       style="fill:#f3ec3b;fill-opacity:1;stroke-width:0.266083"
       id="ellipse7"
       cx="93.476776"
       cy="13.456614"
       rx="0.9218846"
       ry="4.5407939"
       transform="matrix(0.7600955,0.64981139,-0.74265104,0.66967861,0,0)" />
    <ellipse
       style="fill:#f3ec3b;fill-opacity:1;stroke-width:0.346764"
       id="ellipse8"
       cx="-2.8990755"
       cy="84.688881"
       rx="1.1800219"
       ry="6.0249257"
       transform="matrix(0.63237601,-0.77466159,0.71896384,0.69504748,0,0)" />
    <ellipse
       style="fill:#f3ec3b;fill-opacity:1;stroke-width:0.301095"
       id="ellipse9"
       cx="-53.132412"
       cy="64.250214"
       rx="0.98219746"
       ry="5.4573469"
       transform="matrix(0.08894182,-0.99603682,0.98282735,0.1845275,0,0)" />
    <ellipse
       style="fill:#f3ec3b;fill-opacity:1;stroke-width:0.248439"
       id="ellipse10"
       cx="-76.165802"
       cy="39.002949"
       rx="0.78678656"
       ry="4.6382728"
       transform="matrix(-0.2779298,-0.96060139,0.98761688,-0.156885,0,0)" />
    <ellipse
       style="fill:#f3ec3b;fill-opacity:1;stroke-width:0.318781"
       id="ellipse11"
       cx="58.830261"
       cy="70.189262"
       rx="1.0474608"
       ry="5.7361727"
       transform="matrix(0.98039666,-0.19703399,0.09353046,0.99561642,0,0)" />
    <ellipse
       style="fill:#f3ec3b;fill-opacity:1;stroke-width:0.318781"
       id="ellipse12"
       cx="83.131279"
       cy="42.447483"
       rx="1.0474608"
       ry="5.7361727"
       transform="matrix(0.97396288,0.22670753,-0.32722006,0.94494816,0,0)" />
    <ellipse
       style="fill:#f3ec3b;fill-opacity:1;stroke-width:0.277443"
       id="ellipse13"
       cx="92.455429"
       cy="12.64465"
       rx="0.91199452"
       ry="4.9903374"
       transform="matrix(0.83327534,0.55285821,-0.63893404,0.76926153,0,0)" />
    <ellipse
       style="fill:#f3ec3b;fill-opacity:1;stroke-width:0.260055"
       id="ellipse14"
       cx="90.089134"
       cy="-30.334768"
       rx="0.87890011"
       ry="4.5495443"
       transform="matrix(0.48944489,0.87203423,-0.85662436,0.5159406,0,0)" />
    <ellipse
       style="fill:#f3ec3b;fill-opacity:1;stroke-width:0.27241"
       id="ellipse15"
       cx="75.963959"
       cy="-70.978783"
       rx="1.018967"
       ry="4.3058929"
       transform="matrix(0.00972538,0.99995271,-0.98843062,0.15167369,0,0)" />
    <ellipse
       style="fill:#f3ec3b;fill-opacity:1;stroke-width:0.288427"
       id="ellipse16"
       cx="64.69249"
       cy="-85.546928"
       rx="1.0236363"
       ry="4.8051085"
       transform="matrix(-0.21472119,0.97667539,-0.99891759,-0.04651494,0,0)" />
    <ellipse
       style="fill:#f3ec3b;fill-opacity:1;stroke-width:0.330607"
       id="ellipse17"
       cx="33.070377"
       cy="-96.09893"
       rx="1.3223701"
       ry="4.8870573"
       transform="matrix(-0.46777662,0.88384672,-0.90757022,-0.41990033,0,0)" />
    <path
       style="fill:#2f6524;fill-opacity:1;stroke-width:0.345671"
       d="m 58.68987,87.334563 c 0.361351,-1.24923 1.167937,-1.69965 3.822728,-1.33143 2.654784,0.36823 5.014988,4.37649 5.014988,4.37649 0,0 -4.137131,1.89953 -5.432773,1.79206 -1.29564,-0.10744 -3.327051,-2.42476 -3.398066,-3.19434 -0.07107,-0.76956 -0.09815,-1.32723 -0.09815,-1.32723 z"
       id="path18"
       sodipodi:nodetypes="sscsccs" />
    <path
       style="fill:#2f6524;fill-opacity:1;stroke-width:0.344888"
       d="m 51.856899,90.302423 c 1.097429,-1.89002 4.48043,-2.65047 5.944519,-2.95119 1.40989,-0.28959 3.408785,0.91181 3.408785,0.91181 l -0.182904,0.30484 c 0,0 -2.561127,-0.66498 -4.634048,-0.11626 -1.997281,0.75131 -4.06734,1.85567 -5.024096,3.98469 z"
       id="path19"
       sodipodi:nodetypes="csccscc" />
    <path
       style="fill:#2f6524;fill-opacity:1;stroke-width:0.203857"
       d="m 53.405013,85.423773 c 0.560606,-1.68182 0.713499,-4.79063 0.560606,-6.42148 -0.152892,-1.63086 -0.968319,-4.48486 -0.968319,-4.48486 l 0.560606,-0.45867 c 0,0 0.05096,1.37603 0.203856,2.08953 0.152892,0.7135 0.611571,1.63086 0.662535,3.00688 0.05097,1.37604 0,4.07714 0,4.07714 v 0.66254 z"
       id="path32" />
    <path
       style="fill:#2f6524;fill-opacity:1;stroke-width:0.203857"
       d="m 53.166757,75.445033 c 0,0 -4.280992,-0.10193 -3.465565,-4.99449 0.815427,-4.89257 0.509642,-7.5427 0.509642,-7.5427 0,0 2.54821,3.15978 3.77135,5.09641 1.223141,1.93664 2.242425,3.46557 1.426998,4.99449 -0.815427,1.52893 -2.242425,2.44629 -2.242425,2.44629 z"
       id="path21" />
    <path
       style="fill:#2f6524;fill-opacity:1;stroke-width:0.243364"
       d="m 41.566048,76.28164 c 0,0 -3.696301,3.5314 -7.142766,-1.28353 -3.446474,-4.81494 -5.943652,-6.79142 -5.943652,-6.79142 0,0 4.818865,0.51146 7.486757,1.1111 2.667901,0.59965 4.819382,1.02772 5.423637,3.00608 0.604265,1.97837 0.176024,3.95777 0.176024,3.95777 z"
       id="path49" />
    <path
       style="fill:#2f6524;fill-opacity:1;stroke-width:0.364491"
       d="m 37.081738,91.498643 c 0.145086,-1.36354 -0.462829,-2.1247 -3.201272,-2.82324 -2.738443,-0.69852 -6.639952,2.27388 -6.639952,2.27388 0,0 3.281801,3.50314 4.589481,3.91457 1.307666,0.41146 4.214313,-1.04122 4.590337,-1.76421 0.376071,-0.72294 0.624755,-1.25657 0.624755,-1.25657 z"
       id="path74"
       sodipodi:nodetypes="sscsccs" />
    <path
       style="fill:#2f6524;fill-opacity:1;stroke-width:0.203857"
       d="m 40.103357,97.757103 c 0.101929,-1.63085 0.611571,-7.03306 0.611571,-7.03306 l 0.305785,5.80992 -0.407714,2.1405 z"
       id="path75" />
  </g>
  <g
     inkscape:groupmode="layer"
     id="layer4"
     inkscape:label="flower_red"
     style="display:none">
    <path
       style="fill:#2f6524;fill-opacity:1;stroke-width:0.320511"
       d="m 37.703605,82.915302 c 0,-3.94365 0.02992,-10.71188 1.29163,-20.08912 3.330794,-24.75494 -0.0057,-31.8135 -0.992477,-38.081752 -0.793169,-5.038357 2.184842,5.940992 2.184842,6.466792 0,0.52583 1.905901,8.10145 1.58982,17.54927 -0.323304,9.66372 -0.792876,11.99896 -1.223557,15.09015 -0.416357,2.98839 -0.366269,6.0084 -1.161178,13.23844 -0.79491,7.23002 0.426655,5.78636 0.426655,5.78636 z"
       id="path5"
       sodipodi:nodetypes="csssssscc" />
    <ellipse
       style="fill:#cc1d0e;fill-opacity:1;stroke-width:0.217517"
       id="path33"
       cx="44.153797"
       cy="-1.71856"
       rx="2.2153709"
       ry="10.480971"
       transform="matrix(0.95515112,0.29611879,-0.33048042,0.94381285,0,0)" />
    <ellipse
       style="fill:#f3e251;fill-opacity:1;stroke-width:0.264583"
       id="path34"
       cx="19.904415"
       cy="39.478859"
       rx="5.1593747"
       ry="2.1166666"
       transform="rotate(-31.29767)" />
    <ellipse
       style="fill:#cc1d0e;fill-opacity:1;stroke-width:0.217517"
       id="ellipse34"
       cx="43.66581"
       cy="-23.91667"
       rx="2.2153709"
       ry="10.480971"
       transform="matrix(0.71458968,0.69954385,-0.72493834,0.68881377,0,0)" />
    <ellipse
       style="fill:#cc1d0e;fill-opacity:1;stroke-width:0.217517"
       id="ellipse35"
       cx="42.149887"
       cy="4.7838564"
       rx="2.2153709"
       ry="10.480971"
       transform="matrix(0.71458968,0.69954385,-0.72493834,0.68881377,0,0)" />
    <ellipse
       style="fill:#cc1d0e;fill-opacity:1;stroke-width:0.206503"
       id="ellipse36"
       cx="38.511131"
       cy="10.523896"
       rx="2.2136145"
       ry="9.453968"
       transform="matrix(0.99932555,0.03672111,-0.05776951,0.99832995,0,0)" />
    <ellipse
       style="fill:#cc1d0e;fill-opacity:1;stroke-width:0.196463"
       id="ellipse37"
       cx="44.629372"
       cy="12.082451"
       rx="1.9896548"
       ry="9.5202074"
       transform="matrix(0.84970987,0.52725055,-0.53791904,0.84299651,0,0)" />
    <ellipse
       style="fill:#cc1d0e;fill-opacity:1;stroke-width:0.189536"
       id="ellipse38"
       cx="41.778999"
       cy="27.343725"
       rx="1.9860262"
       ry="8.8768635"
       transform="matrix(0.98819299,0.15321429,-0.18965412,0.98185096,0,0)" />
    <ellipse
       style="fill:#cc1d0e;fill-opacity:1;stroke-width:0.208757"
       id="ellipse39"
       cx="36.024422"
       cy="-38.777538"
       rx="2.1382103"
       ry="10.002192"
       transform="matrix(0.39271553,0.91966,-0.92917007,0.3696525,0,0)" />
    <ellipse
       style="fill:#cc1d0e;fill-opacity:1;stroke-width:0.173402"
       id="ellipse40"
       cx="35.871597"
       cy="37.982059"
       rx="1.8162565"
       ry="8.1243916"
       transform="matrix(0.98939113,-0.14527625,0.10838613,0.99410887,0,0)" />
    <ellipse
       style="fill:#cc1d0e;fill-opacity:1;stroke-width:0.208757"
       id="ellipse41"
       cx="24.971813"
       cy="-48.3321"
       rx="2.1382103"
       ry="10.002192"
       transform="matrix(0.06825748,0.99766774,-0.99905997,0.04334952,0,0)" />
    <ellipse
       style="fill:#cc1d0e;fill-opacity:1;stroke-width:0.161709"
       id="ellipse42"
       cx="18.651737"
       cy="49.751297"
       rx="1.6988823"
       ry="7.5538154"
       transform="matrix(0.81516052,-0.57923513,0.56196106,0.82716369,0,0)" />
    <ellipse
       style="fill:#cc1d0e;fill-opacity:1;stroke-width:0.18998"
       id="ellipse43"
       cx="-2.693078"
       cy="54.50407"
       rx="2.0285425"
       ry="8.731535"
       transform="matrix(0.3752224,-0.92693481,0.88682712,0.46210135,0,0)" />
    <ellipse
       style="fill:#cc1d0e;fill-opacity:1;stroke-width:0.190839"
       id="ellipse44"
       cx="33.831123"
       cy="-14.817578"
       rx="1.8899437"
       ry="9.4568443"
       transform="matrix(0.34101633,0.94005737,-0.96324886,0.26861055,0,0)" />
    <ellipse
       style="fill:#cc1d0e;fill-opacity:1;stroke-width:0.177197"
       id="ellipse45"
       cx="23.143829"
       cy="-24.564774"
       rx="1.750663"
       ry="8.8018141"
       transform="matrix(0.05012031,0.99874319,-0.99966149,-0.02601755,0,0)" />
    <ellipse
       style="fill:#cc1d0e;fill-opacity:1;stroke-width:0.188552"
       id="ellipse46"
       cx="24.817835"
       cy="27.781252"
       rx="1.9830413"
       ry="8.7982483"
       transform="matrix(0.88600392,-0.46367775,0.40187216,0.91569578,0,0)" />
    <ellipse
       style="fill:#cc1d0e;fill-opacity:1;stroke-width:0.149252"
       id="ellipse47"
       cx="7.3037004"
       cy="-33.125072"
       rx="1.5376911"
       ry="7.1093893"
       transform="matrix(-0.27572363,0.96123695,-0.91056075,-0.41337527,0,0)" />
    <ellipse
       style="fill:#cc1d0e;fill-opacity:1;stroke-width:0.165708"
       id="ellipse48"
       cx="9.9761086"
       cy="33.28389"
       rx="1.7452122"
       ry="7.7215872"
       transform="matrix(0.720312,-0.69365022,0.68742985,0.72625078,0,0)" />
    <path
       style="fill:#2f6524;fill-opacity:1;stroke-width:0.216141"
       d="m 39.988752,63.378469 c -0.423068,-1.49073 1.498866,-2.120463 -2.097215,-7.006733 -3.596084,-4.88625 -4.442221,-5.05189 -4.442221,-5.05189 0,0 2.39739,1.49073 3.243526,2.48454 0.846137,0.99381 2.749945,3.39554 3.173013,4.05808 0.423069,0.66255 0.686989,4.108103 0.686989,4.108103 z"
       id="path48"
       sodipodi:nodetypes="cccsscc" />
    <path
       style="fill:#2f6524;fill-opacity:1;stroke-width:0.264583"
       d="m 39.313852,75.649052 c 0.06615,-1.45521 5.615748,-8.6925 5.615748,-8.6925 l -1.984375,4.10104 -3.697519,6.31125 z"
       id="path50"
       sodipodi:nodetypes="ccccc" />
    <path
       style="fill:#2f6524;fill-opacity:1;stroke-width:0.264583"
       d="m 43.639756,69.122822 c -0.529167,-2.38125 0.79375,-6.61458 2.38125,-7.40833 1.5875,-0.79375 5.55625,-1.71979 4.7625,-1.25677 -0.79375,0.46302 -0.992188,3.175 -2.447396,5.55625 -1.455208,2.38125 -4.696354,3.10885 -4.696354,3.10885 z"
       id="path51" />
    <path
       style="fill:#2f6524;fill-opacity:1;stroke-width:0.224331"
       d="m 34.311028,74.447762 c 1.761405,-1.08399 3.556233,-4.3885 3.101897,-5.82314 -0.454337,-1.43463 -2.234164,-4.39634 -2.047244,-3.63997 0.18692,0.75637 -1.346122,2.47838 -1.935871,4.76984 -0.58975,2.29147 0.881218,4.69327 0.881218,4.69327 z"
       id="path76" />
  </g>
  <g
     inkscape:groupmode="layer"
     id="layer5"
     inkscape:label="flower_purple"
     style="display:none">
    <path
       style="fill:#2f6524;fill-opacity:1;stroke-width:0.264583"
       d="m 17.866969,54.302492 c 0,0 11.038229,4.53689 13.283295,11.73981 2.245064,7.20291 3.835315,16.93152 3.835315,16.93152 0,0 0.280633,0.8419 -0.280633,0.93544 -0.561266,0.0935 -0.987064,-0.68084 -1.086283,-1.24308 -0.09922,-0.56224 -0.396876,0.0992 -0.959115,-4.06796 -0.56224,-4.16719 -1.061832,-5.62717 -1.504817,-7.27605 -0.297657,-1.10794 -0.637272,-3.58363 -2.083595,-6.61458 -1.264021,-2.64892 -3.310532,-4.19361 -6.069283,-6.42693 -2.291833,-1.85533 -5.134884,-3.97817 -5.134884,-3.97817 z"
       id="path72"
       sodipodi:nodetypes="csccsssssc" />
    <ellipse
       style="fill:#f3e251;fill-opacity:1;stroke-width:0.28714"
       id="path53"
       cx="-7.3115621"
       cy="58.931049"
       rx="2.0505209"
       ry="3.5057292"
       transform="rotate(-21.801409)" />
    <ellipse
       style="fill:#c98dc0;fill-opacity:1;stroke-width:0.234329"
       id="path54"
       cx="-4.4236317"
       cy="49.367416"
       rx="1.5147347"
       ry="7.3045144"
       transform="matrix(0.94525325,-0.3263377,0.31826877,0.94800052,0,0)" />
    <ellipse
       style="fill:#c98dc0;fill-opacity:1;stroke-width:0.190336"
       id="ellipse54"
       cx="-6.813746"
       cy="66.7882"
       rx="1.2068909"
       ry="6.0485411"
       transform="matrix(0.91312247,-0.40768536,0.36384486,0.93145956,0,0)" />
    <ellipse
       style="fill:#c98dc0;fill-opacity:1;stroke-width:0.221776"
       id="ellipse55"
       cx="12.116446"
       cy="49.397366"
       rx="1.5142895"
       ry="6.544786"
       transform="matrix(0.99880519,-0.04886912,0.05136998,0.99867969,0,0)" />
    <ellipse
       style="fill:#c98dc0;fill-opacity:1;stroke-width:0.186787"
       id="ellipse56"
       cx="28.483295"
       cy="42.832142"
       rx="1.2152598"
       ry="5.7849455"
       transform="matrix(0.95523331,0.29585356,-0.23784556,0.97130299,0,0)" />
    <ellipse
       style="fill:#c98dc0;fill-opacity:1;stroke-width:0.155328"
       id="ellipse57"
       cx="40.15617"
       cy="35.020504"
       rx="1.0057826"
       ry="4.8335595"
       transform="matrix(0.85549762,0.51780674,-0.45184965,0.89209411,0,0)" />
    <ellipse
       style="fill:#c98dc0;fill-opacity:1;stroke-width:0.149196"
       id="ellipse58"
       cx="54.396282"
       cy="7.0043907"
       rx="1.0113569"
       ry="4.4348731"
       transform="matrix(0.45557658,0.8901966,-0.7006768,0.71347882,0,0)" />
    <ellipse
       style="fill:#c98dc0;fill-opacity:1;stroke-width:0.159701"
       id="ellipse59"
       cx="62.069859"
       cy="-20.076475"
       rx="1.1005644"
       ry="4.6695309"
       transform="matrix(0.0354964,0.9993698,-0.93200018,0.36245782,0,0)" />
    <ellipse
       style="fill:#c98dc0;fill-opacity:1;stroke-width:0.167398"
       id="ellipse60"
       cx="-21.203325"
       cy="60.150345"
       rx="1.0521635"
       ry="5.3665214"
       transform="matrix(0.72486037,-0.68889581,0.58212595,0.81309863,0,0)" />
    <ellipse
       style="fill:#c98dc0;fill-opacity:1;stroke-width:0.159451"
       id="ellipse61"
       cx="-40.428143"
       cy="39.411133"
       rx="1.0504549"
       ry="4.8770232"
       transform="matrix(0.29221722,-0.95635197,0.80832467,0.58873698,0,0)" />
    <ellipse
       style="fill:#c98dc0;fill-opacity:1;stroke-width:0.146056"
       id="ellipse62"
       cx="-46.741844"
       cy="37.066761"
       rx="0.91929227"
       ry="4.6758885"
       transform="matrix(0.26800059,-0.96341875,0.91023148,0.41409981,0,0)" />
    <ellipse
       style="fill:#c98dc0;fill-opacity:1;stroke-width:0.15005"
       id="ellipse63"
       cx="-55.521084"
       cy="20.271273"
       rx="1.0562067"
       ry="4.2954259"
       transform="matrix(-0.02128114,-0.99977353,0.98699064,0.16077771,0,0)" />
    <ellipse
       style="fill:#c98dc0;fill-opacity:1;stroke-width:0.17616"
       id="ellipse64"
       cx="60.492558"
       cy="-32.599644"
       rx="1.4073461"
       ry="4.4430761"
       transform="matrix(-0.18518503,0.98270367,-0.99630955,0.08583286,0,0)"
       inkscape:transform-center-x="0.23386084"
       inkscape:transform-center-y="-0.18708867" />
    <ellipse
       style="fill:#c98dc0;fill-opacity:1;stroke-width:0.221776"
       id="ellipse65"
       cx="-24.454321"
       cy="45.087208"
       rx="1.5142895"
       ry="6.544786"
       transform="matrix(0.77843275,-0.627728,0.62967524,0.77685848,0,0)" />
    <ellipse
       style="fill:#c98dc0;fill-opacity:1;stroke-width:0.221776"
       id="ellipse66"
       cx="-43.129665"
       cy="31.63776"
       rx="1.5142895"
       ry="6.544786"
       transform="matrix(0.46331109,-0.88619571,0.88735306,0.4610906,0,0)" />
    <ellipse
       style="fill:#c98dc0;fill-opacity:1;stroke-width:0.194302"
       id="ellipse67"
       cx="-53.637917"
       cy="16.961712"
       rx="1.3411386"
       ry="5.6722755"
       transform="matrix(0.16576553,-0.98616519,0.98530531,0.17080237,0,0)" />
    <ellipse
       style="fill:#c98dc0;fill-opacity:1;stroke-width:0.18649"
       id="ellipse68"
       cx="-58.504055"
       cy="5.5208116"
       rx="1.3408864"
       ry="5.2263074"
       transform="matrix(-0.04593167,-0.99894458,0.99882003,-0.0485649,0,0)" />
    <ellipse
       style="fill:#c98dc0;fill-opacity:1;stroke-width:0.176199"
       id="ellipse69"
       cx="17.364395"
       cy="65.564438"
       rx="1.2068331"
       ry="5.1836734"
       transform="matrix(0.99986768,-0.01626698,-0.03329878,0.99944544,0,0)" />
    <ellipse
       style="fill:#c98dc0;fill-opacity:1;stroke-width:0.15144"
       id="ellipse70"
       cx="39.738976"
       cy="51.599148"
       rx="1.0169526"
       ry="4.5442219"
       transform="matrix(0.89581047,0.44443628,-0.44241955,0.8968082,0,0)" />
    <ellipse
       style="fill:#c98dc0;fill-opacity:1;stroke-width:0.15144"
       id="ellipse71"
       cx="53.550575"
       cy="34.492252"
       rx="1.0169526"
       ry="4.5442219"
       transform="matrix(0.68057851,0.73267516,-0.73114198,0.68222533,0,0)" />
    <ellipse
       style="fill:#c98dc0;fill-opacity:1;stroke-width:0.18649"
       id="ellipse72"
       cx="-60.378979"
       cy="-10.980018"
       rx="1.3408864"
       ry="5.2263074"
       transform="matrix(-0.3247167,-0.94581133,0.94495203,-0.32720889,0,0)" />
    <path
       style="fill:#2f6524;fill-opacity:1;stroke-width:0.264583"
       d="m 32.824912,77.539882 c 0,0 -0.03307,-3.73724 -1.488281,-4.66328 -1.455208,-0.92604 -2.711979,-0.79375 -2.711979,-0.79375 0,0 0.8597,0.4902 1.814876,0.71107 1.665069,0.38503 2.385384,4.74596 2.385384,4.74596 z"
       id="path73"
       sodipodi:nodetypes="cscsc" />
  </g>
  <g
     inkscape:groupmode="layer"
     id="layer2"
     inkscape:label="pot"
     style="display:inline">
    <path
       id="rect1"
       style="fill:#634525;fill-opacity:1;stroke-width:0.12869"
       d="M 21.128175,63.117562 H 51.59807 L 46.406391,87.92272 H 27.098606 Z"
       sodipodi:nodetypes="ccccc" />
    <path
       id="rect2"
       style="fill:#8b6134;fill-opacity:1;stroke-width:0.12869"
       d="M 21.403504,67.272942 H 51.483347 L 50.6803,70.944012 H 22.321272 Z"
       sodipodi:nodetypes="ccccc" />
  </g>
  <g
     inkscape:groupmode="layer"
     id="layer6"
     inkscape:label="flower_orange"
     style="display:inline">
    <path
       style="fill:#247521;fill-opacity:1;stroke-width:0.51097"
       d="m 27.742348,63.299214 c 0,0 1.160457,-23.265011 -11.850294,-27.424768 l -5.020784,-1.60523 c 0,0 3.410694,-3.218047 9.821232,1.498465 4.680069,3.443329 8.723888,14.520403 8.808893,16.377033 0.148357,3.240155 1.137731,11.148809 1.137731,11.148809 z"
       id="path1"
       sodipodi:nodetypes="cscsscc" />
    <path
       style="fill:#247521;fill-opacity:1;stroke-width:0.51097"
       d="m 27.81506,47.829566 c -1.899327,-7.345797 -3.165546,-6.05706 -0.759731,-9.2789 2.405815,-3.221841 3.038923,-1.159864 3.038923,-1.159864 0,0 3.292168,2.835221 0.886353,5.928188 -2.405814,3.092967 -3.165545,4.510576 -3.165545,4.510576 z"
       id="path6" />
    <path
       style="fill:#247521;fill-opacity:1;stroke-width:0.51097"
       d="m 28.701413,58.397202 c -0.633109,-0.386622 -3.798655,-3.350715 -3.798655,-3.866209 0,-0.515493 -2.532435,2.835219 -4.685006,-2.577473 -2.15257,-5.412691 -2.15257,-5.412691 -2.15257,-5.412691 0,0 4.178519,1.159863 5.824603,3.479588 1.646084,2.319725 1.519462,4.381703 1.519462,4.381703 z"
       id="path7" />
    <ellipse
       style="fill:#f28428;fill-opacity:1;stroke:none;stroke-width:0.407704;stroke-opacity:1"
       id="path8"
       cx="-8.8753481"
       cy="38.599789"
       rx="6.2704225"
       ry="1.5193053"
       transform="matrix(0.79157326,-0.61107427,0.49703156,0.86773247,0,0)" />
    <ellipse
       style="fill:#f28428;fill-opacity:1;stroke:none;stroke-width:0.446758;stroke-opacity:1"
       id="ellipse18"
       cx="27.339666"
       cy="24.434633"
       rx="7.7854023"
       ry="1.4693072"
       transform="matrix(0.9163337,0.40041548,-0.53993228,0.84170846,0,0)" />
    <ellipse
       style="fill:#f28428;fill-opacity:1;stroke:none;stroke-width:0.399174;stroke-opacity:1"
       id="ellipse20"
       cx="4.6328759"
       cy="39.170723"
       rx="5.1128249"
       ry="1.7861297"
       transform="matrix(0.95975903,-0.28082485,0.10141728,0.99484398,0,0)" />
    <ellipse
       style="display:inline;fill:#f28428;fill-opacity:1;stroke:none;stroke-width:0.36274;stroke-opacity:1"
       id="ellipse21"
       cx="7.7335386"
       cy="33.050007"
       rx="4.8149266"
       ry="1.5662208"
       transform="matrix(0.993416,0.11456284,0.01961377,0.99980763,0,0)" />
    <ellipse
       style="display:inline;fill:#f9ca82;fill-opacity:1;stroke:none;stroke-width:0.448553;stroke-opacity:1"
       id="ellipse74"
       cx="14.865305"
       cy="34.812778"
       rx="2.128161"
       ry="3.5468001" />
    <ellipse
       style="fill:#f28428;fill-opacity:1;stroke:none;stroke-width:0.343737;stroke-opacity:1"
       id="ellipse22"
       cx="28.732376"
       cy="12.012955"
       rx="5.5628753"
       ry="1.2173356"
       transform="matrix(0.7056245,0.70858596,-0.81806387,0.57512738,0,0)" />
    <ellipse
       style="fill:#f28428;fill-opacity:1;stroke:none;stroke-width:0.427523;stroke-opacity:1"
       id="ellipse23"
       cx="23.031403"
       cy="-12.854731"
       rx="5.9190893"
       ry="1.7697881"
       transform="matrix(0.10593635,0.99437291,-0.96322478,-0.26869691,0,0)" />
    <ellipse
       style="fill:#f28428;fill-opacity:1;stroke:none;stroke-width:0.383661;stroke-opacity:1"
       id="ellipse24"
       cx="18.527666"
       cy="-25.100016"
       rx="6.0654349"
       ry="1.3908798"
       transform="matrix(-0.26693628,0.96371418,-0.92071755,-0.39022966,0,0)" />
    <path
       style="display:inline;fill:#247521;fill-opacity:1;stroke:none;stroke-width:0.264583;stroke-opacity:1"
       d="m 44.582291,53.181249 c 0,0 0.396875,-6.746875 6.35,-8.598958 5.953125,-1.852083 7.011458,0.132292 7.011458,0.132292 0,0 0,3.968749 -3.704166,6.217708 -3.704167,2.248958 -9.657292,2.248958 -9.657292,2.248958 z"
       id="path60" />
    <path
       style="display:inline;fill:#247521;fill-opacity:1;stroke:none;stroke-width:0.264583;stroke-opacity:1"
       d="m 37.636979,62.177082 c 0,0 -1.058334,2.910417 0.529166,-1.058333 1.5875,-3.96875 2.116667,-4.431771 3.770313,-4.828646 1.653646,-0.396875 2.315104,0.859896 2.315104,0.859896 0,0 1.190625,1.322917 -0.992188,2.447396 -2.182812,1.124479 -5.622395,2.579687 -5.622395,2.579687 z"
       id="path59" />
    <path
       style="display:inline;fill:#247521;fill-opacity:1;stroke:none;stroke-width:0.51097;stroke-opacity:1"
       d="m 36.922021,63.180353 0.704334,-7.732417 0.759731,-1.288735 c 0,0 -0.12663,1.99754 -0.12663,3.544023 0,1.546484 -0.134536,5.436855 -0.134536,5.436855 z"
       id="path56"
       sodipodi:nodetypes="cccscc" />
    <path
       style="display:inline;fill:#247521;fill-opacity:1;stroke:none;stroke-width:0.264583;stroke-opacity:1"
       d="m 44.368944,41.88166 c -0.396875,-1.190625 -1.190625,0.132292 -2.447396,-4.034896 -1.25677,-4.167187 -1.190625,-7.276041 -1.190625,-7.276041 0,0 3.571875,0.79375 3.638021,3.108854 0.06615,2.315104 0,8.202083 0,8.202083 z"
       id="path58" />
    <ellipse
       style="fill:#f28428;fill-opacity:1;stroke:none;stroke-width:0.328748;stroke-opacity:1"
       id="ellipse73"
       cx="-19.443619"
       cy="35.034348"
       rx="5.1508112"
       ry="1.2025424"
       transform="matrix(0.53448541,-0.8451777,0.68258207,0.73080894,0,0)" />
    <ellipse
       style="display:inline;fill:#f9ca82;fill-opacity:1;stroke:none;stroke-width:0.561873;stroke-opacity:1"
       id="path27"
       cx="36.740902"
       cy="47.717888"
       rx="3.4112761"
       ry="3.4719412" />
    <ellipse
       style="fill:#f2284b;fill-opacity:1;stroke:none;stroke-width:0.359524;stroke-opacity:1"
       id="ellipse83"
       cx="24.00238"
       cy="66.652153"
       rx="5.2241874"
       ry="1.4180357"
       transform="matrix(0.6080528,-0.79389659,0.41490382,0.90986528,0,0)" />
    <ellipse
       style="fill:#f2284b;fill-opacity:1;stroke:none;stroke-width:0.355299;stroke-opacity:1"
       id="ellipse85"
       cx="1.5132927"
       cy="57.363251"
       rx="5.1711636"
       ry="1.3991007"
       transform="matrix(0.33174575,-0.94336883,0.68699578,0.72666141,0,0)" />
    <ellipse
       style="fill:#f2284b;fill-opacity:1;stroke:none;stroke-width:0.367729;stroke-opacity:1"
       id="ellipse86"
       cx="-12.104845"
       cy="47.415627"
       rx="5.4469528"
       ry="1.422822"
       transform="matrix(0.10737483,-0.99421861,0.81783046,0.57545924,0,0)" />
    <ellipse
       style="fill:#f2284b;fill-opacity:1;stroke:none;stroke-width:0.355299;stroke-opacity:1"
       id="ellipse87"
       cx="-37.316956"
       cy="24.039917"
       rx="5.1711636"
       ry="1.3991007"
       transform="matrix(-0.28926344,-0.95724953,0.98351282,0.18083842,0,0)" />
    <ellipse
       style="fill:#f2284b;fill-opacity:1;stroke:none;stroke-width:0.355299;stroke-opacity:1"
       id="ellipse88"
       cx="-55.750103"
       cy="-9.2000771"
       rx="5.1711636"
       ry="1.3991007"
       transform="matrix(-0.72098915,-0.69294635,0.94606419,-0.32397923,0,0)" />
    <ellipse
       style="fill:#f2284b;fill-opacity:1;stroke:none;stroke-width:0.323179;stroke-opacity:1"
       id="ellipse89"
       cx="-57.551804"
       cy="-31.532003"
       rx="4.6529379"
       ry="1.2864953"
       transform="matrix(-0.92079278,-0.39005212,0.7286328,-0.68490455,0,0)" />
    <ellipse
       style="fill:#f2284b;fill-opacity:1;stroke:none;stroke-width:0.333531;stroke-opacity:1"
       id="ellipse90"
       cx="-52.603645"
       cy="-49.884739"
       rx="4.9008303"
       ry="1.3009201"
       transform="matrix(-0.99864274,-0.05208334,0.47227943,-0.88144889,0,0)" />
    <ellipse
       style="fill:#f2284b;fill-opacity:1;stroke:none;stroke-width:0.381171;stroke-opacity:1"
       id="ellipse91"
       cx="-47.998146"
       cy="-63.679134"
       rx="5.0572877"
       ry="1.6465365"
       transform="matrix(-0.91788448,0.39684768,-0.00280522,-0.99999607,0,0)" />
    <ellipse
       style="fill:#f2284b;fill-opacity:1;stroke:none;stroke-width:0.311969;stroke-opacity:1"
       id="ellipse92"
       cx="-37.240364"
       cy="-59.047668"
       rx="4.416069"
       ry="1.2630914"
       transform="matrix(-0.96786501,0.25147031,0.10917564,-0.99402247,0,0)" />
    <ellipse
       style="fill:#f2284b;fill-opacity:1;stroke:none;stroke-width:0.353867;stroke-opacity:1"
       id="ellipse93"
       cx="-19.841604"
       cy="-64.286819"
       rx="5.0072465"
       ry="1.4332789"
       transform="matrix(-0.83918458,0.5438467,-0.20910044,-0.97789417,0,0)" />
    <ellipse
       style="fill:#f2284b;fill-opacity:1;stroke:none;stroke-width:0.334961;stroke-opacity:1"
       id="ellipse94"
       cx="1.4665272"
       cy="-62.3545"
       rx="4.7489748"
       ry="1.3540524"
       transform="matrix(-0.62485243,0.78074288,-0.5307256,-0.84754371,0,0)" />
    <ellipse
       style="fill:#f2284b;fill-opacity:1;stroke:none;stroke-width:0.352662;stroke-opacity:1"
       id="ellipse95"
       cx="-14.157206"
       cy="57.924229"
       rx="5.1736336"
       ry="1.3777454"
       transform="matrix(0.35568065,-0.93460755,0.68142333,0.73188951,0,0)" />
    <ellipse
       style="fill:#f2284b;fill-opacity:1;stroke:none;stroke-width:0.340343;stroke-opacity:1"
       id="ellipse96"
       cx="-69.267426"
       cy="-50.840515"
       rx="5.0646915"
       ry="1.3107737"
       transform="matrix(-0.9987292,-0.05039825,0.48444322,-0.87482271,0,0)" />
    <ellipse
       style="fill:#f2284b;fill-opacity:1;stroke:none;stroke-width:0.323179;stroke-opacity:1"
       id="ellipse97"
       cx="-73.225395"
       cy="-32.456745"
       rx="4.6529379"
       ry="1.2864953"
       transform="matrix(-0.92079278,-0.39005212,0.7286328,-0.68490455,0,0)" />
    <ellipse
       style="fill:#f2284b;fill-opacity:1;stroke:none;stroke-width:0.323179;stroke-opacity:1"
       id="ellipse98"
       cx="-67.760086"
       cy="0.29487091"
       rx="4.6529379"
       ry="1.2864953"
       transform="matrix(-0.61351846,-0.78968038,0.97016812,-0.24243314,0,0)" />
    <ellipse
       style="fill:#f2284b;fill-opacity:1;stroke:none;stroke-width:0.355299;stroke-opacity:1"
       id="ellipse99"
       cx="-52.935825"
       cy="24.759333"
       rx="5.1711636"
       ry="1.3991007"
       transform="matrix(-0.28926344,-0.95724953,0.98351282,0.18083842,0,0)" />
    <ellipse
       style="fill:#f2284b;fill-opacity:1;stroke:none;stroke-width:0.34647;stroke-opacity:1"
       id="ellipse100"
       cx="-33.872952"
       cy="44.654419"
       rx="4.9562411"
       ry="1.3881184"
       transform="matrix(0.05630472,-0.99841363,0.87015409,0.49277973,0,0)" />
    <ellipse
       style="fill:#f28428;fill-opacity:1;stroke:none;stroke-width:0.25318;stroke-opacity:1"
       id="ellipse101"
       cx="20.975519"
       cy="-35.101974"
       rx="3.6715548"
       ry="1.0006106"
       transform="matrix(-0.60298405,0.79775324,-0.90110983,-0.4335909,0,0)" />
    <ellipse
       style="fill:#f28428;fill-opacity:1;stroke:none;stroke-width:0.274949;stroke-opacity:1"
       id="ellipse102"
       cx="-41.476494"
       cy="8.3812923"
       rx="4.1373138"
       ry="1.0472182"
       transform="matrix(-0.20325592,-0.97912565,0.99809917,0.06162825,0,0)" />
    <ellipse
       style="fill:#f28428;fill-opacity:1;stroke:none;stroke-width:0.240882;stroke-opacity:1"
       id="ellipse103"
       cx="-42.969799"
       cy="-9.1867228"
       rx="3.7607853"
       ry="0.88425857"
       transform="matrix(-0.60413153,-0.79688462,0.80129079,-0.59827508,0,0)" />
    <ellipse
       style="fill:#f28428;fill-opacity:1;stroke:none;stroke-width:0.194395;stroke-opacity:1"
       id="ellipse104"
       cx="-24.138521"
       cy="-29.925102"
       rx="2.4823222"
       ry="0.87249333"
       transform="matrix(-0.95070706,-0.31009046,0.13764293,-0.99048191,0,0)" />
    <ellipse
       style="fill:#f28428;fill-opacity:1;stroke:none;stroke-width:0.241727;stroke-opacity:1"
       id="ellipse105"
       cx="-7.3769584"
       cy="-38.560783"
       rx="2.8454792"
       ry="1.17691"
       transform="matrix(-0.96904206,0.2468957,-0.31493451,-0.9491134,0,0)" />
  </g>
</svg>
