<svg xmlns="http://www.w3.org/2000/svg" width="210mm" height="297mm" viewBox="0 0 210 297"><defs><path id="a" d="M944.018 169.439h177.508v60.514H944.018z"/></defs><g style="display:inline" transform="translate(35.097)"><path d="M-14.817 5.556h163.029v285.301H-14.817z" style="display:inline;fill:#8a6318;fill-opacity:1;stroke:none;stroke-width:.493196;stroke-linecap:round;stroke-linejoin:round;paint-order:markers fill stroke"/><path d="M1.883 114.714h131.291V272.46H1.883z" style="display:inline;fill:#7f5c16;fill-opacity:1;stroke:none;stroke-width:.592879;stroke-linecap:round;stroke-linejoin:round;stroke-opacity:1;paint-order:markers fill stroke"/><circle cx="-4.404" cy="153.832" r="5.856" style="display:inline;fill:#2d2a2a;fill-opacity:1;stroke:none;stroke-width:.369431;stroke-linecap:round;stroke-linejoin:round;paint-order:markers fill stroke"/><path d="M1.883 25.328h131.291v79.574H1.883z" style="display:inline;fill:#7f5c16;fill-opacity:1;stroke:none;stroke-width:.421087;stroke-linecap:round;stroke-linejoin:round;stroke-opacity:1;paint-order:markers fill stroke"/><path d="M5.798 119.418h123.461v148.338H5.798z" style="display:inline;fill:#906819;fill-opacity:1;stroke:none;stroke-width:.55752;stroke-linecap:round;stroke-linejoin:round;stroke-opacity:1;paint-order:markers fill stroke"/><path d="m1.885 272.434 3.977-4.714 123.412-.096 3.89 4.811z" style="display:inline;fill:#9c701b;fill-opacity:1;stroke:none;stroke-width:.499999;stroke-linecap:round;stroke-linejoin:round;stroke-opacity:1;paint-order:markers fill stroke"/><path d="M5.649 30.657h123.758v70.417H5.649z" style="display:inline;fill:#906819;fill-opacity:1;stroke:none;stroke-width:.384589;stroke-linecap:round;stroke-linejoin:round;stroke-opacity:1;paint-order:markers fill stroke"/><path d="M31.94 149.302h26.456a2.646 2.646 45 0 1 2.646 2.646v1.501a2.646 2.646 135 0 1-2.646 2.646H31.94a2.646 2.646 45 0 1-2.646-2.646v-1.501a2.646 2.646 135 0 1 2.646-2.646" style="display:inline;fill:#615b5b;fill-opacity:1;stroke:none;stroke-width:.499999;stroke-linecap:round;stroke-linejoin:round;stroke-opacity:1;paint-order:markers fill stroke" transform="matrix(.76465 0 0 .77778 -29.433 35.15)"/><path d="m1.885 105.443 3.855-4.937 123.622.085 3.802 4.852z" style="display:inline;fill:#9c701b;fill-opacity:1;stroke:none;stroke-width:.485193;stroke-linecap:round;stroke-linejoin:round;stroke-opacity:1;paint-order:markers fill stroke"/><path d="m26.535 59.927 40.36-19.589 40.466 23.665" style="display:inline;fill:none;fill-opacity:1;stroke:#383838;stroke-width:.5;stroke-linecap:round;stroke-linejoin:round;stroke-dasharray:none;stroke-opacity:1;paint-order:markers fill stroke"/><circle cx="66.703" cy="40.591" r="1.51" style="display:inline;fill:#5b5b5b;fill-opacity:1;stroke:#383838;stroke-width:.500001;stroke-linecap:round;stroke-linejoin:round;stroke-dasharray:none;stroke-opacity:1;paint-order:markers fill stroke"/></g><g style="display:inline"><path d="M63.909 54.898h81.656v28.82H63.909z" style="display:inline;fill:#fff;fill-opacity:1;stroke:none;stroke-width:.499999;stroke-linecap:round;stroke-linejoin:round;stroke-opacity:1;paint-order:markers fill stroke" transform="rotate(2.866)"/><text xml:space="preserve" style="display:inline;font-size:53.3333px;white-space:pre;shape-inside:url(#a);fill:#3a3a30;fill-opacity:1" transform="matrix(.34447 .0165 -.0165 .34447 -241.21 -11.01)"><tspan x="944.018" y="217.966">Back</tspan></text></g></svg>