<svg xmlns="http://www.w3.org/2000/svg" width="1400" height="250" viewBox="0 0 370.417 66.146"><path d="M20.76 4.896h329.598l16.958 55.273H3.584Z" style="fill:#884949;fill-opacity:1;stroke-width:7.10673"/><path d="M7.697 51.186h356.597v.952H7.697z" style="fill:#6a3939;fill-opacity:1;stroke-width:9.07271"/><path d="M10.726 42.752h350.972v.952H10.726z" style="fill:#6a3939;fill-opacity:1;stroke-width:9.00088"/><path d="M13.43 34.138h345.563v.952H13.43z" style="fill:#6a3939;fill-opacity:1;stroke-width:8.93126"/><path d="M15.702 25.703h341.02v.952H15.702z" style="fill:#6a3939;fill-opacity:1;stroke-width:8.87235"/><path d="M18.081 18.166h335.72v.952H18.081z" style="fill:#6a3939;fill-opacity:1;stroke-width:8.80312"/><path d="M21.002 9.732h330.527v.952H21.002z" style="fill:#6a3939;fill-opacity:1;stroke-width:8.7348"/><path d="m19.485 4.63 2.167.376L5.969 60.387l-2.294-.38Z" style="fill:#a96960;fill-opacity:1;stroke-width:9.80527"/><path d="M70.591 51.567c-.634-2.327-2.03-8.842-2.03-8.842l3.743.066z" style="fill:#a96960;fill-opacity:1;stroke-width:10.9585"/><path d="M72.206 42.953c-.634-2.327-2.03-8.842-2.03-8.842l3.743.066z" style="fill:#a96960;fill-opacity:1;stroke-width:10.9585"/><path d="M73.821 34.564c-.634-2.327-2.03-8.843-2.03-8.843l3.743.067zm-4.435 25.632c-.635-2.327-2.284-9.033-2.284-9.033l3.584.035z" style="fill:#a96960;fill-opacity:1;stroke-width:10.9585"/><path d="M75.302 26.892c-.635-2.327-2.03-8.843-2.03-8.843l3.743.067z" style="fill:#a96960;fill-opacity:1;stroke-width:10.9585"/><path d="M76.917 18.457c-.634-2.327-2.03-8.842-2.03-8.842l3.743.066z" style="fill:#a96960;fill-opacity:1;stroke-width:10.9585"/><path d="M78.173 11.683c-.634-2.327-2.254-6.958-2.254-6.958l3.743.066zM56.602 51.567c-.635-2.327-2.03-8.842-2.03-8.842l3.743.066z" style="fill:#a96960;fill-opacity:1;stroke-width:10.9585"/><path d="M58.217 42.953c-.635-2.327-2.03-8.842-2.03-8.842l3.743.066z" style="fill:#a96960;fill-opacity:1;stroke-width:10.9585"/><path d="M59.832 34.564c-.634-2.327-2.03-8.843-2.03-8.843l3.743.067zm-4.436 25.632c-.634-2.327-2.284-9.033-2.284-9.033l3.585.035z" style="fill:#a96960;fill-opacity:1;stroke-width:10.9585"/><path d="M61.313 26.892c-.635-2.327-2.03-8.843-2.03-8.843l3.743.067z" style="fill:#a96960;fill-opacity:1;stroke-width:10.9585"/><path d="M62.928 18.457c-.635-2.327-2.03-8.842-2.03-8.842l3.743.066z" style="fill:#a96960;fill-opacity:1;stroke-width:10.9585"/><path d="M64.184 11.683c-.635-2.327-2.255-6.958-2.255-6.958l3.744.066zm19.858 39.884c-.634-2.327-2.03-8.842-2.03-8.842l3.743.066z" style="fill:#a96960;fill-opacity:1;stroke-width:10.9585"/><path d="M85.657 42.953c-.634-2.327-2.03-8.842-2.03-8.842l3.743.066z" style="fill:#a96960;fill-opacity:1;stroke-width:10.9585"/><path d="M87.272 34.564c-.634-2.327-2.03-8.843-2.03-8.843l3.743.067zm-4.435 25.632c-.635-2.327-2.285-9.033-2.285-9.033l3.585.035z" style="fill:#a96960;fill-opacity:1;stroke-width:10.9585"/><path d="M88.753 26.892c-.635-2.327-2.03-8.843-2.03-8.843l3.743.067z" style="fill:#a96960;fill-opacity:1;stroke-width:10.9585"/><path d="M90.368 18.457c-.635-2.327-2.03-8.842-2.03-8.842l3.743.066z" style="fill:#a96960;fill-opacity:1;stroke-width:10.9585"/><path d="M91.624 11.683c-.634-2.327-2.255-6.958-2.255-6.958l3.744.066z" style="fill:#a96960;fill-opacity:1;stroke-width:10.9585"/><path d="M2.357 60.006h366.108v5.583H2.357z" style="fill:#fff;fill-opacity:1;stroke-width:9.49652"/><path d="M98.937 51.567c-.634-2.327-2.03-8.842-2.03-8.842l3.743.066z" style="fill:#a96960;fill-opacity:1;stroke-width:10.9585"/><path d="M100.552 42.953c-.634-2.327-2.03-8.842-2.03-8.842l3.743.066z" style="fill:#a96960;fill-opacity:1;stroke-width:10.9585"/><path d="M102.167 34.564c-.634-2.327-2.03-8.843-2.03-8.843l3.743.067zm-4.435 25.632c-.635-2.327-2.285-9.033-2.285-9.033l3.585.035z" style="fill:#a96960;fill-opacity:1;stroke-width:10.9585"/><path d="M103.648 26.892c-.635-2.327-2.03-8.843-2.03-8.843l3.743.067z" style="fill:#a96960;fill-opacity:1;stroke-width:10.9585"/><path d="M105.263 18.457c-.635-2.327-2.03-8.842-2.03-8.842l3.743.066z" style="fill:#a96960;fill-opacity:1;stroke-width:10.9585"/><path d="M106.52 11.683c-.635-2.327-2.256-6.958-2.256-6.958l3.744.066zm7.133 39.884c-.635-2.327-2.03-8.842-2.03-8.842l3.743.066z" style="fill:#a96960;fill-opacity:1;stroke-width:10.9585"/><path d="M115.268 42.953c-.635-2.327-2.03-8.842-2.03-8.842l3.743.066z" style="fill:#a96960;fill-opacity:1;stroke-width:10.9585"/><path d="M116.883 34.564c-.635-2.327-2.03-8.843-2.03-8.843l3.743.067zm-4.436 25.632c-.634-2.327-2.284-9.033-2.284-9.033l3.585.035z" style="fill:#a96960;fill-opacity:1;stroke-width:10.9585"/><path d="M118.363 26.892c-.634-2.327-2.03-8.843-2.03-8.843l3.743.067z" style="fill:#a96960;fill-opacity:1;stroke-width:10.9585"/><path d="M119.978 18.457c-.634-2.327-2.03-8.842-2.03-8.842l3.743.066z" style="fill:#a96960;fill-opacity:1;stroke-width:10.9585"/><path d="M121.235 11.683c-.635-2.327-2.255-6.958-2.255-6.958l3.743.066zm6.954 39.884c-.635-2.327-2.03-8.842-2.03-8.842l3.743.066z" style="fill:#a96960;fill-opacity:1;stroke-width:10.9585"/><path d="M129.804 42.953c-.635-2.327-2.03-8.842-2.03-8.842l3.743.066z" style="fill:#a96960;fill-opacity:1;stroke-width:10.9585"/><path d="M131.419 34.564c-.635-2.327-2.03-8.843-2.03-8.843l3.743.067zm-4.436 25.632c-.634-2.327-2.284-9.033-2.284-9.033l3.585.035z" style="fill:#a96960;fill-opacity:1;stroke-width:10.9585"/><path d="M132.9 26.892c-.635-2.327-2.031-8.843-2.031-8.843l3.743.067z" style="fill:#a96960;fill-opacity:1;stroke-width:10.9585"/><path d="M134.514 18.457c-.634-2.327-2.03-8.842-2.03-8.842l3.744.066z" style="fill:#a96960;fill-opacity:1;stroke-width:10.9585"/><path d="M135.77 11.683c-.634-2.327-2.254-6.958-2.254-6.958l3.743.066zm7.603 39.947c-.691-2.31-2.246-8.79-2.246-8.79l3.744-.025z" style="fill:#a96960;fill-opacity:1;stroke-width:10.9585"/><path d="M144.777 42.979c-.692-2.31-2.247-8.79-2.247-8.79l3.744-.025z" style="fill:#a96960;fill-opacity:1;stroke-width:10.9585"/><path d="M146.186 34.552c-.692-2.31-2.247-8.79-2.247-8.79l3.744-.025zm-3.806 25.734c-.692-2.311-2.505-8.974-2.505-8.974l3.584-.053z" style="fill:#a96960;fill-opacity:1;stroke-width:10.9585"/><path d="M147.478 26.846c-.692-2.31-2.247-8.79-2.247-8.79l3.744-.025z" style="fill:#a96960;fill-opacity:1;stroke-width:10.9585"/><path d="M148.886 18.375c-.692-2.31-2.247-8.79-2.247-8.79l3.744-.025z" style="fill:#a96960;fill-opacity:1;stroke-width:10.9585"/><path d="M149.975 11.572c-.69-2.311-2.424-6.901-2.424-6.901l3.744-.025zm8.421 40.115c-.758-2.29-2.5-8.72-2.5-8.72l3.742-.135z" style="fill:#a96960;fill-opacity:1;stroke-width:10.9585"/><path d="M159.548 43c-.758-2.29-2.5-8.722-2.5-8.722l3.742-.134z" style="fill:#a96960;fill-opacity:1;stroke-width:10.9585"/><path d="M160.712 34.535c-.758-2.29-2.5-8.72-2.5-8.72l3.742-.135zm-3.058 25.833c-.758-2.29-2.764-8.897-2.764-8.897l3.582-.157z" style="fill:#a96960;fill-opacity:1;stroke-width:10.9585"/><path d="M161.78 26.795c-.758-2.29-2.5-8.72-2.5-8.72l3.741-.135z" style="fill:#a96960;fill-opacity:1;stroke-width:10.9585"/><path d="M162.942 18.287c-.758-2.29-2.5-8.722-2.5-8.722l3.741-.133z" style="fill:#a96960;fill-opacity:1;stroke-width:10.9585"/><path d="M163.834 11.455c-.758-2.29-2.624-6.828-2.624-6.828l3.742-.134zm142.1 40.112c.634-2.327 2.03-8.842 2.03-8.842l-3.743.066z" style="fill:#a96960;fill-opacity:1;stroke-width:10.9585"/><path d="M304.319 42.953c.634-2.327 2.03-8.842 2.03-8.842l-3.744.066z" style="fill:#a96960;fill-opacity:1;stroke-width:10.9585"/><path d="M302.703 34.564c.635-2.327 2.03-8.843 2.03-8.843l-3.743.067zm4.437 25.632c.634-2.327 2.283-9.033 2.283-9.033l-3.585.035z" style="fill:#a96960;fill-opacity:1;stroke-width:10.9585"/><path d="M301.223 26.892c.634-2.327 2.03-8.843 2.03-8.843l-3.743.067z" style="fill:#a96960;fill-opacity:1;stroke-width:10.9585"/><path d="M299.608 18.457c.634-2.327 2.03-8.842 2.03-8.842l-3.743.066z" style="fill:#a96960;fill-opacity:1;stroke-width:10.9585"/><path d="M298.352 11.683c.634-2.327 2.254-6.958 2.254-6.958l-3.743.066zm21.571 39.884c.634-2.327 2.03-8.842 2.03-8.842l-3.743.066z" style="fill:#a96960;fill-opacity:1;stroke-width:10.9585"/><path d="M318.308 42.953c.634-2.327 2.03-8.842 2.03-8.842l-3.743.066z" style="fill:#a96960;fill-opacity:1;stroke-width:10.9585"/><path d="M316.693 34.564c.634-2.327 2.03-8.843 2.03-8.843l-3.743.067zm4.435 25.632c.635-2.327 2.285-9.033 2.285-9.033l-3.585.035z" style="fill:#a96960;fill-opacity:1;stroke-width:10.9585"/><path d="M315.212 26.892c.635-2.327 2.03-8.843 2.03-8.843l-3.743.067z" style="fill:#a96960;fill-opacity:1;stroke-width:10.9585"/><path d="M313.597 18.457c.635-2.327 2.03-8.842 2.03-8.842l-3.743.066z" style="fill:#a96960;fill-opacity:1;stroke-width:10.9585"/><path d="M312.34 11.683c.635-2.327 2.256-6.958 2.256-6.958l-3.744.066zm-19.857 39.884c.634-2.327 2.03-8.842 2.03-8.842l-3.743.066z" style="fill:#a96960;fill-opacity:1;stroke-width:10.9585"/><path d="M290.868 42.953c.634-2.327 2.03-8.842 2.03-8.842l-3.743.066z" style="fill:#a96960;fill-opacity:1;stroke-width:10.9585"/><path d="M289.253 34.564c.634-2.327 2.03-8.843 2.03-8.843l-3.744.067zm4.435 25.632c.635-2.327 2.284-9.033 2.284-9.033l-3.584.035z" style="fill:#a96960;fill-opacity:1;stroke-width:10.9585"/><path d="M287.772 26.892c.634-2.327 2.03-8.843 2.03-8.843l-3.743.067z" style="fill:#a96960;fill-opacity:1;stroke-width:10.9585"/><path d="M286.157 18.457c.634-2.327 2.03-8.842 2.03-8.842l-3.743.066z" style="fill:#a96960;fill-opacity:1;stroke-width:10.9585"/><path d="M284.9 11.683c.635-2.327 2.255-6.958 2.255-6.958l-3.743.066zm-7.312 39.884c.634-2.327 2.03-8.842 2.03-8.842l-3.743.066z" style="fill:#a96960;fill-opacity:1;stroke-width:10.9585"/><path d="M275.973 42.953c.634-2.327 2.03-8.842 2.03-8.842l-3.743.066z" style="fill:#a96960;fill-opacity:1;stroke-width:10.9585"/><path d="M274.358 34.564c.634-2.327 2.03-8.843 2.03-8.843l-3.744.067zm4.435 25.632c.635-2.327 2.284-9.033 2.284-9.033l-3.584.035z" style="fill:#a96960;fill-opacity:1;stroke-width:10.9585"/><path d="M272.877 26.892c.635-2.327 2.03-8.843 2.03-8.843l-3.743.067z" style="fill:#a96960;fill-opacity:1;stroke-width:10.9585"/><path d="M271.262 18.457c.634-2.327 2.03-8.842 2.03-8.842l-3.743.066z" style="fill:#a96960;fill-opacity:1;stroke-width:10.9585"/><path d="M270.006 11.683c.634-2.327 2.254-6.958 2.254-6.958l-3.743.066zm-7.134 39.884c.635-2.327 2.03-8.842 2.03-8.842l-3.743.066z" style="fill:#a96960;fill-opacity:1;stroke-width:10.9585"/><path d="M261.257 42.953c.635-2.327 2.03-8.842 2.03-8.842l-3.743.066z" style="fill:#a96960;fill-opacity:1;stroke-width:10.9585"/><path d="M259.642 34.564c.635-2.327 2.03-8.843 2.03-8.843l-3.743.067zm4.436 25.632c.634-2.327 2.284-9.033 2.284-9.033l-3.585.035z" style="fill:#a96960;fill-opacity:1;stroke-width:10.9585"/><path d="M258.162 26.892c.634-2.327 2.03-8.843 2.03-8.843l-3.744.067z" style="fill:#a96960;fill-opacity:1;stroke-width:10.9585"/><path d="M256.546 18.457c.635-2.327 2.03-8.842 2.03-8.842l-3.743.066z" style="fill:#a96960;fill-opacity:1;stroke-width:10.9585"/><path d="M255.29 11.683c.635-2.327 2.255-6.958 2.255-6.958l-3.744.066zm-6.954 39.884c.635-2.327 2.03-8.842 2.03-8.842l-3.743.066z" style="fill:#a96960;fill-opacity:1;stroke-width:10.9585"/><path d="M246.721 42.953c.635-2.327 2.03-8.842 2.03-8.842l-3.743.066z" style="fill:#a96960;fill-opacity:1;stroke-width:10.9585"/><path d="M245.106 34.564c.635-2.327 2.03-8.843 2.03-8.843l-3.743.067zm4.436 25.632c.634-2.327 2.284-9.033 2.284-9.033l-3.585.035z" style="fill:#a96960;fill-opacity:1;stroke-width:10.9585"/><path d="M243.626 26.892c.634-2.327 2.03-8.843 2.03-8.843l-3.744.067z" style="fill:#a96960;fill-opacity:1;stroke-width:10.9585"/><path d="M242.01 18.457c.635-2.327 2.03-8.842 2.03-8.842l-3.743.066z" style="fill:#a96960;fill-opacity:1;stroke-width:10.9585"/><path d="M240.754 11.683c.635-2.327 2.255-6.958 2.255-6.958l-3.744.066zm-7.602 39.947c.69-2.31 2.246-8.79 2.246-8.79l-3.744-.025z" style="fill:#a96960;fill-opacity:1;stroke-width:10.9585"/><path d="M231.748 42.979c.691-2.31 2.247-8.79 2.247-8.79l-3.744-.025z" style="fill:#a96960;fill-opacity:1;stroke-width:10.9585"/><path d="M230.34 34.552c.69-2.31 2.246-8.79 2.246-8.79l-3.744-.025zm3.805 25.734c.692-2.311 2.505-8.974 2.505-8.974l-3.584-.053z" style="fill:#a96960;fill-opacity:1;stroke-width:10.9585"/><path d="M229.047 26.846c.691-2.31 2.247-8.79 2.247-8.79l-3.744-.025z" style="fill:#a96960;fill-opacity:1;stroke-width:10.9585"/><path d="M227.64 18.375c.69-2.31 2.246-8.79 2.246-8.79l-3.744-.025z" style="fill:#a96960;fill-opacity:1;stroke-width:10.9585"/><path d="M226.55 11.572c.69-2.311 2.424-6.901 2.424-6.901l-3.744-.025zm-8.422 40.115c.758-2.29 2.5-8.72 2.5-8.72l-3.74-.135z" style="fill:#a96960;fill-opacity:1;stroke-width:10.9585"/><path d="M216.976 43c.758-2.29 2.5-8.722 2.5-8.722l-3.74-.134z" style="fill:#a96960;fill-opacity:1;stroke-width:10.9585"/><path d="M215.812 34.535c.758-2.29 2.5-8.72 2.5-8.72l-3.74-.135zm3.058 25.833c.758-2.29 2.765-8.897 2.765-8.897l-3.582-.157z" style="fill:#a96960;fill-opacity:1;stroke-width:10.9585"/><path d="M214.744 26.795c.759-2.29 2.5-8.72 2.5-8.72l-3.74-.135z" style="fill:#a96960;fill-opacity:1;stroke-width:10.9585"/><path d="M213.583 18.287c.758-2.29 2.5-8.722 2.5-8.722l-3.741-.133z" style="fill:#a96960;fill-opacity:1;stroke-width:10.9585"/><path d="M212.69 11.455c.759-2.29 2.625-6.828 2.625-6.828l-3.742-.134z" style="fill:#a96960;fill-opacity:1;stroke-width:10.9585"/><path d="m351.764 4.756-2.127.374 15.427 54.879 2.252-.378z" style="fill:#a96960;fill-opacity:1;stroke-width:9.67134"/><path d="M168.96 17.644 189.273 3.9l18.687 13.977Z" style="fill:#8c534a;fill-opacity:1;stroke-width:9.23216"/><path d="M170.729 17.265h34.994v42.779h-34.994z" style="fill:#8c534a;fill-opacity:1;stroke-width:9.51109"/><path d="m188.243.984 2.417 3.083-23.475 19.872-2.671-3.147z" style="fill:#fff;fill-opacity:1;stroke-width:10.8494"/><path d="m188.186 1.11-2.417 3.084 23.475 19.872 2.67-3.147z" style="fill:#fff;fill-opacity:1;stroke-width:10.8494"/><path d="m188.195 6.242-16.869 14.267 9.242-1.526 10.05-7.268 15.074 20.458.187-11.006z" style="fill:#33312e;fill-opacity:.48;stroke-width:10.7053"/><path d="M334.607 51.567c.635-2.327 2.03-8.842 2.03-8.842l-3.743.066z" style="fill:#a96960;fill-opacity:1;stroke-width:10.9585"/><path d="M332.992 42.953c.635-2.327 2.03-8.842 2.03-8.842l-3.743.066z" style="fill:#a96960;fill-opacity:1;stroke-width:10.9585"/><path d="M331.377 34.564c.635-2.327 2.03-8.843 2.03-8.843l-3.743.067zm4.436 25.632c.634-2.327 2.284-9.033 2.284-9.033l-3.585.035z" style="fill:#a96960;fill-opacity:1;stroke-width:10.9585"/><path d="M329.897 26.892c.634-2.327 2.03-8.843 2.03-8.843l-3.744.067z" style="fill:#a96960;fill-opacity:1;stroke-width:10.9585"/><path d="M328.281 18.457c.635-2.327 2.03-8.842 2.03-8.842l-3.743.066z" style="fill:#a96960;fill-opacity:1;stroke-width:10.9585"/><path d="M327.025 11.683c.635-2.327 2.255-6.958 2.255-6.958l-3.744.066zm20.944 39.884c.634-2.327 2.03-8.842 2.03-8.842l-3.743.066z" style="fill:#a96960;fill-opacity:1;stroke-width:10.9585"/><path d="M346.354 42.953c.634-2.327 2.03-8.842 2.03-8.842l-3.743.066z" style="fill:#a96960;fill-opacity:1;stroke-width:10.9585"/><path d="M344.739 34.564c.634-2.327 2.03-8.843 2.03-8.843l-3.744.067zm4.435 25.632c.635-2.327 2.284-9.033 2.284-9.033l-3.584.035z" style="fill:#a96960;fill-opacity:1;stroke-width:10.9585"/><path d="M343.258 26.892c.635-2.327 2.03-8.843 2.03-8.843l-3.743.067z" style="fill:#a96960;fill-opacity:1;stroke-width:10.9585"/><path d="M341.643 18.457c.634-2.327 2.03-8.842 2.03-8.842l-3.743.066z" style="fill:#a96960;fill-opacity:1;stroke-width:10.9585"/><path d="M340.387 11.683c.634-2.327 2.254-6.958 2.254-6.958l-3.743.066zM42.102 51.567c-.634-2.327-2.03-8.842-2.03-8.842l3.744.066z" style="fill:#a96960;fill-opacity:1;stroke-width:10.9585"/><path d="M43.718 42.953c-.635-2.327-2.03-8.842-2.03-8.842l3.743.066z" style="fill:#a96960;fill-opacity:1;stroke-width:10.9585"/><path d="M45.333 34.564c-.635-2.327-2.03-8.843-2.03-8.843l3.743.067zm-4.436 25.632c-.635-2.327-2.284-9.033-2.284-9.033l3.585.035z" style="fill:#a96960;fill-opacity:1;stroke-width:10.9585"/><path d="M46.813 26.892c-.634-2.327-2.03-8.843-2.03-8.843l3.743.067z" style="fill:#a96960;fill-opacity:1;stroke-width:10.9585"/><path d="M48.428 18.457c-.634-2.327-2.03-8.842-2.03-8.842l3.743.066z" style="fill:#a96960;fill-opacity:1;stroke-width:10.9585"/><path d="M49.685 11.683c-.635-2.327-2.255-6.958-2.255-6.958l3.743.066zM27.229 51.567c-.635-2.327-2.03-8.842-2.03-8.842l3.743.066z" style="fill:#a96960;fill-opacity:1;stroke-width:10.9585"/><path d="M28.844 42.953c-.634-2.327-2.03-8.842-2.03-8.842l3.743.066z" style="fill:#a96960;fill-opacity:1;stroke-width:10.9585"/><path d="M30.46 34.564c-.635-2.327-2.031-8.843-2.031-8.843l3.743.067zm-4.437 25.632c-.634-2.327-2.284-9.033-2.284-9.033l3.585.035z" style="fill:#a96960;fill-opacity:1;stroke-width:10.9585"/><path d="M31.94 26.892c-.635-2.327-2.03-8.843-2.03-8.843l3.743.067z" style="fill:#a96960;fill-opacity:1;stroke-width:10.9585"/><path d="M33.555 18.457c-.635-2.327-2.03-8.842-2.03-8.842l3.743.066z" style="fill:#a96960;fill-opacity:1;stroke-width:10.9585"/><path d="M34.811 11.683c-.634-2.327-2.255-6.958-2.255-6.958l3.744.066z" style="fill:#a96960;fill-opacity:1;stroke-width:10.9585"/><g transform="translate(78.797 -33.243)scale(.43777)"><path d="M224.745 202.074s-2.267-63.887 4.327-74.191c6.595-10.305 13.808-12.984 21.846-12.571 8.037.412 23.081 3.09 22.463 27.821-.618 24.73-.412 59.971-.412 59.971z" style="fill:#69bab7;fill-opacity:1;stroke-width:12.2939"/><path d="M223.85 142.423h4.207v63.656h-4.207zm47.459 0h4.207v63.656h-4.207z" style="display:inline;fill:#613e21;fill-opacity:1;stroke-width:.139281"/><path d="M247.103 142.357h5.217v63.656h-5.217z" style="display:inline;fill:#613e21;fill-opacity:1;stroke-width:.155097"/><path d="M223.835 199.743h51.662v6.307h-51.662z" style="display:inline;fill:#613e21;fill-opacity:1;stroke-width:.132533"/><path d="M223.73 142.357h51.78v3.951h-51.78z" style="display:inline;fill:#613e21;fill-opacity:1;stroke-width:.105019"/><path d="M249.528 111.801c-1.854-.028-9.743.297-17.317 7.26-9.88 9.084-8.361 23.362-8.361 23.362 1.842-.011 3.685-.014 5.528-.02h-1.423s-.625-9.768 5.634-17.061c5.543-6.46 10.636-7.612 16.243-7.945.02-.003.032-.003.092-.003.035.003.046 0 .113.003 5.607.333 10.7 1.485 16.243 7.945 6.259 7.293 5.03 17.08 5.03 17.08l-.555-.01q2.409.006 4.819.009s1.519-14.278-8.361-23.36c-2.197-2.02-7.897-7.116-17.685-7.262zm21.227 30.612c-13.793-.035-27.585-.063-41.377-.01z" style="display:inline;fill:#613e21;fill-opacity:1;stroke-width:.134833"/><path d="M237.632 146.308h.668v53.436h-.668zm23.44 0h.668v53.436h-.668z" style="display:inline;fill:#613e21;fill-opacity:1;stroke-width:.0508328"/><path d="M166.208-273.546h.668v47.388h-.668z" style="display:inline;fill:#613e21;fill-opacity:1;stroke-width:.0478697" transform="rotate(90)"/><path d="M271.318 146.308h1.087v53.436h-1.087z" style="display:inline;fill:#895b33;fill-opacity:1;stroke-width:.0648536"/><path d="M249.168 142.423h1.087v60.392h-1.087z" style="display:inline;fill:#492f18;fill-opacity:1;stroke-width:.0689463"/><path d="M249.531 131.036c-.986-.015-4.834.104-7.856 2.966-3.91 3.703-4.097 8.345-4.002 8.279l.806.003c.026-.846.562-4.523 3.743-7.535 2.816-2.667 6.401-2.778 7.32-2.764.093.001.12.003.156.005.035 0 .063-.003.155-.005.92-.014 4.505.097 7.321 2.764 3.18 3.012 3.717 6.69 3.743 7.535l.806-.003c.095.066-.092-4.576-4.002-8.279-3.022-2.862-6.87-2.98-7.856-2.966-.1.001-.13.003-.167.005-.038-.003-.067-.003-.167-.005" style="display:inline;fill:#613e21;fill-opacity:1;stroke-width:.134833"/><path d="M249.865 117.371h.668v13.665h-.668z" style="display:inline;fill:#613e21;fill-opacity:1;stroke-width:.0257063"/><path d="M256.487-159.058h.637v11.368h-.637z" style="display:inline;fill:#613e21;fill-opacity:1;stroke-width:.0202859" transform="matrix(.53082 .84749 -.83858 .54477 0 0)"/><rect width=".716" height="11.096" x="-16.3" y="264.472" ry="0" style="display:inline;fill:#613e21;fill-opacity:1;stroke-width:.0202859" transform="matrix(-.53082 .84749 .83858 .54477 0 0)"/><path d="M250.198 117.371q.354.044.707.098c5.266.408 10.12 1.75 15.375 7.873 6.243 7.275 5.036 17.023 5.03 17.072l1.095.003c.828-11.66-5.612-22.374-16.808-24.642-1.567-.317-5.399-.403-5.399-.403zm21.112 25.043-.555-.001.358.007h.196zm-.555-.001-1.606-.003v.003zm-20.5-.034v.029l18.004.004q-9.002-.023-18.005-.033z" style="display:inline;fill:#895b33;fill-opacity:1;stroke-width:.134833"/><path d="M202.732-275.51h.668v51.673h-.668z" style="display:inline;fill:#492f18;fill-opacity:1;stroke-width:.0499867" transform="rotate(90)"/></g></svg>