<svg xmlns="http://www.w3.org/2000/svg" width="1122.52" height="793.701" viewBox="0 0 297 210"><defs><filter id="c" width="1.672" height="1.375" x="-.336" y="-.188" style="color-interpolation-filters:sRGB"><feGaussianBlur stdDeviation="5.131"/></filter><filter id="b" width="1.672" height="1.375" x="-.336" y="-.188" style="color-interpolation-filters:sRGB"><feGaussianBlur stdDeviation="5.131"/></filter><filter id="a" width="1.672" height="1.375" x="-.336" y="-.188" style="color-interpolation-filters:sRGB"><feGaussianBlur stdDeviation="5.131"/></filter></defs><path d="M-190.202-35.702h3.603v27.946h-3.603z" style="fill:#99968b;stroke-width:7.19832" transform="scale(-1 1)rotate(-39.316)"/><path d="M36.793 56.897h223.793v153.241H36.793z" style="fill:#332e1f;fill-opacity:1;stroke:none;stroke-width:4.86122"/><path d="M113.031 128.956h69.949v81.179h-69.949z" style="fill:#50280c;fill-opacity:1;stroke:none;stroke-width:3.50866"/><path d="M46.803 16.093H250.11l10.46 41.305H36.209z" style="fill:#4d2a2a;stroke-width:4.82499;fill-opacity:1"/><path d="M115.69 133.504h.755v76.622h-.755z" style="fill:#331908;fill-opacity:1;stroke:none;stroke-width:2.4243"/><path d="M179.701 133.504h.755v76.631h-.755z" style="fill:#331908;fill-opacity:1;stroke:none;stroke-width:2.42444"/><path d="M-134.291 115.825h.755v64.094h-.755z" style="fill:#331908;fill-opacity:1;stroke:none;stroke-width:2.21727" transform="rotate(-90)"/><path d="M148.69 133.859h.386v76.284h-.386z" style="fill:#331908;fill-opacity:1;stroke:none;stroke-width:1.72971"/><path d="M122.099 137.855h20.767v48.267h-20.767z" style="fill:#081716;fill-opacity:1;stroke:#331908;stroke-width:.225;stroke-dasharray:none;stroke-opacity:1"/><path d="M132.429 137.916h.151v48.201h-.151z" style="fill:#331908;fill-opacity:1;stroke:none;stroke-width:.86064"/><path d="M-154.205 122.06h.151v20.779h-.151zm-16.389 0h.151v20.779h-.151z" style="fill:#331908;fill-opacity:1;stroke:none;stroke-width:.565079" transform="rotate(-90)"/><path d="M144.138 173.986h3.698v1.612h-3.698z" style="fill:#331908;fill-opacity:1;stroke:none;stroke-width:.225;stroke-dasharray:none;stroke-opacity:1"/><ellipse cx="146.025" cy="176.417" rx="1.382" ry="1.847" style="fill:none;fill-opacity:1;stroke:#331908;stroke-width:.409398;stroke-dasharray:none;stroke-opacity:1"/><path d="M122.042 191.843h20.881v11.636h-20.881z" style="fill:#592c0d;fill-opacity:1;stroke:#331908;stroke-width:.110779;stroke-dasharray:none;stroke-opacity:1"/><path d="M123.357 193.213h18.317v8.897h-18.317z" style="fill:#4c260c;fill-opacity:1;stroke:none;stroke-width:.090724;stroke-dasharray:none;stroke-opacity:1"/><path d="M147.992 112.58a35.008 17.704 0 0 0-34.964 17.37h69.957a35.008 17.704 0 0 0-34.993-17.37" style="fill:#4e270c;fill-opacity:1;stroke:none;stroke-width:.508721;stroke-dasharray:none;stroke-opacity:1"/><circle cx="148.405" cy="121.853" r="4.741" style="fill:#142526;fill-opacity:1;stroke:none;stroke-width:.524999;stroke-dasharray:none;stroke-opacity:1"/><path d="M155.089 137.855h20.767v48.267h-20.767z" style="fill:#081716;fill-opacity:1;stroke:#331908;stroke-width:.225;stroke-dasharray:none;stroke-opacity:1"/><path d="m193.382 113.186-92.802.536 2.682 47.474 90.656-.268 11.566-46.277z" style="display:inline;fill:#191916;fill-opacity:.492064;stroke-width:7.99999"/><path d="m92.848 115.28 56.593-42.11 54.715 42.11Z" style="fill:#878787;fill-opacity:1;stroke:none;stroke-width:.524999;stroke-dasharray:none;stroke-opacity:1"/><path d="m105.87 111.4 42.946-32.597 43.321 32.597Z" style="fill:#562f2f;fill-opacity:1;stroke:none;stroke-width:.410486;stroke-dasharray:none;stroke-opacity:1"/><path d="M143.53-78.283h4.741v76.431h-4.741z" style="fill:#562f2f;fill-opacity:1;stroke:none;stroke-width:.42583;stroke-dasharray:none;stroke-opacity:1" transform="rotate(53.023)"/><path d="M-35.585 159.649h4.741v76.431h-4.741z" style="fill:#562f2f;fill-opacity:1;stroke:none;stroke-width:.42583;stroke-dasharray:none;stroke-opacity:1" transform="scale(-1 1)rotate(53.023)"/><path d="M147.117 78.328h3.603v34.517h-3.603z" style="fill:#878787;fill-opacity:1;stroke-width:7.99999"/><path d="M40.751 153.441h3.603v27.946h-3.603z" style="fill:#878787;fill-opacity:1;stroke-width:7.19832" transform="rotate(-39.316)"/><path d="M-189.726-35.312h3.603v27.946h-3.603z" style="fill:#878787;fill-opacity:1;stroke-width:7.19832" transform="scale(-1 1)rotate(-39.316)"/><path d="M165.419 137.916h.151v48.201h-.151z" style="fill:#331908;fill-opacity:1;stroke:none;stroke-width:.86064"/><path d="M-154.205 155.05h.151v20.779h-.151zm-16.389 0h.151v20.779h-.151z" style="fill:#331908;fill-opacity:1;stroke:none;stroke-width:.565079" transform="rotate(-90)"/><path d="M150.017 173.986h3.698v1.612h-3.698z" style="fill:#331908;fill-opacity:1;stroke:none;stroke-width:.225;stroke-dasharray:none;stroke-opacity:1"/><ellipse cx="151.904" cy="176.417" rx="1.382" ry="1.847" style="fill:none;fill-opacity:1;stroke:#331908;stroke-width:.409398;stroke-dasharray:none;stroke-opacity:1"/><path d="M155.042 191.843h20.881v11.636h-20.881z" style="fill:#592c0d;fill-opacity:1;stroke:#331908;stroke-width:.110779;stroke-dasharray:none;stroke-opacity:1"/><path d="M156.357 193.213h18.317v8.897h-18.317z" style="fill:#4c260c;fill-opacity:1;stroke:none;stroke-width:.090724;stroke-dasharray:none;stroke-opacity:1"/><path d="M37.741 50.685h221.043v.711H37.741z" style="fill:#683838;fill-opacity:1;stroke-width:6.17492"/><path d="M39.619 44.382h217.556v.711H39.619z" style="fill:#683838;fill-opacity:1;stroke-width:6.12602"/><path d="M41.295 37.945h214.204v.711H41.295z" style="fill:#683838;fill-opacity:1;stroke-width:6.07864"/><path d="M42.703 31.642H254.09v.711H42.703z" style="fill:#683838;fill-opacity:1;stroke-width:6.03855"/><path d="M44.178 26.01H252.28v.711H44.178z" style="fill:#683838;fill-opacity:1;stroke-width:5.99143"/><path d="M45.989 19.707h204.883v.711H45.989z" style="fill:#683838;fill-opacity:1;stroke-width:5.94493"/><path d="m49.286 3.666 1.606-.167.13 42.6-1.696.19z" style="fill:#73453e;stroke-width:7.22729;fill-opacity:1" transform="rotate(14.475)skewX(.03)"/><path d="M60.974 50.97c-.474-1.74-1.517-6.608-1.517-6.608l2.797.05z" style="fill:#774740;fill-opacity:1;stroke-width:8.18915"/><path d="M62.181 44.533c-.474-1.74-1.517-6.608-1.517-6.608l2.797.05z" style="fill:#774740;fill-opacity:1;stroke-width:8.18915"/><path d="M63.388 38.263c-.474-1.739-1.517-6.608-1.517-6.608l2.797.05zm-3.315 19.155c-.474-1.739-1.707-6.75-1.707-6.75l2.68.026z" style="fill:#774740;fill-opacity:1;stroke-width:8.18915"/><path d="M64.494 32.53c-.474-1.739-1.517-6.608-1.517-6.608l2.798.05z" style="fill:#774740;fill-opacity:1;stroke-width:8.18915"/><path d="M65.701 26.227c-.474-1.739-1.517-6.608-1.517-6.608l2.798.05z" style="fill:#774740;fill-opacity:1;stroke-width:8.18915"/><path d="M66.64 21.165c-.474-1.74-1.685-5.2-1.685-5.2l2.798.05zM50.52 50.97c-.474-1.74-1.517-6.608-1.517-6.608l2.797.05z" style="fill:#774740;fill-opacity:1;stroke-width:8.18915"/><path d="M51.727 44.533c-.474-1.74-1.517-6.608-1.517-6.608l2.797.05z" style="fill:#774740;fill-opacity:1;stroke-width:8.18915"/><path d="M52.934 38.263c-.474-1.739-1.517-6.608-1.517-6.608l2.797.05zM49.62 57.418c-.475-1.739-1.708-6.75-1.708-6.75l2.68.026z" style="fill:#774740;fill-opacity:1;stroke-width:8.18915"/><path d="M54.04 32.53c-.474-1.739-1.517-6.608-1.517-6.608l2.798.05z" style="fill:#774740;fill-opacity:1;stroke-width:8.18915"/><path d="M55.247 26.227c-.474-1.739-1.517-6.608-1.517-6.608l2.798.05z" style="fill:#774740;fill-opacity:1;stroke-width:8.18915"/><path d="M56.186 21.165c-.474-1.74-1.685-5.2-1.685-5.2l2.798.05zm14.84 29.805c-.474-1.74-1.517-6.608-1.517-6.608l2.797.05z" style="fill:#774740;fill-opacity:1;stroke-width:8.18915"/><path d="M72.233 44.533c-.474-1.74-1.517-6.608-1.517-6.608l2.797.05z" style="fill:#774740;fill-opacity:1;stroke-width:8.18915"/><path d="M73.44 38.263c-.474-1.739-1.517-6.608-1.517-6.608l2.797.05zm-3.315 19.155c-.474-1.739-1.707-6.75-1.707-6.75l2.679.026z" style="fill:#774740;fill-opacity:1;stroke-width:8.18915"/><path d="M74.546 32.53c-.474-1.739-1.517-6.608-1.517-6.608l2.797.05z" style="fill:#774740;fill-opacity:1;stroke-width:8.18915"/><path d="M75.753 26.227c-.474-1.739-1.517-6.608-1.517-6.608l2.797.05z" style="fill:#774740;fill-opacity:1;stroke-width:8.18915"/><path d="M76.692 21.165c-.474-1.74-1.685-5.2-1.685-5.2l2.797.05z" style="fill:#774740;fill-opacity:1;stroke-width:8.18915"/><path d="M36.793 61.069H261.24l-.536 6.52H44.255Z" style="mix-blend-mode:normal;fill:#242217;fill-opacity:1;stroke-width:7.99999" transform="matrix(1 0 0 .93004 0 3.964)"/><path d="M34.897 57.276h226.828v4.172H34.897z" style="fill:#878787;fill-opacity:1;stroke-width:6.46178"/><path d="M52.25 128.728h37.741v4.172H52.25zm0 69.367h37.741v4.172H52.25z" style="fill:#878787;fill-opacity:1;stroke-width:2.6358"/><path d="M82.157 50.97c-.474-1.74-1.518-6.608-1.518-6.608l2.798.05z" style="fill:#774740;fill-opacity:1;stroke-width:8.18915"/><path d="M83.364 44.533c-.474-1.74-1.518-6.608-1.518-6.608l2.798.05z" style="fill:#774740;fill-opacity:1;stroke-width:8.18915"/><path d="M84.57 38.263c-.474-1.739-1.517-6.608-1.517-6.608l2.798.05zm-3.314 19.155c-.474-1.739-1.707-6.75-1.707-6.75l2.679.026z" style="fill:#774740;fill-opacity:1;stroke-width:8.18915"/><path d="M85.677 32.53c-.474-1.739-1.517-6.608-1.517-6.608l2.797.05z" style="fill:#774740;fill-opacity:1;stroke-width:8.18915"/><path d="M86.884 26.227c-.474-1.739-1.517-6.608-1.517-6.608l2.797.05z" style="fill:#774740;fill-opacity:1;stroke-width:8.18915"/><path d="M87.823 21.165c-.474-1.74-1.685-5.2-1.685-5.2l2.797.05zm5.33 29.805c-.474-1.74-1.517-6.608-1.517-6.608l2.798.05z" style="fill:#774740;fill-opacity:1;stroke-width:8.18915"/><path d="M94.36 44.533c-.474-1.74-1.517-6.608-1.517-6.608l2.798.05z" style="fill:#774740;fill-opacity:1;stroke-width:8.18915"/><path d="M95.567 38.263c-.474-1.739-1.517-6.608-1.517-6.608l2.798.05zm-3.314 19.155c-.475-1.739-1.707-6.75-1.707-6.75l2.679.026z" style="fill:#774740;fill-opacity:1;stroke-width:8.18915"/><path d="M96.674 32.53c-.474-1.739-1.518-6.608-1.518-6.608l2.798.05z" style="fill:#774740;fill-opacity:1;stroke-width:8.18915"/><path d="M97.88 26.227c-.473-1.739-1.517-6.608-1.517-6.608l2.798.05z" style="fill:#774740;fill-opacity:1;stroke-width:8.18915"/><path d="M98.82 21.165c-.475-1.74-1.685-5.2-1.685-5.2l2.797.05zm5.196 29.805c-.474-1.74-1.517-6.608-1.517-6.608l2.797.05z" style="fill:#774740;fill-opacity:1;stroke-width:8.18915"/><path d="M105.223 44.533c-.474-1.74-1.517-6.608-1.517-6.608l2.797.05z" style="fill:#774740;fill-opacity:1;stroke-width:8.18915"/><path d="M106.43 38.263c-.474-1.739-1.517-6.608-1.517-6.608l2.797.05zm-3.315 19.155c-.474-1.739-1.707-6.75-1.707-6.75l2.68.026z" style="fill:#774740;fill-opacity:1;stroke-width:8.18915"/><path d="M107.536 32.53c-.474-1.739-1.517-6.608-1.517-6.608l2.798.05z" style="fill:#774740;fill-opacity:1;stroke-width:8.18915"/><path d="M108.743 26.227c-.474-1.739-1.517-6.608-1.517-6.608l2.797.05z" style="fill:#774740;fill-opacity:1;stroke-width:8.18915"/><path d="M109.682 21.165c-.474-1.74-1.685-5.2-1.685-5.2l2.798.05zm5.681 29.852c-.516-1.727-1.678-6.569-1.678-6.569l2.797-.019z" style="fill:#774740;fill-opacity:1;stroke-width:8.18915"/><path d="M116.412 44.552c-.516-1.727-1.679-6.569-1.679-6.569l2.798-.019z" style="fill:#774740;fill-opacity:1;stroke-width:8.18915"/><path d="M117.465 38.255c-.517-1.727-1.679-6.569-1.679-6.569l2.798-.019zm-2.845 19.23c-.516-1.727-1.871-6.706-1.871-6.706l2.679-.04z" style="fill:#774740;fill-opacity:1;stroke-width:8.18915"/><path d="M118.43 32.496c-.516-1.726-1.678-6.568-1.678-6.568l2.798-.02z" style="fill:#774740;fill-opacity:1;stroke-width:8.18915"/><path d="M119.483 26.166c-.517-1.727-1.679-6.569-1.679-6.569l2.798-.019z" style="fill:#774740;fill-opacity:1;stroke-width:8.18915"/><path d="M120.297 21.082c-.516-1.727-1.812-5.157-1.812-5.157l2.798-.02zm6.293 29.978c-.566-1.711-1.868-6.517-1.868-6.517l2.796-.1z" style="fill:#774740;fill-opacity:1;stroke-width:8.18915"/><path d="M127.451 44.567c-.567-1.71-1.869-6.517-1.869-6.517l2.796-.1z" style="fill:#774740;fill-opacity:1;stroke-width:8.18915"/><path d="M128.32 38.242c-.566-1.71-1.868-6.517-1.868-6.517l2.796-.1zm-2.284 19.305c-.567-1.711-2.066-6.65-2.066-6.65l2.676-.116z" style="fill:#774740;fill-opacity:1;stroke-width:8.18915"/><path d="M129.119 32.458c-.567-1.71-1.869-6.517-1.869-6.517l2.796-.1z" style="fill:#774740;fill-opacity:1;stroke-width:8.18915"/><path d="M129.987 26.1c-.567-1.711-1.869-6.518-1.869-6.518l2.796-.1z" style="fill:#774740;fill-opacity:1;stroke-width:8.18915"/><path d="M130.653 20.994c-.566-1.71-1.96-5.102-1.96-5.102l2.796-.1Zm106.19 29.976c.474-1.74 1.517-6.608 1.517-6.608l-2.797.05z" style="fill:#774740;fill-opacity:1;stroke-width:8.18915"/><path d="M235.636 44.533c.474-1.74 1.517-6.608 1.517-6.608l-2.797.05z" style="fill:#774740;fill-opacity:1;stroke-width:8.18915"/><path d="M234.43 38.263c.473-1.739 1.516-6.608 1.516-6.608l-2.797.05zm3.314 19.155c.474-1.739 1.707-6.75 1.707-6.75l-2.68.026z" style="fill:#774740;fill-opacity:1;stroke-width:8.18915"/><path d="M233.323 32.53c.474-1.739 1.517-6.608 1.517-6.608l-2.797.05z" style="fill:#774740;fill-opacity:1;stroke-width:8.18915"/><path d="M232.116 26.227c.474-1.739 1.517-6.608 1.517-6.608l-2.797.05z" style="fill:#774740;fill-opacity:1;stroke-width:8.18915"/><path d="M231.177 21.165c.474-1.74 1.685-5.2 1.685-5.2l-2.798.05zm16.12 29.805c.474-1.74 1.517-6.608 1.517-6.608l-2.797.05z" style="fill:#774740;fill-opacity:1;stroke-width:8.18915"/><path d="M246.09 44.533c.474-1.74 1.517-6.608 1.517-6.608l-2.797.05z" style="fill:#774740;fill-opacity:1;stroke-width:8.18915"/><path d="M244.883 38.263c.474-1.739 1.517-6.608 1.517-6.608l-2.797.05zm3.315 19.155c.474-1.739 1.707-6.75 1.707-6.75l-2.679.026z" style="fill:#774740;fill-opacity:1;stroke-width:8.18915"/><path d="M243.777 32.53c.474-1.739 1.517-6.608 1.517-6.608l-2.797.05z" style="fill:#774740;fill-opacity:1;stroke-width:8.18915"/><path d="M242.57 26.227c.474-1.739 1.517-6.608 1.517-6.608l-2.797.05z" style="fill:#774740;fill-opacity:1;stroke-width:8.18915"/><path d="M241.631 21.165c.474-1.74 1.685-5.2 1.685-5.2l-2.797.05zm-14.84 29.805c.474-1.74 1.518-6.608 1.518-6.608l-2.798.05z" style="fill:#774740;fill-opacity:1;stroke-width:8.18915"/><path d="M225.584 44.533c.474-1.74 1.518-6.608 1.518-6.608l-2.798.05z" style="fill:#774740;fill-opacity:1;stroke-width:8.18915"/><path d="M224.377 38.263c.475-1.739 1.518-6.608 1.518-6.608l-2.798.05zm3.315 19.155c.474-1.739 1.707-6.75 1.707-6.75l-2.679.026z" style="fill:#774740;fill-opacity:1;stroke-width:8.18915"/><path d="M223.271 32.53c.474-1.739 1.517-6.608 1.517-6.608l-2.797.05z" style="fill:#774740;fill-opacity:1;stroke-width:8.18915"/><path d="M222.064 26.227c.474-1.739 1.517-6.608 1.517-6.608l-2.797.05z" style="fill:#774740;fill-opacity:1;stroke-width:8.18915"/><path d="M221.125 21.165c.474-1.74 1.685-5.2 1.685-5.2l-2.797.05zM215.66 50.97c.475-1.74 1.518-6.608 1.518-6.608l-2.798.05z" style="fill:#774740;fill-opacity:1;stroke-width:8.18915"/><path d="M214.454 44.533c.474-1.74 1.517-6.608 1.517-6.608l-2.798.05z" style="fill:#774740;fill-opacity:1;stroke-width:8.18915"/><path d="M213.247 38.263c.474-1.739 1.517-6.608 1.517-6.608l-2.798.05zm3.314 19.155c.474-1.739 1.707-6.75 1.707-6.75l-2.679.026z" style="fill:#774740;fill-opacity:1;stroke-width:8.18915"/><path d="M212.14 32.53c.474-1.739 1.517-6.608 1.517-6.608l-2.797.05z" style="fill:#774740;fill-opacity:1;stroke-width:8.18915"/><path d="M210.933 26.227c.474-1.739 1.517-6.608 1.517-6.608l-2.797.05z" style="fill:#774740;fill-opacity:1;stroke-width:8.18915"/><path d="M209.994 21.165c.475-1.74 1.685-5.2 1.685-5.2l-2.797.05zm-5.33 29.805c.474-1.74 1.517-6.608 1.517-6.608l-2.797.05z" style="fill:#774740;fill-opacity:1;stroke-width:8.18915"/><path d="M203.457 44.533c.474-1.74 1.517-6.608 1.517-6.608l-2.797.05z" style="fill:#774740;fill-opacity:1;stroke-width:8.18915"/><path d="M202.25 38.263c.474-1.739 1.517-6.608 1.517-6.608l-2.797.05zm3.315 19.155c.474-1.739 1.707-6.75 1.707-6.75l-2.68.026z" style="fill:#774740;fill-opacity:1;stroke-width:8.18915"/><path d="M201.143 32.53c.475-1.739 1.518-6.608 1.518-6.608l-2.798.05z" style="fill:#774740;fill-opacity:1;stroke-width:8.18915"/><path d="M199.936 26.227c.475-1.739 1.518-6.608 1.518-6.608l-2.798.05z" style="fill:#774740;fill-opacity:1;stroke-width:8.18915"/><path d="M198.998 21.165c.474-1.74 1.685-5.2 1.685-5.2l-2.798.05zm-5.197 29.805c.474-1.74 1.517-6.608 1.517-6.608l-2.797.05z" style="fill:#774740;fill-opacity:1;stroke-width:8.18915"/><path d="M192.594 44.533c.474-1.74 1.517-6.608 1.517-6.608l-2.797.05z" style="fill:#774740;fill-opacity:1;stroke-width:8.18915"/><path d="M191.387 38.263c.474-1.739 1.517-6.608 1.517-6.608l-2.797.05zm3.315 19.155c.474-1.739 1.707-6.75 1.707-6.75l-2.679.026z" style="fill:#774740;fill-opacity:1;stroke-width:8.18915"/><path d="M190.28 32.53c.475-1.739 1.518-6.608 1.518-6.608l-2.797.05z" style="fill:#774740;fill-opacity:1;stroke-width:8.18915"/><path d="M189.074 26.227c.474-1.739 1.517-6.608 1.517-6.608l-2.797.05z" style="fill:#774740;fill-opacity:1;stroke-width:8.18915"/><path d="M188.135 21.165c.474-1.74 1.685-5.2 1.685-5.2l-2.797.05zm-5.681 29.852c.516-1.727 1.679-6.569 1.679-6.569l-2.798-.019z" style="fill:#774740;fill-opacity:1;stroke-width:8.18915"/><path d="M181.405 44.552c.517-1.727 1.679-6.569 1.679-6.569l-2.798-.019z" style="fill:#774740;fill-opacity:1;stroke-width:8.18915"/><path d="M180.352 38.255c.517-1.727 1.679-6.569 1.679-6.569l-2.798-.019zm2.844 19.23c.517-1.727 1.872-6.706 1.872-6.706l-2.679-.04z" style="fill:#774740;fill-opacity:1;stroke-width:8.18915"/><path d="M179.387 32.496c.516-1.726 1.678-6.568 1.678-6.568l-2.798-.02z" style="fill:#774740;fill-opacity:1;stroke-width:8.18915"/><path d="M178.334 26.166c.517-1.727 1.68-6.569 1.68-6.569l-2.799-.019z" style="fill:#774740;fill-opacity:1;stroke-width:8.18915"/><path d="M177.52 21.082c.517-1.727 1.812-5.157 1.812-5.157l-2.798-.02zm-6.293 29.978c.567-1.711 1.869-6.517 1.869-6.517l-2.796-.1z" style="fill:#774740;fill-opacity:1;stroke-width:8.18915"/><path d="M170.366 44.567c.567-1.71 1.869-6.517 1.869-6.517l-2.796-.1z" style="fill:#774740;fill-opacity:1;stroke-width:8.18915"/><path d="M169.496 38.242c.567-1.71 1.869-6.517 1.869-6.517l-2.796-.1zm2.286 19.305c.566-1.711 2.065-6.65 2.065-6.65l-2.676-.116z" style="fill:#774740;fill-opacity:1;stroke-width:8.18915"/><path d="M168.698 32.458c.567-1.71 1.869-6.517 1.869-6.517l-2.796-.1z" style="fill:#774740;fill-opacity:1;stroke-width:8.18915"/><path d="M167.83 26.1c.567-1.711 1.869-6.518 1.869-6.518l-2.796-.1z" style="fill:#774740;fill-opacity:1;stroke-width:8.18915"/><path d="M167.164 20.994c.566-1.71 1.96-5.102 1.96-5.102l-2.796-.1Z" style="fill:#774740;fill-opacity:1;stroke-width:8.18915"/><path d="m249.938 15.87-1.596.24 10.501 41.285 1.69-.24z" style="fill:#73453e;fill-opacity:1;stroke-width:7.22729"/><path d="M206.472 128.728h37.741v4.172h-37.741zm.269 69.367h37.741v4.172h-37.741z" style="fill:#878787;fill-opacity:1;stroke-width:2.6358"/><path d="M52.167 132.832h37.818l1.274 1.744H53.911Zm0 69.604h37.818l1.274 1.743H53.911Zm154.223-69.604h37.818l1.274 1.744h-37.349zm0 69.604h37.818l1.274 1.743h-37.349z" style="fill:#242217;fill-opacity:1;stroke-width:7.99999"/><path d="m149.126 73.222-56.056 42.11 25.212-4.828 30.844-31.65 52.302 36.478 3.487-.269z" style="fill:#040301;fill-opacity:.61678004;stroke-width:7.99999"/><path d="m133.57 18.64 16.093-13.544 14.483 13.679Z" style="fill:#3f2521;fill-opacity:1;stroke-width:7.99999"/><path d="M135.806 16.804h26.151v40.5h-26.151z" style="fill:#3f2521;fill-opacity:1;stroke-width:7.99998"/><path d="m148.894 2.213 1.806 2.304-17.542 14.85-1.996-2.351z" style="fill:#878787;stroke-width:8.10763;fill-opacity:1"/><path d="m148.852 2.308-1.807 2.304 17.543 14.85 1.996-2.351z" style="fill:#878787;stroke-width:8.10763;fill-opacity:1"/><path d="m196.226 142.768 2.825-2.904.028 61.557 2.146 4.262v4.395h-6.035z" style="fill:#242117;fill-opacity:1;stroke-width:7.97216"/><path d="m107.182 142.957 1.878.7-.067 57.764 2.146 4.262v4.395h-6.035z" style="fill:#29251b;fill-opacity:1;stroke-width:7.97216"/><path d="M123.165 171.681h8.243v13.37h-8.243zm10.394 0h8.243v13.37h-8.243zm-10.394-16.093h8.243v13.37h-8.243zm10.394 0h8.243v13.37h-8.243z" style="fill:#072a2b;fill-opacity:1;stroke-width:7.58037"/><path d="M123.165 139.361h8.243v13.37h-8.243zm10.394 0h8.243v13.37h-8.243z" style="fill:#142526;fill-opacity:1;stroke-width:7.58037"/><path d="M156.223 171.681h8.243v13.37h-8.243zm10.393 0h8.243v13.37h-8.243zm-10.393-16.093h8.243v13.37h-8.243zm10.393 0h8.243v13.37h-8.243z" style="fill:#072a2b;fill-opacity:1;stroke-width:7.58037"/><path d="M156.223 139.361h8.243v13.37h-8.243zm10.393 0h8.243v13.37h-8.243z" style="fill:#142526;fill-opacity:1;stroke-width:7.58037"/><path d="M123.165 155.588h8.243v5.525h-8.243zm10.379 0h8.243v5.525h-8.243zm22.682 0h8.243v5.525h-8.243zm10.378 0h8.243v5.525h-8.243z" style="fill:#142526;fill-opacity:1;stroke-width:4.87283"/><path d="m148.858 6.236-12.606 10.661 6.907-1.14 7.51-5.43 11.265 15.287V16.83Z" style="fill:#2a1717;fill-opacity:1;stroke-width:7.99999"/><path d="m-190.234-34.388.51.049.017 22.992-.73-.603z" style="fill:#2a2925;fill-opacity:1;stroke-width:7.19832" transform="scale(-1 1)rotate(-39.316)"/><path d="M99.095 121.275h8.046v80.406h-8.046z" style="fill:#878787;fill-opacity:1;stroke:none;stroke-width:4.52401"/><path d="M97.037 114.995h12.096v8.851H97.037z" style="fill:#878787;fill-opacity:1;stroke:none;stroke-width:1.84032"/><path d="M96.985 205.516h12.148v4.56H96.985z" style="fill:#878787;fill-opacity:1;stroke:none;stroke-width:1.32371"/><path d="M99.024 201.7h8.14l1.969 3.848H96.96Z" style="fill:#878787;stroke-width:1.22438;fill-opacity:1"/><path d="M99.095 200.124h8.046v1.557h-8.046zm0-76.287h8.046v1.557h-8.046z" style="fill:#312011;fill-opacity:1;stroke:none;stroke-width:.629507"/><path d="M105.264 125.414h1.877v74.702h-1.877z" style="fill:#d4d4d4;fill-opacity:1;stroke:none;stroke-width:2.10635"/><path d="M105.306 125.362h-6.235l1.351 2.252 4.837 2.68z" style="fill:#404040;fill-opacity:1;stroke-width:7.99999"/><path d="M105.264 125.414h1.877v74.702h-1.877z" style="fill:#404040;fill-opacity:1;stroke:none;stroke-width:2.10635"/><g transform="translate(95.157 22.802)scale(.87079)"><path d="M131.204 198.311s-1.694-47.742 3.234-55.442 10.319-9.702 16.325-9.394 17.248 2.31 16.786 20.79c-.462 18.481-.308 44.816-.308 44.816z" style="fill:#051d19;fill-opacity:1;stroke-width:9.18707"/><path d="M131.198 198.43s-1.694-47.742 3.234-55.443c4.928-7.7 10.318-9.702 16.325-9.394s17.248 2.31 16.786 20.79c-.462 18.482-.308 44.817-.308 44.817z" style="fill:#fff689;fill-opacity:1;stroke-width:9.18707;filter:url(#a)" transform="matrix(.75546 0 0 .8641 37.303 -54.303)"/><path d="M130.529 153.853h3.144v47.57h-3.144zm35.466 0h3.144v47.57h-3.144z" style="display:inline;fill:#51341c;fill-opacity:1;stroke-width:.104083"/><path d="M147.906 153.804h3.898v47.57h-3.898z" style="display:inline;fill:#51341c;fill-opacity:1;stroke-width:.115902"/><path d="M130.518 196.688h38.606v4.713h-38.606z" style="display:inline;fill:#51341c;fill-opacity:1;stroke-width:.0990401"/><path d="M130.44 153.804h38.695v2.953H130.44z" style="display:inline;fill:#51341c;fill-opacity:1;stroke-width:.0784799"/><path d="M149.718 130.97c-1.385-.02-7.28.222-12.94 5.426-7.384 6.788-6.249 17.457-6.249 17.457 1.377-.008 2.754-.01 4.131-.015h-1.063s-.467-7.3 4.21-12.75c4.143-4.826 7.948-5.688 12.138-5.936.016-.002.024-.002.069-.002.026.002.035 0 .084.002 4.19.248 7.996 1.11 12.139 5.937 4.677 5.45 3.758 12.764 3.758 12.764l-.414-.008 3.6.007s1.136-10.67-6.247-17.457c-1.641-1.509-5.901-5.318-13.216-5.426zm15.863 22.876a4829 4829 0 0 0-30.92-.008z" style="display:inline;fill:#51341c;fill-opacity:1;stroke-width:.100759"/><path d="M140.828 156.756h.499v39.932h-.499zm17.517 0h.499v39.932h-.499z" style="display:inline;fill:#51341c;fill-opacity:1;stroke-width:.0379868"/><path d="M171.628-167.667h.499v35.413h-.499z" style="display:inline;fill:#51341c;fill-opacity:1;stroke-width:.0357725" transform="rotate(90)"/><path d="M166.002 156.756h.812v39.932h-.812z" style="display:inline;fill:#8a5b33;fill-opacity:1;stroke-width:.0484644"/><path d="M149.449 153.853h.812v45.13h-.812z" style="display:inline;fill:#382413;fill-opacity:1;stroke-width:.0515228"/><path d="M149.72 145.344c-.737-.011-3.612.077-5.87 2.216-2.922 2.768-3.062 6.236-2.99 6.187l.601.002c.02-.632.42-3.38 2.797-5.63 2.105-1.994 4.784-2.076 5.471-2.066.07 0 .09.002.116.004l.116-.004c.687-.01 3.366.072 5.471 2.065 2.377 2.251 2.778 5 2.797 5.63l.602-.001c.071.05-.068-3.42-2.99-6.187-2.259-2.139-5.134-2.227-5.871-2.216l-.125.004c-.028-.002-.05-.002-.124-.004" style="display:inline;fill:#51341c;fill-opacity:1;stroke-width:.100759"/><path d="M149.97 135.132h.499v10.212h-.499z" style="display:inline;fill:#51341c;fill-opacity:1;stroke-width:.01921"/><path d="M211.419-62.536h.476v8.495h-.476z" style="display:inline;fill:#51341c;fill-opacity:1;stroke-width:.0151594" transform="matrix(.53082 .84749 -.83858 .54477 0 0)"/><rect width=".535" height="8.292" x="47.616" y="191.662" ry="0" style="display:inline;fill:#51341c;fill-opacity:1;stroke-width:.0151594" transform="matrix(-.53082 .84749 .83858 .54477 0 0)"/><path d="M150.22 135.132q.263.033.527.073c3.936.305 7.563 1.308 11.49 5.884 4.665 5.436 3.763 12.721 3.759 12.758l.818.002c.619-8.715-4.194-16.72-12.56-18.415-1.172-.237-4.035-.301-4.035-.301zm15.776 18.715-.415-.001.267.005h.147zm-.415-.001-1.2-.002v.002zm-15.32-.026v.022l13.455.003q-6.727-.017-13.455-.025" style="display:inline;fill:#8a5b33;fill-opacity:1;stroke-width:.100759"/><path d="M198.921-169.134h.499v38.614h-.499z" style="display:inline;fill:#382413;fill-opacity:1;stroke-width:.0373545" transform="rotate(90)"/></g><g transform="translate(-59.008 22.802)scale(.87079)"><path d="M131.198 198.43s-1.694-47.742 3.234-55.443c4.928-7.7 10.318-9.702 16.325-9.394s17.248 2.31 16.786 20.79c-.462 18.482-.308 44.817-.308 44.817z" style="fill:#fff689;fill-opacity:1;stroke-width:9.18707;filter:url(#b)" transform="matrix(.75546 0 0 .8641 36.973 21.846)"/><path d="M130.529 153.853h3.144v47.57h-3.144zm35.466 0h3.144v47.57h-3.144z" style="display:inline;fill:#51341c;fill-opacity:1;stroke-width:.104083"/><path d="M147.906 153.804h3.898v47.57h-3.898z" style="display:inline;fill:#51341c;fill-opacity:1;stroke-width:.115902"/><path d="M130.518 196.688h38.606v4.713h-38.606z" style="display:inline;fill:#51341c;fill-opacity:1;stroke-width:.0990401"/><path d="M130.44 153.804h38.695v2.953H130.44z" style="display:inline;fill:#51341c;fill-opacity:1;stroke-width:.0784799"/><path d="M149.718 130.97c-1.385-.02-7.28.222-12.94 5.426-7.384 6.788-6.249 17.457-6.249 17.457 1.377-.008 2.754-.01 4.131-.015h-1.063s-.467-7.3 4.21-12.75c4.143-4.826 7.948-5.688 12.138-5.936.016-.002.024-.002.069-.002.026.002.035 0 .084.002 4.19.248 7.996 1.11 12.139 5.937 4.677 5.45 3.758 12.764 3.758 12.764l-.414-.008 3.6.007s1.136-10.67-6.247-17.457c-1.641-1.509-5.901-5.318-13.216-5.426zm15.863 22.876a4829 4829 0 0 0-30.92-.008z" style="display:inline;fill:#51341c;fill-opacity:1;stroke-width:.100759"/><path d="M140.828 156.756h.499v39.932h-.499zm17.517 0h.499v39.932h-.499z" style="display:inline;fill:#51341c;fill-opacity:1;stroke-width:.0379868"/><path d="M171.628-167.667h.499v35.413h-.499z" style="display:inline;fill:#51341c;fill-opacity:1;stroke-width:.0357725" transform="rotate(90)"/><path d="M166.002 156.756h.812v39.932h-.812z" style="display:inline;fill:#8a5b33;fill-opacity:1;stroke-width:.0484644"/><path d="M149.449 153.853h.812v45.13h-.812z" style="display:inline;fill:#382413;fill-opacity:1;stroke-width:.0515228"/><path d="M149.72 145.344c-.737-.011-3.612.077-5.87 2.216-2.922 2.768-3.062 6.236-2.99 6.187l.601.002c.02-.632.42-3.38 2.797-5.63 2.105-1.994 4.784-2.076 5.471-2.066.07 0 .09.002.116.004l.116-.004c.687-.01 3.366.072 5.471 2.065 2.377 2.251 2.778 5 2.797 5.63l.602-.001c.071.05-.068-3.42-2.99-6.187-2.259-2.139-5.134-2.227-5.871-2.216l-.125.004c-.028-.002-.05-.002-.124-.004" style="display:inline;fill:#51341c;fill-opacity:1;stroke-width:.100759"/><path d="M149.97 135.132h.499v10.212h-.499z" style="display:inline;fill:#51341c;fill-opacity:1;stroke-width:.01921"/><path d="M211.419-62.536h.476v8.495h-.476z" style="display:inline;fill:#51341c;fill-opacity:1;stroke-width:.0151594" transform="matrix(.53082 .84749 -.83858 .54477 0 0)"/><rect width=".535" height="8.292" x="47.616" y="191.662" ry="0" style="display:inline;fill:#51341c;fill-opacity:1;stroke-width:.0151594" transform="matrix(-.53082 .84749 .83858 .54477 0 0)"/><path d="M150.22 135.132q.263.033.527.073c3.936.305 7.563 1.308 11.49 5.884 4.665 5.436 3.763 12.721 3.759 12.758l.818.002c.619-8.715-4.194-16.72-12.56-18.415-1.172-.237-4.035-.301-4.035-.301zm15.776 18.715-.415-.001.267.005h.147zm-.415-.001-1.2-.002v.002zm-15.32-.026v.022l13.455.003q-6.727-.017-13.455-.025" style="display:inline;fill:#8a5b33;fill-opacity:1;stroke-width:.100759"/><path d="M198.921-169.134h.499v38.614h-.499z" style="display:inline;fill:#382413;fill-opacity:1;stroke-width:.0373545" transform="rotate(90)"/></g><g transform="translate(-59.008 -46.612)scale(.87079)"><path d="M131.198 198.43s-1.694-47.742 3.234-55.443c4.928-7.7 10.318-9.702 16.325-9.394s17.248 2.31 16.786 20.79c-.462 18.482-.308 44.817-.308 44.817z" style="fill:#fff689;fill-opacity:1;stroke-width:9.18707;filter:url(#c)" transform="matrix(.75546 0 0 .8641 36.843 24.755)"/><path d="M130.529 153.853h3.144v47.57h-3.144zm35.466 0h3.144v47.57h-3.144z" style="display:inline;fill:#51341c;fill-opacity:1;stroke-width:.104083"/><path d="M147.906 153.804h3.898v47.57h-3.898z" style="display:inline;fill:#51341c;fill-opacity:1;stroke-width:.115902"/><path d="M130.518 196.688h38.606v4.713h-38.606z" style="display:inline;fill:#51341c;fill-opacity:1;stroke-width:.0990401"/><path d="M130.44 153.804h38.695v2.953H130.44z" style="display:inline;fill:#51341c;fill-opacity:1;stroke-width:.0784799"/><path d="M149.718 130.97c-1.385-.02-7.28.222-12.94 5.426-7.384 6.788-6.249 17.457-6.249 17.457 1.377-.008 2.754-.01 4.131-.015h-1.063s-.467-7.3 4.21-12.75c4.143-4.826 7.948-5.688 12.138-5.936.016-.002.024-.002.069-.002.026.002.035 0 .084.002 4.19.248 7.996 1.11 12.139 5.937 4.677 5.45 3.758 12.764 3.758 12.764l-.414-.008 3.6.007s1.136-10.67-6.247-17.457c-1.641-1.509-5.901-5.318-13.216-5.426zm15.863 22.876a4829 4829 0 0 0-30.92-.008z" style="display:inline;fill:#51341c;fill-opacity:1;stroke-width:.100759"/><path d="M140.828 156.756h.499v39.932h-.499zm17.517 0h.499v39.932h-.499z" style="display:inline;fill:#51341c;fill-opacity:1;stroke-width:.0379868"/><path d="M171.628-167.667h.499v35.413h-.499z" style="display:inline;fill:#51341c;fill-opacity:1;stroke-width:.0357725" transform="rotate(90)"/><path d="M166.002 156.756h.812v39.932h-.812z" style="display:inline;fill:#8a5b33;fill-opacity:1;stroke-width:.0484644"/><path d="M149.449 153.853h.812v45.13h-.812z" style="display:inline;fill:#382413;fill-opacity:1;stroke-width:.0515228"/><path d="M149.72 145.344c-.737-.011-3.612.077-5.87 2.216-2.922 2.768-3.062 6.236-2.99 6.187l.601.002c.02-.632.42-3.38 2.797-5.63 2.105-1.994 4.784-2.076 5.471-2.066.07 0 .09.002.116.004l.116-.004c.687-.01 3.366.072 5.471 2.065 2.377 2.251 2.778 5 2.797 5.63l.602-.001c.071.05-.068-3.42-2.99-6.187-2.259-2.139-5.134-2.227-5.871-2.216l-.125.004c-.028-.002-.05-.002-.124-.004" style="display:inline;fill:#51341c;fill-opacity:1;stroke-width:.100759"/><path d="M149.97 135.132h.499v10.212h-.499z" style="display:inline;fill:#51341c;fill-opacity:1;stroke-width:.01921"/><path d="M211.419-62.536h.476v8.495h-.476z" style="display:inline;fill:#51341c;fill-opacity:1;stroke-width:.0151594" transform="matrix(.53082 .84749 -.83858 .54477 0 0)"/><rect width=".535" height="8.292" x="47.616" y="191.662" ry="0" style="display:inline;fill:#51341c;fill-opacity:1;stroke-width:.0151594" transform="matrix(-.53082 .84749 .83858 .54477 0 0)"/><path d="M150.22 135.132q.263.033.527.073c3.936.305 7.563 1.308 11.49 5.884 4.665 5.436 3.763 12.721 3.759 12.758l.818.002c.619-8.715-4.194-16.72-12.56-18.415-1.172-.237-4.035-.301-4.035-.301zm15.776 18.715-.415-.001.267.005h.147zm-.415-.001-1.2-.002v.002zm-15.32-.026v.022l13.455.003q-6.727-.017-13.455-.025" style="display:inline;fill:#8a5b33;fill-opacity:1;stroke-width:.100759"/><path d="M198.921-169.134h.499v38.614h-.499z" style="display:inline;fill:#382413;fill-opacity:1;stroke-width:.0373545" transform="rotate(90)"/></g><g transform="translate(94.889 -46.658)scale(.87079)"><path d="M130.529 153.853h3.144v47.57h-3.144zm35.466 0h3.144v47.57h-3.144z" style="display:inline;fill:#51341c;fill-opacity:1;stroke-width:.104083"/><path d="M147.906 153.804h3.898v47.57h-3.898z" style="display:inline;fill:#51341c;fill-opacity:1;stroke-width:.115902"/><path d="M130.518 196.688h38.606v4.713h-38.606z" style="display:inline;fill:#51341c;fill-opacity:1;stroke-width:.0990401"/><path d="M130.44 153.804h38.695v2.953H130.44z" style="display:inline;fill:#51341c;fill-opacity:1;stroke-width:.0784799"/><path d="M149.718 130.97c-1.385-.02-7.28.222-12.94 5.426-7.384 6.788-6.249 17.457-6.249 17.457 1.377-.008 2.754-.01 4.131-.015h-1.063s-.467-7.3 4.21-12.75c4.143-4.826 7.948-5.688 12.138-5.936.016-.002.024-.002.069-.002.026.002.035 0 .084.002 4.19.248 7.996 1.11 12.139 5.937 4.677 5.45 3.758 12.764 3.758 12.764l-.414-.008 3.6.007s1.136-10.67-6.247-17.457c-1.641-1.509-5.901-5.318-13.216-5.426zm15.863 22.876a4829 4829 0 0 0-30.92-.008z" style="display:inline;fill:#51341c;fill-opacity:1;stroke-width:.100759"/><path d="M140.828 156.756h.499v39.932h-.499zm17.517 0h.499v39.932h-.499z" style="display:inline;fill:#51341c;fill-opacity:1;stroke-width:.0379868"/><path d="M171.628-167.667h.499v35.413h-.499z" style="display:inline;fill:#51341c;fill-opacity:1;stroke-width:.0357725" transform="rotate(90)"/><path d="M166.002 156.756h.812v39.932h-.812z" style="display:inline;fill:#8a5b33;fill-opacity:1;stroke-width:.0484644"/><path d="M149.449 153.853h.812v45.13h-.812z" style="display:inline;fill:#382413;fill-opacity:1;stroke-width:.0515228"/><path d="M149.72 145.344c-.737-.011-3.612.077-5.87 2.216-2.922 2.768-3.062 6.236-2.99 6.187l.601.002c.02-.632.42-3.38 2.797-5.63 2.105-1.994 4.784-2.076 5.471-2.066.07 0 .09.002.116.004l.116-.004c.687-.01 3.366.072 5.471 2.065 2.377 2.251 2.778 5 2.797 5.63l.602-.001c.071.05-.068-3.42-2.99-6.187-2.259-2.139-5.134-2.227-5.871-2.216l-.125.004c-.028-.002-.05-.002-.124-.004" style="display:inline;fill:#51341c;fill-opacity:1;stroke-width:.100759"/><path d="M149.97 135.132h.499v10.212h-.499z" style="display:inline;fill:#51341c;fill-opacity:1;stroke-width:.01921"/><path d="M211.419-62.536h.476v8.495h-.476z" style="display:inline;fill:#51341c;fill-opacity:1;stroke-width:.0151594" transform="matrix(.53082 .84749 -.83858 .54477 0 0)"/><rect width=".535" height="8.292" x="47.616" y="191.662" ry="0" style="display:inline;fill:#51341c;fill-opacity:1;stroke-width:.0151594" transform="matrix(-.53082 .84749 .83858 .54477 0 0)"/><path d="M150.22 135.132q.263.033.527.073c3.936.305 7.563 1.308 11.49 5.884 4.665 5.436 3.763 12.721 3.759 12.758l.818.002c.619-8.715-4.194-16.72-12.56-18.415-1.172-.237-4.035-.301-4.035-.301zm15.776 18.715-.415-.001.267.005h.147zm-.415-.001-1.2-.002v.002zm-15.32-.026v.022l13.455.003q-6.727-.017-13.455-.025" style="display:inline;fill:#8a5b33;fill-opacity:1;stroke-width:.100759"/><path d="M198.921-169.134h.499v38.614h-.499z" style="display:inline;fill:#382413;fill-opacity:1;stroke-width:.0373545" transform="rotate(90)"/></g><path d="M99.095 121.275h8.046v80.406h-8.046z" style="fill:#878787;fill-opacity:1;stroke:none;stroke-width:4.52401" transform="translate(89.328)"/><path d="M97.037 114.995h12.096v8.851H97.037z" style="fill:#878787;fill-opacity:1;stroke:none;stroke-width:1.84032" transform="translate(89.328)"/><path d="M96.985 205.516h12.148v4.56H96.985z" style="fill:#878787;fill-opacity:1;stroke:none;stroke-width:1.32371" transform="translate(89.328)"/><path d="M99.024 201.7h8.14l1.969 3.848H96.96Z" style="fill:#878787;stroke-width:1.22438;fill-opacity:1" transform="translate(89.328)"/><path d="M99.095 200.124h8.046v1.557h-8.046zm0-76.287h8.046v1.557h-8.046z" style="fill:#312011;fill-opacity:1;stroke:none;stroke-width:.629507" transform="translate(89.328)"/><path d="M27.405 128.112s4.125-5.15 13.276-8.345c11.027-3.85 14.035-2.418 14.035-2.418s-2.604 2.045-1.897 5.595c.78 3.92 3.912 5.263 3.912 5.263zm63.495-.19s-4.124-5.149-13.275-8.344c-11.027-3.851-14.034-2.419-14.034-2.419s2.603 2.046 1.896 5.595c-.78 3.92-3.911 5.263-3.911 5.263z" style="fill:none;fill-opacity:1;stroke:#331908;stroke-width:.524999;stroke-dasharray:none;stroke-opacity:1" transform="translate(89.328)"/><path d="M103.647 125.381h3.495v74.691h-3.495z" style="fill:#404040;fill-opacity:1;stroke:none;stroke-width:2.87353" transform="translate(89.328)"/><path d="m103.735 125.405-4.744-.05 1.4 5.697 3.444 4.192z" style="fill:#404040;fill-opacity:1;stroke-width:6.9223" transform="translate(89.328)"/><g transform="translate(72.564 -47.54)scale(.50912)"><path d="M131.198 198.43s-1.694-47.742 3.234-55.443c4.928-7.7 10.318-9.702 16.325-9.394s17.248 2.31 16.786 20.79c-.462 18.482-.308 44.817-.308 44.817z" style="fill:#051d19;fill-opacity:1;stroke-width:9.18707"/><path d="M130.529 153.853h3.144v47.57h-3.144zm35.466 0h3.144v47.57h-3.144z" style="display:inline;fill:#51341c;fill-opacity:1;stroke-width:.104083"/><path d="M147.906 153.804h3.898v47.57h-3.898z" style="display:inline;fill:#51341c;fill-opacity:1;stroke-width:.115902"/><path d="M130.518 196.688h38.606v4.713h-38.606z" style="display:inline;fill:#51341c;fill-opacity:1;stroke-width:.0990401"/><path d="M130.44 153.804h38.695v2.953H130.44z" style="display:inline;fill:#51341c;fill-opacity:1;stroke-width:.0784799"/><path d="M149.718 130.97c-1.385-.02-7.28.222-12.94 5.426-7.384 6.788-6.249 17.457-6.249 17.457 1.377-.008 2.754-.01 4.131-.015h-1.063s-.467-7.3 4.21-12.75c4.143-4.826 7.948-5.688 12.138-5.936.016-.002.024-.002.069-.002.026.002.035 0 .084.002 4.19.248 7.996 1.11 12.139 5.937 4.677 5.45 3.758 12.764 3.758 12.764l-.414-.008 3.6.007s1.136-10.67-6.247-17.457c-1.641-1.509-5.901-5.318-13.216-5.426zm15.863 22.876a4829 4829 0 0 0-30.92-.008z" style="display:inline;fill:#51341c;fill-opacity:1;stroke-width:.100759"/><path d="M140.828 156.756h.499v39.932h-.499zm17.517 0h.499v39.932h-.499z" style="display:inline;fill:#51341c;fill-opacity:1;stroke-width:.0379868"/><path d="M171.628-167.667h.499v35.413h-.499z" style="display:inline;fill:#51341c;fill-opacity:1;stroke-width:.0357725" transform="rotate(90)"/><path d="M166.002 156.756h.812v39.932h-.812z" style="display:inline;fill:#8a5b33;fill-opacity:1;stroke-width:.0484644"/><path d="M149.449 153.853h.812v45.13h-.812z" style="display:inline;fill:#382413;fill-opacity:1;stroke-width:.0515228"/><path d="M149.72 145.344c-.737-.011-3.612.077-5.87 2.216-2.922 2.768-3.062 6.236-2.99 6.187l.601.002c.02-.632.42-3.38 2.797-5.63 2.105-1.994 4.784-2.076 5.471-2.066.07 0 .09.002.116.004l.116-.004c.687-.01 3.366.072 5.471 2.065 2.377 2.251 2.778 5 2.797 5.63l.602-.001c.071.05-.068-3.42-2.99-6.187-2.259-2.139-5.134-2.227-5.871-2.216l-.125.004c-.028-.002-.05-.002-.124-.004" style="display:inline;fill:#51341c;fill-opacity:1;stroke-width:.100759"/><path d="M149.97 135.132h.499v10.212h-.499z" style="display:inline;fill:#51341c;fill-opacity:1;stroke-width:.01921"/><path d="M211.419-62.536h.476v8.495h-.476z" style="display:inline;fill:#51341c;fill-opacity:1;stroke-width:.0151594" transform="matrix(.53082 .84749 -.83858 .54477 0 0)"/><rect width=".535" height="8.292" x="47.616" y="191.662" ry="0" style="display:inline;fill:#51341c;fill-opacity:1;stroke-width:.0151594" transform="matrix(-.53082 .84749 .83858 .54477 0 0)"/><path d="M150.22 135.132q.263.033.527.073c3.936.305 7.563 1.308 11.49 5.884 4.665 5.436 3.763 12.721 3.759 12.758l.818.002c.619-8.715-4.194-16.72-12.56-18.415-1.172-.237-4.035-.301-4.035-.301zm15.776 18.715-.415-.001.267.005h.147zm-.415-.001-1.2-.002v.002zm-15.32-.026v.022l13.455.003q-6.727-.017-13.455-.025" style="display:inline;fill:#8a5b33;fill-opacity:1;stroke-width:.100759"/><path d="M198.921-169.134h.499v38.614h-.499z" style="display:inline;fill:#382413;fill-opacity:1;stroke-width:.0373545" transform="rotate(90)"/></g></svg>