<?xml version="1.0" encoding="UTF-8" standalone="no"?>
<!-- Created with Inkscape (http://www.inkscape.org/) -->

<svg
   width="880"
   height="250"
   viewBox="0 0 232.83332 66.145837"
   version="1.1"
   id="svg1"
   inkscape:version="1.4 (86a8ad7, 2024-10-11)"
   sodipodi:docname="house-roof-day.svg"
   xmlns:inkscape="http://www.inkscape.org/namespaces/inkscape"
   xmlns:sodipodi="http://sodipodi.sourceforge.net/DTD/sodipodi-0.dtd"
   xmlns="http://www.w3.org/2000/svg"
   xmlns:svg="http://www.w3.org/2000/svg">
  <sodipodi:namedview
     id="namedview1"
     pagecolor="#505050"
     bordercolor="#eeeeee"
     borderopacity="1"
     inkscape:showpageshadow="0"
     inkscape:pageopacity="0"
     inkscape:pagecheckerboard="0"
     inkscape:deskcolor="#505050"
     inkscape:document-units="mm"
     inkscape:zoom="1"
     inkscape:cx="318.5"
     inkscape:cy="218.5"
     inkscape:window-width="1920"
     inkscape:window-height="1001"
     inkscape:window-x="-9"
     inkscape:window-y="-9"
     inkscape:window-maximized="1"
     inkscape:current-layer="g153" />
  <defs
     id="defs1">
    <inkscape:path-effect
       effect="fillet_chamfer"
       id="path-effect301"
       is_visible="true"
       lpeversion="1"
       nodesatellites_param="F,0,0,1,0,0,0,1 @ F,0,0,1,0,0,0,1 @ F,0,0,1,0,0,0,1 @ F,0,0,1,0,0,0,1"
       radius="0"
       unit="px"
       method="auto"
       mode="F"
       chamfer_steps="1"
       flexible="false"
       use_knot_distance="true"
       apply_no_radius="true"
       apply_with_radius="true"
       only_selected="false"
       hide_knots="false" />
    <inkscape:path-effect
       effect="fillet_chamfer"
       id="path-effect299"
       is_visible="true"
       lpeversion="1"
       nodesatellites_param="F,0,0,1,0,0,0,1 @ F,0,0,1,0,0,0,1 @ F,0,0,1,0,0,0,1 @ F,0,0,1,0,0,0,1"
       radius="0"
       unit="px"
       method="auto"
       mode="F"
       chamfer_steps="1"
       flexible="false"
       use_knot_distance="true"
       apply_no_radius="true"
       apply_with_radius="true"
       only_selected="false"
       hide_knots="false" />
  </defs>
  <g
     inkscape:label="Layer 1"
     inkscape:groupmode="layer"
     id="layer1">
    <path
       id="rect74"
       style="fill:#874949;fill-opacity:1;stroke-width:4.82499"
       d="M 15.422245,15.556349 H 218.72764 l 10.4603,41.304791 H 4.8278347 Z"
       sodipodi:nodetypes="ccccc" />
    <rect
       style="fill:#6a3939;fill-opacity:1;stroke-width:6.17492"
       id="rect99"
       width="221.04311"
       height="0.71120685"
       x="6.3604684"
       y="50.148914" />
    <rect
       style="fill:#6a3939;fill-opacity:1;stroke-width:6.12602"
       id="rect100"
       width="217.55634"
       height="0.71120685"
       x="8.2379599"
       y="43.845909" />
    <rect
       style="fill:#6a3939;fill-opacity:1;stroke-width:6.07864"
       id="rect101"
       width="214.20367"
       height="0.71120685"
       x="9.9142904"
       y="37.408802" />
    <rect
       style="fill:#6a3939;fill-opacity:1;stroke-width:6.03855"
       id="rect102"
       width="211.38745"
       height="0.71120685"
       x="11.32241"
       y="31.105797" />
    <rect
       style="fill:#6a3939;fill-opacity:1;stroke-width:5.99143"
       id="rect103"
       width="208.10184"
       height="0.71120685"
       x="12.79758"
       y="25.473328" />
    <rect
       style="fill:#6a3939;fill-opacity:1;stroke-width:5.94493"
       id="rect104"
       width="204.88329"
       height="0.71120685"
       x="14.608016"
       y="19.170322" />
    <path
       id="rect105"
       style="fill:#aa6a60;fill-opacity:1;stroke-width:7.22729"
       d="M 15.426171,15.332782 17.022316,15.573036 6.5212619,56.858399 4.8319754,56.618145 Z"
       sodipodi:nodetypes="ccccc" />
    <path
       style="fill:#9b5d53;fill-opacity:1;stroke-width:8.18915"
       d="m 29.593226,50.433399 c -0.474139,-1.738888 -1.51724,-6.607774 -1.51724,-6.607774 l 2.797413,0.04968 z"
       id="path112" />
    <path
       style="fill:#9b5d53;fill-opacity:1;stroke-width:8.18915"
       d="m 30.800184,43.996289 c -0.474139,-1.738888 -1.51724,-6.607774 -1.51724,-6.607774 l 2.797413,0.04968 z"
       id="path113" />
    <path
       style="fill:#9b5d53;fill-opacity:1;stroke-width:8.18915"
       d="m 32.007142,37.726812 c -0.474139,-1.738888 -1.51724,-6.607774 -1.51724,-6.607774 l 2.797413,0.04968 z"
       id="path114" />
    <path
       style="fill:#9b5d53;fill-opacity:1;stroke-width:8.18915"
       d="M 28.692364,56.881675 C 28.218225,55.142787 26.985468,50.13166 26.985468,50.13166 l 2.678879,0.02597 z"
       id="path115"
       sodipodi:nodetypes="cccc" />
    <path
       style="fill:#9b5d53;fill-opacity:1;stroke-width:8.18915"
       d="m 33.11352,31.993761 c -0.474139,-1.738888 -1.51724,-6.607774 -1.51724,-6.607774 l 2.797413,0.04968 z"
       id="path116" />
    <path
       style="fill:#9b5d53;fill-opacity:1;stroke-width:8.18915"
       d="m 34.320478,25.690758 c -0.474139,-1.738888 -1.51724,-6.607774 -1.51724,-6.607774 l 2.797413,0.04968 z"
       id="path117" />
    <path
       style="fill:#9b5d53;fill-opacity:1;stroke-width:8.18915"
       d="M 35.259223,20.628239 C 34.785084,18.889351 33.57435,15.428583 33.57435,15.428583 l 2.797413,0.04968 z"
       id="path118"
       sodipodi:nodetypes="cccc" />
    <path
       style="fill:#9b5d53;fill-opacity:1;stroke-width:8.18915"
       d="m 19.139183,50.433399 c -0.474139,-1.738888 -1.51724,-6.607774 -1.51724,-6.607774 l 2.797413,0.04968 z"
       id="path125" />
    <path
       style="fill:#9b5d53;fill-opacity:1;stroke-width:8.18915"
       d="m 20.346141,43.996289 c -0.474139,-1.738888 -1.51724,-6.607774 -1.51724,-6.607774 l 2.797413,0.04968 z"
       id="path126" />
    <path
       style="fill:#9b5d53;fill-opacity:1;stroke-width:8.18915"
       d="m 21.553099,37.726812 c -0.474139,-1.738888 -1.51724,-6.607774 -1.51724,-6.607774 l 2.797413,0.04968 z"
       id="path127" />
    <path
       style="fill:#9b5d53;fill-opacity:1;stroke-width:8.18915"
       d="M 18.238321,56.881675 C 17.764182,55.142787 16.531425,50.13166 16.531425,50.13166 l 2.678879,0.02597 z"
       id="path128"
       sodipodi:nodetypes="cccc" />
    <path
       style="fill:#9b5d53;fill-opacity:1;stroke-width:8.18915"
       d="m 22.659477,31.993761 c -0.474139,-1.738888 -1.51724,-6.607774 -1.51724,-6.607774 l 2.797413,0.04968 z"
       id="path129" />
    <path
       style="fill:#9b5d53;fill-opacity:1;stroke-width:8.18915"
       d="m 23.866435,25.690758 c -0.474139,-1.738888 -1.51724,-6.607774 -1.51724,-6.607774 l 2.797413,0.04968 z"
       id="path130" />
    <path
       style="fill:#9b5d53;fill-opacity:1;stroke-width:8.18915"
       d="m 24.80518,20.628239 c -0.474139,-1.738888 -1.684873,-5.199656 -1.684873,-5.199656 l 2.797413,0.04968 z"
       id="path131"
       sodipodi:nodetypes="cccc" />
    <path
       style="fill:#9b5d53;fill-opacity:1;stroke-width:8.18915"
       d="m 39.64495,50.433399 c -0.474139,-1.738888 -1.51724,-6.607774 -1.51724,-6.607774 l 2.797413,0.04968 z"
       id="path132" />
    <path
       style="fill:#9b5d53;fill-opacity:1;stroke-width:8.18915"
       d="m 40.851908,43.996289 c -0.474139,-1.738888 -1.51724,-6.607774 -1.51724,-6.607774 l 2.797413,0.04968 z"
       id="path133" />
    <path
       style="fill:#9b5d53;fill-opacity:1;stroke-width:8.18915"
       d="m 42.058866,37.726812 c -0.474139,-1.738888 -1.51724,-6.607774 -1.51724,-6.607774 l 2.797413,0.04968 z"
       id="path134" />
    <path
       style="fill:#9b5d53;fill-opacity:1;stroke-width:8.18915"
       d="M 38.744088,56.881675 C 38.269949,55.142787 37.037192,50.13166 37.037192,50.13166 l 2.678879,0.02597 z"
       id="path135"
       sodipodi:nodetypes="cccc" />
    <path
       style="fill:#9b5d53;fill-opacity:1;stroke-width:8.18915"
       d="m 43.165244,31.993761 c -0.474139,-1.738888 -1.51724,-6.607774 -1.51724,-6.607774 l 2.797413,0.04968 z"
       id="path136" />
    <path
       style="fill:#9b5d53;fill-opacity:1;stroke-width:8.18915"
       d="m 44.372202,25.690758 c -0.474139,-1.738888 -1.51724,-6.607774 -1.51724,-6.607774 l 2.797413,0.04968 z"
       id="path137" />
    <path
       style="fill:#9b5d53;fill-opacity:1;stroke-width:8.18915"
       d="m 45.310947,20.628239 c -0.474139,-1.738888 -1.684873,-5.199656 -1.684873,-5.199656 l 2.797413,0.04968 z"
       id="path138"
       sodipodi:nodetypes="cccc" />
    <rect
       style="fill:#ffffff;fill-opacity:1;stroke-width:6.46178"
       id="rect139"
       width="226.82759"
       height="4.1724133"
       x="3.5156426"
       y="56.739433" />
    <path
       style="fill:#9b5d53;fill-opacity:1;stroke-width:8.18915"
       d="m 50.775786,50.433399 c -0.474139,-1.738888 -1.51724,-6.607774 -1.51724,-6.607774 l 2.797413,0.04968 z"
       id="path156" />
    <path
       style="fill:#9b5d53;fill-opacity:1;stroke-width:8.18915"
       d="m 51.982744,43.996289 c -0.474139,-1.738888 -1.51724,-6.607774 -1.51724,-6.607774 l 2.797413,0.04968 z"
       id="path157" />
    <path
       style="fill:#9b5d53;fill-opacity:1;stroke-width:8.18915"
       d="m 53.189702,37.726812 c -0.474139,-1.738888 -1.51724,-6.607774 -1.51724,-6.607774 l 2.797413,0.04968 z"
       id="path158" />
    <path
       style="fill:#9b5d53;fill-opacity:1;stroke-width:8.18915"
       d="M 49.874924,56.881675 C 49.400785,55.142787 48.168028,50.13166 48.168028,50.13166 l 2.678879,0.02597 z"
       id="path159"
       sodipodi:nodetypes="cccc" />
    <path
       style="fill:#9b5d53;fill-opacity:1;stroke-width:8.18915"
       d="m 54.29608,31.993761 c -0.474139,-1.738888 -1.51724,-6.607774 -1.51724,-6.607774 l 2.797413,0.04968 z"
       id="path160" />
    <path
       style="fill:#9b5d53;fill-opacity:1;stroke-width:8.18915"
       d="m 55.503038,25.690758 c -0.474139,-1.738888 -1.51724,-6.607774 -1.51724,-6.607774 l 2.797413,0.04968 z"
       id="path161" />
    <path
       style="fill:#9b5d53;fill-opacity:1;stroke-width:8.18915"
       d="M 56.441783,20.628239 C 55.967644,18.889351 54.75691,15.428583 54.75691,15.428583 l 2.797413,0.04968 z"
       id="path162"
       sodipodi:nodetypes="cccc" />
    <path
       style="fill:#9b5d53;fill-opacity:1;stroke-width:8.18915"
       d="m 61.772515,50.433399 c -0.474139,-1.738888 -1.51724,-6.607774 -1.51724,-6.607774 l 2.797413,0.04968 z"
       id="path163" />
    <path
       style="fill:#9b5d53;fill-opacity:1;stroke-width:8.18915"
       d="m 62.979473,43.996289 c -0.474139,-1.738888 -1.51724,-6.607774 -1.51724,-6.607774 l 2.797413,0.04968 z"
       id="path164" />
    <path
       style="fill:#9b5d53;fill-opacity:1;stroke-width:8.18915"
       d="m 64.186431,37.726812 c -0.474139,-1.738888 -1.51724,-6.607774 -1.51724,-6.607774 l 2.797413,0.04968 z"
       id="path165" />
    <path
       style="fill:#9b5d53;fill-opacity:1;stroke-width:8.18915"
       d="M 60.871653,56.881675 C 60.397514,55.142787 59.164757,50.13166 59.164757,50.13166 l 2.678879,0.02597 z"
       id="path166"
       sodipodi:nodetypes="cccc" />
    <path
       style="fill:#9b5d53;fill-opacity:1;stroke-width:8.18915"
       d="m 65.292809,31.993761 c -0.474139,-1.738888 -1.51724,-6.607774 -1.51724,-6.607774 l 2.797413,0.04968 z"
       id="path167" />
    <path
       style="fill:#9b5d53;fill-opacity:1;stroke-width:8.18915"
       d="m 66.499767,25.690758 c -0.474139,-1.738888 -1.51724,-6.607774 -1.51724,-6.607774 l 2.797413,0.04968 z"
       id="path168" />
    <path
       style="fill:#9b5d53;fill-opacity:1;stroke-width:8.18915"
       d="m 67.438512,20.628239 c -0.474139,-1.738888 -1.684873,-5.199656 -1.684873,-5.199656 l 2.797413,0.04968 z"
       id="path169"
       sodipodi:nodetypes="cccc" />
    <path
       style="fill:#9b5d53;fill-opacity:1;stroke-width:8.18915"
       d="M 72.63514,50.433399 C 72.161,48.694511 71.1179,43.825625 71.1179,43.825625 l 2.79741,0.04968 z"
       id="path170" />
    <path
       style="fill:#9b5d53;fill-opacity:1;stroke-width:8.18915"
       d="m 73.8421,43.996289 c -0.47414,-1.738888 -1.51724,-6.607774 -1.51724,-6.607774 l 2.79741,0.04968 z"
       id="path171" />
    <path
       style="fill:#9b5d53;fill-opacity:1;stroke-width:8.18915"
       d="m 75.04905,37.726812 c -0.47414,-1.738888 -1.51724,-6.607774 -1.51724,-6.607774 l 2.79742,0.04968 z"
       id="path172" />
    <path
       style="fill:#9b5d53;fill-opacity:1;stroke-width:8.18915"
       d="m 71.73428,56.881675 c -0.47414,-1.738888 -1.7069,-6.750015 -1.7069,-6.750015 l 2.67888,0.02597 z"
       id="path173"
       sodipodi:nodetypes="cccc" />
    <path
       style="fill:#9b5d53;fill-opacity:1;stroke-width:8.18915"
       d="m 76.15543,31.993761 c -0.47414,-1.738888 -1.51724,-6.607774 -1.51724,-6.607774 l 2.79741,0.04968 z"
       id="path174" />
    <path
       style="fill:#9b5d53;fill-opacity:1;stroke-width:8.18915"
       d="M 77.36239,25.690758 C 76.88825,23.95187 75.84515,19.082984 75.84515,19.082984 l 2.79741,0.04968 z"
       id="path175" />
    <path
       style="fill:#9b5d53;fill-opacity:1;stroke-width:8.18915"
       d="M 78.30113,20.628239 C 77.827,18.889351 76.61626,15.428583 76.61626,15.428583 l 2.79741,0.04968 z"
       id="path176"
       sodipodi:nodetypes="cccc" />
    <path
       style="fill:#9b5d53;fill-opacity:1;stroke-width:8.18915"
       d="m 83.98245,50.480222 c -0.51661,-1.726744 -1.67873,-6.568601 -1.67873,-6.568601 l 2.79778,-0.0189 z"
       id="path177" />
    <path
       style="fill:#9b5d53;fill-opacity:1;stroke-width:8.18915"
       d="m 85.03128,44.015463 c -0.51662,-1.726744 -1.67874,-6.568601 -1.67874,-6.568601 l 2.79779,-0.0189 z"
       id="path178" />
    <path
       style="fill:#9b5d53;fill-opacity:1;stroke-width:8.18915"
       d="m 86.0842,37.718288 c -0.51661,-1.726745 -1.67874,-6.568602 -1.67874,-6.568602 l 2.7978,-0.0189 z"
       id="path179" />
    <path
       style="fill:#9b5d53;fill-opacity:1;stroke-width:8.18915"
       d="M 83.23991,56.948641 C 82.72329,55.221896 81.36808,50.24249 81.36808,50.24249 l 2.67871,-0.0397 z"
       id="path180"
       sodipodi:nodetypes="cccc" />
    <path
       style="fill:#9b5d53;fill-opacity:1;stroke-width:8.18915"
       d="M 87.04973,31.959842 C 86.53312,30.233097 85.37099,25.39124 85.37099,25.39124 l 2.79779,-0.0189 z"
       id="path181" />
    <path
       style="fill:#9b5d53;fill-opacity:1;stroke-width:8.18915"
       d="m 88.10185,25.62915 c -0.51662,-1.726745 -1.67874,-6.568602 -1.67874,-6.568602 l 2.79778,-0.0189 z"
       id="path182" />
    <path
       style="fill:#9b5d53;fill-opacity:1;stroke-width:8.18915"
       d="m 88.91622,20.545143 c -0.5166,-1.726744 -1.8118,-5.156798 -1.8118,-5.156798 l 2.79778,-0.0189 z"
       id="path183"
       sodipodi:nodetypes="cccc" />
    <path
       style="fill:#9b5d53;fill-opacity:1;stroke-width:8.18915"
       d="M 95.2092,50.523297 C 94.64271,48.812266 93.34062,44.006158 93.34062,44.006158 L 96.13668,43.90611 Z"
       id="path190" />
    <path
       style="fill:#9b5d53;fill-opacity:1;stroke-width:8.18915"
       d="m 96.07005,44.030833 c -0.5665,-1.711031 -1.86858,-6.517138 -1.86858,-6.517138 l 2.79606,-0.100049 z"
       id="path191" />
    <path
       style="fill:#9b5d53;fill-opacity:1;stroke-width:8.18915"
       d="m 96.93986,37.705763 c -0.5665,-1.711031 -1.86859,-6.517138 -1.86859,-6.517138 l 2.79607,-0.100049 z"
       id="path192" />
    <path
       style="fill:#9b5d53;fill-opacity:1;stroke-width:8.18915"
       d="m 94.65462,57.010533 c -0.56649,-1.71103 -2.06559,-6.649028 -2.06559,-6.649028 l 2.67644,-0.117391 z"
       id="path193"
       sodipodi:nodetypes="cccc" />
    <path
       style="fill:#9b5d53;fill-opacity:1;stroke-width:8.18915"
       d="M 97.73793,31.921731 C 97.17143,30.2107 95.86935,25.404593 95.86935,25.404593 l 2.79606,-0.100049 z"
       id="path194" />
    <path
       style="fill:#9b5d53;fill-opacity:1;stroke-width:8.18915"
       d="m 98.60595,25.563183 c -0.56649,-1.711031 -1.86859,-6.517138 -1.86859,-6.517138 l 2.79607,-0.100049 z"
       id="path195" />
    <path
       style="fill:#9b5d53;fill-opacity:1;stroke-width:8.18915"
       d="M 99.2725,20.457691 C 98.70602,18.74666 97.31186,15.355623 97.31186,15.355623 l 2.79606,-0.100049 z"
       id="path196"
       sodipodi:nodetypes="cccc" />
    <path
       style="fill:#a9695f;fill-opacity:1;stroke-width:8.18915"
       d="m 205.46212,50.433399 c 0.47414,-1.738888 1.51724,-6.607774 1.51724,-6.607774 l -2.79741,0.04968 z"
       id="path197" />
    <path
       style="fill:#a9695f;fill-opacity:1;stroke-width:8.18915"
       d="m 204.25516,43.996289 c 0.47414,-1.738888 1.51724,-6.607774 1.51724,-6.607774 l -2.79741,0.04968 z"
       id="path198" />
    <path
       style="fill:#a9695f;fill-opacity:1;stroke-width:8.18915"
       d="m 203.0482,37.726812 c 0.47414,-1.738888 1.51724,-6.607774 1.51724,-6.607774 l -2.79741,0.04968 z"
       id="path199" />
    <path
       style="fill:#a9695f;fill-opacity:1;stroke-width:8.18915"
       d="m 206.36298,56.881675 c 0.47414,-1.738888 1.7069,-6.750015 1.7069,-6.750015 l -2.67888,0.02597 z"
       id="path200"
       sodipodi:nodetypes="cccc" />
    <path
       style="fill:#a9695f;fill-opacity:1;stroke-width:8.18915"
       d="m 201.94182,31.993761 c 0.47414,-1.738888 1.51724,-6.607774 1.51724,-6.607774 l -2.79741,0.04968 z"
       id="path201" />
    <path
       style="fill:#a9695f;fill-opacity:1;stroke-width:8.18915"
       d="m 200.73487,25.690758 c 0.47414,-1.738888 1.51724,-6.607774 1.51724,-6.607774 l -2.79742,0.04968 z"
       id="path202" />
    <path
       style="fill:#a9695f;fill-opacity:1;stroke-width:8.18915"
       d="m 199.79612,20.628239 c 0.47414,-1.738888 1.68487,-5.199656 1.68487,-5.199656 l -2.79741,0.04968 z"
       id="path203"
       sodipodi:nodetypes="cccc" />
    <path
       style="fill:#a9695f;fill-opacity:1;stroke-width:8.18915"
       d="m 215.91616,50.433399 c 0.47414,-1.738888 1.51724,-6.607774 1.51724,-6.607774 l -2.79741,0.04968 z"
       id="path204" />
    <path
       style="fill:#a9695f;fill-opacity:1;stroke-width:8.18915"
       d="m 214.7092,43.996289 c 0.47414,-1.738888 1.51724,-6.607774 1.51724,-6.607774 l -2.79741,0.04968 z"
       id="path205" />
    <path
       style="fill:#a9695f;fill-opacity:1;stroke-width:8.18915"
       d="m 213.50225,37.726812 c 0.47413,-1.738888 1.51724,-6.607774 1.51724,-6.607774 l -2.79742,0.04968 z"
       id="path206" />
    <path
       style="fill:#a9695f;fill-opacity:1;stroke-width:8.18915"
       d="m 216.81702,56.881675 c 0.47414,-1.738888 1.7069,-6.750015 1.7069,-6.750015 l -2.67888,0.02597 z"
       id="path207"
       sodipodi:nodetypes="cccc" />
    <path
       style="fill:#a9695f;fill-opacity:1;stroke-width:8.18915"
       d="m 212.39587,31.993761 c 0.47414,-1.738888 1.51724,-6.607774 1.51724,-6.607774 l -2.79742,0.04968 z"
       id="path208" />
    <path
       style="fill:#a9695f;fill-opacity:1;stroke-width:8.18915"
       d="m 211.18891,25.690758 c 0.47414,-1.738888 1.51724,-6.607774 1.51724,-6.607774 l -2.79741,0.04968 z"
       id="path209" />
    <path
       style="fill:#a9695f;fill-opacity:1;stroke-width:8.18915"
       d="m 210.25016,20.628239 c 0.47414,-1.738888 1.68488,-5.199656 1.68488,-5.199656 l -2.79742,0.04968 z"
       id="path210"
       sodipodi:nodetypes="cccc" />
    <path
       style="fill:#a9695f;fill-opacity:1;stroke-width:8.18915"
       d="m 195.41039,50.433399 c 0.47414,-1.738888 1.51724,-6.607774 1.51724,-6.607774 l -2.79741,0.04968 z"
       id="path211" />
    <path
       style="fill:#a9695f;fill-opacity:1;stroke-width:8.18915"
       d="m 194.20344,43.996289 c 0.47414,-1.738888 1.51724,-6.607774 1.51724,-6.607774 l -2.79742,0.04968 z"
       id="path212" />
    <path
       style="fill:#a9695f;fill-opacity:1;stroke-width:8.18915"
       d="m 192.99648,37.726812 c 0.47414,-1.738888 1.51724,-6.607774 1.51724,-6.607774 l -2.79741,0.04968 z"
       id="path213" />
    <path
       style="fill:#a9695f;fill-opacity:1;stroke-width:8.18915"
       d="m 196.31126,56.881675 c 0.47414,-1.738888 1.70689,-6.750015 1.70689,-6.750015 l -2.67888,0.02597 z"
       id="path214"
       sodipodi:nodetypes="cccc" />
    <path
       style="fill:#a9695f;fill-opacity:1;stroke-width:8.18915"
       d="m 191.8901,31.993761 c 0.47414,-1.738888 1.51724,-6.607774 1.51724,-6.607774 l -2.79741,0.04968 z"
       id="path215" />
    <path
       style="fill:#a9695f;fill-opacity:1;stroke-width:8.18915"
       d="m 190.68314,25.690758 c 0.47414,-1.738888 1.51724,-6.607774 1.51724,-6.607774 l -2.79741,0.04968 z"
       id="path216" />
    <path
       style="fill:#a9695f;fill-opacity:1;stroke-width:8.18915"
       d="m 189.7444,20.628239 c 0.47414,-1.738888 1.68487,-5.199656 1.68487,-5.199656 l -2.79741,0.04968 z"
       id="path217"
       sodipodi:nodetypes="cccc" />
    <path
       style="fill:#a9695f;fill-opacity:1;stroke-width:8.18915"
       d="m 184.27956,50.433399 c 0.47414,-1.738888 1.51724,-6.607774 1.51724,-6.607774 l -2.79741,0.04968 z"
       id="path218" />
    <path
       style="fill:#a9695f;fill-opacity:1;stroke-width:8.18915"
       d="m 183.0726,43.996289 c 0.47414,-1.738888 1.51724,-6.607774 1.51724,-6.607774 l -2.79741,0.04968 z"
       id="path219" />
    <path
       style="fill:#a9695f;fill-opacity:1;stroke-width:8.18915"
       d="m 181.86564,37.726812 c 0.47414,-1.738888 1.51724,-6.607774 1.51724,-6.607774 l -2.79741,0.04968 z"
       id="path220" />
    <path
       style="fill:#a9695f;fill-opacity:1;stroke-width:8.18915"
       d="m 185.18042,56.881675 c 0.47414,-1.738888 1.7069,-6.750015 1.7069,-6.750015 l -2.67888,0.02597 z"
       id="path221"
       sodipodi:nodetypes="cccc" />
    <path
       style="fill:#a9695f;fill-opacity:1;stroke-width:8.18915"
       d="m 180.75926,31.993761 c 0.47414,-1.738888 1.51724,-6.607774 1.51724,-6.607774 l -2.79741,0.04968 z"
       id="path222" />
    <path
       style="fill:#a9695f;fill-opacity:1;stroke-width:8.18915"
       d="m 179.55231,25.690758 c 0.47414,-1.738888 1.51724,-6.607774 1.51724,-6.607774 l -2.79742,0.04968 z"
       id="path223" />
    <path
       style="fill:#a9695f;fill-opacity:1;stroke-width:8.18915"
       d="m 178.61356,20.628239 c 0.47414,-1.738888 1.68487,-5.199656 1.68487,-5.199656 l -2.79741,0.04968 z"
       id="path224"
       sodipodi:nodetypes="cccc" />
    <path
       style="fill:#a9695f;fill-opacity:1;stroke-width:8.18915"
       d="m 173.28283,50.433399 c 0.47414,-1.738888 1.51724,-6.607774 1.51724,-6.607774 l -2.79741,0.04968 z"
       id="path225" />
    <path
       style="fill:#a9695f;fill-opacity:1;stroke-width:8.18915"
       d="m 172.07587,43.996289 c 0.47414,-1.738888 1.51724,-6.607774 1.51724,-6.607774 l -2.79741,0.04968 z"
       id="path226" />
    <path
       style="fill:#a9695f;fill-opacity:1;stroke-width:8.18915"
       d="m 170.86891,37.726812 c 0.47414,-1.738888 1.51724,-6.607774 1.51724,-6.607774 l -2.79741,0.04968 z"
       id="path227" />
    <path
       style="fill:#a9695f;fill-opacity:1;stroke-width:8.18915"
       d="m 174.18369,56.881675 c 0.47414,-1.738888 1.7069,-6.750015 1.7069,-6.750015 l -2.67888,0.02597 z"
       id="path228"
       sodipodi:nodetypes="cccc" />
    <path
       style="fill:#a9695f;fill-opacity:1;stroke-width:8.18915"
       d="m 169.76254,31.993761 c 0.47413,-1.738888 1.51724,-6.607774 1.51724,-6.607774 l -2.79742,0.04968 z"
       id="path229" />
    <path
       style="fill:#a9695f;fill-opacity:1;stroke-width:8.18915"
       d="m 168.55558,25.690758 c 0.47414,-1.738888 1.51724,-6.607774 1.51724,-6.607774 l -2.79742,0.04968 z"
       id="path230" />
    <path
       style="fill:#a9695f;fill-opacity:1;stroke-width:8.18915"
       d="m 167.61683,20.628239 c 0.47414,-1.738888 1.68488,-5.199656 1.68488,-5.199656 l -2.79742,0.04968 z"
       id="path231"
       sodipodi:nodetypes="cccc" />
    <path
       style="fill:#a9695f;fill-opacity:1;stroke-width:8.18915"
       d="m 162.4202,50.433399 c 0.47414,-1.738888 1.51724,-6.607774 1.51724,-6.607774 l -2.79741,0.04968 z"
       id="path232" />
    <path
       style="fill:#a9695f;fill-opacity:1;stroke-width:8.18915"
       d="m 161.21324,43.996289 c 0.47414,-1.738888 1.51724,-6.607774 1.51724,-6.607774 l -2.79741,0.04968 z"
       id="path233" />
    <path
       style="fill:#a9695f;fill-opacity:1;stroke-width:8.18915"
       d="m 160.00629,37.726812 c 0.47414,-1.738888 1.51724,-6.607774 1.51724,-6.607774 l -2.79742,0.04968 z"
       id="path234" />
    <path
       style="fill:#a9695f;fill-opacity:1;stroke-width:8.18915"
       d="m 163.32106,56.881675 c 0.47414,-1.738888 1.7069,-6.750015 1.7069,-6.750015 l -2.67888,0.02597 z"
       id="path235"
       sodipodi:nodetypes="cccc" />
    <path
       style="fill:#a9695f;fill-opacity:1;stroke-width:8.18915"
       d="m 158.89991,31.993761 c 0.47414,-1.738888 1.51724,-6.607774 1.51724,-6.607774 l -2.79741,0.04968 z"
       id="path236" />
    <path
       style="fill:#a9695f;fill-opacity:1;stroke-width:8.18915"
       d="m 157.69295,25.690758 c 0.47414,-1.738888 1.51724,-6.607774 1.51724,-6.607774 l -2.79741,0.04968 z"
       id="path237" />
    <path
       style="fill:#a9695f;fill-opacity:1;stroke-width:8.18915"
       d="m 156.75421,20.628239 c 0.47413,-1.738888 1.68487,-5.199656 1.68487,-5.199656 l -2.79741,0.04968 z"
       id="path238"
       sodipodi:nodetypes="cccc" />
    <path
       style="fill:#a9695f;fill-opacity:1;stroke-width:8.18915"
       d="m 151.07289,50.480222 c 0.51661,-1.726744 1.67873,-6.568601 1.67873,-6.568601 l -2.79778,-0.0189 z"
       id="path239" />
    <path
       style="fill:#a9695f;fill-opacity:1;stroke-width:8.18915"
       d="m 150.02406,44.015463 c 0.51662,-1.726744 1.67874,-6.568601 1.67874,-6.568601 l -2.79779,-0.0189 z"
       id="path240" />
    <path
       style="fill:#a9695f;fill-opacity:1;stroke-width:8.18915"
       d="m 148.97114,37.718288 c 0.51661,-1.726745 1.67874,-6.568602 1.67874,-6.568602 l -2.7978,-0.0189 z"
       id="path241" />
    <path
       style="fill:#a9695f;fill-opacity:1;stroke-width:8.18915"
       d="m 151.81543,56.948641 c 0.51662,-1.726745 1.87183,-6.706151 1.87183,-6.706151 l -2.67871,-0.0397 z"
       id="path242"
       sodipodi:nodetypes="cccc" />
    <path
       style="fill:#a9695f;fill-opacity:1;stroke-width:8.18915"
       d="m 148.00561,31.959842 c 0.51661,-1.726745 1.67874,-6.568602 1.67874,-6.568602 l -2.79779,-0.0189 z"
       id="path243" />
    <path
       style="fill:#a9695f;fill-opacity:1;stroke-width:8.18915"
       d="m 146.95349,25.62915 c 0.51662,-1.726745 1.67874,-6.568602 1.67874,-6.568602 l -2.79778,-0.0189 z"
       id="path244" />
    <path
       style="fill:#a9695f;fill-opacity:1;stroke-width:8.18915"
       d="m 146.13912,20.545143 c 0.5166,-1.726744 1.8118,-5.156798 1.8118,-5.156798 l -2.79778,-0.0189 z"
       id="path245"
       sodipodi:nodetypes="cccc" />
    <path
       style="fill:#a9695f;fill-opacity:1;stroke-width:8.18915"
       d="m 139.84614,50.523297 c 0.56649,-1.711031 1.86858,-6.517139 1.86858,-6.517139 l -2.79606,-0.100048 z"
       id="path246" />
    <path
       style="fill:#a9695f;fill-opacity:1;stroke-width:8.18915"
       d="m 138.98529,44.030833 c 0.5665,-1.711031 1.86858,-6.517138 1.86858,-6.517138 l -2.79606,-0.100049 z"
       id="path247" />
    <path
       style="fill:#a9695f;fill-opacity:1;stroke-width:8.18915"
       d="m 138.11548,37.705763 c 0.5665,-1.711031 1.86859,-6.517138 1.86859,-6.517138 L 137.188,31.088576 Z"
       id="path248" />
    <path
       style="fill:#a9695f;fill-opacity:1;stroke-width:8.18915"
       d="m 140.40072,57.010533 c 0.56649,-1.71103 2.06559,-6.649028 2.06559,-6.649028 l -2.67644,-0.117391 z"
       id="path249"
       sodipodi:nodetypes="cccc" />
    <path
       style="fill:#a9695f;fill-opacity:1;stroke-width:8.18915"
       d="m 137.31741,31.921731 c 0.5665,-1.711031 1.86858,-6.517138 1.86858,-6.517138 l -2.79606,-0.100049 z"
       id="path250" />
    <path
       style="fill:#a9695f;fill-opacity:1;stroke-width:8.18915"
       d="m 136.44939,25.563183 c 0.56649,-1.711031 1.86859,-6.517138 1.86859,-6.517138 l -2.79607,-0.100049 z"
       id="path251" />
    <path
       style="fill:#a9695f;fill-opacity:1;stroke-width:8.18915"
       d="m 135.78284,20.457691 c 0.56648,-1.711031 1.96064,-5.102068 1.96064,-5.102068 l -2.79606,-0.100049 z"
       id="path252"
       sodipodi:nodetypes="cccc" />
    <path
       id="path253"
       style="fill:#aa6a60;fill-opacity:1;stroke-width:7.22729"
       d="m 218.55742,15.332781 -1.59614,0.240255 10.50105,41.285363 1.68929,-0.240254 z"
       sodipodi:nodetypes="ccccc" />
    <path
       style="fill:#874949;fill-opacity:1;stroke-width:7.99999"
       d="M 102.18912,18.104371 118.28189,4.5596195 132.76539,18.238477 Z"
       id="path271" />
    <rect
       style="fill:#aa6a60;fill-opacity:1;stroke-width:7.99998"
       id="rect154"
       width="26.150759"
       height="40.500149"
       x="104.42527"
       y="16.267956" />
    <path
       id="rect271"
       style="fill:#ffffff;stroke-width:8.10763"
       d="M 117.51289,1.6766273 119.31927,3.9807339 101.77675,18.830968 99.78072,16.47944 Z"
       sodipodi:nodetypes="ccccc" />
    <path
       id="path272"
       style="fill:#ffffff;stroke-width:8.10763"
       d="m 117.47072,1.7714549 -1.80638,2.3041066 17.54251,14.8502335 1.99604,-2.351528 z"
       sodipodi:nodetypes="ccccc" />
    <path
       style="fill:#33322f;fill-opacity:0.48;stroke-width:7.99999"
       d="m 117.47725,5.6995242 -12.606,10.6614628 6.90648,-1.139905 7.50996,-5.4313108 11.26494,15.2881358 v -8.783973 z"
       id="path296" />
  </g>
  <g
     inkscape:groupmode="layer"
     id="g153"
     inkscape:label="window"
     transform="matrix(0.50912175,0,0,0.50912175,72.564431,-47.539705)">
    <path
       style="fill:#aef2e6;fill-opacity:1;stroke-width:9.18707"
       d="m 69.560591,197.37591 c 0,0 -1.69406,-47.74176 3.23412,-55.44205 4.92819,-7.70028 10.31839,-9.70236 16.32461,-9.39435 6.00622,0.30801 17.248639,2.31009 16.786619,20.79077 -0.46202,18.48069 -0.30801,44.81566 -0.30801,44.81566 z"
       id="path139" />
    <path
       id="path279"
       style="fill:#eafcf9;stroke-width:16.365"
       d="m 89.156602,132.15011 4.02129,2.02591 -16.94724,64.13971 -5.06168,-0.16335 z"
       sodipodi:nodetypes="ccccc" />
    <path
       id="path280"
       style="fill:#eafcf9;stroke-width:16.1974"
       d="m 96.382576,133.36078 4.012784,1.98884 -16.911387,62.96611 -5.050971,-0.16036 z"
       sodipodi:nodetypes="ccccc" />
    <path
       id="path281"
       style="fill:#eafcf9;stroke-width:16.365"
       d="m 105.54724,149.47203 1.22743,0.90836 -12.849578,46.63154 -2.26782,0.76794 z"
       sodipodi:nodetypes="ccccc" />
    <rect
       style="display:inline;fill:#764c28;fill-opacity:1;stroke-width:0.104083"
       id="rect140"
       width="3.1437685"
       height="47.569706"
       x="68.891747"
       y="152.7995"
       inkscape:label="ram-left" />
    <rect
       style="display:inline;fill:#764c28;fill-opacity:1;stroke-width:0.104083"
       id="rect141"
       width="3.1437685"
       height="47.569706"
       x="104.3578"
       y="152.7995"
       inkscape:label="ram-right" />
    <rect
       style="display:inline;fill:#764c28;fill-opacity:1;stroke-width:0.115902"
       id="rect142"
       width="3.8982728"
       height="47.569706"
       x="86.268517"
       y="152.74995"
       inkscape:label="ram-middle" />
    <rect
       style="display:inline;fill:#764c28;fill-opacity:1;stroke-width:0.0990401"
       id="rect143"
       width="38.606327"
       height="4.7130919"
       x="68.880577"
       y="195.63443"
       inkscape:label="ram-down" />
    <rect
       style="display:inline;fill:#764c28;fill-opacity:1;stroke-width:0.0784799"
       id="rect144"
       width="38.694553"
       height="2.9525812"
       x="68.802238"
       y="152.74995"
       inkscape:label="ram-up" />
    <path
       id="path144"
       style="display:inline;fill:#764c28;fill-opacity:1;stroke-width:0.100759"
       d="m 88.08081,129.91614 c -1.38535,-0.0206 -7.28059,0.22231 -12.94102,5.42602 -7.38347,6.78774 -6.24803,17.45726 -6.24803,17.45726 1.3771,-0.008 2.75421,-0.01 4.13131,-0.015 l -1.06309,-1.9e-4 c 0,0 -0.46778,-7.29914 4.20964,-12.74935 4.14257,-4.82699 7.94821,-5.68825 12.13849,-5.9367 0.0151,-0.002 0.024,-0.002 0.0685,-0.002 0.0263,0.002 0.0347,-2.6e-4 0.0844,0.002 4.19026,0.24845 7.99573,1.10972 12.13829,5.9367 4.67743,5.45021 3.75848,12.76457 3.75848,12.76457 l -0.41455,-0.008 c 1.20039,0.003 2.40077,0.005 3.60115,0.007 0,0 1.13544,-10.66952 -6.24803,-17.45726 -1.64112,-1.50871 -5.90087,-5.31736 -13.21555,-5.42602 z m 15.86244,22.876 c -10.30675,-0.0263 -20.61344,-0.0472 -30.92018,-0.008 z"
       sodipodi:nodetypes="sscccscccscccssccc"
       inkscape:label="ark-up-part" />
    <rect
       style="display:inline;fill:#764c28;fill-opacity:1;stroke-width:0.0379868"
       id="rect145"
       width="0.49884829"
       height="39.931885"
       x="79.190987"
       y="155.70255"
       inkscape:label="left-ontheglass" />
    <rect
       style="display:inline;fill:#764c28;fill-opacity:1;stroke-width:0.0379868"
       id="rect146"
       width="0.49884829"
       height="39.931885"
       x="96.707542"
       y="155.70255"
       inkscape:label="right-ontheglass" />
    <rect
       style="display:inline;fill:#764c28;fill-opacity:1;stroke-width:0.0357725"
       id="rect147"
       width="0.49884829"
       height="35.412617"
       x="170.57399"
       y="-106.02926"
       inkscape:label="vertical-ontheglass"
       transform="rotate(90)" />
    <rect
       style="display:inline;fill:#c9976e;fill-opacity:1;stroke-width:0.0484644"
       id="rect148"
       width="0.811988"
       height="39.931877"
       x="104.36437"
       y="155.70255"
       inkscape:label="shadow-ram-left-rightside" />
    <rect
       style="display:inline;fill:#5b3b1f;fill-opacity:1;stroke-width:0.0515228"
       id="rect149"
       width="0.811988"
       height="45.130455"
       x="87.811668"
       y="152.7995"
       inkscape:label="shadow-ram-middle" />
    <path
       id="path149"
       style="display:inline;fill:#764c28;fill-opacity:1;stroke-width:0.100759"
       d="m 88.08329,144.29059 c -0.73717,-0.0113 -3.61233,0.0772 -5.87098,2.21611 -2.92215,2.76725 -3.06174,6.23597 -2.9905,6.18644 l 0.60201,0.002 c 0.0194,-0.63164 0.42034,-3.3796 2.79723,-5.63049 2.10467,-1.9931 4.78379,-2.07571 5.4707,-2.06516 0.0691,7.7e-4 0.0899,0.002 0.1161,0.004 0.0261,-7.7e-4 0.047,-0.002 0.11611,-0.004 0.68691,-0.0105 3.36603,0.0721 5.4707,2.06516 2.37689,2.25089 2.77782,4.99885 2.79723,5.63049 l 0.602,-0.002 c 0.0712,0.0496 -0.0683,-3.41919 -2.99049,-6.18644 -2.25865,-2.13893 -5.13381,-2.22742 -5.87098,-2.21611 -0.0741,7.7e-4 -0.0965,0.002 -0.12457,0.004 -0.0281,-0.002 -0.0504,-0.002 -0.12456,-0.004 z"
       inkscape:label="little-ark" />
    <rect
       style="display:inline;fill:#764c28;fill-opacity:1;stroke-width:0.01921"
       id="rect150"
       width="0.49884829"
       height="10.211976"
       x="88.33242"
       y="134.07863"
       inkscape:label="perekladina-up" />
    <rect
       style="display:inline;fill:#764c28;fill-opacity:1;stroke-width:0.0151594"
       id="rect151"
       width="0.47570741"
       height="8.4951992"
       x="176.95198"
       y="-10.851502"
       inkscape:label="perekladina-right"
       transform="matrix(0.5308162,0.84748697,-0.83858265,0.5447744,0,0)" />
    <rect
       style="display:inline;fill:#764c28;fill-opacity:1;stroke-width:0.0151594"
       id="rect152"
       width="0.53521025"
       height="8.2918215"
       x="80.315483"
       y="138.8587"
       inkscape:label="perekladina-left"
       transform="matrix(-0.5308162,0.84748697,0.83858265,0.5447744,0,0)"
       ry="0" />
    <path
       id="path152"
       style="display:inline;fill:#c9976e;fill-opacity:1;stroke-width:0.100759"
       inkscape:label="ark-up-shadow"
       d="m 88.58185,134.07854 c 0.17641,0.0212 0.35218,0.0468 0.5278,0.0732 3.93555,0.30472 7.56314,1.30793 11.48967,5.88318 4.66573,5.43659 3.76351,12.72161 3.75897,12.758 0.27275,6.1e-4 0.54551,7.7e-4 0.81827,0.002 0.61883,-8.71407 -4.19396,-16.72017 -12.56042,-18.41467 -1.17113,-0.2372 -4.03429,-0.3013 -4.03429,-0.3013 z m 15.77644,18.71438 c -0.13835,-3e-4 -0.27669,-4.1e-4 -0.41504,-7.6e-4 l 0.26783,0.005 c 0.0423,1.2e-4 0.10303,2.6e-4 0.14681,3.7e-4 1e-5,-1e-5 3.9e-4,-0.005 3.9e-4,-0.005 z m -0.41504,-7.6e-4 c -0.39982,-7.7e-4 -0.79965,-0.002 -1.19947,-0.002 0,3e-5 0,0.002 0,0.002 z m -15.31968,-0.0254 v 0.0217 l 13.45505,0.003 c -4.48499,-0.0114 -8.97008,-0.0204 -13.45505,-0.025 z" />
    <rect
       style="display:inline;fill:#5b3b1f;fill-opacity:1;stroke-width:0.0373545"
       id="rect153"
       width="0.49884829"
       height="38.6143"
       x="197.86761"
       y="-107.4968"
       inkscape:label="shadow-dark-down"
       transform="rotate(90)" />
  </g>
</svg>
