<svg xmlns="http://www.w3.org/2000/svg" xml:space="preserve" width="170" height="170" viewBox="0 0 44.979 44.979"><g style="display:inline" transform="translate(-36.672 44.565)"><circle cx="59.01" cy="-22.33" r="19.058" style="fill:#5f5f5f;fill-opacity:1;stroke:#47280b;stroke-width:.8;stroke-dasharray:none;stroke-opacity:1"/><circle cx="58.915" cy="-22.332" r="8.957" style="fill:#fcff43;fill-opacity:1;stroke-width:.083175"/><path d="M55.276-35.67a2.292 1.275 76.49 0 0-.483.351l.964 4.013a2.292 1.275 76.49 0 0 .59.094 2.292 1.275 76.49 0 0 .5-.38l-.953-3.972a2.292 1.275 76.49 0 0-.618-.106" style="fill:#fcff43;fill-opacity:1;stroke-width:.147523"/><path d="M58.806-38.727c-.163 0-.324.1-.47.29l-.834 6.338c.147.19 1.244.202 1.408.203.17-.002 1.1-.01 1.252-.218l-.864-6.298c-.152-.207-.32-.315-.492-.315m16.572 16.321c.003-.164-.093-.327-.28-.478l-6.315-.984c-.194.142-.231 1.24-.237 1.403-.001.17-.017 1.1.189 1.257l6.317-.714c.21-.148.322-.314.326-.484m-32.936 0c-.003-.164.093-.327.28-.478l6.315-.984c.194.142.231 1.24.236 1.403.002.17.018 1.1-.188 1.257l-6.317-.714c-.21-.148-.322-.314-.326-.484m2.054-7.964c.077-.143.24-.24.476-.283l6.007 2.183c.101.218-.395 1.198-.47 1.343-.08.15-.515.972-.77 1.011l-5.19-3.671c-.113-.231-.131-.43-.053-.582m5.874-6.14c.14-.084.33-.084.554.001l4.028 4.963c-.025.24-.955.824-1.093.91-.147.088-.942.569-1.182.47l-2.56-5.818c.021-.256.108-.436.254-.526z" style="fill:#fcff43;fill-opacity:1;stroke-width:.153675"/><path d="M48.88-31.77a2.292 1.275 40.373 0 0-.182.568l3.144 2.673a2.292 1.275 40.373 0 0 .532-.272 2.292 1.275 40.373 0 0 .18-.603l-3.111-2.645a2.292 1.275 40.373 0 0-.562.278m-3.352 6.123a2.292 1.275 8.442 0 0 .145.58l4.083.605a2.292 1.275 8.442 0 0 .307-.512 2.292 1.275 8.442 0 0-.166-.607l-4.04-.6a2.292 1.275 8.442 0 0-.33.534M62.57-35.67a1.275 2.292 13.51 0 1 .483.351l-.965 4.013a1.275 2.292 13.51 0 1-.59.094 1.275 2.292 13.51 0 1-.5-.38l.953-3.972a1.275 2.292 13.51 0 1 .619-.106" style="fill:#fcff43;fill-opacity:1;stroke-width:.147523"/><path d="M73.349-30.37c-.077-.143-.239-.24-.475-.283l-6.008 2.183c-.101.218.395 1.198.47 1.343.08.15.515.972.77 1.011l5.19-3.671c.114-.231.132-.43.053-.582m-5.874-6.14c-.14-.084-.33-.084-.554.001l-4.028 4.963c.026.24.955.824 1.093.91.147.088.943.569 1.182.47l2.56-5.818c-.02-.256-.108-.436-.253-.526" style="fill:#fcff43;fill-opacity:1;stroke-width:.153675"/><path d="M68.964-31.77a1.275 2.292 49.627 0 1 .184.568l-3.145 2.673a1.275 2.292 49.627 0 1-.532-.272 1.275 2.292 49.627 0 1-.18-.603l3.112-2.645a1.275 2.292 49.627 0 1 .561.278m3.352 6.123a1.275 2.292 81.558 0 1-.145.58l-4.083.605a1.275 2.292 81.558 0 1-.307-.512 1.275 2.292 81.558 0 1 .166-.607l4.04-.6a1.275 2.292 81.558 0 1 .33.534M55.276-8.941a1.275 2.292 13.51 0 1-.483-.351l.964-4.014a1.275 2.292 13.51 0 1 .59-.093 1.275 2.292 13.51 0 1 .5.38l-.953 3.972a1.275 2.292 13.51 0 1-.618.106" style="fill:#fcff43;fill-opacity:1;stroke-width:.147523"/><path d="M58.806-5.884c-.163-.001-.324-.1-.47-.291l-.834-6.337c.147-.19 1.244-.202 1.408-.203.17.002 1.1.009 1.252.218L59.298-6.2c-.152.207-.32.315-.492.315m-14.31-8.357c.077.144.24.24.476.284l6.007-2.184c.101-.218-.395-1.197-.47-1.343-.08-.15-.515-.972-.77-1.01l-5.19 3.671c-.113.23-.131.43-.053.582m5.874 6.139c.14.085.33.084.554 0l4.028-4.964c-.025-.239-.955-.823-1.093-.91-.147-.087-.942-.568-1.182-.47l-2.56 5.819c.021.256.108.436.254.525z" style="fill:#fcff43;fill-opacity:1;stroke-width:.153675"/><path d="M48.88-12.84a1.275 2.292 49.627 0 1-.182-.569l3.144-2.674a1.275 2.292 49.627 0 1 .532.272 1.275 2.292 49.627 0 1 .18.603l-3.111 2.646a1.275 2.292 49.627 0 1-.562-.279m-3.352-6.123a1.275 2.292 81.558 0 1 .145-.579l4.083-.606a1.275 2.292 81.558 0 1 .307.512 1.275 2.292 81.558 0 1-.166.607l-4.04.6a1.275 2.292 81.558 0 1-.33-.534M62.57-8.941a2.292 1.275 76.49 0 0 .483-.351l-.965-4.014a2.292 1.275 76.49 0 0-.59-.093 2.292 1.275 76.49 0 0-.5.38l.953 3.972a2.292 1.275 76.49 0 0 .619.106" style="fill:#fcff43;fill-opacity:1;stroke-width:.147523"/><path d="M73.349-14.242c-.077.144-.239.24-.475.284l-6.008-2.184c-.101-.218.395-1.197.47-1.343.08-.15.515-.972.77-1.01l5.19 3.671c.114.23.132.43.053.582m-5.874 6.139c-.14.085-.33.084-.554 0l-4.028-4.964c.026-.239.955-.823 1.093-.91.147-.087.943-.568 1.182-.47l2.56 5.819c-.02.256-.108.436-.253.525" style="fill:#fcff43;fill-opacity:1;stroke-width:.153675"/><path d="M68.964-12.84a2.292 1.275 40.373 0 0 .184-.569l-3.145-2.674a2.292 1.275 40.373 0 0-.532.272 2.292 1.275 40.373 0 0-.18.603l3.112 2.646a2.292 1.275 40.373 0 0 .561-.279m3.352-6.123a2.292 1.275 8.442 0 0-.145-.579l-4.083-.606a2.292 1.275 8.442 0 0-.307.512 2.292 1.275 8.442 0 0 .166.607l4.04.6a2.292 1.275 8.442 0 0 .33-.534" style="fill:#fcff43;fill-opacity:1;stroke-width:.147523"/></g></svg>