<svg xmlns="http://www.w3.org/2000/svg" xml:space="preserve" width="170" height="170" viewBox="0 0 44.979 44.979"><g style="display:inline" transform="translate(-2.268 42.963)"><circle cx="24.606" cy="-20.728" r="19.058" style="fill:#5f5f5f;fill-opacity:1;stroke:#47280b;stroke-width:.8;stroke-dasharray:none;stroke-opacity:1"/><path d="M28.867-35.096a13.888 14.988 32.913 0 1 .16 16.977 13.888 14.988 32.913 0 1-16.158 6.658 14.99 14.99 0 0 0 11.737 5.72 14.99 14.99 0 0 0 14.988-14.987 14.99 14.99 0 0 0-10.727-14.368" style="fill:#fcff43;fill-opacity:1;stroke-width:.139183"/><path d="m17.545 21.415-1.324-.68-1.31.704.237-1.47-1.075-1.029 1.471-.227.646-1.341.672 1.329 1.475.2-1.057 1.049z" style="fill:#f5ed4d;fill-opacity:1;stroke-width:.264583" transform="translate(1.397 -46.202)"/><path d="m17.545 21.415-1.324-.68-1.31.704.237-1.47-1.075-1.029 1.471-.227.646-1.341.672 1.329 1.475.2-1.057 1.049z" style="fill:#fef87b;fill-opacity:1;stroke-width:.264583" transform="rotate(36.155 76.44 3.08)scale(.70536)"/><path d="m17.545 21.415-1.324-.68-1.31.704.237-1.47-1.075-1.029 1.471-.227.646-1.341.672 1.329 1.475.2-1.057 1.049z" style="fill:#f5ed4d;fill-opacity:1;stroke-width:.264583" transform="translate(11.12 -46.725)scale(.64595)"/><path d="m17.545 21.415-1.324-.68-1.31.704.237-1.47-1.075-1.029 1.471-.227.646-1.341.672 1.329 1.475.2-1.057 1.049z" style="fill:#fef87b;fill-opacity:1;stroke-width:.264583" transform="rotate(36.154 80.347 9.2)scale(.45563)"/><path d="m17.545 21.415-1.324-.68-1.31.704.237-1.47-1.075-1.029 1.471-.227.646-1.341.672 1.329 1.475.2-1.057 1.049z" style="fill:#f5ed4d;fill-opacity:1;stroke-width:.264583" transform="translate(5.498 -26.513)scale(.46892)"/><path d="m17.545 21.415-1.324-.68-1.31.704.237-1.47-1.075-1.029 1.471-.227.646-1.341.672 1.329 1.475.2-1.057 1.049z" style="fill:#fef87b;fill-opacity:1;stroke-width:.264583" transform="rotate(36.155 45.693 6.438)scale(.33076)"/><path d="m17.545 21.415-1.324-.68-1.31.704.237-1.47-1.075-1.029 1.471-.227.646-1.341.672 1.329 1.475.2-1.057 1.049z" style="fill:#f5ed4d;fill-opacity:1;stroke-width:.264583" transform="translate(20.103 -31.45)scale(.33615)"/><path d="m17.545 21.415-1.324-.68-1.31.704.237-1.47-1.075-1.029 1.471-.227.646-1.341.672 1.329 1.475.2-1.057 1.049z" style="fill:#fef87b;fill-opacity:1;stroke-width:.264583" transform="rotate(36.155 59.897 23.15)scale(.2371)"/><path d="m17.545 21.415-1.324-.68-1.31.704.237-1.47-1.075-1.029 1.471-.227.646-1.341.672 1.329 1.475.2-1.057 1.049z" style="fill:#f5ed4d;fill-opacity:1;stroke-width:.264583" transform="translate(5.81 -30.224)scale(.33615)"/><path d="m17.545 21.415-1.324-.68-1.31.704.237-1.47-1.075-1.029 1.471-.227.646-1.341.672 1.329 1.475.2-1.057 1.049z" style="fill:#fef87b;fill-opacity:1;stroke-width:.264583" transform="rotate(36.155 50.871 1.868)scale(.2371)"/></g></svg>