<svg xmlns="http://www.w3.org/2000/svg" xml:space="preserve" width="170" height="170" viewBox="0 0 44.979 44.979"><g style="display:inline" transform="translate(-85.181 43.547)"><circle cx="107.519" cy="-21.313" r="19.058" style="display:inline;fill:#5f5f5f;fill-opacity:1;stroke:#47280b;stroke-width:.8;stroke-dasharray:none;stroke-opacity:1"/><path d="M120.707-16.314c2.813-.05 4.751-2.273 4.056-4.508-1.086-3.489-5.258-1.811-5.258-1.811s.14-1.094-.257-3.162c-.503-2.624-3.406-3.827-5.56-3.848-4.72-.045-4.413 4.378-4.72 3.816s-1.612-2.663-4.168-1.228c-1.867 1.049-.665 3.223-.665 3.223s-3.606-.486-3.964 3.196 3.913 4.22 3.913 4.22z" style="display:inline;fill:#a4a4a4;fill-opacity:1;stroke-width:.286882"/><path d="M95.01-13.365c-2.814-.05-4.752-2.273-4.056-4.508 1.085-3.489 5.257-1.812 5.257-1.812s-.14-1.093.257-3.161c.504-2.624 3.406-3.827 5.56-3.848 4.721-.045 4.413 4.378 4.72 3.816s1.613-2.664 4.169-1.228c1.867 1.049.665 3.222.665 3.222s3.606-.486 3.964 3.197-3.913 4.22-3.913 4.22z" style="display:inline;fill:#e5e5e5;fill-opacity:1;stroke-width:.286882"/></g></svg>