<svg xmlns="http://www.w3.org/2000/svg" width="595" height="770" viewBox="0 0 157.427 203.729"><g style="display:inline"><g style="display:inline"><path d="M43.236 92.128c2.007.73.092 0 3.284.365 3.193.365 4.196 1.642 5.838-.091s4.014-1.55 4.014-2.372c0-.82 2.371-4.834-.365-6.75-2.737-1.915 1.003-4.196-7.48-2.462s-12.132-.092-10.216 4.378c1.915 4.47 4.925 6.932 4.925 6.932" style="fill:#2c621c;fill-opacity:1;stroke-width:.600001;stroke-linecap:square;stroke-linejoin:bevel;stroke-dasharray:.600001,1.8" transform="translate(-184.485 -396.12)scale(5.50978)"/><path d="M45.924 108.488s2.58-3.612 1.677-8.256-.516-4.902-2.58-5.934-4.386-2.902-4.515-3.934c-.13-1.032.387-2.967.387-2.967s.258 1.806 2.58 3.74c2.322 1.936 2.58 1.097 2.58 1.097s1.677-4.063 1.806-6.45c.115-2.124-.774-3.87-.774-3.87l3.74 1.032-.515 6.321s.903 2.71 2.58.516 3.612-5.547 3.612-5.547l.349.73s-3.195 4.262-2.55 4.52 2.292-1.136 2.292-1.136l.296.66s-5.676 2.837-5.934 5.288-.258 2.58-.258 2.58-.258.645-.13 3.612c.13 2.967.775 7.74.775 7.74z" style="fill:#a26a2f;fill-opacity:1;stroke-width:.600001;stroke-linecap:square;stroke-linejoin:bevel;stroke-dasharray:.600001,1.8" transform="translate(-184.485 -396.12)scale(5.50978)"/><path d="m47.66 83.509-.009.064a8 8 0 0 1 .208 2.211c-.13 2.387-1.807 6.45-1.807 6.45s-.257.84-2.58-1.096a10 10 0 0 1-.955-.905c-.199-.13-.375-.248-.375-.248s1.095 1.596 1.596 2.052.958.912 1.368 1.186.776.958.821.593c.046-.365.456 1.14.456 1.14l-.06.209c.645.722.648 1.826 1.278 5.067.903 4.644-1.677 8.256-1.677 8.256l2.473-.117c.325-.858.86-1.512.86-2.332 0-.958.319-2.69.319-2.69s.456 1.367.228.592c-.208-.706-.037-1.602.064-1.549-.165-.355-.976-2.282-.976-2.282s.684.73.684.091c0-.638.182-2.69 0-2.828-.183-.136-.684-1.049-.684-1.049s-.776-.319-.046-.228c.73.092.502-.547.502-.958s-1.733-2.143-1.733-2.143l.684-1.46s-.593-.911-.32-.957c.274-.046 1.14-.456.867-1.323-.274-.867-.547-3.056-.547-3.056zm2.208 18.883c.027.057.04.081.027.044q-.012-.037-.027-.044" style="fill:#92602b;fill-opacity:1;stroke-width:.600001;stroke-linecap:square;stroke-linejoin:bevel;stroke-dasharray:.600001,1.8" transform="translate(-184.485 -396.12)scale(5.50978)"/><path d="M54.05 88.106c-1.418-1.225-1.225-1.548-1.225-2.838s-.129-2.58-.129-2.58.71-.322.58 0c-.128.323-.322 3.677.194 4.064s.968 1.161.968 1.161zm-5.98-1.176c-1.64-.73-3.1-2.92-3.739-4.288s.456-2.737.456-2.737-1.55.456.456 3.284 3.284 2.463 3.284 2.463z" style="fill:#a26a2f;fill-opacity:1;stroke-width:.600001;stroke-linecap:square;stroke-linejoin:bevel;stroke-dasharray:.600001,1.8" transform="translate(-184.485 -396.12)scale(5.50978)"/><path d="M42.872 91.946c-4.105.456-5.29.82-5.29-.821V88.48s-5.018-2.554-2.464-5.017 2.007-.821 2.007-.821-1.916-2.828-.73-2.919 2.737.091 2.737.091-3.102-6.75.365-5.564l3.466 1.186s-1.733-1.55 1.186-1.916 2.189 1.916 2.189 1.916-1.186-2.92 1.733-3.01c2.919-.092 2.554 2.736 2.554 2.736s1.368-4.105 3.284-2.28c1.915 1.824 1.368 3.83 1.368 3.83s1.368-2.553 2.919-.638.274 5.93.274 5.93 2.645-.365 2.462 2.371-.364 3.922-1.641 3.922.638 3.74-1.551 3.284-2.554-.912-2.19-3.375c.366-2.463.274-4.378-1.003-4.378s-2.28 2.371-3.283 2.827-2.92-1.094-4.014-2.554.365-2.827-1.733-1.46c-2.098 1.37.638 2.464-.821 4.106s0 2.28-.456 3.01z" style="fill:#49a22f;fill-opacity:1;stroke-width:.600001;stroke-linecap:square;stroke-linejoin:bevel;stroke-dasharray:.600001,1.8" transform="translate(-184.485 -396.12)scale(5.50978)"/><path d="M38.7 86.623c2.322-.516 2.644-.839 3.096-2.064s-.452-1.87-.516-1.613c-.065.258.71 1.484-.516 2.193S38.7 86.623 38.7 86.623m5.353-6.127c2.129.709 3.311.892 4.064.253.752-.638 1.026-.479-.046-.182-1.072.296-.975.457-2.043.276-.795-.134-1.081-.367-1.514-.436-.434-.068-.46.089-.46.089m5.408 3.56c1.368.775 3.77.383 4.158-.05.388-.434-.122.21-1.467.255s-2.691-.205-2.691-.205M50.6 81.14c.935.936 1.201 1.161 1.75 1.161s.991-.451.991-.451.13.613.935.613c.807 0 1.42-.13.452-.194s-1.516-.903-1.516-.903-.226.891-1.217.621c-.331-.09-1.395-.846-1.395-.846" style="fill:#377a23;fill-opacity:1;stroke-width:.600001;stroke-linecap:square;stroke-linejoin:bevel;stroke-dasharray:.600001,1.8" transform="translate(-184.485 -396.12)scale(5.50978)"/><path d="M52.894 72.415c-1.366.037-2.27 2.747-2.27 2.747s.366-2.828-2.553-2.736c-1.452.045-1.888.79-1.96 1.527-.302-.34-.882-.568-1.962-.433-2.92.365-1.186 1.916-1.186 1.916l-3.466-1.186c-3.466-1.186-.365 5.564-.365 5.564s-1.551-.182-2.737-.091c-.87.067-.072 1.603.416 2.419-.292.105-.804.464-1.693 1.32-2.554 2.463 2.463 5.018 2.463 5.018v2.645c0 .733.237 1.065.863 1.169-.063-.24-.097-.61-.088-1.169.046-2.69-.09-2.965-.41-3.101s-3.193-2.007-2.554-3.193c.638-1.186 1.14-2.052 1.596-2.098s.365-.501.228.958-.866 3.466-.137 1.687c.73-1.778.46-2.77 1.411-3.125s3.418-1.16 3.048-1.145c-.371.016-.645-.613-2.226.161s-1.644.775-1.644.775-2.064-1.162-.033-1.484 2.58-.42 2.58-.42-2.45-2.934-1.129-3.934c.997-.753 2.925-.408 3.816-.192-.155.051-.35.179-.59.45-.742.839-.774 1.032-.774 1.032s.71-.967 3.16-1.129c2.451-.16 2.483-.387 2.29-.387s-2.032.29-2.774-.064c-.741-.355-.29-1.806.387-1.645.678.162 2.129.42 2.129.42s-.194-2.193 1.354-1.516 2.322 2.74 2.322 2.74-1.354-.58-1.903.291c-.548.87-.548.904-.548.904s.549-1 2.065-.807c1.515.193 1.612.355 1.547.194-.064-.162-.419-2.452.645-2.806s.742-1.161 1.742.29.935 3.031.935 3.031-.935-.612-1.645.194-1.064 1.355-.741 1.032c.322-.322.806-1.161 1.741-.935s1.935.677 2.193 1.677.452 2.773.42 1.612c-.033-1.16.096-1.483-.388-2.515-.483-1.032.323-1.58.323-1.58s1.935-.613 1.258 2.58c-.678 3.192-.387 4.095-.387 4.095s2.515-.903 2.483 1.387-.806 2.644-.806 2.644-.903 1.806-1.194 1.064c-.29-.741 1.516-1.418.517-2.128-1-.709-2.097-1.548-1.323-.516s1 .387.355 1.968.58.709.742 2.418c.06.635-.045 1.18-.16 1.59 1.302-.27-.137-3.302 1.013-3.302 1.277 0 1.46-1.185 1.642-3.922.183-2.736-2.462-2.372-2.462-2.372s1.277-4.013-.274-5.929c-1.55-1.915-2.919.639-2.919.639s.547-2.007-1.368-3.831c-.36-.342-.7-.476-1.015-.467M39.598 92.262a.4.4 0 0 0-.152.054l.166-.012.021-.039a.1.1 0 0 0-.035-.003" style="fill:#5cc73d;fill-opacity:1;stroke-width:.600001;stroke-linecap:square;stroke-linejoin:bevel;stroke-dasharray:.600001,1.8" transform="translate(-184.485 -396.12)scale(5.50978)"/><path d="M48.016 86.925c-.07 0-.177.045-.333.15-.46 2.325-1.63 5.16-1.63 5.16s-.255.82-2.517-1.045l-.003.003c.752.707.775 1.05 1.345 1.277.403.161.749.448.845.602.09-.07.235-.165.319-.26.16-.182.524-1.733.798-1.186.273.548.159 1.095.25-.113.091-1.209.092-2.668.48-2.486.387.183.387.798.387.798s.524.274.342-.843c-.183-1.118-.342-1.05-.228-1.506.075-.299.11-.55-.055-.55m-2.293 6.147c-.084.063-.122.105-.023.105.06 0 .063-.041.023-.105m-3.637-.968-.16.127a15.5 15.5 0 0 0 3.095 2.067c2.063 1.032 1.677 1.29 2.58 5.933.903 4.644-1.677 8.256-1.677 8.256l1.236-.058c.574-.625.943-1.735 1.086-2.618.16-1-.516-2.322 0-3.483s.451.774.58-.226-.87-3.45-.87-3.45.419-.485.483-.324c.065.162.452 1.581.484.968.032-.612-.161-2.58-.161-2.58s-.71.645-.839.548-.322-1.515-.322-1.515 1 .386.741-.033c-.258-.42-.677-1.29-.935-1.257-.258.032-.613.129-1.387-.161s-3.192-1.839-2.612-1.323-1.322-.87-1.322-.87" style="fill:#7d5225;fill-opacity:1;stroke-width:.600001;stroke-linecap:square;stroke-linejoin:bevel;stroke-dasharray:.600001,1.8" transform="translate(-184.485 -396.12)scale(5.50978)"/></g><path d="M21.185 199.278c-.179-.224-.313-.85-.537-.671-.223.179.665.927.537.67-.272-.543-.53-1.203-1.073-1.475-.62-.31-1.41-.327-2.012-.67-.194-.111-.336-.302-.536-.402-.08-.04-.188.04-.268 0-.412-.206 1.294-1.562 1.34-1.61.032-.031 0-.09 0-.134 0-.179.127-.41 0-.536-.325-.326-.808-.44-1.206-.67-.451-.262-.887-.55-1.341-.805a8 8 0 0 0-.805-.403c-.04-.017-.114.04-.134 0-.21-.418.548-.339-.536-.536-.704-.128-1.43 0-2.146 0-.09 0-.268.09-.268 0 0-.1.368-.134.268-.134-.873 0-.664.035-1.878-.268-.35-.088-.99-.18-.938-.537.131-.92.257-.525.67-.939.142-.141.144-.38.268-.536.304-.38.611-.673 1.073-.805.127-.036.997-.057.94-.402-.07-.41-.457-.765-.806-.939-.04-.02-.102.032-.134 0-.232-.232.263-.775-.134-1.073-.26-.195-.635-.151-.939-.268-1.326-.51-.495-.37-2.145-.67-.176-.032-.663.126-.537 0 .502-.502.88-.038 1.341-.269.529-.264-2.682-.462-2.682-.804 0-.1.198-.064.268-.134.1-.1.035-.303.135-.403.439-.439 1.092-.594 1.609-.938.111-.075 0-.269 0-.403 0-.223.044-.451 0-.67-.026-.132-.283.06-.402 0-.08-.04.074-.219 0-.268-.46-.307-1.05-.433-1.476-.805-.168-.147-.244-.378-.402-.537-.07-.07-.223-.044-.268-.134-.098-.195.065-.904.134-.938.251-.126.67.196.67-.269 0-.089.05-.193 0-.268-.237-.356-1.117.046-1.206-.402-.223-1.111.358-1.03.402-1.207.167-.668-.226-1.32-.805-1.61-.04-.02-.102.032-.134 0-.032-.031 0-.089 0-.133 0-.747 1.206-.407 1.073-1.073-.159-.793-.086-.014-.402-.805-.067-.166 0-.358 0-.536 0-.18-.127-.41 0-.537.5-.501.727-.272.134-1.34-.141-.254-.653-.368-.805-.671-.324-.648.58-.617.67-1.073a4.9 4.9 0 0 0 0-1.61c-.072-.361-.21-.688-.133-1.072.027-.139.07-.276.134-.403.028-.056.154-.074.134-.134-.138-.412-.639-.204-.805-.536-.14-.28.223-.67.402-.805.262-.196.403-.067.67-.134 1.058-.264-.287.035.806-.402.083-.034.184.031.268 0 .955-.358 1.905-.886 2.816-1.341.144-.072.25-.214.402-.269.47-.17 1.527-.206 1.341-.67-.074-.186-.178-.358-.268-.537-.223-.715-.44-1.432-.67-2.145-.261-.807-.561-1.602-.805-2.414-.195-.65.543-.265-.67-.939-.162-.09-.372-.052-.537-.134-.2-.1-.332-.312-.536-.402-.209-.093-.472-.024-.67-.134-.222-.123-.345-.372-.537-.537-.123-.105-.289-.154-.403-.268-.031-.032.032-.103 0-.134-.031-.032-.097.025-.134 0-.186-.124-.56-.379-.402-.537.123-.123.637.084.805 0 .04-.02 0-.089 0-.134 0-.134.051-.278 0-.402-.177-.425-.506-.777-.67-1.207-.006-.014-1.01-2.944-.671-3.62.026-.054.796.048.804 0 .1-.596-.045-2.385 0-2.415.112-.074.275.043.402 0 .043-.014 0-.09 0-.134 0-.382.307-2.243.403-2.548.39-1.249.324-1.073 1.207-1.073.044 0 .102.032.134 0 .221-.221-.076-.635 0-.939.03-.122.212-.155.268-.268.04-.08-.028-.183 0-.268.157-.472.636-.057.805-.268.52-.65.156-.51.268-1.073.087-.436.11-.127.268-.402.149-.26.254-.545.402-.805.312-.544.789.284.94.134.09-.091.729-.901.804-.939.2-.1.465-.088.67 0 .385.165.702.62 1.073.805.59.295.56.023 1.207.67.05.05.598.888.805.94.336.083 1.51.122 1.877 0 .234-.079-.722-3.598-.402-4.158.36-.63.852-1.286 1.61-1.475.685-.171 1.16.142 1.743-.537.13-.151.148-.376.268-.536.08-.107.272.032.402 0 .2-.05.527-.33.67-.402.28-.14.63.044.94 0a6 6 0 0 0 1.072-.269 7 7 0 0 0 .94-.402c.056-.028.113-.194.133-.134.1.3.1.625.134.939.01.089-.083.235 0 .268.208.083.454.054.67 0 .865-.216 1.727-.46 2.549-.805.737-.309 1.357-1.204 2.146-1.072.699.116.138 1.757 0 2.011-.138.251-.385.428-.537.67-.199.32-.417 1.863-.402 1.878.084.085.482-.109.536 0 .136.271-.242.775.268.805.67.04 1.344.053 2.012 0 .454-.037.892-.19 1.341-.268.311-.055.632-.058.939-.135.3-.074-.018-2.896 0-2.95.01-.029.47.74.804 1.073.032.032.01-.09 0-.134-.017-.09-.23-.745-.134-.939.08-.16.15.268.537.268.139 0 .522-.352.536-.268.006.032-.004 1.336 0 1.341.276.368.817-.426 1.207-.67.47-.294.275.499.537.536 1.157.165 1.105-.587 1.475-.402.334.167-.05 4.551.134 4.828.053.078 2.534-.094 2.816-.135 2.291-.327.598.073 1.61-.938.242-.243.696-.428.938-.67.11-.11-.047-.665 0-.805.134-.403.608-1.48.939-1.744.11-.088.294-.043.402-.134.634-.528.182-.45.67-.939.032-.031.09.003.135 0 .626-.041 1.251-.095 1.877-.134.09-.006.199-.056.269 0 .48.384.496 1.644.67 1.61.667-.134 1.018-.857 1.341-1.342.025-.037-.01-.177 0-.134.055.221.11.444.134.67.092.828-.066 1.123 1.073.27.129-.098.288-.383.402-.27.28.28.285 1.27.537 1.208.351-.088 1.063-.685 1.34-.268.088.13 0 1.1 0 1.207 0 .476.19.597.27 1.072.021.133-.07.288 0 .403.264.442 1.012.268 1.34.268.268 0 .545.065.805 0 .887-.222 2.247-.874 2.682-1.743.17-.34.707-1.622 1.073-1.744 1.508-.502 2.844.55 4.157 1.207.322.161.646.327.939.537.036.026 0 .089 0 .134.045.044.077.105.134.134.52.26 1.162 0 1.743 0 1.616 0 1.822-.18 3.219.402.965.402-.478 2.43-.67 2.816-.081.162.142.454-.135.537-.577.173-1.97.213-2.414.804-.378.505.934.192 2.012.269.696.05.201.871.536 1.207.193.193.5.28.67.536.87 1.303-.551 3.7.94 4.694.043.029.444.008.536 0 .447-.041.902-.04 1.341-.134.487-.105.943-.598 1.341 0 .17.255.057.762.134 1.072.101.405.555.534.67.94.094.325-.244 1.56.27 1.743.506.18 1.071.095 1.608.134.09.006.24-.085.269 0 .426 1.28-1.527 1.747-1.207 2.28.428.714 1.138.666 1.34 1.072.194.386.253 1.062.135 1.476-.064.222-.378.512-.268.804.105.28.32.516.402.805.103.362.35 2.129 0 2.548-.118.141-.39.023-.537.134 0 0 .042 1.564-.268 2.012-.27.39-.623.717-.939 1.072-.042.048-.134.071-.134.134 0 .772.93.606 1.476.805.764.278.16 1.201.268 1.743l.134.403c.045.045.114.074.134.134.388 1.165-1.011.92 1.475 1.207.668.077 1.345.05 2.012.134.062.008.179.09.134.134-.198.198-1.255.896-1.61 1.073-.04.02-.102-.032-.134 0-.21.21 1.374 1.394.805 2.28-.291.453-.807.713-1.207 1.073-.047.042-.195.116-.134.134.347.099.721.056 1.073.134.252.056.251 2.85.268 2.95.023.14.061.281.134.402.065.109.344.168.268.269-.052.07-2.722 1.249-3.084 1.475-.114.071.06.282 0 .402-.094.188-1.838.134-2.012.134-1.733 0-.784-.794-1.34-1.073-1.17-.585.384.66-.805-.134-.075-.05.063-.205 0-.268-.654-.653-1.166-.143-1.61.134-.187.117-.964.428-1.207.67-.13.131.23.326.269.403.134.268-.269 0 0 .402.026.04.59.497.67.537.305.152.609.32.939.402.127.032.587.01.67.134.079.118.05.29.135.403.126.168.875.962 1.207 1.072.084.029.188-.04.268 0 .288.145.516.393.804.537.154.077 1.836.544 2.012 1.073.332.997-.069 1.176-.536 1.877-.086.128-.046.891 0 1.073.038.153.53.408.268.67-.185.185-.47.236-.67.403-.206.17-.145 1.413-.403 1.877-.328.591-2.908 1.711-3.353 1.878-.254.095-.546.048-.804.134-.085.028.085.242 0 .268-.437.131-.894.183-1.341.268-1.635.312-1.546.59-3.219.135-.623-.17-.279-1.034-.67-1.073-.4-.04-.808.047-1.208 0-.366-.043-.713-.189-1.072-.269-.502-.111-1.267 0-1.744 0-.313 0-.635-.075-.938 0-.673.169-.182.07-.805.537-.455.34-.563-.314-1.073.536-.175.292.151.905 0 1.207-.085.17-.284.254-.402.403-.372.465 0 .896 0 1.207 0 .094-.083 1.71 0 1.877.063.126.731.776.67.939-.395 1.053-.847.912-1.877 1.34-.629.263-1.269.501-1.878.805-.08.04.18 0 .268 0h1.342c.044 0 .102-.031.134 0 .031.032.012.092 0 .135-.535 1.87.067.334-.537.938-.031.032.04.114 0 .134-.08.04-.18-.016-.268 0-.63.118-1.25.277-1.877.403-4.543.512-.277-.063-1.744.67-.256.128-3.06.047-3.62 0-.515-.043-.94-.013-.94-.536 0-.045.043-.122 0-.134-.303-.087-.628-.072-.938-.134-.181-.037-.372-.052-.537-.134-.056-.029-.071-.126-.134-.135-.48-.068-1.124.122-1.609 0-.778-.194-.728-.6-.939-.67-.483-.161-.977.295-1.475.402-.606.13-1.243-.024-1.61-.536-.115-.163-.101-.426-.267-.537-.505-.336-2.117.805-2.28.805-.517 0-.719-.539-1.073-.805-.98-.734-1.848.339-2.548.805a.39.39 0 0 1-.402 0c-.084-.055-.072-.19-.135-.268-.432-.54-.923-.74-1.609-.67-.789.078-.783.226-1.61.536-.403.151-.158-.298-.401-.403-.34-.145-2.037 0-2.548 0-.894 0-2.981-.154-3.755 0-.098.02-.17.123-.269.134-1.012.113-2.08-.167-3.084 0-.877.147-1.645.135-2.548.135" style="fill:#49a22f;fill-opacity:1;stroke-width:7.99999"/><path d="M19.978 161.996c0-1.803.198-.408-.537-1.878-.126-.252-.163-.542-.268-.804-.111-.279-.402-.505-.402-.805 0-.09.228.08.268 0a3.2 3.2 0 0 0 .268-.804c.03-.146-.024-2.395-.134-2.548-.386-.541-1.092-1.045-1.743-1.207-.087-.022-.188.04-.268 0-.046-.023.03-.354 0-.403a2.8 2.8 0 0 0-.403-.536c-.164-.164-1.503-1.327-1.609-1.475-.078-.11.042-.275 0-.403-.095-.284-.297-.524-.402-.804-.182-.484.043-2.077 0-2.548-.055-.603-.517-1.303-.134-1.878.38-.57 1.71.518 1.877.268.48-.72-.548-.126.268-.67.203-.135 1.348.127 1.476 0 .184-.184.185-.526.402-.67.161-.108-.09.64 0 .67.572.19.29-.022.536-.268.013-.013-.151.93.134 1.073.233.116.712.047.94-.135q.222-.178.401-.402c.063-.078.064-.339.135-.268.038.038-.03.939 0 .939.442 0 .625-.626.938-.94.03-.029 2.314.029 2.414 0 2.585-.717 1.073-3.001 1.073-4.693 0-.197-.173-1.188.134-1.34.917-.46.248 1.325.805 1.742.352.265.337-.251.402-.268.167-.041 1.052-.077 1.207 0 .448.224-.105 1.2.537 1.475.205.088.447 0 .67 0 .358 0 .717.04 1.073 0 .063-.007.07-.134.134-.134.107 0 .267.492.402.537.607.202 2.974-.092 3.353-.268.584-.273 1.033-.785 1.61-1.073.28-.141.786.227 1.072.268.443.063.9.073 1.341 0 1.212-.202 1.073-.781 1.073-1.743 0-.045-.025.096 0 .134.159.238.385.427.536.67.075.12.046.292.135.402 1.238.826.18-.04.402.403.527 1.054 1.93.315 2.816.536 1.403.351-.943.285 1.073.537 1.97.246.957.192 1.877-.269.321-.16.683.464 1.073.269.035-.018-.015-.358 0-.403.28-.839 1.217-.713 2.012-.536 1.104.245 2.141.728 3.218 1.073.043.013.135.044.135 0 0-.033-.39-1.402 0-1.207.113.056.145.237.268.268 1.074.269 2.445-1.485 2.816-1.207.249.187-.337 2.156-.402 2.548-.005.03.203-.156.268-.134.539.18.682.04 1.341.134.171.025.206.696.134.805-.323.484-.91 1.043-1.341 1.475-.134.134-.508.244-.402.402.124.186.465.19.536.403.085.12-.042.275 0 .402.083.247.34.417.402.67.055.217 0 .447 0 .67 0 .09-.063.206 0 .27.495.493.636.401 1.207.401 2.664 0 .636-.11 4.56-1.475 1.045-.363 2.143-.546 3.219-.804.043-.01.126-.044.134 0 .044.264.102.556 0 .804-.444 1.072-1.057 2.065-1.61 3.085-.15.279-1.29.588.805-.134.99-.342 1.962-.73 2.95-1.073.834-.289.472-.217.403.268-.01.07-.049.847.134.939.2.1.447 0 .67 0 .581 0 1.165-.053 1.744 0 .1.009-.198.063-.268.134-.62.62-.537.457-.537 1.073 0 .356-.084.87 0 1.207.063.253.554.169.67.402.083.165-.01.4-.133.536-.3.333-.712.542-1.073.805-.13.095-.562.244-.403.268.145.022 4.187-.12 4.426 0 .179.09-.364.167-.537.268-.588.346-1.202.657-1.743 1.073-.77.592 1.357-.173 1.475.537.073.434-.324 4.092-.402 4.157-.6.5-3.039.625-3.219.805-.031.031-.008.09 0 .134.036.18.045.375.134.536.24.43 1.244 1.037.135 1.207-1.203.185-7.189.349-7.242.402-.003.003-.017 1.997 0 2.146.046.413.297 1.117.134 1.207-.84.466-1.918-.214-1.61.402.258.516 1.261.398 1.61.805.592.691.536.762.536 1.475 0 .134-.054.28 0 .403.203.456.55.856.67 1.34.047.186-.127.812 0 .94.032.031.11-.038.135 0 .08.12.364.66.268.804-.124.186-.357.268-.536.402-.179.224-.395.422-.537.67-.088.156.154.445 0 .537-.918.551-1.698-.259-2.414-.402-.633-.127-.834.167-1.34.268-.878.176-1.453-.592-2.146-.939-2.31-.66-.402.135-1.073-.536-.1-.1-1.088.034-1.207 0a6.6 6.6 0 0 1-1.341-.536c-.008-.004-.79-.934-.805-.94-.396-.131-.936.366-1.34.135-1.221-.697-1.715-2.25-2.683-3.219-.233-.232-.811.026-.939-.134-.615-.769-.829-1.729-1.34-2.548-.054-.085-.17-.123-.27-.134a4.7 4.7 0 0 0-.938 0c-.183.017-.357.179-.536.134-.332-.083.432-.536-.268-.536-.408 0-2.28.63-2.28.67 0 .437 2.169-.884.67-.67-1.085.155-2.151.421-3.218.67-.276.065-.522.269-.805.269-.029 0 .048-.757 0-.805-.31-.31-1.35.262-1.743 0-.167-.11-.127-.395-.269-.536-.289-.29-.568-.011-.938-.135-.288-.095-.097-1.504-.67-1.743-.372-.155-.805 0-1.208 0-1.256 0-2.589-.047-3.755.536-.344.172-.612.467-.938.671-.038.024-.12-.042-.135 0-.042.127.088.3 0 .402-.446.52-.922.529-1.475.805-.468.234.257.808-.536 1.073-.08.026-1.41.333-1.744 0-.114-.114-.154-.289-.268-.403-.3-.3-1.396.253-1.743-.268-.22-.329.31-.86.268-1.073-.053-.266-.8-.064-.939-.134-.216-.108-.033-.343-.268-.402-.839-.21-.197.674-1.61-.268-.434-.29.182-.674.269-.805.291-.436-.019-1.071-.134-1.475" style="fill:#5cc73d;fill-opacity:1;stroke-width:7.99999"/><path d="M50.42 166.69c-.268-.045-.556-.024-.805-.134-.385-.172-1.096-1.37-.536-1.744.252-.168 1.045.023 1.207-.268.245-.441.28-1.085.67-1.475.032-.032.093-.017.135 0 .242.097.607.15.67.402.033.13-.107.322 0 .402.52.39 1.162-.671 1.341-.402.157.236.232 1.08.268 1.207.127.443.653.29.805.67.111.278.472 1.299.536 1.342.193.128.793.11.805.134.151.302.438 1.5 0 1.61-.6.15-.574-.039-.805-.27-.07-.07-.185-.078-.268-.133-.238-.159-.334-.468-.536-.67-.399-.4.298 1.246-.537.133-.124-.165-.052-1.877-.134-1.877-.23 0-1.06 1.42-1.207 1.61-.11.142-.221-.27-.402-.27-.312 0-1.207.025-1.207-.267 0-.546.736-.835.939-1.341.084-.212-.45.078-.67.134-.087.021-.25-.088-.269 0-.43 1.933.673.938-1.207.938m13.008-5.23c-1.211-3.252.985-.67 1.744-.67.184 0 .111-.354.134-.537.05-.396-.017-2.81 0-2.816 1.013-.337.962.672 1.877-1.34.056-.123-.094-.308 0-.403.583-.583.533.99 1.073 1.207.218.087 1.066-.141 1.073-.134.032.031.013.09 0 .134-.122.406-.28.8-.402 1.207-.127.423.2 1.726-.134 1.743-2.341.117-2.318-.147-4.426.134-.733.098 1.163 1.19 1.073 1.341-.703 1.172-1.007.852-2.012.134m-38.22 2.146q-.267-.47-.536-.939c-.132-.225-.286-.437-.403-.67-.01-.023-.252-.687-.134-.805.268-.268.24.583.67-.134.15-.25.252-1.081.805-.805 2.387 1.194-.828-.284.805.805.252.168.135-.77.536-.67.25.062.612.327.671.268.037-.038.086-.39.268-.269.007.004.246.373.403.269.482-.322.125-.645.268-1.073.112-.337 1.312-.07 1.609-.268.05-.034-.03-.343 0-.403.21-.418 1.002-1.01 1.475-.536.036.035 0 .347 0 .402 0 .437-.017.332.134.939.054.215.537.951.537 1.073 0 .619-.188-.187-.268.134-.076.303.126.678-.135.939-.58.58-1.905.296-2.011.402-.032.032.042.12 0 .134-.13.043-.492 0-.67 0-.269 0-.565-.12-.805 0-.17.085-.255.284-.403.402-.078.063-.223.045-.268.135-.045.089.23.3.134.268-.312-.104-.804-.57-.804-.403 0 .127.228.149.268.269.061.183.058.67-.134.67-.699 0-1.308-.033-2.012-.134" style="fill:#49a22f;fill-opacity:1;stroke-width:7.99999"/><path d="M71.184 179.092c-.113 0-.198.022-.246.07-.182.182 1.44 1.162 1.476 1.34.106.535 0 1.198 0 1.744v1.207c0 .045.04.114 0 .134-.12.06-.269 0-.403 0-1.765 0-.407-1.282-1.073-2.28-.05-.075-.747.556-1.207.403-.41-.137-.06-2.622-.536-2.146-.032.032.034.105 0 .134-1.293 1.077-3.06 1.562-4.425 2.548-.264.19-.148.637-.269.939-.225.563-.773.265-.938.402-.22.183-.348.455-.537.67-.125.143-.308.238-.402.403-.092.16-.02.392-.134.536-.322.402-1.18.086-1.341-.268-.153-.336-.123-.734-.268-1.073-.152-.353-.228.527-.269.67-.156.55-.411 1.428-.939 1.745-.406.243-.383-.498-.536-.269-.189.284-.074.813-.536.939-2.527.689.2-3.329-1.744-2.414-.562.264-1.085.605-1.61.938-.46.293-.914.598-1.34.94-.045.035.077 1.466 0 1.743-.134.481-.394.925-.67 1.34-.517.775-1.3 1.016-2.147 1.342-.345.133-.213-.189-.536.134-.095.095.07.287 0 .402-.098.163-.317.233-.402.403-.146.291-.056.691-.268.938-.117.136-.358 0-.537 0-.134 0-.282.06-.402 0-.301-.15-.48-1.184-.526-1.425.005.035.008.075-.01.084-.165.083-.38.037-.537.135-.214.134-.334.384-.536.536-.16.12-.38.143-.537.268-.203.163-.218.486-.402.67-.032.032-.114-.04-.134 0-.128.256.153.26-.135.403-.08.04-.18.02-.268 0-.36-.08-.736-.118-1.073-.268-.084-.038-1.096-1.627-1.609-2.012-.79-.592.022.024-.938-.402-.238-.106-.447-.268-.67-.403-.09-.089-.156-.211-.27-.268-.495-.248-2.251.269-2.681 0-.204-.127.166-.452.268-.67.211-.453.512-.867.67-1.341.233-.7-.402-1.34-.402-2.012 0-.294.16-1.341-.134-1.341-.313 0-.635.076-.939 0-.22-.056.056-.797-.134-.67-.29.193-.5.5-.804.67-.118.065-.268 0-.403 0-.089 0-.205.063-.268 0-.33-.33-.301-.886-.402-1.341-.01-.044.044-.143 0-.134-.472.094-.865.468-1.341.536-.257.037-1.742-.068-2.146.134-.938.469-.308 1.593-.536 1.878-.274.342-1.6 1.218-2.012 1.341-.3.09-.626 0-.939 0-.136 0-.634.073-.67 0-.08-.16 0-.358 0-.536 0-.468-.272-.607 0-1.074.953-1.634.804-.61.804-2.01 0-.09.05-.195 0-.27-.055-.082-.185-.078-.268-.133-.052-.036-.09-.179-.134-.134-.063.063.043.19 0 .268-.459.826-.559 1.073-1.341 1.073-.09 0-.188.04-.268 0-.04-.02.022-.096 0-.135-.16-.28-.406-.51-.537-.804-.054-.123.075-.29 0-.402-.234-.351-.706.46-1.073.67-.684.391-1.577.62-2.28.268-.08-.04-.188.04-.268 0-.664-.332-.507-1.877-1.34-1.877-.046 0 0 .09 0 .134v.67c0 .34-.113.87 0 1.208.126.38.4.712.536 1.072.554 1.48.355 3.152-.537 4.426-.109.155-.226.332-.402.402-.008.003-1.359.167-1.61 0-.306-.205.019-.384-.133-.536-.227-.227-2.287.197-2.682 0-.355-.178-.374-2.403-.403-2.548-.009-.044-.091.014-.134 0-.095-.032-.197-.064-.268-.134-.192-.193-.268-.293-.268-.537v-1.073c0-.044.042-.12 0-.134-.127-.042-.283.06-.403 0-.155-.078-.122-.676-.402-.536-.447.223-.941.97-1.34.67-.794-.595-.073-.41-.538-1.34-.04-.08-.188.04-.268 0-.13-.066.063-1.152 0-1.342-.02-.06-.071.124-.134.134-.353.059-.733.113-1.073 0-.023-.008.01-1.61 0-1.61-.16.001-.246.23-.402.27-.497.123-.881-.192-1.341-.269-.321-.054-.154.634-.268.939-.243.646-.38.017-.537.268-.212.34-.296.753-.536 1.073.045-.179.313-.492.134-.536-.038-.01-.07.02-.097.064.018.084.025.162-.037.204l-.036.018c-.022.127-.024.25.003.268-.918.52-.66.272-1.04.652-.07.07-.213.051-.268.135-.123.183-.16.41-.248.613.848.223 2.669.389 2.26.593-.462.23-.84-.233-1.342.268-.126.127.361-.032.537 0 1.65.3.82.161 2.146.671.303.117.678.073.938.268.397.298-.098.84.134 1.073.032.032.094-.02.134 0 .348.174.736.528.805.94.057.344-.812.365-.939.401-.462.132-.769.426-1.072.805-.125.156-.127.395-.269.536-.413.413-.539.02-.67.94-.051.356.589.448.939.536 1.213.303 1.004.268 1.877.268.1 0-.268.034-.268.134 0 .09.179 0 .268 0 .715 0 1.442-.128 2.146 0 1.084.197.327.118.536.536.02.04.093-.017.134 0q.414.18.805.403c.454.255.89.543 1.341.804.398.23.881.345 1.207.67.126.127 0 .358 0 .537 0 .045.031.103 0 .134-.048.047-1.753 1.403-1.341 1.61.08.04.188-.04.268 0 .2.1.342.291.536.402.6.343 1.393.361 2.012.67.385.193.614.583.82.986.084.162.163.377.253.49.903 0 1.671.012 2.548-.134 1.003-.168 2.072.112 3.085 0 .099-.011.17-.115.268-.135.774-.155 2.86 0 3.755 0 .51 0 2.209-.145 2.548 0 .243.104-.002.554.402.403.826-.31.82-.458 1.609-.537.686-.068 1.177.13 1.61.67.062.079.05.213.134.269a.39.39 0 0 0 .402 0c.7-.467 1.569-1.539 2.548-.805.354.266.556.805 1.073.805.162 0 1.775-1.14 2.28-.805.166.111.151.374.268.537.366.512 1.003.666 1.609.536.498-.107.992-.563 1.475-.402.211.07.161.476.94.67.485.122 1.128-.068 1.608 0 .063.01.078.106.134.135.165.082.356.097.537.133.31.062.635.048.939.135.043.012 0 .089 0 .134 0 .523.424.493.938.536.56.047 3.365.128 3.621 0 1.467-.733-2.798-.158 1.744-.67.627-.126 1.248-.285 1.877-.403.088-.016.188.04.268 0 .04-.02-.031-.102 0-.134.604-.604.002.933.537-.939.012-.043.031-.102 0-.133-.032-.032-.09 0-.134 0h-1.342c-.09 0-.348.04-.268 0 .609-.305 1.25-.543 1.878-.805 1.03-.43 1.482-.288 1.877-1.341.061-.163-.608-.813-.67-.939-.084-.166 0-1.783 0-1.877 0-.311-.372-.742 0-1.207.118-.149.317-.233.402-.403.152-.302-.175-.915 0-1.207.51-.85.618-.195 1.073-.536.623-.468.132-.368.805-.536.303-.076.625 0 .938 0 .477 0 1.242-.112 1.744 0 .36.08.706.225 1.072.268.4.047.807-.04 1.208 0 .392.039.047.903.67 1.073 1.673.456 1.584.177 3.219-.134.448-.086.904-.138 1.34-.269.086-.025-.084-.24 0-.268.259-.086.55-.039.805-.134.445-.167 3.025-1.287 3.353-1.878.258-.463.197-1.706.402-1.877.2-.167.487-.218.67-.402.264-.263-.23-.518-.267-.67-.046-.182-.085-.946 0-1.074.467-.702.869-.88.536-1.877-.176-.529-1.858-.996-2.012-1.073-.288-.144-.516-.392-.804-.537-.08-.04-.184.029-.268 0-.332-.11-1.081-.904-1.208-1.072-.025-.034-.03-.078-.04-.118-.078-.002-.158 0-.228-.016-.545-.137-2.719-1.148-3.51-1.143m-50 20.185c-.079-.158-.169-.324-.253-.49-.083-.159-.172-.268-.283-.18-.223.179.665.926.537.67m27.235-7.996c-.006-.04-.015-.073-.01-.05 0 .006.009.042.01.05" style="fill:#2c621c;fill-opacity:1;stroke-width:7.99999"/><path d="M95.586 196.483c-1.576-.614-3.333-1.601-3.983-3.224-.052-.132-.19-.238-.19-.38 0-.326 2.353-.113 1.897-.569-.572-.572-1.249-1.031-1.896-1.517a13 13 0 0 0-1.138-.759 5.3 5.3 0 0 0-.759-.379c-.058-.023-.253 0-.19 0 .33 0 2.845.15 2.845-.19 0-.72-1.13-.895-1.706-1.327-.287-.215-.48-.535-.76-.759-.048-.04-.252 0-.189 0 .396 0 1.36.253.949-.569-.12-.24-.393-.367-.57-.569-1.394-1.594.013-.468-2.086-1.517-.58-.29-1.177-.54-1.138-.569.98-.734 2.496-.473 3.604-.948.058-.025 0-.127 0-.19 0-.316.141-.665 0-.948-.058-.116-1.675-.557-2.086-1.517-.346-.808-.266-2.504.758-2.845.505-.168 1.94.495 1.138-.948-.196-.354-.637-.5-.948-.759-1.296-1.08-2.845-2.312-2.845-4.172 0-.76 2.049-.296 2.466-.38v-.758c0-.443.107-.899 0-1.328-.035-.139-.331-.168-.19-.38.413-.619 1.481-.271 1.517-.379.267-.8-.57-1.523-.758-2.275-.318-1.27 1.323.008 1.706-.759.35-.7-.352-2.52 0-3.224.747-1.492 4.1 1.415 4.742-.19.078-.196-.19-1.453-.19-1.707 0-.063-.044.145 0 .19.224.223.565.32.759.569.26.335.38.759.569 1.138.729 1.458.154-.854.569-.19.367.588.707 1.908 1.517 2.276.035.016 1.87.32 2.086.19.172-.103.079-.403.19-.57.299-.448.19 1.273.19.76 0-2.143-.142.423.948-2.845.1-.3-.087-.645 0-.949.087-.305 1.3-1.004 1.327-1.138.136-.68.13-3.58 0-4.362-.103-.623-1.583-1.32-1.138-2.655.02-.06.14.04.19 0 .28-.223.54-.476.759-.759.226-.29.404-.618.569-.948.152-.304.138-.707.379-.948.427-.427 1.016 2.086 1.897 2.086 1.87 0 1.099-1.668 2.086-2.655.179-.179 0 .506 0 .759 0 .85-.084 1.622.569 2.275.375.375.569-.898.569-.569v1.138c0 .064-.038-.139 0-.19.16-.214.379-.379.569-.568.063-.063.126-.253.19-.19.312.313-.199.932 0 1.328.281.563 2.218-.173 2.275 0 .06.18-.085.399 0 .569.063.126.316.063.38.19.119.237 0 1.492 0 1.706 0 1.345-.135.111.19.759.333.667-.257 2.266 0 3.034.139.42.389.01.568.19.045.045-.035.137 0 .19.45.674 1.013.556 1.897.379 1.352-.27 3.793-.357 3.793-2.276 0-.01-.539-1.06-.57-1.517-.041-.631 0-1.265 0-1.897 0-1.523.57-3.029.38-4.551-.087-.698-.695-3.962.19-4.552.435-.29 3.424.14 4.172 0 .61-.115 1.95-.789 2.086-.57.323.516.523 2.131 1.328 2.466 2.114.881 1.03-.758 3.034-.758.935 0-.774 1.895.949 2.086l.948-.19c0-.063-.057-.161 0-.19.49-.245 2.397.027 2.655 0 .215-.02 2.293-.65 2.655-.379.59.443.715 1.293 1.138 1.897.205.293.56.461.759.759.078.117.126.252.19.379.19.253.374.509.569.758.248.32.459.676.758.949.247.224 1.782 1.057 1.897 1.517.119.477-.192 1.425-.38 1.707-.746 1.119-.07-1.364-.569.38-.28.978-.313 2.093 0 3.034.185.554-.15.838.19 1.517.306.612.673 1.206 1.138 1.707.37.398.815.765 1.328.948.231.083 1.218 0 1.706 0 1.384 0 1.67.006 3.983-.38.28-.046.485-.31.759-.379.39-.097-1.73 4.15-1.328 4.552.574.574 3.224-1.449 3.224-.19 0 .489-.43.344-.569.76-.636 1.91 2.134 1.066-.948 3.223-.721.505-1.843.326-2.465.949-.405.404-.595 1.302-.19 1.706.764.764 2.01.797 3.034 1.138.684.228 1.387.395 2.087.57.061.015.244-.033.19 0-1.58.947-1.976.385-1.328 1.896.111.26.133.62.38.759.818.46 1.736.748 2.654.948.556.12 1.138 0 1.707 0 .063 0 .19-.063.19 0 0 .513-.45.397-.759.569-.967.537-1.882 1.163-2.845 1.707l-1.517.758c-.253.063-.525.073-.759.19-.113.056.253 0 .38 0 .219 0 1.943-.143 2.086 0 .224.224-.138 1.24 0 1.517.087.175.649.408.38.759-.574.745-1.167 1.495-1.897 2.086-.28.226-2.466.803-2.466 1.897 0 .306.679.136.759.19.117.078.055.334.19.379.697.232 1.587-.33 1.327.19-.09.178-.392.095-.569.189-.775.413-1.499.918-2.276 1.327-.426.225-.877.4-1.327.57-.06.022-.19-.064-.19 0 0 .595.64.402.759.758.036.108.047 1.55-.19 1.707-.434.29-1.017.232-1.517.38-.576.168-1.15.345-1.707.568-.577.23.51.438 0 .948-.134.135-.41-.101-.57 0-.792.505-1.564 1.115-2.085 1.897-.111.166-.08.403-.19.569-.105.158-.38 0-.569 0-1.09 0-.726-.432-1.707-.759-.72-.24-1.517 0-2.276 0-1.157 0-2.464-.19-3.603 0-.407.068-1.03.915-1.328 1.138-.05.038-.145-.044-.19 0-.044.045.064.19 0 .19-.51 0-4.527-.352-5.12-.38-.055-.001-1.969-.165-2.466 0-.237.08-.506.443-.758.38-1.702-.425-1.005-.502-2.276-1.138-.253-.126-.506.253-.759.38-.396.197-.925-.186-1.327 0-1.404.647-2.585 2.628-2.276 4.172.127.638.45-2.028.38-2.276-.127-.443-1.003.054-1.328.38-.142.14-.07.408-.19.568-.085.113-.28.09-.38.19-.044.045.062.174 0 .19-.245.06-.508-.036-.758 0-2.715.387-2.162.998-4.741.568-.665-.11-.423-.146.19-.758.126-.127-.244.263-.38.38-.227.194-1.984 1.614-2.276 1.516-.323-.107-.614-.312-.948-.379-.987-.197-2.435 0-3.414 0-.712 0-.988.21-.948.19.509-.255 1.398-.759.19-.759-.57 0-1.16-.156-1.707 0-.272.078-.497.274-.76.38-.444.177-.032-.349-.189-.38-.35-.07-1.117.133-1.517 0-1.071-.357-.517-1.362-.759-2.086-.02-.06-.126 0-.19 0-.062-.063-.174-.102-.189-.19-.11-.657.105-1.496 0-1.517-.31-.062-.638.062-.948 0-.25-.05.318-.775 0-1.138-.358-.41-.885-.632-1.328-.948" style="fill:#49a22f;fill-opacity:1;stroke-width:7.99999"/><path d="M92.362 173.914c-.295-.606-1.386-1.59-.948-2.466.059-.118.623.3.758-.379.062-.31-.1-.648 0-.948.12-.361.728-.128.949-.57.178-.356-.14-.452.19-.948.06-.09.868.04.948 0 .056-.028 0-.126 0-.19 0-.315-.04-.634 0-.947.1-.805.334-1 .758-1.707.033-.055-.056-.162 0-.19.118-.059.59 0 .759 0h1.707c.253 0 .526-.1.758 0 1.86.797-.144 4.597.38 5.12.057.058.757.474.948.57.33.164.583.519.948.569 1.065.145 2.15 0 3.224 0 .253 0 .52.08.759 0 .085-.029-.177-.102-.19-.19-.053-.376 0-.759 0-1.138 0-.443.108-.898 0-1.328-.23-.922-1.366.596-.379-1.706.23-.536.78-.868 1.138-1.328.001-.001.234-.569.38-.569.062 0-.029.133 0 .19.024.049.248.32.379.19.044-.045 0-.127 0-.19.063-.064.12-.133.19-.19.31-.26.723-.422.948-.759.716-1.074.726-4.778 1.137-5.12.311-.26.625-.516.949-.759 1.862-1.397-.145 1.272 1.138.759.249-.1.345-.718.569-.57.372.249-.258 1.328.19 1.328.959 0 1.674-.435 1.706-.379.376.657.122 1.897.19 1.897.232 0 .658-.335.948-.19.173.086-.216.467.19.569.373.093.773-.311 1.138-.19.479.16-.949 2.428-.949 2.655 0 .782 1.541-.301 2.276-.569.85-.309-.224.82.949.57 2.895-.621 1.396-.07 3.034-1.708.642-.641-1.018 2.802 1.707.38.975-.867-.691-3.367-.38-3.604 1.746-1.326 3.95-2.053 5.5-3.603.162-.161-.218-.408-.379-.57-.958-.958-2.545-1.538-1.896-3.223.209-.544.616-1.067 1.138-1.328.691-.346 2.507 1.07 2.655 1.138.009.004 1.235.287 1.327.38.207.206-.328 1.073.19 1.137.565.07 1.198-.254 1.707 0 .226.113-.134.545 0 .759.237.379.571.708.948.948.768.49 1.816.352 1.707.57-.634 1.267-1.536.742-2.465 1.516-.175.146.34.38.569.38.195 0 1.38-.136 1.517 0 .045.044 0 .126 0 .19l.38.379c.126.126.353.202.378.379.081.567-.307 1.423.19 1.707.347.198.83.123 1.138.38.234.194-.207.93 0 1.137.141.142.403.079.569.19.32.213-.283 1.613 0 1.896.863.864 1.828-.034 2.655.38.057.028-.028.133 0 .19.159.317.603 1.401.948 1.517.544.18 1.138.132 1.707.19.063.005.162-.057.19 0 .141.282-.077.64 0 .948.058.23.836.386.948.948.069.343-.086.793 0 1.138.222.885.095-.063.57.569.204.272.226.643.379.948.063.126.09.28.19.38.044.044.169-.06.189 0 .06.18-.06.388 0 .568.072.216.277.365.38.57.436.873-1.303 2.428-1.897 2.844-.536.375-2.737.65-3.414.38-.942-.378.187-3.086-1.138-2.845-1.226.222-1.669.151-2.466.948-.23.23-.088.424-.379.569-.502.25-.561-1.824-2.276-1.138-2.422-.673-.472.662-.758.948-.5.5-1.314.548-1.897.948-.554.381-.852 1.233-1.517 1.328-.632.09.911-2.238.758-2.276-1.44-.36-1.705 1.138-1.896 1.138-.385 0-.754-.17-1.138-.19-.82-.043-1.66-.16-2.466 0-.5.1-.912.463-1.327.759-.052.037-.063.19 0 .19s0-.127 0-.19c0-.19.114-.417 0-.569-.838-1.117-.603.383-1.517-.38-.906-.754.142-2.133-.57-2.844-.602-.603-2.393-.994-2.655-1.517-.169-.338.304-1.45 0-1.518-.493-.11-1.017.075-1.517 0-.834-.125-1.71-.191-2.465-.569-.08-.04-.103-.168-.19-.19-1.053-.263-2.311 0-3.414 0h.38c.402 0 1.71-.39 1.517.38-.147.588-.69.433-.948.948-.029.057.145-.044.19 0 .044.045 0 .127 0 .19 0 .316.051.637 0 .948-.172 1.028-.271.758-.76 1.897-.343.802.325 2.033 0 2.845-.405 1.014-3.337 1.735-3.982 1.896-.245.062-1.007.05-.759 0 .562-.112 1.141-.102 1.707-.19.258-.039.506-.252.759-.19.122.032.114.326 0 .38-1.157.548-2.376.967-3.604 1.328-.927.273-1.91.32-2.845.569-.06.016-.062.177 0 .19.623.124 1.264.132 1.897.19.063.005.145-.046.19 0 .106.106.318 2.147.19 2.275-.241.24-.666.19-.949.38-.149.098-.204.344-.38.379-1.098.22-5.457.874-5.689.758-.495-.247-.767-1.063-.948-1.517-.025-.062.05-.635 0-.569-.657.876-.748 1.826-1.707 2.466-.074.05-.1.19-.19.19-.433 0-.388-.317-.569-.57-1.002-1.402-.948-.908-.948-2.465 0-.757.402.39 0 .19a1.4 1.4 0 0 1-.569-.57c-.078-.136-.4-1.294-.569-1.327-.859-.172-3.756-.098-4.172-1.138-.166-.415.896-.072 1.327-.19 2.15-1.074-.565.142 1.517-.38.064-.015-.056-1.127-.19-1.327-.422-.633-2.648-1.218-1.327-2.276.049-.038.689-.379.759-.379.73 0 1.322.08 2.086.19m-61.81-42.767c-.657.088-1.212.807-1.857 1.077-.821.345-1.684.589-2.548.805-.217.054-.463.083-.67 0-.083-.033.01-.18 0-.268-.035-.315-.035-.639-.135-.939-.02-.06-.077.106-.134.134a7 7 0 0 1-.939.403c-.35.116-.708.216-1.072.268-.31.044-.66-.14-.94 0-.144.072-.469.352-.67.402-.13.032-.322-.107-.402 0-.12.16-.138.384-.268.536-.582.679-1.059.365-1.744.537-.757.189-1.249.844-1.61 1.475-.319.56.637 4.08.403 4.157-.368.123-1.54.084-1.877 0-.206-.051-.754-.888-.805-.939-.647-.647-.617-.375-1.207-.67-.371-.186-.688-.64-1.073-.804-.205-.088-.47-.1-.67 0-.075.037-.714.847-.805.938-.15.15-.627-.678-.938-.134-.15.26-.254.544-.403.805-.157.275-.18-.034-.268.402-.113.562.251.423-.268 1.073-.17.211-.648-.204-.805.268-.028.085.04.188 0 .268-.057.114-.237.146-.268.269-.076.303.221.717 0 .938-.032.032-.09 0-.134 0-.883 0-.817-.176-1.207 1.073-.096.305-.403 2.166-.403 2.548 0 .045.043.12 0 .134-.127.043-.29-.074-.402 0-.045.03.1 1.819 0 2.414-.008.05-.778-.053-.804 0-.339.677.665 3.608.67 3.621.165.43.494.782.67 1.207.052.124 0 .268 0 .402 0 .045.04.114 0 .134-.167.084-.68-.123-.804 0-.158.158.216.413.402.537.037.024.103-.032.134 0 .032.031-.031.102 0 .134.114.114.28.163.402.268.192.165.316.414.537.537.2.11.462.04.67.133a1 1 0 0 1 .247.181c.064-.45.167-.832.167-1.47 0-.313-.214-.533-.19-.57.521-.78 1.32.007 1.897-.569.079-.079-1.914-2.047-2.086-2.276-.152-.202 0-.505 0-.758 0-.38.037-.76 0-1.138-.025-.247-.815-1.65-.57-1.897.045-.044.146.045.19 0 .045-.044-.028-.133 0-.19.285-.568 1.266-.119 1.897-.189.008 0 0-.53 0-.569 0-.537.19-.795.19-1.328 0-.126.04-.26 0-.38-.029-.084-.208-.101-.19-.189.175-.877 1.232-1.072 1.684-.936-.212-.249-.51-.665-.546-.77-.114-.342.114-.797 0-1.139-.023-.07-.503-.948 0-.948.2 0 .373.15.569.19.147.029.883.06.948.19.057.112-.047.261 0 .379.046.114.558.88.759.948.24.08.505 0 .758 0 .443 0 .888.049 1.328 0 .199-.022.506-.38.569-.19.126.378-.194.567.19.759.25.125.682-.089.948 0 .218.072.263.453.38.569.099.1.237.19.378.19s.246-.146.38-.19c.288-.096.677.163.948 0 .549-.33.491-1.92.569-2.466.095-.666.648-1.043.759-1.707.101-.611-.263-3.078 0-3.603.233-.467 1.199-.463 1.517-.569.085-.028.102-.207.19-.19.277.056.602.144.759.38.255.383.267.88.379 1.327.015.062-.045.235 0 .19.34-.34-.076-1.176.38-1.328.15-.05 1.394-.122 1.516 0 .09.09-.105.31 0 .38.54.36 1.364.123 1.897.19.355.044.124.692.19.758.134.134.463-.158.568 0 .214.32.039.784.19 1.138.179.417 1.478.05 2.086 0 .252-.021.9-.21.759 0-.199.297-1.517.417-1.517 1.138 0 .253.518-.08.758 0 .694.231-.48.32.759.569.628.125 1.503-.073 2.086 0 .584.073-.058.214.19.379.476.318 1.63.399 2.086 0 .372-.325.599-.789.948-1.138.084-.084.358.148.19-.19-.04-.08-.19-.1-.19-.19 0-.14.335-.055.38-.189.084-.252-.12-.707 0-.948.305-.612 1.145-.032 1.327-.759.071-.284-.191-1.136 0-1.327.224-.224.656.12.948 0q.6-.248 1.184-.513c-.022-.193-.052-.339-.103-.364-.37-.185-.319.567-1.475.402-.262-.038-.066-.83-.537-.537-.39.244-.93 1.04-1.207.671-.004-.006.006-1.309 0-1.34-.013-.085-.398.267-.536.267-.387 0-.457-.427-.537-.268-.097.194.117.849.134.939.01.043.032.166 0 .134-.333-.334-.795-1.102-.804-1.073-.018.054.3 2.875 0 2.95-.307.077-.628.08-.94.135-.448.079-.886.232-1.34.268-.668.053-1.342.04-2.011 0-.51-.03-.133-.533-.269-.805-.054-.108-.452.085-.536 0-.015-.014.203-1.559.402-1.878.152-.242.4-.419.537-.67.138-.254.699-1.895 0-2.012a1 1 0 0 0-.289-.004m-19.006 11.865c.116.136.212.235.212.177 0-.081-.087-.14-.212-.177m38.077-9.738c-.047.006-.097.02-.142.023-.626.04-1.251.093-1.877.134-.045.003-.103-.031-.135 0-.489.49-.036.41-.67.939-.108.09-.292.046-.402.134-.33.265-.804 1.34-.939 1.744-.047.14.11.695 0 .804-.242.243-.696.428-.939.67-.887.888.16.71-1.083.87-.002.015-.009.032-.005.046.2.804.48.9 1.328.758 1.15-.191.06-.06.379-.379.09-.09.253 0 .38 0 .505 0 1.047.188 1.516 0 .847-.339 1.606-.899 2.276-1.517.323-.299.19-1.465.19-1.897 0-.126-.12-.419 0-.379.06.02 1.023.644 1.138.759.173.173-.087.672.19.948.265.266 2.528-.253 3.034 0 .547.273-.103 1.035.19 1.327.268.269.83.036 1.137.19.448.224.022.78.38 1.138.134.134.379 0 .569 0 1.124 0 1.504.264 2.655.38.252.024.514-.062.759 0 .061.015-.015.128 0 .189.048.194.048.428.19.569.089.09.252 0 .379 0h3.603c.063 0 .145.045.19 0 .086-.087-.24-.557-.19-.759.42-1.677.38-.605.38-1.517 0-.367-.79-.085-.57-.38.698-.93 1.485-1.126 2.656-1.516 1.246-.416-1.15 2.153 1.327 1.327.255-.085.346-.42.57-.569.117-.078.05.356.189.38 1.155.192 2.305-.095 3.09-.858-1.156-.447-1.474-.316-2.976-.316-.581 0-1.223.26-1.743 0-.056-.028-.09-.09-.134-.134 0-.045.036-.108 0-.134a7 7 0 0 0-.939-.537c-1.313-.656-2.65-1.71-4.157-1.207-.366.122-.903 1.404-1.073 1.744-.434.869-1.795 1.52-2.682 1.743-.26.065-.537 0-.805 0-.328 0-1.076.173-1.341-.268-.069-.115.022-.27 0-.403-.08-.475-.268-.596-.268-1.072 0-.106.087-1.077 0-1.207-.278-.417-.99.18-1.341.268-.253.063-.257-.928-.537-1.207-.114-.114-.273.171-.402.268-1.139.854-.981.559-1.073-.268a5 5 0 0 0-.134-.67c-.01-.044.025.096 0 .133-.323.485-.674 1.208-1.34 1.342-.174.034-.192-1.226-.672-1.61-.034-.028-.079-.029-.126-.023" style="fill:#5cc73d;fill-opacity:1;stroke-width:7.99999"/><path d="M150.859 179.135a4 4 0 0 0-.652.089c-.223.05-.353.307-.569.38-.365.12-.757.134-1.138.189-.063.009-.145-.045-.19 0-.16.16-.158 1.802 0 2.276.02.06.137-.035.19 0 .215.143.695.737.759.948.128.429.14.884.19 1.328.204 1.844-1.233.758-1.518 1.138-.35.467.12 1.328-.948 1.328-.228 0 .347-.344.38-.57a8 8 0 0 0 0-2.086c-.026-.198-.1.392-.19.57a205 205 0 0 1-3.035 5.689c-.221.398-.436.816-.759 1.138-.089.09-.035-.258 0-.38.211-.717.452-1.425.7-2.13-.219.404-.51.803-.89.993-.399.2-.955-.059-1.327.19-.698.465.021 1.517-.948 1.517-.506 0-1.042.172-1.517 0-.922-.336-.558-1.484-.759-2.087-.056-.17-.3-.219-.38-.379-.084-.17.17-.654 0-.569-.847.424-1.427 1.283-2.275 1.707-.744.372-.116-1.677-.38-2.466-.227-.683-.922-.107-1.138 0-.184.092-.23-.027-.233-.178-.043.006-.1-.011-.146-.011h-2.276c-.19 0-.4-.085-.569 0-.232.116-.883 1.203-.569 1.517 1.07 1.07 2.87 1.234 3.793 2.465.085.114.09.28.19.38.045.044.177-.062.19 0 .087.438.24 1.205-.19 1.327-2.015.576-4.375-1.327-5.88-1.327-.126 0-.282-.081-.379 0-.31.259-.487.647-.758.948-.3.332-.658.609-.948.948-.092.108-.09.48-.19.38-.36-.36-.25-1.328-.759-1.328-.09 0-.106.156-.19.19-.241.097-.497.19-.758.19-.316 0-.055-.596-.38-.38-.148.1-.209.323-.379.38-.479.16-.087-1.656-.569-1.897-.208-.104-1.321 1.577-2.275 2.086-1.9 1.013-1.818-.812-2.466-.38-.244.164-.98 1.107-1.327.76-.303-.303.082-1.275-.57-.949-.16.08-.24.268-.379.38-.679.543-.697.424-1.707.568-.062.01-.145.045-.19 0-.202-.203-.166-1.434-.758-1.138-.618.31-1.417 1.83-2.086 2.276-.852.568-.743-.965-.759-1.138-.196-2.16.668-.167 0-4.172-.01-.065-3.046-.368-3.224-.19-.495.495-1.024 1.567-1.327 2.086-.186.319-.424.61-.57.949-.235.55 0 2.577 0 3.224 0 .617.182 1.909-.189 2.465-.104.156-.966 1.322-1.517 1.138-.38-.126-.158-.805-.38-1.138-.593-.89-.748-.562-1.327-.948-.149-.1-.22-.3-.38-.38-.493-.246-.489.657-.948.76-1.729.384-.934-.516-1.137-1.328-.017-.068-1.545.136-2.087-.19-.228-.136.475-1.738-.57-2.086-.696-.232-1.813.326-2.465 0-.186-.093.24-1.637-.379-1.328-.423.212.007.659-.38.949-.128.096-1.768.686-1.896.379a12 12 0 0 1-.522-1.46c-.135.032-.236.07-.236.132 0 .142.137.248.19.38.648 1.623 2.406 2.61 3.982 3.224.443.316.97.539 1.328.948.318.363-.25 1.088 0 1.138.31.062.638-.062.948 0 .104.02-.11.86 0 1.517.015.088.126.127.19.19.063 0 .17-.06.19 0 .24.724-.313 1.729.758 2.086.4.133 1.168-.07 1.517 0 .157.031-.255.557.19.38.263-.106.487-.302.759-.38.547-.156 1.138 0 1.707 0 1.209 0 .319.504-.19.759-.04.02.236-.19.948-.19.979 0 2.427-.197 3.414 0 .334.067.625.272.948.38.283.093 1.897-1.204 2.207-1.464-.2.197-.181.252.259.325 2.579.43 2.026-.18 4.741-.569.25-.035.513.062.759 0 .06-.015-.045-.145 0-.19.1-.1.294-.076.379-.189.12-.16.048-.427.19-.569.325-.325 1.2-.822 1.327-.38.003.013-.004.084-.002.106.426-.874 1.123-1.644 1.899-2.002.402-.185.931.198 1.327 0 .253-.126.506-.505.759-.379 1.271.636.574.713 2.276 1.138.252.063.52-.3.758-.38.497-.165 2.41-.001 2.466 0 .593.028 4.61.38 5.12.38.064 0-.044-.145 0-.19.045-.044.14.038.19 0 .298-.223.92-1.07 1.328-1.138 1.138-.19 2.447 0 3.604 0 .758 0 1.556-.24 2.275 0 .982.327.618.759 1.707.759.19 0 .464.158.57 0 .11-.166.078-.403.189-.569.521-.782 1.293-1.392 2.086-1.897.16-.101.435.135.569 0 .51-.51-.577-.717 0-.948a19 19 0 0 1 1.707-.569c.5-.147 1.083-.09 1.517-.379.237-.158.226-1.599.19-1.707-.119-.356-.759-.163-.759-.759 0-.063.13.023.19 0 .45-.169.901-.344 1.327-.568.778-.41 1.501-.915 2.276-1.328.177-.094.48-.01.57-.19.259-.52-.63.043-1.328-.19-.135-.044-.072-.3-.19-.379-.08-.053-.759.117-.759-.19 0-1.093 2.187-1.67 2.466-1.896.73-.591 1.323-1.341 1.896-2.086.27-.35-.291-.584-.379-.759-.138-.276.224-1.293 0-1.517-.142-.142-1.867 0-2.086 0-.127 0-.493.057-.38 0 .234-.116.506-.126.76-.19l1.516-.758c.963-.544 1.878-1.17 2.845-1.708.309-.17.759-.055.759-.568 0-.064-.127 0-.19 0-.089 0-.179.009-.268.014-.467.12-.957.145-1.439.175-1.538.096-3.128-.56-4.658-.468m-32.706 21.246c-.344.707-.515 1.48-.377 2.17.121.608.41-1.727.377-2.17m16.079-12.61c.015-.003.036.003.044-.012.056-.113 0-.506 0-.38 0 .033-.047.23-.044.391m9.846 1.27a5 5 0 0 0 .25-.524c.023-.058.021-.249 0-.19q-.127.357-.25.714m-54.75.614.197.004-.008-.004c-.059-.023-.253 0-.19 0m.197.004q.39.159.75.375.574.342 1.11.74a7 7 0 0 0-.161-.55 2 2 0 0 0-.303-.539c-.6.006-1.13-.018-1.396-.026" style="fill:#2c621c;fill-opacity:1;stroke-width:7.99999"/><path d="M124.397 172.6c-.438-.22-1.644-.643-1.744-1.341-.026-.182.366-.066.537-.134.522-.209-.435-.805.67-.805.35 0 .671.424.671.268 0-.1-.337-1.24-.134-1.34.186-.094 1.248-.052 1.34.134.094.185-.142.795 0 .938.072.071.198.064.27.134.198.2-.266.873.133 1.073.74.37.725-.544 1.073-.804.044-.033.722-.056.805 0 .105.07.163.198.268.268.151.1 1.496-.114 1.61 0 .358.359-.217 1.238-.403 1.61-.13.26.287 1.13.134 1.206-.16.08-.36.025-.536 0-.759-.108-.61-.34-1.073-.805-.127-.126-.363.044-.537 0-.233-.058-.432-.234-.67-.268-.45-.064-.227 1-.537 1.744-.131.315-1.022.586-1.207.402-.12-.12 0-.966 0-1.207 0-.519.026-.098-.67-1.073" style="fill:#49a22f;fill-opacity:1;stroke-width:7.99999"/></g></svg>