<svg xmlns="http://www.w3.org/2000/svg" width="310" height="275" viewBox="0 0 82.021 72.76"><g style="display:inline"><path d="M18.704 69.664c-.179-.224-.313-.85-.537-.67-.223.178.665.926.537.67-.272-.544-.53-1.204-1.073-1.475-.62-.31-1.41-.328-2.012-.671-.194-.11-.336-.302-.536-.402-.08-.04-.188.04-.268 0-.412-.206 1.294-1.562 1.34-1.61.032-.031 0-.089 0-.134 0-.179.127-.41 0-.536-.325-.326-.808-.44-1.206-.67-.451-.262-.887-.55-1.341-.805a8 8 0 0 0-.805-.403c-.04-.017-.114.04-.134 0-.21-.418.548-.339-.536-.536-.704-.128-1.43 0-2.146 0-.09 0-.268.09-.268 0 0-.1.368-.134.268-.134-.873 0-.664.035-1.878-.268-.35-.088-.99-.18-.938-.537.131-.92.257-.525.67-.939.142-.14.144-.38.268-.536.304-.38.611-.673 1.073-.805.127-.036.997-.057.94-.402-.07-.41-.457-.765-.806-.939-.04-.02-.102.032-.134 0-.232-.232.263-.775-.134-1.073-.26-.195-.635-.15-.939-.268-1.326-.51-.495-.37-2.145-.67-.176-.032-.663.126-.537 0 .502-.502.88-.038 1.341-.268.529-.265-2.682-.463-2.682-.805 0-.1.198-.064.269-.134.1-.1.034-.303.134-.403.439-.439 1.092-.594 1.609-.938.111-.075 0-.269 0-.403 0-.223.044-.451 0-.67-.026-.132-.282.06-.402 0-.08-.04.074-.219 0-.268-.46-.307-1.05-.433-1.476-.805-.168-.147-.244-.378-.402-.536-.07-.071-.223-.045-.268-.135-.098-.195.065-.904.134-.938.251-.126.67.196.67-.269 0-.089.05-.193 0-.268-.237-.356-1.117.046-1.206-.402-.223-1.111.358-1.03.402-1.207.167-.668-.225-1.32-.805-1.61-.04-.02-.102.032-.134 0-.031-.03 0-.089 0-.133 0-.747 1.206-.407 1.073-1.073-.159-.793-.086-.014-.402-.805-.067-.166 0-.357 0-.536s-.127-.41 0-.537c.5-.5.727-.272.134-1.34-.141-.254-.653-.368-.805-.671-.324-.648.58-.617.67-1.073a4.9 4.9 0 0 0 0-1.61c-.072-.361-.21-.688-.133-1.072q.04-.21.134-.403c.028-.056.154-.074.134-.134-.138-.412-.639-.204-.805-.536-.14-.28.223-.67.402-.805.262-.196.403-.067.671-.134 1.057-.264-.288.035.805-.402.083-.033.184.031.268 0 .955-.358 1.905-.886 2.816-1.341.144-.072.25-.213.402-.268.47-.171 1.527-.207 1.341-.671-.074-.186-.178-.358-.268-.536-.223-.716-.44-1.433-.67-2.146-.261-.807-.561-1.602-.805-2.414-.195-.65.543-.265-.67-.939-.162-.09-.372-.052-.537-.134-.2-.1-.332-.311-.536-.402-.209-.093-.472-.024-.67-.134-.222-.123-.345-.372-.537-.537-.123-.105-.289-.154-.403-.268-.031-.032.032-.102 0-.134-.031-.032-.097.025-.134 0-.186-.124-.56-.378-.402-.537.123-.123.637.084.805 0 .04-.02 0-.089 0-.134 0-.134.051-.278 0-.402-.177-.425-.506-.777-.67-1.207-.006-.013-1.01-2.944-.671-3.62.026-.054.796.048.804 0 .1-.596-.045-2.385 0-2.415.112-.074.275.043.403 0 .042-.014 0-.09 0-.134 0-.382.306-2.243.402-2.548.39-1.249.324-1.073 1.207-1.073.044 0 .102.032.134 0 .221-.22-.076-.635 0-.938.03-.123.212-.156.268-.269.04-.08-.028-.183 0-.268.157-.472.636-.057.805-.268.52-.65.156-.51.268-1.073.087-.436.11-.127.268-.402.149-.26.254-.545.402-.805.312-.544.789.285.94.134.09-.091.729-.901.804-.939.2-.1.465-.088.67 0 .385.165.702.62 1.073.805.59.295.56.023 1.207.67.05.051.598.888.805.94.336.083 1.51.122 1.877 0 .234-.078-.722-3.598-.402-4.158.36-.63.852-1.286 1.61-1.475.685-.171 1.16.142 1.743-.536.13-.152.148-.377.268-.537.08-.107.272.033.402 0 .2-.05.527-.33.67-.402.28-.14.63.044.94 0a6 6 0 0 0 1.072-.268c.323-.108.635-.25.94-.403.056-.028.113-.194.133-.134.1.3.1.625.134.939.01.089-.083.235 0 .268.208.083.454.054.67 0 .865-.216 1.727-.46 2.549-.805.737-.309 1.357-1.204 2.146-1.072.699.116.138 1.757 0 2.011-.137.251-.385.428-.537.67-.199.32-.417 1.864-.402 1.878.084.085.482-.109.536 0 .136.271-.242.775.268.805.67.04 1.344.053 2.012 0 .454-.036.892-.19 1.341-.268.311-.055.632-.058.939-.134.3-.075-.018-2.897 0-2.95.01-.03.47.738.805 1.072.031.032.008-.09 0-.134-.018-.09-.232-.745-.135-.939.08-.16.15.268.537.268.139 0 .522-.351.536-.268.006.032-.004 1.336 0 1.341.276.368.817-.426 1.207-.67.47-.294.275.499.537.536 1.157.165 1.105-.587 1.475-.402.334.167-.05 4.551.134 4.828.053.079 2.534-.094 2.816-.134 2.291-.328.598.072 1.61-.94.242-.242.696-.427.938-.67.11-.109-.047-.664 0-.804.134-.403.608-1.48.939-1.744.11-.088.294-.043.402-.134.634-.528.182-.45.67-.939.032-.031.09.003.135 0 .626-.041 1.251-.095 1.877-.134.09-.006.199-.055.269 0 .48.384.496 1.644.67 1.61.667-.134 1.018-.857 1.341-1.341.025-.038-.01-.178 0-.135.055.222.11.444.134.67.092.828-.066 1.123 1.073.27.13-.098.288-.383.402-.27.28.28.285 1.271.537 1.208.351-.088 1.063-.685 1.34-.268.088.13 0 1.1 0 1.207 0 .476.19.597.27 1.072.021.133-.07.288 0 .403.264.442 1.012.268 1.34.268.268 0 .545.065.805 0 .887-.222 2.247-.874 2.682-1.743.17-.34.707-1.622 1.073-1.744 1.508-.502 2.844.55 4.157 1.207.322.161.646.327.939.537.036.026 0 .089 0 .134.045.044.077.106.134.134.52.26 1.162 0 1.743 0 1.616 0 1.822-.18 3.219.402.965.402-.478 2.43-.67 2.816-.081.162.142.454-.135.537-.577.173-1.97.213-2.414.804-.378.505.934.192 2.012.269.696.05.201.872.536 1.207.194.193.5.28.67.536.87 1.303-.551 3.7.94 4.694.043.029.444.008.536 0 .448-.04.902-.04 1.341-.134.487-.105.943-.598 1.341 0 .17.255.057.762.134 1.073.101.404.555.533.67.938.094.326-.244 1.56.27 1.744.506.18 1.071.095 1.608.134.09.006.24-.085.269 0 .427 1.28-1.527 1.747-1.207 2.28.428.714 1.138.667 1.34 1.072.194.386.253 1.062.135 1.476-.064.222-.378.512-.268.804.105.281.32.517.402.805.103.362.35 2.129 0 2.548-.118.142-.39.023-.537.134 0 0 .042 1.564-.268 2.012-.27.39-.623.717-.938 1.072-.042.048-.135.071-.135.135 0 .77.93.606 1.476.804.764.278.16 1.201.268 1.744l.134.402c.045.045.114.074.134.134.388 1.165-1.011.92 1.475 1.207.668.077 1.345.05 2.012.134.062.008.179.09.134.134-.198.198-1.255.896-1.61 1.073-.04.02-.102-.032-.134 0-.21.21 1.374 1.394.805 2.28-.291.453-.807.713-1.207 1.073-.047.042-.195.116-.134.134.347.099.721.056 1.073.134.252.056.251 2.85.268 2.95.023.14.062.281.134.403.065.108.344.167.268.268-.052.07-2.722 1.249-3.084 1.475-.114.071.06.282 0 .402-.094.188-1.838.134-2.012.134-1.733 0-.784-.794-1.34-1.072-1.17-.585.384.659-.805-.135-.075-.05.063-.205 0-.268-.654-.653-1.166-.143-1.61.134-.187.117-.964.428-1.207.67-.13.131.23.327.269.403.134.268-.269 0 0 .402.026.04.59.497.67.537.305.152.609.32.939.402.127.032.587.01.67.134.079.118.05.29.135.403.126.168.875.962 1.207 1.073.084.028.188-.04.268 0 .288.144.516.392.804.536.154.077 1.836.544 2.012 1.073.332.997-.069 1.176-.536 1.877-.086.128-.046.892 0 1.073.038.153.53.408.268.67-.185.185-.47.236-.67.403-.206.17-.145 1.414-.403 1.877-.328.591-2.908 1.711-3.353 1.878-.254.095-.546.048-.804.134-.085.028.085.243 0 .268-.437.131-.894.183-1.341.269-1.635.31-1.546.59-3.219.134-.623-.17-.279-1.034-.67-1.073-.4-.04-.808.047-1.207 0-.367-.043-.713-.188-1.073-.268-.502-.112-1.267 0-1.744 0-.313 0-.635-.076-.938 0-.673.168-.182.069-.805.536-.455.34-.563-.314-1.073.536-.175.292.151.905 0 1.207-.085.17-.284.255-.402.403-.372.465 0 .896 0 1.207 0 .094-.083 1.71 0 1.877.063.126.731.776.67.939-.395 1.053-.847.912-1.877 1.34-.629.263-1.269.501-1.878.806-.08.04.18 0 .268 0h1.342c.044 0 .102-.032.134 0 .031.031.012.09 0 .134-.535 1.87.067.334-.537.938-.031.032.04.115 0 .135-.08.04-.18-.017-.268 0-.629.117-1.25.276-1.877.402-4.543.512-.277-.063-1.744.67-.256.128-3.06.047-3.62 0-.515-.043-.94-.012-.94-.536 0-.045.044-.122 0-.134-.303-.087-.628-.072-.938-.134-.18-.036-.372-.052-.537-.134-.056-.029-.071-.126-.134-.134-.48-.07-1.123.12-1.609 0-.778-.195-.728-.6-.939-.671-.483-.161-.977.296-1.475.402-.606.13-1.243-.024-1.61-.536-.115-.163-.101-.426-.267-.537-.505-.336-2.117.805-2.28.805-.517 0-.719-.539-1.073-.805-.979-.734-1.848.339-2.548.805a.39.39 0 0 1-.402 0c-.084-.055-.072-.19-.135-.268-.432-.54-.923-.74-1.609-.67-.789.078-.783.226-1.61.536-.403.151-.158-.298-.401-.403-.34-.145-2.037 0-2.548 0-.894 0-2.981-.154-3.755 0-.098.02-.17.124-.269.135-1.012.112-2.08-.168-3.084 0-.877.146-1.645.134-2.548.134" style="fill:#337020;fill-opacity:1;stroke-width:7.99999"/><path d="M17.497 32.382c0-1.803.198-.408-.536-1.877-.127-.253-.164-.543-.269-.805-.111-.278-.402-.505-.402-.805 0-.09.228.08.268 0a3.2 3.2 0 0 0 .268-.804c.03-.146-.024-2.394-.134-2.548-.386-.541-1.092-1.044-1.743-1.207-.087-.022-.188.04-.268 0-.045-.023.03-.354 0-.403a2.8 2.8 0 0 0-.403-.536c-.164-.164-1.503-1.327-1.609-1.475-.078-.11.043-.275 0-.403-.095-.284-.297-.523-.402-.804-.182-.484.043-2.077 0-2.548-.055-.603-.517-1.303-.134-1.878.38-.57 1.71.518 1.877.269.48-.721-.548-.127.268-.671.203-.135 1.348.127 1.476 0 .184-.184.185-.526.402-.67.161-.108-.09.64 0 .67.572.19.29-.022.536-.268.013-.013-.151.93.134 1.073.233.116.712.048.94-.134q.222-.18.401-.403c.063-.078.064-.339.135-.268.038.038-.03.939 0 .939.442 0 .625-.626.938-.939.03-.03 2.314.028 2.414 0 2.585-.718 1.073-3.002 1.073-4.694 0-.197-.173-1.187.134-1.34.917-.46.248 1.325.805 1.743.352.264.337-.252.402-.269.167-.041 1.052-.077 1.207 0 .448.224-.105 1.2.537 1.476.205.088.447 0 .67 0 .358 0 .718.039 1.073 0 .063-.007.07-.135.134-.135.107 0 .267.492.402.537.607.202 2.974-.092 3.353-.268.584-.273 1.033-.785 1.61-1.073.28-.141.786.227 1.072.268.443.063.9.074 1.341 0 1.212-.202 1.073-.781 1.073-1.743 0-.045-.025.097 0 .134.159.238.385.428.536.67.075.12.046.292.135.403 1.238.825.18-.041.402.402.527 1.054 1.93.315 2.816.536 1.403.351-.943.285 1.073.537 1.97.246.957.192 1.877-.268.321-.16.683.463 1.073.268.035-.018-.015-.358 0-.403.28-.839 1.217-.713 2.012-.536 1.104.245 2.141.728 3.218 1.073.043.013.135.045.135 0 0-.033-.39-1.402 0-1.207.113.056.145.237.268.268 1.074.269 2.445-1.485 2.816-1.207.249.187-.337 2.156-.402 2.548-.005.03.203-.156.268-.134.539.18.682.04 1.341.134.171.025.207.696.134.805-.323.484-.91 1.044-1.34 1.475-.135.134-.508.245-.403.402.124.186.465.19.536.403.085.12-.042.275 0 .402.083.247.34.418.402.67.055.217 0 .448 0 .671 0 .09-.063.205 0 .268.495.495.636.403 1.207.403 2.664 0 .637-.11 4.56-1.476 1.045-.363 2.143-.546 3.219-.804.043-.01.126-.044.134 0 .044.264.102.557 0 .804-.444 1.072-1.057 2.065-1.61 3.085-.15.28-1.29.588.805-.134.99-.341 1.962-.73 2.95-1.073.835-.289.472-.217.403.268-.01.07-.049.847.134.939.2.1.447 0 .67 0 .582 0 1.165-.053 1.744 0 .1.009-.198.063-.268.134-.62.62-.537.457-.537 1.073 0 .356-.084.87 0 1.207.063.253.554.169.67.402.083.165-.01.4-.133.536-.3.333-.712.542-1.073.805-.13.095-.562.244-.403.268.145.023 4.187-.12 4.426 0 .179.09-.364.167-.537.269-.588.346-1.202.656-1.743 1.072-.77.593 1.357-.173 1.475.537.073.434-.324 4.092-.402 4.157-.6.5-3.039.625-3.219.805-.031.031-.008.09 0 .134.037.18.045.375.134.536.24.43 1.244 1.037.135 1.207-1.203.185-7.189.349-7.242.403-.003.003-.017 1.996 0 2.145.046.413.297 1.117.134 1.207-.84.467-1.918-.214-1.61.403.258.515 1.261.398 1.61.804.592.691.536.762.536 1.475 0 .134-.054.28 0 .403.203.456.55.856.67 1.34.047.186-.127.812 0 .94.033.031.11-.038.135 0 .08.12.364.66.268.804-.124.186-.357.268-.536.402-.179.224-.395.422-.537.671-.088.155.154.444 0 .536-.918.551-1.698-.259-2.414-.402-.633-.127-.834.167-1.34.268-.878.176-1.453-.592-2.146-.938-2.31-.66-.402.134-1.073-.537-.1-.1-1.088.034-1.207 0a6.6 6.6 0 0 1-1.341-.536c-.008-.004-.79-.934-.805-.939-.396-.132-.936.365-1.34.134-1.221-.697-1.715-2.25-2.683-3.218-.233-.233-.811.025-.939-.135-.615-.769-.829-1.729-1.34-2.548-.054-.084-.17-.123-.269-.134a4.7 4.7 0 0 0-.939 0c-.183.017-.357.18-.536.134-.332-.082.432-.536-.268-.536-.408 0-2.28.63-2.28.67 0 .437 2.169-.884.67-.67-1.085.155-2.151.421-3.218.67-.276.065-.522.269-.805.269-.029 0 .048-.757 0-.805-.31-.31-1.35.262-1.743 0-.167-.11-.127-.395-.268-.536-.29-.29-.569-.011-.94-.134-.287-.096-.096-1.505-.67-1.744-.371-.155-.804 0-1.207 0-1.256 0-2.589-.047-3.755.537-.344.172-.612.466-.938.67-.038.024-.12-.042-.135 0-.042.127.088.3 0 .402-.446.52-.922.529-1.475.805-.468.234.257.808-.536 1.073-.08.026-1.41.333-1.744 0-.114-.114-.154-.288-.268-.402-.3-.3-1.396.252-1.743-.269-.22-.329.31-.86.268-1.072-.053-.267-.8-.065-.939-.135-.216-.108-.033-.343-.268-.402-.839-.21-.197.674-1.61-.268-.434-.29.182-.674.27-.805.29-.436-.02-1.071-.135-1.475" style="fill:#45982c;fill-opacity:1;stroke-width:7.99999"/><path d="M47.94 37.076c-.27-.045-.557-.024-.806-.134-.385-.172-1.096-1.37-.536-1.744.252-.168 1.045.023 1.207-.268.245-.441.28-1.085.67-1.475.032-.032.093-.017.135 0 .242.097.607.15.67.402.033.13-.107.322 0 .403.52.389 1.162-.672 1.341-.403.158.236.232 1.08.268 1.207.127.443.653.29.805.67.111.278.472 1.3.537 1.342.192.128.792.11.804.134.151.302.438 1.5 0 1.61-.6.15-.574-.038-.804-.269-.071-.07-.186-.079-.269-.134-.238-.159-.334-.468-.536-.67-.399-.4.298 1.246-.537.133-.124-.165-.052-1.877-.134-1.877-.229 0-1.06 1.42-1.207 1.61-.11.142-.221-.269-.402-.269-.312 0-1.207.025-1.207-.268 0-.546.736-.835.939-1.341.085-.212-.45.079-.67.134-.087.022-.25-.087-.269 0-.43 1.933.673.939-1.207.939m13.008-5.231c-1.211-3.252.985-.67 1.744-.67.184 0 .111-.354.134-.537.05-.396-.017-2.81 0-2.816 1.013-.337.962.672 1.877-1.34.056-.123-.094-.308 0-.403.583-.583.533.99 1.073 1.207.218.087 1.066-.141 1.073-.134.032.031.013.091 0 .134-.122.406-.28.8-.402 1.207-.127.423.201 1.726-.134 1.743-2.341.117-2.318-.147-4.426.134-.733.098 1.163 1.19 1.073 1.341-.703 1.172-1.007.852-2.012.134m-38.22 2.146q-.266-.47-.536-.939c-.132-.225-.286-.437-.403-.67-.01-.023-.252-.687-.134-.805.268-.267.24.583.67-.134.15-.25.252-1.081.805-.805 2.387 1.194-.828-.284.805.805.252.168.135-.77.537-.67.248.062.61.327.67.268.037-.037.086-.39.268-.268.007.004.246.372.403.268.482-.322.125-.645.268-1.073.112-.337 1.312-.07 1.61-.268.05-.034-.03-.343 0-.403.208-.418 1-1.01 1.474-.536.036.035 0 .347 0 .402 0 .437-.017.333.134.94.054.215.537.95.537 1.072 0 .619-.188-.187-.268.134-.076.303.126.679-.135.939-.58.58-1.905.296-2.011.402-.032.032.042.12 0 .134-.13.044-.492 0-.67 0-.269 0-.565-.12-.805 0-.17.085-.255.284-.403.403-.078.062-.223.044-.268.134-.045.089.23.3.134.268-.312-.104-.804-.57-.804-.402 0 .126.228.148.268.268.061.183.058.67-.134.67-.699 0-1.308-.033-2.012-.134" style="fill:#377a23;fill-opacity:1;stroke-width:7.99999"/><path d="M68.703 49.478c-.113 0-.198.022-.246.07-.182.182 1.44 1.162 1.476 1.341.106.534 0 1.197 0 1.743v1.207c0 .045.04.114 0 .134-.12.06-.269 0-.403 0-1.765 0-.407-1.281-1.073-2.28-.05-.075-.747.556-1.207.403-.41-.137-.06-2.622-.536-2.146-.032.032.034.105 0 .134-1.293 1.077-3.06 1.562-4.425 2.548-.264.19-.148.637-.269.94-.225.562-.773.264-.938.401-.22.183-.348.455-.537.67-.125.144-.308.238-.402.403-.092.16-.02.392-.134.536-.322.402-1.18.086-1.341-.268-.153-.335-.123-.734-.268-1.073-.152-.353-.228.527-.269.671-.156.548-.411 1.427-.939 1.744-.406.243-.383-.498-.536-.269-.189.284-.074.813-.536.939-2.527.69.2-3.329-1.744-2.414-.562.264-1.085.605-1.61.939-.46.292-.914.598-1.34.938-.045.037.077 1.467 0 1.744-.134.482-.394.925-.67 1.341-.517.774-1.3 1.016-2.147 1.341-.345.133-.213-.189-.536.134-.095.095.07.287 0 .402-.097.163-.317.233-.402.403-.145.291-.056.691-.268.938-.117.136-.358 0-.537 0-.134 0-.282.06-.402 0-.301-.15-.48-1.183-.526-1.425.005.035.008.075-.01.084-.165.083-.38.037-.537.135-.214.134-.334.384-.536.536-.16.12-.38.143-.537.268-.203.163-.218.486-.402.67-.032.032-.114-.04-.134 0-.128.256.153.26-.134.403-.08.04-.181.02-.269 0-.36-.08-.736-.118-1.072-.268-.085-.038-1.097-1.627-1.61-2.012-.79-.592.022.025-.938-.402-.238-.106-.447-.268-.67-.402-.09-.09-.156-.212-.27-.269-.495-.248-2.251.269-2.681 0-.204-.127.166-.452.268-.67.211-.453.512-.867.67-1.341.233-.7-.402-1.34-.402-2.012 0-.294.16-1.341-.134-1.341-.313 0-.635.076-.939 0-.22-.055.056-.797-.134-.67-.29.193-.5.5-.804.67-.118.065-.268 0-.403 0-.089 0-.204.063-.268 0-.33-.33-.301-.886-.402-1.341-.01-.044.044-.143 0-.134-.472.094-.865.468-1.341.536-.257.037-1.742-.068-2.146.134-.938.47-.308 1.593-.536 1.878-.274.342-1.6 1.218-2.012 1.341-.3.09-.626 0-.939 0-.135 0-.634.073-.67 0-.08-.16 0-.357 0-.536 0-.468-.272-.607 0-1.074.953-1.634.804-.61.804-2.01 0-.09.05-.195 0-.269-.055-.083-.185-.079-.268-.134-.052-.035-.09-.179-.134-.134-.063.063.043.19 0 .268-.459.826-.559 1.073-1.341 1.073-.09 0-.188.04-.268 0-.04-.02.022-.096 0-.135-.16-.28-.406-.51-.537-.804-.054-.123.075-.29 0-.402-.234-.351-.706.46-1.073.67-.684.391-1.577.62-2.28.268-.08-.04-.188.04-.268 0-.664-.332-.507-1.877-1.34-1.877-.045 0 0 .09 0 .134v.67c0 .34-.113.87 0 1.208.126.38.4.712.536 1.072.554 1.48.355 3.153-.537 4.426-.109.155-.226.332-.402.402-.008.003-1.359.167-1.609 0-.307-.205.018-.384-.134-.536-.227-.227-2.287.197-2.682 0-.355-.178-.374-2.402-.403-2.548-.009-.044-.091.014-.134 0-.095-.032-.197-.064-.268-.134-.192-.193-.268-.293-.268-.537v-1.073c0-.044.042-.12 0-.134-.127-.042-.283.06-.403 0-.155-.078-.122-.676-.402-.536-.447.223-.941.97-1.34.67-.794-.595-.073-.41-.538-1.34-.04-.08-.188.04-.268 0-.13-.066.063-1.152 0-1.342-.02-.06-.071.124-.134.134-.353.06-.733.113-1.073 0-.023-.008.01-1.609 0-1.609-.16 0-.246.23-.402.268-.497.124-.881-.191-1.341-.268-.321-.053-.154.634-.268.939-.243.646-.38.018-.537.268-.212.34-.296.753-.536 1.073.045-.179.313-.492.134-.536-.038-.01-.07.02-.097.064.018.085.025.163-.037.204l-.036.018c-.022.127-.024.25.003.268-.918.52-.66.272-1.04.652-.07.071-.213.051-.268.135-.123.183-.16.41-.248.613.848.223 2.669.389 2.26.593-.462.23-.84-.233-1.342.268-.126.127.361-.032.537 0 1.65.3.82.161 2.146.671.303.117.678.073.938.268.397.298-.098.84.134 1.073.032.032.094-.02.134 0 .348.174.736.528.805.94.057.345-.812.365-.939.401-.462.132-.769.426-1.072.805-.125.156-.127.395-.269.536-.413.414-.539.02-.67.94-.051.356.589.448.939.536 1.213.303 1.004.268 1.877.268.1 0-.268.034-.268.134 0 .09.179 0 .268 0 .715 0 1.442-.128 2.146 0 1.084.197.327.118.536.537.02.04.093-.018.134 0 .276.118.544.255.805.402.454.255.89.543 1.341.804.398.23.881.346 1.207.671.126.126 0 .358 0 .536 0 .045.031.103 0 .134-.048.048-1.753 1.403-1.341 1.61.08.04.188-.04.268 0 .2.1.342.291.536.402.6.343 1.393.361 2.012.67.385.193.614.583.82.986.084.162.163.377.253.49.903 0 1.671.012 2.548-.134 1.003-.167 2.072.112 3.085 0 .099-.011.17-.115.268-.135.774-.154 2.86 0 3.755 0 .51 0 2.209-.145 2.548 0 .243.105-.002.554.402.403.826-.31.82-.458 1.609-.536.686-.07 1.177.13 1.61.67.062.078.05.212.134.268a.39.39 0 0 0 .402 0c.7-.466 1.569-1.539 2.548-.805.354.266.556.805 1.073.805.162 0 1.775-1.14 2.28-.805.166.111.152.374.268.537.366.512 1.003.666 1.609.536.498-.107.992-.563 1.475-.402.211.07.162.476.94.67.485.122 1.128-.068 1.608 0 .063.01.078.106.134.135.165.082.356.097.537.134.31.062.635.047.939.134.043.012 0 .09 0 .134 0 .523.424.493.938.536.56.047 3.365.128 3.621 0 1.467-.733-2.798-.158 1.744-.67.627-.126 1.248-.285 1.877-.403.088-.016.188.04.268 0 .04-.02-.031-.102 0-.133.604-.605.002.932.537-.94.012-.042.031-.102 0-.133-.032-.032-.09 0-.134 0h-1.342c-.09 0-.348.04-.268 0 .61-.305 1.25-.543 1.878-.805 1.03-.43 1.482-.288 1.877-1.34.061-.164-.608-.814-.67-.94-.083-.166 0-1.783 0-1.877 0-.31-.372-.742 0-1.207.118-.148.317-.233.402-.402.152-.303-.175-.916 0-1.208.51-.85.618-.195 1.073-.536.623-.467.132-.368.805-.536.303-.076.625 0 .938 0 .477 0 1.242-.112 1.744 0 .36.08.706.225 1.072.268.4.047.807-.04 1.208 0 .392.039.047.903.67 1.073 1.673.456 1.584.177 3.219-.134.448-.086.904-.137 1.34-.268.086-.026-.084-.24 0-.27.259-.085.55-.037.805-.133.445-.167 3.025-1.287 3.353-1.877.258-.464.197-1.707.402-1.878.2-.167.487-.218.67-.402.264-.263-.23-.518-.267-.67-.046-.182-.085-.946 0-1.074.467-.702.869-.88.536-1.877-.176-.529-1.858-.996-2.012-1.073-.288-.144-.516-.392-.804-.537-.08-.04-.184.029-.268 0-.332-.11-1.081-.904-1.208-1.072-.025-.034-.03-.077-.04-.118-.078-.002-.158 0-.228-.016-.545-.137-2.719-1.148-3.51-1.143m-50 20.186c-.079-.16-.169-.324-.253-.49-.083-.16-.172-.27-.283-.18-.223.178.665.926.537.67m27.235-7.997c-.005-.04-.015-.073-.01-.05 0 .007.009.042.01.05" style="fill:#204714;fill-opacity:1;stroke-width:7.99999"/><path d="M22.88 279.522c-1.995-.806-4.222-2.103-5.044-4.235-.067-.173-.24-.313-.24-.498 0-.429 2.98-.149 2.402-.748-.725-.752-1.582-1.354-2.402-1.992a17 17 0 0 0-1.442-.997 7 7 0 0 0-.96-.498c-.075-.031-.321 0-.241 0 .418 0 3.603.197 3.603-.25 0-.946-1.431-1.175-2.162-1.743-.362-.282-.607-.703-.96-.996-.063-.052-.32 0-.24 0 .5 0 1.72.332 1.2-.748-.152-.315-.497-.482-.72-.747-1.767-2.094.015-.615-2.643-1.993-.734-.38-1.49-.709-1.441-.747 1.24-.965 3.161-.622 4.564-1.246.074-.032 0-.166 0-.249 0-.415.18-.874 0-1.245-.073-.153-2.121-.732-2.642-1.993-.439-1.06-.336-3.288.96-3.737.64-.22 2.458.651 1.442-1.245-.25-.465-.807-.656-1.201-.997-1.641-1.418-3.604-3.036-3.604-5.48 0-.997 2.595-.389 3.123-.498v-.997c0-.58.136-1.18 0-1.743-.044-.183-.419-.22-.24-.499.523-.813 1.877-.357 1.922-.498.338-1.052-.723-2.001-.961-2.99-.402-1.667 1.677.011 2.162-.995.443-.919-.446-3.31 0-4.235.945-1.96 5.193 1.859 6.006-.25.1-.257-.24-1.908-.24-2.241 0-.083-.057.19 0 .249.283.293.715.42.96.747.33.44.481.997.721 1.495.924 1.915.195-1.121.72-.25.466.772.897 2.507 1.923 2.99.044.02 2.368.42 2.642.249.217-.135.1-.529.24-.747.38-.59.24 1.671.24.996 0-2.814-.178.557 1.202-3.736.127-.394-.11-.847 0-1.246.11-.401 1.648-1.32 1.681-1.495.173-.893.166-4.701 0-5.729-.131-.819-2.005-1.734-1.44-3.488.024-.078.177.052.24 0a6 6 0 0 0 .96-.996c.287-.382.512-.812.721-1.245.193-.4.175-.93.48-1.246.541-.56 1.287 2.74 2.403 2.74 2.37 0 1.392-2.191 2.642-3.487.227-.235 0 .664 0 .996 0 1.117-.106 2.132.72 2.99.476.492.722-1.18.722-.748v1.495c0 .083-.048-.183 0-.25.203-.281.48-.498.72-.747.08-.083.16-.332.24-.249.397.411-.25 1.224 0 1.744.357.74 2.81-.227 2.883 0 .076.236-.107.524 0 .747.08.166.4.083.48.25.152.312 0 1.96 0 2.241 0 1.767-.17.146.241.997.423.876-.325 2.976 0 3.985.177.551.494.014.72.25.057.058-.044.18 0 .249.57.885 1.284.73 2.403.498 1.713-.355 4.805-.469 4.805-2.99 0-.013-.683-1.392-.721-1.992-.053-.829 0-1.661 0-2.491 0-2.001.721-3.98.48-5.979-.11-.917-.88-5.204.24-5.978.552-.382 4.338.184 5.286 0 .773-.15 2.468-1.036 2.642-.748.408.677.663 2.798 1.682 3.239 2.677 1.157 1.304-.997 3.843-.997 1.184 0-.98 2.489 1.202 2.74l1.2-.249c0-.083-.07-.212 0-.249.622-.322 3.036.034 3.364 0 .273-.028 2.905-.854 3.363-.498.747.581.906 1.698 1.442 2.491.26.385.71.606.96.996.1.155.16.333.24.499.24.332.476.668.721.996.315.42.582.888.961 1.246.313.294 2.257 1.388 2.403 1.992.15.627-.243 1.872-.48 2.242-.946 1.47-.09-1.791-.722.499-.354 1.286-.397 2.75 0 3.985.234.728-.19 1.102.24 1.993.388.803.853 1.584 1.442 2.242.469.523 1.033 1.005 1.682 1.246.293.108 1.543 0 2.162 0 1.752 0 2.114.008 5.045-.499.353-.06.613-.408.96-.498.495-.128-2.19 5.45-1.681 5.979.727.753 4.084-1.904 4.084-.25 0 .642-.546.452-.72.997-.807 2.51 2.702 1.4-1.202 4.235-.914.663-2.334.428-3.123 1.245-.513.532-.753 1.71-.24 2.242.967 1.004 2.545 1.046 3.843 1.495.867.3 1.757.518 2.643.747.078.02.309-.042.24 0-2 1.244-2.502.507-1.681 2.491.14.342.168.815.48.997 1.038.605 2.2.983 3.363 1.245.704.159 1.442 0 2.162 0 .08 0 .24-.083.24 0 0 .675-.57.522-.96.748-1.225.705-2.384 1.527-3.604 2.241l-1.922.997c-.32.083-.665.096-.96.249-.144.074.32 0 .48 0 .277 0 2.462-.187 2.642 0 .284.295-.175 1.63 0 1.993.111.23.822.536.48.996-.725.979-1.476 1.964-2.401 2.74-.354.297-3.123 1.055-3.123 2.491 0 .402.859.18.96.25.15.103.07.44.24.498.884.305 2.011-.433 1.682.249-.113.235-.497.125-.72.249-.982.543-1.899 1.206-2.883 1.744-.54.294-1.11.525-1.682.747-.075.03-.24-.083-.24 0 0 .783.81.529.961.996.046.143.06 2.035-.24 2.242-.55.38-1.289.305-1.922.499-.729.222-1.457.454-2.162.747-.73.303.646.575 0 1.245-.17.177-.518-.133-.72 0-1.005.663-1.983 1.464-2.643 2.491-.14.219-.1.53-.24.748-.134.207-.481 0-.721 0-1.38 0-.92-.567-2.162-.997-.912-.315-1.922 0-2.883 0-1.465 0-3.122-.249-4.564 0-.516.09-1.305 1.202-1.682 1.495-.064.05-.184-.059-.24 0-.057.059.08.25 0 .25-.646 0-5.735-.464-6.487-.5-.07-.002-2.493-.217-3.123 0-.3.105-.64.582-.96.5-2.155-.56-1.273-.66-2.883-1.496-.32-.166-.64.333-.961.499-.501.26-1.173-.244-1.682 0-1.777.85-3.274 3.453-2.883 5.48.162.838.57-2.664.481-2.99-.16-.58-1.27.072-1.682.499-.179.186-.088.537-.24.747-.107.149-.354.118-.48.25-.057.058.077.228 0 .248-.311.081-.644-.047-.961 0-3.44.51-2.74 1.312-6.006.748-.841-.146-.535-.193.24-.997.16-.166-.308.346-.48.499-.288.255-2.514 2.12-2.883 1.992-.41-.141-.778-.41-1.201-.498-1.25-.259-3.085 0-4.324 0-.903 0-1.252.275-1.201.25.644-.335 1.771-.997.24-.997-.72 0-1.47-.205-2.162 0-.345.102-.629.36-.961.498-.564.234-.042-.457-.24-.498-.443-.092-1.416.175-1.922 0-1.357-.469-.656-1.79-.961-2.74-.025-.079-.16 0-.24 0-.08-.083-.222-.134-.24-.25-.14-.862.132-1.965 0-1.992-.393-.082-.81.081-1.202 0-.316-.066.403-1.017 0-1.495-.453-.537-1.12-.83-1.681-1.245" style="fill:#337020;fill-opacity:1;stroke-width:10.3188"/><path d="M18.797 249.878c-.374-.795-1.756-2.088-1.201-3.238.074-.156.789.393.96-.498.079-.408-.126-.852 0-1.246.153-.474.922-.168 1.202-.747.226-.47-.178-.595.24-1.246.076-.118 1.1.053 1.201 0 .072-.037 0-.166 0-.249 0-.415-.05-.833 0-1.245.127-1.057.423-1.313.96-2.242.042-.072-.07-.212 0-.25.15-.077.749 0 .962 0h2.162c.32 0 .666-.13.96 0 2.356 1.047-.182 6.038.481 6.726.073.075.96.622 1.201.748.418.216.739.682 1.202.747 1.348.19 2.722 0 4.083 0 .32 0 .658.105.961 0 .108-.037-.224-.133-.24-.25-.068-.492 0-.996 0-1.494 0-.581.136-1.18 0-1.743-.292-1.212-1.73.782-.48-2.242.29-.704.988-1.14 1.441-1.744.001-.001.297-.747.48-.747.08 0-.035.174 0 .249.032.065.315.42.481.249.057-.059 0-.166 0-.25.08-.082.153-.173.24-.248.394-.34.917-.555 1.201-.997.907-1.41.92-6.276 1.442-6.726.394-.34.79-.677 1.2-.996 2.36-1.835-.182 1.67 1.442.996.316-.13.438-.942.721-.747.471.326-.326 1.744.24 1.744 1.216 0 2.122-.572 2.162-.499.476.864.155 2.492.24 2.492.295 0 .834-.44 1.202-.25.218.114-.274.614.24.748.472.122.98-.41 1.441-.25.607.21-1.2 3.189-1.2 3.488 0 1.027 1.951-.396 2.882-.747 1.077-.406-.284 1.077 1.201.747 3.668-.815 1.769-.09 3.844-2.242.813-.843-1.29 3.68 2.162.498 1.235-1.138-.876-4.421-.48-4.733 2.21-1.742 5.003-2.697 6.966-4.733.204-.211-.276-.535-.48-.747-1.215-1.259-3.224-2.02-2.403-4.235.265-.714.781-1.401 1.442-1.743.876-.455 3.175 1.404 3.363 1.494.011.005 1.564.377 1.681.498.262.271-.416 1.41.24 1.495.716.093 1.518-.334 2.163 0 .286.149-.17.715 0 .996.3.498.723.93 1.2 1.246.974.642 2.3.462 2.163.747-.803 1.665-1.946.976-3.123 1.993-.222.192.432.498.72.498.248 0 1.75-.179 1.923 0 .056.059 0 .166 0 .25l.48.498c.16.166.448.265.48.498.103.744-.389 1.869.24 2.242.44.26 1.053.162 1.442.498.297.256-.263 1.222 0 1.495.18.185.51.103.72.249.405.28-.358 2.119 0 2.49 1.094 1.135 2.316-.044 3.364.499.072.037-.036.175 0 .25.201.416.763 1.84 1.201 1.992.688.238 1.44.174 2.162.25.08.007.205-.075.24 0 .18.37-.097.842 0 1.245.074.303 1.06.507 1.202 1.245.087.452-.11 1.042 0 1.495.28 1.162.12-.083.72.747.259.358.288.846.48 1.246.08.166.114.366.24.498.058.058.216-.079.241 0 .076.236-.076.51 0 .747.091.284.351.48.48.747.554 1.149-1.65 3.191-2.402 3.737-.678.493-3.467.854-4.324.498-1.193-.495.237-4.053-1.441-3.736-1.553.292-2.114.199-3.123 1.245-.293.304-.113.557-.48.747-.637.33-.712-2.395-2.883-1.494-3.069-.885-.599.87-.961 1.245-.633.657-1.665.72-2.403 1.246-.701.5-1.079 1.619-1.921 1.744-.8.118 1.154-2.94.96-2.99-1.824-.473-2.16 1.495-2.402 1.495-.487 0-.955-.223-1.441-.25-1.04-.056-2.102-.21-3.123 0-.633.132-1.156.608-1.682.997-.065.049-.08.25 0 .25s0-.167 0-.25c0-.249.144-.548 0-.747-1.061-1.468-.763.503-1.922-.498-1.147-.991.18-2.803-.72-3.737-.764-.791-3.032-1.305-3.364-1.993-.214-.444.385-1.904 0-1.992-.625-.145-1.288.098-1.921 0-1.057-.165-2.168-.252-3.123-.748-.102-.052-.13-.22-.24-.249-1.335-.346-2.929 0-4.325 0h.48c.51 0 2.167-.514 1.923.498-.187.772-.875.568-1.202 1.246-.035.074.184-.059.24 0 .057.059 0 .166 0 .249 0 .415.067.836 0 1.245-.216 1.35-.342.995-.96 2.492-.436 1.054.41 2.67 0 3.736-.514 1.332-4.228 2.28-5.045 2.491-.31.08-1.275.065-.961 0 .711-.147 1.445-.135 2.162-.249.326-.052.64-.332.96-.25.156.041.146.428 0 .5-1.464.719-3.008 1.268-4.563 1.743-1.176.358-2.42.42-3.604.747-.077.022-.078.233 0 .25.79.163 1.601.173 2.402.248.08.008.184-.058.24 0 .136.14.403 2.821.24 2.99-.304.316-.841.25-1.2.498-.189.13-.259.452-.48.498-1.393.289-6.913 1.15-7.208.997-.626-.325-.97-1.397-1.2-1.993-.032-.082.062-.834 0-.748-.833 1.15-.948 2.4-2.163 3.239-.094.065-.127.249-.24.249-.55 0-.492-.415-.72-.747-1.27-1.843-1.202-1.193-1.202-3.239 0-.994.509.513 0 .25-.304-.158-.552-.442-.72-.748-.1-.18-.508-1.7-.721-1.744-1.088-.225-4.759-.129-5.285-1.494-.21-.546 1.135-.095 1.681-.25 2.722-1.41-.716.186 1.922-.498.08-.02-.071-1.481-.24-1.743-.535-.833-3.356-1.601-1.682-2.99.062-.05.873-.498.961-.498.925 0 1.675.106 2.643.25" style="fill:#45982c;fill-opacity:1;stroke-width:10.3188"/><path d="M28.071 1.533c-.657.088-1.212.807-1.857 1.077-.821.345-1.684.589-2.548.805-.217.054-.463.083-.67 0-.083-.033.01-.18 0-.268-.035-.314-.035-.639-.135-.939-.02-.06-.077.106-.134.134a7 7 0 0 1-.939.403c-.35.116-.708.216-1.072.268-.31.044-.66-.14-.94 0-.144.072-.469.352-.67.402-.13.032-.322-.107-.402 0-.12.16-.138.385-.268.536-.582.679-1.059.365-1.744.537-.757.189-1.249.845-1.61 1.475-.319.56.637 4.08.403 4.157-.368.123-1.54.084-1.877 0-.206-.051-.754-.888-.805-.939-.647-.647-.617-.375-1.207-.67-.371-.185-.688-.64-1.073-.804-.205-.088-.47-.1-.67 0-.075.037-.714.847-.805.938-.15.15-.627-.678-.938-.134-.15.26-.254.544-.403.805-.157.275-.18-.034-.268.402-.113.562.251.423-.268 1.073-.17.211-.648-.204-.805.268-.028.085.04.189 0 .269-.056.113-.237.145-.268.268-.076.303.221.717 0 .938-.032.032-.09 0-.134 0-.883 0-.817-.176-1.207 1.073-.095.305-.403 2.166-.403 2.548 0 .045.043.12 0 .135-.127.042-.29-.075-.402 0-.045.03.1 1.818 0 2.413-.008.05-.778-.052-.804 0-.339.677.665 3.608.67 3.621.165.43.494.782.67 1.207.052.124 0 .268 0 .403 0 .044.04.113 0 .133-.167.084-.68-.123-.804 0-.158.158.216.413.402.537.037.025.103-.032.134 0 .032.031-.031.103 0 .134.114.114.28.163.403.268.192.165.315.414.536.537.2.11.462.041.67.134a1 1 0 0 1 .247.18c.065-.45.167-.832.167-1.47 0-.313-.214-.532-.19-.57.521-.78 1.32.007 1.897-.569.079-.079-1.914-2.046-2.086-2.276-.152-.202 0-.505 0-.758 0-.38.038-.76 0-1.138-.025-.247-.815-1.65-.57-1.897.046-.044.146.045.19 0 .045-.044-.028-.133 0-.19.285-.567 1.266-.119 1.897-.189.008 0 0-.53 0-.569 0-.537.19-.795.19-1.327 0-.127.04-.26 0-.38-.029-.085-.208-.102-.19-.19.175-.877 1.232-1.072 1.684-.936-.212-.249-.51-.665-.546-.77-.114-.342.114-.797 0-1.139-.023-.07-.503-.948 0-.948.2 0 .373.15.569.19.147.03.883.06.948.19.057.112-.047.261 0 .379.046.114.558.881.759.948.24.08.505 0 .758 0 .443 0 .888.049 1.328 0 .199-.022.506-.38.569-.19.126.378-.194.567.19.759.25.125.682-.089.948 0 .218.073.263.453.38.569.1.1.237.19.378.19s.246-.145.38-.19c.288-.096.677.163.948 0 .549-.33.491-1.92.569-2.466.095-.666.648-1.043.759-1.706.101-.612-.263-3.08 0-3.604.233-.467 1.199-.463 1.517-.569.085-.028.102-.207.19-.19.277.056.602.145.759.38.255.383.267.88.379 1.327.015.062-.045.235 0 .19.34-.34-.076-1.176.38-1.328.15-.05 1.394-.122 1.516 0 .09.09-.105.31 0 .38.54.36 1.364.123 1.897.19.355.044.124.692.19.758.134.134.463-.158.568 0 .214.32.039.784.19 1.138.179.417 1.479.05 2.086 0 .252-.021.9-.21.759 0-.198.298-1.517.417-1.517 1.138 0 .253.518-.08.758 0 .694.231-.48.321.759.569.628.125 1.503-.073 2.086 0 .584.073-.058.214.19.38.476.317 1.63.398 2.086 0 .372-.326.6-.79.948-1.139.084-.084.358.148.19-.19-.04-.08-.19-.1-.19-.19 0-.14.335-.055.38-.189.084-.252-.12-.707 0-.948.305-.612 1.145-.031 1.327-.759.071-.284-.191-1.136 0-1.327.224-.224.656.12.948 0q.6-.247 1.184-.513c-.022-.193-.052-.339-.103-.364-.37-.185-.319.567-1.475.402-.262-.037-.066-.83-.537-.536-.39.243-.93 1.038-1.207.67-.004-.006.006-1.308 0-1.34-.013-.084-.398.267-.536.267-.387 0-.457-.427-.537-.268-.097.194.117.85.135.939.008.044.031.166 0 .134-.334-.334-.795-1.102-.805-1.073-.018.054.3 2.876 0 2.95-.307.077-.628.08-.939.135-.449.079-.887.232-1.341.268-.668.054-1.342.04-2.011 0-.51-.03-.133-.533-.269-.805-.054-.108-.452.085-.536 0-.015-.014.203-1.559.402-1.877.152-.243.4-.42.537-.67.138-.255.699-1.896 0-2.013a1 1 0 0 0-.289-.004M9.065 13.398c.116.136.213.235.213.178 0-.082-.088-.14-.213-.178" style="fill:#44962c;fill-opacity:1;stroke-width:7.99999"/><path d="M47.142 3.66c-.047.006-.097.02-.142.023-.626.04-1.251.093-1.877.134-.045.003-.103-.031-.134 0-.49.49-.037.41-.67.939-.11.09-.293.046-.403.134-.33.265-.804 1.34-.939 1.744-.047.14.11.695 0 .804-.242.243-.696.428-.939.67-.887.888.161.71-1.083.87-.002.015-.009.032-.005.046.2.804.48.9 1.328.758 1.15-.191.06-.06.379-.379.09-.09.253 0 .38 0 .505 0 1.047.188 1.516 0 .847-.338 1.606-.899 2.276-1.517.324-.299.19-1.465.19-1.897 0-.126-.12-.419 0-.379.06.02 1.023.644 1.138.759.173.173-.087.672.19.948.265.266 2.528-.253 3.034 0 .547.274-.103 1.035.19 1.328.268.268.83.035 1.137.19.448.223.022.78.38 1.137.134.134.379 0 .569 0 1.124 0 1.504.264 2.655.38.252.025.514-.062.759 0 .061.015-.015.128 0 .189.048.194.048.428.19.569.089.09.252 0 .379 0h3.603c.064 0 .145.045.19 0 .086-.086-.24-.557-.19-.759.42-1.677.38-.605.38-1.517 0-.366-.79-.085-.57-.38.698-.93 1.485-1.126 2.656-1.516 1.246-.416-1.15 2.153 1.327 1.327.255-.085.346-.42.57-.569.117-.078.05.356.189.38 1.155.192 2.305-.095 3.09-.858-1.155-.447-1.474-.316-2.976-.316-.581 0-1.223.26-1.743 0-.056-.028-.09-.09-.134-.134 0-.045.036-.108 0-.134a7 7 0 0 0-.939-.537c-1.312-.656-2.65-1.71-4.157-1.207-.366.122-.903 1.404-1.073 1.744-.434.869-1.795 1.521-2.682 1.743-.26.065-.537 0-.805 0-.328 0-1.076.173-1.341-.268-.069-.115.022-.27 0-.402-.08-.476-.268-.597-.268-1.073 0-.106.087-1.077 0-1.207-.278-.417-.99.18-1.341.268-.252.063-.257-.927-.537-1.207-.114-.114-.273.171-.402.268-1.139.854-.981.559-1.073-.268a5 5 0 0 0-.134-.67c-.01-.044.025.096 0 .133-.323.485-.674 1.208-1.34 1.342-.174.034-.191-1.226-.672-1.61-.034-.028-.079-.029-.126-.023" style="fill:#3c8527;fill-opacity:1;stroke-width:7.99999"/><path d="M92.892 256.736a5 5 0 0 0-.825.117c-.282.065-.447.403-.72.498-.463.16-.96.178-1.442.25-.08.01-.184-.06-.24 0-.203.21-.2 2.366 0 2.989.025.079.173-.046.24 0 .272.188.88.968.96 1.246.163.562.178 1.16.241 1.743.26 2.422-1.561.996-1.922 1.495-.444.613.153 1.744-1.201 1.744-.289 0 .44-.451.48-.748.125-.904.11-1.834 0-2.74-.03-.26-.124.514-.24.747a273 273 0 0 1-3.843 7.473c-.28.524-.553 1.072-.961 1.495-.114.118-.045-.339 0-.498.267-.942.572-1.872.885-2.8-.276.532-.644 1.056-1.126 1.305-.506.263-1.21-.076-1.681.25-.885.611.027 1.992-1.201 1.992-.64 0-1.32.227-1.922 0-1.168-.44-.707-1.948-.961-2.74-.072-.223-.38-.288-.48-.498-.108-.223.214-.859 0-.747-1.075.557-1.809 1.684-2.883 2.241-.942.489-.148-2.202-.48-3.238-.29-.898-1.17-.142-1.443 0-.233.121-.292-.035-.295-.234-.054.008-.126-.015-.185-.015h-2.883c-.24 0-.506-.111-.72 0-.295.153-1.119 1.58-.721 1.993 1.355 1.405 3.634 1.62 4.804 3.238.108.149.114.367.24.498.057.059.225-.081.24 0 .112.576.305 1.583-.24 1.744-2.551.756-5.541-1.744-7.446-1.744-.16 0-.358-.106-.48 0-.395.34-.619.85-.962 1.246-.379.436-.832.8-1.2 1.245-.117.141-.114.63-.241.499-.457-.474-.315-1.744-.961-1.744-.113 0-.135.205-.24.249-.307.127-.631.249-.961.249-.4 0-.07-.782-.48-.498-.189.13-.266.424-.481.498-.607.21-.11-2.174-.72-2.491-.264-.137-1.674 2.072-2.883 2.74-2.406 1.33-2.302-1.066-3.123-.498-.31.214-1.242 1.453-1.682.996-.383-.397.105-1.673-.72-1.245-.203.105-.304.351-.481.498-.86.714-.884.558-2.162.747-.08.012-.184.059-.24 0-.257-.266-.212-1.883-.961-1.494-.783.405-1.795 2.403-2.643 2.989-1.08.746-.94-1.268-.96-1.495-.25-2.837.845-.219 0-5.48-.014-.085-3.859-.483-4.085-.249-.626.65-1.297 2.058-1.681 2.74-.235.418-.537.8-.72 1.246-.3.722 0 3.385 0 4.234 0 .811.229 2.508-.241 3.239-.132.205-1.223 1.736-1.922 1.494-.48-.166-.2-1.057-.48-1.494-.753-1.17-.948-.739-1.682-1.246-.188-.13-.278-.393-.48-.498-.625-.324-.62.862-1.201.996-2.19.505-1.185-.677-1.442-1.743-.021-.09-1.956.178-2.643-.25-.288-.179.601-2.283-.72-2.74-.883-.305-2.298.428-3.124 0-.235-.122.303-2.15-.48-1.743-.536.278.01.864-.48 1.245-.164.127-2.24.902-2.403.498-.345-.859-.543-1.458-.66-1.917-.172.041-.3.092-.3.174 0 .185.173.326.24.498.822 2.132 3.048 3.429 5.044 4.235.56.415 1.228.708 1.682 1.245.403.478-.316 1.43 0 1.495.393.081.808-.082 1.201 0 .132.027-.139 1.13 0 1.993.019.115.16.166.24.249.08 0 .215-.08.24 0 .306.95-.395 2.27.962 2.74.506.175 1.48-.092 1.922 0 .199.041-.324.732.24.498.333-.138.617-.396.961-.498.693-.205 1.441 0 2.162 0 1.531 0 .404.662-.24.996-.05.026.298-.249 1.2-.249 1.24 0 3.075-.26 4.325 0 .423.088.792.357 1.201.498.358.124 2.403-1.58 2.795-1.921-.252.258-.23.33.328.427 3.267.564 2.566-.238 6.006-.748.317-.047.65.08.96 0 .078-.02-.056-.19 0-.249.127-.131.374-.1.481-.249.152-.21.061-.561.24-.747.413-.428 1.522-1.08 1.682-.498.004.015-.005.108-.003.137.54-1.147 1.422-2.158 2.405-2.628.509-.244 1.18.26 1.681 0 .32-.166.641-.665.961-.499 1.61.835.728.936 2.883 1.495.32.083.66-.394.96-.498.63-.218 3.054-.003 3.124 0 .752.035 5.84.498 6.486.498.08 0-.057-.19 0-.249s.176.05.24 0c.377-.293 1.166-1.406 1.682-1.495 1.442-.249 3.1 0 4.565 0 .96 0 1.97-.315 2.882 0 1.243.43.782.997 2.163.997.24 0 .587.207.72 0 .14-.219.1-.529.24-.748.66-1.027 1.639-1.828 2.643-2.49.203-.134.55.176.72 0 .647-.67-.73-.943 0-1.246.706-.293 1.434-.525 2.163-.747.633-.194 1.372-.119 1.921-.499.3-.207.286-2.1.24-2.241-.15-.468-.96-.214-.96-.997 0-.083.165.03.24 0 .571-.222 1.142-.453 1.682-.747.984-.537 1.9-1.201 2.882-1.744.224-.123.608-.014.721-.249.329-.682-.798.056-1.682-.25-.17-.058-.09-.394-.24-.497-.102-.07-.96.153-.96-.25 0-1.435 2.769-2.194 3.122-2.49.925-.777 1.677-1.762 2.402-2.74.342-.46-.37-.767-.48-.997-.175-.363.284-1.698 0-1.993-.18-.187-2.365 0-2.642 0-.16 0-.624.074-.48 0 .294-.153.64-.166.96-.249l1.922-.996c1.22-.715 2.379-1.537 3.603-2.243.39-.225.961-.073.961-.747 0-.083-.16 0-.24 0-.113 0-.227.012-.34.018-.592.16-1.211.191-1.822.231-1.948.126-3.963-.735-5.901-.615m-41.427 27.906c-.436.928-.652 1.944-.478 2.851.154.798.52-2.27.478-2.851m20.367-16.564c.02-.003.046.005.055-.015.072-.149 0-.664 0-.498 0 .043-.06.302-.055.513m12.472 1.67a7 7 0 0 0 .316-.689c.03-.077.027-.327 0-.249-.108.312-.21.625-.316.938m-69.351.806.25.005-.01-.005c-.074-.03-.32 0-.24 0m.25.005q.495.207.951.493c.482.3.953.622 1.404.97a10 10 0 0 0-.203-.721 2.6 2.6 0 0 0-.384-.708c-.76.008-1.432-.024-1.767-.034" style="fill:#1f4614;fill-opacity:1;stroke-width:10.3188"/><path d="M59.374 248.153c-.555-.288-2.082-.844-2.208-1.762-.033-.24.463-.086.68-.176.66-.274-.551-1.057.849-1.057.442 0 .849.557.849.352 0-.132-.427-1.628-.17-1.76.236-.123 1.581-.069 1.699.175.117.243-.182 1.045 0 1.233.09.093.25.083.34.176.252.262-.337 1.147.17 1.41.935.485.918-.715 1.358-1.057.056-.044.915-.073 1.02 0 .133.092.206.26.34.352.191.133 1.894-.15 2.038 0 .455.472-.275 1.626-.51 2.114-.165.342.363 1.485.17 1.585-.203.105-.455.033-.68 0-.96-.142-.77-.448-1.358-1.057-.16-.166-.46.057-.68 0-.296-.077-.547-.308-.85-.352-.568-.084-.286 1.312-.679 2.29-.166.414-1.295.77-1.529.528-.153-.159 0-1.268 0-1.585 0-.681.033-.129-.849-1.41" style="fill:#377a23;fill-opacity:1;stroke-width:10.3188"/><path d="M9.103 71.784c-.526-.556-1.327-1.062-1.327-1.896 0-.063-.05-.15 0-.19.331-.265 1.13-.267 1.517-.19.139.028.245.146.38.19.06.02.252 0 .19 0-.678 0-.862-.685-1.044-1.232-.022-.068-.063-.127-.095-.19-.063-.158-.143-.31-.19-.474-.069-.243 0-.506 0-.759 0-.483.953-.284 1.233-.284.13 0 .287.187.38.094 0 0-.76-.764-.76-.569 0 .032.064-.003.096 0 .285.029.577.022.853.095.205.055.39.172.57.285.075.047.1.19.189.19.05 0-.104-1.533.095-1.613.754-.301 1.577 1.185 1.707 1.423.14.256.137.567.19.853.01.062-.064.19 0 .19.61 0 .193-.368.663-.57.512-.219.563.842.664 1.044.06.121 1.3-.192 1.517-.284.065-.028.14-.045.19-.095.022-.023-.032-.095 0-.095.044 0 .052.08.095.095.91.303 2.138-.63 3.034-.854 1.207-.301.832 1.303 1.612 1.043.55-.183.392-1.078.854-1.232.385-.129.572.292.948.19.26-.072.528-.144.758-.285.866-.533.12-.41.759-.57.269-.066.565.076.759.096.615.061 1.276 0 1.896 0h6.448c1.107 0 2.217.096 3.32 0 .113-.01.174-.159.284-.19.122-.035.253-.009.38 0 .316.023.641.011.948.095 1.13.308 2.013.993 3.224 1.043.473.02.948 0 1.422 0 .569 0 1.143.075 1.707 0 .867-.116 1.72-.325 2.56-.569.13-.038.545-.498.759-.474 2.033.226.92.145 2.37.664.497.177 2.035.171 2.371.094.373-.084.681-.353 1.043-.474.15-.05.333.071.475 0 .249-.124.105-.677.094-.758-.036-.29-.144-.566-.19-.854-.14-.891-.316-2.76.19-3.603.059-.098.204-.11.285-.19s.109-.204.19-.284c.089-.09.252 0 .379 0 .278 0 .61.015.853-.095.163-.074.253-.253.38-.38.637-.636.539-.476 1.043-1.232.47-.704.737-1.642 1.801-1.233.209.08.3.335.475.474.37.297 1.43 1.06 1.99.759 1.186-.638 1.416-1.992 3.13-1.992.095 0 .212-.06.285 0 .384.32.409 1.126.948 1.328.463.174 1.838-.123 2.181-.285.27-.126.534-.67.759-.474.219.192.416.416.569.664.104.17.09.396.19.57.148.255.846 1.512 1.232 1.422.847-.2 1.935-.906 2.466-1.613.265-.354-.254-.462.284-.853.64-.466 2.858-1.135 3.603-.948.093.023.16 2.713.095 2.845-.067.133-.221-.264.095-.475.026-.017.077-.026.095 0 .22.33.156 1.586 0 1.897-.032.063-.14.045-.19.095-.08.08.119.195.19.284l.19.285c0 .063-.029.133 0 .19.04.08.214.103.19.19-.2.694-.812.395-.38 1.042.126.19.184.452.38.57.14.083 1.947-.554 1.99-.38.031.122-.04.26 0 .38.029.084.15.109.19.189.054.108.059 1.068 0 1.138-.247.296-.627.45-.948.664-.095.063-.335.087-.284.19.075.15.303.227.379.378.014.029-.022.073 0 .095.05.05.17.027.19.095.135.473-.095.56-.095.948 0 .525.146 1.698-.095 2.181-.2.401-.407.299-.759.475-.04.02-.05.087-.095.094-.187.032-.385-.046-.569 0-.223.056-.436.152-.663.19-.156.026-.325-.05-.474 0-.068.022-.051.135-.095.19-.084.104-.204.177-.285.284-.1.134.065.943 0 1.138-.095.287-.696.633-.948.759-.057.028-.145-.045-.19 0-.022.022.03.085 0 .095-.29.097-2.402 0-2.655 0-.905 0-1.85.09-2.75 0-.51-.051-1.103-.156-1.612-.19-.37-.025-.767.041-1.138 0-.612-.068-.592-.134-1.043-.285-.211-.07-2.403-.055-2.845 0-1.334.167-2.642.19-3.983.19h-1.706c-.159 0-.321-.038-.475 0-.565.141-1.039.252-1.612.38-.383.085-1.501 0-1.612 0-.9 0-1.767.003-2.655-.095-.428-.048-.913.103-1.328 0-.55-.138-1.034-.337-1.612-.475-.668-.159-1.337-.026-1.991-.19-.753-.187-2.27.116-3.034.285-.746.166-1.696-.11-2.466 0-.544.078-1.075.028-1.612.095-.494.062-1.056.226-1.517.38-.501.166-1.43-.08-1.992 0-.6.085.095.063-.284.19-.21.07-.443 0-.664 0-.506 0-1.013.045-1.517 0-.347-.032-.697-.164-1.043-.19-.648-.05-1.873.148-2.466 0-.476-.12-.752-.216-1.233-.285-.313-.045-.736 0-1.043 0-.544 0-1.252-.092-1.801 0-.257.043-.502.147-.759.19-.507.084-1.102 0-1.612 0H19.25c-.744 0-1.432-.095-2.181-.095-.44 0-1.551.11-1.991 0-.343-.086-.486-.095-.854-.095h-3.13c-.335 0-1.075.1-1.327 0-.334-.134-.454-.56-.664-.854" style="fill:#193810;stroke-width:1.802;fill-opacity:1"/></g></svg>