<svg xmlns="http://www.w3.org/2000/svg" width="350" height="296" viewBox="0 0 92.604 78.317"><g style="display:inline"><path d="M13.588 68.435c-1.996-.805-4.223-2.103-5.045-4.234-.067-.173-.24-.313-.24-.499 0-.428 2.98-.148 2.402-.747-.725-.752-1.582-1.355-2.403-1.993a17 17 0 0 0-1.44-.996 7 7 0 0 0-.962-.498c-.074-.031-.32 0-.24 0 .418 0 3.603.197 3.603-.25 0-.946-1.431-1.175-2.162-1.743-.362-.282-.607-.703-.96-.997-.063-.051-.32 0-.24 0 .5 0 1.72.333 1.2-.747-.152-.315-.497-.482-.72-.747-1.767-2.094.015-.615-2.643-1.993-.734-.38-1.49-.709-1.441-.747 1.24-.965 3.16-.622 4.564-1.246.074-.033 0-.166 0-.249 0-.415.18-.874 0-1.246-.074-.152-2.121-.732-2.642-1.992-.439-1.06-.337-3.289.96-3.737.64-.22 2.458.65 1.442-1.245-.25-.465-.807-.657-1.201-.997-1.641-1.418-3.604-3.036-3.604-5.48 0-.997 2.595-.389 3.123-.498v-.997c0-.581.136-1.18 0-1.744-.044-.182-.419-.22-.24-.498.523-.813 1.877-.357 1.922-.498.338-1.052-.723-2.001-.961-2.99-.402-1.667 1.677.011 2.162-.996.443-.918-.446-3.309 0-4.234.945-1.96 5.192 1.859 6.006-.25.1-.258-.24-1.908-.24-2.242 0-.083-.057.19 0 .25.283.293.715.42.96.747.33.44.48.996.721 1.495.923 1.914.195-1.122.72-.25.466.772.897 2.506 1.923 2.99.043.02 2.368.42 2.642.249.217-.135.1-.529.24-.748.38-.589.24 1.672.24.997 0-2.814-.178.557 1.202-3.737.126-.394-.11-.846 0-1.245.11-.402 1.648-1.32 1.681-1.495.173-.893.166-4.701 0-5.73-.131-.818-2.005-1.733-1.441-3.487.025-.079.178.052.24 0 .354-.293.683-.625.961-.996.287-.382.512-.813.72-1.246.194-.4.176-.929.481-1.245.541-.56 1.287 2.74 2.403 2.74 2.37 0 1.392-2.191 2.642-3.488.227-.234 0 .665 0 .997 0 1.117-.106 2.131.72 2.99.476.492.722-1.18.722-.748v1.494c0 .083-.048-.182 0-.249.203-.281.48-.498.72-.747.08-.083.16-.332.24-.249.397.411-.25 1.224 0 1.744.357.74 2.81-.227 2.883 0 .076.236-.107.524 0 .747.08.166.4.083.48.25.151.312 0 1.96 0 2.241 0 1.767-.17.146.24.996.423.877-.324 2.976 0 3.986.178.551.495.014.722.25.056.058-.045.18 0 .248.57.886 1.283.73 2.402.499 1.713-.356 4.804-.469 4.804-2.99 0-.013-.682-1.393-.72-1.993-.054-.828 0-1.66 0-2.49 0-2.001.721-3.98.48-5.98-.11-.916-.88-5.203.24-5.978.552-.38 4.338.185 5.286 0 .773-.15 2.468-1.035 2.642-.747.408.677.663 2.798 1.682 3.238 2.677 1.157 1.304-.996 3.843-.996 1.184 0-.98 2.489 1.201 2.74l1.202-.249c0-.083-.072-.212 0-.249.621-.322 3.035.034 3.363 0 .273-.028 2.905-.855 3.363-.498.747.58.906 1.698 1.441 2.49.26.386.71.606.961.997.1.155.16.332.24.498.24.333.475.67.721.997.315.42.582.888.961 1.245.312.295 2.257 1.388 2.403 1.993.15.627-.243 1.872-.48 2.242-.946 1.47-.09-1.792-.722.498-.354 1.286-.397 2.75 0 3.986.234.728-.19 1.102.24 1.993.388.803.853 1.584 1.442 2.242.469.523 1.033 1.005 1.682 1.245.293.109 1.543 0 2.162 0 1.752 0 2.114.008 5.044-.498.354-.06.614-.408.961-.498.495-.128-2.19 5.45-1.681 5.978.727.754 4.084-1.903 4.084-.249 0 .642-.546.452-.721.997-.807 2.509 2.703 1.4-1.201 4.235-.914.663-2.334.427-3.123 1.245-.513.532-.753 1.71-.24 2.242.967 1.003 2.545 1.046 3.843 1.495.866.3 1.757.517 2.643.747.078.02.309-.043.24 0-2 1.244-2.502.507-1.682 2.491.142.341.169.814.48.996 1.038.606 2.2.984 3.364 1.246.704.159 1.442 0 2.162 0 .08 0 .24-.083.24 0 0 .675-.57.522-.96.747-1.225.706-2.384 1.528-3.604 2.242l-1.922.997c-.32.083-.665.096-.96.249-.144.074.32 0 .48 0 .277 0 2.462-.187 2.642 0 .284.294-.175 1.63 0 1.993.111.23.822.536.48.996-.725.978-1.476 1.964-2.402 2.74-.353.297-3.123 1.055-3.123 2.491 0 .402.86.18.961.25.15.102.07.439.24.498.884.305 2.011-.434 1.682.249-.113.235-.497.125-.72.249-.982.543-1.899 1.206-2.883 1.744-.54.294-1.11.525-1.682.747-.075.029-.24-.083-.24 0 0 .783.81.529.96.996.047.143.06 2.035-.24 2.242-.549.38-1.288.305-1.921.498-.729.223-1.457.455-2.162.748-.73.303.646.575 0 1.245-.17.176-.518-.133-.721 0-1.004.663-1.982 1.464-2.642 2.491-.14.219-.1.53-.24.748-.134.207-.481 0-.721 0-1.38 0-.92-.567-2.162-.997-.912-.315-1.922 0-2.883 0-1.466 0-3.122-.25-4.565 0-.515.09-1.304 1.202-1.681 1.495-.064.05-.184-.059-.24 0-.057.059.08.249 0 .249-.646 0-5.735-.463-6.487-.498-.07-.003-2.493-.218-3.123 0-.3.104-.64.58-.96.498-2.156-.559-1.273-.66-2.883-1.495-.32-.166-.64.332-.961.499-.502.26-1.173-.244-1.682 0-1.777.85-3.274 3.453-2.883 5.48.162.838.57-2.664.48-2.99-.16-.58-1.269.071-1.68.499-.18.185-.089.537-.241.747-.107.149-.354.118-.48.25-.057.058.077.228 0 .248-.311.08-.644-.047-.961 0-3.44.51-2.74 1.312-6.006.748-.842-.146-.535-.193.24-.997.16-.166-.308.346-.48.498-.288.256-2.514 2.12-2.883 1.993-.41-.141-.778-.41-1.201-.498-1.25-.26-3.085 0-4.324 0-.903 0-1.252.275-1.202.25.645-.335 1.772-.997.24-.997-.72 0-1.468-.206-2.161 0-.345.102-.629.36-.961.498-.564.234-.042-.457-.24-.498-.443-.092-1.416.175-1.922 0-1.357-.47-.656-1.79-.961-2.74-.026-.08-.16 0-.24 0-.08-.083-.222-.134-.24-.25-.14-.862.132-1.965 0-1.992-.393-.082-.81.081-1.202 0-.316-.066.403-1.018 0-1.495-.453-.538-1.121-.83-1.681-1.246" style="display:inline;fill:#337020;fill-opacity:1;stroke-width:10.3188"/><path d="M9.504 38.792c-.374-.795-1.756-2.088-1.202-3.238.075-.156.79.393.961-.499.079-.407-.126-.851 0-1.245.153-.474.922-.168 1.202-.747.226-.47-.178-.595.24-1.246.076-.118 1.1.052 1.2 0 .073-.037 0-.166 0-.25 0-.414-.049-.833 0-1.245.128-1.056.424-1.312.962-2.242.041-.07-.072-.212 0-.249.149-.077.748 0 .96 0h2.163c.32 0 .666-.13.96 0 2.356 1.047-.182 6.038.481 6.726.072.075.96.622 1.201.747.418.217.739.682 1.201.748 1.35.19 2.723 0 4.084 0 .32 0 .657.105.961 0 .108-.037-.224-.133-.24-.25-.068-.493 0-.996 0-1.494 0-.581.136-1.18 0-1.744-.292-1.212-1.73.783-.48-2.242.29-.703.988-1.14 1.441-1.743.001-.001.297-.748.48-.748.08 0-.035.175 0 .25.032.064.315.42.48.249.058-.06 0-.167 0-.25.081-.083.154-.174.241-.249.394-.34.917-.554 1.201-.996.907-1.411.92-6.276 1.442-6.726.394-.34.79-.677 1.2-.996 2.36-1.835-.182 1.67 1.442.996.316-.13.438-.943.72-.747.472.325-.325 1.743.241 1.743 1.216 0 2.122-.57 2.162-.498.476.864.155 2.491.24 2.491.295 0 .834-.44 1.202-.249.218.114-.275.614.24.748.472.122.98-.41 1.441-.25.607.21-1.201 3.189-1.201 3.488 0 1.027 1.952-.396 2.883-.747 1.077-.406-.284 1.077 1.2.747 3.669-.815 1.77-.09 3.845-2.242.813-.843-1.29 3.68 2.162.498 1.235-1.139-.876-4.421-.48-4.733 2.21-1.742 5.003-2.697 6.966-4.733.204-.212-.276-.535-.48-.747-1.215-1.26-3.224-2.02-2.403-4.235.265-.714.781-1.401 1.442-1.744.876-.454 3.175 1.405 3.363 1.495.011.005 1.564.376 1.681.498.262.271-.416 1.41.24 1.495.716.092 1.518-.334 2.163 0 .286.148-.17.715 0 .996.3.498.723.93 1.2 1.246.974.642 2.3.462 2.163.747-.803 1.665-1.946.976-3.123 1.993-.222.192.432.498.72.498.248 0 1.75-.179 1.922 0 .057.059 0 .166 0 .25l.48.497c.161.167.45.266.481.499.103.744-.389 1.869.24 2.242.44.26 1.053.162 1.442.498.297.256-.263 1.222 0 1.494.179.186.51.104.72.25.405.28-.358 2.118 0 2.49 1.094 1.135 2.316-.045 3.364.499.071.037-.036.175 0 .249.2.417.763 1.841 1.201 1.993.688.238 1.44.174 2.162.249.08.008.204-.074.24 0 .18.371-.097.843 0 1.245.073.304 1.059.507 1.201 1.246.087.451-.109 1.042 0 1.495.28 1.162.12-.083.721.747.259.358.288.845.48 1.245.08.166.114.367.24.499.057.058.216-.08.241 0 .076.236-.076.51 0 .747.091.284.351.48.48.747.554 1.148-1.65 3.19-2.402 3.737-.679.492-3.467.854-4.324.498-1.193-.495.237-4.053-1.441-3.737-1.553.293-2.114.2-3.123 1.246-.293.303-.113.557-.48.747-.637.33-.712-2.395-2.884-1.494-3.068-.885-.598.87-.96 1.245-.633.657-1.665.72-2.403 1.246-.701.5-1.079 1.619-1.922 1.743-.8.119 1.155-2.939.961-2.989-1.824-.473-2.16 1.495-2.402 1.495-.487 0-.955-.223-1.441-.25-1.04-.056-2.103-.211-3.123 0-.633.132-1.157.608-1.682.997-.065.048-.08.25 0 .25s0-.167 0-.25c0-.249.144-.548 0-.747-1.062-1.468-.763.503-1.922-.498-1.147-.992.18-2.803-.72-3.737-.764-.791-3.032-1.305-3.364-1.993-.214-.444.385-1.904 0-1.993-.625-.144-1.288.099-1.922 0-1.056-.164-2.167-.252-3.123-.747-.1-.053-.13-.22-.24-.25-1.334-.345-2.928 0-4.324 0h.48c.51 0 2.166-.513 1.922.5-.186.771-.874.567-1.2 1.245-.037.074.183-.06.24 0 .056.058 0 .166 0 .249 0 .415.065.836 0 1.245-.217 1.35-.343.995-.961 2.491-.436 1.054.41 2.671 0 3.737-.514 1.332-4.228 2.279-5.045 2.49-.311.081-1.275.066-.961 0 .71-.147 1.445-.134 2.162-.248.326-.052.64-.332.96-.25.156.041.146.428 0 .499-1.465.72-3.008 1.27-4.564 1.744-1.175.358-2.42.42-3.603.747-.077.021-.078.233 0 .25.79.163 1.6.173 2.402.248.08.008.184-.058.24 0 .135.14.403 2.821.24 2.99-.304.316-.842.25-1.2.498-.189.13-.259.452-.48.498-1.393.289-6.913 1.149-7.208.996-.626-.325-.97-1.396-1.2-1.993-.032-.08.062-.833 0-.747-.833 1.15-.948 2.399-2.163 3.239-.094.065-.127.249-.24.249-.55 0-.492-.416-.72-.748-1.27-1.842-1.202-1.192-1.202-3.238 0-.994.509.513 0 .249-.304-.158-.552-.441-.72-.747-.1-.18-.508-1.7-.721-1.744-1.088-.226-4.759-.129-5.285-1.495-.21-.545 1.135-.094 1.681-.249 2.722-1.411-.716.186 1.922-.498.08-.02-.072-1.481-.24-1.744-.535-.832-3.356-1.6-1.682-2.989.062-.051.872-.498.961-.498.925 0 1.675.106 2.643.249" style="fill:#45982c;fill-opacity:1;stroke-width:10.3188"/><path d="M83.6 45.65a5 5 0 0 0-.826.117c-.282.065-.447.403-.72.498-.463.16-.96.177-1.442.249-.08.012-.184-.059-.24 0-.203.21-.2 2.367 0 2.99.025.079.173-.046.24 0 .272.188.88.968.96 1.245.163.563.178 1.16.24 1.744.26 2.422-1.56.996-1.92 1.495-.445.613.152 1.743-1.202 1.743-.289 0 .44-.45.48-.747.125-.904.11-1.834 0-2.74-.031-.26-.124.514-.24.747a273 273 0 0 1-3.843 7.473c-.28.524-.553 1.071-.961 1.495-.114.117-.046-.339 0-.498a59 59 0 0 1 .885-2.8c-.276.532-.644 1.056-1.126 1.305-.506.263-1.21-.077-1.681.25-.885.61.026 1.992-1.201 1.992-.64 0-1.32.227-1.922 0-1.168-.44-.707-1.949-.961-2.74-.072-.223-.38-.288-.48-.498-.108-.223.214-.859 0-.748-1.075.557-1.809 1.685-2.883 2.242-.942.489-.148-2.202-.48-3.238-.29-.898-1.17-.142-1.443 0-.233.12-.292-.036-.296-.234-.054.008-.126-.015-.184-.015H59.47c-.24 0-.506-.112-.72 0-.295.152-1.119 1.58-.721 1.993 1.355 1.405 3.634 1.62 4.804 3.238.108.148.114.367.24.498.057.059.225-.081.24 0 .112.576.305 1.583-.24 1.744-2.551.756-5.541-1.744-7.446-1.744-.16 0-.358-.106-.48 0-.395.34-.619.85-.962 1.246-.379.436-.832.8-1.201 1.245-.117.141-.114.63-.24.498-.457-.473-.316-1.743-.961-1.743-.113 0-.135.205-.24.249-.307.127-.631.249-.961.249-.4 0-.07-.782-.48-.498-.19.13-.266.424-.481.498-.607.21-.11-2.175-.72-2.491-.264-.137-1.675 2.071-2.884 2.74-2.405 1.33-2.301-1.066-3.122-.498-.31.214-1.242 1.453-1.682.996-.383-.397.104-1.673-.72-1.245-.203.105-.304.351-.481.498-.86.714-.884.558-2.162.747-.08.012-.184.059-.24 0-.258-.266-.212-1.883-.961-1.494-.783.405-1.795 2.403-2.643 2.989-1.08.746-.94-1.268-.96-1.495-.25-2.837.845-.219 0-5.48-.014-.085-3.859-.483-4.085-.25-.627.65-1.297 2.059-1.681 2.74-.235.42-.537.801-.72 1.246-.3.723 0 3.386 0 4.235 0 .811.229 2.507-.241 3.238-.132.205-1.223 1.737-1.922 1.495-.48-.166-.2-1.058-.48-1.495-.753-1.17-.948-.738-1.682-1.245-.188-.13-.278-.393-.48-.498-.625-.324-.62.862-1.202.996-2.19.505-1.184-.677-1.44-1.744-.022-.088-1.957.179-2.644-.249-.288-.179.601-2.283-.72-2.74-.883-.305-2.298.428-3.124 0-.235-.122.303-2.15-.48-1.743-.536.277.01.864-.48 1.245-.164.127-2.24.902-2.403.498-.345-.859-.543-1.458-.661-1.917-.171.041-.3.092-.3.174 0 .185.174.325.24.498.823 2.131 3.05 3.429 5.045 4.234.56.416 1.228.708 1.682 1.246.403.477-.316 1.429 0 1.495.392.081.808-.082 1.2 0 .133.027-.138 1.13 0 1.992.02.116.161.166.241.25.08 0 .215-.08.24 0 .306.95-.395 2.27.962 2.74.506.175 1.479-.092 1.922 0 .199.04-.324.732.24.498.332-.138.617-.396.96-.498.694-.206 1.442 0 2.163 0 1.531 0 .404.662-.24.996-.05.026.298-.25 1.2-.25 1.24 0 3.075-.258 4.325 0 .423.089.792.358 1.201.5.358.123 2.403-1.581 2.795-1.922-.253.258-.23.33.328.427 3.267.564 2.566-.238 6.006-.748.317-.047.65.08.96 0 .078-.02-.056-.19 0-.249.127-.131.374-.1.481-.249.152-.21.061-.562.24-.747.412-.428 1.522-1.08 1.682-.499.004.016-.005.11-.003.138.54-1.148 1.422-2.158 2.405-2.629.509-.243 1.18.26 1.681 0 .32-.166.64-.664.961-.498 1.61.835.728.936 2.883 1.495.32.083.66-.394.96-.498.63-.218 3.054-.003 3.124 0 .752.035 5.84.498 6.486.498.08 0-.057-.19 0-.25.057-.058.176.05.24 0 .377-.292 1.166-1.405 1.682-1.494 1.442-.25 3.1 0 4.565 0 .96 0 1.97-.315 2.882 0 1.243.43.782.997 2.162.997.24 0 .588.207.721 0 .14-.219.1-.53.24-.748.66-1.027 1.639-1.828 2.643-2.49.202-.134.55.175.72 0 .647-.671-.73-.943 0-1.246.706-.293 1.434-.525 2.163-.748.633-.193 1.372-.118 1.921-.498.3-.207.286-2.1.24-2.242-.15-.467-.96-.213-.96-.996 0-.083.165.03.24 0 .57-.222 1.142-.453 1.681-.747.985-.538 1.902-1.201 2.883-1.744.224-.124.608-.014.72-.25.33-.681-.797.057-1.68-.248-.17-.059-.092-.396-.24-.499-.103-.07-.962.153-.962-.249 0-1.436 2.77-2.194 3.123-2.49.925-.777 1.677-1.762 2.402-2.74.342-.461-.37-.767-.48-.997-.175-.363.284-1.698 0-1.993-.18-.187-2.365 0-2.643 0-.16 0-.623.074-.48 0 .295-.153.64-.166.96-.25l1.923-.995c1.22-.715 2.379-1.538 3.603-2.243.39-.225.961-.073.961-.747 0-.083-.16 0-.24 0-.113 0-.227.011-.34.018-.592.159-1.212.191-1.822.23-1.948.127-3.963-.734-5.901-.614zM42.171 73.555c-.436.929-.652 1.945-.478 2.852.154.798.52-2.27.478-2.852m20.366-16.563c.02-.003.046.005.056-.015.072-.149 0-.665 0-.498 0 .042-.06.302-.056.513m12.473 1.67a7 7 0 0 0 .316-.689c.03-.077.027-.327 0-.249-.108.312-.21.625-.316.937m-69.351.806.25.005-.01-.005c-.074-.031-.32 0-.24 0m.25.005c.33.137.647.304.95.493q.726.449 1.405.97a10 10 0 0 0-.203-.721 2.6 2.6 0 0 0-.384-.708c-.76.008-1.432-.024-1.768-.034" style="fill:#1f4614;fill-opacity:1;stroke-width:10.3188"/><path d="M50.081 37.066c-.555-.287-2.082-.844-2.208-1.761-.033-.24.462-.086.68-.176.66-.274-.551-1.057.849-1.057.442 0 .849.557.849.352 0-.132-.427-1.628-.17-1.761.236-.122 1.581-.068 1.699.176.117.243-.182 1.045 0 1.233.09.093.25.083.34.176.252.262-.337 1.147.17 1.41.935.485.918-.715 1.358-1.058.056-.043.915-.072 1.02 0 .133.093.206.26.34.353.191.132 1.894-.15 2.038 0 .455.472-.275 1.626-.51 2.113-.165.343.363 1.486.17 1.586-.203.105-.455.033-.68 0-.96-.143-.77-.448-1.359-1.057-.16-.166-.46.057-.679 0-.296-.077-.547-.308-.85-.352-.568-.085-.286 1.312-.679 2.29-.166.414-1.295.77-1.529.528-.153-.159 0-1.269 0-1.585 0-.682.033-.129-.849-1.41" style="fill:#377a23;fill-opacity:1;stroke-width:10.3188"/><path d="M12.138 77.759c-.552-.105-4.522-2.875-4.362-3.035.078-.078 3.581-.007 4.172.19.06.02-.135.032-.19 0a4 4 0 0 1-.758-.57c-.045-.044.045-.144 0-.189-.1-.1-.3-.072-.38-.19-.112-.168.138-.909.19-.948a155 155 0 0 1 3.035 0c.524.143.841.705 1.327.949.057.028.216.057.19 0-2.038-4.485-.364-.607-1.707-2.845-.097-.163.07-.393 0-.57-.104-.26-1.138-1.705-1.138-1.896 0-.063.14-.038.19 0 2.174 1.63.685.46 1.896 2.276.248.372.577.7.949.948.46.307.74-1.434 1.517-.948.419.262.736.661 1.138.948.381.273 1.199-.127 1.707 0 .473.119.905.328 1.327.57.284.162 1.49.974 1.518.948.223-.224.286-.618.569-.76 1.69-.845 1.807 2.288 2.275 2.087.14-.06 2.783-1.076 3.414-1.707.04-.04 1.06-1.402 1.328-1.517.232-.1.506.012.758 0 1.076-.051 2.153-.088 3.225-.19.281-.026 1.04-.379.758-.379-.063 0-.063.182 0 .19a6.5 6.5 0 0 0 1.517 0c.182-.02.268-1.026.57-1.328.6-.601 1.222-1.188 1.896-1.707 1.252-.963 1.175 1.195 1.707 1.328 1.29.322 2.386-1.174 3.603-1.707.327-.143-.163.546 0 .569.438.062.888.052 1.328 0 .64-.075 1.266-.244 1.896-.38.255-.054.506-.252.76-.19.433.11-.357.913-.19 1.328.246.618 2.068-.074 2.465.19.774.516-.524 1.646.759 1.517 2.269-.227 3.038-.734 4.93-2.086.402-.287.72-.686 1.139-.948.5-.313.463.54.948.569.946.056 1.904.117 2.845 0 1.095-.137 2.165-.445 3.224-.759.844-.25 1.585-.948 2.465-.948.09 0 .1.182.19.19 1.153.096 3.063.18 4.172-.19 1.032-.344 2.355.265 3.414 0 .592-.148-.161-.505 0-.569 1.544-.618 3.292-.479 4.931-.759 1.271-.217 2.52-.56 3.793-.758 4.746-.742 1.897.547 1.897-.949 0-.14.323.06.38.19.15.354.161.755.189 1.138.036.505.106 1.023 0 1.517-.09.415-.804.785-.57 1.138.246.368.9-.114 1.328 0 .547.146 1.095.383 1.518.759.194.173.166.499.19.758.285 3.143-1.626 1.165-2.087 2.087-.037.073.315.85.38.948.247.371.189-.57.379.19.046.184-.031.382 0 .569.033.197.238.375.19.569-.168.669-4.731.363-5.69.569-.263.056-.759.379-.57.568.068.068.987.039 1.518.57.063.063.23.11.19.19-.202.403-.565-.01-.759.378-.144.289.219 1.11 0 1.328-.141.141-.376.137-.569.19-.503.137-1.03.196-1.517.379-.53.199-1 .529-1.517.759-.037.016-3.9-.524-4.173-.57-.8-.133-1.666.134-2.465 0-.198-.032-.37-.17-.57-.189-1.796-.18-3.72.296-5.5 0-.139-.023-.252-.126-.379-.19-.19-.063-.37-.161-.569-.19-1.4-.2-2.959-.285-4.362-.379-3.139-.209-6.337 0-9.482 0-1.29 0-4.432-.228-5.69 0-.278.05-.48.337-.759.38-1.215.187-2.563-.095-3.793 0-1.526.117-1.867.287-3.414.569-1.703.31-3.934-.185-5.69 0-1.539.162-3.032.695-4.551.948-.709.118-1.998 0-2.655 0-1.343 0-2.832.149-4.173 0-.993-.11-2.046-.46-3.034-.57-.308-.033-1.9.189-2.276 0-1.71-.854-.688-1.221-2.655-.378" style="fill:#1b3c11;fill-opacity:1;stroke-width:1.802"/><path d="M36.603 77.759c3.38-2.535 1.02-1.089 4.742-2.656.89-.375 1.705-.9 2.655-1.137 1.02-.255 1.683.281 2.466.379 1.74.217 3.574-.248 5.31 0 3.365.48-2.076-.235 3.224.758.953.18 2.059 0 3.034 0h11.949c.4 0 1.013-.124 1.327.19.36.36-.126 1.012-.19 1.517-.034.276.206.85-.189.949-1.195.298-3.284-.159-4.552 0-.552.069-.61.19-1.138.19-.8 0-2.365-.144-3.224 0-.394.065-.744.307-1.138.379-.349.063-1.085 0-1.517 0-1.988 0-3.9-.19-5.88-.19-1.485 0-3.274.21-4.74 0-.535-.076-.986-.472-1.518-.569-1.492-.271-3.04-.19-4.552-.19-2.128 0-3.969-.002-6.069.38" style="fill:#1b3c11;fill-opacity:1;stroke-width:1.802"/></g></svg>