<svg xmlns="http://www.w3.org/2000/svg" width="1422.52" height="400" viewBox="0 0 376.375 105.833"><path d="M.38 0h375.896L356.93 53.483v52.345H.379z" style="baseline-shift:baseline;display:inline;overflow:visible;vector-effect:none;fill:#3c2b0c;stop-color:#000;stop-opacity:1"/><path d="M10.375 9.862h352.871l-15.931 42.862v43.242H10.375Z" style="fill:#2f2109;stroke-width:.662696"/><path d="M4.931 48.172h347.448v8.724H4.931z" style="fill:#3c2b0c;fill-opacity:1;stroke-width:.756041"/><path d="M20.042 62.869h5.317v33.078h-5.317z" style="display:inline;fill:#2a4932;fill-opacity:1;stroke-width:.852884"/><path d="M10.347 60.334h9.71v35.621h-9.71z" style="display:inline;fill:#423931;fill-opacity:1;stroke-width:1.19601"/><path d="M13.28 63.928h4.169v2.861H13.28z" style="display:inline;fill:#5f544b;fill-opacity:1;stroke-width:.945927"/><path d="M25.319 64.025h5.317v31.922h-5.317z" style="display:inline;fill:#b4ba87;fill-opacity:1;stroke-width:.837847"/><path d="M30.55 60.796h4.708v35.151H30.55z" style="display:inline;fill:#747899;fill-opacity:1;stroke-width:.827264"/><path d="M35.297 89.633H71.13v6.293H35.297z" style="display:inline;fill:#143115;fill-opacity:1;stroke-width:1.5265"/><path d="M39.074 86.781h34.302v2.923H39.074z" style="display:inline;fill:#605d83;fill-opacity:1;stroke-width:1.01793"/><path d="M37.315 85.301h34.836v1.47H37.315z" style="display:inline;fill:#9f8141;fill-opacity:1;stroke-width:.727527"/><path d="M40.013 81.459h30.79V85.3h-30.79z" style="display:inline;fill:#6b674b;fill-opacity:1;stroke-width:1.10546"/><path d="M41.034 77.618h31.73v3.841h-31.73z" style="display:inline;fill:#5c8c73;fill-opacity:1;stroke-width:1.12221"/><path d="M44.791 74.497h24.274v3.133H44.791z" style="display:inline;fill:#8c5e5c;fill-opacity:1;stroke-width:.886473"/><path d="M45.427 71.491H66.58v3.031H45.427z" style="display:inline;fill:#8aafb2;fill-opacity:1;stroke-width:.814055"/><path d="M73.283 60.348h9.71v35.621h-9.71z" style="display:inline;fill:#364231;fill-opacity:1;stroke-width:1.19601"/><path d="M76.105 63.582h4.169v2.861h-4.169z" style="display:inline;fill:#4e5f4b;fill-opacity:1;stroke-width:.945927"/><path d="M82.993 61.62h9.71v34.349h-9.71z" style="display:inline;fill:#487278;fill-opacity:1;stroke-width:1.17447"/><path d="M85.988 64.391h4.169v2.861h-4.169z" style="display:inline;fill:#416869;fill-opacity:1;stroke-width:.945927"/><path d="M92.703 60.695h9.71v35.274h-9.71z" style="display:inline;fill:#6a7144;fill-opacity:1;stroke-width:1.19017"/><path d="M95.467 63.582h4.169v2.861h-4.169z" style="display:inline;fill:#545a36;fill-opacity:1;stroke-width:.945927"/><path d="M102.314 65.7h4.708v30.246h-4.708z" style="display:inline;fill:#4f4844;fill-opacity:1;stroke-width:.767388"/><path d="M106.928 60.695h9.71v35.274h-9.71z" style="display:inline;fill:#445071;fill-opacity:1;stroke-width:1.19017"/><path d="M109.691 63.582h4.169v2.861h-4.169z" style="display:inline;fill:#343d56;fill-opacity:1;stroke-width:.945927"/><path d="M116.409 65.354h9.71v30.615h-9.71z" style="display:inline;fill:#555860;fill-opacity:1;stroke-width:1.10879"/><path d="M119.091 67.587h4.169v2.861h-4.169z" style="display:inline;fill:#414349;fill-opacity:1;stroke-width:.945927"/><path d="M126.132 60.043h5.179v35.968h-5.179z" style="display:inline;fill:#4a9264;fill-opacity:1;stroke-width:.877755"/><path d="M131.281 63.394h6.978v32.617h-6.978z" style="display:inline;fill:#7b7b61;fill-opacity:1;stroke-width:.970172"/><path d="M138.207 69.606h5.324v26.405h-5.324z" style="display:inline;fill:#7b617b;fill-opacity:1;stroke-width:.762486"/><path d="M143.554 66.909h3.199v29.102h-3.199z" style="display:inline;fill:#80832f;fill-opacity:1;stroke-width:.620484"/><path d="M134.412 89.62h4.834v29.102h-4.834z" style="display:inline;fill:#8c0932;fill-opacity:1;stroke-width:.762724" transform="rotate(-8.947)"/><path d="M135.875 95.309h3.279v28.938h-3.279z" style="display:inline;fill:#90904c;fill-opacity:1;stroke-width:.626415" transform="rotate(-10.993)"/><path d="M160.551 88.591h42.227v7.363h-42.227z" style="display:inline;fill:#868686;fill-opacity:1;stroke-width:1.24985"/><path d="M160.334 89.54h40.233v5.499h-40.233s.163-1.516.163-2.821c0-1.45-.163-2.677-.163-2.677" style="display:inline;fill:#d6d3c7;stroke-width:1.15389"/><path d="M163.495 82.527h35.707v6.226h-35.707z" style="display:inline;fill:#6c0a0a;fill-opacity:1;stroke-width:1.05687"/><path d="M163.312 83.33h34.02v4.65h-34.02s.137-1.282.137-2.386a19 19 0 0 0-.137-2.264" style="display:inline;fill:#d6d3c7;stroke-width:.975716"/><path d="M162.798 78.142h35.081v4.331h-35.081z" style="display:inline;fill:#725169;fill-opacity:1;stroke-width:1.25306"/><path d="M164.149 73.876h25.228v4.331h-25.228z" style="display:inline;fill:#a4cb7f;fill-opacity:1;stroke-width:1.06262"/><path d="M216.634 29.812h5.324v26.405h-5.324z" style="display:inline;fill:#97a834;fill-opacity:1;stroke-width:.762486" transform="rotate(10.652)"/><path d="M212.527 61.596h4.526v34.415h-4.526z" style="display:inline;fill:#617b65;fill-opacity:1;stroke-width:.802573"/><path d="M217.117 69.548h5.324v26.405h-5.324z" style="display:inline;fill:#3861a4;fill-opacity:1;stroke-width:.762486"/><path d="M222.503 60.695h9.71v35.274h-9.71z" style="display:inline;fill:#3c4164;fill-opacity:1;stroke-width:1.19017"/><path d="M225.267 63.582h4.169v2.861h-4.169z" style="display:inline;fill:#303870;fill-opacity:1;stroke-width:.945927"/><path d="M232.23 57.834h8.239v38.135h-8.239z" style="display:inline;fill:#643c59;fill-opacity:1;stroke-width:1.13989"/><path d="M234.258 60.966h4.169v2.861h-4.169z" style="display:inline;fill:#4e2f45;fill-opacity:1;stroke-width:.945927"/><path d="M240.451 61.468h5.185v34.495h-5.185z" style="display:inline;fill:#86a4d6;fill-opacity:1;stroke-width:.86005"/><path d="M245.517 59.329h5.185v36.634h-5.185z" style="display:inline;fill:#213961;fill-opacity:1;stroke-width:.886306"/><path d="M250.761 64.282h4.059v31.681h-4.059z" style="display:inline;fill:#39a79e;fill-opacity:1;stroke-width:.729273"/><path d="M254.877 62.257h6.269v33.742h-6.269z" style="display:inline;fill:#e3aa18;fill-opacity:1;stroke-width:.935296"/><path d="M261.203 61.331h5.178v34.69h-5.178z" style="display:inline;fill:#13605e;fill-opacity:1;stroke-width:.86193"/><path d="M266.456 65.629h5.178v30.392h-5.178z" style="display:inline;fill:#3e8366;fill-opacity:1;stroke-width:.806768"/><path d="M271.551 58.227h5.178v37.795h-5.178z" style="display:inline;fill:#da9cb8;fill-opacity:1;stroke-width:.899674"/><path d="M273.82 76.812h2.814v31.426h-2.814z" style="display:inline;fill:#28cd5f;fill-opacity:1;stroke-width:.604788" transform="rotate(-2.525)"/><path d="M274.951 82.807h2.814v31.426h-2.814z" style="display:inline;fill:#525781;fill-opacity:1;stroke-width:.604788" transform="rotate(-3.735)"/><path d="M284.499 65.876h3.9v30.63h-3.9z" style="display:inline;fill:#6d2b3d;fill-opacity:1;stroke-width:.702846" transform="rotate(-.097)skewX(.099)"/><path d="M285.972 99.483h3.287v33.677h-3.287z" style="display:inline;fill:#8197cd;fill-opacity:1;stroke-width:.676638" transform="rotate(-7.237)"/><path d="M288.767 67.5h7.79v28.724h-7.79z" style="display:inline;fill:#d08c7c;fill-opacity:1;stroke-width:.96199"/><path d="M304.122 61.514h9.456v34.352h-9.456z" style="display:inline;fill:#3c6451;fill-opacity:1;stroke-width:1.15907"/><path d="M306.813 64.325h4.06v2.786h-4.06z" style="display:inline;fill:#345646;fill-opacity:1;stroke-width:.921207"/><path d="M313.319 67.232h4.407v28.787h-4.407z" style="display:inline;fill:#4b473b;fill-opacity:1;stroke-width:.724375"/><path d="M317.705 58.227h5.178v37.795h-5.178z" style="display:inline;fill:#a4da9c;fill-opacity:1;stroke-width:.899674"/><path d="M322.658 63.405h5.497v32.616h-5.497z" style="display:inline;fill:#ad8f27;fill-opacity:1;stroke-width:.861089"/><path d="M327.93 65.949h3.9v30.63h-3.9z" style="display:inline;fill:#401924;fill-opacity:1;stroke-width:.702846" transform="rotate(-.097)skewX(.099)"/><path d="M332.198 67.5h7.79v28.724h-7.79z" style="display:inline;fill:#b0a09c;fill-opacity:1;stroke-width:.96199"/><path d="M339.97 58.227h7.318v37.795h-7.318z" style="display:inline;fill:#572139;fill-opacity:1;stroke-width:1.0695"/><path d="M10.445 15.244h4.618v32.87h-4.618z" style="display:inline;fill:#616c7b;fill-opacity:1;stroke-width:.79233"/><path d="M15.129 10.241h5.433v37.814h-5.433z" style="display:inline;fill:#d6b186;fill-opacity:1;stroke-width:.921749"/><path d="M20.437 16.674h5.433v31.38h-5.433z" style="display:inline;fill:#3d6ab4;fill-opacity:1;stroke-width:.839687"/><path d="M25.932 14.858h4.253v33.196h-4.253z" style="display:inline;fill:#39a79e;fill-opacity:1;stroke-width:.764158"/><path d="M30.244 12.737h6.569v35.356h-6.569z" style="display:inline;fill:#f9c9c9;fill-opacity:1;stroke-width:.980036"/><path d="M36.873 11.696h5.426v36.42h-5.426z" style="display:inline;fill:#8f9772;fill-opacity:1;stroke-width:.904039"/><path d="M42.378 21.525h5.426v26.591h-5.426z" style="display:inline;fill:#3e8366;fill-opacity:1;stroke-width:.772473"/><path d="M47.716 16.604h5.426v31.512h-5.426z" style="display:inline;fill:#c4b2ba;fill-opacity:1;stroke-width:.840919"/><path d="M52.637 17.604h2.949v32.929h-2.949z" style="display:inline;fill:#bff3d0;fill-opacity:1;stroke-width:.633719" transform="rotate(-2.525)"/><path d="M55.202 18.954h2.949v32.929h-2.949z" style="display:inline;fill:#6a6a6a;fill-opacity:1;stroke-width:.633719" transform="rotate(-3.735)"/><path d="M61.464 16.128h4.086v32.095h-4.086z" style="display:inline;fill:#d99dae;fill-opacity:1;stroke-width:.736463" transform="rotate(-.097)skewX(.099)"/><path d="M66.154 45.751h37.467v2.209H66.154z" style="display:inline;fill:#9c4040;fill-opacity:1;stroke-width:.92489"/><path d="M69.138 39.871h32.129v3.836H69.138z" style="display:inline;fill:#bdbcc9;fill-opacity:1;stroke-width:1.12853"/><path d="M69.657 31.53h28.907v3.919H69.657z" style="display:inline;fill:#306474;fill-opacity:1;stroke-width:1.08202"/><path d="M74.162 27.651h25.706v3.919H74.162z" style="display:inline;fill:#dd5a5a;fill-opacity:1;stroke-width:1.02037"/><path d="M76.288 23.815H96.99v3.919H76.288z" style="display:inline;fill:#3b5662;fill-opacity:1;stroke-width:.915675"/><path d="M68.114 43.582h37.467v2.209H68.114z" style="display:inline;fill:#586884;fill-opacity:1;stroke-width:.92489"/><path d="M70.783 35.45H99.69v4.503H70.783z" style="display:inline;fill:#56534e;fill-opacity:1;stroke-width:1.15983"/><path d="M74.995 18.059h20.702v5.838H74.995z" style="display:inline;fill:#4e623b;fill-opacity:1;stroke-width:1.11753"/><path d="M105.953 17.684h4.618v30.165h-4.618z" style="display:inline;fill:#413e33;fill-opacity:1;stroke-width:.759027"/><path d="M110.636 22.85h5.433v24.939h-5.433z" style="display:inline;fill:#e5bae8;fill-opacity:1;stroke-width:.74857"/><path d="M115.944 20.609h5.433V47.79h-5.433z" style="display:inline;fill:#213961;fill-opacity:1;stroke-width:.781483"/><path d="M121.439 14.593h4.253v33.196h-4.253z" style="display:inline;fill:#39a79e;fill-opacity:1;stroke-width:.764158"/><path d="M125.752 9.994h6.569v37.833h-6.569z" style="display:inline;fill:#f3d68d;fill-opacity:1;stroke-width:1.01379"/><path d="M132.38 11.501h5.426v36.35h-5.426z" style="display:inline;fill:#607750;fill-opacity:1;stroke-width:.903165"/><path d="M157.52 40.499h43.091v7.513H157.52z" style="display:inline;fill:#371d63;fill-opacity:1;stroke-width:1.27542"/><path d="M157.299 41.468h41.056v5.611h-41.056s.166-1.546.166-2.879c0-1.478-.166-2.732-.166-2.732" style="display:inline;fill:#d6d3c7;stroke-width:1.17749"/><path d="M160.524 34.311h36.437v6.353h-36.437z" style="display:inline;fill:#55492b;fill-opacity:1;stroke-width:1.07849"/><path d="M160.337 35.131h34.717v4.745h-34.717s.14-1.308.14-2.435c0-1.25-.14-2.31-.14-2.31" style="display:inline;fill:#d6d3c7;stroke-width:.995673"/><path d="M159.812 29.837h35.799v4.42h-35.799z" style="display:inline;fill:#3a5b25;fill-opacity:1;stroke-width:1.27869"/><path d="M168.21 25.306h25.744v4.42H168.21z" style="display:inline;fill:#bd7d5e;fill-opacity:1;stroke-width:1.08435"/><path d="M157.249-33.046h4.086V-.951h-4.086z" style="display:inline;fill:#5b6cb2;fill-opacity:1;stroke-width:.736463" transform="rotate(17.7)skewX(.099)"/><path d="M149.241-48.837h4.086v32.095h-4.086z" style="display:inline;fill:#42bfcb;fill-opacity:1;stroke-width:.736463" transform="rotate(24.255)skewX(.099)"/><path d="M144.208-46.231h3.526v27.693h-3.526z" style="display:inline;fill:#a3e08d;fill-opacity:1;stroke-width:.635461" transform="rotate(25.981)skewX(.099)"/><path d="M233.663-30.451h4.064v28.874h-4.064z" style="display:inline;fill:#0c9cb4;fill-opacity:1;stroke-width:.696637" transform="matrix(.9781 .20818 -.25565 .96677 0 0)"/><path d="M222.971 11.69h5.898v36.35h-5.898z" style="display:inline;fill:#5a4387;fill-opacity:1;stroke-width:.941615"/><path d="M218.14 14.686h5.426v25.006h-5.426z" style="display:inline;fill:#98cca3;fill-opacity:1;stroke-width:.7491" transform="rotate(2.171)"/><path d="M214.844-.397h3.674v28.259h-3.674z" style="display:inline;fill:#685f31;fill-opacity:1;stroke-width:.655317" transform="rotate(5.36)"/><path d="M211.107-.046h3.674v28.259h-3.674z" style="display:inline;fill:#833e5a;fill-opacity:1;stroke-width:.655317" transform="rotate(5.36)"/><path d="M206.703-10.205h3.665v25.772h-3.665z" style="display:inline;fill:#b1d579;fill-opacity:1;stroke-width:.625014" transform="matrix(.9876 .15699 -.18884 .982 0 0)"/><path d="M240.31 11.69h4.718v36.35h-4.718z" style="display:inline;fill:#656565;fill-opacity:1;stroke-width:.842206"/><path d="M248.01 11.147h2.911v36.905h-2.911z" style="display:inline;fill:#8b804e;fill-opacity:1;stroke-width:.666565"/><path d="M245.089 19.628H248v28.423h-2.911z" style="display:inline;fill:#304340;fill-opacity:1;stroke-width:.584976"/><path d="M250.915 14.75h5.244v33.302h-5.244z" style="display:inline;fill:#235027;fill-opacity:1;stroke-width:.849873"/><path d="M256.179 13.414h4.358v34.638h-4.358z" style="display:inline;fill:#443e2f;fill-opacity:1;stroke-width:.790097"/><path d="M260.413 10.62h5.716v37.432h-5.716z" style="display:inline;fill:#a3977a;fill-opacity:1;stroke-width:.940655"/><path d="M266.081 14.813h5.466v33.238h-5.466z" style="display:inline;fill:#7f4f40;fill-opacity:1;stroke-width:.866856"/><path d="M275.696-29.102h5.117v25.38h-5.117z" style="display:inline;fill:#a83d34;fill-opacity:1;stroke-width:.732887" transform="rotate(10.652)"/><path d="M281.262 14.915h5.423v33.079h-5.423z" style="display:inline;fill:#61797b;fill-opacity:1;stroke-width:.861311"/><path d="M320.766-139.969h5.117v28.401h-5.117z" style="display:inline;fill:#2f518a;fill-opacity:1;stroke-width:.775286" transform="rotate(26.925)"/><path d="M332.743-131.859h3.569v35.436h-3.569z" style="display:inline;fill:#5d643c;fill-opacity:1;stroke-width:.723165" transform="rotate(23.963)"/><path d="M-335.119 41.003h48.098v6.857h-48.098z" style="fill:#868686;fill-opacity:1;stroke-width:1.28724" transform="scale(-1 1)"/><path d="M335.365 42.279H289.54v4.237h45.825s-.185-1.168-.185-2.174c0-1.117.185-2.063.185-2.063" style="fill:#d6d3c7;stroke-width:1.08102"/><path d="M-336.924 31.971h44.647v9.15h-44.647z" style="fill:#806262;fill-opacity:1;stroke-width:1.43269" transform="scale(-1 1)"/><path d="M337.153 33.152h-42.538v6.833h42.538s-.172-1.883-.172-3.506c0-1.8.172-3.327.172-3.327" style="fill:#d6d3c7;stroke-width:1.32267"/><path d="M-340.614 25.407h40.274v6.62h-40.274z" style="fill:#557251;fill-opacity:1;stroke-width:1.65988" transform="scale(-1 1)"/><path d="M-343.434 19.017h36.591v6.365h-36.591z" style="fill:#86aec4;fill-opacity:1;stroke-width:1.55143" transform="scale(-1 1)"/><path d="M-339.137 14.312h37.008v4.753h-37.008z" style="fill:#aec486;fill-opacity:1;stroke-width:1.34827" transform="scale(-1 1)"/></svg>