<?xml version="1.0" encoding="UTF-8" standalone="no"?>
<!-- Created with Inkscape (http://www.inkscape.org/) -->

<svg
   width="1122.5197"
   height="330"
   viewBox="0 0 296.99999 87.312497"
   version="1.1"
   id="svg1"
   inkscape:version="1.4 (86a8ad7, 2024-10-11)"
   sodipodi:docname="lib-welcome.svg"
   xmlns:inkscape="http://www.inkscape.org/namespaces/inkscape"
   xmlns:sodipodi="http://sodipodi.sourceforge.net/DTD/sodipodi-0.dtd"
   xmlns:xlink="http://www.w3.org/1999/xlink"
   xmlns="http://www.w3.org/2000/svg"
   xmlns:svg="http://www.w3.org/2000/svg">
  <sodipodi:namedview
     id="namedview1"
     pagecolor="#505050"
     bordercolor="#eeeeee"
     borderopacity="1"
     inkscape:showpageshadow="0"
     inkscape:pageopacity="0"
     inkscape:pagecheckerboard="0"
     inkscape:deskcolor="#505050"
     inkscape:document-units="mm"
     inkscape:zoom="0.49323376"
     inkscape:cx="686.28716"
     inkscape:cy="234.16888"
     inkscape:window-width="1920"
     inkscape:window-height="1001"
     inkscape:window-x="-9"
     inkscape:window-y="-9"
     inkscape:window-maximized="1"
     inkscape:current-layer="layer2" />
  <defs
     id="defs1">
    <rect
       x="1291.4769"
       y="168.27721"
       width="691.35577"
       height="103.39925"
       id="rect8" />
    <rect
       x="1265.1202"
       y="20.274363"
       width="758.26117"
       height="89.207191"
       id="rect6" />
    <rect
       x="150.03027"
       y="462.25546"
       width="1002.5672"
       height="112.52271"
       id="rect3" />
    <rect
       x="342.63672"
       y="457.18686"
       width="243.29234"
       height="94.275787"
       id="rect2" />
    <rect
       x="1291.4769"
       y="168.27721"
       width="691.35577"
       height="103.39925"
       id="rect8-4" />
  </defs>
  <g
     inkscape:label="Layer 1"
     inkscape:groupmode="layer"
     id="layer1">
    <path
       style="fill:#535353;fill-opacity:1;stroke:#c1a86f;stroke-width:3.2;stroke-dasharray:none;stroke-opacity:1"
       d="m 9.1034482,18.965517 c 0,0 30.7241378,-7.206897 47.0344828,-7.586207 C 72.448274,11 90.275862,18.586207 117.5862,20.862068 c 27.31035,2.275864 66.37931,-15.1724124 89.51724,-16.6896544 23.13793,-1.517241 49.31035,5.310344 62.96551,10.2413794 13.65517,4.931034 18.58621,10.24138 18.58621,10.24138 v 48.931033 c 0,0 -31.71149,-14.950219 -75.16853,-14.950219 -28.4371,0 -61.00387,16.846772 -93.24525,15.708839 C 46.716089,71.749816 61.801169,57.536443 10.241379,65.999998 Z"
       id="path1"
       sodipodi:nodetypes="cssssccsscc" />
    <path
       style="fill:none;fill-opacity:1;stroke:none;stroke-width:3.2;stroke-dasharray:none;stroke-opacity:1"
       d="m 12.337795,130.61969 c 0,0 19.847755,-10.19209 41.304788,-9.11924 21.457034,1.07285 35.940531,11.80137 72.417487,10.19209 36.47696,-1.60928 52.56974,-14.75171 86.09635,-13.94707 33.52662,0.80464 77.24533,13.94707 77.24533,13.94707"
       id="path2"
       sodipodi:nodetypes="csssc" />
    <text
       xml:space="preserve"
       id="text2"
       style="font-style:normal;font-variant:normal;font-weight:normal;font-stretch:normal;font-size:22.5778px;font-family:'Liberation Sans';-inkscape-font-specification:'Liberation Sans';text-align:center;writing-mode:lr-tb;direction:ltr;text-anchor:middle;white-space:pre;fill:#ae9a54;fill-opacity:1;stroke:#796217;stroke-width:0.3;stroke-dasharray:none;stroke-opacity:1"
       transform="matrix(0.9747384,0,0,1.0001275,3.0373618,-78.244351)"><textPath
         xlink:href="#path2"
         startOffset="50%"
         id="textPath3"
         style="font-size:22.5778px">Welcome to Writers House!</textPath></text>
    <path
       style="fill:#d0ccb4;fill-opacity:1;stroke:#352c17;stroke-width:0.438588;stroke-dasharray:none;stroke-opacity:1"
       d="m 272.48889,83.115451 c 0,0 -2.35679,-4.574933 -9.7044,-2.772686 -8.03358,1.970503 -10.81348,2.218148 -10.81348,2.218148 V 55.943129 c 0,0 2.49543,-5.822639 9.14987,-6.099907 6.65444,-0.27727 11.36801,3.604491 11.36801,3.604491 0,0 4.15903,-5.268104 11.09075,-3.881761 6.93171,1.386343 9.84303,4.297665 9.84303,4.297665 l 0.27727,29.945004 c 0,0 -7.34762,-5.961275 -13.17026,-4.574932 -5.82264,1.386343 -8.04079,3.881762 -8.04079,3.881762 z"
       id="path3"
       sodipodi:nodetypes="csccscsccsc" />
    <path
       style="fill:#d0ccb4;fill-opacity:1;stroke:#352c17;stroke-width:0.438588;stroke-dasharray:none;stroke-opacity:1"
       d="m 272.76616,82.006375 c 0,0 4.71358,-4.852199 11.50665,-4.574931 6.79307,0.277269 8.04078,2.634051 8.04078,2.634051 l 0.13863,-29.529102 c 0,0 -7.90215,-3.465856 -13.03162,-1.524976 -5.12946,1.940878 -6.65444,3.327221 -6.65444,3.327221 0,0 -9.56577,-5.129466 -14.41797,-2.772686 -4.8522,2.356784 -4.71356,4.852202 -4.71356,4.852202 l -0.27727,24.815535 c 0,0 5.96128,-2.218148 11.36801,-1.386343 5.40674,0.831806 8.04079,4.159029 8.04079,4.159029 z"
       id="path4" />
    <rect
       style="fill:#958769;fill-opacity:1;stroke:none;stroke-width:0.151386;stroke-dasharray:none;stroke-opacity:1"
       id="rect4"
       width="1.1076622"
       height="31.052666"
       x="272.0737"
       y="52.339344" />
    <text
       xml:space="preserve"
       id="text4"
       style="font-style:normal;font-variant:normal;font-weight:normal;font-stretch:normal;font-size:22.5778px;font-family:'Liberation Sans';-inkscape-font-specification:'Liberation Sans';text-align:center;writing-mode:lr-tb;direction:ltr;text-anchor:middle;white-space:pre;fill:#d3ad69;fill-opacity:1;stroke:#796217;stroke-width:0.3;stroke-dasharray:none;stroke-opacity:1"
       transform="matrix(0.9747384,0,0,1.0001275,2.0890859,-78.244351)"><textPath
         xlink:href="#path2"
         startOffset="50%"
         id="textPath4"
         style="font-size:22.5778px;fill:#d3ad69;fill-opacity:1">Welcome to Writers House!</textPath></text>
    <text
       xml:space="preserve"
       transform="scale(0.26458333)"
       id="text5"
       style="font-style:normal;font-variant:normal;font-weight:normal;font-stretch:normal;font-size:85.3333px;font-family:'Liberation Sans';-inkscape-font-specification:'Liberation Sans';text-align:center;writing-mode:lr-tb;direction:ltr;white-space:pre;shape-inside:url(#rect6);display:inline;fill:#e0c594;fill-opacity:1;stroke:#d7b02e;stroke-width:1.14142;stroke-dasharray:none;stroke-opacity:1" />
  </g>
  <g
     inkscape:groupmode="layer"
     id="layer2"
     inkscape:label="Layer 2"
     style="display:none">
    <rect
       style="fill:#e0c594;fill-opacity:1;stroke:#ffffff;stroke-width:1.802;stroke-dasharray:none;stroke-opacity:1"
       id="rect5"
       width="228.5174"
       height="98.702354"
       x="324.68219"
       y="-5.1601381" />
    <text
       xml:space="preserve"
       style="font-style:normal;font-variant:normal;font-weight:normal;font-stretch:normal;font-size:22.5778px;font-family:'Liberation Sans';-inkscape-font-specification:'Liberation Sans';text-align:center;writing-mode:lr-tb;direction:ltr;text-anchor:middle;fill:#e0c594;fill-opacity:1;stroke:#d7b02e;stroke-width:0.302001;stroke-dasharray:none;stroke-opacity:1"
       x="436.25876"
       y="26.488981"
       id="text7"><tspan
         sodipodi:role="line"
         id="tspan7"
         style="font-style:normal;font-variant:normal;font-weight:normal;font-stretch:normal;font-family:Satisfy;-inkscape-font-specification:Satisfy;fill:#3b311e;fill-opacity:1;stroke:none;stroke-width:0.302"
         x="436.25876"
         y="26.488981">Do not waste your time</tspan></text>
    <text
       xml:space="preserve"
       transform="matrix(0.26458333,0,0,0.26458333,2.826681,2.3498226)"
       id="text8"
       style="font-style:normal;font-variant:normal;font-weight:normal;font-stretch:normal;font-size:85.3333px;font-family:Satisfy;-inkscape-font-specification:Satisfy;text-align:center;writing-mode:lr-tb;direction:ltr;white-space:pre;shape-inside:url(#rect8-4);display:inline;fill:#3b311e;fill-opacity:1;stroke:none;stroke-width:1.14142;stroke-dasharray:none;stroke-opacity:1"><tspan
         x="1397.1961"
         y="230.90474"
         id="tspan2">Look in a book!</tspan></text>
  </g>
</svg>
