<svg xmlns="http://www.w3.org/2000/svg" xmlns:xlink="http://www.w3.org/1999/xlink" width="1122.52" height="330" viewBox="0 0 297 87.312"><path d="M9.103 18.966s30.725-7.207 47.035-7.587 34.138 7.207 61.448 9.483 66.38-15.172 89.517-16.69c23.138-1.517 49.31 5.31 62.966 10.242 13.655 4.93 18.586 10.241 18.586 10.241v48.931s-31.711-14.95-75.168-14.95c-28.437 0-61.004 16.847-93.246 15.709-73.525-2.595-58.44-16.809-110-8.345Z" style="fill:#535353;fill-opacity:1;stroke:#c1a86f;stroke-width:3.2;stroke-dasharray:none;stroke-opacity:1"/><path id="a" d="M12.338 130.62s19.848-10.192 41.305-9.12 35.94 11.802 72.417 10.193c36.477-1.61 52.57-14.752 86.096-13.948s77.246 13.948 77.246 13.948" style="fill:none;fill-opacity:1;stroke:none;stroke-width:3.2;stroke-dasharray:none;stroke-opacity:1"/><text xml:space="preserve" style="font-style:normal;font-variant:normal;font-weight:400;font-stretch:normal;font-size:22.5778px;font-family:&quot;Liberation Sans&quot;;-inkscape-font-specification:&quot;Liberation Sans&quot;;text-align:center;writing-mode:lr-tb;direction:ltr;text-anchor:middle;white-space:pre;fill:#ae9a54;fill-opacity:1;stroke:#796217;stroke-width:.3;stroke-dasharray:none;stroke-opacity:1" transform="matrix(.97474 0 0 1.00013 3.037 -78.244)"><textPath xlink:href="#a" startOffset="50%" style="font-size:22.5778px">Welcome to Writers House!</textPath></text><path d="M272.489 83.115s-2.357-4.574-9.705-2.772c-8.033 1.97-10.813 2.218-10.813 2.218V55.943s2.495-5.823 9.15-6.1c6.654-.277 11.368 3.605 11.368 3.605s4.159-5.268 11.09-3.882c6.932 1.386 9.844 4.298 9.844 4.298l.277 29.945s-7.348-5.962-13.17-4.575c-5.823 1.386-8.041 3.881-8.041 3.881z" style="fill:#d0ccb4;fill-opacity:1;stroke:#352c17;stroke-width:.438588;stroke-dasharray:none;stroke-opacity:1"/><path d="M272.766 82.006s4.714-4.852 11.507-4.575 8.04 2.634 8.04 2.634l.14-29.529s-7.903-3.465-13.032-1.525c-5.13 1.941-6.655 3.328-6.655 3.328s-9.566-5.13-14.418-2.773-4.713 4.852-4.713 4.852l-.278 24.816s5.962-2.218 11.368-1.387c5.407.832 8.041 4.16 8.041 4.16z" style="fill:#d0ccb4;fill-opacity:1;stroke:#352c17;stroke-width:.438588;stroke-dasharray:none;stroke-opacity:1"/><path d="M272.074 52.339h1.108v31.053h-1.108z" style="fill:#958769;fill-opacity:1;stroke:none;stroke-width:.151386;stroke-dasharray:none;stroke-opacity:1"/><text xml:space="preserve" style="font-style:normal;font-variant:normal;font-weight:400;font-stretch:normal;font-size:22.5778px;font-family:&quot;Liberation Sans&quot;;-inkscape-font-specification:&quot;Liberation Sans&quot;;text-align:center;writing-mode:lr-tb;direction:ltr;text-anchor:middle;white-space:pre;fill:#d3ad69;fill-opacity:1;stroke:#796217;stroke-width:.3;stroke-dasharray:none;stroke-opacity:1" transform="matrix(.97474 0 0 1.00013 2.09 -78.244)"><textPath xlink:href="#a" startOffset="50%" style="font-size:22.5778px;fill:#d3ad69;fill-opacity:1">Welcome to Writers House!</textPath></text></svg>