<svg xmlns="http://www.w3.org/2000/svg" xmlns:xlink="http://www.w3.org/1999/xlink" width="410.701" height="1350.52" viewBox="0 0 108.665 357.325"><defs><filter id="i" width="2.087" height="2.087" x="-.544" y="-.544" style="color-interpolation-filters:sRGB"><feGaussianBlur stdDeviation="4.818"/></filter><filter id="e" width="1.356" height="1.373" x="-.178" y="-.187" style="color-interpolation-filters:sRGB"><feGaussianBlur stdDeviation="3.002"/></filter><filter id="d" width="1.443" height="1.443" x="-.221" y="-.221" style="color-interpolation-filters:sRGB"><feGaussianBlur stdDeviation="5.468"/></filter><filter id="c" width="1.498" height="1.498" x="-.249" y="-.249" style="color-interpolation-filters:sRGB"><feGaussianBlur stdDeviation="6.146"/></filter><filter id="j" width="1.919" height="1.919" x="-.46" y="-.46" style="color-interpolation-filters:sRGB"><feGaussianBlur stdDeviation="4.073"/></filter><filter id="k" width="2.263" height="2.263" x="-.632" y="-.632" style="color-interpolation-filters:sRGB"><feGaussianBlur stdDeviation="5.598"/></filter><linearGradient id="a"><stop offset=".002" style="stop-color:#041717;stop-opacity:1"/><stop offset=".631" style="stop-color:#094a4a;stop-opacity:1"/><stop offset="1" style="stop-color:#314747;stop-opacity:1"/></linearGradient><linearGradient xlink:href="#a" id="b" x1="52.836" x2="55.505" y1="13.876" y2="347.438" gradientTransform="translate(.47 -.886)" gradientUnits="userSpaceOnUse"/></defs><g style="display:inline"><path d="M7.408 347.086 9.01 43.945s8.006-33.623 44.831-33.623S99.205 41.81 99.205 41.81l2.134 22.949-.533 282.86z" style="display:inline;fill:url(#b);stroke-width:.264583"/></g><g style="display:inline" transform="translate(-19.747 -68.314)"><circle cx="216.165" cy="76.994" r="29.633" style="display:inline;mix-blend-mode:normal;fill:#fcfcbe;fill-opacity:1;stroke-width:.24902;filter:url(#c)" transform="translate(-86.926 96.443)scale(.66929)"/><circle cx="216.165" cy="76.994" r="25.135" style="display:inline;mix-blend-mode:normal;fill:#dffcb8;fill-opacity:1;stroke-width:.211222;filter:url(#f)" transform="translate(-92.272 94.538)scale(.69402)"/><circle cx="216.165" cy="76.994" r="29.633" style="display:inline;mix-blend-mode:normal;fill:#fdfdd4;fill-opacity:1;stroke-width:.24902;filter:url(#d)" transform="translate(-86.926 96.443)scale(.66929)"/><path d="M199.76 89.826c-2.38-2.117-5.82-8.864-4.233-11.112 1.588-2.25 4.895 1.587 4.763-5.16-.133-6.747 1.587-10.848 2.91-11.906s5.556-1.984 5.556-1.984 4.895.264 5.556 3.307-2.778 5.291-1.587 7.144c1.19 1.852-4.366 5.688-4.498 8.466s5.292 7.144 7.54 4.234c2.25-2.91 12.436 1.852 13.759-2.646s1.72-8.202 1.19-12.171c-.529-3.969 4.102-7.54 4.763-3.043.662 4.498-2.249 6.086-1.058 12.171 1.19 6.085 2.381 11.113-3.572 10.848s-10.98-2.249-9.657 1.19 7.011 10.584 2.116 8.864-6.879-3.043-8.996-5.424c-2.116-2.381-2.91-5.953-7.276-2.646s-3.042 7.409-5.424 4.63c-2.38-2.778-1.852-4.762-1.852-4.762" style="display:inline;mix-blend-mode:normal;fill:#fff;fill-opacity:1;stroke-width:.264583;filter:url(#e)" transform="translate(-92.272 94.538)scale(.69402)"/></g><g style="display:inline"><path d="m-42.162 134.492-7.12-2.414-6.026 4.496.097-7.517-6.139-4.341 7.18-2.232 2.231-7.18 4.341 6.139 7.518-.096-4.497 6.025z" style="fill:#e3e68d;fill-opacity:1;stroke-width:.264583;filter:url(#i)" transform="translate(66.026 128.68)scale(.1062)"/><path d="m-42.162 134.492-7.12-2.414-6.026 4.496.097-7.517-6.139-4.341 7.18-2.232 2.231-7.18 4.341 6.139 7.518-.096-4.497 6.025z" style="fill:#e3e68d;fill-opacity:1;stroke-width:.264583;filter:url(#i)" transform="translate(81.018 103.33)scale(.07834)"/><path d="m-42.162 134.492-7.12-2.414-6.026 4.496.097-7.517-6.139-4.341 7.18-2.232 2.231-7.18 4.341 6.139 7.518-.096-4.497 6.025z" style="mix-blend-mode:normal;fill:#e3e68d;fill-opacity:1;stroke-width:.264583;filter:url(#j)" transform="translate(69.465 110.179)scale(.07834)"/><path d="m-42.162 134.492-7.12-2.414-6.026 4.496.097-7.517-6.139-4.341 7.18-2.232 2.231-7.18 4.341 6.139 7.518-.096-4.497 6.025z" style="fill:#e3e68d;fill-opacity:1;stroke-width:.264583;filter:url(#i)" transform="translate(86.107 136.417)scale(.04929)"/><path d="m-42.162 134.492-7.12-2.414-6.026 4.496.097-7.517-6.139-4.341 7.18-2.232 2.231-7.18 4.341 6.139 7.518-.096-4.497 6.025z" style="fill:#e3e68d;fill-opacity:1;stroke-width:.264583;filter:url(#i)" transform="translate(83.502 78.815)scale(.04929)"/><path d="m-42.162 134.492-7.12-2.414-6.026 4.496.097-7.517-6.139-4.341 7.18-2.232 2.231-7.18 4.341 6.139 7.518-.096-4.497 6.025z" style="fill:#e3e68d;fill-opacity:1;stroke-width:.264583;filter:url(#i)" transform="translate(91.78 117.363)scale(.06162)"/><path d="m-42.162 134.492-7.12-2.414-6.026 4.496.097-7.517-6.139-4.341 7.18-2.232 2.231-7.18 4.341 6.139 7.518-.096-4.497 6.025z" style="fill:#e3e68d;fill-opacity:1;stroke-width:.264583;filter:url(#i)" transform="translate(88.006 100.38)scale(.06162)"/><path d="m-42.162 134.492-7.12-2.414-6.026 4.496.097-7.517-6.139-4.341 7.18-2.232 2.231-7.18 4.341 6.139 7.518-.096-4.497 6.025z" style="fill:#e3e68d;fill-opacity:1;stroke-width:.264583;filter:url(#i)" transform="translate(42.01 103.272)scale(.08528)"/><path d="m-42.162 134.492-7.12-2.414-6.026 4.496.097-7.517-6.139-4.341 7.18-2.232 2.231-7.18 4.341 6.139 7.518-.096-4.497 6.025z" style="fill:#e3e68d;fill-opacity:1;stroke-width:.264583;filter:url(#i)" transform="translate(21.395 86.84)scale(.1062)"/><path d="m-42.162 134.492-7.12-2.414-6.026 4.496.097-7.517-6.139-4.341 7.18-2.232 2.231-7.18 4.341 6.139 7.518-.096-4.497 6.025z" style="fill:#e3e68d;fill-opacity:1;stroke-width:.264583;filter:url(#i)" transform="translate(36.49 25.704)scale(.1062)"/><path d="m-42.162 134.492-7.12-2.414-6.026 4.496.097-7.517-6.139-4.341 7.18-2.232 2.231-7.18 4.341 6.139 7.518-.096-4.497 6.025z" style="fill:#e3e68d;fill-opacity:1;stroke-width:.264583;filter:url(#i)" transform="translate(52.82 20.585)scale(.06182)"/><path d="m-42.162 134.492-7.12-2.414-6.026 4.496.097-7.517-6.139-4.341 7.18-2.232 2.231-7.18 4.341 6.139 7.518-.096-4.497 6.025z" style="fill:#e3e68d;fill-opacity:1;stroke-width:.264583;filter:url(#i)" transform="translate(39.806 18.18)scale(.06182)"/><path d="m-42.162 134.492-7.12-2.414-6.026 4.496.097-7.517-6.139-4.341 7.18-2.232 2.231-7.18 4.341 6.139 7.518-.096-4.497 6.025z" style="fill:#e3e68d;fill-opacity:1;stroke-width:.264583;filter:url(#i)" transform="translate(77.346 26.152)scale(.09141)"/><path d="m-42.162 134.492-7.12-2.414-6.026 4.496.097-7.517-6.139-4.341 7.18-2.232 2.231-7.18 4.341 6.139 7.518-.096-4.497 6.025z" style="fill:#e3e68d;fill-opacity:1;stroke-width:.264583;filter:url(#i)" transform="translate(16.162 119.539)scale(.04209)"/><path d="m-42.162 134.492-7.12-2.414-6.026 4.496.097-7.517-6.139-4.341 7.18-2.232 2.231-7.18 4.341 6.139 7.518-.096-4.497 6.025z" style="fill:#e3e68d;fill-opacity:1;stroke-width:.264583;filter:url(#i)" transform="translate(62.645 96.098)scale(.06162)"/><path d="m-42.162 134.492-7.12-2.414-6.026 4.496.097-7.517-6.139-4.341 7.18-2.232 2.231-7.18 4.341 6.139 7.518-.096-4.497 6.025z" style="fill:#e3e68d;fill-opacity:1;stroke-width:.264583;filter:url(#i)" transform="translate(45.632 121.325)scale(.04418)"/><path d="m-42.162 134.492-7.12-2.414-6.026 4.496.097-7.517-6.139-4.341 7.18-2.232 2.231-7.18 4.341 6.139 7.518-.096-4.497 6.025z" style="fill:#e3e68d;fill-opacity:1;stroke-width:.264583;filter:url(#i)" transform="translate(29.621 134.667)scale(.04418)"/><path d="m-42.162 134.492-7.12-2.414-6.026 4.496.097-7.517-6.139-4.341 7.18-2.232 2.231-7.18 4.341 6.139 7.518-.096-4.497 6.025z" style="fill:#e3e68d;fill-opacity:1;stroke-width:.264583;filter:url(#j)" transform="translate(29.692 116.665)scale(.06526)"/><path d="m-42.162 134.492-7.12-2.414-6.026 4.496.097-7.517-6.139-4.341 7.18-2.232 2.231-7.18 4.341 6.139 7.518-.096-4.497 6.025z" style="fill:#e3e68d;fill-opacity:1;stroke-width:.264583;filter:url(#i)" transform="translate(89.245 67.996)scale(.06162)"/><path d="m-42.162 134.492-7.12-2.414-6.026 4.496.097-7.517-6.139-4.341 7.18-2.232 2.231-7.18 4.341 6.139 7.518-.096-4.497 6.025z" style="fill:#e3e68d;fill-opacity:1;stroke-width:.264583;filter:url(#i)" transform="translate(92.076 90.083)scale(.0372)"/><path d="m-42.162 134.492-7.12-2.414-6.026 4.496.097-7.517-6.139-4.341 7.18-2.232 2.231-7.18 4.341 6.139 7.518-.096-4.497 6.025z" style="fill:#e3e68d;fill-opacity:1;stroke-width:.264583;filter:url(#i)" transform="translate(71.662 86.347)scale(.0372)"/><path d="m-42.162 134.492-7.12-2.414-6.026 4.496.097-7.517-6.139-4.341 7.18-2.232 2.231-7.18 4.341 6.139 7.518-.096-4.497 6.025z" style="fill:#e3e68d;fill-opacity:1;stroke-width:.264583;filter:url(#i)" transform="translate(93.356 149.614)scale(.0372)"/><path d="m-42.162 134.492-7.12-2.414-6.026 4.496.097-7.517-6.139-4.341 7.18-2.232 2.231-7.18 4.341 6.139 7.518-.096-4.497 6.025z" style="fill:#e3e68d;fill-opacity:1;stroke-width:.264583;filter:url(#i)" transform="translate(94.827 163.807)scale(.02674)"/><path d="m-42.162 134.492-7.12-2.414-6.026 4.496.097-7.517-6.139-4.341 7.18-2.232 2.231-7.18 4.341 6.139 7.518-.096-4.497 6.025z" style="fill:#e3e68d;fill-opacity:1;stroke-width:.264583;filter:url(#i)" transform="translate(75.322 144.139)scale(.05614)"/><path d="m-42.162 134.492-7.12-2.414-6.026 4.496.097-7.517-6.139-4.341 7.18-2.232 2.231-7.18 4.341 6.139 7.518-.096-4.497 6.025z" style="fill:#e3e68d;fill-opacity:1;stroke-width:.264583;filter:url(#i)" transform="translate(75.725 134.731)scale(.02409)"/><path d="m-42.162 134.492-7.12-2.414-6.026 4.496.097-7.517-6.139-4.341 7.18-2.232 2.231-7.18 4.341 6.139 7.518-.096-4.497 6.025z" style="fill:#e3e68d;fill-opacity:1;stroke-width:.264583;filter:url(#i)" transform="translate(96.862 131.322)scale(.04929)"/><path d="m-42.162 134.492-7.12-2.414-6.026 4.496.097-7.517-6.139-4.341 7.18-2.232 2.231-7.18 4.341 6.139 7.518-.096-4.497 6.025z" style="fill:#e3e68d;fill-opacity:1;stroke-width:.264583;filter:url(#i)" transform="translate(96.645 108.223)scale(.03942)"/><path d="m-42.162 134.492-7.12-2.414-6.026 4.496.097-7.517-6.139-4.341 7.18-2.232 2.231-7.18 4.341 6.139 7.518-.096-4.497 6.025z" style="fill:#e3e68d;fill-opacity:1;stroke-width:.264583;filter:url(#i)" transform="translate(93.443 49.516)scale(.03942)"/><path d="m-42.162 134.492-7.12-2.414-6.026 4.496.097-7.517-6.139-4.341 7.18-2.232 2.231-7.18 4.341 6.139 7.518-.096-4.497 6.025z" style="fill:#e3e68d;fill-opacity:1;stroke-width:.264583;filter:url(#i)" transform="translate(63.289 51.651)scale(.03942)"/><path d="m-42.162 134.492-7.12-2.414-6.026 4.496.097-7.517-6.139-4.341 7.18-2.232 2.231-7.18 4.341 6.139 7.518-.096-4.497 6.025z" style="fill:#e3e68d;fill-opacity:1;stroke-width:.264583;filter:url(#i)" transform="translate(89.912 30.458)scale(.06182)"/><path d="m-42.162 134.492-7.12-2.414-6.026 4.496.097-7.517-6.139-4.341 7.18-2.232 2.231-7.18 4.341 6.139 7.518-.096-4.497 6.025z" style="fill:#e3e68d;fill-opacity:1;stroke-width:.264583;filter:url(#i)" transform="translate(69.365 11.245)scale(.06182)"/><path d="m-42.162 134.492-7.12-2.414-6.026 4.496.097-7.517-6.139-4.341 7.18-2.232 2.231-7.18 4.341 6.139 7.518-.096-4.497 6.025z" style="fill:#e3e68d;fill-opacity:1;stroke-width:.264583;filter:url(#k)" transform="translate(94.994 170.383)scale(.07661)"/><path d="m-42.162 134.492-7.12-2.414-6.026 4.496.097-7.517-6.139-4.341 7.18-2.232 2.231-7.18 4.341 6.139 7.518-.096-4.497 6.025z" style="fill:#e3e68d;fill-opacity:1;stroke-width:.264583;filter:url(#k)" transform="translate(94.427 230.576)scale(.07661)"/><path d="m-42.162 134.492-7.12-2.414-6.026 4.496.097-7.517-6.139-4.341 7.18-2.232 2.231-7.18 4.341 6.139 7.518-.096-4.497 6.025z" style="fill:#e3e68d;fill-opacity:1;stroke-width:.264583;filter:url(#k)" transform="translate(76.566 244.416)scale(.06486)"/><path d="m-42.162 134.492-7.12-2.414-6.026 4.496.097-7.517-6.139-4.341 7.18-2.232 2.231-7.18 4.341 6.139 7.518-.096-4.497 6.025z" style="fill:#e3e68d;fill-opacity:1;stroke-width:.264583;filter:url(#i)" transform="translate(87.424 252.475)scale(.02409)"/></g><path d="M40.061 296.144c5.895-7.324 4.645-20.186 3.394-22.687s-7.86-6.253-11.79-11.433-5.895-12.148-5.895-12.148h.893s4.109 10.361 7.146 11.612 5.359 6.252 6.61 2.68c1.25-3.573.535-9.826 2.322-9.826s.714-2.322.714 3.573 6.074 2.501 6.074-.357-.179-8.932-.179-8.932 2.144-1.786 2.144.536-1.072 12.683-1.965 17.506.357 7.503 2.144 5.717c1.786-1.786 3.215-7.324 3.215-7.324s4.287-3.93 1.787.178c-2.501 4.11-.536 5.36-4.288 13.041-3.751 7.682-1.86 19.552-3.29 19.552s-9.036-1.688-9.036-1.688" style="fill:#333123;fill-opacity:1;stroke-width:1.16548;stroke-linecap:square;stroke-linejoin:bevel;stroke-dasharray:1.16548,3.49644"/><path d="M35.774 272.206c-.305-.065.391 2.092-.357 2.323-.626.192-1.31 0-1.965 0h-.894c.06 0-.12.013-.178 0-.897-.225-1.795-.447-2.68-.715-1.038-.314-3.42-.63-4.287-1.786-.7-.932.373-1.857 1.072-2.323.158-.105 1.199-.217 1.071-.536-.313-.784-1.083-1.095-1.429-1.786-.053-.106.024-.24 0-.357-.048-.241-.178-.47-.178-.715 0-.088 1.564.354.893-.893-.322-.598-.806-1.095-1.25-1.608-.332-.382-.657-.784-1.073-1.072-.437-.303-1.19-.238-1.429-.714-.663-1.328 1.507-.44 1.965-.715.523-.313.358-.973.358-1.429 0-2.832-.872-2.42-2.68-4.644-.155-.191-.069-.495-.179-.715-.085-.172-.965-.737-.714-1.072.591-.788 4.469.369 4.109-.893-.376-1.315-3.196-2.7-4.288-3.573-.26-.208-.334-.802-.536-1.072-.713-.95-1.78-1.596-2.322-2.68-.11-.219-.057-.5-.179-.714-.167-.292-.582-.405-.714-.714-.31-.723-.564-2.035-.358-2.859.127-.507.984-1.352 1.43-1.607.836-.478 1.959-.03 2.858-.179.599-.1 1.198-.205 1.786-.357 1.022-.265 2.07-.473 3.037-.893.427-.186.766-.544 1.072-.894.141-.161.192-.673.357-.536 1.63 1.358 3.351 2.963 4.645 4.645.148.192 0 1.414 0 1.608 0 1.12-.15 4.35.357 5.002.85 1.093 1.574.764 2.68.178.815-.431 3.56-2.622 3.036-3.93-.804-2.01-2.98-3.047-4.287-4.644-.22-.269-.436-.56-.536-.893-.149-.497-.082-2.68 0-3.037.24-1.041 1.65-2.316 2.501-2.859.805-.512 3.453-1.905 4.287-1.071 1.43 1.429-1.19-.239.715.714.053.027-.152.053-.179 0-.11-.22-.148-.47-.178-.714-.068-.545-.12-.786.357-1.072.457-.274.953-.477 1.429-.715.834-.417 1.617-.955 2.5-1.25.396-.132.835 0 1.251 0 .06 0 .143-.048.18 0 .528.705.56 3.547.178 4.466-.365.876-1.43 1.507-1.43 2.5 0 .12-.099.292 0 .358.333.222.744.308 1.073.536.45.312.81.742 1.25 1.072.278.208.632.307.893.536.224.196.442.432.536.714.257.77-.47 3.679 1.43 2.322.381-.272.891-1.96.892-1.965.555-1.754.658-3.35.536-5.18l-.178-1.072c-.06-.119-.153-.227-.18-.357-.316-1.587.123-3.24 1.787-3.752.297-.091 2.301-.35 2.68-.178.383.174.556.64.893.893 1.256.942 1.112.333 1.965 1.429 1.26 1.62-.02.114.536 1.965.086.285.403.448.536.715.053.106-.053.25 0 .357.027.053.136-.042.179 0 .131.131.475.712.536.893.077.233.119.476.178.715 0 .238-.075.488 0 .714.11.33.38.583.536.893.227.455.179 1.31.357 1.787.424 1.129.358.047.358.893 0 2.16-3.726.789-4.109 2.322-.306 1.224 1.226 1.86 1.965 2.323.21.13 1.358 1.004 1.965 1.071.691.077 1.969.08 2.68 0 .07-.008 1.063-.334 1.25-.178.267.222.354.597.536.893.906 1.473 1.422 2.838 1.965 4.466.101.304.27.585.357.893.033.114-.053.25 0 .357.027.053.18.06.18 0s-.12 0-.18 0h-.893c-1.072 0-2.149-.106-3.215 0-.06.006.02.122 0 .179-.102.304-.273.584-.358.893-.457 1.676.266.584-.893 2.322-2.101 2.627.425-.708-1.072 1.787-.02.033-.5.142-.536.179-.042.042.043.136 0 .178s-.125-.026-.178 0c-.529.265-1.616 1.235-1.25 1.965.494.99 1.673 2.31 2.679 2.859.891.486 1.96.558 2.858 1.071.373.213.768.411 1.072.715.785.785 2.566 3.493 2.858 4.466.103.342-.059.72 0 1.072.031.185.16.348.179.536.22 2.206-.994 2.051-2.501 2.68-.492.204-.924.545-1.43.714-1.82.607-5.938-1.948-7.68-3.037-.798-.499-1.432-1.193-2.144-1.786-.433-.361-1.125-.566-1.43-1.072-.096-.162-.069-.383-.178-.536-.196-.274-.522-.439-.715-.715-.272-.389-.962-1.595-1.072-2.143-.24-1.207-.178-2.52-.178-3.752 0-.595.163-1.214 0-1.786-.073-.256-.3-.455-.358-.715-.07-.316.135-3.259 0-3.394-.737-.738-2.337-1.794-3.394-2.322-.227-.114-1.142-.222-1.25-.357-.149-.186.075-.49 0-.715-.215-.645-1.8-.69-2.144-.715-.416-.03-.833 0-1.25 0H42.74c-1.024 0-1.071-.06-1.071.894 0 .238-.094.495 0 .714.099.232.422.31.535.536.08.16-.111.396 0 .536.738.922 1.43-.058 1.43 1.608 0 .039.052.636 0 .714-.984 1.476-4.74.903-5.36 2.144-.314.628 1.396 1.584 1.608 1.965.116.208-.047.481 0 .715.04.2.314.486.179.893-.349 1.045-3.972 1.417-4.109 1.965-.177.708.117 1.461.179 2.143.036.394.155 2.75 0 3.216-.027.08-.165.096-.179.179-.2 1.195.12 2.38-.179 3.572z" style="fill:#0e2009;fill-opacity:1;stroke-width:1.16548;stroke-linecap:square;stroke-linejoin:bevel;stroke-dasharray:1.16548,3.49644"/><path d="M16.878 285.021c-3.05 0-4.239.367-6.756-3.829-2.547-4.244 1.797-4.586 3.828-5.855.23-.144.555-.209.676-.45.196-.392-.71-.538-1.126-.676-1.385-.462-6.756-3.155-5.856-5.18.804-1.81 2.394-.22 3.604-1.127.12-.09 0-.3 0-.45 0-1.323-.572-2.316-1.577-3.153-.129-.108-.364-.081-.45-.225-.201-.335-.679-2.814-.45-2.928 1.652-.827 2.66 1.68 1.35-2.027-.864-2.45-4.517-5.155-3.153-7.883.122-.242.312-.444.45-.676.087-.144.076-.375.226-.45.724-.362 3.144.303 4.054 0 .704-.235.99-1.296 1.351-1.802.706-.987 2.076-1.496 2.478-2.703.178-.532.46-1.891.225-2.477-.079-.197-.371-.253-.45-.45-.069-.172-.251-1.736-.226-1.802.93-2.417 1.298-1.27 2.253-2.703.041-.062-.067-.191 0-.225 2.897-1.449.902.349 3.828-2.252.087-.077.08-1.194 0-1.352-.094-.19-.355-.26-.45-.45-.067-.134.047-.308 0-.45-.031-.094-.681-.336-.45-.45.54-.272 1.26-.046 1.801.224 2.107 1.054 5.112 4.536 4.73 7.207-.148 1.035-1.044 3.01-.9 3.153.265.266.635.41.9.676.34.34.561.786.9 1.126.266.266.684.37.902.676.18.252.116.61.225.9.445 1.187.92 2.265.676 3.604-.43 2.364-3.8 1.436-3.153 3.379.444 1.333 1.678 2.28 2.477 3.378l.676 1.126c0 .225-.101.474 0 .676.142.285.546.384.675.675.582 1.31.468 3.178-.45 4.28-.108.129-.332.106-.45.225-.558.557.929 1.452 1.801 2.252.47.43.849.96 1.352 1.351.187.146.457.132.675.226.62.265 2.847 1.508 2.928 1.576.776.647 1.37 1.485 2.027 2.252.328.383.99.958.676 1.352-.266.331-.666.547-.901.9-.636.954-.436 1.89-1.351 2.703-2.011 1.787-.783-.072-2.253 2.027-.406.58-.625 1.301-1.126 1.802-.572.572-1.655.203-2.027.45-.15.1-2.001 1.538-2.027 1.577-.38.57.357 4.354.225 4.504-.398.456-1.197.195-1.801.226-2.746.137-3.919-.08-6.307-.676-.443-.11-.918-.081-1.35-.225-.072-.023.052-.172 0-.225-.198-.198-2.38-1.133-2.929-1.352" style="fill:#0e2009;fill-opacity:1;stroke-width:1.52837;stroke-linecap:square;stroke-linejoin:bevel;stroke-dasharray:1.52837,4.58511"/><path d="M72.614 284.574c-2.23 3.66-4.105 9.55-4.105 9.55l.982.267-2.053 6.871 1.071.179-2.231 4.908 1.339-.089s-3.838 6.425-2.678 6.425h1.25l-1.607 4.106 2.5-.714v1.963l4.64-2.053 2.32 2.053 1.16-1.874 1.16 1.25 1.964-.09.267-1.071 3.838.625.267-1.16 3.749.803-2.5-4.82 2.232.18-2.588-5.98s2.766.535 1.874-.268c-.893-.803-4.82-7.05-4.82-7.05h.983l-2.856-5.711s2.588.178 1.606-.268-6.514-8.3-6.514-8.3z" style="fill:#0e2009;fill-opacity:.84501845;stroke-width:.600001;stroke-linecap:square;stroke-linejoin:bevel;stroke-dasharray:.600001,1.8"/><path d="M93.77 290.791c1.781 2.921 3.277 7.623 3.277 7.623l-.783.214 1.638 5.485-.855.143 1.781 3.918-1.068-.071s3.063 5.129 2.137 5.129H98.9l1.282 3.277-1.995-.57v1.567l-3.704-1.638-1.853 1.638-.926-1.496-.926.998-1.567-.072-.214-.855-3.063.5-.214-.927-2.992.641 1.995-3.847-1.781.143 2.066-4.773s-2.209.427-1.496-.214c.712-.641 3.847-5.628 3.847-5.628h-.784l2.28-4.56s-2.066.143-1.283-.213c.784-.356 5.201-6.625 5.201-6.625z" style="fill:#091506;fill-opacity:.73616236;stroke-width:.478969;stroke-linecap:square;stroke-linejoin:bevel;stroke-dasharray:.478969,1.43691"/><g style="display:inline"><path d="M86.171 107.005c-.838-5.87.839-4.193.452-8.063s.193-5.224-.258-7.288c-.452-2.064-2-3.225-2.387-3.419s-5.546-.838-7.223-2.515-2.774-3.548-2.903-3.87-.903-2.386-.903-2.386 1.87 2.386 2.387 3.095.387 2.838 3.096 3.419c2.708.58 5.611 1.548 5.611 1.548s-2.709-2.258-3.096-4.838-.387-3.418-.387-3.418.258 3.483 1.354 4.708 3.161 3.935 3.161 3.161 1.677 2.773 2.515-2.903c.839-5.675 1.42-6.965 1.42-6.965l.515.903-.903 6.901s2.129-1.161 3.096-4.321c.968-3.161 1.032-3.096 1.032-3.096s1.613.967.839 1.806c-.774.838-2.838 5.933-4.644 7.159s-1.226 3.676.774 2.451 6.901-3.225 8.256-5.87l1.354-2.644s.258.387.194.967c-.065.581-.968 3.29-2.71 4.386-1.74 1.097-4.514 2.387-5.675 3.096s-3.16 1.032-3.225 4.838.774 7.933.774 9.159c0 1.225-.065 3.999-.065 3.999z" style="fill:#523618;fill-opacity:1;stroke-width:.600001;stroke-linecap:square;stroke-linejoin:bevel;stroke-dasharray:.600001,1.8" transform="translate(-29.982 172.604)scale(1.32906)"/><path d="M82.592 68.727c-.217.012-.412.137-.613.223-.158.068-.746.144-.58.516.063.142.182.252.257.387.156.078.016.225.065.323.047.094.194.129.194.258 0 .052-.3-.122-.323-.13-.31-.103-.658-.09-.968-.193a5 5 0 0 1-.516-.387c-.012-.017.016-.05 0-.065-.015-.015-.043.006-.064 0-.066-.016-.125-.064-.193-.064-.046 0-.055.625-.065.645-.048.096-.734.064-.968.064-.213 0-1.037.076-1.29 0-.34.149-.327-.247-.515-.322-.06-.024-.134.024-.194 0-.056-.022-.07-.114-.13-.129-.291-.073-.602.02-.902 0-.077-.005-.586-.124-.645-.065-.42.42-.143.866-.258 1.097-.009.017-.757 0-1.032 0-.242 0-.473-.07-.71-.129-.64-.16-1.457.11-1.999.452-.607.383-.712.296-.903.773-.106.266.222.367.258.58.014.086 0 .173 0 .26 0 .538.096.242-.645.321-.39.042-.783.09-1.161.194-.335.091-.64.272-.967.387-.104.036-.356-.04-.323.065.18.558.576 1.023.839 1.547.019.039-.02.091 0 .13.027.054.086.086.129.129.021.086.024.178.064.257.01.02.05-.015.065 0 .072.073-.033 1.063-.017 1.469-.152-.043-.299-.091-.306-.05-.083.498.014.292.194.71.074.174-.033.387.064.58.06.122.208.093.258.194.085.17-.304-.127-.129.258.084.185.19.363.323.516.15.173.34.305.516.451.105.089.322.121.322.259 0 .021-.043 0-.064 0h-.194c-.12 0-.659-.066-.774 0-.093.053-.138.165-.193.257-.166.276.438 1.393.451 1.42.052.11.157.19.258.257.018.012.055-.019.064 0 .02.039.035.104 0 .13-.304.228-1.49-.164-1.612.322-.037.146 0 .301 0 .452 0 .114-.04.46 0 .58.056.167.181.242.323.322.932.533 1.438.017 2.322.194.066.013.153.01.193.065.503.058.071.306.13.451.075.19.122.246.193.387.019.038-.03.099 0 .129.107.108.307-.016.451-.065.68-.226 1.488-.945.838-1.676-.091-.103-.225-.161-.322-.259-.266-.045-.204-.309-.323-.451-.108-.13-.334-.23-.387-.387-.07-.21 1.163-.02 1.226 0 .557.186.2 1.201.322 1.354.076.095.144.217.259.258.056.02.91-.103.967.065.075.226-.149.832.258.967.243.081.942.027 1.161-.129.074-.053.116-.145.193-.193.415-.26 1.088-.448 1.549-.645.138-.06-.013-.1.128-.194.036-.023.091.02.13 0 .116-.058-.468-1.236-.517-1.354-.009-.022-.164-.222-.129-.258.137-.137.532.145.645.258.073.073-.098.193.065.193.042 0 .246.024.258 0 .08-.16 0-.673 0-.838 0-.021-.02-.058 0-.064.215-.072.34.106.516.193.184.092.242.064.452.064.107 0 .226.048.322 0 .056-.028.064-.743.064-.838 0-.306.039-.18-.064-.387-.19-.378-.327-.783-.516-1.16-.08-.162-.296-.332-.322-.517-.049-.337.052-.556.193-.839.01-.019-.02-.054 0-.064.038-.02.087-.007.129 0 .582.097.361.258.516.645.046.116.124.218.194.323.016.025.043.042.064.064.043.021.101.025.13.064.343.482.448.958.064 1.42-.152.181-.37.282-.323.516.048.242.477.696.71.773.04.014.098-.03.129 0 .015.016.002.043 0 .065-.02.172-.023.348-.065.516-.096.386-.337.516.258.516h.968c.258 0-.108.022.064-.064.086-.043.237.043.323 0 .036-.019-.044-1.322 0-1.355.083-.063.547-.29.645-.194.046.047-.115.187.128.065.039-.02-.03-.098 0-.129.016-.015.05.015.065 0 .076-.076.056-.272.258-.323.115-.028.432-.019.516.065.015.015-.015.05 0 .065.03.03.099-.03.13 0 .014.015-.02.054 0 .064.135.068.491.04.515-.129.018-.128 0-.258 0-.387 0-.344.061-.78-.129-1.096-.177-.294-.136-.008-.258-.13-.112-.111-.129-.753-.129-.903 0-.148.076-.451.258-.451.129 0 .272-.058.387 0 .07.035.119.108.193.129.083.024.173-.008.259 0 .151.014.3.041.451.065.203.03.498.129.71.129.068 0 .308.036.322.064.114.228-.081.591-.258.71-.036.023-.099-.031-.129 0-.106.105.269 1.15.13 1.29-.087.086-.43-.086-.517 0-.015.015.013.047 0 .064-.198.264-.484.388-.323.71.035.068-.063.086.065.128.266.09.054-.047.451.13.56.248.726-.015 1.161-.387.07-.06.176-.105.194-.194.032-.158-.093-.58 0-.71.08-.112.225-.16.322-.257.076-.076.09-.233.194-.259.29-.072.68.165.903.323.087.063.182.27.258.193.01-.01-.166-.413-.13-.58.143-.64.622-.857 1.226-.903.108-.008.22-.034.323 0 .26.087 1.081.756.968 1.096-.252.755-.378.493 0 1.097.057.091.145.162.193.258.029.058-.046.148 0 .193.043.043.172.086.129.13-.177.177-.433.253-.645.386-.065.041-.102.174-.13.194-.076.058-.18.071-.257.129-.295.221-.33.504-.258.516.19.032.393.047.58 0 .101-.025.187-.197.323-.13.02.01-.007.045 0 .065q.023.07.065.13c.036.054.18.11.193.129.077.115.054.44.129.516.097.097.23.154.322.257.084.094.121.221.194.323.035.05.095.078.129.129.23.345-.748.864-.903.968-.064.043-.206.184-.129.193.192.021.387 0 .58 0 .195 0 .93.02 1.097-.064.112-.056.133-.213.193-.323.367-.673.155-1.07.258-1.742.024-.154.094-.298.13-.451.048-.21.005-.437.064-.645.021-.075.086-.13.129-.194.043-.107.097-.21.129-.322.012-.041-.024-.093 0-.13.075-.112.767-.834.903-.902.23-.115.288.125.387-.323.07-.312-.244-.626-.194-.709a.47.47 0 0 1 .194-.194c.025-.01.61-.135.71-.064a2.4 2.4 0 0 1 .516.516c.147.196.22.424.257.387.03-.03 0-.086 0-.129 0-.15.033-.304 0-.451-.027-.122-.188-.19-.257-.259-.076-.076 0-.214 0-.322 0-.308-.081-.8.386-.645.207.07.324.41.452.58.36.48.42.326.516.903.04.246.129.163.064.452-.034.153-.162.286-.129.452.05.247.51.845.258 1.096-.081.082-.226.065-.322.129-.24.16.068.258-.323.258-.064 0-.136.029-.193 0-.384-.192-.173-.19-.452-.516-.118-.138-.657-.246-.773-.129-.063.063.002.195.064.258.03.03.092-.022.129 0 .062.037.507.396.387.516-.076.076-.216-.015-.323 0-.303.043-.621.266-.902.387-.056.024-.19.12-.13.13.128.02.26-.015.387 0 .181.02.699.31.839.45.026.027.012.3 0 .323-.074.148-.338.145-.451.193-.476.204-.605.653-.775 1.161-.013.041.02.091 0 .13-.24.479-.081.156-.386.257-.183.061-.294.244-.452.323-.02.01-.05-.015-.064 0-.061.06 0 .172 0 .258s-.039.181 0 .258c.019.039.09-.02.128 0 .055.027.079.095.13.13.017.011.046-.013.064 0 .13.086.156.118.142.125.073.024.156.05.374.132.14.052.587.085.645.129.153.114.303.745.258.967-.006.032-.095.133-.064.194.013.027.035.055.064.065.104.034.222.02.322.064.472.21.036.198.516.258.467.058 1.026-.11 1.515-.33V69.137c-.183.003-.416.004-.418.007-.124.186.101.395 0 .516-.088.106-.215.173-.322.259-.286.228-.546.49-.84.71-.233.175-.814-.107-1.031-.194-.06-.024-.13 0-.194 0h-.58c-.15 0-.305.032-.452 0-.055-.013-.683-.613-.838-.71-.364-.227-.742-.355-1.16-.451-.128-.03-.266-.02-.388-.065-.399-.15.31-.28-.516-.13-.315.058-.24.115-.452.195-.578.216-.225.054-.902.258-.39.116.052.005-.194.128-.086.043-1.306.565-1.032.84.176.175.427.277.645.386.268.134-.069-.004.065.129.062.063.17.054.257.065.29.034 1.455-.03 1.742.257.442.443-.03.637-.322.71-.299.075-.598.158-.904.194-.384.044-.778-.055-1.16 0-.359.05.492.19-.258.064-.251-.042-.2-.133-.388-.258-.12-.08-.274-.103-.387-.193-.07-.057-.12-.14-.193-.194a6.5 6.5 0 0 0-.903-.58c-.06-.03-.146-.017-.194-.065-.03-.03.022-.092 0-.129-.047-.078-.156-.11-.193-.193-.053-.12-.036-.26-.064-.388-.014-.058-.097-.418-.13-.451-.015-.015-.049.015-.064 0-.046-.046-.018-.276-.065-.322-.034-.034-.094-.03-.128-.065-.016-.015.015-.05 0-.064-.156-.156-.707.052-.968 0-.03-.006-.037-.051-.065-.065a1.5 1.5 0 0 0-.322-.129c-.169-.039-.346-.03-.516-.065-.265-.053-.589-.303-.839-.386a.6.6 0 0 0-.225-.03M93.86 86.62c-.2-.063-.03.017 0 0m-25.04-9.285q-.011.026-.048.032c.016-.01.035-.025.048-.032" style="fill:#2d641d;fill-opacity:1;stroke-width:.600001;stroke-linecap:square;stroke-linejoin:bevel;stroke-dasharray:.600001,1.8" transform="translate(-29.982 172.604)scale(1.32906)"/><path d="m71.012 78.81-1.095-1.824c-.938-.037.442-.758.274-1.094-.258-.515-.355-.208-.456-.41-.092-.184.039-.482.182-.593.087-.068.767-.174.912-.137.054.013.082.09.137.09.039 0-.164-1.249-.137-1.276.068-.068.322.044.41 0 .014-.007 0-.03 0-.046.015-.152.036-.303.046-.456.012-.158.02-.401-.045-.547-.045-.1-.407-.53-.32-.639.084-.104.171-.09.274-.09.583 0 .72.099 1.232.318.198.085.15-.746.319-.866.148-.106 1.013.234 1.14.32.013.008-.01.034 0 .045.054.053.122.09.183.137.06.045.106.143.182.136.63-.057 1.51-.71 2.144-.456.211.085.474.35.592.548.025.04.021.095.046.136.1.168.309.182.456.274.055.034.087.096.137.137.07.058.2.1.137.228-.118.236-.848-.003-.958.091a5 5 0 0 0-.775.821c-.018.025-.024.072 0 .091.352.282.114-.023.456.32.039.038.052.098.091.136.069.07.17.105.228.183.11.147.567 1.075.41 1.231-.053.054-.151 0-.228 0-.09 0-.183.017-.273 0-.498-.09.013-.09-.41-.137-.133-.014-.727-.05-.867 0-.231.083-.474.148-.684.274-.143.086-.337.2-.456.32-.011.01.015.042 0 .045-.468.078-1.13-.185-1.505.228-.063.068-.028.183-.046.274-.038.19-.095.443-.046.638.03.117.108.128.183.228.182.243.242.614.182.912-.064.321-.534.04-.73.137-.068.034-.124.088-.182.137-.397.397.153-.11-.182.091-.056.033-.08.106-.137.137-.207.113-.489.185-.73.137-.736-.147.82-.456 0-.456" style="fill:#377923;fill-opacity:1;stroke-width:.600001;stroke-linecap:square;stroke-linejoin:bevel;stroke-dasharray:.600001,1.8" transform="translate(-29.982 172.604)scale(1.32906)"/><path d="M80.59 73.885c-.213-.593-.671-1.15-.639-1.779.104-2.019.569.253.821 0 .048-.048.068-.118.091-.182.083-.226.156-.455.228-.684q.03-.09.046-.183c.005-.03-.025-.074 0-.09.038-.026.091-.004.137 0 .167.011.334.038.501.045.456.017.913 0 1.369 0 .352 0 .364-.01.364-.365 0-.137.046-.281 0-.41-.05-.144-.186-.24-.273-.365-.02-.028-.022-.068-.046-.092-.01-.01-.035.011-.045 0-.011-.01-.015-.04 0-.045.53-.212.827.39 1.231.593.187.093 1.073-.135 1.186.09.077.156-.091.434-.228.503-.017.008-.163-.02-.183 0-.072.072-.064.3 0 .364.166.166.578.137.73.32.047.056 0 .339.091.365.145.04.645.085.73.09.03.003.32-.016.365 0 .137.052.325.2.41.32.028.04.033.09.046.137.133.487.184.41-.274.41h-.729a.56.56 0 0 0 .045.365c.067.167.089.124.32.228.143.065.38.147.547.091.282-.093.173-.183.456-.136.251.042.513.33.684.501.076.076.202.13.182.228-.058.295-.326.246-.547.32-.14.046-.117.17-.274.045-.061-.049-.213-.456-.228-.456s.006.032 0 .046c-.025.063-.077.116-.09.182-.037.18 0 .365 0 .548 0 .24.384.412.546.547.05.041.195.108.137.137-.04.02-.092-.008-.137 0a3 3 0 0 0-.364.09c-.079.025-.15.07-.228.092-.18.051-.483-.26-.502-.274-.844-.703-.015-.111-.365-.228-.228-.076.076-.01-.046-.09-.04-.028-.098-.018-.136-.046-.028-.02-.018-.072-.046-.092-.083-.059-.197-.069-.274-.136-.066-.06-.082-.159-.137-.229-.06-.078-.495-.501-.592-.501-.554 0-.677-.069-1.05.41-.046.06-.11.112-.136.183-.047.125.021.252-.091.365-.03.028-.696.048-.73.045-.063-.005-.12-.035-.183-.045-.03-.005-.067.019-.09 0-.104-.083-.177-.272-.32-.32-.088-.029-.185-.019-.274-.045-.138-.042-.268-.113-.41-.137-.423-.07-.373.367-.639.456a1.6 1.6 0 0 1-.684.046c-.08-.017-.147-.078-.228-.092-.09-.015-.198.05-.274 0-.064-.043-.24-.899-.182-.957.052-.052.376-.17.41-.183" style="fill:#397e24;fill-opacity:1;stroke-width:.600001;stroke-linecap:square;stroke-linejoin:bevel;stroke-dasharray:.600001,1.8" transform="translate(-29.982 172.604)scale(1.32906)"/><path d="M93.768 71.126c-.078-.009-.141.01-.18.068-.092.137-.124.412-.183.548-.018.041-.094.016-.137 0-.512-.206-.46-.32-1.049-.32-.015 0-.042-.015-.045 0-.076.378.037.65.228.958.448.723.24.554.684.821-.091.107-.192.205-.274.32-.252.352-.2.326-.045.638.062.123-.273-.023.137.182.05.025.567-.026.638-.045.112-.03.207-.11.32-.137.073-.019.153.016.227 0 .356-.08-.003-.143.41-.092.049.006.09.04.138.046.245.031.227-.061.456.091.028.02.021.068.045.092.033.032.102-.029.137 0 .06.047.076.136.137.182.066.05.164.04.228.091.024.02-.014.064 0 .091.02.039.07.055.091.092.091.152.064.434 0 .593-.008.02-.03.03-.045.045-.015 0-.04-.013-.046 0-.057.115.18.364.274.41.056.029.138.002.182.046.053.053.046.197.046.274-.055-.027-.122 0-.183 0-.09 0-.184-.02-.273 0-.174.039-.177.315-.137.456.019.065.076.116.09.182.017.075-.027.158 0 .228.012.029.065-.013.092 0 .068.034.122.092.183.137.223.168.62.391.912.274.126-.05.241-.125.365-.182.149-.07.31-.11.456-.183.058-.029.08-.108.137-.137.056-.028.124-.022.182-.045.444-.178.109-.154.684-.183.167-.008.34-.043.502 0 .083.022.122.122.182.183.046.045.105.08.137.136.073.128.086.52.046.64-.035.104-.178.003-.228.045-.188.156-.254.352-.274.593-.027.321.53.34.73.638.045.068.05.156.09.226-.03-.002-.06-.004-.09.002-.108.021-.593.39-.593.456 0 .208.179.51.273.684.043.078.08.16.137.228.126.151.9.104 1.004.046.02-.01.031-.02.047-.029v-5.208c-.289-.238-.236-.221-.275-.647-.02-.221.116-.32.275-.44v-.569c-.24-.397-.091-.335-.549-.45-.03-.007-.064-.013-.091 0-.13.065-.177.33-.32.365-.032.008-.058-.035-.09-.046-.105-.035-.217-.052-.32-.091-.216-.082-.424-.186-.638-.274-.12-.049-.263-.057-.365-.137-.05-.038-.038-.12-.046-.182-.042-.336.039-1.505-.593-1.505-.106 0-.224-.048-.319 0-.013.007 0 .03 0 .046 0 .06-.016.124 0 .182.015.053.081.083.091.137.041.224 0 .456 0 .684v.365c0 .015.011.056 0 .046-.364-.365-.756-.906-1.277-1.095-.045-.016-.09.038-.137.046-.164.027-.334-.013-.501 0-.173.013-.37.104-.548.045-.182-.06-.803-.62-1.142-.66m2.377 5.007c.003.015.008.033-.003.033s0-.019.003-.033" style="fill:#418f29;fill-opacity:1;stroke-width:.600001;stroke-linecap:square;stroke-linejoin:bevel;stroke-dasharray:.600001,1.8" transform="translate(-29.982 172.604)scale(1.32906)"/><path d="M95.686 86.427c-.361-1.043-.786-1.203.182-1.96.12-.095.307-.016.456-.046a1 1 0 0 0-.045-.274c-.02-.051-.074-.085-.092-.137-.038-.115-.02-.245 0-.365.025-.146.36.03.411-.045.097-.146.113-.66.182-.73.179-.179.49-.266.73-.32.074-.016.171.05.228 0 .024-.02.518-.453.593-.547.068-.085.152-.317.183-.41.01-.029-.022-.07 0-.091.043-.043.121 0 .182 0 .338 0 .032-.032.41.137.058.025.128.014.183.045.133.076.114.152.228.228.013.009.03 0 .045 0 .061.046.125.088.183.137.088.074.17.232.274.274.121.048.208.006.273.136.014.029-.05-.041-.137.046-.05.05-.131.335-.182.41-.008.013-.04-.014-.046 0-.014.044 0 .092 0 .137-.03.046-.07.086-.09.137-.012.028.024.075 0 .091-.072.048-.776-.034-.913 0a1.4 1.4 0 0 0-.365.137c-.053.03-.202.34-.32.41-.04.025-.096.02-.136.046-.025.017.022.07 0 .092-.01.01-.035-.011-.046 0-.096.096-.08.701-.045.82.017.06.46.159.501.183.144.082.069.182.137.32.02.038.072.052.092.09.048.097-.032.444-.046.502-.061.245-.297.24-.502.137-.057-.029-.085-.098-.137-.137-.025-.02-.227 0-.228 0-.024-.01-.165-.2-.228-.137-.107.108-.093.194-.182.32-.038.052-.104.081-.137.136-.016.026-.007.062 0 .092.037.149.14.114.228.273.038.068.017.156.046.228.157.394.182.198.182.684 0 .076.021.155 0 .228-.053.187-.361.092-.502.092-.393 0-1.09-.168-1.23-.593-.042-.123.058-.34 0-.456-.068-.135-.211-.21-.32-.32" style="fill:#60c841;fill-opacity:1;stroke-width:.600001;stroke-linecap:square;stroke-linejoin:bevel;stroke-dasharray:.600001,1.8" transform="translate(-29.982 172.604)scale(1.32906)"/><path d="M86.154 79.723c.03-.258.025-.524.09-.775.09-.34.472-.418.73-.548.014-.006.036.011.046 0 .025-.024-.007-.725 0-.73.05-.033.538-.001.548 0 .078.016.434.225.501.183.167-.104.38-.352.548-.456a1 1 0 0 1 .364 0c.039.02.068.055.092.091.008.013-.015.041 0 .046.085.028.237-.041.319 0 .08.04.149.097.228.137.043.021.103.011.137.045s.02.096.045.137c.147.245.046-.091.183.228.024.058.017.126.045.183.005.009.334-.026.41 0 .079.025.171.033.229.09.023.024.304.608.32.685.035.177.124.597 0 .775-.069.097-.19.144-.274.228-.024.024-.022.067-.046.091-.007.008-.206-.023-.137.046.054.054.454.276.32.41-.062.062-.18-.05-.092.183.031.083.1.147.137.228.04.088.048.188.091.274.02.038.068.055.091.09.051.077 0 .183 0 .275 0 .045.02.096 0 .136-.01.02-.036.027-.045.046-.046.09.062.284-.046.365-.177.132-.228-.228-.456.228a.6.6 0 0 0 0 .137c.022.021.07-.022.091 0 .011.01-.013.039 0 .045.123.061.538-.187.73-.09a.7.7 0 0 1 .182.136c.116.115.018.052.046.137q.04.115.091.228c.058.13.123.212.092.228-.041.02-.183 0-.137 0 .03 0 .062.01.09 0 .142-.047.183-1.043.183-1.232a2 2 0 0 0-.045-.228c-.007-.013-.035.011-.046 0a.7.7 0 0 1-.137-.182c-.04-.082.015-.184 0-.274-.005-.033-.066-.064-.045-.09.041-.057.302-.104.319-.138.009-.017-.086-.681-.091-.73v-.182c-.015 0-.035.01-.046 0-.1-.1.266-.022.274-.046.019-.057 0-.121 0-.182 0-.257-.08-1.123.045-1.323.04-.064.129-.083.183-.136.016-.017.014-.3 0-.32-.247-.33-.055-.027-.183-.09-.038-.02-.05-.079-.09-.092-.03-.01-.063.007-.092 0-.108-.027-.148-.116-.228.045-.053.106-.002.232-.046.32a2 2 0 0 1-.365 0c-.063-.013-.085-.098-.136-.137-.028-.02-.082-.013-.092-.046-.008-.03-.024-.34.046-.41.034-.034.097-.02.137-.046.107-.071.196-.17.273-.273.113-.151.045-.398-.045-.548-.025-.04-.012-.103-.046-.137-.01-.01-.039.014-.045 0-.014-.027.013-.064 0-.09-.028-.055-.122.007-.183 0-.351-.045-.135-.164-.502 0-.062.027-.128.05-.182.09-.048.036.043.125.046.137.012.06-.028.128 0 .183.024.049.098.052.136.09.182.182-.043.066-.182.047a.5.5 0 0 1-.365-.183c-.03-.03-.081-.225-.091-.228-.118-.03-.246.024-.365 0-.104-.02-.06-.102-.228-.046-.014.005.007.032 0 .046-.114.228.091.435.091.365 0-.015-.03.002-.045 0-.092-.013-.184-.023-.274-.046-.487-.121-.312-.233-.867-.182-.286.026-.39.27-.684.228-.091-.013-.182-.033-.273-.046-.03-.004-.082.03-.092 0-.014-.043.017-.094 0-.136-.016-.04-.055-.068-.09-.092-.013-.008-.043.015-.046 0-.014-.054-.027-.31.045-.365.057-.042.355-.101.41-.045.013.012-.027.094.046.045.034-.022.187-.245.046-.273-.213-.043-.601-.037-.821.045-.051.02-.088.067-.137.092-.027.013-.074-.026-.091 0-.06.09-.077.36-.046.456.007.02.046.024.046.045 0 .004-.129-.005-.137 0-.122.074-.187.107-.228.228-.005.015.01.035 0 .046-.054.054-.129.083-.182.137-.063.062.086.087.09.091.013.012.063.108.092.137.03.03.122.06.091.091-.076.077-.138-.07-.182-.091-.038-.02-.154.029-.183 0-.004-.005-.035-.102-.09-.046-.011.01.006.032 0 .046-.01.019-.04.025-.046.045-.036.107.253.392.319.502.117.195.129.503.091.73-.044.265-.154.08-.228.228-.037.073-.05.157-.091.228-.021.037-.075.051-.091.091-.029.07-.026.183.045.183" style="fill:#204715;fill-opacity:1;stroke-width:.600001;stroke-linecap:square;stroke-linejoin:bevel;stroke-dasharray:.600001,1.8" transform="translate(-29.982 172.604)scale(1.32906)"/><path d="M72.973 81.41c.091.41.187.82.274 1.232.035.166.121.334.09.502-.01.06-.127-.028-.182 0-.068.034-.234.521-.182.547.147.073.27-.12.365-.183.09-.06.428-.003.502.046.012.008-.003.03 0 .046.051.31.045.13.045.319 0 .056-.024.18 0 .228.007.014.032-.007.046 0 .112.056-.048.091.182.091.093 0 .2.01.274-.045.065-.05.046-.16.091-.228.019-.029.067-.022.091-.046.011-.01-.007-.032 0-.046.04-.069.376-.558.41-.593.022-.021.062 0 .092 0 .27 0 .33.211.547.32.166.083.06-.43.137-.456.174-.058.272.09.41.136.015.005 0-.03 0-.045 0-.177-.13-.211-.182-.365-.005-.014 0-.03 0-.046-.045-.06-.11-.11-.137-.182-.021-.057.006-.122 0-.183-.03-.311-.15-.814.228-1.003.184-.092.369.207.502.274.087.043.222.045.32.045.03 0 .065.017.09 0 .085-.056.29-.655.32-.775.015-.06.033-.121.045-.182.006-.03-.021-.07 0-.092.049-.048.182 0 .228.046.255.255.455.64.821.41.244-.152.183-.09.183-.364 0-.122.04-.25 0-.365-.04-.112-.157-.179-.228-.274-.02-.027-.022-.067-.046-.091s-.067-.022-.091-.046c-.039-.039-.04-.115-.091-.137-.07-.03-.163.04-.228 0-.04-.023.028-.1 0-.136-.043-.054-.139-.04-.183-.092-.2-.234.022-.377-.319-.547-.148-.074-.529.046-.502.091.226.376.183-.01.183.365 0 .185.033.427-.091.593-.22.292-.162-.035-.32.091-.121.097-.183.32-.41.137-.038-.03-.02-.097-.046-.137-.017-.025-.062.008-.091 0-.047-.011-.097-.019-.137-.045-.215-.144-.228-.405-.228-.639 0-.045-.02-.096 0-.137.04-.079.08-.16.137-.228.045-.054.207-.027.091-.182-.029-.039-.093-.027-.137-.046-.08-.034-.304-.253-.41-.182-.227.151-.212.539-.183.775.012.091.117.203.092.228-.098.098-.254-.167-.274-.182-.024-.018-.063.011-.091 0-.051-.02-.092-.06-.137-.091-.204-.146-.381-.318-.41-.274-.04.058-.088.335-.092.365s-.013.064 0 .091c.007.014.046.015.046 0 0-.003-.215.004-.228 0-.02-.007-.024-.043-.046-.046-.12-.013-.243 0-.365 0-.015 0-.035-.01-.045 0-.011.011.01.035 0 .046s-.04-.014-.046 0c-.056.111.11.26.183.32a1 1 0 0 0 .136.09c.014.007.038-.012.046 0 .027.04.017.099.046.137.083.111.084-.013.136.091.028.055-.014.124 0 .183.006.02.04.025.046.046.03.088.024.429 0 .501-.01.032-.069.02-.091.046a2 2 0 0 0-.228.32c-.015.026.01.061 0 .09-.042.127-.423.012-.639-.045-.107-.029-.297.017-.319-.092-.03-.15.27-.136.365-.136" style="fill:#234d16;fill-opacity:1;stroke-width:.600001;stroke-linecap:square;stroke-linejoin:bevel;stroke-dasharray:.600001,1.8" transform="translate(-29.982 172.604)scale(1.32906)"/><path d="M80.453 82.231c-.046-.273-.056-.555-.137-.82-.028-.094-.139-.142-.183-.229-.069-.138-.191-.732-.09-.866.062-.084.42-.411.5-.456.149-.082.17.078.138-.183-.058-.46.013-.026-.228-.365-.037-.05-.011-.13-.046-.182-.08-.12-.464-.196-.41-.41 0-.001.296-.012.41.045.05.025.05.1.091.137a1.6 1.6 0 0 0 .274.182c.148.084.315.134.456.228.09.06.147.158.228.229.041.036.098.052.137.09.01.011-.015.043 0 .046.059.015.122 0 .182 0 .357 0 .503.082.73.41.058.085.091.183.137.274.015.03.045.058.045.092 0 .023-.095-.112-.319-.092-.498.046-1.016.144-1.46.365-.013.007-.034-.01-.045 0-.075.075.103 1.135-.091 1.232-.04.02-.091 0-.137 0" style="fill:#1e4313;fill-opacity:1;stroke-width:.600001;stroke-linecap:square;stroke-linejoin:bevel;stroke-dasharray:.600001,1.8" transform="translate(-29.982 172.604)scale(1.32906)"/><path d="M94.201 87.248c-.238-.002-.62.358-1.064.536-.645.258-3.998 1.935-4.772 2.258s-.259 1.354-.904 2.45-.128 1.935-.128 1.935l.258 2.387s-.517.71-.065 1.677c.451.968.194.645.194 2s-.71-.646.258 1.676c.967 2.322-.452.903-.84.903-.386 0-.128 0-.192 1.87-.058 1.67.243-.549.4 2.065h1.277s.064-2.773.064-3.999-.839-5.354-.774-9.159 2.064-4.128 3.225-4.837c.685-.419 1.931-1.04 3.195-1.704a.18.18 0 0 0-.132-.058" style="fill:#2e1e0e;fill-opacity:1;stroke-width:.600001;stroke-linecap:square;stroke-linejoin:bevel;stroke-dasharray:.600001,1.8" transform="translate(-29.982 172.604)scale(1.32906)"/><path d="M82.257 84.374c.105.584-.208.215.385.913.775.912.182.502 1.094 1.368s1.232 1.05 1.46 1.05 1.322.41 1.596-.137c.06-.12.125-.438.185-.86-.854 1.905-1.902-.181-1.902.43 0 .701-1.684-1.44-2.818-2.764" style="fill:#724b22;fill-opacity:1;stroke-width:.600001;stroke-linecap:square;stroke-linejoin:bevel;stroke-dasharray:.600001,1.8" transform="translate(-29.982 172.604)scale(1.32906)"/><path d="M78.411 85.974c.13.087.22.144.309.18.228.091 1.14.365 1.14.365s.091-.228.32 0c.227.228.683.547 1.185.547s.73.32.912.32.547.227.82-.047q.038-.038.016-.11c-1.07-.331-2.91-.871-4.682-1.25z" style="fill:#9b652e;fill-opacity:1;stroke-width:.600001;stroke-linecap:square;stroke-linejoin:bevel;stroke-dasharray:.600001,1.8" transform="translate(-29.982 172.604)scale(1.32906)"/><path d="m90.81 84.354-.061.033a7 7 0 0 1-.821.296s-.365 1.06-.445 1.129-.125-.274-.137-.365c-.01-.091-.387.513-.193.66.194.15-.331.16-.457.15-.125-.012-.41-.183-.41-.183l-.217.467-.125.388s-.376.046-.741.228.456 1.003.228 1.277c-.183.22.074.497.607.623-.39-.572-.154-1.714.907-2.434.613-.416 1.254-1.28 1.865-2.269" style="fill:#412a13;fill-opacity:1;stroke-width:.600001;stroke-linecap:square;stroke-linejoin:bevel;stroke-dasharray:.600001,1.8" transform="translate(-29.982 172.604)scale(1.32906)"/></g><path d="M8.272 288.465h7.472s26.952 3.469 42.963 13.075 33.89 22.95 37.626 28.553 4.002 11.741 4.002 11.741.801 7.205-1.334 7.205-90.729-1.334-90.729-1.334z" style="fill:#2b5f1b;fill-opacity:1;stroke-width:.264583"/><path d="M11.208 343.97s25.084-24.284 50.434-28.554c25.351-4.27 39.76-4.27 39.76-4.27l-.266 37.627-91.53-.534z" style="fill:#214915;fill-opacity:1;stroke-width:.264583"/><path d="M12.454 345.588c.094-2.453-1.982-13.114-1.982-13.114s2.076 5.378 2.642 7.359 1.604 7.453.66 1.981c-.943-5.472.472-15.567 1.982-16.51s.66-.566.188 1.698c-.471 2.264-1.887 5.566-1.226 10.567l.66 5 1.51-10s.755 3.113.283 6.037-.377 5.944.849 5.095c1.227-.849 1.698-1.981 1.698-6.604s-.188-8.774-.094-8.397c.094.378 1.226-1.792 1.132 4.34-.094 6.133.283 9.057.283 9.057s-.755-4.434 2.83-12.076 4.435-10.661 3.303-6.321c-1.133 4.34-3.586 9.812-3.963 12.453s0 5.756 0 5.756 1.698-7.926 1.981-6.227-.283 3.207 0 4.906-.943 3.868.85 1.792 2.547-12.642 2.547-12.642.188 2.642.471 5.944-.094 6.132-.094 6.132 2.076 3.208 1.887.566c-.189-2.641 1.415-13.02.377-16.888-1.037-3.868-1.698-5.66-.754-4.434.943 1.227 1.887 6.133 2.264 11.416s.377 10.944.189 9.906c-.19-1.038 3.49-11.887 4.528-12.548s1.227-.754 1.227-.754-2.548 5.66-3.02 8.585c-.471 2.925-.565 7.076.661 4.246 1.227-2.83.472-7.548 1.32-5.567.85 1.981-.376 5.19.944 5.567 1.321.377.85 3.962 1.51.283s3.396-7.831 4.434-8.492c1.038-.66-1.51 4.057-1.792 5.944s-.378 2.83-.378 2.83 2.359 3.68 2.925 1.227.849.189.943-5.755c.095-5.944-2.075-9.623-.754-7.925 1.32 1.698 1.886 6.415 1.698 8.68-.189 2.264-.283 3.585-.283 3.585s-.472-5.567 1.604-11.793c2.075-6.227 4.528-6.793 4.528-6.793s-1.792.849-2.547 4.906-2.83 6.415-2.264 9.34.66 7.925 1.132 4.434 1.038-9.246 1.038-9.246.471 4.435.566 6.227 1.32 3.302 2.641 3.02c1.321-.284 3.02 3.396 2.265-1.605s-2.359-9.246-.85-6.51c1.51 2.737 1.604 4.152 1.887 5.944.283 1.793 0 6.038 1.133 1.51 1.132-4.529-.378-6.793 3.396-10.473 3.774-3.679 1.51-.66.377 1.604-1.132 2.265-1.415 5.472-2.075 7.642s-.095 4.529.66 2.265c.755-2.265-.66-2.83 2.076-6.322 2.736-3.49 4.434-5.943 2.736-2.358s-2.736 4.434-3.114 6.227c-.377 1.792 1.227 3.538 1.651 1.84.425-1.699-.33-1.888 1.038-3.869s2.406-3.35 1.793-1.604-1.651 2.029-1.651 3.68c0 1.65-.236 3.255-.236 3.255s.849.613 2.594.424c1.746-.188 3.397 2.642 4.01-2.122.613-4.765 1.085-7.69-.896-13.067-1.981-5.378-3.585-8.444-2.123-6.416s3.963 7.312 4.198 9.765.236 10.236.236 10.236-.094-11.227.708-16.18 3.019-7.123 3.019-7.123-1.415 3.538-1.84 5.802c-.424 2.265-.613 4.906-.66 6.982-.047 2.075-.047 9.576-.047 9.576s1.65-2.406 1.887-7.736c.235-5.33-.66-8.963-.142-7.454.519 1.51 1.085 4.953 1.085 6.557s-.99 7.218-.99 7.878.848 4.812 2.31 2.264c1.463-2.547 2.17-4.056 2.501-7.736s-.472-9.34.094-6.887 1.227 5.755.802 7.83c-.424 2.076-.471 5.425-.471 5.425s.235-6.65 2.264-12.123 3.255-5.378 3.255-5.378-1.698 2.217-2.123 5.378-1.934 8.727-1.745 10.237.66 2.783.66 2.783.142-7.784 1.274-10.803 2.264-3.868 2.264-3.868-.33-.094-.896 2.736-1.51 8.208-1.368 9.812-.189 2.547 1.037 2.453c1.227-.094 1.935 2.311 2.69-1.32.754-3.633-.755-9.577 0-8.492.754 1.085 1.131 4.198 1.084 5.52-.047 1.32.189 3.254.189 3.254s.802-7.217.189-11.085c-.614-3.869-2.17-6.416-.944-5.048 1.227 1.368 1.604 6.085 1.934 8.821s.095 5.944.047 6.51c-.047.566.378 5.095 1.038.896s-.754-8.113 1.085-11.981c1.84-3.869 2.642-4.199 2.642-4.199s-2.264 3.02-2.17 6.274-.047 2.736-.094 6.133c-.048 3.396-.708 9.481.943 4.481s.708-12.218 1.557-10.142.802 2.453.377 5.566c-.424 3.114-.802 7.878.378 5.19 1.179-2.69.99-6.746 1.415-4.576.424 2.17.236 5.566.236 5.896s-2.925 1.463-2.925 1.463z" style="fill:#0e1a06;fill-opacity:1;stroke-width:.264583"/><g style="display:inline"><path d="M-32.21 69.85q-.193-.002-.362.003c-1.405.05-1.874 1.396-2.407 3.353v5.877l.794-.522s2 1.483 2.838 2.515 2.193 2.387 4.709 3.483 5.998-1.225 6.579-1.225 1.29-1.226 1.87-1.548-1.032-2.774-1.677-3.935c-.645-1.16-2-3.29-2.644-4.45s-2.516-1.935-3.419-2.451c-.846-.484-4.357-1.081-6.28-1.1" style="display:inline;fill:#152e0d;fill-opacity:1;stroke-width:.600001;stroke-linecap:square;stroke-linejoin:bevel;stroke-dasharray:.600001,1.8" transform="translate(123.502 -44.641)scale(3.36887)"/><path d="M-35.152 63.403c.58-1.87.903-2.838 1.87-2.773s1.226.064.968.064-.839-1.483.645-1.419 1.612.774 1.612.774 1.742-4.515 4.902-3.16 3.29 2.967 3.032 2.967-.774-2.193 2.902-.903 3.29 2.322 3.29 2.322 1.806-1.548 2.58.387.451 3.096.451 3.096l.323 2.773s-.387 4.064.387 4.128 2.515-1.741 3.225-.645.774 3.29.58 3.612c-.193.323-1.677 1.355-1.677 1.355s2.193-2.451 2.451.193-2 5.87-2 5.87.646 1.29-1.29 1.225c-1.934-.065-2.063-.129-2.063-.129s1.032 1.548 0 1.612-4.128.903-3.548-1.096 2.774-6.514 2.58-6.837-3.805-10.384-9.288-10.449c-5.482-.064-10.578.452-11.287.13-.71-.323-.645-3.097-.645-3.097" style="display:inline;fill:#95d456;fill-opacity:1;stroke-width:.600001;stroke-linecap:square;stroke-linejoin:bevel;stroke-dasharray:.600001,1.8" transform="translate(123.502 -44.641)scale(3.36887)"/><path d="M-27.928 62.049s1.096-3.16 2.644-2.322a19 19 0 0 1 2.838 1.935s-.774-2.516 2.645-1.548c3.418.967 3.612 2.838 3.29 2.902s-1.936 1.548-1.936 1.548 1.42-1.806 2.71-1.354 1.74.58 1.29 1.096a25 25 0 0 1-.968 1.032s.774-2.193 2.709.903-.58 3.16-.58 3.16 2.386-1.354 3.289 1.355.064 3.999-.58 3.999c-.646 0-9.353-3.096-9.934-4.644s-7.224-6.127-7.224-6.127z" style="fill:#3a8226;fill-opacity:1;stroke-width:.600001;stroke-linecap:square;stroke-linejoin:bevel;stroke-dasharray:.600001,1.8" transform="translate(123.502 -44.641)scale(3.36887)"/><path d="m-24.897 65.274-.645.129s.387 2.709-.258 5.934-4.773 7.482-5.934 7.353c-.387-.043-1.407-1.168-2.573-2.602v2.518c1.294 1.604 1.605 3.057 3.347 6.791 1.806 3.87.933 11.61-.959 13.042l-1.352 2.408s4.17.87 5.958-.229c1.745-1.072.003-3.999.003-4.902s.449-4.522.736-8.383c.226-3.032 1.428-1.626 3.483-2.774 2.193-1.225 6.708-.58 6.708-.58l.516-2.323s-5.418 1.29-7.353 1.162c-1.935-.13.903 0 2.967-2.194s4.386-2.064 6.837-4.257-.129-1.934-.129-1.934-1.29-.13-2.064 1.676-4.902 3.225-5.676 4c-.774.773 2.064-6.192 3.096-6.837s.13 0-1.16.129-3.758 8.936-6.257 7.772c-2.828-1.318 1.234-5.057 1.967-5.87 2.386-2.644 2.014-5.884 2.967-8.45.42-1.128.61-1.321-.161-1.225-.77.097-1.613 6.483-2.645 6.483s-1.419-6.837-1.419-6.837" style="display:inline;fill:#5b3b1a;fill-opacity:1;stroke-width:.600001;stroke-linecap:square;stroke-linejoin:bevel;stroke-dasharray:.600001,1.8" transform="translate(123.502 -44.641)scale(3.36887)"/><path d="M-28.916 77.716c-1.824-1.642-1.824-.182-2.28-3.466s-.638-5.29-.638-5.29l.82.09.457 5.656s.912-.82 1.185-2.554c.274-1.733.639-2.463.639-2.463s.547-.273.547.091c0 .365-.547 3.923-.82 5.017-.274 1.095 1.003 2.28 1.003 2.28z" style="display:inline;fill:#5b3b1a;fill-opacity:1;stroke-width:.600001;stroke-linecap:square;stroke-linejoin:bevel;stroke-dasharray:.600001,1.8" transform="translate(123.502 -44.641)scale(3.36887)"/><path d="M-34.297 64.946c.638-2.098 3.74-3.193 4.287-3.193s1.915 1.916 1.915 1.916 2.007-3.831 3.467-2.372-2.554 3.467 1.46 1.46 2.918-1.186 4.195-.548c1.277.639.821 3.467.821 3.467s.547-2.554 2.007.273 0 2.828 0 2.828 4.56-3.74 4.743-.547c.182 3.192-.912 3.83-.912 3.83s1.094-1.367 2.554 1.095c1.46 2.463.547 3.831.547 3.831s2.372 1.004-.091 2.463-.365 4.014-3.193 3.284c-2.827-.73-4.925-3.01-4.925-3.649 0-.638 2.645-3.01-.365-3.466s-5.108-2.007-5.108-2.645c0-.639 5.2-4.378-.821-5.29-6.02-.913-7.754-.913-8.666-1.004s-1.915-1.733-1.915-1.733" style="display:inline;fill:#479032;fill-opacity:1;stroke-width:.600001;stroke-linecap:square;stroke-linejoin:bevel;stroke-dasharray:.600001,1.8" transform="translate(123.502 -44.641)scale(3.36887)"/><path d="m-25.768 71.166-.032.17c-.286 1.429-1.254 3.058-2.346 4.42.393-.132.132.108.69-.32.684-.525.023-.57 1.277-.935s1.436-.388 2.12-.57c.685-.183 2.304-1.46 1.688-1.779-.133-.069-.41-.166-.761-.274-.113.147-.228.232-.346.232-.163 0-.31-.172-.443-.462a65 65 0 0 0-1.847-.482" style="fill:#352310;fill-opacity:1;stroke-width:.600001;stroke-linecap:square;stroke-linejoin:bevel;stroke-dasharray:.600001,1.8" transform="translate(123.502 -44.641)scale(3.36887)"/><path d="M-19.64 75.544c-.525.222-1.075.459-1.6.686-.408.813-.847 1.693-1.306 2.49q.021.209-.03.456c-.182.866-.639 1.413-.639 1.413l.137.822s1.186-.183.73.045-1.55.867-1.55.867-.365.82-.092.82c.274 0 1.551.502 1.551.502s.188.237.453.486c.7-.186 1.483-.273 2.24-.305a29 29 0 0 0 1.672-1.69c-1.73.352-4.02.757-5.146.682-1.935-.13.903 0 2.967-2.193 1.23-1.306 2.55-1.79 3.935-2.43-.062-.3-.142-.62-.232-.94-1.504 1.26-4.133 2.251-4.735 2.853-.513.513.561-2.37 1.644-4.564" style="display:inline;fill:#4a3015;fill-opacity:1;stroke-width:.600001;stroke-linecap:square;stroke-linejoin:bevel;stroke-dasharray:.600001,1.8" transform="translate(123.502 -44.641)scale(3.36887)"/><path d="M-32.572 66.37c.838-1.032 1.16-2.644 1.483-2.709s1.87-1.354 1.935.258.452 3.548.452 3.548 1.548-2.967 2.967-3.29 2.709 1.355 2.709 1.355l1.483.387s2.903-1.226 3.096.967-.129 3.548-.58 3.548c-.452 0-3.548 1.548-3.548 1.548s3.612-2.258 4.709-1.548.58 2.515.58 2.515.839-3.354 2.645-2.064 1.806 1.677 1.806 1.677.58-.516 1.032.839c.451 1.354.064 2.773-.516 3.289s-3.032 2-3.032 2 3.935-2.193 3.483-.13c-.451 2.065 1.226 3.419-1.29 3.677s-3.612.387-3.612.387-4.192-5.87-4.515-6.579c-.322-.71-8.514-7.353-9.223-7.417s-2.645-1.097-2.645-1.097z" style="display:inline;fill:#4f7c23;fill-opacity:1;stroke-width:.600001;stroke-linecap:square;stroke-linejoin:bevel;stroke-dasharray:.600001,1.8" transform="translate(123.502 -44.641)scale(3.36887)"/><path d="M-29.127 70.915a15 15 0 0 0-.245 1.237c-.273 1.733-1.185 2.554-1.185 2.554l-.276-3.416c-.24.086-.485.175-.715.26.092.758.208 1.665.352 2.7.265 1.906.377 2.213.78 2.457a.4.4 0 0 0 .064-.154c.114-.547.16-1.277.16-1.277l.319.456.387-.889-.114-.57s.274-.57.274-.342-.023.958.137.342c.057-.22.2-.327.374-.392.165-.873.353-2.034.48-2.905a34 34 0 0 0-.792-.061" style="fill:#271a0b;fill-opacity:1;stroke-width:.600001;stroke-linecap:square;stroke-linejoin:bevel;stroke-dasharray:.600001,1.8" transform="translate(123.502 -44.641)scale(3.36887)"/><path d="M-31.347 60.372c-1.29 0-1.419 3.547-1.419 4.128 0 .58-1.483-1.097-1.483-1.097l-.002-.003v5.148c2.209-.258 6.426-.565 6.774-.565.452 0 .13-4.709.13-4.709s-.84-1.741-.84-2.064-1.87-.838-3.16-.838" style="fill:#387e24;fill-opacity:1;stroke-width:.600001;stroke-linecap:square;stroke-linejoin:bevel;stroke-dasharray:.600001,1.8" transform="translate(123.502 -44.641)scale(3.36887)"/><path d="M-21.201 62.52a1.4 1.4 0 0 0-.6.146c-1.824.82-1.915 2.189-2.463 2.189-.547 0-2.28-2.463-3.466-1.095s-1.003 1.824-1.003 1.824-2.645-2.918-4.196-2.097c-1.55.82-1.186 2.006-1.186 2.006s-.139-.473-.416-.954v16.106c.62-.144 1.26-.551 1.693-2.199.912-3.466.183-4.47.183-5.747s.638.091 2.098.639c1.459.547 1.824-2.007 2.462-.274s1.551.274 3.375.274.639 3.192 1.46 3.83c.82.64 2.28 1.187 2.28 1.187s-2.098.73-1.55 2.098 2.189 1.642 2.189 1.642-1.368 0-1.277 1.46 1.733 2.188 1.733 2.188c1.733 1.095 2.919 2.92 4.47 1.186s2.371-3.557 1.368-4.834l-1.004-1.277s5.747-1.551 4.196-3.74c-1.55-2.19-1.642-2.19-1.642-2.19s.092-3.192-1.277-3.1c-1.368.09-3.283 2.006-3.283 2.006s1.368-2.554-.639-2.372c-2.007.183-3.01 2.737-3.01 2.737s-.456-3.74.638-4.287c1.095-.548 1.369-.821 1.277-2.554-.09-1.734-.182-2.372-.73-2.463-.478-.08-.468-2.325-1.68-2.335" style="display:inline;fill:#1d4113;fill-opacity:1;stroke-width:.600001;stroke-linecap:square;stroke-linejoin:bevel;stroke-dasharray:.600001,1.8" transform="translate(123.502 -44.641)scale(3.36887)"/><path d="M-28.38 78.174s.065.064.194.516c.129.451-1.613.645-1.613.645s.258-.968-.064-.968c-.323 0-1.162 1.16-1.549 1.483s-.709-.064-1.354-1.612l-.672 1.65c.692 1.248 1.195 2.759 2.478 5.51 1.806 3.87.933 11.61-.958 13.041l-1.353 2.409s1.238.256 2.653.313c.322-.283.6-.558.755-.735.451-.516.258-.645.451-.967.194-.323-.193-.904-.516-2.194-.213-.852.221-.606.54-.34l-.604-.562V94.62s.838-.322 1.16-.322c.323 0 .71-2.387.71-2.387l-.645.968-.71-2.194 1.033.645-.645-2.709.387-.838s-.645-2.193-.71-2.902.968 1.419.968 1.419l.387-2-1.097.064s-.064-1.419 1.097-2.193c1.16-.774.71-.451 1.741-.967s-1.548-.58-1.419-1.42c.13-.838.516-1.096.71-1.354s-1.355-.257-1.355-.257m-1.007 18.75.298.277s-.134-.14-.298-.277" style="fill:#362310;fill-opacity:1;stroke-width:.600001;stroke-linecap:square;stroke-linejoin:bevel;stroke-dasharray:.600001,1.8" transform="translate(123.502 -44.641)scale(3.36887)"/><path d="M-33.351 80.05c.649 1.217 1.162 2.714 2.391 5.347 1.806 3.87.933 11.61-.958 13.042l-1.353 2.409s.43.087 1.066.172a66 66 0 0 1 1.632-2.529c.288-.42.495-.828.647-1.219l-.002-.007c-.137-.547-.006-.64.189-.568l.02-.08-.274-.254V94.62s.165-.062.373-.132c-.052-.433-.114-.73-.05-.836.193-.322.065-2.773.065-3.547s.064-1.87.064-1.87l-.322-1.42.258-1.032-.71-1.676s0-.645.58-2.387c.581-1.741-1.225.387-1.74.258-.517-.129.063-1.225.063-1.225l-.967.128s-.533-.62-.972-.832" style="fill:#1a1107;fill-opacity:1;stroke-width:.600001;stroke-linecap:square;stroke-linejoin:bevel;stroke-dasharray:.600001,1.8" transform="translate(123.502 -44.641)scale(3.36887)"/><path d="M-32.96 70.111c1.871.58 2.58 2.58 4.451 1.484s1.226-.839.71-.774-1.484 1.032-2.064.645-3.096-1.355-3.096-1.355" style="fill:#275719;fill-opacity:1;stroke-width:.600001;stroke-linecap:square;stroke-linejoin:bevel;stroke-dasharray:.600001,1.8" transform="translate(123.502 -44.641)scale(3.36887)"/><path d="M-22.51 73.788c.58 1.612-.323 2.58.774 3.031s2.45.58 1.419.194c-1.032-.387-1.097.451-1.42-.839s-.773-2.386-.773-2.386" style="fill:#2b5e1b;fill-opacity:1;stroke-width:.600001;stroke-linecap:square;stroke-linejoin:bevel;stroke-dasharray:.600001,1.8" transform="translate(123.502 -44.641)scale(3.36887)"/><path d="M-20.446 83.785c2.257 2.322 3.547 2.838 4.58 1.419 1.031-1.419 1.87-2.451.967-1.806s-1.032 2.193-2.064 2-3.483-1.613-3.483-1.613" style="fill:#28591a;fill-opacity:1;stroke-width:.600001;stroke-linecap:square;stroke-linejoin:bevel;stroke-dasharray:.600001,1.8" transform="translate(123.502 -44.641)scale(3.36887)"/><path d="M-21.201 62.52a1.4 1.4 0 0 0-.6.145c-1.824.821-1.915 2.19-2.463 2.19-.547 0-2.28-2.463-3.466-1.095-1.185 1.368-1.003 1.825-1.003 1.825s-2.646-2.92-4.196-2.098c-1.55.82-1.186 2.006-1.186 2.006s-.06-.195-.168-.452v.865c.996 1.117.622 1.79 1.13.4.613-1.677-.451-2.838 1.452-1.839.915.481 1.511.878 1.89 1.162-.142.032-.318.126-.536.322-.935.838-1.097 1.193-1.097 1.193s-.709.387 1.032-.129 2-1.032 2.645-.613 1.322.678 1.322.678-.645-.58-1.096-.968c-.452-.387-.452-1.096-.226-1.16.225-.065.258-.646 1.322-.323 1.064.322 2.71 1.386 2.806 1.225s1.064-2.225 2.128-2.257c.73-.022 1.217-.075 1.513.32-.214-.647-.506-1.391-1.203-1.397m1.472 2.13q.013.066.024.14c.194 1.322 1.129 2.064.258 2.934-.87.871-.58.323-1.322 1.839-.741 1.515.032 5.03.032 5.03s2.194-3.418 2.742-2.224.902 1.515.902 1.515 2.263-1.35 3.22-2.086c-1.36.171-3.184 1.996-3.184 1.996s1.368-2.554-.64-2.371c-2.006.182-3.01 2.736-3.01 2.736s-.455-3.74.64-4.287c1.094-.548 1.368-.822 1.276-2.555-.09-1.733-.182-2.37-.73-2.462-.08-.014-.147-.09-.208-.206m-14.554 2.622v.264c.398-.026.467-.069.001-.263z" style="display:inline;fill:#2e651d;fill-opacity:1;stroke-width:.600001;stroke-linecap:square;stroke-linejoin:bevel;stroke-dasharray:.600001,1.8" transform="translate(123.502 -44.641)scale(3.36887)"/><path d="M-27.09 68.628c.452-.13 2.451-1.548 3.548-.58 1.096.967 1.806 3.16 1.548 3.224s-1.097-1.483-2.129-2.128-2.967-.516-2.967-.516" style="fill:#366a27;fill-opacity:1;stroke-width:.600001;stroke-linecap:square;stroke-linejoin:bevel;stroke-dasharray:.600001,1.8" transform="translate(123.502 -44.641)scale(3.36887)"/><path d="M-16.512 75.271c1.484-1.032 2.064-1.87 2.71-1.096.644.774.773 2.064.773 2.064s2.129.193 1.161.967c-.967.774-1.29 2.064-1.29.839s.71-1.29 0-1.29-.355-1.839-.87-1.968c-.517-.129-.613.42-1.387.484-.774.065-1.097 0-1.097 0" style="fill:#347321;fill-opacity:1;stroke-width:.600001;stroke-linecap:square;stroke-linejoin:bevel;stroke-dasharray:.600001,1.8" transform="translate(123.502 -44.641)scale(3.36887)"/></g><g style="fill:#50b133;fill-opacity:1"><path d="M13.822 296.623c.566-3.633 1.604-3.821.566-8.02s-1.699-5.944-1.699-5.944.708 1.321 1.51 3.538c.802 2.218 1.51 4.293 1.415 5.85s-.188 3.396-.188 3.396 1.32-1.226 1.179-4.67-2.359-6.981-1.227-5.896 1.227 2.736 1.604 4.15c.378 1.416.236 5.85.236 5.284s-.424-1.65 1.745-5.52c2.17-3.867 3.35-5.66 2.265-3.537s-2.076 3.962-2.406 5.66c-.33 1.699-.094 4.86.094 4.86.189 0-.754-1.557.944-4.01s3.113-4.387 2.358-2.925-2.311 3.632-2.311 4.859-.519 1.651.283 2.359c.802.707.377.518 1.651.471s2.217 1.227 2.547-.094 1.18.047 1.038-3.585-1.32-6.416-.613-5.048.707 1.321.99 3.255.284 4.057.284 4.057-.472-1.793.566-5.85 2.358-6.792 2.358-6.792-.802 2.028-.943 3.774c-.142 1.745-1.368 3.868-1.18 5.613.19 1.745.944 3.963 1.085 3.68s1.038-.944.991-3.538c-.047-2.595-.283-4.529-.283-4.529s.896 1.18.802 4.104-.142 3.68-.142 3.68.708 1.179-.283 1.273c-.99.095-4.811 1.463-6.934 1.227s-2.736.047-4.906-.472-3.396-.66-3.396-.66" style="fill:#2b5f1b;fill-opacity:1;stroke-width:.264583"/></g><g style="fill:#0f1b06;fill-opacity:1"><path d="M316.096 238.04c-.097-1.09.348-4.446.222-5.538-.928-8.034-3.021-20.667-7.544-35.393-3.505-11.148-7.157-19.578-9.688-25.349 2.437 5.555 5.872 14.59 8.87 25.59 4.161 14.88 5.87 27.253 6.803 35.332.125 1.084 1.24 4.268 1.337 5.359" style="fill:#0f1b06;fill-opacity:1;fill-rule:nonzero;stroke:none;stroke-width:.3;stroke-linecap:square;stroke-linejoin:bevel;stroke-opacity:1" transform="scale(-1 1)rotate(-10.465 731.434 2083.263)"/><path d="M303.96 183.038s-.301-3.065.527-3.906c.853-.866 2.58-1.94 2.58-1.94s-.08 2.707-.92 3.822c-.726.962-2.187 2.024-2.187 2.024m1.99 4.622s.359-3.059 1.347-3.704c1.018-.665 2.934-1.345 2.934-1.345s-.655 2.626-1.714 3.537c-.913.786-2.567 1.511-2.567 1.511m-5.87-13.592s-2.339-1.523-2.5-2.643c-.166-1.154-.016-3.1-.016-3.1s1.883 1.612 2.232 2.898c.302 1.11.285 2.845.285 2.845m1.889 4.173s-.777-2.608-.2-3.477c.594-.895 1.912-2.117 1.912-2.117s.386 2.361-.156 3.47c-.467.957-1.557 2.124-1.557 2.124m6.008 15.596s.36-3.058 1.347-3.703c1.018-.665 2.934-1.345 2.934-1.345s-.655 2.626-1.713 3.536c-.914.786-2.568 1.512-2.568 1.512m1.981 7.025s.359-3.057 1.347-3.703c1.017-.665 2.933-1.345 2.933-1.345s-.655 2.626-1.713 3.537c-.913.786-2.567 1.511-2.567 1.511m2.31 7.214s.39-3.315 1.46-4.014c1.104-.72 3.18-1.459 3.18-1.459s-.71 2.848-1.857 3.835c-.99.852-2.783 1.638-2.783 1.638m1.886 7.309s.417-3.551 1.564-4.3c1.182-.772 3.407-1.562 3.407-1.562s-.76 3.05-1.99 4.106c-1.06.913-2.981 1.756-2.981 1.756m-17.175-37.522s1.571 2.222 2.611 2.305c1.071.086 2.846-.196 2.846-.196s-1.619-1.762-2.825-2.021c-1.042-.224-2.632-.088-2.632-.088m7.293 7.755s-1.615-2.622-2.783-2.79c-1.203-.174-3.227.016-3.227.016s1.701 2.106 3.044 2.486c1.16.327 2.966.288 2.966.288m1.58 4.993s-2.322-2.022-3.487-1.835c-1.2.192-3.076.976-3.076.976s2.25 1.504 3.646 1.466c1.205-.032 2.917-.607 2.917-.607m2.107 6.997s-1.57-2.65-2.734-2.838c-1.2-.195-3.227-.04-3.227-.04s1.664 2.136 3 2.538c1.155.348 2.961.34 2.961.34m1.591 5.873s-1.925-2.405-3.105-2.429c-1.215-.025-3.2.413-3.2.413s1.946 1.88 3.326 2.093c1.191.182 2.978-.078 2.978-.078m1.69 7.676s-1.74-2.848-3.005-3.036c-1.304-.193-3.499.005-3.499.005s1.836 2.29 3.29 2.707c1.256.36 3.214.324 3.214.324m1.391 7.453s-2.782-2.244-4.126-1.977c-1.384.276-3.526 1.269-3.526 1.269s2.678 1.646 4.295 1.54c1.396-.09 3.358-.832 3.358-.832" style="fill:#0f1b06;fill-opacity:1;stroke:none;stroke-width:.3;stroke-linecap:square;stroke-linejoin:bevel;stroke-opacity:1" transform="scale(-1 1)rotate(-10.465 731.434 2083.263)"/></g><g style="fill:#142608;fill-opacity:1"><path d="M316.096 238.04c-.097-1.09.348-4.446.222-5.538-.928-8.034-3.021-20.667-7.544-35.393-3.505-11.148-7.157-19.578-9.688-25.349 2.437 5.555 5.872 14.59 8.87 25.59 4.161 14.88 5.87 27.253 6.803 35.332.125 1.084 1.24 4.268 1.337 5.359" style="fill:#142608;fill-opacity:1;fill-rule:nonzero;stroke:none;stroke-width:.3;stroke-linecap:square;stroke-linejoin:bevel;stroke-opacity:1" transform="matrix(-.6895 -.26121 -.26121 .6895 291.58 267.56)"/><path d="M303.96 183.038s-.301-3.065.527-3.906c.853-.866 2.58-1.94 2.58-1.94s-.08 2.707-.92 3.822c-.726.962-2.187 2.024-2.187 2.024m1.99 4.622s.359-3.059 1.347-3.704c1.018-.665 2.934-1.345 2.934-1.345s-.655 2.626-1.714 3.537c-.913.786-2.567 1.511-2.567 1.511m-5.87-13.592s-2.339-1.523-2.5-2.643c-.166-1.154-.016-3.1-.016-3.1s1.883 1.612 2.232 2.898c.302 1.11.285 2.845.285 2.845m1.889 4.173s-.777-2.608-.2-3.477c.594-.895 1.912-2.117 1.912-2.117s.386 2.361-.156 3.47c-.467.957-1.557 2.124-1.557 2.124m6.008 15.596s.36-3.058 1.347-3.703c1.018-.665 2.934-1.345 2.934-1.345s-.655 2.626-1.713 3.536c-.914.786-2.568 1.512-2.568 1.512m1.981 7.025s.359-3.057 1.347-3.703c1.017-.665 2.933-1.345 2.933-1.345s-.655 2.626-1.713 3.537c-.913.786-2.567 1.511-2.567 1.511m2.31 7.214s.39-3.315 1.46-4.014c1.104-.72 3.18-1.459 3.18-1.459s-.71 2.848-1.857 3.835c-.99.852-2.783 1.638-2.783 1.638m1.886 7.309s.417-3.551 1.564-4.3c1.182-.772 3.407-1.562 3.407-1.562s-.76 3.05-1.99 4.106c-1.06.913-2.981 1.756-2.981 1.756m-17.175-37.522s1.571 2.222 2.611 2.305c1.071.086 2.846-.196 2.846-.196s-1.619-1.762-2.825-2.021c-1.042-.224-2.632-.088-2.632-.088m7.293 7.755s-1.615-2.622-2.783-2.79c-1.203-.174-3.227.016-3.227.016s1.701 2.106 3.044 2.486c1.16.327 2.966.288 2.966.288m1.58 4.993s-2.322-2.022-3.487-1.835c-1.2.192-3.076.976-3.076.976s2.25 1.504 3.646 1.466c1.205-.032 2.917-.607 2.917-.607m2.107 6.997s-1.57-2.65-2.734-2.838c-1.2-.195-3.227-.04-3.227-.04s1.664 2.136 3 2.538c1.155.348 2.961.34 2.961.34m1.591 5.873s-1.925-2.405-3.105-2.429c-1.215-.025-3.2.413-3.2.413s1.946 1.88 3.326 2.093c1.191.182 2.978-.078 2.978-.078m1.69 7.676s-1.74-2.848-3.005-3.036c-1.304-.193-3.499.005-3.499.005s1.836 2.29 3.29 2.707c1.256.36 3.214.324 3.214.324m1.391 7.453s-2.782-2.244-4.126-1.977c-1.384.276-3.526 1.269-3.526 1.269s2.678 1.646 4.295 1.54c1.396-.09 3.358-.832 3.358-.832" style="fill:#142608;fill-opacity:1;stroke:none;stroke-width:.3;stroke-linecap:square;stroke-linejoin:bevel;stroke-opacity:1" transform="matrix(-.6895 -.26121 -.26121 .6895 291.58 267.56)"/></g><g style="fill:#0e1a06;fill-opacity:1"><path d="M316.096 238.04c-.097-1.09.348-4.446.222-5.538-.928-8.034-3.021-20.667-7.544-35.393-3.505-11.148-7.157-19.578-9.688-25.349 2.437 5.555 5.872 14.59 8.87 25.59 4.161 14.88 5.87 27.253 6.803 35.332.125 1.084 1.24 4.268 1.337 5.359" style="fill:#0e1a06;fill-opacity:1;fill-rule:nonzero;stroke:none;stroke-width:.3;stroke-linecap:square;stroke-linejoin:bevel;stroke-opacity:1" transform="rotate(-10.465 1266.419 750.94)scale(.60259)"/><path d="M303.96 183.038s-.301-3.065.527-3.906c.853-.866 2.58-1.94 2.58-1.94s-.08 2.707-.92 3.822c-.726.962-2.187 2.024-2.187 2.024m1.99 4.622s.359-3.059 1.347-3.704c1.018-.665 2.934-1.345 2.934-1.345s-.655 2.626-1.714 3.537c-.913.786-2.567 1.511-2.567 1.511m-5.87-13.592s-2.339-1.523-2.5-2.643c-.166-1.154-.016-3.1-.016-3.1s1.883 1.612 2.232 2.898c.302 1.11.285 2.845.285 2.845m1.889 4.173s-.777-2.608-.2-3.477c.594-.895 1.912-2.117 1.912-2.117s.386 2.361-.156 3.47c-.467.957-1.557 2.124-1.557 2.124m6.008 15.596s.36-3.058 1.347-3.703c1.018-.665 2.934-1.345 2.934-1.345s-.655 2.626-1.713 3.536c-.914.786-2.568 1.512-2.568 1.512m1.981 7.025s.359-3.057 1.347-3.703c1.017-.665 2.933-1.345 2.933-1.345s-.655 2.626-1.713 3.537c-.913.786-2.567 1.511-2.567 1.511m2.31 7.214s.39-3.315 1.46-4.014c1.104-.72 3.18-1.459 3.18-1.459s-.71 2.848-1.857 3.835c-.99.852-2.783 1.638-2.783 1.638m1.886 7.309s.417-3.551 1.564-4.3c1.182-.772 3.407-1.562 3.407-1.562s-.76 3.05-1.99 4.106c-1.06.913-2.981 1.756-2.981 1.756m-17.175-37.522s1.571 2.222 2.611 2.305c1.071.086 2.846-.196 2.846-.196s-1.619-1.762-2.825-2.021c-1.042-.224-2.632-.088-2.632-.088m7.293 7.755s-1.615-2.622-2.783-2.79c-1.203-.174-3.227.016-3.227.016s1.701 2.106 3.044 2.486c1.16.327 2.966.288 2.966.288m1.58 4.993s-2.322-2.022-3.487-1.835c-1.2.192-3.076.976-3.076.976s2.25 1.504 3.646 1.466c1.205-.032 2.917-.607 2.917-.607m2.107 6.997s-1.57-2.65-2.734-2.838c-1.2-.195-3.227-.04-3.227-.04s1.664 2.136 3 2.538c1.155.348 2.961.34 2.961.34m1.591 5.873s-1.925-2.405-3.105-2.429c-1.215-.025-3.2.413-3.2.413s1.946 1.88 3.326 2.093c1.191.182 2.978-.078 2.978-.078m1.69 7.676s-1.74-2.848-3.005-3.036c-1.304-.193-3.499.005-3.499.005s1.836 2.29 3.29 2.707c1.256.36 3.214.324 3.214.324m1.391 7.453s-2.782-2.244-4.126-1.977c-1.384.276-3.526 1.269-3.526 1.269s2.678 1.646 4.295 1.54c1.396-.09 3.358-.832 3.358-.832" style="fill:#0e1a06;fill-opacity:1;stroke:none;stroke-width:.3;stroke-linecap:square;stroke-linejoin:bevel;stroke-opacity:1" transform="rotate(-10.465 1266.419 750.94)scale(.60259)"/></g><g transform="translate(-50.701 4.27)"><path d="M54.243 58.24h8.255v284.869h-8.255z" style="display:inline;fill:#764c28;fill-opacity:1;stroke-width:.412739"/><path d="M104.764-1.32c-3.637-.054-19.118.584-33.982 14.248-19.388 17.824-16.406 45.841-16.406 45.841 3.616-.02 7.232-.025 10.848-.04h-2.791s-1.229-19.167 11.054-33.478c10.878-12.676 20.87-14.937 31.874-15.59.04-.003.063-.006.18-.006.069.004.09 0 .222.007 11.003.652 20.996 2.914 31.874 15.589 12.282 14.311 9.87 33.518 9.87 33.518l-1.09-.019c3.153.008 6.305.011 9.457.02 0 0 2.981-28.018-16.407-45.842-4.31-3.962-15.495-13.963-34.703-14.248m41.654 60.07c-27.065-.069-54.13-.124-81.194-.02z" style="display:inline;fill:#764c28;fill-opacity:1;stroke-width:.264583"/><path d="M147.611 58.24h8.255v284.869h-8.255z" style="display:inline;fill:#764c28;fill-opacity:1;stroke-width:.412739"/><path d="M54.209 339.603h101.678v8.302H54.209z" style="display:inline;fill:#764c28;fill-opacity:1;stroke-width:.231645"/><path d="M81.42 66.243h1.31v275.902h-1.31z" style="display:inline;fill:#764c28;fill-opacity:1;stroke-width:.161803"/><path d="M101.799 58.809h8.255v284.3h-8.255z" style="display:inline;fill:#764c28;fill-opacity:1;stroke-width:.412327"/><path d="M55.309 58.723h100.578v8.302H55.309z" style="display:inline;fill:#764c28;fill-opacity:1;stroke-width:.230388"/><path d="M127.987 65.756h1.31v276.389h-1.31z" style="display:inline;fill:#764c28;fill-opacity:1;stroke-width:.161946"/><path d="M105.061 36.613c-1.936-.03-9.486.202-15.417 5.82-7.673 7.266-8.04 16.374-7.852 16.244l1.58.006c.051-1.658 1.104-8.874 7.346-14.785 5.526-5.234 12.561-5.45 14.365-5.423.182.003.236.007.305.01.069-.003.124-.007.305-.01 1.804-.027 8.839.19 14.366 5.423 6.241 5.91 7.294 13.127 7.345 14.785l1.58-.006c.188.13-.179-8.978-7.852-16.245-5.931-5.617-13.481-5.849-15.417-5.82-.194.004-.253.008-.327.01-.074-.002-.132-.006-.327-.01" style="display:inline;fill:#764c28;fill-opacity:1;stroke-width:.264583"/><path d="M105.715 8.571h1.31v28.042h-1.31z" style="display:inline;fill:#764c28;fill-opacity:1;stroke-width:.0515844"/><path d="M108.809-103.209h1.249v22.308h-1.249z" style="display:inline;fill:#764c28;fill-opacity:1;stroke-width:.0398071" transform="matrix(.53082 .84749 -.83858 .54477 0 0)"/><rect width="1.444" height="22.34" x="-7.596" y="75.349" ry="0" style="display:inline;fill:#764c28;fill-opacity:1;stroke-width:.0408779" transform="matrix(-.5293 .84844 .83759 .5463 0 0)"/><path d="M104.838 58.718h2.132v280.886h-2.132z" style="display:inline;fill:#5b3b1f;fill-opacity:1;stroke-width:.208291"/><path d="m147.61 67.014 2.816 3.336v269.268h-2.815z" style="display:inline;fill:#c9976e;stroke-width:.241044;fill-opacity:1"/><path d="m101.79 67.014 1.549 3.336v269.268h-1.548z" style="display:inline;fill:#c2824b;stroke-width:.178733"/><path d="M-197.846 59.981h1.687v87.965h-1.687zm67.589 0h1.687v87.965h-1.687zm-141.179 0h1.687v87.965h-1.687z" style="display:inline;fill:#764c28;fill-opacity:1;stroke-width:.10369" transform="rotate(-90)"/><path d="M106.078 9.588c.463.055.925.122 1.386.192 10.334.8 19.86 3.434 30.17 15.448 12.253 14.276 9.883 33.406 9.872 33.502l2.148.004c1.625-22.883-11.013-43.906-32.982-48.355-3.076-.623-10.594-.792-10.594-.792zm41.428 49.142-1.09-.002.703.012.386.001zm-1.09-.002-3.15-.006v.005zm-40.228-.067v.057l35.331.009q-17.665-.047-35.331-.066" style="display:inline;fill:#c9976e;fill-opacity:1;stroke-width:.264583"/></g></svg>