<svg xmlns="http://www.w3.org/2000/svg" xml:space="preserve" width="170" height="900" viewBox="0 0 44.979 238.125"><defs><filter id="b" width="1.115" height="1.115" x="-.057" y="-.057" style="color-interpolation-filters:sRGB"><feGaussianBlur stdDeviation=".913"/></filter><filter id="a" width="1.469" height="1.017" x="-.234" y="-.008" style="color-interpolation-filters:sRGB"><feGaussianBlur stdDeviation=".575"/></filter></defs><g style="display:inline;fill:#111;fill-opacity:1;stroke:#111;stroke-width:1.00007;stroke-dasharray:none;stroke-opacity:1;filter:url(#a)" transform="translate(4.682 80.297)scale(.77994)"><path d="M23.192-90.874s-.378.265-.755.62c-.378.353-.726.948-.584 2.293.141 1.344 1.986 3.404 3.566 4.937s2.985 3.283 2.985 3.283.142-.166.495-.779c.354-.613.707-1.525.542-2.657s-1.996-3.053-3.442-4.49c-1.493-1.482-2.807-3.207-2.807-3.207zm-.215 5.709s-.378.265-.756.619c-.377.354-.725.95-.583 2.294.141 1.344 1.985 3.404 3.566 4.937s2.985 3.282 2.985 3.282.141-.164.495-.777c.354-.614.706-1.527.541-2.659s-1.995-3.052-3.442-4.489c-1.492-1.482-2.806-3.207-2.806-3.207zm-.018 5.887s-.377.266-.754.62c-.378.353-.725.949-.584 2.293s1.985 3.404 3.565 4.938 2.986 3.282 2.986 3.282.142-.165.495-.779c.354-.613.707-1.525.542-2.657s-1.996-3.053-3.442-4.489c-1.493-1.483-2.808-3.208-2.808-3.208zm-.118 5.638s-.377.265-.754.618c-.378.354-.725.95-.584 2.294s1.985 3.405 3.565 4.938 2.987 3.282 2.987 3.282.14-.165.494-.778c.354-.614.707-1.526.542-2.658s-1.996-3.052-3.442-4.489c-1.493-1.483-2.808-3.207-2.808-3.207zm.351 6.315s-.378.266-.755.62c-.378.353-.726.95-.584 2.293.141 1.345 1.986 3.405 3.566 4.938s2.985 3.282 2.985 3.282.142-.165.495-.778c.354-.613.707-1.526.542-2.658s-1.996-3.052-3.442-4.489c-1.493-1.482-2.807-3.208-2.807-3.208zm-.215 5.71s-.378.265-.756.618c-.377.354-.725.95-.583 2.294.141 1.345 1.985 3.404 3.566 4.938s2.985 3.282 2.985 3.282.141-.165.495-.779c.354-.613.706-1.525.541-2.657s-1.995-3.052-3.442-4.489c-1.492-1.483-2.806-3.207-2.806-3.207zm-.018 5.886s-.377.266-.754.62c-.378.354-.726.95-.584 2.294s1.985 3.404 3.565 4.937 2.986 3.283 2.986 3.283.142-.166.495-.779c.354-.613.707-1.525.542-2.658-.165-1.132-1.996-3.052-3.442-4.488-1.493-1.483-2.808-3.209-2.808-3.209zm-.118 5.638s-.377.265-.754.62c-.378.353-.725.948-.584 2.293.142 1.344 1.985 3.404 3.565 4.937s2.987 3.283 2.987 3.283.14-.166.494-.779.707-1.525.542-2.657-1.996-3.053-3.442-4.49c-1.493-1.482-2.808-3.207-2.808-3.207zm.351 6.201s-.378.265-.755.619c-.378.354-.726.95-.584 2.294.141 1.344 1.986 3.404 3.566 4.937s2.985 3.283 2.985 3.283.142-.165.495-.778c.354-.613.707-1.526.542-2.658-.165-1.133-1.996-3.053-3.442-4.49-1.493-1.482-2.807-3.207-2.807-3.207zm-.215 5.709s-.378.266-.756.62c-.377.353-.725.949-.583 2.293.141 1.345 1.985 3.404 3.566 4.937s2.985 3.283 2.985 3.283.141-.165.495-.779c.354-.613.706-1.526.541-2.658s-1.995-3.051-3.442-4.488c-1.492-1.483-2.806-3.208-2.806-3.208zm.215 5.984s-.378.265-.755.619c-.378.354-.726.95-.584 2.294.141 1.344 1.986 3.404 3.566 4.937s2.985 3.283 2.985 3.283.142-.166.495-.779c.354-.613.707-1.525.542-2.657s-1.996-3.053-3.442-4.49c-1.493-1.482-2.807-3.207-2.807-3.207zm-.215 5.709s-.378.265-.756.619c-.377.353-.725.95-.583 2.293.141 1.345 1.985 3.405 3.566 4.938s2.985 3.283 2.985 3.283.141-.165.495-.779c.354-.613.706-1.526.541-2.658s-1.995-3.052-3.442-4.489c-1.492-1.482-2.806-3.207-2.806-3.207zm-.018 5.887s-.377.265-.754.62c-.378.353-.726.949-.584 2.293s1.985 3.404 3.565 4.937 2.986 3.283 2.986 3.283.142-.165.495-.779c.354-.613.707-1.525.542-2.657s-1.996-3.053-3.442-4.49c-1.493-1.482-2.808-3.207-2.808-3.207zm-.118 5.638s-.377.265-.754.618c-.378.354-.725.95-.584 2.294s1.985 3.404 3.565 4.938 2.987 3.282 2.987 3.282.14-.165.494-.778.707-1.526.542-2.658-1.996-3.052-3.442-4.489c-1.493-1.483-2.808-3.207-2.808-3.207zm.351 6.315s-.378.266-.755.62c-.378.353-.726.949-.584 2.293.141 1.345 1.986 3.405 3.566 4.938s2.985 3.282 2.985 3.282.142-.165.495-.778c.354-.614.707-1.526.542-2.658s-1.996-3.052-3.442-4.489c-1.493-1.482-2.807-3.208-2.807-3.208zm-.215 5.71s-.378.264-.756.618c-.377.354-.725.95-.583 2.294.141 1.345 1.985 3.404 3.566 4.938s2.985 3.282 2.985 3.282.141-.165.495-.778.706-1.526.541-2.658-1.995-3.053-3.442-4.49c-1.492-1.482-2.806-3.207-2.806-3.207Zm-.018 5.887s-.377.265-.754.619c-.378.354-.726.95-.584 2.294s1.985 3.404 3.565 4.937 2.986 3.282 2.986 3.282.142-.165.495-.778c.354-.613.707-1.525.542-2.658-.165-1.132-1.996-3.052-3.442-4.488-1.493-1.483-2.808-3.208-2.808-3.208Zm-.118 5.637s-.377.265-.754.619c-.378.354-.725.95-.584 2.294s1.985 3.404 3.565 4.937 2.987 3.283 2.987 3.283.14-.166.494-.779.707-1.525.542-2.657-1.996-3.053-3.442-4.49c-1.493-1.482-2.808-3.207-2.808-3.207Zm.351 6.201s-.378.265-.755.619c-.378.354-.726.95-.584 2.294.141 1.344 1.986 3.404 3.566 4.937s2.985 3.283 2.985 3.283.142-.165.495-.778c.354-.614.707-1.526.542-2.659s-1.996-3.052-3.442-4.488c-1.493-1.483-2.807-3.208-2.807-3.208zm-.215 5.709s-.378.265-.756.62c-.377.353-.725.949-.583 2.293.141 1.345 1.985 3.404 3.566 4.937s2.985 3.283 2.985 3.283.141-.165.495-.779c.354-.613.706-1.525.541-2.657s-1.995-3.053-3.442-4.49c-1.492-1.482-2.806-3.207-2.806-3.207zm-.018 5.887s-.377.265-.754.62c-.378.353-.725.949-.584 2.293s1.985 3.404 3.565 4.937 2.986 3.283 2.986 3.283.142-.165.495-.778c.354-.613.707-1.526.542-2.658s-1.996-3.053-3.442-4.49c-1.493-1.482-2.808-3.207-2.808-3.207zm-.118 5.637s-.377.266-.754.62c-.378.353-.725.949-.584 2.293s1.985 3.404 3.565 4.938 2.987 3.283 2.987 3.283.14-.166.494-.779.707-1.526.542-2.658-1.996-3.053-3.442-4.489c-1.493-1.483-2.808-3.208-2.808-3.208zm.351 6.317s-.378.265-.755.619c-.378.353-.726.949-.584 2.293.141 1.345 1.986 3.405 3.566 4.938s2.985 3.282 2.985 3.282.142-.165.495-.778c.354-.614.707-1.526.542-2.658s-1.996-3.052-3.442-4.489c-1.493-1.482-2.807-3.207-2.807-3.207zm-.215 5.708s-.378.266-.756.62c-.377.354-.725.95-.583 2.294.141 1.344 1.985 3.403 3.566 4.936 1.58 1.534 2.985 3.284 2.985 3.284s.141-.166.495-.779.706-1.526.541-2.658-1.995-3.053-3.442-4.49c-1.492-1.482-2.806-3.207-2.806-3.207zm-.018 5.888s-.377.265-.754.619c-.378.354-.726.95-.584 2.294s1.985 3.404 3.565 4.937 2.986 3.282 2.986 3.282.142-.164.495-.777c.354-.614.707-1.527.542-2.659s-1.996-3.052-3.442-4.489c-1.493-1.482-2.808-3.207-2.808-3.207zm-.118 5.637s-.377.265-.754.619c-.378.354-.725.95-.584 2.294s1.985 3.404 3.565 4.937 2.987 3.283 2.987 3.283.14-.165.494-.778c.354-.614.707-1.526.542-2.659s-1.996-3.052-3.442-4.488c-1.493-1.483-2.808-3.208-2.808-3.208Zm.351 6.298s-.378.265-.755.619c-.378.353-.726.949-.584 2.293.141 1.345 1.986 3.405 3.566 4.938S28.404 73 28.404 73s.142-.165.495-.778c.354-.614.707-1.526.542-2.658s-1.996-3.052-3.442-4.489c-1.493-1.482-2.807-3.207-2.807-3.207zm-.215 5.708s-.378.266-.756.62c-.377.353-.725.949-.583 2.293.141 1.345 1.985 3.404 3.566 4.938s2.985 3.282 2.985 3.282.141-.165.495-.778.706-1.526.541-2.658-1.995-3.053-3.442-4.49c-1.492-1.482-2.806-3.207-2.806-3.207zm-.018 5.888s-.377.265-.754.619c-.378.354-.726.95-.584 2.294s1.985 3.404 3.565 4.937 2.986 3.282 2.986 3.282.142-.165.495-.778c.354-.613.707-1.525.542-2.658-.165-1.132-1.996-3.052-3.442-4.488-1.493-1.483-2.808-3.208-2.808-3.208zm-.118 5.637s-.377.265-.754.619c-.378.354-.725.95-.584 2.294s1.985 3.404 3.565 4.937 2.987 3.283 2.987 3.283.14-.166.494-.779.707-1.525.542-2.657-1.996-3.053-3.442-4.49c-1.493-1.482-2.808-3.207-2.808-3.207zm.351 6.316s-.378.265-.755.62c-.378.353-.726.949-.584 2.293.141 1.344 1.986 3.404 3.566 4.937s2.985 3.283 2.985 3.283.142-.165.495-.779c.354-.613.707-1.525.542-2.657s-1.996-3.053-3.442-4.49c-1.493-1.482-2.807-3.207-2.807-3.207zm-.215 5.71s-.378.264-.756.618c-.377.354-.725.95-.583 2.294.141 1.344 1.985 3.404 3.566 4.937s2.985 3.283 2.985 3.283.141-.166.495-.779.706-1.525.541-2.658c-.165-1.132-1.995-3.052-3.442-4.488-1.492-1.483-2.806-3.208-2.806-3.208zm-.018 5.886s-.377.266-.754.62c-.378.353-.726.949-.584 2.293s1.985 3.405 3.565 4.938 2.986 3.282 2.986 3.282.142-.165.495-.778c.354-.614.707-1.526.542-2.658s-1.996-3.052-3.442-4.489c-1.493-1.482-2.808-3.208-2.808-3.208zm-.118 5.637s-.377.266-.754.62c-.378.353-.725.949-.584 2.293s1.985 3.405 3.565 4.938 2.987 3.282 2.987 3.282.14-.165.494-.778c.354-.614.707-1.526.542-2.658s-1.996-3.052-3.442-4.489c-1.493-1.482-2.808-3.208-2.808-3.208zm.351 6.202s-.378.265-.755.619c-.378.353-.726.949-.584 2.293.141 1.345 1.986 3.405 3.566 4.938s2.985 3.282 2.985 3.282.142-.164.495-.778c.354-.613.707-1.526.542-2.658s-1.996-3.052-3.442-4.489c-1.493-1.482-2.807-3.207-2.807-3.207zm-.215 5.708s-.378.266-.756.62c-.377.354-.725.95-.583 2.294.141 1.344 1.985 3.403 3.566 4.936 1.58 1.534 2.985 3.284 2.985 3.284s.141-.166.495-.779.706-1.526.541-2.658-1.995-3.052-3.442-4.488c-1.492-1.483-2.806-3.209-2.806-3.209zm-.018 5.888s-.377.265-.754.619c-.378.354-.725.95-.584 2.294s1.985 3.404 3.565 4.937 2.986 3.282 2.986 3.282.142-.164.495-.777c.354-.614.707-1.527.542-2.659s-1.996-3.052-3.442-4.489c-1.493-1.482-2.808-3.207-2.808-3.207zm-.118 5.637s-.377.265-.754.619c-.378.354-.725.95-.584 2.294s1.985 3.404 3.565 4.937 2.987 3.283 2.987 3.283.14-.165.494-.778c.354-.614.707-1.526.542-2.659s-1.996-3.052-3.442-4.488c-1.493-1.483-2.808-3.208-2.808-3.208zm.351 6.316s-.378.265-.755.62c-.378.353-.726.949-.584 2.293.141 1.344 1.986 3.404 3.566 4.937s2.985 3.283 2.985 3.283.142-.165.495-.779c.354-.613.707-1.525.542-2.657s-1.996-3.053-3.442-4.49c-1.493-1.482-2.807-3.207-2.807-3.207zm-.215 5.709s-.378.265-.756.619c-.377.354-.725.95-.583 2.294.141 1.344 1.985 3.404 3.566 4.937s2.985 3.282 2.985 3.282.141-.164.495-.777c.354-.614.706-1.526.541-2.659s-1.995-3.052-3.442-4.488c-1.492-1.483-2.806-3.208-2.806-3.208zm-.018 5.888s-.377.265-.754.618c-.378.354-.726.95-.584 2.294s1.985 3.405 3.565 4.938 2.986 3.282 2.986 3.282.142-.165.495-.778c.354-.614.707-1.526.542-2.658s-1.996-3.052-3.442-4.489c-1.493-1.483-2.808-3.207-2.808-3.207zm-.118 5.637s-.377.265-.754.619c-.378.353-.725.949-.584 2.293s1.985 3.405 3.565 4.938 2.987 3.282 2.987 3.282.14-.165.494-.778c.354-.614.707-1.526.542-2.658s-1.996-3.052-3.442-4.489c-1.493-1.482-2.808-3.207-2.808-3.207z" style="display:inline;fill:#131313;fill-opacity:.94901961;stroke:#111;stroke-width:1.00007;stroke-dasharray:none;stroke-opacity:1"/></g><g style="display:inline"><path d="M28.172 155.13s-1.405-1.75-2.985-3.282c-1.58-1.534-3.424-3.593-3.566-4.938s.207-1.94.584-2.294c.377-.353.755-.619.755-.619s1.314 1.725 2.806 3.208c1.447 1.437 3.278 3.357 3.443 4.489s-.188 2.045-.541 2.658-.496.778-.496.778zm.017-5.887s-1.405-1.75-2.986-3.283c-1.58-1.533-3.424-3.593-3.565-4.937s.206-1.94.584-2.294c.377-.354.754-.619.754-.619s1.314 1.725 2.807 3.208c1.446 1.436 3.277 3.356 3.443 4.489.165 1.132-.188 2.044-.542 2.657-.353.614-.495.779-.495.779zm.215-5.709s-1.405-1.75-2.985-3.283-3.424-3.593-3.566-4.937.207-1.94.584-2.294.755-.619.755-.619 1.314 1.725 2.807 3.208c1.446 1.436 3.277 3.356 3.442 4.489.165 1.132-.188 2.044-.541 2.658s-.496.778-.496.778zm-.35 17.233s-1.405-1.75-2.985-3.282-3.424-3.593-3.566-4.938.207-1.94.584-2.293.755-.62.755-.62 1.314 1.726 2.807 3.208c1.446 1.437 3.277 3.357 3.442 4.49.165 1.131-.188 2.044-.541 2.657s-.496.778-.496.778zm.118-29.187s-1.405-1.749-2.985-3.282-3.424-3.593-3.566-4.937.207-1.94.584-2.294.755-.62.755-.62 1.314 1.726 2.806 3.209c1.447 1.436 3.278 3.356 3.443 4.488s-.188 2.045-.541 2.658c-.354.614-.496.779-.496.779zm.017-5.887s-1.405-1.75-2.986-3.282c-1.58-1.533-3.424-3.593-3.565-4.938s.206-1.94.584-2.293c.377-.354.754-.62.754-.62s1.314 1.726 2.807 3.208c1.446 1.437 3.277 3.357 3.443 4.49.165 1.131-.188 2.044-.542 2.657-.353.613-.495.778-.495.778zm.215-5.709s-1.405-1.75-2.985-3.282-3.424-3.593-3.566-4.937.207-1.94.584-2.294.755-.62.755-.62 1.314 1.726 2.807 3.208c1.446 1.437 3.277 3.357 3.442 4.49.165 1.131-.188 2.044-.541 2.657s-.496.778-.496.778zm-.35 17.234s-1.405-1.75-2.985-3.283-3.424-3.593-3.566-4.937.207-1.94.584-2.294.755-.619.755-.619 1.314 1.725 2.807 3.208c1.446 1.436 3.277 3.356 3.442 4.489.165 1.132-.188 2.044-.541 2.657-.354.614-.496.779-.496.779zm.118-29.072s-1.405-1.75-2.985-3.283-3.424-3.592-3.566-4.937c-.141-1.344.207-1.94.584-2.294.377-.353.755-.619.755-.619s1.314 1.725 2.806 3.208c1.447 1.437 3.278 3.357 3.443 4.489s-.188 2.044-.541 2.658-.496.778-.496.778zm.017-5.887s-1.405-1.75-2.986-3.283c-1.58-1.533-3.424-3.593-3.565-4.937s.206-1.94.584-2.294c.377-.354.754-.62.754-.62s1.314 1.726 2.807 3.209c1.446 1.436 3.277 3.356 3.443 4.488s-.188 2.045-.542 2.658c-.353.614-.495.779-.495.779zm.215-5.709S27 94.8 25.42 93.267s-3.424-3.593-3.566-4.937.207-1.94.584-2.294.755-.619.755-.619 1.314 1.725 2.807 3.208c1.446 1.436 3.277 3.356 3.442 4.489.165 1.132-.188 2.044-.541 2.657-.354.614-.496.779-.496.779zm-.35 17.233s-1.405-1.75-2.985-3.282c-1.58-1.534-3.424-3.593-3.566-4.938s.207-1.94.584-2.293.755-.62.755-.62 1.314 1.726 2.807 3.208c1.446 1.437 3.277 3.357 3.442 4.489s-.188 2.045-.541 2.658-.496.778-.496.778zm.118-29.186s-1.405-1.75-2.985-3.283-3.424-3.593-3.566-4.937.207-1.94.584-2.294.755-.62.755-.62 1.314 1.726 2.806 3.208c1.447 1.437 3.278 3.357 3.443 4.49.165 1.131-.188 2.044-.541 2.657s-.496.779-.496.779zm.017-5.887s-1.405-1.75-2.986-3.283c-1.58-1.534-3.424-3.593-3.565-4.938s.206-1.94.584-2.293c.377-.354.754-.62.754-.62s1.314 1.725 2.807 3.208c1.446 1.437 3.277 3.357 3.443 4.489s-.188 2.045-.542 2.658c-.353.613-.495.778-.495.778zm.215-5.71S27 71.25 25.42 69.718s-3.424-3.593-3.566-4.938.207-1.94.584-2.293.755-.62.755-.62 1.314 1.726 2.807 3.208c1.446 1.437 3.277 3.357 3.442 4.489s-.188 2.045-.541 2.658-.496.778-.496.778zm-.35 17.234s-1.405-1.75-2.985-3.283-3.424-3.593-3.566-4.937.207-1.94.584-2.294.755-.62.755-.62 1.314 1.726 2.807 3.209c1.446 1.436 3.277 3.356 3.442 4.488s-.188 2.045-.541 2.658c-.354.614-.496.779-.496.779zm.118-29.168s-1.405-1.75-2.985-3.283-3.424-3.593-3.566-4.937.207-1.94.584-2.294.755-.62.755-.62 1.314 1.726 2.806 3.209c1.447 1.436 3.278 3.356 3.443 4.488s-.188 2.045-.541 2.658c-.354.614-.496.779-.496.779zm.017-5.888s-1.405-1.75-2.986-3.282c-1.58-1.533-3.424-3.593-3.565-4.938s.206-1.94.584-2.293c.377-.354.754-.62.754-.62s1.314 1.726 2.807 3.208c1.446 1.437 3.277 3.357 3.443 4.489s-.188 2.045-.542 2.658c-.353.613-.495.778-.495.778zm.215-5.708S27 47.72 25.42 46.186s-3.424-3.593-3.566-4.938.207-1.94.584-2.293.755-.62.755-.62 1.314 1.726 2.807 3.208c1.446 1.437 3.277 3.357 3.442 4.49.165 1.131-.188 2.044-.541 2.657s-.496.778-.496.778zm-.35 17.233s-1.405-1.75-2.985-3.283-3.424-3.593-3.566-4.937.207-1.94.584-2.294.755-.619.755-.619 1.314 1.725 2.807 3.208c1.446 1.436 3.277 3.356 3.442 4.489.165 1.132-.188 2.044-.541 2.657-.354.614-.496.779-.496.779zm.118-29.187s-1.405-1.75-2.985-3.282c-1.58-1.534-3.424-3.593-3.566-4.938s.207-1.94.584-2.294c.377-.353.755-.619.755-.619s1.314 1.725 2.806 3.208c1.447 1.437 3.278 3.357 3.443 4.489s-.188 2.045-.541 2.658-.496.778-.496.778zm.017-5.887s-1.405-1.75-2.986-3.283c-1.58-1.533-3.424-3.593-3.565-4.937s.206-1.94.584-2.294c.377-.354.754-.619.754-.619s1.314 1.725 2.807 3.208c1.446 1.436 3.277 3.356 3.443 4.489.165 1.132-.188 2.044-.542 2.657-.353.614-.495.779-.495.779zm.215-5.709S27 24.17 25.42 22.637s-3.424-3.593-3.566-4.937.207-1.94.584-2.294.755-.619.755-.619 1.314 1.725 2.807 3.208c1.446 1.436 3.277 3.356 3.442 4.489.165 1.132-.188 2.044-.541 2.657-.354.614-.496.779-.496.779zm-.35 17.233s-1.405-1.75-2.985-3.282-3.424-3.593-3.566-4.938.207-1.94.584-2.293.755-.62.755-.62 1.314 1.726 2.807 3.208c1.446 1.437 3.277 3.357 3.442 4.49.165 1.131-.188 2.044-.541 2.657s-.496.778-.496.778zm.118-29.072s-1.405-1.749-2.985-3.282-3.424-3.593-3.566-4.937.207-1.94.584-2.294.755-.62.755-.62 1.314 1.726 2.806 3.208c1.447 1.437 3.278 3.357 3.443 4.49.165 1.131-.188 2.044-.541 2.657s-.496.778-.496.778zm.017-5.887s-1.405-1.75-2.986-3.282c-1.58-1.534-3.424-3.593-3.565-4.938s.206-1.94.584-2.294c.377-.353.754-.619.754-.619S24.29-1.214 25.783.27c1.446 1.437 3.277 3.357 3.443 4.489s-.188 2.045-.542 2.658c-.353.613-.495.778-.495.778zm.215-5.709S27 .735 25.42-.797s-3.424-3.593-3.566-4.938.207-1.94.584-2.293.755-.62.755-.62S24.507-6.922 26-5.44c1.446 1.437 3.277 3.357 3.442 4.489s-.188 2.045-.541 2.658-.496.778-.496.778zm-.35 17.234s-1.405-1.75-2.985-3.283-3.424-3.593-3.566-4.937.207-1.94.584-2.294.755-.62.755-.62 1.314 1.726 2.807 3.209c1.446 1.436 3.277 3.356 3.442 4.488s-.188 2.045-.541 2.658c-.354.614-.496.779-.496.779zm.118-29.187s-1.405-1.75-2.985-3.283-3.424-3.592-3.566-4.937c-.141-1.344.207-1.94.584-2.294.377-.353.755-.619.755-.619s1.314 1.725 2.806 3.208c1.447 1.436 3.278 3.357 3.443 4.489s-.188 2.044-.541 2.658-.496.778-.496.778zm.017-5.887s-1.405-1.75-2.986-3.283c-1.58-1.533-3.424-3.593-3.565-4.937s.206-1.94.584-2.294c.377-.354.754-.62.754-.62s1.314 1.726 2.807 3.209c1.446 1.436 3.277 3.356 3.443 4.488s-.188 2.045-.542 2.658c-.353.614-.495.779-.495.779zm.215-5.709S27-22.814 25.42-24.347s-3.424-3.593-3.566-4.937.207-1.94.584-2.294.755-.619.755-.619 1.314 1.725 2.807 3.208c1.446 1.436 3.277 3.356 3.442 4.489.165 1.132-.188 2.044-.541 2.657-.354.614-.496.779-.496.779zm-.35 17.234S26.65-5.58 25.07-7.114s-3.424-3.593-3.566-4.938.207-1.94.584-2.293.755-.62.755-.62 1.314 1.726 2.807 3.208c1.446 1.437 3.277 3.357 3.442 4.489s-.188 2.045-.541 2.658-.496.778-.496.778zm.135-23.218s-1.405-1.75-2.986-3.283c-1.58-1.533-3.424-3.593-3.565-4.937s.206-1.94.584-2.294c.377-.354.754-.62.754-.62s1.314 1.726 2.807 3.209c1.446 1.436 3.277 3.356 3.443 4.489.165 1.132-.188 2.044-.542 2.657-.353.614-.495.779-.495.779zm.215-5.709S27-34.507 25.42-36.04s-3.424-3.593-3.566-4.937.207-1.94.584-2.294.755-.619.755-.619 1.314 1.725 2.807 3.208c1.446 1.436 3.277 3.356 3.442 4.489.165 1.132-.188 2.044-.541 2.657-.354.614-.496.779-.496.779zm-.232-11.839s-1.405-1.749-2.985-3.282-3.424-3.593-3.566-4.937.207-1.94.584-2.294.755-.62.755-.62 1.314 1.726 2.806 3.208c1.447 1.437 3.278 3.357 3.443 4.49.165 1.131-.188 2.044-.541 2.657s-.496.778-.496.778zm.017-5.887s-1.405-1.75-2.986-3.282c-1.58-1.534-3.424-3.593-3.565-4.938s.206-1.94.584-2.294c.377-.353.754-.619.754-.619s1.314 1.725 2.807 3.208c1.446 1.437 3.277 3.357 3.443 4.489s-.188 2.045-.542 2.658c-.353.613-.495.778-.495.778zm.215-5.709S27-57.942 25.42-59.474s-3.424-3.593-3.566-4.938.207-1.94.584-2.293.755-.62.755-.62 1.314 1.726 2.807 3.208c1.446 1.437 3.277 3.357 3.442 4.489s-.188 2.045-.541 2.658-.496.778-.496.778zm-.35 17.234s-1.405-1.75-2.985-3.283-3.424-3.593-3.566-4.937.207-1.94.584-2.294.755-.62.755-.62 1.314 1.726 2.807 3.209c1.446 1.436 3.277 3.356 3.442 4.488s-.188 2.045-.541 2.658c-.354.614-.496.779-.496.779zm.118-29.187s-1.405-1.75-2.985-3.283-3.424-3.592-3.566-4.937c-.141-1.344.207-1.94.584-2.294.377-.353.755-.619.755-.619s1.314 1.725 2.806 3.208c1.447 1.436 3.278 3.357 3.443 4.489s-.188 2.044-.541 2.658-.496.778-.496.778zm.017-5.887s-1.405-1.75-2.986-3.283c-1.58-1.533-3.424-3.593-3.565-4.937s.206-1.94.584-2.294c.377-.354.754-.62.754-.62s1.314 1.726 2.807 3.209c1.446 1.436 3.277 3.356 3.443 4.488s-.188 2.045-.542 2.658c-.353.614-.495.779-.495.779zm.215-5.709S27-81.491 25.42-83.024s-3.424-3.593-3.566-4.937.207-1.94.584-2.294.755-.62.755-.62 1.314 1.726 2.807 3.209c1.446 1.436 3.277 3.356 3.442 4.488s-.188 2.045-.541 2.658c-.354.614-.496.779-.496.779zm-.35 17.233s-1.405-1.75-2.985-3.282c-1.58-1.534-3.424-3.593-3.566-4.938s.207-1.94.584-2.294c.377-.353.755-.619.755-.619s1.314 1.725 2.807 3.208c1.446 1.437 3.277 3.357 3.442 4.489s-.188 2.045-.541 2.658-.496.778-.496.778z" style="display:inline;fill:#59300a;fill-opacity:1;stroke:#a3a3a3;stroke-width:.565;stroke-dasharray:none;stroke-opacity:1" transform="translate(2.704 75.378)scale(.77994)"/></g><g style="display:inline;mix-blend-mode:normal;fill:#131313;fill-opacity:1;stroke:none;stroke-opacity:1;filter:url(#b)" transform="translate(1.255 45.507)"><circle cx="24.606" cy="171.737" r="19.058" style="fill:#131313;fill-opacity:1;stroke:none;stroke-width:.8;stroke-dasharray:none;stroke-opacity:1"/></g><g style="display:inline" transform="translate(-2.268 42.963)"><circle cx="24.606" cy="171.737" r="19.058" style="fill:#5f5f5f;fill-opacity:1;stroke:#47280b;stroke-width:.8;stroke-dasharray:none;stroke-opacity:1"/><path d="M28.867 157.37a13.888 14.988 32.913 0 1 .16 16.976 13.888 14.988 32.913 0 1-16.158 6.658 14.99 14.99 0 0 0 11.737 5.721 14.99 14.99 0 0 0 14.988-14.988 14.99 14.99 0 0 0-10.727-14.368" style="fill:#fcff43;fill-opacity:1;stroke-width:.139183"/><path d="m17.545 21.415-1.324-.68-1.31.704.237-1.47-1.075-1.029 1.471-.227.646-1.341.672 1.329 1.475.2-1.057 1.049z" style="fill:#f5ed4d;fill-opacity:1;stroke-width:.264583" transform="translate(1.397 146.263)"/><path d="m17.545 21.415-1.324-.68-1.31.704.237-1.47-1.075-1.029 1.471-.227.646-1.341.672 1.329 1.475.2-1.057 1.049z" style="fill:#fef87b;fill-opacity:1;stroke-width:.264583" transform="matrix(.56953 .41614 -.41614 .56953 16.537 147.96)"/><path d="m17.545 21.415-1.324-.68-1.31.704.237-1.47-1.075-1.029 1.471-.227.646-1.341.672 1.329 1.475.2-1.057 1.049z" style="fill:#f5ed4d;fill-opacity:1;stroke-width:.264583" transform="translate(11.12 145.74)scale(.64595)"/><path d="m17.545 21.415-1.324-.68-1.31.704.237-1.47-1.075-1.029 1.471-.227.646-1.341.672 1.329 1.475.2-1.057 1.049z" style="fill:#fef87b;fill-opacity:1;stroke-width:.264583" transform="rotate(36.154 -214.48 105.435)scale(.45563)"/><path d="m17.545 21.415-1.324-.68-1.31.704.237-1.47-1.075-1.029 1.471-.227.646-1.341.672 1.329 1.475.2-1.057 1.049z" style="fill:#f5ed4d;fill-opacity:1;stroke-width:.264583" transform="translate(5.498 165.952)scale(.46892)"/><path d="m17.545 21.415-1.324-.68-1.31.704.237-1.47-1.075-1.029 1.471-.227.646-1.341.672 1.329 1.475.2-1.057 1.049z" style="fill:#fef87b;fill-opacity:1;stroke-width:.264583" transform="rotate(36.155 -249.125 102.673)scale(.33076)"/><path d="m17.545 21.415-1.324-.68-1.31.704.237-1.47-1.075-1.029 1.471-.227.646-1.341.672 1.329 1.475.2-1.057 1.049z" style="fill:#f5ed4d;fill-opacity:1;stroke-width:.264583" transform="translate(20.103 161.015)scale(.33615)"/><path d="m17.545 21.415-1.324-.68-1.31.704.237-1.47-1.075-1.029 1.471-.227.646-1.341.672 1.329 1.475.2-1.057 1.049z" style="fill:#fef87b;fill-opacity:1;stroke-width:.264583" transform="rotate(36.155 -234.913 119.38)scale(.2371)"/><path d="m17.545 21.415-1.324-.68-1.31.704.237-1.47-1.075-1.029 1.471-.227.646-1.341.672 1.329 1.475.2-1.057 1.049z" style="fill:#f5ed4d;fill-opacity:1;stroke-width:.264583" transform="translate(5.81 162.241)scale(.33615)"/><path d="m17.545 21.415-1.324-.68-1.31.704.237-1.47-1.075-1.029 1.471-.227.646-1.341.672 1.329 1.475.2-1.057 1.049z" style="fill:#fef87b;fill-opacity:1;stroke-width:.264583" transform="rotate(36.154 -243.943 98.098)scale(.23711)"/></g></svg>