<svg xmlns="http://www.w3.org/2000/svg" xmlns:xlink="http://www.w3.org/1999/xlink" xml:space="preserve" width="1200" height="793.701" viewBox="0 0 317.5 210"><defs><filter id="e" width="1.443" height="1.443" x="-.221" y="-.221" style="color-interpolation-filters:sRGB"><feGaussianBlur stdDeviation="5.468"/></filter><filter id="c" width="1.498" height="1.498" x="-.249" y="-.249" style="color-interpolation-filters:sRGB"><feGaussianBlur stdDeviation="6.146"/></filter><filter id="d" width="1.098" height="1.098" x="-.049" y="-.049" style="color-interpolation-filters:sRGB"><feGaussianBlur stdDeviation="1.024"/></filter><filter id="j" width="1.356" height="1.373" x="-.178" y="-.187" style="color-interpolation-filters:sRGB"><feGaussianBlur stdDeviation="3.002"/></filter><linearGradient id="a"><stop offset="0" style="stop-color:#03090d;stop-opacity:1"/><stop offset=".76" style="stop-color:#0a272b;stop-opacity:1"/><stop offset=".998" style="stop-color:#213a4b;stop-opacity:1"/></linearGradient><linearGradient xlink:href="#a" id="b" x1="159.015" x2="159.015" y1="16.217" y2="184.492" gradientTransform="translate(.53 .374)" gradientUnits="userSpaceOnUse"/></defs><g style="display:inline"><path d="M34.396 185.318V59.641s4.498-25.929 29.633-35.719c25.136-9.79 40.746-5.82 46.302-3.704 5.557 2.117 17.992 10.848 17.992 10.848s13.758-16.14 31.75-14.552 30.427 12.7 30.427 12.7 41.466-24.304 68.792-4.233c29.898 21.96 26.193 45.773 26.193 45.773V187.17Z" style="display:inline;fill:url(#b);stroke-width:.264583"/></g><g style="display:inline"><path d="m77.314 59.334-.99-1.129-1.49.176.766-1.29-.628-1.364 1.465.331 1.102-1.018.138 1.494 1.31.734-1.38.593z" style="display:inline;opacity:1;mix-blend-mode:normal;fill:#dfffec;fill-opacity:1;stroke-width:.264583;filter:url(#f)" transform="matrix(.70683 0 0 .85621 189.87 -11.828)"/><path d="m77.314 59.334-.99-1.129-1.49.176.766-1.29-.628-1.364 1.465.331 1.102-1.018.138 1.494 1.31.734-1.38.593z" style="display:inline;opacity:1;fill:#dfffec;fill-opacity:1;stroke-width:.264583;filter:url(#f)" transform="translate(111.01 -10.337)scale(.67018)"/><path d="m77.314 59.334-.99-1.129-1.49.176.766-1.29-.628-1.364 1.465.331 1.102-1.018.138 1.494 1.31.734-1.38.593z" style="display:inline;opacity:1;fill:#dfffec;fill-opacity:1;stroke-width:.264583;filter:url(#f)" transform="translate(186.107 50.187)scale(.67648)"/><path d="m77.314 59.334-.99-1.129-1.49.176.766-1.29-.628-1.364 1.465.331 1.102-1.018.138 1.494 1.31.734-1.38.593z" style="display:inline;opacity:1;fill:#dfffec;fill-opacity:1;stroke-width:.264583;filter:url(#f)" transform="translate(-11.512 51.25)scale(.70683)"/><path d="m77.314 59.334-.99-1.129-1.49.176.766-1.29-.628-1.364 1.465.331 1.102-1.018.138 1.494 1.31.734-1.38.593z" style="display:inline;opacity:1;fill:#dfffec;fill-opacity:1;stroke-width:.264583;filter:url(#f)" transform="translate(109.369 67.886)scale(.377)"/><path d="m77.314 59.334-.99-1.129-1.49.176.766-1.29-.628-1.364 1.465.331 1.102-1.018.138 1.494 1.31.734-1.38.593z" style="display:inline;opacity:1;fill:#dfffec;fill-opacity:1;stroke-width:.264583;filter:url(#f)" transform="translate(122.598 35.607)scale(.377)"/><path d="m77.314 59.334-.99-1.129-1.49.176.766-1.29-.628-1.364 1.465.331 1.102-1.018.138 1.494 1.31.734-1.38.593z" style="display:inline;opacity:1;fill:#dfffec;fill-opacity:1;stroke-width:.264583;filter:url(#f)" transform="translate(159.375 34.549)scale(.377)"/><path d="m77.314 59.334-.99-1.129-1.49.176.766-1.29-.628-1.364 1.465.331 1.102-1.018.138 1.494 1.31.734-1.38.593z" style="display:inline;opacity:1;fill:#dfffec;fill-opacity:1;stroke-width:.264583;filter:url(#f)" transform="translate(195.312 32.198)scale(.23958)"/><path d="m77.314 59.334-.99-1.129-1.49.176.766-1.29-.628-1.364 1.465.331 1.102-1.018.138 1.494 1.31.734-1.38.593z" style="display:inline;opacity:1;fill:#dfffec;fill-opacity:1;stroke-width:.264583;filter:url(#f)" transform="translate(194.887 11.5)scale(.23958)"/><path d="m77.314 59.334-.99-1.129-1.49.176.766-1.29-.628-1.364 1.465.331 1.102-1.018.138 1.494 1.31.734-1.38.593z" style="display:inline;opacity:1;fill:#dfffec;fill-opacity:1;stroke-width:.264583;filter:url(#f)" transform="translate(187.778 13.839)scale(.23958)"/><path d="m77.314 59.334-.99-1.129-1.49.176.766-1.29-.628-1.364 1.465.331 1.102-1.018.138 1.494 1.31.734-1.38.593z" style="display:inline;opacity:1;fill:#dfffec;fill-opacity:1;stroke-width:.264583;filter:url(#f)" transform="translate(204.622 22.633)scale(.14888)"/><path d="m77.314 59.334-.99-1.129-1.49.176.766-1.29-.628-1.364 1.465.331 1.102-1.018.138 1.494 1.31.734-1.38.593z" style="display:inline;opacity:1;fill:#dfffec;fill-opacity:1;stroke-width:.264583;filter:url(#f)" transform="translate(233.334 28.245)scale(.23958)"/><path d="m77.314 59.334-.99-1.129-1.49.176.766-1.29-.628-1.364 1.465.331 1.102-1.018.138 1.494 1.31.734-1.38.593z" style="display:inline;opacity:1;fill:#dfffec;fill-opacity:1;stroke-width:.264583;filter:url(#f)" transform="translate(259.158 48.077)scale(.14888)"/><path d="m77.314 59.334-.99-1.129-1.49.176.766-1.29-.628-1.364 1.465.331 1.102-1.018.138 1.494 1.31.734-1.38.593z" style="display:inline;opacity:1;fill:#dfffec;fill-opacity:1;stroke-width:.264583;filter:url(#f)" transform="translate(204.03 7.427)scale(.41538)"/><path d="m77.314 59.334-.99-1.129-1.49.176.766-1.29-.628-1.364 1.465.331 1.102-1.018.138 1.494 1.31.734-1.38.593z" style="display:inline;opacity:1;fill:#dfffec;fill-opacity:1;stroke-width:.264583;filter:url(#f)" transform="translate(203.339 32.829)scale(.4299)"/><path d="m77.314 59.334-.99-1.129-1.49.176.766-1.29-.628-1.364 1.465.331 1.102-1.018.138 1.494 1.31.734-1.38.593z" style="display:inline;opacity:1;fill:#dfffec;fill-opacity:1;stroke-width:.264583;filter:url(#f)" transform="translate(190.617 25.065)scale(.4299)"/><path d="m77.314 59.334-.99-1.129-1.49.176.766-1.29-.628-1.364 1.465.331 1.102-1.018.138 1.494 1.31.734-1.38.593z" style="display:inline;opacity:1;fill:#dfffec;fill-opacity:1;stroke-width:.264583;filter:url(#f)" transform="translate(190.198 47.357)scale(.30034)"/><path d="m77.314 59.334-.99-1.129-1.49.176.766-1.29-.628-1.364 1.465.331 1.102-1.018.138 1.494 1.31.734-1.38.593z" style="display:inline;opacity:1;fill:#dfffec;fill-opacity:1;stroke-width:.264583;filter:url(#f)" transform="translate(184.683 61.893)scale(.34397)"/><path d="m77.314 59.334-.99-1.129-1.49.176.766-1.29-.628-1.364 1.465.331 1.102-1.018.138 1.494 1.31.734-1.38.593z" style="display:inline;opacity:1;fill:#dfffec;fill-opacity:1;stroke-width:.264583;filter:url(#f)" transform="translate(160.077 72.212)scale(.34397)"/><path d="m77.314 59.334-.99-1.129-1.49.176.766-1.29-.628-1.364 1.465.331 1.102-1.018.138 1.494 1.31.734-1.38.593z" style="display:inline;opacity:1;fill:#dfffec;fill-opacity:1;stroke-width:.264583;filter:url(#f)" transform="translate(240.775 61.364)scale(.34397)"/><path d="m77.314 59.334-.99-1.129-1.49.176.766-1.29-.628-1.364 1.465.331 1.102-1.018.138 1.494 1.31.734-1.38.593z" style="display:inline;opacity:1;fill:#dfffec;fill-opacity:1;stroke-width:.264583;filter:url(#f)" transform="translate(211.141 107.401)scale(.34397)"/><path d="m77.314 59.334-.99-1.129-1.49.176.766-1.29-.628-1.364 1.465.331 1.102-1.018.138 1.494 1.31.734-1.38.593z" style="display:inline;opacity:1;fill:#dfffec;fill-opacity:1;stroke-width:.264583;filter:url(#f)" transform="translate(98.693 91.262)scale(.34397)"/><path d="m77.314 59.334-.99-1.129-1.49.176.766-1.29-.628-1.364 1.465.331 1.102-1.018.138 1.494 1.31.734-1.38.593z" style="display:inline;opacity:1;fill:#dfffec;fill-opacity:1;stroke-width:.264583;filter:url(#f)" transform="translate(24.345 89.41)scale(.34397)"/><path d="m77.314 59.334-.99-1.129-1.49.176.766-1.29-.628-1.364 1.465.331 1.102-1.018.138 1.494 1.31.734-1.38.593z" style="display:inline;opacity:1;fill:#dfffec;fill-opacity:1;stroke-width:.264583;filter:url(#f)" transform="translate(141.228 16.12)scale(.377)"/><path d="m77.314 59.334-.99-1.129-1.49.176.766-1.29-.628-1.364 1.465.331 1.102-1.018.138 1.494 1.31.734-1.38.593z" style="display:inline;opacity:1;fill:#dfffec;fill-opacity:1;stroke-width:.264583;filter:url(#f)" transform="translate(121.106 33.069)scale(.13083)"/><path d="m77.314 59.334-.99-1.129-1.49.176.766-1.29-.628-1.364 1.465.331 1.102-1.018.138 1.494 1.31.734-1.38.593z" style="display:inline;opacity:1;fill:#dfffec;fill-opacity:1;stroke-width:.264583;filter:url(#f)" transform="translate(125.639 18.697)scale(.2245)"/><path d="m77.314 59.334-.99-1.129-1.49.176.766-1.29-.628-1.364 1.465.331 1.102-1.018.138 1.494 1.31.734-1.38.593z" style="display:inline;opacity:1;fill:#dfffec;fill-opacity:1;stroke-width:.264583;filter:url(#f)" transform="translate(152.736 48.833)scale(.12282)"/><path d="m77.314 59.334-.99-1.129-1.49.176.766-1.29-.628-1.364 1.465.331 1.102-1.018.138 1.494 1.31.734-1.38.593z" style="display:inline;opacity:1;fill:#dfffec;fill-opacity:1;stroke-width:.264583;filter:url(#f)" transform="translate(134.08 46.89)scale(.30075)"/><path d="m77.314 59.334-.99-1.129-1.49.176.766-1.29-.628-1.364 1.465.331 1.102-1.018.138 1.494 1.31.734-1.38.593z" style="display:inline;opacity:1;fill:#dfffec;fill-opacity:1;stroke-width:.264583;filter:url(#f)" transform="translate(40.75 8.844)scale(.34397)"/><path d="m77.314 59.334-.99-1.129-1.49.176.766-1.29-.628-1.364 1.465.331 1.102-1.018.138 1.494 1.31.734-1.38.593z" style="display:inline;opacity:1;fill:#dfffec;fill-opacity:1;stroke-width:.264583;filter:url(#f)" transform="translate(77.933 19.694)scale(.2157)"/><path d="m77.314 59.334-.99-1.129-1.49.176.766-1.29-.628-1.364 1.465.331 1.102-1.018.138 1.494 1.31.734-1.38.593z" style="display:inline;opacity:1;fill:#dfffec;fill-opacity:1;stroke-width:.264583;filter:url(#f)" transform="translate(77.446 5.727)scale(.41365)"/><path d="m77.314 59.334-.99-1.129-1.49.176.766-1.29-.628-1.364 1.465.331 1.102-1.018.138 1.494 1.31.734-1.38.593z" style="display:inline;opacity:1;fill:#dfffec;fill-opacity:1;stroke-width:.264583;filter:url(#f)" transform="translate(144.527 64.864)scale(.28539)"/><path d="m77.314 59.334-.99-1.129-1.49.176.766-1.29-.628-1.364 1.465.331 1.102-1.018.138 1.494 1.31.734-1.38.593z" style="display:inline;opacity:1;fill:#dfffec;fill-opacity:1;stroke-width:.264583;filter:url(#f)" transform="translate(194.84 85.703)scale(.24512)"/><path d="m77.314 59.334-.99-1.129-1.49.176.766-1.29-.628-1.364 1.465.331 1.102-1.018.138 1.494 1.31.734-1.38.593z" style="display:inline;opacity:1;fill:#dfffec;fill-opacity:1;stroke-width:.264583;filter:url(#f)" transform="translate(169.836 107.399)scale(.24512)"/><path d="m77.314 59.334-.99-1.129-1.49.176.766-1.29-.628-1.364 1.465.331 1.102-1.018.138 1.494 1.31.734-1.38.593z" style="display:inline;opacity:1;fill:#dfffec;fill-opacity:1;stroke-width:.264583;filter:url(#f)" transform="translate(126.974 116.792)scale(.24512)"/><path d="m77.314 59.334-.99-1.129-1.49.176.766-1.29-.628-1.364 1.465.331 1.102-1.018.138 1.494 1.31.734-1.38.593z" style="display:inline;opacity:1;fill:#dfffec;fill-opacity:1;stroke-width:.264583;filter:url(#f)" transform="translate(149.537 91.384)scale(.2144)"/><path d="m77.314 59.334-.99-1.129-1.49.176.766-1.29-.628-1.364 1.465.331 1.102-1.018.138 1.494 1.31.734-1.38.593z" style="display:inline;opacity:1;fill:#dfffec;fill-opacity:1;stroke-width:.264583;filter:url(#f)" transform="translate(143.052 119.639)scale(.34397)"/><path d="m77.314 59.334-.99-1.129-1.49.176.766-1.29-.628-1.364 1.465.331 1.102-1.018.138 1.494 1.31.734-1.38.593z" style="display:inline;opacity:1;fill:#dfffec;fill-opacity:1;stroke-width:.264583;filter:url(#f)" transform="translate(209.175 118.735)scale(.12409)"/><path d="m77.314 59.334-.99-1.129-1.49.176.766-1.29-.628-1.364 1.465.331 1.102-1.018.138 1.494 1.31.734-1.38.593z" style="display:inline;opacity:1;mix-blend-mode:normal;fill:#dfffec;fill-opacity:1;stroke-width:.264583;filter:url(#f)" transform="matrix(.41365 0 0 .50108 231.468 79.374)"/><path d="m77.314 59.334-.99-1.129-1.49.176.766-1.29-.628-1.364 1.465.331 1.102-1.018.138 1.494 1.31.734-1.38.593z" style="display:inline;opacity:1;mix-blend-mode:normal;fill:#dfffec;fill-opacity:1;stroke-width:.264583;filter:url(#f)" transform="matrix(.41365 0 0 .50108 8.424 100.54)"/><path d="m77.314 59.334-.99-1.129-1.49.176.766-1.29-.628-1.364 1.465.331 1.102-1.018.138 1.494 1.31.734-1.38.593z" style="display:inline;opacity:1;mix-blend-mode:normal;fill:#dfffec;fill-opacity:1;stroke-width:.264583;filter:url(#f)" transform="matrix(.41365 0 0 .50108 41.497 98.424)"/><path d="m77.314 59.334-.99-1.129-1.49.176.766-1.29-.628-1.364 1.465.331 1.102-1.018.138 1.494 1.31.734-1.38.593z" style="display:inline;opacity:1;mix-blend-mode:normal;fill:#dfffec;fill-opacity:1;stroke-width:.264583;filter:url(#f)" transform="matrix(.15712 0 0 .19033 84.377 125.275)"/><path d="m77.314 59.334-.99-1.129-1.49.176.766-1.29-.628-1.364 1.465.331 1.102-1.018.138 1.494 1.31.734-1.38.593z" style="display:inline;opacity:1;mix-blend-mode:normal;fill:#dfffec;fill-opacity:1;stroke-width:.264583;filter:url(#f)" transform="matrix(.15712 0 0 .19033 86.759 88.763)"/><path d="m77.314 59.334-.99-1.129-1.49.176.766-1.29-.628-1.364 1.465.331 1.102-1.018.138 1.494 1.31.734-1.38.593z" style="display:inline;opacity:1;fill:#dfffec;fill-opacity:1;stroke-width:.264583;filter:url(#f)" transform="translate(218.568 83.158)scale(.37146)"/><path d="m77.314 59.334-.99-1.129-1.49.176.766-1.29-.628-1.364 1.465.331 1.102-1.018.138 1.494 1.31.734-1.38.593z" style="display:inline;opacity:1;mix-blend-mode:normal;fill:#dfffec;fill-opacity:1;stroke-width:.264583;filter:url(#f)" transform="matrix(.15712 0 0 .19033 35.464 37.993)"/><path d="m77.314 59.334-.99-1.129-1.49.176.766-1.29-.628-1.364 1.465.331 1.102-1.018.138 1.494 1.31.734-1.38.593z" style="display:inline;opacity:1;fill:#dfffec;fill-opacity:1;stroke-width:.264583;filter:url(#f)" transform="translate(253.18 125.258)scale(.24512)"/><path d="m77.314 59.334-.99-1.129-1.49.176.766-1.29-.628-1.364 1.465.331 1.102-1.018.138 1.494 1.31.734-1.38.593z" style="display:inline;opacity:1;mix-blend-mode:normal;fill:#dfffec;fill-opacity:1;stroke-width:.264583;filter:url(#f)" transform="matrix(.15712 0 0 .19033 59.242 90.88)"/></g><g style="display:inline" transform="translate(-74.55 13.081)scale(.69402)"><circle cx="216.165" cy="76.994" r="29.633" style="display:inline;mix-blend-mode:normal;fill:#fcfcbe;fill-opacity:1;stroke-width:.24902;filter:url(#c)" transform="translate(7.703 2.744)scale(.96436)"/><circle cx="216.165" cy="76.994" r="25.135" style="opacity:1;mix-blend-mode:normal;fill:#fffcb8;fill-opacity:1;stroke-width:.211222;filter:url(#d)"/><circle cx="216.165" cy="76.994" r="29.633" style="mix-blend-mode:normal;fill:#fdfdd4;fill-opacity:1;stroke-width:.24902;filter:url(#e)" transform="translate(7.703 2.744)scale(.96436)"/><path d="M199.76 89.826c-2.38-2.117-5.82-8.864-4.233-11.112 1.588-2.25 4.895 1.587 4.763-5.16-.133-6.747 1.587-10.848 2.91-11.906s5.556-1.984 5.556-1.984 4.895.264 5.556 3.307-2.778 5.291-1.587 7.144c1.19 1.852-4.366 5.688-4.498 8.466s5.292 7.144 7.54 4.234c2.25-2.91 12.436 1.852 13.759-2.646s1.72-8.202 1.19-12.171c-.529-3.969 4.102-7.54 4.763-3.043.662 4.498-2.249 6.086-1.058 12.171 1.19 6.085 2.381 11.113-3.572 10.848s-10.98-2.249-9.657 1.19 7.011 10.584 2.116 8.864-6.879-3.043-8.996-5.424c-2.116-2.381-2.91-5.953-7.276-2.646s-3.042 7.409-5.424 4.63c-2.38-2.778-1.852-4.762-1.852-4.762" style="opacity:1;mix-blend-mode:normal;fill:#fff;fill-opacity:1;stroke-width:.264583;filter:url(#j)"/></g><g style="display:inline"><g style="display:inline"><path d="M-36.636 80.173c-.193-1.935.323-2.257 1.161-5.16s1.097-5.095 2.903-5.16c1.806-.064 5.74.58 6.643 1.097.903.516 2.774 1.29 3.419 2.45.645 1.162 2 3.29 2.644 4.451s2.258 3.612 1.677 3.934c-.58.323-1.29 1.548-1.87 1.548s-4.064 2.322-6.58 1.226-3.87-2.451-4.708-3.483-2.838-2.515-2.838-2.515z" style="display:inline;fill:#030702;fill-opacity:1;stroke-width:.600001;stroke-linecap:square;stroke-linejoin:bevel;stroke-dasharray:.600001,1.8" transform="translate(144.099 -37.45)scale(2.7168)"/><path d="M-35.152 63.403c.58-1.87.903-2.838 1.87-2.773s1.226.064.968.064-.839-1.483.645-1.419 1.612.774 1.612.774 1.742-4.515 4.902-3.16 3.29 2.967 3.032 2.967-.774-2.193 2.902-.903 3.29 2.322 3.29 2.322 1.806-1.548 2.58.387.451 3.096.451 3.096l.323 2.773s-.387 4.064.387 4.128 2.515-1.741 3.225-.645.774 3.29.58 3.612c-.193.323-1.677 1.355-1.677 1.355s2.193-2.451 2.451.193-2 5.87-2 5.87.646 1.29-1.29 1.225c-1.934-.065-2.063-.129-2.063-.129s1.032 1.548 0 1.612-4.128.903-3.548-1.096 2.774-6.514 2.58-6.837-3.805-10.384-9.288-10.449c-5.482-.064-10.578.452-11.287.13-.71-.323-.645-3.097-.645-3.097" style="display:inline;fill:#5b8533;fill-opacity:1;stroke-width:.600001;stroke-linecap:square;stroke-linejoin:bevel;stroke-dasharray:.600001,1.8" transform="translate(144.099 -37.45)scale(2.7168)"/><path d="M-27.928 62.049s1.096-3.16 2.644-2.322a19 19 0 0 1 2.838 1.935s-.774-2.516 2.645-1.548c3.418.967 3.612 2.838 3.29 2.902s-1.936 1.548-1.936 1.548 1.42-1.806 2.71-1.354 1.74.58 1.29 1.096a25 25 0 0 1-.968 1.032s.774-2.193 2.709.903-.58 3.16-.58 3.16 2.386-1.354 3.289 1.355.064 3.999-.58 3.999c-.646 0-9.353-3.096-9.934-4.644s-7.224-6.127-7.224-6.127z" style="display:inline;fill:#2f671e;fill-opacity:1;stroke-width:.600001;stroke-linecap:square;stroke-linejoin:bevel;stroke-dasharray:.600001,1.8" transform="translate(144.099 -37.45)scale(2.7168)"/><path d="m-24.897 65.274-.645.129s.387 2.709-.258 5.934-4.773 7.482-5.934 7.353c-1.16-.13-7.869-9.675-7.869-9.675l-.903.258s4.644 7.481 6.063 9.158c1.42 1.677 1.677 3.097 3.483 6.967.146.312.268.656.38 1.014h4.132c.406-1.804 1.553-.845 3.357-1.853 2.193-1.226 6.708-.58 6.708-.58l.516-2.323s-5.418 1.29-7.353 1.162c-1.935-.13.903 0 2.967-2.193s4.386-2.065 6.837-4.258-.129-1.934-.129-1.934-1.29-.13-2.064 1.677-4.902 3.225-5.676 3.999 2.064-6.192 3.096-6.837.13 0-1.16.129-3.758 8.936-6.257 7.772c-2.828-1.318 1.234-5.057 1.967-5.87 2.386-2.644 2.014-5.884 2.967-8.45.42-1.128.61-1.321-.161-1.225-.77.097-1.613 6.483-2.645 6.483s-1.419-6.837-1.419-6.837" style="display:inline;fill:#0b0b05;fill-opacity:1;stroke-width:.600001;stroke-linecap:square;stroke-linejoin:bevel;stroke-dasharray:.600001,1.8" transform="translate(144.099 -37.45)scale(2.7168)"/><path d="M-28.916 77.716c-1.824-1.642-1.824-.182-2.28-3.466s-.638-5.29-.638-5.29l.82.09.457 5.656s.912-.82 1.185-2.554c.274-1.733.639-2.463.639-2.463s.547-.273.547.091c0 .365-.547 3.923-.82 5.017-.274 1.095 1.003 2.28 1.003 2.28z" style="display:inline;fill:#0b0b05;fill-opacity:1;stroke-width:.600001;stroke-linecap:square;stroke-linejoin:bevel;stroke-dasharray:.600001,1.8" transform="translate(144.099 -37.45)scale(2.7168)"/><path d="M-35.483 74.706c-.091-1.55-.183-2.828-.365-4.287s-.82-2.007-.365-2.098l.456-.091s1.642 4.196 1.368 6.202l-.273 2.007z" style="fill:#35230f;fill-opacity:1;stroke-width:.600001;stroke-linecap:square;stroke-linejoin:bevel;stroke-dasharray:.600001,1.8" transform="translate(144.099 -37.45)scale(2.7168)"/><path d="M-34.297 64.946c.638-2.098 3.74-3.193 4.287-3.193s1.915 1.916 1.915 1.916 2.007-3.831 3.467-2.372-2.554 3.467 1.46 1.46 2.918-1.186 4.195-.548c1.277.639.821 3.467.821 3.467s.547-2.554 2.007.273 0 2.828 0 2.828 4.56-3.74 4.743-.547c.182 3.192-.912 3.83-.912 3.83s1.094-1.367 2.554 1.095c1.46 2.463.547 3.831.547 3.831s2.372 1.004-.091 2.463-.365 4.014-3.193 3.284c-2.827-.73-4.925-3.01-4.925-3.649 0-.638 2.645-3.01-.365-3.466s-5.108-2.007-5.108-2.645c0-.639 5.2-4.378-.821-5.29-6.02-.913-7.754-.913-8.666-1.004s-1.915-1.733-1.915-1.733" style="display:inline;fill:#214a16;fill-opacity:1;stroke-width:.600001;stroke-linecap:square;stroke-linejoin:bevel;stroke-dasharray:.600001,1.8" transform="translate(144.099 -37.45)scale(2.7168)"/><path d="m-25.768 71.166-.032.17c-.286 1.429-1.254 3.058-2.346 4.42.393-.132.132.108.69-.32.684-.525.023-.57 1.277-.935s1.436-.388 2.12-.57c.685-.183 2.304-1.46 1.688-1.779-.133-.069-.41-.166-.761-.274-.113.147-.228.232-.346.232-.163 0-.31-.172-.443-.462a65 65 0 0 0-1.847-.482" style="fill:#1d140b;fill-opacity:1;stroke-width:.600001;stroke-linecap:square;stroke-linejoin:bevel;stroke-dasharray:.600001,1.8" transform="translate(144.099 -37.45)scale(2.7168)"/><path d="M-19.64 75.544c-.525.222-1.075.459-1.6.686-.408.813-.847 1.693-1.306 2.49q.021.209-.03.456c-.182.866-.639 1.413-.639 1.413l.137.822s1.186-.183.73.045-1.55.867-1.55.867-.365.82-.092.82c.274 0 1.551.502 1.551.502s.188.237.453.486c.7-.186 1.483-.273 2.24-.305a29 29 0 0 0 1.672-1.69c-1.73.352-4.02.757-5.146.682-1.935-.13.903 0 2.967-2.193 1.23-1.306 2.55-1.79 3.935-2.43-.062-.3-.142-.62-.232-.94-1.504 1.26-4.133 2.251-4.735 2.853-.513.513.561-2.37 1.644-4.564" style="fill:#855727;fill-opacity:1;stroke-width:.600001;stroke-linecap:square;stroke-linejoin:bevel;stroke-dasharray:.600001,1.8" transform="translate(144.099 -37.45)scale(2.7168)"/><path d="M-32.572 66.37c.838-1.032 1.16-2.644 1.483-2.709s1.87-1.354 1.935.258.452 3.548.452 3.548 1.548-2.967 2.967-3.29 2.709 1.355 2.709 1.355l1.483.387s2.903-1.226 3.096.967-.129 3.548-.58 3.548c-.452 0-3.548 1.548-3.548 1.548s3.612-2.258 4.709-1.548.58 2.515.58 2.515.839-3.354 2.645-2.064 1.806 1.677 1.806 1.677.58-.516 1.032.839c.451 1.354.064 2.773-.516 3.289s-3.032 2-3.032 2 3.935-2.193 3.483-.13c-.451 2.065 1.226 3.419-1.29 3.677s-3.612.387-3.612.387-4.192-5.87-4.515-6.579c-.322-.71-8.514-7.353-9.223-7.417s-2.645-1.097-2.645-1.097z" style="fill:#1b3006;fill-opacity:1;stroke-width:.600001;stroke-linecap:square;stroke-linejoin:bevel;stroke-dasharray:.600001,1.8" transform="translate(144.099 -37.45)scale(2.7168)"/><path d="M-29.127 70.915a15 15 0 0 0-.245 1.237c-.273 1.733-1.185 2.554-1.185 2.554l-.276-3.416c-.24.086-.485.175-.715.26.092.758.208 1.665.352 2.7.265 1.906.377 2.213.78 2.457a.4.4 0 0 0 .064-.154c.114-.547.16-1.277.16-1.277l.319.456.387-.889-.114-.57s.274-.57.274-.342-.023.958.137.342c.057-.22.2-.327.374-.392.165-.873.353-2.034.48-2.905a34 34 0 0 0-.792-.061" style="fill:#170f07;fill-opacity:1;stroke-width:.600001;stroke-linecap:square;stroke-linejoin:bevel;stroke-dasharray:.600001,1.8" transform="translate(144.099 -37.45)scale(2.7168)"/><path d="M-40.828 70.176c-1.29-2-2-2.064-.452-3.354s2.838-1.484 2.838-1.484.774-2.257 2.258-2.45 1.935.515 1.935.515 1.483 1.677 1.483 1.097.13-4.128 1.42-4.128 3.16.516 3.16.838c0 .323.838 2.064.838 2.064s.323 4.709-.129 4.709c-.451 0-7.417.516-8.062.774s-5.29 1.419-5.29 1.419" style="fill:#1d4012;fill-opacity:1;stroke-width:.600001;stroke-linecap:square;stroke-linejoin:bevel;stroke-dasharray:.600001,1.8" transform="translate(144.099 -37.45)scale(2.7168)"/><path d="M-19.885 85.743c1.733 1.095 2.919 2.92 4.47 1.186s2.371-3.557 1.368-4.834l-1.004-1.277s5.747-1.551 4.196-3.74c-1.55-2.19-1.642-2.19-1.642-2.19s.092-3.192-1.277-3.1c-1.368.09-3.283 2.006-3.283 2.006s1.368-2.554-.639-2.372c-2.007.183-3.01 2.737-3.01 2.737s-.456-3.74.638-4.287c1.095-.548 1.369-.821 1.277-2.554-.09-1.734-.182-2.372-.73-2.463-.547-.091-.455-3.01-2.28-2.19-1.824.821-1.915 2.19-2.463 2.19-.547 0-2.28-2.463-3.466-1.095s-1.003 1.824-1.003 1.824-2.645-2.918-4.196-2.098-1.186 2.007-1.186 2.007-1.003-3.466-3.101-1.186-1.916 2.463-1.916 2.463-5.746 2.828-3.648 4.926 2.098 2.372 2.098 2.372-3.626-1.292-2.646 1.185c1.733 4.379 3.01 2.098 3.01 2.098s-2.189 3.831-.182 4.926 3.649.73 4.287-.82c.639-1.552 2.463.455 3.375-3.011s.183-4.47.183-5.747.638.092 2.098.639 1.824-2.007 2.462-.274 1.551.274 3.375.274.639 3.192 1.46 3.83c.82.64 2.28 1.187 2.28 1.187s-2.098.73-1.55 2.098 2.189 1.642 2.189 1.642-1.368 0-1.277 1.46 1.733 2.188 1.733 2.188" style="fill:#0b1907;fill-opacity:1;stroke-width:.600001;stroke-linecap:square;stroke-linejoin:bevel;stroke-dasharray:.600001,1.8" transform="translate(144.099 -37.45)scale(2.7168)"/><path d="M-28.38 78.174s.065.064.194.516c.129.451-1.613.645-1.613.645s.258-.968-.064-.968c-.323 0-1.161 1.16-1.548 1.483s-.71-.064-1.355-1.612l-.672 1.65c.405.73.762 1.586 1.231 2.691h3.69c.127-.146.277-.285.46-.407 1.16-.774.71-.451 1.741-.967s-1.548-.58-1.419-1.42c.13-.838.516-1.096.71-1.354s-1.355-.257-1.355-.257" style="display:inline;fill:#140d06;fill-opacity:1;stroke-width:.600001;stroke-linecap:square;stroke-linejoin:bevel;stroke-dasharray:.600001,1.8" transform="translate(144.099 -37.45)scale(2.7168)"/><path d="M-33.351 80.05c.649 1.218 1.162 2.714 2.391 5.347.262.562.466 1.206.62 1.9h.586l-.11-.48.259-1.033-.71-1.676s0-.645.58-2.387c.581-1.741-1.225.387-1.74.258-.517-.129.063-1.225.063-1.225l-.967.128s-.533-.62-.972-.831" style="fill:#6e4820;fill-opacity:1;stroke-width:.600001;stroke-linecap:square;stroke-linejoin:bevel;stroke-dasharray:.600001,1.8" transform="translate(144.099 -37.45)scale(2.7168)"/><path d="M-32.96 70.111c1.871.58 2.58 2.58 4.451 1.484s1.226-.839.71-.774-1.484 1.032-2.064.645-3.096-1.355-3.096-1.355" style="fill:#050c03;fill-opacity:1;stroke-width:.600001;stroke-linecap:square;stroke-linejoin:bevel;stroke-dasharray:.600001,1.8" transform="translate(144.099 -37.45)scale(2.7168)"/><path d="M-22.51 73.788c.58 1.612-.323 2.58.774 3.031s2.45.58 1.419.194c-1.032-.387-1.097.451-1.42-.839s-.773-2.386-.773-2.386" style="fill:#0c1a07;fill-opacity:1;stroke-width:.600001;stroke-linecap:square;stroke-linejoin:bevel;stroke-dasharray:.600001,1.8" transform="translate(144.099 -37.45)scale(2.7168)"/><path d="M-20.446 83.785c2.257 2.322 3.547 2.838 4.58 1.419 1.031-1.419 1.87-2.451.967-1.806s-1.032 2.193-2.064 2-3.483-1.613-3.483-1.613" style="fill:#377a23;fill-opacity:1;stroke-width:.600001;stroke-linecap:square;stroke-linejoin:bevel;stroke-dasharray:.600001,1.8" transform="translate(144.099 -37.45)scale(2.7168)"/><path d="M-38.893 79.593c1.419.322 3.031 1.483 3.999-.323.967-1.806.193-2.128.193-2.128s-.129 2.064-1.225 2.193-2.967.258-2.967.258" style="fill:#091506;fill-opacity:1;stroke-width:.600001;stroke-linecap:square;stroke-linejoin:bevel;stroke-dasharray:.600001,1.8" transform="translate(144.099 -37.45)scale(2.7168)"/><path d="M-21.201 62.52a1.4 1.4 0 0 0-.6.145c-1.824.821-1.915 2.19-2.463 2.19-.547 0-2.28-2.463-3.466-1.095-1.185 1.368-1.003 1.825-1.003 1.825s-2.646-2.92-4.196-2.098c-1.55.82-1.186 2.006-1.186 2.006s-1.003-3.466-3.101-1.186-1.916 2.463-1.916 2.463-5.746 2.828-3.648 4.926c.213.213.39.395.562.572-.534-1.229-1.16-.859-.416-2.06.838-1.355 2.967-2.387 2.967-2.387h1.038c-.12.018-.453.14-1.2.839-1 .935-1.096 1.612-1.096 1.612s.58-1.612 3.16-2.29 4.644-.225 3.483-.71c-1.16-.483-3.45.13-3.45.13s-.355-.548.935-1.806-.29-1.903 1.71-.42 1.321 2.807 1.934 1.13-.451-2.838 1.452-1.839c.915.482 1.511.878 1.89 1.162-.142.032-.318.126-.536.322-.935.839-1.097 1.193-1.097 1.193s-.71.387 1.032-.129 2-1.032 2.645-.613 1.322.678 1.322.678-.645-.58-1.096-.968c-.452-.387-.452-1.096-.226-1.16.225-.065.258-.646 1.322-.323 1.064.322 2.71 1.386 2.806 1.225s1.064-2.225 2.128-2.257c.73-.022 1.217-.075 1.513.32-.214-.647-.506-1.391-1.203-1.397m1.472 2.13q.013.066.024.14c.194 1.322 1.129 2.064.258 2.935-.87.87-.58.322-1.322 1.838-.742 1.515.032 5.03.032 5.03s2.193-3.418 2.742-2.224.903 1.515.903 1.515 2.262-1.35 3.22-2.086c-1.36.171-3.185 1.996-3.185 1.996s1.368-2.554-.64-2.371c-2.006.182-3.01 2.736-3.01 2.736s-.455-3.74.64-4.287c1.094-.548 1.368-.822 1.276-2.555-.09-1.733-.182-2.37-.73-2.462-.08-.014-.147-.09-.208-.206" style="fill:#142c0d;fill-opacity:1;stroke-width:.600001;stroke-linecap:square;stroke-linejoin:bevel;stroke-dasharray:.600001,1.8" transform="translate(144.099 -37.45)scale(2.7168)"/><path d="M-27.09 68.628c.452-.13 2.451-1.548 3.548-.58 1.096.967 1.806 3.16 1.548 3.224s-1.097-1.483-2.129-2.128-2.967-.516-2.967-.516" style="fill:#081105;fill-opacity:1;stroke-width:.600001;stroke-linecap:square;stroke-linejoin:bevel;stroke-dasharray:.600001,1.8" transform="translate(144.099 -37.45)scale(2.7168)"/><path d="M-16.512 75.271c1.484-1.032 2.064-1.87 2.71-1.096.644.774.773 2.064.773 2.064s2.129.193 1.161.967c-.967.774-1.29 2.064-1.29.839s.71-1.29 0-1.29-.355-1.839-.87-1.968c-.517-.129-.613.42-1.387.484-.774.065-1.097 0-1.097 0" style="fill:#060e04;fill-opacity:1;stroke-width:.600001;stroke-linecap:square;stroke-linejoin:bevel;stroke-dasharray:.600001,1.8" transform="translate(144.099 -37.45)scale(2.7168)"/><path d="M-26.273 56.636c-2.45-.044-3.784 3.413-3.784 3.413s-.129-.71-1.612-.774c-1.439-.062-.938 1.326-.67 1.411a64 64 0 0 1-.943-.056c-.624-.042-.979.351-1.308 1.133.238-.147.346-.162.59-.325.414-.275.62-.379.965-.413.344-.034 1.136.206 1.033-.172-.103-.379-1.067-.964-.034-1.17 1.032-.207 1.652.034 1.652.034s-.103 1.136.448.344c.55-.792.998-2.204 2.066-2.48s1.411-.171 1.584-.171c.084 0 .483-.314.949-.59q-.492-.179-.936-.184m5.011 1.913c-.58.03-.86.263-.975.523a3 3 0 0 0-.2-.297c.127.267.214.46.214.46l.068.688s.482-.585 1.55-.585c1.067 0 2.754.413 3.168.757.413.345.86 2.342 1.033 2.066.172-.275.55-.895 1.893-1.24.141-.035.314-.067.493-.098-.845-.459-1.913.452-1.913.452s.387-1.032-3.29-2.322c-.919-.323-1.576-.428-2.04-.404" style="display:inline;fill:#9ddc60;fill-opacity:1;stroke-width:.600001;stroke-linecap:square;stroke-linejoin:bevel;stroke-dasharray:.600001,1.8" transform="translate(144.099 -37.45)scale(2.7168)"/></g><path d="M225.725 115.094s-14.79 20.994-17.415 22.187c-2.624 1.192 4.294.715 4.294.715l-7.634 15.269h2.625s-10.498 16.7-12.883 18.846c-2.386 2.148 5.01.716 5.01.716l-6.919 15.984 5.964-.477-6.68 12.883 7.256-1.555v-5.37h48.204l-1.305-3.334h3.34c3.102 0-7.157-17.176-7.157-17.176l3.579.238-5.964-13.121 2.862-.477-5.487-18.37 2.625-.716s-5.01-15.745-10.974-25.527z" style="display:inline;fill:#0d1c08;fill-opacity:1;stroke-width:1.46335;stroke-linecap:square;stroke-linejoin:bevel;stroke-dasharray:1.46335,4.39001"/><path d="M225.356 115.68c.44.33 2.527 1.208 2.527 1.208l.878 5.601s-2.087-.878-1.318 0c.769.879.989 3.954.989 3.954s-2.966-1.1-1.318.219c1.647 1.317 1.756 1.537 1.427 2.196-.33.659-1.098 1.867-1.098 1.867s-2.196 1.209-1.427 1.429c.768.22 1.647.878 1.647.878s-.22 3.074.22 3.074c.439 0 1.647 1.758 1.098 1.978-.55.22.33.658-1.098 1.536-1.428.879-4.063-.109-4.063-.109l-.99-2.196s-1.318 1.318-1.757 1.318c-.44 0-1.098 1.647-2.197 0s-1.207-1.758-1.207-1.758-1.977 2.417-2.416 1.978c-.44-.44-1.209-1.209-1.758-1.209s-1.976-.769-1.976-.769-1.757.11-1.867-.658c-.002-.017-.01-.037-.015-.056 4.235-4.336 14.566-18.92 15.657-20.464z" style="display:inline;fill:#1d4013;fill-opacity:1;stroke-width:1.46335;stroke-linecap:square;stroke-linejoin:bevel;stroke-dasharray:1.46335,4.39001"/><path d="M216.571 138.987c.3.008.619.147.968.54 1.242 1.398 2.718 1.864 3.572 1.709s1.553-1.01 1.941-.233 2.408 1.088 2.408 1.088l2.175-.544 1.165 3.727-.39 4.815-.932.155 1.01 1.786-1.475 1.554 1.553.853.698 1.941-3.106 1.243-2.018.466-1.941-1.864s-1.631 2.719-2.253 1.01c-.62-1.708-4.038-2.486-4.038-2.486s-1.708 1.088-2.562.855c-.855-.233-3.805 1.32-3.106-.466s-2.175-2.252-3.029-2.951c-.2-.165-.886-.052-1.804.207l6.112-12.223.352.056c2.33-.62 1.553-.931 2.562-.62.726.222 1.371-.636 2.138-.618m-10.68 17.469c2.563.388 4.116.776 4.892.543s2.951.31 3.029.622c.078.31-1.01 4.427.387 3.34 1.398-1.088 1.01-1.943 3.029-2.02 2.019-.078 5.047.544 4.193.777s-3.027 1.008-2.25 1.008c.776 0 6.289-.62 6.289-.62l2.407 1.398s-2.718 1.786-4.737 5.202.7 3.96.7 3.96l.31 2.797-6.368.31-5.36-.544s-1.551 1.554-1.474 1.01c.078-.543-2.485-4.194-2.485-4.194l-3.028 1.476s-3.184-.544-3.727-.544c-.544 0-.855-.698-2.175-.387s-3.262 1.165-3.572 1.087c-.05-.012-.287-.099-.62-.228 2.159-2.538 6.952-9.878 9.865-14.42z" style="display:inline;fill:#1d4013;fill-opacity:1;stroke-width:1.46335;stroke-linecap:square;stroke-linejoin:bevel;stroke-dasharray:1.46335,4.39001"/><path d="m203.83 173.006 3.297 1.647-.99.44 6.04.658s-4.282.44-1.756.88 5.161.878 5.161.878-6.369-1.317.99-1.427c7.357-.11 5.38.658 5.38.658l3.844 2.416s1.537-.44 0 .11c-1.538.548-8.018 3.404-5.492 3.513 2.525.11 3.955-.11 2.967.22-.989.33-5.822.44-3.955 2.417s2.855 3.294 2.855 3.294l-1.977 4.832s4.174 2.087 2.857 2.307-2.747 3.843-2.747 3.843-5.27-4.064-6.149-3.405c-.878.66-5.712 2.966-6.041 2.307s1.209-3.513-1.756-2.525c-2.966.988-9.007 2.195-9.007.987s1.318-4.832 1.318-4.832-.876.226-2.187.52l2.286-4.41-5.966.478 5.522-12.76.345.03c3.185-1.208 5.162-3.076 5.162-3.076" style="display:inline;fill:#081205;fill-opacity:1;stroke-width:1.46335;stroke-linecap:square;stroke-linejoin:bevel;stroke-dasharray:1.46335,4.39001"/><path d="M224.993 116.154c.854 1.01 2.563.077 1.709 1.32-.854 1.242-1.786 1.243-1.397 1.709.388.465 2.25.154.93.776-1.32.62-1.94 1.397-1.94 1.397l1.708 2.95-1.397 1.088 1.864 1.941s-.854 1.708-1.32 1.941-3.03.544-3.185 1.165c-.156.622 2.95 4.505 2.95 4.505s-.154.933-2.095 1.088-2.64-.778-2.874-.08c-.233.7-1.165-2.095-2.33-1.085-1.164 1.01-3.416.62-4.425.155-.264-.122-1.14-.208-2.251-.294 4.482-5.164 12.33-16.177 14.029-18.574zm-14.023 24.785c3.075-.44 2.526-1.099 4.722-.879s1.098.769 4.063 1.538c2.965.768 4.393 1.317 4.393 1.317l-5.161.989s-4.064 1.427-3.075 1.757 1.757.11.988.33-2.306 3.074-1.428 3.184 2.526 1.647 1.648 1.757c-.879.11-3.624 1.318-3.734 1.757-.11.44-2.087 1.099-2.087 1.099s-6.37-.44-5.71-1.977c.658-1.538 5.38-10.872 5.38-10.872m-5.6 16.363h2.745v1.647l2.526-.11s-6.48 2.856-4.393 3.515 4.942 2.086 4.942 2.086-4.722.22-4.173.989c.55.768 2.087.549.879 1.098s-2.087 0-2.087 1.537c0 1.538-.769 2.197-1.757 1.867s-8.676 1.538-8.676 1.538z" style="display:inline;fill:#679947;fill-opacity:1;stroke-width:1.46335;stroke-linecap:square;stroke-linejoin:bevel;stroke-dasharray:1.46335,4.39001"/><path d="M197.527 177.134c1.427-.11 5.271-1.757 5.271-1.757l-.549 2.965s4.942.989 4.173 1.867c-.769.879-3.185 3.185-3.185 3.185s6.15-4.283 7.798-3.844 4.283 1.977 4.283 1.977l-5.052 5.052s3.185 1.647.33 2.306c-2.856.66-3.625 2.197-4.723 2.856s-4.173 3.075-4.173 3.075l-2.636-4.723s-2.196 1.098-1.757.44c.44-.66 1.537-2.746 1.537-2.746l-6.37.879z" style="display:inline;fill:#030702;fill-opacity:1;stroke-width:1.46335;stroke-linecap:square;stroke-linejoin:bevel;stroke-dasharray:1.46335,4.39001"/><g style="display:inline"><path d="M43.178 90.96c1.802-1.147.764-.205 3.956.16 3.193.364 4.21.127 5.224.084.472-.02 4.014-.353 4.014-1.174 0-.82 2.371-4.834-.365-6.75-2.737-1.915 1.003-4.196-7.48-2.462s-12.132-.092-10.216 4.378c1.915 4.47 4.224 6.172 4.224 6.172z" style="fill:#071005;fill-opacity:1;stroke-width:.600001;stroke-linecap:square;stroke-linejoin:bevel;stroke-dasharray:.600001,1.8" transform="translate(-2.65 -90.727)scale(3.20033)"/><path d="M47.085 81.915s.889 1.745.774 3.87c-.073 1.345-.635 3.206-1.114 4.59h4.26c-.457-.4-.695-1.108-.695-1.108l.516-6.32zm9.417 2.322s-1.935 3.353-3.612 5.546a3 3 0 0 1-.572.591h2.233c1.247-.819 2.338-1.365 2.338-1.365l-.296-.659s-1.647 1.394-2.292 1.136 2.55-4.52 2.55-4.52zm-15.61 3.16s-.515 1.935-.386 2.967l.002.01h2.143c-1.562-1.62-1.758-2.977-1.758-2.977" style="display:inline;fill:#7a5023;fill-opacity:1;stroke-width:.600001;stroke-linecap:square;stroke-linejoin:bevel;stroke-dasharray:.600001,1.8" transform="translate(-2.65 -90.727)scale(3.20033)"/><path d="m47.66 83.509-.009.064a8 8 0 0 1 .207 2.211c-.058 1.076-.431 2.482-.823 3.713h1.858a1 1 0 0 0-.047-.242c-.274-.866-.547-3.056-.547-3.056z" style="fill:#442c14;fill-opacity:1;stroke-width:.600001;stroke-linecap:square;stroke-linejoin:bevel;stroke-dasharray:.600001,1.8" transform="translate(-2.65 -90.727)scale(3.20033)"/><path d="M54.05 88.106c-1.418-1.225-1.225-1.548-1.225-2.838s-.129-2.58-.129-2.58.71-.322.58 0c-.128.323-.322 3.677.194 4.064s.968 1.161.968 1.161z" style="fill:#493015;fill-opacity:1;stroke-width:.600001;stroke-linecap:square;stroke-linejoin:bevel;stroke-dasharray:.600001,1.8" transform="translate(-2.65 -90.727)scale(3.20033)"/><path d="M48.07 86.93c-1.64-.73-3.1-2.92-3.739-4.288s.456-2.737.456-2.737-1.55.456.456 3.284 3.284 2.463 3.284 2.463z" style="fill:#22160a;fill-opacity:1;stroke-width:.600001;stroke-linecap:square;stroke-linejoin:bevel;stroke-dasharray:.600001,1.8" transform="translate(-2.65 -90.727)scale(3.20033)"/><path d="M42.813 90.952c-3.216-.214-5.393 1.141-5.32-.5l.088-1.972s-5.017-2.554-2.463-5.017 2.007-.821 2.007-.821-1.916-2.828-.73-2.919 2.737.091 2.737.091-3.102-6.75.365-5.564l3.466 1.186s-1.733-1.55 1.186-1.916 2.189 1.916 2.189 1.916-1.186-2.92 1.733-3.01c2.919-.092 2.554 2.736 2.554 2.736s1.368-4.105 3.284-2.28c1.915 1.824 1.368 3.83 1.368 3.83s1.368-2.553 2.919-.638.274 5.93.274 5.93 2.645-.365 2.462 2.371-.364 3.922-1.641 3.922.843 3.068-1.347 2.612-2.758-.24-2.393-2.703.273-4.378-1.004-4.378-2.28 2.371-3.283 2.827-2.92-1.094-4.014-2.554.365-2.827-1.733-1.46c-2.098 1.37.638 2.464-.821 4.106s0 2.28-.456 3.01l.327 1.312z" style="display:inline;fill:#10240a;fill-opacity:1;stroke-width:.600001;stroke-linecap:square;stroke-linejoin:bevel;stroke-dasharray:.600001,1.8" transform="translate(-2.65 -90.727)scale(3.20033)"/><path d="M38.7 86.623c2.322-.516 2.644-.839 3.096-2.064s-.452-1.87-.516-1.613c-.065.258.71 1.484-.516 2.193S38.7 86.623 38.7 86.623" style="display:inline;fill:#081205;fill-opacity:1;stroke-width:.600001;stroke-linecap:square;stroke-linejoin:bevel;stroke-dasharray:.600001,1.8" transform="translate(-2.65 -90.727)scale(3.20033)"/><path d="M44.053 80.496c2.129.709 3.311.892 4.064.253.752-.638 1.026-.479-.046-.182-1.072.296-.975.457-2.043.276-.795-.134-1.081-.367-1.514-.436-.434-.068-.46.089-.46.089m5.408 3.56c1.368.775 3.77.383 4.158-.05.388-.434-.122.21-1.467.255s-2.691-.205-2.691-.205" style="display:inline;fill:#071005;fill-opacity:1;stroke-width:.600001;stroke-linecap:square;stroke-linejoin:bevel;stroke-dasharray:.600001,1.8" transform="translate(-2.65 -90.727)scale(3.20033)"/><path d="M50.6 81.14c.935.936 1.201 1.161 1.75 1.161s.991-.451.991-.451.13.613.935.613c.807 0 1.42-.13.452-.194s-1.516-.903-1.516-.903-.226.891-1.217.621c-.331-.09-1.395-.846-1.395-.846" style="display:inline;fill:#050c03;fill-opacity:1;stroke-width:.600001;stroke-linecap:square;stroke-linejoin:bevel;stroke-dasharray:.600001,1.8" transform="translate(-2.65 -90.727)scale(3.20033)"/><path d="M52.894 72.415c-1.366.037-2.27 2.747-2.27 2.747s.366-2.828-2.553-2.736c-1.452.045-1.888.79-1.96 1.527-.302-.34-.882-.568-1.962-.433-2.92.365-1.186 1.916-1.186 1.916l-3.466-1.186c-3.466-1.186-.365 5.564-.365 5.564s-1.551-.182-2.737-.091c-.87.067-.072 1.603.416 2.419-.292.105-.804.464-1.693 1.32-2.554 2.463 2.463 5.018 2.463 5.018v2.645c0 .733-.084.013.542.116-.063-.24.224.443.233-.116.046-2.69-.09-2.965-.41-3.101s-3.193-2.007-2.554-3.193c.638-1.186 1.14-2.052 1.596-2.098s.365-.501.228.958-.866 3.466-.137 1.687c.73-1.778.46-2.77 1.411-3.125s3.418-1.16 3.048-1.145c-.371.016-.645-.613-2.226.161s-1.644.775-1.644.775-2.064-1.162-.033-1.484 2.58-.42 2.58-.42-2.45-2.934-1.129-3.934c.997-.753 2.925-.408 3.816-.192-.155.051-.35.179-.59.45-.742.839-.774 1.032-.774 1.032s.71-.967 3.16-1.129c2.451-.16 2.483-.387 2.29-.387s-2.032.29-2.774-.064c-.741-.355-.29-1.806.387-1.645.678.162 2.129.42 2.129.42s-.194-2.193 1.354-1.516 2.322 2.74 2.322 2.74-1.354-.58-1.903.291c-.548.87-.548.904-.548.904s.549-1 2.065-.807c1.515.193 1.612.355 1.547.194-.064-.162-.419-2.452.645-2.806s.742-1.161 1.742.29.935 3.031.935 3.031-.935-.612-1.645.194-1.064 1.355-.741 1.032c.322-.322.806-1.161 1.741-.935s1.935.677 2.193 1.677.452 2.773.42 1.612c-.033-1.16.096-1.483-.388-2.515-.483-1.032.323-1.58.323-1.58s1.935-.613 1.258 2.58c-.678 3.192-.387 4.095-.387 4.095s2.515-.903 2.483 1.387-.806 2.644-.806 2.644-.903 1.806-1.194 1.064c-.29-.741 1.516-1.418.517-2.128-1-.709-2.097-1.548-1.323-.516s1 .387.355 1.968.58.709.742 2.418c.06.635 1.065.566.951.977 1.302-.27-1.248-2.689-.098-2.689 1.277 0 1.46-1.185 1.642-3.922.183-2.736-2.462-2.372-2.462-2.372s1.277-4.013-.274-5.929c-1.55-1.915-2.919.639-2.919.639s.547-2.007-1.368-3.831c-.36-.342-.7-.476-1.015-.467M39.598 92.262a.4.4 0 0 0-.152.054l.166-.012.021-.039a.1.1 0 0 0-.035-.003" style="display:inline;fill:#265519;fill-opacity:1;stroke-width:.600001;stroke-linecap:square;stroke-linejoin:bevel;stroke-dasharray:.600001,1.8" transform="translate(-2.65 -90.727)scale(3.20033)"/><path d="M52.895 72.415c-.308.008-.59.156-.845.373.12.098.235.153.339.136.526-.087.543-.332 1.244-.157.107.027.486.563.677.545a5 5 0 0 0-.401-.43c-.36-.342-.7-.476-1.014-.467m-4.826.01c-1.427.046-1.87.768-1.952 1.493.305.014.538-.013.63-.146.264-.38-.789-.585 1.082-1.257.087-.031.155-.058.24-.09m-3.2 1.058a4.5 4.5 0 0 0-.72.037c-2.92.365-1.186 1.916-1.186 1.916l-2.591-.886c.28.316.598.528 1.377.771 1.403.439 1.374.176 1.374 0 0-.175-.175-1.403.906-1.52.684-.074 1.483.085 2.045.117-.23-.237-.603-.413-1.205-.435" style="display:inline;fill:#62a324;fill-opacity:1;stroke-width:.600001;stroke-linecap:square;stroke-linejoin:bevel;stroke-dasharray:.600001,1.8" transform="translate(-2.65 -90.727)scale(3.20033)"/></g><path d="M268.368 133.11c-2.103.021-3.84 1.2-4.979 5.017-2.802 9.396-2.637 14.177-3.462 14.506-.824.33-9.89-4.945-11.045 2.308-1.153 7.253-4.286 14.177-1.648 20.77 2.638 6.595-4.869 6.962 4.692 6.797 9.561-.164 16.079 4.084 20.2-3.17s7.418-9.725 8.572-10.055c.71-.203 3.445.996 5.519 1.974v-32.063c-2.012-1.918-4.313-3.173-7.003-3.375-3.915-.294-7.772-2.738-10.846-2.708" style="display:inline;fill:#091305;fill-opacity:1;stroke-width:1.53348;stroke-linecap:square;stroke-linejoin:bevel;stroke-dasharray:1.53348,4.60042"/><path d="m266.192 133.346-2.638 2.638s9.89 27.364 6.594 30.002l-3.297 2.637s-4.286 2.968-4.286-6.264v-13.517s-3.297-.66-3.297.989c0 1.648 1.319 19.122.33 16.814-.99-2.308-1.32-9.56-3.297-10.55-1.979-.989-2.473.165-2.473.165s5.653 12.08 5.324 16.036c-.33 3.956-1.61 6.675-7.816-1.472-2.096-2.75-3.155-4.48-3.605-5.564l-.992.396s-4.808-5.885 2.116 6.644 20.66 1.473 17.337 8.903a6.4 6.4 0 0 0-.34 1.033h13.124c1.375-3.047 2.898-5.466 4.69-9.986.265-.67 1.683-3.179 3.392-6.141v-6.359l-.425.631s.148-2.004.425-4.957v-12.477h1.387c.525-5.497.166-7.952.166-7.952h-2.308s-1.319 27.364-5.935 26.375-9.56-4.945-10.22-12.528-3.956-15.496-3.956-15.496M247.73 165.26l2.305-.923s-3.555-2.087-2.305.923" style="display:inline;fill:#2f1f0e;fill-opacity:1;stroke-width:1.53348;stroke-linecap:square;stroke-linejoin:bevel;stroke-dasharray:1.53348,4.60042"/><path d="M288.906 159.979c-1.966.599-1.846.863-2.684 1.182-2.448.933-1.865 2.914-7.11 5.129-5.246 2.215-5.013.234-3.497 3.73 1.515 3.498-1.4 3.73-3.265 5.946-1.865 2.214.001 3.497 1.516 4.896 1.516 1.398-1.982 5.36-2.099 6.176-.116.816 1.4-.35 3.148-3.03 1.748-2.681-.816 5.129-1.749 7.11-.353.75-.824 1.166-1.385 1.489h4.037c2.197-10.903 4.581-12.115 7.847-20.357.45-1.135 1.975-6.732 5.241-12.271" style="display:inline;fill:#3a2611;fill-opacity:1;stroke-width:1.53348;stroke-linecap:square;stroke-linejoin:bevel;stroke-dasharray:1.53348,4.60042"/><path d="M259.343 151.262c.202 3.977 1.147 17.465.255 15.383-.99-2.308-1.32-9.56-3.297-10.55-1.379-.69-2.027-.34-2.3-.063l-.044.514c.096.208.412.895.958 2.15.273.52.399.817.923 1.727.889 1.544 1.17 1.404 1.216 2.9.007.236.022.495.034.748 1.182 3.17 2.209 6.482 2.064 8.225-.283 3.387-1.272 5.844-5.443 1.375.258.816.321 1.425 1.147 1.954 1.17.748 1.824 1.683 2.946 1.356s2.152-.842 4.678-.281 2.9 1.965 4.957 1.59c2.058-.374 1.497 6.175 5.099 1.45 3.601-4.723 4.724-12.254 4.63-16.183-.023-.976-.11-2.2-.228-3.484a12.7 12.7 0 0 1-2.852-2.183c-1.022 3.007-2.29 6.118-3.355 6.813-.1.601-.286 1.045-.583 1.283l-3.297 2.637s-4.286 2.968-4.286-6.264v-9.814a23.4 23.4 0 0 0-3.222-1.283" style="display:inline;fill:#26190b;fill-opacity:1;stroke-width:1.53348;stroke-linecap:square;stroke-linejoin:bevel;stroke-dasharray:1.53348,4.60042"/><path d="m268.23 139.309-3.04 1.425c2.655 7.944 7.39 23.306 4.958 25.252l-3.297 2.637s-4.286 2.968-4.286-6.264v-13.517s-3.297-.66-3.297.989c0 .622.186 3.613.366 6.829.035.04.066.06.092.05-.03.167-.046.309-.064.454.033.593.065 1.125.096 1.722.127.5.315 1.005.497 1.793.397 1.72.132 4.168.33 5.689.2 1.521-1.851 1.587 1.059 4.895s4.233 4.96 5.226 4.762c.992-.198 7.276-2.976 7.143-6.879-.132-3.903-3.373-12.502-3.77-15.015s-2.249-2.514-1.588-6.416c.232-1.37.445-2.86.638-4.283a60 60 0 0 0-1.063-4.123" style="display:inline;fill:#191107;fill-opacity:1;stroke:none;stroke-width:.779999"/><path d="m260.345 149.388 2.22 2.854v10.117c0 9.232 4.286 6.264 4.286 6.264l3.297-2.637c.276-.22.457-.619.562-1.156.119.34.056.666-.341 1.46-1.05 2.098-3.38 3.497-4.546 3.497s-1.982.815-3.497-2.099c-1.516-2.914-.7-5.244-1.049-7.46-.35-2.214-.932-10.84-.932-10.84" style="display:inline;fill:#0c0803;fill-opacity:1;stroke-width:1.53348;stroke-linecap:square;stroke-linejoin:bevel;stroke-dasharray:1.53348,4.60042"/><path d="M278.51 120.93c-.823-.036-1.887.17-3.252.712-5.327 2.11-6.909 5.747-7.337 8.27-.143-3.416-1.294-8.543-7.17-6.622-8.572 2.803-11.374 5.935-10.55 7.254.825 1.318 1.814 5.604 1.814 5.604s-5.935-2.307-9.232 1.484-1.154 9.396-1.154 9.396l.82 2.13c-1.142-2.588-3.272-5.812-5.106.838-1.966 7.126 1.378 8.115 3.21 8.157-1.707.224-4.858 1.133-4.858 4.866 0 5.11-.152 2.215-.66 3.956-1.154 3.956-2.637 1.319-2.143 4.121 1.027 5.82 3.132 9.726 8.572 5.11 5.44-4.615 3.297 2.638 4.451 5.11s9.397 7.254 7.748 2.144c-1.648-5.11-2.802-12.199-1.813-13.518s-1.814-11.704 2.472-13.352c4.287-1.649 9.397 3.132 10.716-.825s1.318-5.934 1.318-7.253 1.154-12.528 8.572-7.418c7.419 5.11 9.891 5.275 10.55 9.067.126.722.36 1.16.645 1.471v-27.69c-4.882.972-5.755 4.459-5.755 4.459s2.582-7.276-1.859-7.47" style="display:inline;fill:#12280c;fill-opacity:1;stroke-width:1.53348;stroke-linecap:square;stroke-linejoin:bevel;stroke-dasharray:1.53348,4.60042"/><path d="M284.469 139.612c-.56-.018-.35 2.677.185 4.284.21.628 1.001 1.356 2.03 2.072v-2.21c-.549-1.096-.952-2.478-1.7-3.653-.216-.34-.386-.489-.515-.493m-21.079 4.614c-1.32 6.924.743 6.91-4.444 8.834s-5.13 2.157-3.031.7 5.187-1.341 5.537-3.148 1.937-6.386 1.937-6.386m-16.566 25.444c-4.313 3.148-5.945 6.062-7.926 6.062-1.982 0-3.38-1.282-2.332-1.399 1.05-.116.233 2.448 3.963-1.049s6.295-3.613 6.295-3.613" style="display:inline;fill:#377a23;fill-opacity:1;stroke-width:1.53348;stroke-linecap:square;stroke-linejoin:bevel;stroke-dasharray:1.53348,4.60042"/><path d="M278.255 120.926c-.784.012-1.768.23-2.997.716-5.308 2.103-6.902 5.726-7.338 8.247-.147-3.416-1.306-8.515-7.168-6.599-8.573 2.803-11.375 5.935-10.55 7.254s1.813 5.605 1.813 5.605-5.935-2.308-9.232 1.483-1.153 9.396-1.153 9.396l.25.651c1.444 1.135 3.078 3.808 3.078 3.808s-.116-2.914 1.166-5.013 5.36-2.68 5.36-2.68-1.281-1.632-5.477.35c-1.057.498-1.647 1.005-1.947 1.486.033-1.259.162-3 .432-5.334.699-6.061 8.625-2.565 8.625-2.565s-1.456-8.304-1.485-8.916 2.884-1.603 9.645-4.284 5.595 5.275 5.77 5.566c.175.292-3.205 1.89-6.337 5.887-3.132 3.998 1.854-.577 4.945-3.215s5.88.766 8.212 2.981c2.33 2.215.115-.349-2.916-3.846-.793-.915-1.301-1.337-1.615-1.512.109-.125.226-.341.334-.703.7-2.33 3.73-5.712 6.177-7.693 2.448-1.982 3.498 2.097 3.848 4.895s-1.167 1.866-3.382 2.798c-2.214.933-2.447 1.515 2.216 1.399 2.858-.072 4.53 1.302 5.453 2.537a41 41 0 0 0-.907-1.372c-2.332-3.38-2.1-3.38-2.1-3.38s3.375-2.181 5.896-3.625v-1.425c-4.815.651-6.175 3.632-6.445 4.398.27-.807 2.331-7.365-2.17-7.295zm5.727 12.7c.332.524.584.952.75 1.26a7 7 0 0 0-.75-1.26m.75 1.26c.102.224.172.407.207.514.147.442.291.414-.207-.513m-44.843 11.18c-.833-.05-1.721.942-2.545 3.93-1.96 7.1 1.352 8.106 3.188 8.155-1.714.23-4.838 1.156-4.838 4.867 0 5.11-.151 2.216-.659 3.957-1.154 3.956-2.637 1.318-2.142 4.12.375 2.124.894 3.991 1.665 5.284.46-1.96 1.097-5.201 3.755-8.923.994-1.39 1.78-2.075 2.397-2.343a34 34 0 0 1-2.28-1.853c-2.913-2.564 2.68-4.547 3.963-5.362s-2.798-1.515-2.681-8.16c.046-2.623.874-2.899 1.86-2.275-.5-.772-1.076-1.362-1.683-1.398m.821 19.047c1.356 1.002 2.033 1.294 2.033 1.294s-.478-1.97-2.033-1.294m3.41-17.545c.253.44.536.73.372.771-.163.041-.296-.197-.373-.771" style="display:inline;fill:#679947;fill-opacity:1;stroke-width:1.53348;stroke-linecap:square;stroke-linejoin:bevel;stroke-dasharray:1.53348,4.60042"/><path d="M285.64 163.726s-4.313 3.847-4.547 4.546.932-.35 2.098-.7-.467 2.449-.467 2.449l-3.845.698-2.215 4.546 4.196-1.865s-1.748 3.031-2.331 3.264-1.865 1.632-1.865 1.632.116 1.865.698 1.865c.434 0-.553 3.873-1.47 7.44h1.128c1.877-6.542 3.964-8.584 6.645-15.35.298-.752 1.915-3.614 3.916-7.061l.04-.181z" style="display:inline;fill:#160e06;fill-opacity:1;stroke-width:1.53348;stroke-linecap:square;stroke-linejoin:bevel;stroke-dasharray:1.53348,4.60042"/><path d="M269.664 145.3c.209 1.17.381 2.357.484 3.541.66 7.583 5.605 11.54 10.22 12.529 2.178.467 3.62-5.38 4.538-11.686l.15.17c.35 3.964.116 5.596-.933 6.529s-1.165 4.778-1.165 4.778l-2.098 1.399s-2.099.467-4.896-1.631c-2.798-2.098-5.595-6.878-6.527-9.792-.488-1.524-.18-3.908.227-5.837" style="display:inline;fill:#130c06;fill-opacity:1;stroke-width:1.53348;stroke-linecap:square;stroke-linejoin:bevel;stroke-dasharray:1.53348,4.60042"/></g></svg>