<svg xmlns="http://www.w3.org/2000/svg" width="430" height="250" viewBox="0 0 113.771 66.146"><path d="M17.778 4.151h98.415a2.117 2.117 45 0 1 2.116 2.117v53.795a2.117 2.117 135 0 1-2.116 2.117H17.778a2.117 2.117 45 0 1-2.117-2.117V6.268a2.117 2.117 135 0 1 2.117-2.117" style="fill:#0c0c0b;fill-opacity:1;stroke-width:.324174" transform="translate(-10.378 -2.83)"/><path d="M8.621 4.812h95.972v50.764H8.621z" style="fill:#dcf4f0;fill-opacity:1;stroke-width:.293179"/><circle cx="58.064" cy="3.172" r=".567" style="fill:#58584c;fill-opacity:1;stroke:#000;stroke-width:.198872;stroke-opacity:1"/><path d="M12.757 62.268H121.59a1.06 1.06 45 0 1 1.059 1.058v3.545a1.06 1.06 135 0 1-1.059 1.058H12.757a1.06 1.06 45 0 1-1.059-1.058v-3.545a1.06 1.06 135 0 1 1.059-1.058" style="fill:#0d0d0b;fill-opacity:1;stroke:none;stroke-width:.263709;stroke-opacity:1" transform="matrix(1 0 0 .74077 -10.378 13.178)"/><path d="M1.714 62.815c.821.934 2.533 1.8 4.108 1.868 1.575.066 100.253 0 100.253 0s3.771-.198 4.691-.858 1.647-1.085 1.647-1.085z" style="fill:#000;fill-opacity:1;stroke:none;stroke-width:.268062;stroke-opacity:1"/><path d="M47.078 59.304v.98a1.323 1.323 0 0 0 1.323 1.324h16.79a1.323 1.323 0 0 0 1.322-1.323v-.981z" style="fill:#22221d;fill-opacity:1;stroke:none;stroke-width:.264583;stroke-opacity:1"/><path d="M18.68 11.699h76.609v33.964H18.68z" style="fill:#fff;fill-opacity:1;stroke:none;stroke-width:.268242;stroke-opacity:1"/><path d="M18.68 11.699h76.609v4.544H18.68z" style="fill:#e3e3e3;fill-opacity:1;stroke:none;stroke-width:.0981169;stroke-opacity:1"/><circle cx="20.853" cy="13.961" r=".521" style="fill:#d45b42;fill-opacity:1;stroke:none;stroke-width:.0340046;stroke-opacity:1"/><circle cx="22.512" cy="13.961" r=".521" style="fill:#d4b342;fill-opacity:1;stroke:none;stroke-width:.0340046;stroke-opacity:1"/><circle cx="24.197" cy="13.961" r=".521" style="fill:#76a13f;fill-opacity:1;stroke:none;stroke-width:.0340046;stroke-opacity:1"/></svg>