<svg xmlns="http://www.w3.org/2000/svg" xml:space="preserve" width="207mm" height="265mm" viewBox="0 0 207 265"><path d="M2.178 22.783h171.828v239.724H2.178z" style="fill:#a3cfdb;fill-opacity:1;stroke-width:.862872" transform="rotate(-6.365)"/><path d="M21.621 53.335h160.828v194.658H21.621z" style="fill:#b2b2b2;fill-opacity:1;stroke-width:.752655;stroke-dasharray:none"/><path d="M178.276 239.345c.323-13.5 1.11-26.988 2.358-40.434.495-5.328 1.044-10.836-.63-15.918-.837-2.541-2.244-4.93-4.258-6.691s-4.658-2.858-7.332-2.768c-2.375.081-4.716 1.122-6.313 2.882s-2.407 4.225-2.093 6.58c.313 2.355 1.767 4.547 3.851 5.688a7.24 7.24 0 0 0 3.414.89 7 7 0 0 0 3.417-.867 7 7 0 0 0 2.662-2.632 7.2 7.2 0 0 0 .941-3.627c-.014-1.552-.55-3.11-1.563-4.286s-2.51-1.945-4.061-1.995a5.1 5.1 0 0 0-2.265.447 4.76 4.76 0 0 0-1.805 1.433 4.5 4.5 0 0 0-.881 2.127c-.1.77.013 1.567.334 2.274a4.14 4.14 0 0 0 2.43 2.191 4.14 4.14 0 0 0 3.26-.294" style="display:inline;fill:none;fill-opacity:1;stroke:#4193a8;stroke-width:.720577;stroke-dasharray:none;stroke-opacity:1" transform="rotate(92.653 186.318 91.752)scale(.76744)"/><path d="M178.276 239.345c.323-13.5 1.11-26.988 2.358-40.434.495-5.328 1.044-10.836-.63-15.918-.837-2.541-2.244-4.93-4.258-6.691s-4.658-2.858-7.332-2.768c-2.375.081-4.716 1.122-6.313 2.882s-2.407 4.225-2.093 6.58c.313 2.355 1.767 4.547 3.851 5.688a7.24 7.24 0 0 0 3.414.89 7 7 0 0 0 3.417-.867 7 7 0 0 0 2.662-2.632 7.2 7.2 0 0 0 .941-3.627c-.014-1.552-.55-3.11-1.563-4.286s-2.51-1.945-4.061-1.995a5.1 5.1 0 0 0-2.265.447 4.76 4.76 0 0 0-1.805 1.433 4.5 4.5 0 0 0-.881 2.127c-.1.77.013 1.567.334 2.274a4.14 4.14 0 0 0 2.43 2.191 4.14 4.14 0 0 0 3.26-.294" style="display:inline;fill:none;fill-opacity:1;stroke:#4193a8;stroke-width:.720577;stroke-dasharray:none;stroke-opacity:1" transform="matrix(.03553 .76662 .76662 -.03553 -93 -90.119)"/><path d="M178.276 239.345c.323-13.5 1.11-26.988 2.358-40.434.495-5.328 1.044-10.836-.63-15.918-.837-2.541-2.244-4.93-4.258-6.691s-4.658-2.858-7.332-2.768c-2.375.081-4.716 1.122-6.313 2.882s-2.407 4.225-2.093 6.58c.313 2.355 1.767 4.547 3.851 5.688a7.24 7.24 0 0 0 3.414.89 7 7 0 0 0 3.417-.867 7 7 0 0 0 2.662-2.632 7.2 7.2 0 0 0 .941-3.627c-.014-1.552-.55-3.11-1.563-4.286s-2.51-1.945-4.061-1.995a5.1 5.1 0 0 0-2.265.447 4.76 4.76 0 0 0-1.805 1.433 4.5 4.5 0 0 0-.881 2.127c-.1.77.013 1.567.334 2.274a4.14 4.14 0 0 0 2.43 2.191 4.14 4.14 0 0 0 3.26-.294" style="display:inline;fill:none;fill-opacity:1;stroke:#4193a8;stroke-width:.720577;stroke-dasharray:none;stroke-opacity:1" transform="rotate(82.196 123.364 84.515)scale(.41927)"/><path d="M178.276 239.345c.323-13.5 1.11-26.988 2.358-40.434.495-5.328 1.044-10.836-.63-15.918-.837-2.541-2.244-4.93-4.258-6.691s-4.658-2.858-7.332-2.768c-2.375.081-4.716 1.122-6.313 2.882s-2.407 4.225-2.093 6.58c.313 2.355 1.767 4.547 3.851 5.688a7.24 7.24 0 0 0 3.414.89 7 7 0 0 0 3.417-.867 7 7 0 0 0 2.662-2.632 7.2 7.2 0 0 0 .941-3.627c-.014-1.552-.55-3.11-1.563-4.286s-2.51-1.945-4.061-1.995a5.1 5.1 0 0 0-2.265.447 4.76 4.76 0 0 0-1.805 1.433 4.5 4.5 0 0 0-.881 2.127c-.1.77.013 1.567.334 2.274a4.14 4.14 0 0 0 2.43 2.191 4.14 4.14 0 0 0 3.26-.294" style="display:inline;fill:none;fill-opacity:1;stroke:#4193a8;stroke-width:.720577;stroke-dasharray:none;stroke-opacity:1" transform="matrix(-.05693 .4154 .4154 .05693 1.654 -49.183)"/><path d="M178.276 239.345c.323-13.5 1.11-26.988 2.358-40.434.495-5.328 1.044-10.836-.63-15.918-.837-2.541-2.244-4.93-4.258-6.691s-4.658-2.858-7.332-2.768c-2.375.081-4.716 1.122-6.313 2.882s-2.407 4.225-2.093 6.58c.313 2.355 1.767 4.547 3.851 5.688a7.24 7.24 0 0 0 3.414.89 7 7 0 0 0 3.417-.867 7 7 0 0 0 2.662-2.632 7.2 7.2 0 0 0 .941-3.627c-.014-1.552-.55-3.11-1.563-4.286s-2.51-1.945-4.061-1.995a5.1 5.1 0 0 0-2.265.447 4.76 4.76 0 0 0-1.805 1.433 4.5 4.5 0 0 0-.881 2.127c-.1.77.013 1.567.334 2.274a4.14 4.14 0 0 0 2.43 2.191 4.14 4.14 0 0 0 3.26-.294" style="display:inline;fill:none;fill-opacity:1;stroke:#4193a8;stroke-width:.720577;stroke-dasharray:none;stroke-opacity:1" transform="matrix(-.0524 .19858 .19858 .0524 58.276 -9.918)"/><path d="M178.276 239.345c.323-13.5 1.11-26.988 2.358-40.434.495-5.328 1.044-10.836-.63-15.918-.837-2.541-2.244-4.93-4.258-6.691s-4.658-2.858-7.332-2.768c-2.375.081-4.716 1.122-6.313 2.882s-2.407 4.225-2.093 6.58c.313 2.355 1.767 4.547 3.851 5.688a7.24 7.24 0 0 0 3.414.89 7 7 0 0 0 3.417-.867 7 7 0 0 0 2.662-2.632 7.2 7.2 0 0 0 .941-3.627c-.014-1.552-.55-3.11-1.563-4.286s-2.51-1.945-4.061-1.995a5.1 5.1 0 0 0-2.265.447 4.76 4.76 0 0 0-1.805 1.433 4.5 4.5 0 0 0-.881 2.127c-.1.77.013 1.567.334 2.274a4.14 4.14 0 0 0 2.43 2.191 4.14 4.14 0 0 0 3.26-.294" style="display:inline;fill:none;fill-opacity:1;stroke:#4193a8;stroke-width:.720577;stroke-dasharray:none;stroke-opacity:1" transform="rotate(75.218 74.492 83.382)scale(.20538)"/><path d="M178.276 239.345c.323-13.5 1.11-26.988 2.358-40.434.495-5.328 1.044-10.836-.63-15.918-.837-2.541-2.244-4.93-4.258-6.691s-4.658-2.858-7.332-2.768c-2.375.081-4.716 1.122-6.313 2.882s-2.407 4.225-2.093 6.58c.313 2.355 1.767 4.547 3.851 5.688a7.24 7.24 0 0 0 3.414.89 7 7 0 0 0 3.417-.867 7 7 0 0 0 2.662-2.632 7.2 7.2 0 0 0 .941-3.627c-.014-1.552-.55-3.11-1.563-4.286s-2.51-1.945-4.061-1.995a5.1 5.1 0 0 0-2.265.447 4.76 4.76 0 0 0-1.805 1.433 4.5 4.5 0 0 0-.881 2.127c-.1.77.013 1.567.334 2.274a4.14 4.14 0 0 0 2.43 2.191 4.14 4.14 0 0 0 3.26-.294" style="display:inline;fill:none;fill-opacity:1;stroke:#4193a8;stroke-width:.720577;stroke-dasharray:none;stroke-opacity:1" transform="rotate(-104.783 57.867 36.579)scale(.2708)"/><path d="M178.276 239.345c.323-13.5 1.11-26.988 2.358-40.434.495-5.328 1.044-10.836-.63-15.918-.837-2.541-2.244-4.93-4.258-6.691s-4.658-2.858-7.332-2.768c-2.375.081-4.716 1.122-6.313 2.882s-2.407 4.225-2.093 6.58c.313 2.355 1.767 4.547 3.851 5.688a7.24 7.24 0 0 0 3.414.89 7 7 0 0 0 3.417-.867 7 7 0 0 0 2.662-2.632 7.2 7.2 0 0 0 .941-3.627c-.014-1.552-.55-3.11-1.563-4.286s-2.51-1.945-4.061-1.995a5.1 5.1 0 0 0-2.265.447 4.76 4.76 0 0 0-1.805 1.433 4.5 4.5 0 0 0-.881 2.127c-.1.77.013 1.567.334 2.274a4.14 4.14 0 0 0 2.43 2.191 4.14 4.14 0 0 0 3.26-.294" style="display:inline;fill:none;fill-opacity:1;stroke:#4193a8;stroke-width:.720577;stroke-dasharray:none;stroke-opacity:1" transform="scale(.2708 -.2708)rotate(75.217 531.554 185.001)"/></svg>