<?xml version="1.0" encoding="UTF-8" standalone="no"?>
<!-- Created with Inkscape (http://www.inkscape.org/) -->

<svg
   width="400"
   height="200"
   viewBox="0 0 105.83333 52.916652"
   version="1.1"
   id="svg1"
   inkscape:version="1.4 (86a8ad7, 2024-10-11)"
   sodipodi:docname="overcurtain.svg"
   xmlns:inkscape="http://www.inkscape.org/namespaces/inkscape"
   xmlns:sodipodi="http://sodipodi.sourceforge.net/DTD/sodipodi-0.dtd"
   xmlns="http://www.w3.org/2000/svg"
   xmlns:svg="http://www.w3.org/2000/svg">
  <sodipodi:namedview
     id="namedview1"
     pagecolor="#505050"
     bordercolor="#eeeeee"
     borderopacity="1"
     inkscape:showpageshadow="0"
     inkscape:pageopacity="0"
     inkscape:pagecheckerboard="0"
     inkscape:deskcolor="#505050"
     inkscape:document-units="mm"
     inkscape:zoom="0.98646752"
     inkscape:cx="46.124174"
     inkscape:cy="263.05985"
     inkscape:window-width="1920"
     inkscape:window-height="1001"
     inkscape:window-x="-9"
     inkscape:window-y="-9"
     inkscape:window-maximized="1"
     inkscape:current-layer="layer2" />
  <defs
     id="defs1" />
  <g
     inkscape:label="Layer 1"
     inkscape:groupmode="layer"
     id="layer1"
     style="display:none">
    <path
       style="fill:#af9469;fill-opacity:1;stroke:none;stroke-width:1.104"
       d="m 11.912464,383.46642 c 0,-2.27587 -3.1883269,-106.56987 0.604776,-161.94917 1.737956,-25.37416 3.413793,-42.48276 3.413793,-42.48276 0,0 -14.0344819,-47.03449 -14.4137929,-90.275871 C 1.1336911,45.034193 2.6551711,1.1779692 2.6551711,1.1779692 H 103.55172 c 0,0 0.85971,68.9900298 -4.931028,100.4772008 -6.06897,33.00001 -12.89656,46.27587 -24.65518,59.93103 -9.00945,10.4626 -26.551719,21.6207 -26.551719,21.6207 0,0 11.417429,65.97304 11.796739,94.42132 0.37931,28.44828 -0.999875,104.22892 -0.999875,104.22892 z"
       id="path1"
       sodipodi:nodetypes="cscsccsscscc" />
    <path
       style="fill:#866e48;fill-opacity:1;stroke:none;stroke-width:1.104"
       d="m 9.9489195,26.343685 c 0.5364235,4.291406 0.2689815,96.981155 4.3183625,120.579415 4.036672,23.52418 6.084755,33.54962 6.084755,33.54962 0,0 -4.67861,-45.54065 -5.751464,-66.99768 C 13.527722,92.018007 15.58139,26.709517 15.58139,26.709517 Z"
       id="path3"
       sodipodi:nodetypes="cscscc" />
    <path
       style="fill:#866e48;fill-opacity:1;stroke:none;stroke-width:1.104"
       d="m 24.658559,181.19881 c 0,0 6.03479,-55.11776 5.230152,-79.52514 -0.80464,-24.407374 0.597557,-69.343524 0.597557,-69.343524 l 6.418048,1.87422 c 0,0 -2.187774,79.807104 -3.797052,98.313794 -1.609278,18.50669 -8.448705,48.68065 -8.448705,48.68065 z"
       id="path4"
       sodipodi:nodetypes="csccsc" />
    <path
       style="fill:#866e48;fill-opacity:1;stroke:none;stroke-width:1.104"
       d="m 28.287212,181.98877 c 0,0 18.367959,-30.64394 22.540372,-60.23015 4.172413,-29.586207 4.153353,-88.610078 4.153353,-88.610078 l 7.965516,-0.379309 c 0,0 -3.394731,94.299727 -13.256799,114.023877 -9.862069,19.72413 -21.402442,35.19566 -21.402442,35.19566 z"
       id="path5"
       sodipodi:nodetypes="csccsc" />
    <path
       style="fill:#866e48;fill-opacity:1;stroke:none;stroke-width:1.104"
       d="m 34.04601,180.66238 c 0,0 26.955402,-18.10437 36.611062,-49.21707 9.65567,-31.1127 11.330021,-98.482077 11.330021,-98.482077 l 4.29141,-0.80464 c 0,0 -3.015421,86.412497 -13.743941,106.796677 -10.72852,20.38418 -17.70205,26.55308 -24.139161,32.18555 -6.437109,5.63248 -14.349391,9.52156 -14.349391,9.52156 z"
       id="path6"
       sodipodi:nodetypes="csccssc" />
    <rect
       style="fill:#866e48;fill-opacity:1;stroke:none;stroke-width:1.104"
       id="rect6"
       width="51.765095"
       height="9.3874521"
       x="18.557409"
       y="175.81769"
       transform="rotate(5.9579146)" />
    <circle
       style="fill:#bda884;fill-opacity:1;stroke:none;stroke-width:0.744"
       id="path7"
       cx="5.4051728"
       cy="182.06897"
       r="2.9396553" />
    <path
       style="fill:#866e48;fill-opacity:1;stroke:none;stroke-width:1.104"
       d="m 19.344827,187.37931 c 0,0 -4.172413,64.86207 -4.172413,101.27586 0,36.4138 1.137931,93.68967 1.137931,93.68967 l -0.100494,1.08651 1.877491,-0.13412 c 0,0 -1.877491,-57.66578 -1.877491,-67.32143 0,-9.65568 -0.134107,-52.43563 0.80464,-70.00358 0.938744,-17.56794 2.614819,-57.92911 2.614819,-57.92911 z"
       id="path8" />
    <path
       style="fill:#866e48;fill-opacity:1;stroke:none;stroke-width:1.104"
       d="m 24.086205,188.51724 c 0,0 -2.655173,122.13792 -2.844826,135.03448 -0.189656,12.89656 -0.474139,59.59914 -0.474139,59.59914 l 1.943966,-0.0474 c 0,0 1.185344,-64.48277 1.185344,-85.72414 0,-21.24138 0.189655,-77 0.568967,-85.34482 0.37931,-8.34483 0.662414,-23.45983 0.662414,-23.45983 z"
       id="path9" />
    <path
       style="fill:#866e48;fill-opacity:1;stroke:none;stroke-width:1.104"
       d="m 31.7662,382.49261 c 0,0 -2.145702,-64.90753 -1.072851,-99.507 1.072851,-34.59947 -2.145702,-95.4838 -2.145702,-95.4838 l 1.877488,0.26821 c 0,0 2.950342,73.49034 2.682129,93.06988 -0.268211,19.57954 1.609278,102.45733 1.609278,102.45733 z"
       id="path10" />
    <path
       style="fill:#866e48;fill-opacity:1;stroke:none;stroke-width:1.104"
       d="m 36.862247,189.3793 c 0,0 5.096044,38.35444 7.241749,66.5168 2.145702,28.16236 2.950339,84.21886 2.145702,94.41095 -0.804638,10.19209 -1.877492,32.45376 -1.877492,32.45376 l 2.950343,-0.53644 c 0,0 2.682128,-82.34135 1.072853,-102.18911 -1.609278,-19.84775 -8.582813,-79.65923 -8.851027,-81.53672 -0.268213,-1.87749 -2.682128,-9.11924 -2.682128,-9.11924 z"
       id="path11" />
  </g>
  <g
     inkscape:groupmode="layer"
     id="layer2"
     inkscape:label="Layer 2"
     style="display:inline"
     transform="translate(0.56896551,-41.30479)">
    <path
       style="fill:#58482f;fill-opacity:1;stroke:none;stroke-width:1.104"
       d="m 1.4756581,41.958121 c 0,0 5.689657,42.862068 49.3103449,44.379309 48.149269,1.674758 53.103447,-43.999999 53.103447,-43.999999 z"
       id="path2"
       sodipodi:nodetypes="cscc" />
    <rect
       style="fill:#58482f;fill-opacity:1;stroke:none;stroke-width:1.104"
       id="rect12"
       width="1.0431035"
       height="16.310345"
       x="5.363585"
       y="54.57019" />
    <circle
       style="fill:#58482f;fill-opacity:1;stroke:none;stroke-width:1.104"
       id="circle12"
       cx="5.7428956"
       cy="72.587425"
       r="2.5603449" />
    <rect
       style="fill:#58482f;fill-opacity:1;stroke:none;stroke-width:1.104"
       id="rect13"
       width="1.0431035"
       height="16.310345"
       x="13.007654"
       y="65.432816" />
    <circle
       style="fill:#58482f;fill-opacity:1;stroke:none;stroke-width:1.104"
       id="circle13"
       cx="13.386965"
       cy="83.45005"
       r="2.5603449" />
    <rect
       style="fill:#58482f;fill-opacity:1;stroke:none;stroke-width:1.104"
       id="rect14"
       width="1.0431035"
       height="16.310345"
       x="87.623016"
       y="69.207199" />
    <circle
       style="fill:#58482f;fill-opacity:1;stroke:none;stroke-width:1.104"
       id="circle14"
       cx="88.002319"
       cy="87.224426"
       r="2.5603449" />
    <rect
       style="fill:#58482f;fill-opacity:1;stroke:none;stroke-width:1.104"
       id="rect15"
       width="1.0431035"
       height="16.310345"
       x="95.21492"
       y="61.342567" />
    <circle
       style="fill:#58482f;fill-opacity:1;stroke:none;stroke-width:1.104"
       id="circle15"
       cx="95.594223"
       cy="79.359802"
       r="2.5603449" />
  </g>
</svg>
