<svg xmlns="http://www.w3.org/2000/svg" width="694.701" height="950.52" viewBox="0 0 183.807 251.492"><g style="display:inline"><path d="M2.943 110.02v232.09H170.5V111.15Z" style="display:inline;fill:#a0a0a0;fill-opacity:1;stroke:#575757;stroke-width:.5;stroke-linecap:round;stroke-linejoin:round;stroke-dasharray:none;stroke-opacity:1;paint-order:markers fill stroke" transform="translate(6.138 -96.066)"/><path d="M-.831 124.737s-2.822-10.066-2.292-17.837c.511-7.502 7.104-7.164 7.104-7.164l166.33.66s6.688 3.04 6.209 15.53l-.572 14.887s-24.217-18.136-92.245-18.53c-62.496-.36-84.534 12.454-84.534 12.454" style="display:inline;fill:#a0a0a0;fill-opacity:1;stroke:#575757;stroke-width:.5;stroke-linecap:round;stroke-linejoin:round;stroke-dasharray:none;stroke-opacity:1;paint-order:markers fill stroke" transform="translate(6.138 -96.066)"/><path d="M3.181 342.05s-1.473-.2-1.788-4.773l-.69-10.043s42.62 7.705 88.66 7.705 81.515-2.641 83.024-5.66 1.216 12.518-2.557 13.65c-3.774 1.132-19.728 1.822-19.728 1.822z" style="display:inline;fill:#a0a0a0;fill-opacity:1;stroke:#575757;stroke-width:.499999;stroke-linecap:round;stroke-linejoin:round;stroke-dasharray:none;stroke-opacity:1;paint-order:markers fill stroke" transform="translate(6.138 -96.066)"/></g><circle cx="93.478" cy="24.697" r="2.806" style="display:inline;fill:#616161;fill-opacity:1;stroke:#575757;stroke-width:.499999;stroke-linecap:round;stroke-linejoin:round;stroke-dasharray:none;stroke-opacity:1;paint-order:markers fill stroke"/></svg>