<?xml version="1.0" encoding="UTF-8" standalone="no"?>
<!-- Created with Inkscape (http://www.inkscape.org/) -->

<svg
   width="694.70099"
   height="950.52002"
   viewBox="0 0 183.80663 251.49233"
   version="1.1"
   id="svg1"
   inkscape:version="1.3 (0e150ed6c4, 2023-07-21)"
   sodipodi:docname="plakat-day.svg"
   xmlns:inkscape="http://www.inkscape.org/namespaces/inkscape"
   xmlns:sodipodi="http://sodipodi.sourceforge.net/DTD/sodipodi-0.dtd"
   xmlns="http://www.w3.org/2000/svg"
   xmlns:svg="http://www.w3.org/2000/svg">
  <sodipodi:namedview
     id="namedview1"
     pagecolor="#505050"
     bordercolor="#eeeeee"
     borderopacity="1"
     inkscape:showpageshadow="0"
     inkscape:pageopacity="0"
     inkscape:pagecheckerboard="0"
     inkscape:deskcolor="#505050"
     inkscape:document-units="mm"
     inkscape:zoom="0.5"
     inkscape:cx="322"
     inkscape:cy="503"
     inkscape:window-width="1920"
     inkscape:window-height="1001"
     inkscape:window-x="-9"
     inkscape:window-y="-9"
     inkscape:window-maximized="1"
     inkscape:current-layer="layer2" />
  <defs
     id="defs1" />
  <g
     inkscape:groupmode="layer"
     id="layer3"
     inkscape:label="plakat-night"
     transform="translate(6.1375431,-96.065892)"
     style="display:inline">
    <path
       style="display:inline;fill:#a0a0a0;fill-opacity:1;stroke:#575757;stroke-width:0.5;stroke-linecap:round;stroke-linejoin:round;stroke-dasharray:none;stroke-opacity:1;paint-order:markers fill stroke"
       d="M 2.9427503,110.01924 V 342.10945 H 170.50056 V 111.15139 Z"
       id="path3-2" />
    <path
       style="display:inline;fill:#a0a0a0;fill-opacity:1;stroke:#575757;stroke-width:0.5;stroke-linecap:round;stroke-linejoin:round;stroke-dasharray:none;stroke-opacity:1;paint-order:markers fill stroke"
       d="m -0.83107436,124.73716 c 0,0 -2.82169904,-10.0662 -2.29192704,-17.83688 0.511445,-7.501873 7.1035537,-7.164713 7.1035537,-7.164713 L 170.31187,100.39599 c 0,0 6.68742,3.0395 6.20785,15.52957 l -0.57164,14.88765 c 0,0 -24.21723,-18.13658 -92.245484,-18.52967 -62.495361,-0.36112 -84.53367036,12.45362 -84.53367036,12.45362 z"
       id="path1-2"
       sodipodi:nodetypes="csccscsc" />
    <path
       style="display:inline;fill:#a0a0a0;fill-opacity:1;stroke:#575757;stroke-width:0.499999;stroke-linecap:round;stroke-linejoin:round;stroke-dasharray:none;stroke-opacity:1;paint-order:markers fill stroke"
       d="m 3.1811533,342.05026 c 0,0 -1.473198,-0.19963 -1.7878267,-4.7736 L 0.70249864,327.23359 c 0,0 42.62017536,7.7056 88.66083836,7.7056 46.040653,0 81.514603,-2.64168 83.024133,-5.66074 1.50953,-3.01906 1.21586,12.51837 -2.55797,13.65052 -3.77382,1.13214 -19.72723,1.82216 -19.72723,1.82216 z"
       id="path4-7"
       sodipodi:nodetypes="cscssscc" />
  </g>
  <g
     inkscape:groupmode="layer"
     id="layer2"
     inkscape:label="plakat-day"
     style="display:inline">
    <path
       style="fill:#ffffff;fill-opacity:1;stroke:#878787;stroke-width:0.5;stroke-linecap:round;stroke-linejoin:round;stroke-dasharray:none;stroke-opacity:1;paint-order:markers fill stroke"
       d="M 8.8929263,14.024497 V 246.11471 H 176.45074 V 15.156644 Z"
       id="path3" />
    <path
       style="fill:#ffffff;stroke:#878787;stroke-width:0.5;stroke-linecap:round;stroke-linejoin:round;stroke-dasharray:none;stroke-opacity:1;paint-order:markers fill stroke"
       d="m 5.1191013,28.742412 c 0,0 -2.821699,-10.066196 -2.291927,-17.836875 0.511445,-7.5018783 7.103554,-7.1647123 7.103554,-7.1647123 l 166.3313217,0.66042 c 0,0 6.68742,3.039496 6.20785,15.5295733 l -0.57164,14.887644 c 0,0 -24.21723,-18.136577 -92.245488,-18.52967 C 27.157411,15.92767 5.1191013,28.742412 5.1191013,28.742412 Z"
       id="path1"
       sodipodi:nodetypes="csccscsc" />
    <path
       style="fill:#ffffff;fill-opacity:1;stroke:#878787;stroke-width:0.499999;stroke-linecap:round;stroke-linejoin:round;stroke-dasharray:none;stroke-opacity:1;paint-order:markers fill stroke"
       d="m 9.1313293,246.05552 c 0,0 -1.473198,-0.19963 -1.787827,-4.7736 l -0.690828,-10.04307 c 0,0 42.6201757,7.7056 88.6608387,7.7056 46.040657,0 81.514607,-2.64168 83.024137,-5.66074 1.50953,-3.01906 1.21586,12.51837 -2.55797,13.65052 -3.77382,1.13214 -19.72723,1.82216 -19.72723,1.82216 z"
       id="path4"
       sodipodi:nodetypes="cscssscc" />
  </g>
  <g
     inkscape:label="Layer 1"
     inkscape:groupmode="layer"
     id="layer1">
    <path
       id="path2"
       style="display:none;fill:none;stroke:#bc995c;stroke-width:1.60224;stroke-linecap:round;stroke-linejoin:round;stroke-dasharray:none;paint-order:markers fill stroke"
       d="M 398.89214,266.80828 398.13962,54.249849 M 247.3742,280.77253 c 0,0 145.85832,1.50956 158.68933,0.3774 12.831,-1.13215 1.13215,-16.41614 1.13215,-16.41614 0,0 -11.74267,10.42208 -79.41461,9.97692 -67.67193,-0.44516 -84.55808,-17.90196 -84.55808,-17.90196 0,0 10.2147,8.67895 11.81261,15.16297 1.64892,6.69096 -5.07208,11.13032 -13.88821,6.91391 -17.35959,-8.30241 -14.71792,-50.56925 -14.71792,-50.56925 V 41.889452 c 0,0 9.43457,-18.869122 15.47269,-7.170265 6.03812,11.698856 -4.15121,27.926302 -4.15121,27.926302 0,0 51.11406,-26.184597 95.64519,-25.429832 44.53113,0.754764 54.93042,10.334533 64.36498,15.99527 9.43456,5.660737 13.96315,15.095299 13.96315,15.095299 0,0 5.23385,-35.057045 -11.69886,-37.738246 -51.85626,-8.211151 -163.78399,-10e-7 -163.78399,-10e-7" />
    <circle
       style="display:inline;fill:#616161;fill-opacity:1;stroke:#575757;stroke-width:0.499999;stroke-linecap:round;stroke-linejoin:round;stroke-dasharray:none;stroke-opacity:1;paint-order:markers fill stroke"
       id="path5"
       cx="93.477852"
       cy="24.696646"
       r="2.80633" />
  </g>
</svg>
