<svg xmlns="http://www.w3.org/2000/svg" width="793.701" height="750.52" viewBox="0 0 210 198.575"><path d="M34.517 119.103h133.897V172.8a6.615 6.615 135 0 1-6.615 6.615H41.132a6.615 6.615 45 0 1-6.615-6.615z" style="fill:#757575;fill-opacity:1;stroke:none;stroke-width:7" transform="matrix(1.5081 0 0 1.34714 -48.262 -68.35)"/><path d="M16.482 44.603h178.944l10.297 48.64H3.897Z" style="fill:#8a8a8a;stroke-width:8.56562"/><path d="M43.264 21.738H165.68v50.911H43.264z" style="fill:#1f1f1f;fill-opacity:1;stroke:none;stroke-width:9.32765"/><path d="M57.851 3.376h94.386V72.65H57.851z" style="fill:#fff;fill-opacity:1;stroke:none;stroke-width:9.88922"/><path d="M43.264 147.252H165.68v26.314H43.264z" style="fill:#1f1f1f;fill-opacity:1;stroke:none;stroke-width:6.70588"/><path d="M57.85 157.892h94.387l16.875 34.952H41.262Z" style="fill:#fff;stroke-width:7.02443"/><circle cx="17.737" cy="104.184" r="2.074" style="fill:#9b3838;fill-opacity:1;stroke:none;stroke-width:4.78352"/><circle cx="24.744" cy="104.184" r="2.074" style="fill:#4a9b38;fill-opacity:1;stroke:none;stroke-width:4.78352"/></svg>