<svg xmlns="http://www.w3.org/2000/svg" xml:space="preserve" width="207mm" height="265mm" viewBox="0 0 207 265"><path d="M2.178 22.783h171.828v239.724H2.178z" style="fill:#daeac7;fill-opacity:1;stroke-width:.2;stroke:none;stroke-opacity:1;stroke-dasharray:none" transform="rotate(-6.365)"/><path d="M21.621 53.335h160.828v194.658H21.621z" style="fill:#f8fbf4;fill-opacity:1;stroke-width:1;stroke-dasharray:none;stroke:none;stroke-opacity:1"/><path d="M178.276 239.345c.323-13.5 1.11-26.988 2.358-40.434.495-5.328 1.044-10.836-.63-15.918-.837-2.541-2.244-4.93-4.258-6.691s-4.658-2.858-7.332-2.768c-2.375.081-4.716 1.122-6.313 2.882s-2.407 4.225-2.093 6.58c.313 2.355 1.767 4.547 3.851 5.688a7.24 7.24 0 0 0 3.414.89 7 7 0 0 0 3.417-.867 7 7 0 0 0 2.662-2.632 7.2 7.2 0 0 0 .941-3.627c-.014-1.552-.55-3.11-1.563-4.286s-2.51-1.945-4.061-1.995a5.1 5.1 0 0 0-2.265.447 4.76 4.76 0 0 0-1.805 1.433 4.5 4.5 0 0 0-.881 2.127c-.1.77.013 1.567.334 2.274a4.14 4.14 0 0 0 2.43 2.191 4.14 4.14 0 0 0 3.26-.294" style="fill:none;fill-opacity:1;stroke:#90bb64;stroke-width:.72057684;stroke-dasharray:none;stroke-opacity:1" transform="rotate(-5.64 724.327 -403.604)scale(.76744)"/><path d="M178.276 239.345c.323-13.5 1.11-26.988 2.358-40.434.495-5.328 1.044-10.836-.63-15.918-.837-2.541-2.244-4.93-4.258-6.691s-4.658-2.858-7.332-2.768c-2.375.081-4.716 1.122-6.313 2.882s-2.407 4.225-2.093 6.58c.313 2.355 1.767 4.547 3.851 5.688a7.24 7.24 0 0 0 3.414.89 7 7 0 0 0 3.417-.867 7 7 0 0 0 2.662-2.632 7.2 7.2 0 0 0 .941-3.627c-.014-1.552-.55-3.11-1.563-4.286s-2.51-1.945-4.061-1.995a5.1 5.1 0 0 0-2.265.447 4.76 4.76 0 0 0-1.805 1.433 4.5 4.5 0 0 0-.881 2.127c-.1.77.013 1.567.334 2.274a4.14 4.14 0 0 0 2.43 2.191 4.14 4.14 0 0 0 3.26-.294" style="fill:none;fill-opacity:1;stroke:#90bb64;stroke-width:.72057684;stroke-dasharray:none;stroke-opacity:1" transform="matrix(.0891 .76225 .76225 -.0891 -.988 123.95)"/><path d="M64.091 127.03s-7.778-5.498-1.34-12.74l6.437-7.242s7.51 8.986 4.56 13.411c-2.951 4.426-9.657 6.571-9.657 6.571" style="fill:#559046;fill-opacity:1;stroke-width:.775999" transform="rotate(-142.411 58.593 22.008)scale(.21212)"/><path d="M64.695 125.12c-.287-.875.035-1.726.201-2.582.03-.155.038-.314.067-.47.027-.146.074-.289.1-.436.07-.382-.002-.188.068-.469.055-.222.223-.478.302-.67.08-.197.12-.408.2-.604.142-.343.36-.65.537-.972.06-.11.104-.228.168-.335.21-.358.513-.66.737-1.006.055-.084.084-.182.134-.268.107-.183.234-.352.336-.537.022-.04.018-.09.033-.134.14-.406.344-.844.436-1.274.024-.113.055-.44.067-.536a9 9 0 0 1 .201-1.073c.11-.437.235-.895.302-1.341.018-.122.014-.247.034-.37.025-.157.07-.311.1-.469.039-.202.047-.4.067-.603.006-.057.023-.112.034-.168.022-.056.058-.108.067-.167.035-.25.033-.418.033-.637 0-.11-.035-.297 0-.403.005-.015.029-.018.034-.033.017-.051 0-.147 0-.201" style="fill:none;fill-opacity:1;stroke:#98c575;stroke-width:.176;stroke-dasharray:none;stroke-opacity:1" transform="rotate(-142.411 58.593 22.008)scale(.21212)"/><path d="M67.88 115.631c.525-.965 1.024-2.09 1.911-2.816.142-.116.25-.065.335-.235m-4.928 8.415c.777-1.195.682-1.349 1.777-2.078.208-.14.777-.311 1.073-.403.088-.027.185-.025.268-.067.014-.007.022-.022.033-.033.045-.022.087-.051.134-.067.022-.007.046.006.068 0 .778-.234 3.269-.448 3.72-.56m-4.994-.647c-.414-1.334-1.012-2.585-1.576-3.856m-.805 8.818c-.078-.436-.105-.884-.235-1.308-.152-.499-.44-.76-.804-1.073-.107-.091-.276-.175-.369-.268-.018-.017-.022-.044-.034-.067-.033-.022-.072-.038-.1-.067-.008-.008.008-.025 0-.033-.029-.029-.068-.043-.1-.067-.145-.109-.302-.357-.302-.537" style="fill:none;fill-opacity:1;stroke:#98c575;stroke-width:.176;stroke-dasharray:none;stroke-opacity:1" transform="rotate(-142.411 58.593 22.008)scale(.21212)"/><path d="M32.145 60.958s-7.779-5.499-1.342-12.74l6.438-7.242s7.51 8.985 4.56 13.41-9.656 6.572-9.656 6.572" style="fill:#559046;fill-opacity:1;stroke-width:.775999" transform="rotate(38.148 17.893 163.744)scale(.26029)"/><path d="M32.748 59.047c-.287-.875.035-1.726.201-2.582.03-.155.038-.314.067-.47.027-.146.074-.288.1-.435.07-.382-.002-.189.068-.47.055-.221.223-.478.302-.67.08-.196.12-.407.2-.603.142-.343.36-.65.537-.973.06-.11.104-.227.168-.335.21-.357.513-.659.737-1.006.055-.084.084-.182.135-.268.106-.182.233-.352.335-.536.022-.04.018-.09.033-.134.14-.406.344-.845.436-1.274.024-.114.055-.44.067-.537a9 9 0 0 1 .201-1.073c.11-.436.235-.894.302-1.34.018-.123.014-.248.034-.37.025-.158.07-.312.1-.469.039-.202.047-.4.067-.603.006-.057.023-.112.034-.168.022-.056.058-.108.067-.168.035-.249.033-.417.033-.637 0-.11-.035-.297 0-.402.005-.015.029-.019.034-.034.017-.05 0-.146 0-.2" style="fill:none;fill-opacity:1;stroke:#98c575;stroke-width:.176;stroke-dasharray:none;stroke-opacity:1" transform="rotate(38.148 17.893 163.744)scale(.26029)"/><path d="M35.933 49.559c.525-.965 1.025-2.091 1.911-2.816.142-.116.25-.066.335-.235m-4.929 8.415c.778-1.195.683-1.349 1.778-2.079.208-.138.777-.31 1.073-.402.088-.027.185-.026.268-.067.014-.007.022-.022.033-.033.045-.023.087-.052.135-.068.02-.007.045.007.067 0 .778-.233 3.269-.447 3.72-.56m-4.994-.646c-.414-1.335-1.011-2.585-1.576-3.856m-.804 8.818c-.08-.436-.106-.885-.236-1.308-.152-.499-.44-.76-.804-1.073-.107-.092-.276-.175-.369-.268-.018-.018-.022-.045-.033-.067-.034-.023-.073-.039-.101-.067-.008-.008.008-.026 0-.034-.029-.028-.068-.043-.1-.067-.145-.108-.302-.357-.302-.536" style="fill:none;fill-opacity:1;stroke:#98c575;stroke-width:.176;stroke-dasharray:none;stroke-opacity:1" transform="rotate(38.148 17.893 163.744)scale(.26029)"/><g transform="rotate(36.802 55.994 180.057)scale(.68307)"><circle cx="16.892" cy="66.235" r="2.099" style="fill:#ffffa1;fill-opacity:1;stroke-width:.373324"/><ellipse cx="16.915" cy="60.875" rx="1.62" ry="3.992" style="fill:#d7b2f2;fill-opacity:1;stroke-width:.409;stroke-dasharray:none"/><ellipse cx="45.715" cy="45.952" rx="1.62" ry="3.992" style="fill:#d7b2f2;fill-opacity:1;stroke-width:.409;stroke-dasharray:none" transform="rotate(27.139)"/><ellipse cx="66.495" cy="12.727" rx="1.62" ry="3.992" style="fill:#d7b2f2;fill-opacity:1;stroke-width:.409;stroke-dasharray:none" transform="rotate(60.394)"/><ellipse cx="68.842" cy="-14.05" rx="1.62" ry="3.992" style="fill:#d7b2f2;fill-opacity:1;stroke-width:.409;stroke-dasharray:none" transform="rotate(83.084)"/><ellipse cx="52.06" cy="-50.865" rx="1.62" ry="3.992" style="fill:#d7b2f2;fill-opacity:1;stroke-width:.409;stroke-dasharray:none" transform="rotate(117.635)"/><ellipse cx="8.522" cy="-73.244" rx="1.62" ry="3.992" style="fill:#d7b2f2;fill-opacity:1;stroke-width:.409;stroke-dasharray:none" transform="rotate(159.173)"/><ellipse cx="-29.087" cy="-66.908" rx="1.62" ry="3.992" style="fill:#d7b2f2;fill-opacity:1;stroke-width:.409;stroke-dasharray:none" transform="rotate(-168.274)"/><ellipse cx="-61.136" cy="-35.013" rx="1.62" ry="3.992" style="fill:#d7b2f2;fill-opacity:1;stroke-width:.409;stroke-dasharray:none" transform="rotate(-129.91)"/><ellipse cx="-66.716" cy="7.549" rx="1.62" ry="3.992" style="fill:#d7b2f2;fill-opacity:1;stroke-width:.409;stroke-dasharray:none" transform="rotate(-93.3)"/><ellipse cx="-47.712" cy="43.295" rx="1.62" ry="3.992" style="fill:#d7b2f2;fill-opacity:1;stroke-width:.409;stroke-dasharray:none" transform="rotate(-58.72)"/><ellipse cx="-13.642" cy="61.717" rx="1.62" ry="3.992" style="fill:#d7b2f2;fill-opacity:1;stroke-width:.409;stroke-dasharray:none" transform="rotate(-25.63)"/></g><path d="M28.878 81.01s-7.778-5.498-1.341-12.74l6.437-7.242s7.51 8.985 4.56 13.41-9.656 6.572-9.656 6.572" style="fill:#559046;fill-opacity:1;stroke-width:.775999" transform="rotate(61.143 78.669 163.896)scale(.42748)"/><path d="M29.482 79.099c-.288-.875.035-1.725.2-2.582.03-.155.039-.314.068-.469.027-.147.074-.29.1-.436.07-.382-.003-.189.067-.47.056-.221.224-.478.302-.67.08-.196.12-.407.201-.603.141-.343.36-.65.537-.972.06-.11.104-.228.167-.336.21-.357.514-.659.738-1.006.054-.083.084-.181.134-.268.106-.182.234-.351.335-.536.023-.04.019-.09.034-.134.14-.406.344-.844.436-1.274.024-.113.055-.44.067-.537a9 9 0 0 1 .2-1.073c.11-.436.236-.894.303-1.34.018-.123.014-.248.033-.37.025-.157.07-.312.1-.469.04-.202.048-.4.068-.603.005-.057.022-.112.033-.168.023-.056.059-.108.067-.168.036-.249.034-.417.034-.637 0-.11-.035-.297 0-.402.005-.015.028-.018.033-.033.018-.052 0-.147 0-.202" style="fill:none;fill-opacity:1;stroke:#98c575;stroke-width:.176;stroke-dasharray:none;stroke-opacity:1" transform="rotate(61.143 78.669 163.896)scale(.42748)"/><path d="M32.667 69.61c.525-.964 1.024-2.09 1.91-2.815.142-.116.251-.066.336-.235m-4.929 8.415c.777-1.195.683-1.349 1.777-2.078.209-.14.777-.312 1.073-.403.088-.027.186-.026.268-.067.015-.007.023-.022.034-.033.045-.023.087-.052.134-.067.021-.008.046.006.067 0 .779-.234 3.27-.448 3.721-.561m-4.995-.646c-.414-1.335-1.01-2.585-1.576-3.856m-.804 8.818c-.079-.436-.106-.884-.235-1.308-.152-.499-.44-.76-.805-1.073-.107-.092-.275-.175-.368-.268-.018-.018-.023-.045-.034-.067-.033-.022-.072-.039-.1-.067-.008-.008.007-.026 0-.034-.029-.028-.069-.043-.101-.067-.144-.108-.302-.357-.302-.536" style="fill:none;fill-opacity:1;stroke:#98c575;stroke-width:.176;stroke-dasharray:none;stroke-opacity:1" transform="rotate(61.143 78.669 163.896)scale(.42748)"/><path d="M39.774 117.398s-7.778-5.498-1.34-12.74l6.436-7.242s7.51 8.985 4.56 13.41-9.656 6.572-9.656 6.572" style="fill:#559046;fill-opacity:1;stroke-width:.775999" transform="matrix(.0481 .3355 .30846 -.0375 112.475 35.458)"/><path d="M40.378 115.487c-.288-.875.035-1.725.2-2.582.031-.155.04-.314.068-.469.027-.147.074-.29.1-.436.07-.382-.002-.189.068-.47.055-.221.223-.478.301-.67.08-.196.12-.407.202-.603.14-.343.358-.65.536-.973.06-.109.104-.227.168-.335.21-.357.513-.659.737-1.006.054-.083.084-.181.134-.268.107-.182.234-.351.336-.536.022-.04.018-.09.033-.134.14-.406.344-.844.436-1.274.024-.113.055-.44.067-.537a9 9 0 0 1 .201-1.073c.11-.436.235-.894.302-1.34.018-.123.014-.248.033-.37.026-.157.071-.312.101-.469.039-.202.047-.4.067-.603.006-.057.022-.112.034-.168.022-.056.058-.108.067-.168.035-.249.033-.417.033-.637 0-.11-.035-.297 0-.402.005-.015.029-.018.034-.033.017-.052 0-.147 0-.202" style="fill:none;fill-opacity:1;stroke:#98c575;stroke-width:.176;stroke-dasharray:none;stroke-opacity:1" transform="matrix(.0481 .3355 .30846 -.0375 112.475 35.458)"/><path d="M43.563 105.999c.525-.965 1.024-2.091 1.91-2.816.143-.116.251-.066.336-.235m-4.929 8.415c.778-1.195.683-1.349 1.778-2.078.208-.14.777-.312 1.072-.403.089-.027.186-.026.269-.067.014-.007.022-.022.033-.033.045-.023.087-.052.134-.067.022-.007.046.006.067 0 .779-.234 3.27-.448 3.722-.561m-4.995-.646c-.415-1.335-1.012-2.585-1.576-3.856m-.805 8.818c-.078-.436-.106-.884-.235-1.308-.152-.499-.44-.76-.804-1.073-.107-.092-.276-.175-.37-.268-.017-.018-.022-.045-.033-.067-.033-.023-.072-.039-.1-.067-.008-.008.008-.026 0-.034-.029-.028-.069-.043-.1-.067-.145-.108-.303-.356-.303-.536" style="fill:none;fill-opacity:1;stroke:#98c575;stroke-width:.176;stroke-dasharray:none;stroke-opacity:1" transform="matrix(.0481 .3355 .30846 -.0375 112.475 35.458)"/><g transform="rotate(36.802 61.339 212.848)scale(.68307)"><circle cx="50.918" cy="29.812" r="3.069" style="fill:#ffffa1;fill-opacity:1;stroke-width:.545899"/><ellipse cx="50.951" cy="21.974" rx="2.368" ry="5.837" style="fill:#a0cdd0;fill-opacity:1;stroke-width:.597646"/><ellipse cx="59.598" cy="-4.425" rx="2.368" ry="5.837" style="fill:#a0cdd0;fill-opacity:1;stroke-width:.597646" transform="rotate(27.139)"/><ellipse cx="51.897" cy="-37.305" rx="2.368" ry="5.837" style="fill:#a0cdd0;fill-opacity:1;stroke-width:.597646" transform="rotate(60.394)"/><ellipse cx="37.269" cy="-54.644" rx="2.368" ry="5.837" style="fill:#a0cdd0;fill-opacity:1;stroke-width:.597646" transform="rotate(83.084)"/><ellipse cx="4.572" cy="-66.508" rx="2.368" ry="5.837" style="fill:#a0cdd0;fill-opacity:1;stroke-width:.597646" transform="rotate(117.635)"/><ellipse cx="-35.879" cy="-53.762" rx="2.368" ry="5.837" style="fill:#a0cdd0;fill-opacity:1;stroke-width:.597646" transform="rotate(159.173)"/><ellipse cx="-54.579" cy="-26.868" rx="2.368" ry="5.837" style="fill:#a0cdd0;fill-opacity:1;stroke-width:.597646" transform="rotate(-168.274)"/><ellipse cx="-54.793" cy="11.923" rx="2.368" ry="5.837" style="fill:#a0cdd0;fill-opacity:1;stroke-width:.597646" transform="rotate(-129.91)"/><ellipse cx="-32.136" cy="41.07" rx="2.368" ry="5.837" style="fill:#a0cdd0;fill-opacity:1;stroke-width:.597646" transform="rotate(-93.3)"/><ellipse cx="1.141" cy="50.905" rx="2.368" ry="5.837" style="fill:#a0cdd0;fill-opacity:1;stroke-width:.597646" transform="rotate(-58.72)"/><ellipse cx="32.687" cy="41.141" rx="2.368" ry="5.837" style="fill:#a0cdd0;fill-opacity:1;stroke-width:.597646" transform="rotate(-25.63)"/></g><path d="M40.027 82.281s-7.778-5.498-1.34-12.74l6.436-7.242s7.51 8.986 4.56 13.411c-2.95 4.426-9.656 6.571-9.656 6.571" style="fill:#559046;fill-opacity:1;stroke-width:.775999" transform="rotate(67.475 94.77 128.483)scale(.6971)"/><path d="M40.63 80.37c-.286-.874.036-1.725.202-2.581.03-.155.038-.314.067-.47.027-.146.074-.289.1-.435.07-.383-.002-.19.068-.47.055-.222.223-.478.302-.67.08-.197.12-.408.2-.604.142-.342.36-.65.537-.972.06-.11.104-.228.168-.335.21-.358.513-.66.737-1.006.055-.084.084-.182.134-.268.107-.183.234-.352.336-.537.022-.04.018-.09.033-.134.14-.406.344-.844.436-1.274.024-.113.055-.44.067-.536a9 9 0 0 1 .201-1.073c.11-.436.235-.895.302-1.341.018-.122.014-.247.034-.37.025-.157.07-.311.1-.468.039-.203.047-.401.067-.604.006-.057.023-.112.034-.168.022-.055.058-.108.067-.167.035-.25.033-.417.033-.637 0-.11-.035-.297 0-.403.005-.015.029-.018.034-.033.017-.051 0-.147 0-.201" style="fill:none;fill-opacity:1;stroke:#98c575;stroke-width:.176;stroke-dasharray:none;stroke-opacity:1" transform="rotate(67.475 94.77 128.483)scale(.6971)"/><path d="M43.816 70.882c.525-.964 1.024-2.09 1.911-2.816.142-.116.25-.065.335-.235m-4.928 8.416c.777-1.196.682-1.35 1.777-2.08.208-.138.777-.31 1.073-.401.088-.028.185-.026.268-.068.014-.007.022-.022.033-.033.045-.022.087-.051.134-.067.022-.007.046.006.067 0 .779-.234 3.27-.448 3.722-.56m-4.996-.648c-.413-1.333-1.01-2.584-1.575-3.855m-.805 8.818c-.078-.436-.105-.884-.235-1.308-.152-.498-.44-.76-.804-1.073-.107-.091-.276-.175-.369-.268-.018-.017-.022-.044-.034-.067-.033-.022-.072-.038-.1-.067-.008-.008.008-.025 0-.033-.029-.029-.068-.043-.1-.067-.145-.109-.302-.357-.302-.537" style="fill:none;fill-opacity:1;stroke:#98c575;stroke-width:.176;stroke-dasharray:none;stroke-opacity:1" transform="rotate(67.475 94.77 128.483)scale(.6971)"/><path d="M48.97 102.788s-7.778-5.498-1.341-12.74l6.437-7.241s7.51 8.985 4.56 13.41-9.656 6.571-9.656 6.571" style="fill:#559046;fill-opacity:1;stroke-width:.775999" transform="rotate(-153.62 73.33 44.118)scale(.68306)"/><path d="M50.257 100.867c-.287-.875.036-1.726.201-2.582.03-.155.039-.314.067-.47.027-.146.074-.288.1-.435.07-.382-.002-.189.068-.47.055-.221.223-.478.302-.67.08-.196.12-.407.2-.603.142-.343.36-.65.537-.973.06-.11.105-.227.168-.335.21-.357.513-.659.738-1.006.054-.084.083-.182.134-.268.106-.182.233-.352.335-.536.022-.04.018-.09.033-.134.14-.406.344-.845.436-1.274.025-.114.055-.44.067-.537a9 9 0 0 1 .201-1.073c.11-.436.235-.894.302-1.34.019-.123.014-.248.034-.37.025-.158.07-.312.1-.469.039-.203.047-.401.067-.603.006-.057.023-.112.034-.168.022-.056.058-.108.067-.168.036-.249.033-.417.033-.637 0-.11-.035-.297 0-.402.005-.015.029-.019.034-.034.017-.05 0-.146 0-.2" style="fill:none;fill-opacity:1;stroke:#98c575;stroke-width:.176;stroke-dasharray:none;stroke-opacity:1" transform="rotate(-153.62 73.33 44.118)scale(.68306)"/><path d="M53.442 91.379c.525-.965 1.025-2.091 1.911-2.816.142-.116.25-.066.335-.235m-4.928 8.415c.777-1.195.682-1.349 1.777-2.079.208-.139.777-.31 1.073-.402.088-.027.186-.026.268-.067.014-.007.022-.022.034-.034.044-.022.086-.05.134-.067.02-.007.045.007.067 0 .778-.233 3.269-.447 3.721-.56m-4.995-.647c-.414-1.334-1.011-2.585-1.576-3.855m-.805 8.818c-.078-.436-.105-.885-.234-1.308-.153-.499-.44-.76-.805-1.073-.107-.092-.276-.175-.369-.268-.018-.018-.022-.045-.033-.067-.034-.023-.072-.039-.1-.067-.009-.008.007-.026 0-.034-.03-.028-.07-.043-.102-.067-.144-.108-.301-.357-.301-.536" style="fill:none;fill-opacity:1;stroke:#98c575;stroke-width:.176;stroke-dasharray:none;stroke-opacity:1" transform="rotate(-153.62 73.33 44.118)scale(.68306)"/><path d="M65.529 87.503s-7.779-5.498-1.342-12.74l6.438-7.242s7.51 8.985 4.56 13.41-9.656 6.572-9.656 6.572" style="fill:#559046;fill-opacity:1;stroke-width:.775999" transform="rotate(-68.901 73.545 -28.384)scale(.44458)"/><path d="M66.132 85.592c-.287-.875.035-1.725.201-2.582.03-.155.038-.313.067-.469.027-.147.074-.289.1-.436.07-.382-.002-.189.068-.47.055-.22.223-.478.302-.67.08-.196.12-.407.2-.603.142-.343.36-.65.537-.972.06-.11.104-.228.168-.336.21-.357.513-.659.737-1.005.055-.084.084-.182.134-.269.107-.182.234-.351.336-.536.022-.04.018-.09.033-.134.14-.406.344-.844.436-1.274.024-.113.055-.44.067-.537a9 9 0 0 1 .201-1.072c.11-.437.235-.895.302-1.342.018-.122.014-.246.034-.368.025-.158.07-.313.1-.47.039-.202.047-.4.067-.603.006-.057.023-.112.034-.168.022-.056.058-.108.067-.167.035-.25.033-.418.033-.637 0-.11-.035-.298 0-.403.005-.015.029-.018.034-.033.017-.052 0-.147 0-.201" style="fill:none;fill-opacity:1;stroke:#98c575;stroke-width:.176;stroke-dasharray:none;stroke-opacity:1" transform="rotate(-68.901 73.545 -28.384)scale(.44458)"/><path d="M69.317 76.104c.525-.965 1.024-2.09 1.911-2.816.142-.116.25-.065.335-.235m-4.928 8.415c.777-1.195.682-1.349 1.777-2.078.208-.14.777-.312 1.073-.403.088-.027.185-.026.268-.067.014-.007.022-.022.033-.033.045-.023.087-.052.134-.067.022-.007.046.006.068 0 .778-.234 3.269-.448 3.72-.561m-4.994-.646c-.414-1.334-1.012-2.585-1.576-3.856m-.805 8.818c-.078-.436-.105-.884-.235-1.308-.152-.499-.44-.76-.804-1.073-.107-.091-.276-.175-.369-.268-.018-.018-.022-.045-.033-.067-.034-.022-.073-.039-.101-.067-.008-.008.008-.026 0-.034-.029-.028-.068-.042-.1-.067-.145-.108-.302-.356-.302-.536" style="fill:none;fill-opacity:1;stroke:#98c575;stroke-width:.176;stroke-dasharray:none;stroke-opacity:1" transform="rotate(-68.901 73.545 -28.384)scale(.44458)"/><g transform="rotate(36.802 61.365 199.57)scale(.68306)"><circle cx="26.083" cy="42.455" r="4.362" style="fill:#ffffa1;fill-opacity:1;stroke-width:.775999"/><ellipse cx="26.13" cy="31.314" rx="3.366" ry="8.297" style="fill:#ea8686;fill-opacity:1;stroke-width:.849558"/><ellipse cx="43.554" cy="14.897" rx="3.366" ry="8.297" style="fill:#ea8686;fill-opacity:1;stroke-width:.849558" transform="rotate(27.139)"/><ellipse cx="50.967" cy="-12.739" rx="3.366" ry="8.297" style="fill:#ea8686;fill-opacity:1;stroke-width:.849558" transform="rotate(60.394)"/><ellipse cx="47.479" cy="-31.708" rx="3.366" ry="8.297" style="fill:#ea8686;fill-opacity:1;stroke-width:.849558" transform="rotate(83.084)"/><ellipse cx="28.041" cy="-53.562" rx="3.366" ry="8.297" style="fill:#ea8686;fill-opacity:1;stroke-width:.849558" transform="rotate(117.635)"/><ellipse cx="-7.703" cy="-60.035" rx="3.366" ry="8.297" style="fill:#ea8686;fill-opacity:1;stroke-width:.849558" transform="rotate(159.173)"/><ellipse cx="-32.269" cy="-47.677" rx="3.366" ry="8.297" style="fill:#ea8686;fill-opacity:1;stroke-width:.849558" transform="rotate(-168.274)"/><ellipse cx="-48.245" cy="-18.613" rx="3.366" ry="8.297" style="fill:#ea8686;fill-opacity:1;stroke-width:.849558" transform="rotate(-129.91)"/><ellipse cx="-43.094" cy="12.157" rx="3.366" ry="8.297" style="fill:#ea8686;fill-opacity:1;stroke-width:.849558" transform="rotate(-93.3)"/><ellipse cx="-22.483" cy="32.835" rx="3.366" ry="8.297" style="fill:#ea8686;fill-opacity:1;stroke-width:.849558" transform="rotate(-58.72)"/><ellipse cx="4.69" cy="38.526" rx="3.366" ry="8.297" style="fill:#ea8686;fill-opacity:1;stroke-width:.849558" transform="rotate(-25.63)"/></g><text xml:space="preserve" x="-130.589" y="126.517" style="font-size:20.2309px;text-align:start;writing-mode:lr-tb;direction:ltr;text-anchor:start;fill:none;fill-opacity:1;stroke:#708d52;stroke-width:1.27439;stroke-dasharray:none;stroke-opacity:1" transform="translate(148.104 -54.668)scale(.68306)"><tspan x="-130.589" y="126.517" style="text-align:center;text-anchor:middle;stroke-width:1.27439;fill:none;fill-opacity:1">BOOK</tspan><tspan x="-130.589" y="151.806" style="text-align:center;text-anchor:middle;stroke-width:1.27439;fill:none;fill-opacity:1">REVIEW</tspan></text></svg>