<svg xmlns="http://www.w3.org/2000/svg" width="1422.52" height="400" viewBox="0 0 376.375 105.833"><path d="M376.276 0H.379l19.345 53.483v52.345h356.552z" style="baseline-shift:baseline;display:inline;overflow:visible;vector-effect:none;fill:#3c2b0c;stop-color:#000;stop-opacity:1"/><path d="M366.28 9.862H13.41l15.93 42.862v43.242h336.94z" style="fill:#2f2109;stroke-width:.662696"/><path d="M-371.724 48.172h347.448v8.724h-347.448z" style="fill:#3c2b0c;fill-opacity:1;stroke-width:.756041" transform="scale(-1 1)"/><path d="M-366.309 12.539h9.71V48.16h-9.71z" style="display:inline;fill:#423931;fill-opacity:1;stroke-width:1.19601" transform="scale(-1 1)"/><path d="M-363.375 16.133h4.169v2.861h-4.169z" style="display:inline;fill:#5f544b;fill-opacity:1;stroke-width:.945927" transform="scale(-1 1)"/><path d="M-303.372 60.348h9.71v35.621h-9.71z" style="display:inline;fill:#a98b90;fill-opacity:1;stroke-width:1.19601" transform="scale(-1 1)"/><path d="M-300.55 63.582h4.169v2.861h-4.169z" style="display:inline;fill:#62484d;fill-opacity:1;stroke-width:.945927" transform="scale(-1 1)"/><path d="M-293.662 61.62h9.71v34.349h-9.71z" style="display:inline;fill:#747848;fill-opacity:1;stroke-width:1.17447" transform="scale(-1 1)"/><path d="M-290.667 64.391h4.169v2.861h-4.169z" style="display:inline;fill:#585b37;fill-opacity:1;stroke-width:.945927" transform="scale(-1 1)"/><path d="M-283.952 60.695h9.71v35.274h-9.71z" style="display:inline;fill:#353922;fill-opacity:1;stroke-width:1.19017" transform="scale(-1 1)"/><path d="M-281.189 63.582h4.169v2.861h-4.169z" style="display:inline;fill:#272919;fill-opacity:1;stroke-width:.945927" transform="scale(-1 1)"/><path d="M-274.172 60.695h9.71v35.274h-9.71z" style="display:inline;fill:#1c212e;fill-opacity:1;stroke-width:1.19017" transform="scale(-1 1)"/><path d="M-271.408 63.582h4.169v2.861h-4.169z" style="display:inline;fill:#343d56;fill-opacity:1;stroke-width:.945927" transform="scale(-1 1)"/><path d="M-264.69 58.946h9.71v37.023h-9.71z" style="display:inline;fill:#5f5560;fill-opacity:1;stroke-width:1.21932" transform="scale(-1 1)"/><path d="M-262.008 62.419h4.169v2.861h-4.169z" style="display:inline;fill:#3f3840;fill-opacity:1;stroke-width:.945927" transform="scale(-1 1)"/><path d="M-255.174 60.043h9.83v35.968h-9.83z" style="display:inline;fill:#4a9264;fill-opacity:1;stroke-width:1.20925" transform="scale(-1 1)"/><path d="M-245.374 63.394h6.978v32.617h-6.978z" style="display:inline;fill:#7b7b61;fill-opacity:1;stroke-width:.970172" transform="scale(-1 1)"/><path d="M-238.448 69.606h5.324v26.405h-5.324z" style="display:inline;fill:#7b617b;fill-opacity:1;stroke-width:.762486" transform="scale(-1 1)"/><path d="M-233.101 66.909h3.199v29.102h-3.199z" style="display:inline;fill:#80832f;fill-opacity:1;stroke-width:.620484" transform="scale(-1 1)"/><path d="M-237.66 31.04h4.834v29.102h-4.834z" style="display:inline;fill:#8c0932;fill-opacity:1;stroke-width:.762724" transform="scale(-1 1)rotate(-8.947)"/><path d="M-233.869 23.484h3.279v28.938h-3.279z" style="display:inline;fill:#90904c;fill-opacity:1;stroke-width:.626415" transform="scale(-1 1)rotate(-10.993)"/><path d="M-204.948 88.591h31.071v7.363h-31.071z" style="display:inline;fill:#619fab;fill-opacity:1;stroke-width:1.07211" transform="scale(-1 1)"/><path d="M205.107 89.54h-29.603v5.499h29.603s-.12-1.516-.12-2.821c0-1.45.12-2.677.12-2.677" style="display:inline;fill:#d6d3c7;stroke-width:.989792"/><path d="M-200.461 82.527h23.008v6.226h-23.008z" style="display:inline;fill:#6c4f0a;fill-opacity:1;stroke-width:.84837" transform="scale(-1 1)"/><path d="M200.58 83.33h-21.922v4.65h21.921s-.088-1.282-.088-2.386c0-1.225.088-2.264.088-2.264" style="display:inline;fill:#d6d3c7;stroke-width:.783226"/><path d="M-196.339 78.142h17.563v4.331h-17.563z" style="display:inline;fill:#705377;fill-opacity:1;stroke-width:.886611" transform="scale(-1 1)"/><path d="M-195.35 73.773h18.614v4.331h-18.614z" style="display:inline;fill:#7fcbc3;fill-opacity:1;stroke-width:.912746" transform="scale(-1 1)"/><path d="M-124.256 122.31h5.324v26.405h-5.324z" style="display:inline;fill:#c8ccb0;fill-opacity:1;stroke-width:.762486" transform="scale(-1 1)rotate(21.045)"/><path d="M-126.233 104.807h4.526v34.415h-4.526z" style="display:inline;fill:#617b65;fill-opacity:1;stroke-width:.802573" transform="scale(-1 1)rotate(17.606)"/><path d="M-128.892 103.055h5.324v26.405h-5.324z" style="display:inline;fill:#3861a4;fill-opacity:1;stroke-width:.762486" transform="scale(-1 1)rotate(13.788)"/><path d="M-154.152 12.739h9.71v35.274h-9.71z" style="display:inline;fill:#606a36;fill-opacity:1;stroke-width:1.19017" transform="scale(-1 1)"/><path d="M-151.388 15.626h4.169v2.861h-4.169z" style="display:inline;fill:#495029;fill-opacity:1;stroke-width:.945927" transform="scale(-1 1)"/><path d="M-144.425 9.893h8.239v38.135h-8.239z" style="display:inline;fill:#643c59;fill-opacity:1;stroke-width:1.13989" transform="scale(-1 1)"/><path d="M-142.397 13.025h4.169v2.861h-4.169z" style="display:inline;fill:#4e2f45;fill-opacity:1;stroke-width:.945927" transform="scale(-1 1)"/><path d="M-136.204 61.468h5.185v34.495h-5.185z" style="display:inline;fill:#3f9cb9;fill-opacity:1;stroke-width:.86005" transform="scale(-1 1)"/><path d="M-131.138 59.329h5.185v36.634h-5.185z" style="display:inline;fill:#213961;fill-opacity:1;stroke-width:.886306" transform="scale(-1 1)"/><path d="M-125.894 64.282h4.059v31.681h-4.059z" style="display:inline;fill:#39a79e;fill-opacity:1;stroke-width:.729273" transform="scale(-1 1)"/><path d="M-121.778 62.257h6.269v33.742h-6.269z" style="display:inline;fill:#f2d384;fill-opacity:1;stroke-width:.935296" transform="scale(-1 1)"/><path d="M-115.453 61.331h5.178v34.69h-5.178z" style="display:inline;fill:#13605e;fill-opacity:1;stroke-width:.86193" transform="scale(-1 1)"/><path d="M-110.199 65.629h5.178v30.392h-5.178z" style="display:inline;fill:#3e8366;fill-opacity:1;stroke-width:.806768" transform="scale(-1 1)"/><path d="M-105.104 58.227h5.178v37.795h-5.178z" style="display:inline;fill:#da9cb8;fill-opacity:1;stroke-width:.899674" transform="scale(-1 1)"/><path d="M-102.469 60.216h2.814v31.426h-2.814z" style="display:inline;fill:#8ae8aa;fill-opacity:1;stroke-width:.604788" transform="scale(-1 1)rotate(-2.525)"/><path d="M-100.904 58.271h2.814v31.426h-2.814z" style="display:inline;fill:#525781;fill-opacity:1;stroke-width:.604788" transform="scale(-1 1)rotate(-3.735)"/><path d="M-92.154 65.239h3.9v30.63h-3.9z" style="display:inline;fill:#6d2b3d;fill-opacity:1;stroke-width:.702846" transform="matrix(-1 -.00169 -.00342 1 0 0)"/><path d="M-95.474 51.042h3.287v33.677h-3.287z" style="display:inline;fill:#8197cd;fill-opacity:1;stroke-width:.676638" transform="scale(-1 1)rotate(-7.237)"/><path d="M-71.352 67.5h7.79v28.724h-7.79z" style="display:inline;fill:#91d07c;fill-opacity:1;stroke-width:.96199" transform="scale(-1 1)"/><path d="M-63.336 61.031h4.407V96.02h-4.407z" style="display:inline;fill:#444b3b;fill-opacity:1;stroke-width:.798593" transform="scale(-1 1)"/><path d="M-58.95 58.227h5.178v37.795h-5.178z" style="display:inline;fill:#b7c1b5;fill-opacity:1;stroke-width:.899674" transform="scale(-1 1)"/><path d="M-53.997 63.405h5.497v32.616h-5.497z" style="display:inline;fill:#605bda;fill-opacity:1;stroke-width:.861089" transform="scale(-1 1)"/><path d="M-48.723 65.313h3.9v30.63h-3.9z" style="display:inline;fill:#334019;fill-opacity:1;stroke-width:.702846" transform="matrix(-1 -.00169 -.00342 1 0 0)"/><path d="M-44.458 60.472h7.79v35.752h-7.79z" style="display:inline;fill:#de846e;fill-opacity:1;stroke-width:1.07324" transform="scale(-1 1)"/><path d="M-36.685 64.428h7.318v31.593h-7.318z" style="display:inline;fill:#214457;fill-opacity:1;stroke-width:.977832" transform="scale(-1 1)"/><path d="M-356.511 16.674h5.725v31.38h-5.725z" style="display:inline;fill:#7b9cd2;fill-opacity:1;stroke-width:.861982" transform="scale(-1 1)"/><path d="M-350.723 14.858h4.253v33.196h-4.253z" style="display:inline;fill:#39a79e;fill-opacity:1;stroke-width:.764158" transform="scale(-1 1)"/><path d="M-346.411 12.737h6.569v35.356h-6.569z" style="display:inline;fill:#c9f9e7;fill-opacity:1;stroke-width:.980036" transform="scale(-1 1)"/><path d="M-339.782 11.696h5.426v36.42h-5.426z" style="display:inline;fill:#8f9772;fill-opacity:1;stroke-width:.904039" transform="scale(-1 1)"/><path d="M-334.277 21.525h5.426v26.591h-5.426z" style="display:inline;fill:#3e8366;fill-opacity:1;stroke-width:.772473" transform="scale(-1 1)"/><path d="M-328.939 16.604h5.426v31.512h-5.426z" style="display:inline;fill:#c4b2ba;fill-opacity:1;stroke-width:.840919" transform="scale(-1 1)"/><path d="M-323.652 1.008h2.949v32.929h-2.949z" style="display:inline;fill:#bff3d0;fill-opacity:1;stroke-width:.633719" transform="scale(-1 1)rotate(-2.525)"/><path d="M-320.653-5.582h2.949v32.929h-2.949z" style="display:inline;fill:#6a6a6a;fill-opacity:1;stroke-width:.633719" transform="scale(-1 1)rotate(-3.735)"/><path d="M-315.189 15.492h4.086v32.095h-4.086z" style="display:inline;fill:#d99dae;fill-opacity:1;stroke-width:.736463" transform="matrix(-1 -.00169 -.00342 1 0 0)"/><path d="M-310.502 45.751h37.467v2.209h-37.467z" style="display:inline;fill:#53b864;fill-opacity:1;stroke-width:.92489" transform="scale(-1 1)"/><path d="M-307.518 39.871h32.129v3.836h-32.129z" style="display:inline;fill:#bdbcc9;fill-opacity:1;stroke-width:1.12853" transform="scale(-1 1)"/><path d="M-306.998 31.53h28.907v3.919h-28.907z" style="display:inline;fill:#306474;fill-opacity:1;stroke-width:1.08202" transform="scale(-1 1)"/><path d="M-309.07 27.651h25.706v3.919h-25.706z" style="display:inline;fill:#dd5a5a;fill-opacity:1;stroke-width:1.02037" transform="scale(-1 1)"/><path d="M-306.068 22.207h27.718v5.381h-27.718z" style="display:inline;fill:#3b5662;fill-opacity:1;stroke-width:1.24148" transform="scale(-1 1)"/><path d="M-308.541 43.582h37.467v2.209h-37.467z" style="display:inline;fill:#47536a;fill-opacity:1;stroke-width:.92489" transform="scale(-1 1)"/><path d="M-305.872 35.45h28.907v4.503h-28.907z" style="display:inline;fill:#66762e;fill-opacity:1;stroke-width:1.15983" transform="scale(-1 1)"/><path d="M-270.703 17.684h4.618v30.165h-4.618z" style="display:inline;fill:#a8a390;fill-opacity:1;stroke-width:.759027" transform="scale(-1 1)"/><path d="M-266.019 22.85h5.433v24.939h-5.433z" style="display:inline;fill:#edd0ef;fill-opacity:1;stroke-width:.74857" transform="scale(-1 1)"/><path d="M-260.711 20.609h5.433V47.79h-5.433z" style="display:inline;fill:#213961;fill-opacity:1;stroke-width:.781483" transform="scale(-1 1)"/><path d="M-255.216 14.593h4.253v33.196h-4.253z" style="display:inline;fill:#39a79e;fill-opacity:1;stroke-width:.764158" transform="scale(-1 1)"/><path d="M-250.904 9.994h6.569v37.833h-6.569z" style="display:inline;fill:#f3d68d;fill-opacity:1;stroke-width:1.01379" transform="scale(-1 1)"/><path d="M-244.275 11.501h5.426v36.35h-5.426z" style="display:inline;fill:#607750;fill-opacity:1;stroke-width:.903165" transform="scale(-1 1)"/><path d="M-203.861 40.499h27.817v7.513h-27.817z" style="display:inline;fill:#1d5263;fill-opacity:1;stroke-width:1.02474" transform="scale(-1 1)"/><path d="M204.06 41.468H178.3v5.611h25.76s-.104-1.546-.104-2.879c0-1.478.104-2.732.104-2.732" style="display:inline;fill:#d6d3c7;stroke-width:.932694"/><path d="M-199.249 34.311h19.556v6.353h-19.556z" style="display:inline;fill:#55342b;fill-opacity:1;stroke-width:.790093" transform="scale(-1 1)"/><path d="M199.29 35.131h-17.688v4.745h17.688s-.072-1.308-.072-2.435c0-1.25.072-2.31.072-2.31" style="display:inline;fill:#d6d3c7;stroke-width:.710711"/><path d="M-196.453 29.837h15.409v4.42h-15.409z" style="display:inline;fill:#d495b4;fill-opacity:1;stroke-width:.838919" transform="scale(-1 1)"/><path d="M-193.829 25.306h15.147v4.42h-15.147z" style="display:inline;fill:#26461d;fill-opacity:1;stroke-width:.831762" transform="scale(-1 1)"/><path d="M-201.773 81.472h4.086v32.095h-4.086z" style="display:inline;fill:#5b6cb2;fill-opacity:1;stroke-width:.736463" transform="matrix(-.95266 .30404 .3024 .95318 0 0)"/><path d="M-194.433 105.892h4.086v32.095h-4.086z" style="display:inline;fill:#42bfcb;fill-opacity:1;stroke-width:.736463" transform="matrix(-.91173 .4108 .40922 .91243 0 0)"/><path d="M-194.668 118.771h3.526v27.693h-3.526z" style="display:inline;fill:#a3e08d;fill-opacity:1;stroke-width:.635461" transform="matrix(-.89894 .43807 .43652 .8997 0 0)"/><path d="M-158.245 28.956h5.426v25.006h-5.426z" style="display:inline;fill:#98cca3;fill-opacity:1;stroke-width:.7491" transform="scale(-1 1)rotate(2.171)"/><path d="M-160.165 34.782h3.674v28.259h-3.674z" style="display:inline;fill:#685f31;fill-opacity:1;stroke-width:.655317" transform="scale(-1 1)rotate(5.359)"/><path d="M-163.902 35.133h3.674v28.259h-3.674z" style="display:inline;fill:#833e5a;fill-opacity:1;stroke-width:.655317" transform="scale(-1 1)rotate(5.359)"/><path d="M-163.369 48.956h3.665v25.772h-3.665z" style="display:inline;fill:#b1d579;fill-opacity:1;stroke-width:.625014" transform="matrix(-.9876 .15699 .18884 .982 0 0)"/><path d="M-136.345 11.69h4.718v36.35h-4.718z" style="display:inline;fill:#685a70;fill-opacity:1;stroke-width:.842206" transform="scale(-1 1)"/><path d="M-128.645 11.147h2.911v36.905h-2.911z" style="display:inline;fill:#8b804e;fill-opacity:1;stroke-width:.666565" transform="scale(-1 1)"/><path d="M-131.566 19.628h2.911v28.423h-2.911z" style="display:inline;fill:#304340;fill-opacity:1;stroke-width:.584976" transform="scale(-1 1)"/><path d="M-125.74 14.75h5.244v33.302h-5.244z" style="display:inline;fill:#235027;fill-opacity:1;stroke-width:.849873" transform="scale(-1 1)"/><path d="M-120.476 13.414h4.358v34.638h-4.358z" style="display:inline;fill:#443e2f;fill-opacity:1;stroke-width:.790097" transform="scale(-1 1)"/><path d="M-116.243 10.62h5.716v37.432h-5.716z" style="display:inline;fill:#766b51;fill-opacity:1;stroke-width:.940655" transform="scale(-1 1)"/><path d="M-110.574 14.813h5.466v33.238h-5.466z" style="display:inline;fill:#7f4f40;fill-opacity:1;stroke-width:.866856" transform="scale(-1 1)"/><path d="M-95.393 14.915h5.423v33.079h-5.423z" style="display:inline;fill:#61797b;fill-opacity:1;stroke-width:.861311" transform="scale(-1 1)"/><path d="M48.413 22.204h6.453v25.805h-6.453z" style="fill:#a68c36;fill-opacity:1;stroke-width:.829885"/><path d="M54.927 14.605h5.013v33.349h-5.013z" style="fill:#86d6a6;fill-opacity:1;stroke-width:.831475"/><path d="M59.824 22.695h5.013v25.259h-5.013z" style="fill:#d98fc7;fill-opacity:1;stroke-width:.723622"/><path d="M64.894 17.326h3.924v30.628h-3.924z" style="fill:#8cd480;fill-opacity:1;stroke-width:.705045"/><path d="M68.873 20.909h6.06v27.08h-6.06z" style="fill:#000;fill-opacity:1;stroke-width:.823859"/><path d="M74.989 22.476h5.006V48.01h-5.006z" style="fill:#324141;fill-opacity:1;stroke-width:.727104"/><path d="M80.068 15.55h5.006v32.46h-5.006z" style="fill:#3e8366;fill-opacity:1;stroke-width:.81981"/><path d="M84.993 11.471h5.006V48.01h-5.006z" style="fill:#4c7dbc;fill-opacity:1;stroke-width:.869783"/><path d="M-213.714 12.9h9.71v35.274h-9.71z" style="display:inline;fill:#2c7465;fill-opacity:1;stroke-width:1.19017" transform="scale(-1 1)"/><path d="M-210.95 15.786h4.169v2.861h-4.169z" style="display:inline;fill:#22594e;fill-opacity:1;stroke-width:.945927" transform="scale(-1 1)"/><path d="M-41.822 7.84h3.533v31.38h-3.533z" style="display:inline;fill:#3d6ab4;fill-opacity:1;stroke-width:.677109" transform="scale(-1 1)rotate(-14.107)"/><path d="M47.012 18.705h2.872V44.51h-2.872z" style="fill:#194e37;fill-opacity:1;stroke-width:.55366" transform="rotate(4.244)"/><path d="M54.927 14.605h5.013v33.349h-5.013z" style="fill:#86d6a6;fill-opacity:1;stroke-width:.831475"/><path d="M43.716 16.378h4.261v25.805h-4.261z" style="fill:#3678a6;fill-opacity:1;stroke-width:.674335" transform="rotate(7.627)"/><path d="M41.522 5.151H45V38.5h-3.478z" style="fill:#eaeac1;fill-opacity:1;stroke-width:.692588" transform="rotate(13.434)"/><path d="M-105.199 12.126h9.911v35.925h-9.911z" style="display:inline;fill:#567f40;fill-opacity:1;stroke-width:1.21346" transform="scale(-1 1)"/><path d="M-76.506 65.629h5.178v30.392h-5.178z" style="display:inline;fill:#3e8366;fill-opacity:1;stroke-width:.806768" transform="scale(-1 1)"/><path d="M-80.672 61.171h4.301v34.85h-4.301z" style="display:inline;fill:#837a3e;fill-opacity:1;stroke-width:.787369" transform="scale(-1 1)"/><path d="M-144.615 58.453h8.399V96.01h-8.399z" style="display:inline;fill:#5d7f62;fill-opacity:1;stroke-width:1.14218" transform="scale(-1 1)"/><path d="M-173.759 66.909h4.076v29.102h-4.076z" style="display:inline;fill:#4a832f;fill-opacity:1;stroke-width:.700394" transform="scale(-1 1)"/><path d="M-312.58 60.348h9.71v35.621h-9.71z" style="display:inline;fill:#9a4f5b;fill-opacity:1;stroke-width:1.19601" transform="scale(-1 1)"/><path d="M-309.759 63.582h4.169v2.861h-4.169z" style="display:inline;fill:#6b373f;fill-opacity:1;stroke-width:.945927" transform="scale(-1 1)"/><path d="M-208.402 60.043h3.107v35.968h-3.107z" style="display:inline;fill:#346747;fill-opacity:1;stroke-width:.679814" transform="scale(-1 1)"/><path d="M-231.631 1.288h3.107v35.968h-3.107z" style="display:inline;fill:#85c29c;fill-opacity:1;stroke-width:.679814" transform="scale(-1 1)rotate(-14.964)"/><path d="M-211.033 57.631h2.814V96.01h-2.814z" style="display:inline;fill:#345c67;fill-opacity:1;stroke-width:.668383" transform="scale(-1 1)"/><path d="M313.95 88.427h32.959v7.333H313.95z" style="fill:#806262;fill-opacity:1;stroke-width:1.10199"/><path d="M313.78 89.373h31.403v5.476H313.78s.127-1.509.127-2.81c0-1.443-.127-2.666-.127-2.666" style="fill:#d6d3c7;stroke-width:1.01736"/><path d="M312.891 81.082h32.959v7.333h-32.959z" style="fill:#206ac2;fill-opacity:1;stroke-width:1.10199"/><path d="M312.722 82.028h31.402v5.476h-31.402s.127-1.509.127-2.81c0-1.443-.127-2.666-.127-2.666" style="fill:#d6d3c7;stroke-width:1.01736"/><path d="M314.528 76.028h32.959v5.071h-32.959z" style="fill:#818959;fill-opacity:1;stroke-width:.916356"/><path d="M314.358 76.925h31.402v3.263h-31.402s.127-.9.127-1.674c0-.86-.127-1.589-.127-1.589" style="fill:#d6d3c7;stroke-width:.785201"/><path d="M313.574 70.99h32.959v5.071h-32.959z" style="fill:#5e5989;fill-opacity:1;stroke-width:.916356"/><path d="M313.405 71.888h31.402v3.262h-31.402s.127-.9.127-1.674c0-.86-.127-1.588-.127-1.588" style="fill:#d6d3c7;stroke-width:.785201"/><path d="M315.471 64.365h26.383v6.599h-26.383z" style="fill:#86a7c4;fill-opacity:1;stroke-width:1.34135"/><path d="M-357.16 58.741h9.71V95.97h-9.71z" style="display:inline;fill:#9a8f4f;fill-opacity:1;stroke-width:1.2227" transform="scale(-1 1)"/><path d="M-354.338 61.974h4.169v2.861h-4.169z" style="display:inline;fill:#71693a;fill-opacity:1;stroke-width:.945927" transform="scale(-1 1)"/><path d="M-372.371 9.831h4.834v29.102h-4.834z" style="display:inline;fill:#516431;fill-opacity:1;stroke-width:.762724" transform="scale(-1 1)rotate(-8.947)"/></svg>