<?xml version="1.0" encoding="UTF-8" standalone="no"?>
<!-- Created with Inkscape (http://www.inkscape.org/) -->

<svg
   width="1422.52"
   height="400"
   viewBox="0 0 376.37508 105.83333"
   version="1.1"
   id="svg1"
   inkscape:version="1.4 (86a8ad7, 2024-10-11)"
   sodipodi:docname="right-books-shelf.svg"
   xmlns:inkscape="http://www.inkscape.org/namespaces/inkscape"
   xmlns:sodipodi="http://sodipodi.sourceforge.net/DTD/sodipodi-0.dtd"
   xmlns="http://www.w3.org/2000/svg"
   xmlns:svg="http://www.w3.org/2000/svg">
  <sodipodi:namedview
     id="namedview1"
     pagecolor="#505050"
     bordercolor="#eeeeee"
     borderopacity="1"
     inkscape:showpageshadow="0"
     inkscape:pageopacity="0"
     inkscape:pagecheckerboard="0"
     inkscape:deskcolor="#505050"
     inkscape:document-units="mm"
     inkscape:zoom="0.64"
     inkscape:cx="621.09375"
     inkscape:cy="174.21875"
     inkscape:window-width="1920"
     inkscape:window-height="1001"
     inkscape:window-x="-9"
     inkscape:window-y="-9"
     inkscape:window-maximized="1"
     inkscape:current-layer="layer1" />
  <defs
     id="defs1" />
  <g
     inkscape:label="Layer 1"
     inkscape:groupmode="layer"
     id="layer1">
    <path
       id="rect1"
       style="baseline-shift:baseline;display:inline;overflow:visible;vector-effect:none;fill:#3c2b0c;enable-background:accumulate;stop-color:#000000;stop-opacity:1"
       d="M 376.27586,0 H 0.37931034 L 19.72414,53.482759 v 52.344821 h 356.55172 z"
       sodipodi:nodetypes="cccccc" />
    <path
       id="rect2"
       style="fill:#2f2109;stroke-width:0.662696"
       d="M 366.28056,9.8620691 H 13.4091 L 29.34013,52.724138 v 43.241378 h 336.94043 z"
       sodipodi:nodetypes="cccccc" />
    <rect
       style="fill:#3c2b0c;fill-opacity:1;stroke-width:0.756041"
       id="rect3"
       width="347.44824"
       height="8.7241383"
       x="-371.72412"
       y="48.172413"
       transform="scale(-1,1)" />
    <rect
       style="display:inline;fill:#423931;fill-opacity:1;stroke-width:1.19601"
       id="rect56"
       width="9.7097893"
       height="35.620987"
       x="-366.30862"
       y="12.538988"
       transform="scale(-1,1)" />
    <rect
       style="display:inline;fill:#5f544b;fill-opacity:1;stroke-width:0.945927"
       id="rect57"
       width="4.1685567"
       height="2.8607743"
       x="-363.37503"
       y="16.133066"
       transform="scale(-1,1)" />
    <rect
       style="display:inline;fill:#a98b90;fill-opacity:1;stroke-width:1.19601"
       id="rect94"
       width="9.7097893"
       height="35.620987"
       x="-303.37186"
       y="60.348335"
       transform="scale(-1,1)" />
    <rect
       style="display:inline;fill:#62484d;fill-opacity:1;stroke-width:0.945927"
       id="rect95"
       width="4.1685567"
       height="2.8607743"
       x="-300.55035"
       y="63.581593"
       transform="scale(-1,1)" />
    <rect
       style="display:inline;fill:#747848;fill-opacity:1;stroke-width:1.17447"
       id="rect96"
       width="9.7097893"
       height="34.349464"
       x="-293.66211"
       y="61.619854"
       transform="scale(-1,1)" />
    <rect
       style="display:inline;fill:#585b37;fill-opacity:1;stroke-width:0.945927"
       id="rect97"
       width="4.1685567"
       height="2.8607743"
       x="-290.66718"
       y="64.390755"
       transform="scale(-1,1)" />
    <rect
       style="display:inline;fill:#353922;fill-opacity:1;stroke-width:1.19017"
       id="rect98"
       width="9.7097893"
       height="35.274204"
       x="-283.95233"
       y="60.695118"
       transform="scale(-1,1)" />
    <rect
       style="display:inline;fill:#272919;fill-opacity:1;stroke-width:0.945927"
       id="rect99"
       width="4.1685567"
       height="2.8607743"
       x="-281.18857"
       y="63.581593"
       transform="scale(-1,1)" />
    <rect
       style="display:inline;fill:#1c212e;fill-opacity:1;stroke-width:1.19017"
       id="rect101"
       width="9.7097893"
       height="35.274204"
       x="-274.17157"
       y="60.695118"
       transform="scale(-1,1)" />
    <rect
       style="display:inline;fill:#343d56;fill-opacity:1;stroke-width:0.945927"
       id="rect102"
       width="4.1685567"
       height="2.8607743"
       x="-271.40787"
       y="63.581593"
       transform="scale(-1,1)" />
    <rect
       style="display:inline;fill:#5f5560;fill-opacity:1;stroke-width:1.21932"
       id="rect103"
       width="9.7097893"
       height="37.023109"
       x="-264.69012"
       y="58.946209"
       transform="scale(-1,1)" />
    <rect
       style="display:inline;fill:#3f3840;fill-opacity:1;stroke-width:0.945927"
       id="rect104"
       width="4.1685567"
       height="2.8607743"
       x="-262.00818"
       y="62.419041"
       transform="scale(-1,1)" />
    <rect
       style="display:inline;fill:#4a9264;fill-opacity:1;stroke-width:1.20925"
       id="rect105"
       width="9.8303137"
       height="35.967762"
       x="-255.17403"
       y="60.042683"
       transform="scale(-1,1)" />
    <rect
       style="display:inline;fill:#7b7b61;fill-opacity:1;stroke-width:0.970172"
       id="rect106"
       width="6.9776359"
       height="32.61657"
       x="-245.37375"
       y="63.393875"
       transform="scale(-1,1)" />
    <rect
       style="display:inline;fill:#7b617b;fill-opacity:1;stroke-width:0.762486"
       id="rect107"
       width="5.3239255"
       height="26.404606"
       x="-238.44803"
       y="69.605835"
       transform="scale(-1,1)" />
    <rect
       style="display:inline;fill:#80832f;fill-opacity:1;stroke-width:0.620484"
       id="rect108"
       width="3.1987789"
       height="29.101908"
       x="-233.10129"
       y="66.908539"
       transform="scale(-1,1)" />
    <rect
       style="display:inline;fill:#8c0932;fill-opacity:1;stroke-width:0.762724"
       id="rect109"
       width="4.8335071"
       height="29.101908"
       x="-237.65984"
       y="31.040451"
       transform="matrix(-0.98783185,-0.15552568,-0.15552568,0.98783185,0,0)" />
    <rect
       style="display:inline;fill:#90904c;fill-opacity:1;stroke-width:0.626415"
       id="rect110"
       width="3.2786679"
       height="28.938433"
       x="-233.86864"
       y="23.484236"
       transform="matrix(-0.98164995,-0.19069184,-0.19069184,0.98164995,0,0)" />
    <rect
       style="display:inline;fill:#619fab;fill-opacity:1;stroke-width:1.07211"
       id="rect111"
       width="31.07091"
       height="7.3627367"
       x="-204.94759"
       y="88.59063"
       transform="scale(-1,1)" />
    <path
       id="path111"
       style="display:inline;fill:#d6d3c7;stroke-width:0.989792"
       d="m 205.10695,89.540519 h -29.6032 v 5.498505 h 29.6032 c 0,0 -0.1195,-1.515545 -0.1195,-2.821171 0,-1.449153 0.1195,-2.677334 0.1195,-2.677334 z"
       sodipodi:nodetypes="ccccsc" />
    <rect
       style="display:inline;fill:#6c4f0a;fill-opacity:1;stroke-width:0.84837"
       id="rect112"
       width="23.008112"
       height="6.2258439"
       x="-200.46104"
       y="82.527191"
       transform="scale(-1,1)" />
    <path
       id="path112"
       style="display:inline;fill:#d6d3c7;stroke-width:0.783226"
       d="m 200.57907,83.330411 h -21.92126 v 4.649474 h 21.92126 c 0,0 -0.0885,-1.281524 -0.0885,-2.385539 0,-1.225406 0.0885,-2.263935 0.0885,-2.263935 z"
       sodipodi:nodetypes="ccccsc" />
    <rect
       style="display:inline;fill:#705377;fill-opacity:1;stroke-width:0.886611"
       id="rect113"
       width="17.562969"
       height="4.3310218"
       x="-196.33914"
       y="78.142052"
       transform="scale(-1,1)" />
    <rect
       style="display:inline;fill:#7fcbc3;fill-opacity:1;stroke-width:0.912746"
       id="rect114"
       width="18.613623"
       height="4.3310218"
       x="-195.3497"
       y="73.772774"
       transform="scale(-1,1)" />
    <rect
       style="display:inline;fill:#c8ccb0;fill-opacity:1;stroke-width:0.762486"
       id="rect115"
       width="5.3239255"
       height="26.404606"
       x="-124.25607"
       y="122.30978"
       transform="matrix(-0.93329748,0.35910417,0.35910417,0.93329748,0,0)" />
    <rect
       style="display:inline;fill:#617b65;fill-opacity:1;stroke-width:0.802573"
       id="rect116"
       width="4.5255432"
       height="34.414772"
       x="-126.23261"
       y="104.80743"
       transform="matrix(-0.95316028,0.30246567,0.30246567,0.95316028,0,0)" />
    <rect
       style="display:inline;fill:#3861a4;fill-opacity:1;stroke-width:0.762486"
       id="rect117"
       width="5.3239255"
       height="26.404606"
       x="-128.89157"
       y="103.05457"
       transform="matrix(-0.97118565,0.23832421,0.23832421,0.97118565,0,0)" />
    <rect
       style="display:inline;fill:#606a36;fill-opacity:1;stroke-width:1.19017"
       id="rect118"
       width="9.7097893"
       height="35.274204"
       x="-154.15208"
       y="12.739388"
       transform="scale(-1,1)" />
    <rect
       style="display:inline;fill:#495029;fill-opacity:1;stroke-width:0.945927"
       id="rect119"
       width="4.1685567"
       height="2.8607743"
       x="-151.38837"
       y="15.625863"
       transform="scale(-1,1)" />
    <rect
       style="display:inline;fill:#643c59;fill-opacity:1;stroke-width:1.13989"
       id="rect120"
       width="8.2385349"
       height="38.134979"
       x="-144.42546"
       y="9.8928671"
       transform="scale(-1,1)" />
    <rect
       style="display:inline;fill:#4e2f45;fill-opacity:1;stroke-width:0.945927"
       id="rect121"
       width="4.1685567"
       height="2.8607743"
       x="-142.39738"
       y="13.024558"
       transform="scale(-1,1)" />
    <rect
       style="display:inline;fill:#3f9cb9;fill-opacity:1;stroke-width:0.86005"
       id="rect145"
       width="5.1848092"
       height="34.495281"
       x="-136.20424"
       y="61.467659"
       transform="scale(-1,1)" />
    <rect
       style="display:inline;fill:#213961;fill-opacity:1;stroke-width:0.886306"
       id="rect146"
       width="5.1848092"
       height="36.634155"
       x="-131.13849"
       y="59.328789"
       transform="scale(-1,1)" />
    <rect
       style="display:inline;fill:#39a79e;fill-opacity:1;stroke-width:0.729273"
       id="rect147"
       width="4.0590868"
       height="31.680971"
       x="-125.89423"
       y="64.28196"
       transform="scale(-1,1)" />
    <rect
       style="display:inline;fill:#f2d384;fill-opacity:1;stroke-width:0.935296"
       id="rect148"
       width="6.2687321"
       height="33.741619"
       x="-121.77843"
       y="62.257309"
       transform="scale(-1,1)" />
    <rect
       style="display:inline;fill:#13605e;fill-opacity:1;stroke-width:0.86193"
       id="rect149"
       width="5.1783242"
       height="34.690197"
       x="-115.45256"
       y="61.330936"
       transform="scale(-1,1)" />
    <rect
       style="display:inline;fill:#3e8366;fill-opacity:1;stroke-width:0.806768"
       id="rect150"
       width="5.1783242"
       height="30.391766"
       x="-110.19893"
       y="65.629372"
       transform="scale(-1,1)" />
    <rect
       style="display:inline;fill:#da9cb8;fill-opacity:1;stroke-width:0.899674"
       id="rect151"
       width="5.1783242"
       height="37.794624"
       x="-105.10448"
       y="58.226505"
       transform="scale(-1,1)" />
    <rect
       style="display:inline;fill:#8ae8aa;fill-opacity:1;stroke-width:0.604788"
       id="rect152"
       width="2.8143067"
       height="31.425602"
       x="-102.46932"
       y="60.216286"
       transform="matrix(-0.9990288,-0.04406191,-0.04406191,0.9990288,0,0)" />
    <rect
       style="display:inline;fill:#525781;fill-opacity:1;stroke-width:0.604788"
       id="rect153"
       width="2.8143067"
       height="31.425602"
       x="-100.90437"
       y="58.271206"
       transform="matrix(-0.99787599,-0.06514221,-0.06514221,0.99787599,0,0)" />
    <rect
       style="display:inline;fill:#6d2b3d;fill-opacity:1;stroke-width:0.702846"
       id="rect154"
       width="3.8995931"
       height="30.629858"
       x="-92.154266"
       y="65.239403"
       transform="matrix(-0.99999857,-0.0016902,-0.00341598,0.99999417,0,0)" />
    <rect
       style="display:inline;fill:#8197cd;fill-opacity:1;stroke-width:0.676638"
       id="rect155"
       width="3.2872238"
       height="33.677048"
       x="-95.474106"
       y="51.041679"
       transform="matrix(-0.99203247,-0.12598247,-0.12598247,0.99203247,0,0)" />
    <rect
       style="display:inline;fill:#91d07c;fill-opacity:1;stroke-width:0.96199"
       id="rect156"
       width="7.7901139"
       height="28.723867"
       x="-71.352196"
       y="67.500183"
       transform="scale(-1,1)" />
    <rect
       style="display:inline;fill:#444b3b;fill-opacity:1;stroke-width:0.798593"
       id="rect159"
       width="4.4072895"
       height="34.98864"
       x="-63.336445"
       y="61.030586"
       transform="scale(-1,1)" />
    <rect
       style="display:inline;fill:#b7c1b5;fill-opacity:1;stroke-width:0.899674"
       id="rect160"
       width="5.1783242"
       height="37.794624"
       x="-58.949909"
       y="58.226505"
       transform="scale(-1,1)" />
    <rect
       style="display:inline;fill:#605bda;fill-opacity:1;stroke-width:0.861089"
       id="rect161"
       width="5.4967265"
       height="32.616299"
       x="-53.996723"
       y="63.404831"
       transform="scale(-1,1)" />
    <rect
       style="display:inline;fill:#334019;fill-opacity:1;stroke-width:0.702846"
       id="rect4"
       width="3.8995931"
       height="30.629858"
       x="-48.723419"
       y="65.312813"
       transform="matrix(-0.99999857,-0.0016902,-0.00341598,0.99999417,0,0)" />
    <rect
       style="display:inline;fill:#de846e;fill-opacity:1;stroke-width:1.07324"
       id="rect5"
       width="7.7901139"
       height="35.751862"
       x="-44.45763"
       y="60.472187"
       transform="scale(-1,1)" />
    <rect
       style="display:inline;fill:#214457;fill-opacity:1;stroke-width:0.977832"
       id="rect6"
       width="7.317697"
       height="31.593452"
       x="-36.684956"
       y="64.427681"
       transform="scale(-1,1)" />
    <rect
       style="display:inline;fill:#7b9cd2;fill-opacity:1;stroke-width:0.861982"
       id="rect245"
       width="5.7251554"
       height="31.380276"
       x="-356.51083"
       y="16.674314"
       transform="scale(-1,1)" />
    <rect
       style="display:inline;fill:#39a79e;fill-opacity:1;stroke-width:0.764158"
       id="rect246"
       width="4.2532568"
       height="33.196461"
       x="-350.72339"
       y="14.8581"
       transform="scale(-1,1)" />
    <rect
       style="display:inline;fill:#c9f9e7;fill-opacity:1;stroke-width:0.980036"
       id="rect247"
       width="6.5686016"
       height="35.355675"
       x="-346.41068"
       y="12.736599"
       transform="scale(-1,1)" />
    <rect
       style="display:inline;fill:#8f9772;fill-opacity:1;stroke-width:0.904039"
       id="rect248"
       width="5.426034"
       height="36.419983"
       x="-339.78223"
       y="11.695601"
       transform="scale(-1,1)" />
    <rect
       style="display:inline;fill:#3e8366;fill-opacity:1;stroke-width:0.772473"
       id="rect249"
       width="5.426034"
       height="26.590853"
       x="-334.27728"
       y="21.524734"
       transform="scale(-1,1)" />
    <rect
       style="display:inline;fill:#c4b2ba;fill-opacity:1;stroke-width:0.840919"
       id="rect250"
       width="5.426034"
       height="31.511946"
       x="-328.93915"
       y="16.603596"
       transform="scale(-1,1)" />
    <rect
       style="display:inline;fill:#bff3d0;fill-opacity:1;stroke-width:0.633719"
       id="rect251"
       width="2.9489315"
       height="32.928871"
       x="-323.65222"
       y="1.0079149"
       transform="matrix(-0.9990288,-0.04406191,-0.04406191,0.9990288,0,0)" />
    <rect
       style="display:inline;fill:#6a6a6a;fill-opacity:1;stroke-width:0.633719"
       id="rect252"
       width="2.9489315"
       height="32.928871"
       x="-320.65347"
       y="-5.5822248"
       transform="matrix(-0.99787599,-0.06514221,-0.06514221,0.99787599,0,0)" />
    <rect
       style="display:inline;fill:#d99dae;fill-opacity:1;stroke-width:0.736463"
       id="rect253"
       width="4.0861335"
       height="32.095062"
       x="-315.18915"
       y="15.491556"
       transform="matrix(-0.99999857,-0.0016902,-0.00341598,0.99999417,0,0)" />
    <rect
       style="display:inline;fill:#53b864;fill-opacity:1;stroke-width:0.92489"
       id="rect254"
       width="37.467049"
       height="2.2092936"
       x="-310.5015"
       y="45.750931"
       transform="scale(-1,1)" />
    <rect
       style="display:inline;fill:#bdbcc9;fill-opacity:1;stroke-width:1.12853"
       id="rect255"
       width="32.128918"
       height="3.835757"
       x="-307.51758"
       y="39.870625"
       transform="scale(-1,1)" />
    <rect
       style="display:inline;fill:#306474;fill-opacity:1;stroke-width:1.08202"
       id="rect256"
       width="28.907068"
       height="3.9191651"
       x="-306.99835"
       y="31.529789"
       transform="scale(-1,1)" />
    <rect
       style="display:inline;fill:#dd5a5a;fill-opacity:1;stroke-width:1.02037"
       id="rect257"
       width="25.706474"
       height="3.9191651"
       x="-309.0704"
       y="27.651293"
       transform="scale(-1,1)" />
    <rect
       style="display:inline;fill:#3b5662;fill-opacity:1;stroke-width:1.24148"
       id="rect258"
       width="27.717798"
       height="5.3807955"
       x="-306.06778"
       y="22.206722"
       transform="scale(-1,1)" />
    <rect
       style="display:inline;fill:#47536a;fill-opacity:1;stroke-width:0.92489"
       id="rect259"
       width="37.467049"
       height="2.2092936"
       x="-308.54138"
       y="43.582321"
       transform="scale(-1,1)" />
    <rect
       style="display:inline;fill:#66762e;fill-opacity:1;stroke-width:1.15983"
       id="rect260"
       width="28.907068"
       height="4.5030236"
       x="-305.87234"
       y="35.450005"
       transform="scale(-1,1)" />
    <rect
       style="display:inline;fill:#a8a390;fill-opacity:1;stroke-width:0.759027"
       id="rect262"
       width="4.6181159"
       height="30.164537"
       x="-270.70255"
       y="17.683931"
       transform="scale(-1,1)" />
    <rect
       style="display:inline;fill:#edd0ef;fill-opacity:1;stroke-width:0.74857"
       id="rect263"
       width="5.4328294"
       height="24.939453"
       x="-266.01944"
       y="22.850037"
       transform="scale(-1,1)" />
    <rect
       style="display:inline;fill:#213961;fill-opacity:1;stroke-width:0.781483"
       id="rect264"
       width="5.4328294"
       height="27.180639"
       x="-260.71136"
       y="20.608843"
       transform="scale(-1,1)" />
    <rect
       style="display:inline;fill:#39a79e;fill-opacity:1;stroke-width:0.764158"
       id="rect265"
       width="4.2532568"
       height="33.196461"
       x="-255.21622"
       y="14.593017"
       transform="scale(-1,1)" />
    <rect
       style="display:inline;fill:#f3d68d;fill-opacity:1;stroke-width:1.01379"
       id="rect266"
       width="6.5686016"
       height="37.832775"
       x="-250.90353"
       y="9.9944258"
       transform="scale(-1,1)" />
    <rect
       style="display:inline;fill:#607750;fill-opacity:1;stroke-width:0.903165"
       id="rect267"
       width="5.426034"
       height="36.349632"
       x="-244.27507"
       y="11.50085"
       transform="scale(-1,1)" />
    <rect
       style="display:inline;fill:#1d5263;fill-opacity:1;stroke-width:1.02474"
       id="rect268"
       width="27.817219"
       height="7.5133462"
       x="-203.86133"
       y="40.498886"
       transform="scale(-1,1)" />
    <path
       id="path268"
       style="display:inline;fill:#d6d3c7;stroke-width:0.932694"
       d="M 204.06012,41.468247 H 178.3006 v 5.61098 h 25.75952 c 0,0 -0.10399,-1.546556 -0.10399,-2.878873 0,-1.478814 0.10399,-2.732107 0.10399,-2.732107 z"
       sodipodi:nodetypes="ccccsc" />
    <rect
       style="display:inline;fill:#55342b;fill-opacity:1;stroke-width:0.790093"
       id="rect269"
       width="19.55563"
       height="6.3531971"
       x="-199.24915"
       y="34.311432"
       transform="scale(-1,1)" />
    <path
       id="path269"
       style="display:inline;fill:#d6d3c7;stroke-width:0.710711"
       d="M 199.28986,35.13111 H 181.6016 v 4.744568 h 17.68826 c 0,0 -0.0714,-1.307737 -0.0714,-2.434337 0,-1.250456 0.0714,-2.310231 0.0714,-2.310231 z"
       sodipodi:nodetypes="ccccsc" />
    <rect
       style="display:inline;fill:#d495b4;fill-opacity:1;stroke-width:0.838919"
       id="rect270"
       width="15.409143"
       height="4.4196153"
       x="-196.45294"
       y="29.836569"
       transform="scale(-1,1)" />
    <rect
       style="display:inline;fill:#26461d;fill-opacity:1;stroke-width:0.831762"
       id="rect271"
       width="15.147442"
       height="4.4196153"
       x="-193.82913"
       y="25.306467"
       transform="scale(-1,1)" />
    <rect
       style="display:inline;fill:#5b6cb2;fill-opacity:1;stroke-width:0.736463"
       id="rect272"
       width="4.0861335"
       height="32.095062"
       x="-201.77266"
       y="81.471863"
       transform="matrix(-0.95265991,0.30403799,0.30239346,0.95318319,0,0)" />
    <rect
       style="display:inline;fill:#42bfcb;fill-opacity:1;stroke-width:0.736463"
       id="rect273"
       width="4.0861335"
       height="32.095062"
       x="-194.43321"
       y="105.89177"
       transform="matrix(-0.91172712,0.41079637,0.40922232,0.91243471,0,0)" />
    <rect
       style="display:inline;fill:#a3e08d;fill-opacity:1;stroke-width:0.635461"
       id="rect274"
       width="3.525739"
       height="27.693375"
       x="-194.66768"
       y="118.77067"
       transform="matrix(-0.89894048,0.43807079,0.43651877,0.89969515,0,0)" />
    <rect
       style="display:inline;fill:#98cca3;fill-opacity:1;stroke-width:0.7491"
       id="rect279"
       width="5.426034"
       height="25.006092"
       x="-158.24471"
       y="28.955883"
       transform="matrix(-0.99928212,0.03788473,0.03788473,0.99928212,0,0)" />
    <rect
       style="display:inline;fill:#685f31;fill-opacity:1;stroke-width:0.655317"
       id="rect280"
       width="3.674458"
       height="28.25902"
       x="-160.16472"
       y="34.78231"
       transform="matrix(-0.99562878,0.09339883,0.09339883,0.99562878,0,0)" />
    <rect
       style="display:inline;fill:#833e5a;fill-opacity:1;stroke-width:0.655317"
       id="rect281"
       width="3.674458"
       height="28.25902"
       x="-163.9017"
       y="35.132881"
       transform="matrix(-0.99562878,0.09339883,0.09339883,0.99562878,0,0)" />
    <rect
       style="display:inline;fill:#b1d579;fill-opacity:1;stroke-width:0.625014"
       id="rect282"
       width="3.6649966"
       height="25.772291"
       x="-163.36897"
       y="48.955555"
       transform="matrix(-0.98760083,0.15698598,0.18884099,0.98200768,0,0)" />
    <rect
       style="display:inline;fill:#685a70;fill-opacity:1;stroke-width:0.842206"
       id="rect283"
       width="4.7182903"
       height="36.349632"
       x="-136.34483"
       y="11.690276"
       transform="scale(-1,1)" />
    <rect
       style="display:inline;fill:#8b804e;fill-opacity:1;stroke-width:0.666565"
       id="rect221"
       width="2.9110718"
       height="36.904675"
       x="-128.64496"
       y="11.146811"
       transform="scale(-1,1)" />
    <rect
       style="display:inline;fill:#304340;fill-opacity:1;stroke-width:0.584976"
       id="rect222"
       width="2.9110718"
       height="28.423105"
       x="-131.56624"
       y="19.628405"
       transform="scale(-1,1)" />
    <rect
       style="display:inline;fill:#235027;fill-opacity:1;stroke-width:0.849873"
       id="rect226"
       width="5.2442832"
       height="33.301926"
       x="-125.73994"
       y="14.749567"
       transform="scale(-1,1)" />
    <rect
       style="display:inline;fill:#443e2f;fill-opacity:1;stroke-width:0.790097"
       id="rect227"
       width="4.3577542"
       height="34.637505"
       x="-120.47618"
       y="13.413984"
       transform="scale(-1,1)" />
    <rect
       style="display:inline;fill:#766b51;fill-opacity:1;stroke-width:0.940655"
       id="rect228"
       width="5.7156634"
       height="37.431889"
       x="-116.24263"
       y="10.619611"
       transform="scale(-1,1)" />
    <rect
       style="display:inline;fill:#7f4f40;fill-opacity:1;stroke-width:0.866856"
       id="rect229"
       width="5.4664941"
       height="33.238197"
       x="-110.57375"
       y="14.813286"
       transform="scale(-1,1)" />
    <rect
       style="display:inline;fill:#61797b;fill-opacity:1;stroke-width:0.861311"
       id="rect238"
       width="5.422709"
       height="33.078758"
       x="-95.393021"
       y="14.914726"
       transform="scale(-1,1)" />
    <rect
       style="fill:#a68c36;fill-opacity:1;stroke-width:0.829885"
       id="rect166"
       width="6.4533143"
       height="25.804815"
       x="48.413456"
       y="22.203691" />
    <rect
       style="fill:#86d6a6;fill-opacity:1;stroke-width:0.831475"
       id="rect167"
       width="5.0125585"
       height="33.349266"
       x="54.926731"
       y="14.604833" />
    <rect
       style="fill:#d98fc7;fill-opacity:1;stroke-width:0.723622"
       id="rect168"
       width="5.0125585"
       height="25.258877"
       x="59.824184"
       y="22.695221" />
    <rect
       style="fill:#8cd480;fill-opacity:1;stroke-width:0.705045"
       id="rect169"
       width="3.9242346"
       height="30.628458"
       x="64.894218"
       y="17.32564" />
    <rect
       style="fill:#000000;fill-opacity:1;stroke-width:0.823859"
       id="rect170"
       width="6.0604696"
       height="27.079803"
       x="68.873299"
       y="20.909094" />
    <rect
       style="fill:#324141;fill-opacity:1;stroke-width:0.727104"
       id="rect171"
       width="5.0062885"
       height="25.534275"
       x="74.988983"
       y="22.476093" />
    <rect
       style="fill:#3e8366;fill-opacity:1;stroke-width:0.81981"
       id="rect172"
       width="5.0062885"
       height="32.460327"
       x="80.068069"
       y="15.550046" />
    <rect
       style="fill:#4c7dbc;fill-opacity:1;stroke-width:0.869783"
       id="rect173"
       width="5.0062885"
       height="36.538998"
       x="84.993263"
       y="11.471355" />
    <rect
       style="display:inline;fill:#2c7465;fill-opacity:1;stroke-width:1.19017"
       id="rect7"
       width="9.7097893"
       height="35.274204"
       x="-213.71353"
       y="12.899809"
       transform="scale(-1,1)" />
    <rect
       style="display:inline;fill:#22594e;fill-opacity:1;stroke-width:0.945927"
       id="rect8"
       width="4.1685567"
       height="2.8607743"
       x="-210.94981"
       y="15.786283"
       transform="scale(-1,1)" />
    <rect
       style="display:inline;fill:#3d6ab4;fill-opacity:1;stroke-width:0.677109"
       id="rect9"
       width="3.5327101"
       height="31.380276"
       x="-41.822292"
       y="7.8401141"
       transform="matrix(-0.96984158,-0.24373613,-0.24373613,0.96984158,0,0)" />
    <rect
       style="fill:#194e37;fill-opacity:1;stroke-width:0.55366"
       id="rect10"
       width="2.8723204"
       height="25.804815"
       x="47.012081"
       y="18.704962"
       transform="rotate(4.2440406)" />
    <rect
       style="fill:#86d6a6;fill-opacity:1;stroke-width:0.831475"
       id="rect11"
       width="5.0125585"
       height="33.349266"
       x="54.926731"
       y="14.604833" />
    <rect
       style="fill:#3678a6;fill-opacity:1;stroke-width:0.674335"
       id="rect12"
       width="4.260869"
       height="25.804815"
       x="43.716171"
       y="16.377851"
       transform="rotate(7.6269415)" />
    <rect
       style="fill:#eaeac1;fill-opacity:1;stroke-width:0.692588"
       id="rect13"
       width="3.4778466"
       height="33.349266"
       x="41.522423"
       y="5.1510148"
       transform="rotate(13.43448)" />
    <rect
       style="display:inline;fill:#567f40;fill-opacity:1;stroke-width:1.21346"
       id="rect14"
       width="9.9106674"
       height="35.925373"
       x="-105.19941"
       y="12.126111"
       transform="scale(-1,1)" />
    <rect
       style="display:inline;fill:#3e8366;fill-opacity:1;stroke-width:0.806768"
       id="rect15"
       width="5.1783242"
       height="30.391766"
       x="-76.505898"
       y="65.629372"
       transform="scale(-1,1)" />
    <rect
       style="display:inline;fill:#837a3e;fill-opacity:1;stroke-width:0.787369"
       id="rect16"
       width="4.3013463"
       height="34.849739"
       x="-80.671547"
       y="61.171398"
       transform="scale(-1,1)" />
    <rect
       style="display:inline;fill:#5d7f62;fill-opacity:1;stroke-width:1.14218"
       id="rect17"
       width="8.3988638"
       height="37.557278"
       x="-144.61501"
       y="58.453167"
       transform="scale(-1,1)" />
    <rect
       style="display:inline;fill:#4a832f;fill-opacity:1;stroke-width:0.700394"
       id="rect18"
       width="4.075757"
       height="29.101908"
       x="-173.75911"
       y="66.908539"
       transform="scale(-1,1)" />
    <rect
       style="display:inline;fill:#9a4f5b;fill-opacity:1;stroke-width:1.19601"
       id="rect19"
       width="9.7097893"
       height="35.620987"
       x="-312.58014"
       y="60.348335"
       transform="scale(-1,1)" />
    <rect
       style="display:inline;fill:#6b373f;fill-opacity:1;stroke-width:0.945927"
       id="rect20"
       width="4.1685567"
       height="2.8607743"
       x="-309.75864"
       y="63.581593"
       transform="scale(-1,1)" />
    <rect
       style="display:inline;fill:#346747;fill-opacity:1;stroke-width:0.679814"
       id="rect21"
       width="3.1068146"
       height="35.967762"
       x="-208.40186"
       y="60.042683"
       transform="scale(-1,1)" />
    <rect
       style="display:inline;fill:#85c29c;fill-opacity:1;stroke-width:0.679814"
       id="rect22"
       width="3.1068146"
       height="35.967762"
       x="-231.63084"
       y="1.2884281"
       transform="matrix(-0.9660894,-0.25820782,-0.25820782,0.9660894,0,0)" />
    <rect
       style="display:inline;fill:#345c67;fill-opacity:1;stroke-width:0.668383"
       id="rect23"
       width="2.8144886"
       height="38.379452"
       x="-211.03279"
       y="57.630993"
       transform="scale(-1,1)" />
    <rect
       style="fill:#806262;fill-opacity:1;stroke-width:1.10199"
       id="rect138"
       width="32.958599"
       height="7.3331857"
       x="313.94989"
       y="88.426994" />
    <path
       id="path138"
       style="fill:#d6d3c7;stroke-width:1.01736"
       d="m 313.78084,89.373045 h 31.40171 v 5.47643 h -31.40171 c 0,0 0.12678,-1.50945 0.12678,-2.80984 0,-1.44335 -0.12678,-2.66659 -0.12678,-2.66659 z"
       sodipodi:nodetypes="ccccsc" />
    <rect
       style="fill:#206ac2;fill-opacity:1;stroke-width:1.10199"
       id="rect139"
       width="32.958599"
       height="7.3331857"
       x="312.89087"
       y="81.081947" />
    <path
       id="path139"
       style="fill:#d6d3c7;stroke-width:1.01736"
       d="m 312.72181,82.027995 h 31.40173 v 5.47644 h -31.40173 c 0,0 0.12679,-1.50946 0.12679,-2.80984 0,-1.44335 -0.12679,-2.6666 -0.12679,-2.6666 z"
       sodipodi:nodetypes="ccccsc" />
    <rect
       style="fill:#818959;fill-opacity:1;stroke-width:0.916356"
       id="rect140"
       width="32.958599"
       height="5.0707417"
       x="314.52753"
       y="76.027565" />
    <path
       id="path140"
       style="fill:#d6d3c7;stroke-width:0.785201"
       d="m 314.35847,76.925445 h 31.40172 v 3.26214 h -31.40172 c 0,0 0.12678,-0.89913 0.12678,-1.67372 0,-0.85977 -0.12678,-1.58842 -0.12678,-1.58842 z"
       sodipodi:nodetypes="ccccsc" />
    <rect
       style="fill:#5e5989;fill-opacity:1;stroke-width:0.916356"
       id="rect141"
       width="32.958599"
       height="5.0707417"
       x="313.57446"
       y="70.989922" />
    <path
       id="path141"
       style="fill:#d6d3c7;stroke-width:0.785201"
       d="m 313.40541,71.887815 h 31.40172 v 3.26214 h -31.40172 c 0,0 0.12678,-0.89913 0.12678,-1.67373 0,-0.85976 -0.12678,-1.58841 -0.12678,-1.58841 z"
       sodipodi:nodetypes="ccccsc" />
    <rect
       style="fill:#86a7c4;fill-opacity:1;stroke-width:1.34135"
       id="rect142"
       width="26.38328"
       height="6.5990224"
       x="315.47141"
       y="64.364525" />
    <rect
       style="display:inline;fill:#9a8f4f;fill-opacity:1;stroke-width:1.2227"
       id="rect24"
       width="9.7097893"
       height="37.228779"
       x="-357.15985"
       y="58.740543"
       transform="scale(-1,1)" />
    <rect
       style="display:inline;fill:#71693a;fill-opacity:1;stroke-width:0.945927"
       id="rect25"
       width="4.1685567"
       height="2.8607743"
       x="-354.33835"
       y="61.973801"
       transform="scale(-1,1)" />
    <rect
       style="display:inline;fill:#516431;fill-opacity:1;stroke-width:0.762724"
       id="rect26"
       width="4.8335071"
       height="29.101908"
       x="-372.37057"
       y="9.831398"
       transform="matrix(-0.98783185,-0.15552568,-0.15552568,0.98783185,0,0)" />
  </g>
</svg>
