<svg xmlns="http://www.w3.org/2000/svg" width="530" height="630" viewBox="0 0 140.229 166.688"><path d="m30.174 170.602 128.548-91.239a.883.883 31.991 0 1 1.382.863L135.378 230.43a1.474 1.474 154.503 0 1-2.183 1.04L30.288 172.876a1.35 1.35 87.145 0 1-.114-2.273" style="fill:#d2b460;fill-opacity:1;stroke:none;stroke-width:.325001" transform="translate(-24.276 -73.586)"/><path d="M43.194 120.336C54.156 106.934 135.509 5.88 135.509 5.88L70.93 137.31Z" style="fill:#b39233;fill-opacity:1;stroke:none;stroke-width:.325001"/><path d="m67.936 195.88.18 39.104a.948.948 23.854 0 0 1.582.7l26.057-23.485a1.54 1.54 84.018 0 0-.26-2.478l-25.737-14.897a1.214 1.214 149.899 0 0-1.822 1.056" style="fill:#b39233;fill-opacity:1;stroke:none;stroke-width:.325001" transform="translate(-24.845 -74.914)"/></svg>