<svg xmlns="http://www.w3.org/2000/svg" xmlns:xlink="http://www.w3.org/1999/xlink" width="410.701" height="637" viewBox="0 0 108.665 168.54"><defs><linearGradient id="a"><stop offset="0" style="stop-color:#177e7e;stop-opacity:1"/><stop offset="1" style="stop-color:#a7eeee;stop-opacity:0"/></linearGradient><linearGradient xlink:href="#a" id="b" x1="52.836" x2="55.505" y1="13.876" y2="347.438" gradientTransform="matrix(1 0 0 .46967 .47 1.322)" gradientUnits="userSpaceOnUse"/></defs><g style="display:inline"><path d="M7.408 164.754 8.632 41.247S17.015 6.586 53.84 6.586s44.987 28.752 44.987 28.752l1.245.351.734 129.315z" style="display:inline;fill:url(#b);stroke-width:.181325"/></g><g style="display:inline"><path d="M121.362 103.645c-.47.863-.698 1.518-.698 1.518s-.936-1.31-4.444-1.45-5.987 2.946-5.987 2.946-.467-2.572-3.975-2.292-3.462 4.35-3.462 4.35-3.274 2.011-1.263 5.66 6.175.56 6.175.56.28.515 1.87 2.714 4.444 3.554 9.87 2.946 7.343-5.566 7.343-5.566.382.895 1.98 1.346l-1.549-3.883s-3.014-4.556-5.86-8.85" style="display:inline;fill:#fff;fill-opacity:1;stroke-width:.264583" transform="translate(-29.575 -79.945)"/><path d="M116.322 105.115c-3.217-.041-6.135 2.714-6.135 2.714s-.843-1.918-4.35-1.076c-2.207.53-1.824 2.806-1.824 2.806s-1.45.093-2.666 1.356c0 0-.206.03-.286.04-.29.892-.29 2.039.473 3.421 2.011 3.649 6.174.562 6.174.562s.28.514 1.87 2.713 4.444 3.554 9.87 2.946c3.664-.41 5.723-2.802 6.677-4.313l-.383-.96s-3.182-4.811-6.307-9.523c-.602-.258-1.403-.495-2.467-.639a5 5 0 0 0-.646-.047" style="display:inline;fill:#e8e8e8;fill-opacity:1;stroke-width:.264583" transform="translate(-29.575 -79.945)"/><path d="M109.906 109.746s-.42.468-2.151 1.45-3.321-.234-3.321-.234l.888.795c.889.796 2.246.375 2.246.375s-1.17 1.356-3.04 2.057c-1.5.563-2.922-.433-3.446-.864.104.334.25.684.452 1.051 2.011 3.649 6.174.562 6.174.562s.28.514 1.87 2.713 4.444 3.554 9.87 2.946c4.681-.524 6.742-4.274 7.222-5.297l-.692-1.043c-.727.695-2.953 2.47-7.466 3.253-5.66.982-7.53-3.46-7.53-3.46s-.468.14-1.684.233-1.543-1.73-1.543-1.73.374-.562 1.075-1.217c.702-.655 1.076-1.59 1.076-1.59m7.952 1.123s.888 1.403 3.273 2.712c1.849 1.015 3.884.69 4.723.488l-.763-1.153-.03.01c-2.947.936-7.203-2.057-7.203-2.057" style="display:inline;fill:#bfbfbf;fill-opacity:1;stroke-width:.264583" transform="translate(-29.575 -79.945)"/><path d="M128.913 121.795c-3.119.031-5.268 2.498-5.268 2.498s-3.4-2.342-5.225.047c-1.924 2.518.475 4.656.475 4.656s-1.454-.785-2.946.855c-1.194 1.313-.38 3.325-.38 3.325s-.95-.309-1.947.143c-.705.318-1.663 1.235-1.663 1.235s-.735-.98-1.9-1.426c-1.307-.498-1.544-.57-3.468.095-2.207.763-2.375 3.896-2.375 3.896s-.736-.51-2.328-.238c-1.663.285-2.518 1.164-3.088 3.064s3.088 2.067 3.088 2.067.82 1.358 2.589 1.781c1.686.404 2.779-1.021 2.779-1.021s1.045.998 2.898 1.568c1.852.57 3.183-.428 3.183-.428s-.095 4.086 4.323 4.228c4.418.143 5.083-3.373 5.083-3.373s.64 1.829 4.275 1.045c1.878-.405 2.328-2.755 2.328-2.755s.131.21.432.434v-21.64a6 6 0 0 0-.865-.056" style="display:inline;fill:#fff;fill-opacity:1;stroke-width:.134363" transform="translate(-29.575 -79.945)"/><path d="M129.11 124.553a4 4 0 0 0-.346.008c-2.01.125-3.694 1.584-3.694 1.584s-2.208-1.306-4.037.19c-1.695 1.387-.428 3.563-.428 3.563s-.14-.113-.808.095c-.59.185-2.993 2.708-2.993 2.708s1.52-.095 3.896 0 4.228 1.805 4.228 1.805-1.734-.546-4.014-.546-3.378 1.366-3.492 1.402c-.517.16-.665-1.022-2.233-1.046-1.304-.02-2.47 1.473-2.47 1.473s-1.948-1.568-4.513-1.188-3.705 2.993-3.705 2.993-.855-.665-2.518-.238-2.043.547-3.183 2.756l-.036.04c-.249 1.702 3.124 1.86 3.124 1.86s.82 1.358 2.589 1.781c1.686.404 2.779-1.02 2.779-1.02s1.045.997 2.898 1.567c1.852.57 3.183-.428 3.183-.428s-.095 4.086 4.323 4.228c4.418.143 5.083-3.373 5.083-3.373s.64 1.83 4.275 1.045c1.878-.405 2.328-2.755 2.328-2.755s.043.073.138.178v-9.404c-.978.337-1.754.628-1.754.628s0-.522.998-1.473c.185-.175.457-.33.756-.472v-7.936a4 4 0 0 0-.375-.025z" style="display:inline;fill:#f2f2f2;fill-opacity:1;stroke-width:.134363" transform="translate(-29.575 -79.945)"/><path d="M127.16 137.88s.333 1.377 2.043 2.28c.183.096.377.17.575.23v-.977c-1.63-.437-2.618-1.534-2.618-1.534m-22.754.332s.142.332 1.14 1.377 2.518 1.188 2.518 1.188-.57.522-2.613.902-2.185-1.567-2.185-1.567-.38.475-2.138 1.187c-1.564.634-2.158-.917-2.276-1.282l-.052.095-.036.039c-.249 1.702 3.124 1.86 3.124 1.86s.82 1.359 2.589 1.782c1.686.404 2.779-1.02 2.779-1.02s1.045.997 2.898 1.567c1.852.57 3.183-.428 3.183-.428s-.095 4.086 4.323 4.228c4.418.143 5.083-3.373 5.083-3.373s.64 1.829 4.275 1.045c1.878-.405 2.328-2.755 2.328-2.755s.131.21.432.434v-1.123c-1.436-.128-1.953-1.211-1.953-1.211s-.57 2.423-3.895 2.09c-3.325-.332-2.755-2.28-2.755-2.28s.238-.285 1.235-.665 2.043-1.71 2.043-1.71-2.233 1.235-4.418 1.472c-2.185.238-2.613-1.188-2.85-1.14s.142 2.613-2.518 3.61c-2.66.998-3.325-2.137-3.325-2.137s.047 0 .902-.38 1.283-1.378 1.283-1.378-2.66.95-4.798 1.235-4.323-1.662-4.323-1.662" style="display:inline;fill:#bfbfbf;fill-opacity:1;stroke-width:.134363" transform="translate(-29.575 -79.945)"/><path d="M40.517 132.965v30.077c.439.146.98.217 1.646.149 2.714-.281 2.808-2.036 2.808-2.036s2.62 1.591 4.586.468 3.37-3.182 3.37-3.182 1.216 2.34 5.054 2.153c3.837-.188 2.527-6.74 2.527-6.74s-.655-2.901-5.241-2.246l-4.587.655s4.614-4.437 1.498-8.236c-2.668-3.253-5.99-.75-5.99-.75s1.403-2.152.093-3.181c-1.31-1.03-3.931-.843-3.931-.843s2.62-4.025-1.591-6.177c-.082-.042-.16-.072-.242-.111" style="display:inline;fill:#fff;stroke-width:.132367" transform="translate(-29.575 -79.945)"/><path d="M38.088 136.01v25.742c.421-.18.705-.316.705-.316s.655 2.035 3.37 1.755 2.808-2.036 2.808-2.036 2.62 1.591 4.586.468 3.37-3.182 3.37-3.182 1.216 2.34 5.054 2.152 2.527-6.738 2.527-6.738-.15-.558-.676-1.128c-1.405-.312-1.243-.493-3.34.42-2.58 1.126-3.574 1.754-4.732 1.622-1.158-.133-2.812-2.416-2.78-2.846.034-.43 4.203-4.335.663-6.42s-5.758-.33-5.758-.33 2.283-3.178-.43-4.236c-2.714-1.06-3.972.43-3.575-1.159.256-1.022-.483-2.903-1.792-3.769" style="display:inline;fill:#e8e8e8;fill-opacity:1;stroke-width:.132367" transform="translate(-29.575 -79.945)"/><path d="M46.631 150.566s-1.588 3.044-4.699 2.912c-.216-.009-.404-.036-.603-.055v9.777c.254.02.53.022.834-.01 2.714-.28 2.808-2.035 2.808-2.035s2.62 1.591 4.586.468 3.37-3.183 3.37-3.183 1.216 2.34 5.054 2.153c1.896-.093 2.534-1.74 2.695-3.382-.377.8-.726 1.316-1.8 1.495-1.986.331-4.038 1.06-5.825-.728l-1.787-1.786s-.331 3.375-2.846 3.308c-2.515-.066-4.302.663-5.295-.926-.992-1.588-.86-3.177-.662-3.839.199-.662 2.052 1.06 3.376-1.522 1.324-2.58.794-2.647.794-2.647m-60.657 3.36c.07.301.157.557.25.783v-.742z" style="display:inline;fill:#bfbfbf;fill-opacity:1;stroke-width:.132367" transform="translate(-29.575 -79.945)"/><path d="M50.914 117.91c-.186 0-3.768.557-4.42-2.56-.498-2.385 1.815-3.907 2.652-3.86.838.046 1.861.372 2.28.186.419-.187.431-3.157 4.978-4.14 4.173-.904 5.954.604 5.954.604s.695-2.387 3.21-2.93c3.442-.745 3.885 1.8 4.466 1.58.616-.232 1.506.192 2.198.71.737.553.733 1.384.733 1.384s1.953-.79 3.396.372c1.442 1.163 1.581 2.326 1.581 2.326s3.35-1.72 4.792.373.651 4.419.651 4.419-.558 1.442-1.86 1.907-1.861.093-1.861.093-.094 1.163-1.257 1.722-2.977.14-2.977.14.047 2.744-3.628 3.349c-3.588.59-4.42-1.024-4.978-1.256-.558-.233-.372-1.024-.698-.884s-2.372 1.628-4.42 1.442c-2.046-.186-3.349-2.233-3.349-2.233s-3.396 1.721-5.024.372-2.419-3.117-2.419-3.117" style="display:inline;fill:#fff;fill-opacity:1;stroke-width:.131578" transform="translate(-29.575 -79.945)"/><path d="M67.864 108.195a5 5 0 0 0-.7.001c-1.776.132-2.5 2.04-2.5 2.04s-2.5-.921-3.552-.527c-1.053.395 1.118 1.184 1.25 1.382s-4.08-.33-5.263.131c-1.185.46.46-.92.46-.92s.526-.264-1.316-1.119-3.42 2.368-3.816 2.763c-.394.395-1.71.066-3.026-.131-1.316-.198-2.829 2.5-2.829 2.5l-.14.265c-.01.246.007.502.063.77.651 3.117 4.233 2.56 4.42 2.56 0 0 .79 1.767 2.418 3.116s5.024-.372 5.024-.372 1.303 2.047 3.35 2.233 4.094-1.303 4.42-1.442c.325-.14.139.65.697.883s1.39 1.847 4.978 1.257c3.675-.605 3.628-3.35 3.628-3.35s1.814.419 2.977-.14 1.256-1.72 1.256-1.72.559.372 1.861-.094 1.861-1.907 1.861-1.907.271-.808.203-1.898c-.44-.822-1.04-1.81-1.621-2.464-1.053-1.184-4.408-.132-4.408-.132s-1.119-1.25-2.303-1.908-2.565-.197-2.565-.197l-1.119-.724s-2.015-.755-3.709-.856" style="display:inline;fill:#e8e8e8;fill-opacity:1;stroke-width:.131578" transform="translate(-29.575 -79.945)"/><path d="M66.112 113.525s.23 1.546.888 2.5 1.776 4.408-2.434 4.474-1.382-4.704-1.382-4.704-2.763 1.02-5.428 1.316-5.296-1.81-5.296-1.81.198.527 1.546 1.71c1.35 1.185 2.27.89 2.83.89.559-.001-.362.756-.362.756s-1.547.723-3.093.361c-1.546-.361-1.71-2.565-1.71-2.565s-1.184.46-3.29.197c-1.906-.238-1.791-2.069-1.752-2.428l-.057.093-.024.046-.114.348c0 .207.014.419.06.641.652 3.117 4.234 2.56 4.42 2.56 0 0 .79 1.767 2.42 3.116 1.627 1.35 5.023-.372 5.023-.372s1.303 2.047 3.35 2.233 4.094-1.303 4.42-1.442c.325-.14.139.65.697.883s1.39 1.847 4.978 1.257c3.675-.605 3.628-3.35 3.628-3.35s1.814.419 2.977-.14a2.24 2.24 0 0 0 1.256-1.72s.559.372 1.861-.094 1.861-1.907 1.861-1.907.17-.518.205-1.279c-.4.387-1.328 1.39-2.972 1.72-1.974.394-3.52-1.58-3.52-1.58v.33c0 .328.987.822 1.283 1.414s-.066 1.053-1.612 1.382-2.532-.954-2.532-.954-.658.723-1.744.92-2.04-.591-2.829-1.25c-.79-.657.724-.953 2.599-1.25 1.875-.295 2.072-1.348 2.072-1.348s-1.546.428-3.75.56c-2.204.13-4.473-1.514-4.473-1.514" style="display:inline;fill:#bfbfbf;fill-opacity:1;stroke-width:.131578" transform="translate(-29.575 -79.945)"/><path d="M119.348 178.736c1.68 1.38 3.84.062 3.963-.248s1.431 2.273 4.278.936c2.83-1.328 1.234-3.723 1.234-3.723s1.69-1.715.867-2.91c-1.036-1.507-2.353-.62-2.6-.744-.249-.124-.125-3.011-2.912-3.406-2.783-.394-3.468 1.734-3.468 1.734s-2.148-1.722-4.44.312c-1.203 1.067-1.345 3.138-.912 3.943.434.805.398 1.01.398 1.01s-2.23-3.097-4.77-1.425c-2.538 1.672 0 3.406 0 3.406s-3.22 0-1.981 1.177 4.583-.062 4.583-.062-.214 1.192 2.697 1.006 2.45-1.51 2.45-1.51z" style="display:inline;fill:#fff;fill-opacity:1;stroke-width:.247726" transform="translate(-29.575 -79.945)"/><path d="M123.076 170.686c-1.213.038-1.542 1.103-1.542 1.103s-1.336-1.424-3.635-.35c-2.398 1.118-1.927 4.488-1.927 4.488s-1.62-1.577-3.372-.613c-1.976 1.087-1.007 2.168-.788 2.299s-.329.175-.788.153c-.4-.02-.922.07-2.3.531-.008.137.072.302.281.5 1.239 1.178 4.583-.061 4.583-.061s-.214 1.192 2.697 1.006 2.45-1.51 2.45-1.51l.613.504c1.68 1.38 3.84.062 3.963-.248s1.431 2.272 4.278.936c1.412-.663 1.722-1.591 1.678-2.355a33 33 0 0 0-.464-.354c-1.05-.788-1.116-.679-1.007-.963.11-.285.81-1.642.044-2.518s-1.73-.329-1.73-.329c-.502-1.606-.74-2.29-3.034-2.219" style="display:inline;fill:#f2f2f2;fill-opacity:1;stroke-width:.247726" transform="translate(-29.575 -79.945)"/><path d="M120.811 172.51s-.161.594.282 1.358c.48.829.791.964.572 1.292s-.24.241-2.452.833c-2.211.59-2.803-1.205-2.803-1.205s-.046.66.557 1.08 1.567.322 1.874.65c.551.59-.787 1.584-.945 1.631-.53.157-1.486.384-2.23-.01-.678-.36-.854-.614-.898-1.074-.023-.243.32-.405.667-.514-.256.059-.577.12-.974.164-1.182.131-1.905-.372-1.905-.372s.504.481 1.249.657c.744.175.065.832.153.832.087 0-.46.416-1.774.744-1.313.329-.788-.482-.788-.482l-.81.438c-.758.41-.782.02-1.783.022q.066.112.202.244c1.239 1.177 4.583-.062 4.583-.062s-.214 1.192 2.697 1.006 2.45-1.51 2.45-1.51l.613.504c1.68 1.381 3.84.062 3.963-.248s1.431 2.273 4.278.936c.87-.408 1.321-.918 1.53-1.427-.05-.003-.1-.004-.14-.012-.482-.088-.986-1.05-.986-1.05l-.306.415c-.307.416-1.219.233-1.81.233s-1.17-.705-1.314-1.16c-.156-.493-.117-1.11.124-1.394.24-.285.788-.657 1.62-1.248s-.481.11-.569.131-1.457.648-2.837.648c-1.379 0-2.09-2.05-2.09-2.05m-5.376 4.04c.221-.051.365-.094.478-.13-.128.031-.3.074-.478.13m.478-.13a1 1 0 0 0 .19-.055c.042-.025-.043.007-.19.054" style="display:inline;fill:#d8d8d8;fill-opacity:1;stroke-width:.247726" transform="translate(-29.575 -79.945)"/><path d="M51.34 177.832s-.43 1.307-1.78 1.373c-1.186.058-1.73-1.22-1.73-1.22s-.226.358-1.322 0c-1.23-.403-1.02-1.1-1.02-1.1s-1.676 1.347-1.828-.128 1.105-1.434 1.105-1.434 1.133-.898 1.642-.644l.508.254s-.305-1.373.967-1.576c1.271-.204 1.576.457 1.678 0 .102-.458-.773-.596.814-2.29 1.24-1.322 2.288-1.067 2.288-1.067s-.813-3.967 2.289-4.577 4.628 1.271 4.628 1.271 2.311-2.179 4.628-.152c1.865 1.631 1.17 3.051 1.17 3.051s1.794-.457 2.492.661c.486.78.101 1.526.101 1.526s2.136-1.577 3.662-.05c1.526 1.525.356 3.712.356 3.712s2.979-.569 3.51 1.322c.468 1.671-1.272 2.187-1.272 2.187s1.983 0 1.068.712-1.28.54-1.78.56c-2.156.08-1.526.966-3.713.457s-2.695-1.475-3.305-1.678c-.61-.204-1.323 1.22-3.662.966s-2.289-1.424-2.289-1.424.551.301-1.17.509c-1.341.162-1.83-.865-1.83-.865s-.44 1.298-2.798 1.272c-2.383-.027-3.407-1.628-3.407-1.628" style="display:inline;fill:#fff;fill-opacity:1;stroke-width:.143847" transform="translate(-29.575 -79.945)"/><path d="M62.246 167.75c-1.09-.093-2.143 1.076-2.241 1.403-.178-.343-1.388-1.657-3.528-1.29-2.518.433-3.001 3.154-3.001 3.154s-.966-.076-2.34.84-1.246 1.957-1.322 2.186c-.076.23-.813 0-1.525.102s-.916 1.144-.916 1.144-.458.102-1.73.255c-.976.117-1.36.417-1.988.848-.008.11-.01.23.005.366.152 1.474 1.828.126 1.828.126s-.21.698 1.02 1.1c1.096.359 1.323 0 1.323 0s.543 1.28 1.729 1.221c1.35-.066 1.78-1.373 1.78-1.373s1.024 1.601 3.407 1.627c2.358.027 2.797-1.27 2.797-1.27s.49 1.025 1.831.864c.804-.097 1.103-.214 1.203-.311.1.344.517 1.037 2.256 1.226 2.339.255 3.051-1.17 3.662-.966s1.118 1.17 3.305 1.678c2.187.509 1.556-.378 3.713-.457.5-.019.864.152 1.78-.56a1 1 0 0 0 .139-.126c-.142-.01-.27-.015-.419-.027-1.322-.101-1.246-.712-1.246-.712s.84-.305.661-1.805-2.95-1.297-3.026-1.017.356-1.145-.636-2.925c-.991-1.78-4.551-.127-4.551-.127s.686-.178.305-1.703-2.39-.763-2.568-.61c-.178.152.584-1.247-.865-2.493a1.46 1.46 0 0 0-.842-.368" style="display:inline;fill:#f2f2f2;fill-opacity:1;stroke-width:.143847" transform="translate(-29.575 -79.945)"/><path d="M61.893 170.89s-1.577 1.068-4.12 1.602c-2.542.534-4.043-.89-4.043-.89s-.127.203.661.89c.789.687 1.933.94 2.06.966s.024 2.005-2.645 2.136c-2.06.102-3.661-1.093-3.661-1.093s1.475 1.22 1.882 1.627-.331.433-1.577.789-2.874-.738-2.874-.738-.254.102-.94.178c-.687.076-.56-.534-.738-.28-.178.255-.203.179-1.22.306-.865.108-.356.01-1.027.134q-.003.112.009.24c.152 1.475 1.828.127 1.828.127s-.21.698 1.02 1.1c1.096.359 1.323 0 1.323 0s.543 1.28 1.729 1.221c1.35-.066 1.78-1.373 1.78-1.373s1.024 1.601 3.407 1.627c2.358.027 2.798-1.27 2.798-1.27s.489 1.025 1.83.864c.804-.097 1.103-.214 1.203-.311.1.344.518 1.037 2.256 1.226 2.34.255 3.051-1.17 3.662-.966s1.118 1.17 3.305 1.678c2.187.509 1.557-.378 3.713-.457.5-.019.865.152 1.78-.56.024-.019.039-.035.06-.054a10.5 10.5 0 0 0-1.738-.022c-.992.076-.992-.712-.992-.712s-.61.356-1.806 0c-1.195-.356.179-1.959.179-1.959s-.56.026-2.493-.228c-1.932-.255-1.042-.789-1.042-.789s.28-.28.458-.56c.178-.279.356-.533.356-.533s-1.043.788-2.493.966-2.06-1.17-2.06-1.17-.024.814 1.12 1.425c1.144.61 2.186-.051 2.186-.051s-.228.33-1.22.991-2.136-.356-2.136-.356-.483.28-3.026.026-2.873-3.026-2.873-3.026.711-.305 2.212-1.043c1.5-.737 1.907-1.678 1.907-1.678" style="display:inline;fill:#d8d8d8;fill-opacity:1;stroke-width:.143847" transform="translate(-29.575 -79.945)"/><path d="M100.432 150.73c.212 0 4.293.636 5.035-2.915.568-2.718-2.067-4.452-3.02-4.399-.955.053-2.12.424-2.598.212s-.491-3.596-5.67-4.717c-4.755-1.028-6.785.69-6.785.69s-.791-2.72-3.657-3.34c-3.922-.848-4.427 2.052-5.088 1.802-.702-.265-1.716.218-2.504.809-.84.63-.835 1.576-.835 1.576s-2.226-.9-3.87.424c-1.642 1.325-1.801 2.65-1.801 2.65s-3.816-1.96-5.46.424c-1.642 2.385-.741 5.035-.741 5.035s.636 1.643 2.12 2.173 2.12.106 2.12.106.106 1.325 1.43 1.961c1.326.636 3.393.16 3.393.16s-.053 3.126 4.134 3.815c4.087.673 5.035-1.166 5.67-1.43.637-.266.425-1.167.796-1.008.37.16 2.703 1.855 5.035 1.643s3.816-2.544 3.816-2.544 3.87 1.961 5.724.424 2.756-3.55 2.756-3.55" style="display:inline;fill:#fff;fill-opacity:1;stroke-width:.149906" transform="translate(-29.575 -79.945)"/><path d="M81.122 139.663q.415-.026.796.001c2.024.15 2.849 2.324 2.849 2.324s2.848-1.05 4.047-.6c1.2.45-1.274 1.35-1.424 1.574-.15.225 4.647-.375 5.996.15 1.35.524-.524-1.05-.524-1.05s-.6-.3 1.499-1.274c2.098-.974 3.897 2.699 4.347 3.148s1.949.075 3.448-.15 3.223 2.849 3.223 2.849l.16.302c.01.28-.009.572-.072.878-.742 3.55-4.823 2.915-5.035 2.915 0 0-.9 2.014-2.756 3.551s-5.724-.424-5.724-.424-1.484 2.332-3.816 2.544-4.664-1.484-5.035-1.643-.159.742-.795 1.007-1.584 2.104-5.671 1.431c-4.187-.689-4.134-3.816-4.134-3.816s-2.067.477-3.392-.16a2.55 2.55 0 0 1-1.431-1.96s-.636.424-2.12-.106-2.12-2.173-2.12-2.173-.31-.92-.231-2.163c.501-.936 1.185-2.063 1.847-2.807 1.199-1.349 5.022-.15 5.022-.15s1.274-1.424 2.623-2.173 2.923-.225 2.923-.225l1.274-.825s2.296-.86 4.226-.975" style="display:inline;fill:#f2f2f2;fill-opacity:1;stroke-width:.149906" transform="translate(-29.575 -79.945)"/><path d="M83.118 145.736s-.263 1.761-1.012 2.848c-.75 1.087-2.024 5.022 2.773 5.097s1.574-5.36 1.574-5.36 3.148 1.162 6.184 1.5c3.035.337 6.034-2.062 6.034-2.062s-.225.6-1.762 1.95c-1.536 1.348-2.586 1.011-3.223 1.011s.412.862.412.862 1.762.825 3.523.412c1.762-.412 1.949-2.923 1.949-2.923s1.35.525 3.748.225c2.171-.272 2.04-2.357 1.996-2.766l.065.105.028.052.13.397c0 .236-.017.478-.07.731-.742 3.551-4.823 2.916-5.035 2.916 0 0-.9 2.014-2.756 3.55-1.855 1.538-5.724-.423-5.724-.423s-1.484 2.332-3.816 2.544-4.664-1.485-5.035-1.644-.159.742-.795 1.007-1.583 2.104-5.671 1.432c-4.187-.69-4.134-3.817-4.134-3.817s-2.067.477-3.392-.159a2.55 2.55 0 0 1-1.431-1.96s-.636.424-2.12-.107c-1.484-.53-2.12-2.173-2.12-2.173s-.194-.59-.234-1.457c.456.44 1.514 1.585 3.386 1.96 2.249.449 4.01-1.8 4.01-1.8v.375c0 .375-1.124.937-1.461 1.612-.338.674.075 1.199 1.836 1.574 1.761.374 2.886-1.087 2.886-1.087s.75.824 1.986 1.05c1.237.224 2.324-.675 3.223-1.425.9-.75-.824-1.087-2.96-1.424s-2.362-1.537-2.362-1.537 1.762.487 4.273.637 5.097-1.724 5.097-1.724z" style="display:inline;fill:#bfbfbf;fill-opacity:1;stroke-width:.149906" transform="translate(-29.575 -79.945)"/></g><g style="display:inline"><path d="M86.171 107.005c-.838-5.87.839-4.193.452-8.063s.193-5.224-.258-7.288c-.452-2.064-2-3.225-2.387-3.419s-5.546-.838-7.223-2.515-2.774-3.548-2.903-3.87-.903-2.386-.903-2.386 1.87 2.386 2.387 3.095.387 2.838 3.096 3.419c2.708.58 5.611 1.548 5.611 1.548s-2.709-2.258-3.096-4.838-.387-3.418-.387-3.418.258 3.483 1.354 4.708 3.161 3.935 3.161 3.161 1.677 2.773 2.515-2.903c.839-5.675 1.42-6.965 1.42-6.965l.515.903-.903 6.901s2.129-1.161 3.096-4.321c.968-3.161 1.032-3.096 1.032-3.096s1.613.967.839 1.806c-.774.838-2.838 5.933-4.644 7.159s-1.226 3.676.774 2.451 6.901-3.225 8.256-5.87l1.354-2.644s.258.387.194.967c-.065.581-.968 3.29-2.71 4.386-1.74 1.097-4.514 2.387-5.675 3.096s-3.16 1.032-3.225 4.838.774 7.933.774 9.159c0 1.225-.065 3.999-.065 3.999z" style="fill:#92602b;fill-opacity:1;stroke-width:.600001;stroke-linecap:square;stroke-linejoin:bevel;stroke-dasharray:.600001,1.8" transform="matrix(-.66339 0 0 .66339 83.067 86.846)"/><path d="M82.592 68.727c-.217.012-.412.137-.613.223-.158.068-.746.144-.58.516.063.142.182.252.257.387.156.078.016.225.065.323.047.094.194.129.194.258 0 .052-.3-.122-.323-.13-.31-.103-.658-.09-.968-.193a5 5 0 0 1-.516-.387c-.012-.017.016-.05 0-.065-.015-.015-.043.006-.064 0-.066-.016-.125-.064-.193-.064-.046 0-.055.625-.065.645-.048.096-.734.064-.968.064-.213 0-1.037.076-1.29 0-.34.149-.327-.247-.515-.322-.06-.024-.134.024-.194 0-.056-.022-.07-.114-.129-.129-.292-.073-.603.02-.903 0-.077-.005-.586-.124-.645-.065-.42.42-.143.866-.258 1.097-.009.017-.757 0-1.032 0-.242 0-.473-.07-.71-.129-.64-.16-1.457.11-1.999.452-.607.383-.712.296-.903.773-.106.266.222.367.258.58.014.086 0 .173 0 .26 0 .538.096.242-.645.321-.39.042-.783.09-1.161.194-.335.091-.64.272-.967.387-.104.036-.356-.04-.323.064.18.56.576 1.024.839 1.548.019.039-.02.091 0 .13.027.054.086.086.129.129.021.086.024.178.064.257.01.02.05-.015.065 0 .072.073-.033 1.063-.017 1.469-.152-.043-.299-.091-.306-.05-.083.498.014.292.194.71.074.174-.033.387.064.58.06.122.208.093.258.194.085.17-.304-.127-.129.258.084.185.19.363.323.516.15.173.34.305.516.451.105.089.322.121.322.259 0 .021-.043 0-.064 0h-.194c-.12 0-.659-.066-.774 0-.093.053-.138.165-.193.257-.166.276.438 1.393.451 1.42.052.11.157.19.258.257.018.012.055-.019.064 0 .02.039.035.104 0 .13-.304.228-1.49-.164-1.612.322-.037.146 0 .301 0 .452 0 .114-.04.46 0 .58.056.167.181.242.323.322.932.533 1.438.017 2.322.194.066.013.153.01.193.065.503.058.07.306.13.451.075.19.122.246.193.387.019.038-.03.099 0 .129.107.108.307-.016.451-.065.68-.226 1.488-.945.838-1.676-.091-.103-.225-.161-.322-.259-.266-.045-.204-.309-.323-.451-.108-.13-.334-.23-.387-.387-.07-.21 1.163-.02 1.226 0 .557.186.2 1.201.322 1.354.076.095.144.217.259.258.056.02.91-.103.967.065.075.226-.149.832.258.967.243.081.942.027 1.161-.129.074-.053.116-.145.193-.193.415-.26 1.088-.448 1.549-.645.138-.06-.013-.1.128-.194.036-.023.091.02.13 0 .116-.058-.468-1.236-.517-1.354-.009-.022-.164-.222-.129-.258.137-.137.532.145.645.258.073.073-.098.193.065.193.042 0 .246.024.258 0 .08-.16 0-.673 0-.838 0-.021-.02-.058 0-.064.215-.072.34.106.516.193.184.092.242.064.452.064.107 0 .226.048.322 0 .056-.028.064-.743.064-.838 0-.306.039-.18-.064-.387-.19-.378-.327-.783-.516-1.16-.08-.162-.296-.332-.322-.517-.049-.337.052-.556.193-.839.01-.019-.02-.054 0-.064.038-.02.086-.007.129 0 .582.097.36.258.516.645.046.116.124.218.194.323.016.025.043.042.064.064.043.021.101.025.13.064.343.482.448.958.064 1.42-.152.181-.37.282-.323.516.048.242.477.696.71.773.04.014.098-.03.129 0 .015.016.002.043 0 .065-.02.172-.023.348-.065.516-.096.386-.337.516.258.516h.968c.258 0-.108.022.064-.064.086-.043.237.043.323 0 .036-.019-.045-1.322 0-1.355.083-.063.547-.29.645-.194.046.047-.115.187.128.065.039-.02-.03-.098 0-.129.015-.015.05.015.065 0 .076-.076.056-.272.258-.323.115-.028.432-.019.516.065.015.015-.015.05 0 .065.03.03.099-.03.129 0 .015.015-.02.054 0 .064.136.068.492.04.516-.129.018-.128 0-.258 0-.387 0-.344.061-.78-.13-1.096-.176-.294-.135-.008-.257-.13-.112-.111-.129-.753-.129-.903 0-.148.076-.451.258-.451.129 0 .272-.058.387 0 .07.035.119.108.193.129.083.024.173-.008.259 0 .15.014.3.041.45.065.204.03.499.129.71.129.07 0 .309.036.323.064.114.228-.081.591-.258.71-.036.023-.099-.031-.129 0-.106.105.269 1.15.13 1.29-.087.085-.43-.087-.517 0-.015.015.013.047 0 .064-.198.264-.484.388-.323.71.035.068-.063.086.065.128.266.09.054-.047.451.13.56.248.726-.015 1.161-.387.07-.06.176-.105.194-.194.032-.158-.093-.58 0-.71.08-.112.225-.16.322-.257.076-.076.09-.233.194-.259.29-.072.68.165.903.323.087.063.182.27.258.193.01-.01-.166-.413-.13-.58.143-.64.622-.857 1.226-.903.108-.008.22-.034.323 0 .26.087 1.081.756.968 1.096-.252.755-.378.493 0 1.097.057.091.145.162.193.258.029.058-.046.148 0 .193.043.043.172.086.129.13-.177.177-.433.253-.645.386-.065.04-.102.174-.13.194-.076.058-.18.071-.257.129-.295.221-.33.504-.258.516.19.032.393.047.58 0 .101-.025.187-.197.323-.13.02.01-.007.045 0 .065q.023.07.065.13c.036.054.18.11.193.129.077.115.054.44.129.516.097.097.23.154.322.257.084.094.121.221.194.323.035.05.095.078.129.129.23.345-.748.864-.903.968-.064.043-.206.184-.129.193.192.021.387 0 .58 0 .195 0 .93.02 1.097-.064.112-.056.133-.213.193-.323.367-.673.155-1.07.258-1.742.024-.154.094-.299.13-.451.048-.21.005-.437.064-.645.021-.075.086-.13.129-.194.043-.107.097-.21.129-.322.012-.041-.024-.093 0-.13.075-.112.767-.834.903-.902.23-.115.288.125.387-.323.07-.312-.244-.626-.194-.709a.47.47 0 0 1 .194-.194c.025-.01.61-.135.71-.064a2.4 2.4 0 0 1 .515.516c.148.196.222.424.258.387.03-.03 0-.086 0-.129 0-.15.033-.304 0-.451-.027-.122-.188-.19-.258-.259-.076-.076 0-.214 0-.322 0-.308-.08-.8.387-.645.207.07.323.41.452.58.36.48.42.326.516.903.04.246.128.163.064.452-.034.153-.162.286-.129.452.05.247.51.845.258 1.096-.081.082-.226.065-.322.129-.24.16.068.258-.323.258-.064 0-.136.029-.193 0-.384-.192-.173-.19-.452-.516-.118-.138-.657-.246-.773-.129-.063.063.001.195.064.258.03.03.092-.022.129 0 .062.037.507.396.387.516-.076.076-.216-.015-.323 0-.303.043-.621.266-.903.387-.055.024-.189.12-.129.13.128.02.259-.015.387 0 .181.02.699.31.839.45.026.027.012.3 0 .323-.074.148-.338.145-.451.193-.476.204-.605.653-.775 1.161-.013.041.02.091 0 .13-.24.479-.081.156-.386.257-.183.061-.294.244-.452.323-.02.01-.05-.015-.064 0-.061.06 0 .172 0 .258s-.039.181 0 .258c.019.038.09-.02.128 0 .055.027.079.095.13.13.017.011.046-.013.064 0 .13.086.156.118.142.125.073.024.156.05.374.132.14.052.587.085.645.129.152.114.303.745.258.967-.006.032-.095.133-.064.194.013.027.035.055.064.065.104.034.222.02.322.064.472.21.036.198.516.258.467.058 1.026-.11 1.515-.33V69.137c-.183.003-.416.004-.418.007-.124.186.101.395 0 .516-.088.106-.215.173-.322.259-.286.228-.546.49-.84.71-.233.175-.814-.107-1.031-.194-.06-.024-.13 0-.194 0h-.58c-.15 0-.305.032-.452 0-.055-.013-.683-.613-.838-.71-.364-.227-.742-.355-1.161-.451-.127-.03-.265-.02-.387-.065-.399-.15.31-.28-.516-.13-.315.058-.24.115-.452.195-.578.216-.225.054-.902.258-.39.117.052.005-.194.128-.086.043-1.306.565-1.032.84.176.175.427.277.645.386.268.134-.069-.004.065.13.062.062.17.053.257.064.29.034 1.455-.03 1.742.257.442.443-.03.637-.322.71-.3.075-.598.158-.904.194-.384.044-.778-.055-1.16 0-.359.05.492.19-.258.064-.251-.042-.2-.133-.388-.258-.12-.08-.274-.103-.387-.193-.07-.057-.12-.14-.193-.194a6.5 6.5 0 0 0-.903-.58c-.06-.03-.146-.017-.194-.065-.03-.03.022-.092 0-.129-.047-.078-.156-.11-.193-.193-.053-.12-.036-.26-.065-.388-.013-.058-.096-.418-.129-.451-.015-.015-.049.015-.064 0-.046-.046-.018-.276-.065-.322-.034-.034-.094-.03-.128-.065-.016-.015.015-.05 0-.064-.156-.156-.707.052-.968 0-.03-.006-.037-.051-.065-.065a1.5 1.5 0 0 0-.322-.129c-.169-.039-.346-.03-.516-.065-.266-.053-.589-.303-.839-.386a.6.6 0 0 0-.225-.03M93.86 86.62c-.2-.063-.03.017 0 0m-25.04-9.285q-.01.026-.048.032c.016-.01.035-.025.048-.032" style="fill:#49a22f;fill-opacity:1;stroke-width:.600001;stroke-linecap:square;stroke-linejoin:bevel;stroke-dasharray:.600001,1.8" transform="matrix(-.66339 0 0 .66339 83.067 86.846)"/><path d="m71.012 78.81-1.095-1.824c-.938-.037.442-.758.274-1.094-.258-.515-.355-.208-.456-.41-.092-.184.039-.482.182-.593.087-.068.767-.174.912-.137.054.013.082.09.137.09.039 0-.164-1.249-.137-1.276.068-.068.322.044.41 0 .014-.007 0-.03 0-.046.015-.152.036-.303.046-.456.012-.158.02-.401-.045-.547-.045-.1-.407-.53-.32-.639.084-.104.171-.09.274-.09.583 0 .72.099 1.232.318.198.085.15-.746.319-.866.148-.106 1.013.234 1.14.32.013.008-.01.034 0 .045.054.053.122.09.183.137.06.045.106.143.182.136.63-.057 1.51-.71 2.144-.456.211.085.474.35.592.548.025.04.021.095.046.136.1.168.309.182.456.274.055.034.087.096.137.137.07.058.2.1.137.228-.118.236-.848-.003-.958.091a5 5 0 0 0-.775.821c-.018.025-.024.072 0 .091.352.282.114-.023.456.32.039.038.052.098.091.136.069.07.17.105.228.183.11.147.567 1.075.41 1.231-.053.054-.151 0-.228 0-.09 0-.183.017-.273 0-.498-.09.013-.09-.41-.137-.133-.014-.727-.05-.867 0-.231.083-.474.148-.684.274-.143.086-.337.2-.456.32-.011.01.015.042 0 .045-.468.078-1.13-.185-1.505.228-.063.068-.028.183-.046.274-.038.19-.095.443-.046.638.03.117.108.128.183.228.182.243.242.614.182.912-.064.321-.534.04-.73.137-.068.034-.124.088-.182.137-.397.397.153-.11-.182.091-.056.033-.08.106-.137.137-.207.113-.489.185-.73.137-.736-.147.82-.456 0-.456" style="fill:#52b534;fill-opacity:1;stroke-width:.600001;stroke-linecap:square;stroke-linejoin:bevel;stroke-dasharray:.600001,1.8" transform="matrix(-.66339 0 0 .66339 83.067 86.846)"/><path d="M80.59 73.885c-.213-.593-.671-1.15-.639-1.779.104-2.019.569.253.821 0 .048-.048.068-.118.091-.182.083-.226.156-.455.228-.684q.03-.09.046-.183c.005-.03-.025-.074 0-.09.038-.026.091-.004.137 0 .167.011.334.038.501.045.456.017.913 0 1.369 0 .352 0 .364-.01.364-.365 0-.137.046-.281 0-.41-.05-.144-.186-.24-.273-.365-.02-.028-.022-.068-.046-.092-.01-.01-.035.011-.045 0-.011-.01-.015-.04 0-.045.53-.212.827.39 1.231.593.187.093 1.073-.135 1.186.09.077.156-.091.434-.228.503-.017.008-.163-.02-.183 0-.072.072-.064.3 0 .364.166.166.578.137.73.32.047.056 0 .339.091.365.145.04.645.085.73.09.03.003.32-.016.365 0 .137.052.325.2.41.32.028.04.033.09.046.137.133.487.184.41-.274.41h-.729a.56.56 0 0 0 .045.365c.067.167.089.124.32.228.143.065.38.147.547.091.282-.093.173-.183.456-.136.251.042.513.33.684.501.076.076.202.13.182.228-.058.295-.326.246-.547.32-.14.046-.117.17-.274.045-.061-.049-.213-.456-.228-.456s.006.032 0 .046c-.025.063-.077.116-.09.182-.037.18 0 .365 0 .548 0 .24.384.412.546.547.05.041.195.108.137.137-.04.02-.092-.008-.137 0a3 3 0 0 0-.364.09c-.079.025-.15.07-.228.092-.18.051-.483-.26-.502-.274-.844-.703-.015-.111-.365-.228-.228-.076.076-.01-.046-.09-.04-.028-.098-.018-.136-.046-.028-.02-.018-.072-.046-.092-.083-.059-.197-.069-.274-.136-.066-.06-.082-.159-.137-.229-.06-.078-.495-.501-.592-.501-.554 0-.677-.069-1.05.41-.046.06-.11.112-.136.183-.047.125.021.252-.091.365-.03.028-.696.048-.73.045-.063-.005-.12-.035-.183-.045-.03-.005-.067.019-.09 0-.104-.083-.177-.272-.32-.32-.088-.029-.185-.019-.274-.045-.138-.042-.268-.113-.41-.137-.423-.07-.373.367-.639.456a1.6 1.6 0 0 1-.684.046c-.08-.017-.147-.078-.228-.092-.09-.015-.198.05-.274 0-.064-.043-.24-.899-.182-.957.052-.052.376-.17.41-.183m13.179-2.759c-.078-.009-.141.01-.18.068-.092.137-.124.412-.183.548-.018.041-.094.016-.137 0-.512-.206-.46-.32-1.049-.32-.015 0-.042-.015-.045 0-.076.378.037.65.228.958.448.723.24.554.684.821-.091.107-.192.205-.274.32-.252.352-.2.326-.045.638.062.123-.273-.023.137.182.05.025.567-.026.638-.045.112-.03.207-.11.32-.137.073-.019.153.016.227 0 .356-.08-.003-.143.41-.092.049.006.09.04.138.046.245.031.227-.061.456.091.028.02.021.068.045.092.033.032.102-.029.137 0 .06.047.076.136.137.182.065.05.164.04.228.091.024.02-.014.064 0 .091.02.039.07.055.091.092.091.152.064.434 0 .593-.008.02-.03.03-.045.045-.015 0-.04-.013-.046 0-.057.115.18.364.274.41.056.029.138.002.182.046.053.053.046.197.046.274-.055-.027-.122 0-.183 0-.09 0-.184-.02-.273 0-.174.039-.177.315-.137.456.019.065.076.116.09.182.017.075-.027.158 0 .228.012.029.065-.013.092 0 .068.034.122.092.183.137.223.168.62.39.912.274.126-.05.241-.125.365-.182.149-.07.31-.11.456-.183.058-.029.08-.108.137-.137.056-.028.124-.022.182-.045.444-.178.109-.154.684-.183.167-.008.34-.043.502 0 .083.022.122.122.182.183.046.045.105.08.137.136.073.128.086.52.046.64-.035.104-.178.003-.228.045-.188.156-.254.352-.274.593-.027.321.53.34.73.638.045.068.05.156.09.226-.03-.002-.06-.004-.09.002-.108.021-.593.39-.593.456 0 .208.179.51.273.684.043.078.08.16.137.228.126.151.9.104 1.004.046.02-.01.031-.02.047-.029v-5.208c-.289-.238-.236-.221-.275-.647-.02-.221.115-.32.275-.44v-.569c-.24-.397-.091-.336-.549-.45-.03-.007-.064-.014-.091 0-.13.065-.177.33-.32.365-.032.008-.058-.035-.09-.046-.105-.035-.217-.052-.32-.091-.216-.082-.424-.186-.638-.274-.12-.049-.263-.057-.365-.137-.05-.038-.038-.12-.046-.182-.042-.336.039-1.505-.593-1.505-.106 0-.224-.048-.319 0-.013.007 0 .03 0 .046 0 .06-.017.124 0 .182.015.053.081.083.091.137.041.224 0 .456 0 .684v.365c0 .015.01.056 0 .046-.364-.365-.756-.906-1.277-1.095-.045-.016-.09.038-.137.045-.165.028-.334-.012-.501 0-.173.014-.371.105-.548.046-.182-.06-.803-.62-1.142-.66m2.377 5.007c.003.015.008.033-.003.033s0-.019.003-.033m-.459 10.293c-.361-1.043-.786-1.203.182-1.96.12-.095.307-.016.456-.046a1 1 0 0 0-.045-.274c-.02-.051-.074-.085-.092-.137-.038-.115-.02-.245 0-.365.025-.146.36.03.411-.045.097-.146.113-.66.182-.73.179-.179.49-.266.73-.32.074-.016.171.05.228 0 .024-.02.518-.453.593-.547.068-.085.152-.317.183-.41.01-.029-.022-.07 0-.091.043-.043.121 0 .182 0 .338 0 .032-.032.41.137.058.025.128.014.183.045.133.076.114.152.228.228.013.009.03 0 .045 0 .061.046.125.088.183.137.088.074.17.232.274.274.121.048.208.006.273.136.014.029-.05-.041-.137.046-.05.05-.131.335-.182.41-.008.013-.04-.014-.046 0-.014.044 0 .092 0 .137-.03.046-.07.086-.09.137-.012.028.024.075 0 .091-.072.048-.776-.034-.913 0a1.4 1.4 0 0 0-.365.137c-.053.03-.202.34-.32.41-.04.025-.096.02-.136.046-.025.017.022.07 0 .092-.01.01-.035-.011-.046 0-.096.096-.08.701-.045.82.017.06.46.159.501.183.144.082.069.182.137.32.02.038.072.052.092.09.048.097-.032.444-.046.502-.061.245-.297.24-.502.137-.057-.029-.085-.098-.137-.137-.025-.02-.227 0-.228 0-.024-.01-.165-.2-.228-.137-.107.108-.093.194-.182.32-.038.052-.104.081-.137.136-.016.026-.007.062 0 .092.037.149.14.114.228.273.038.068.017.156.046.228.157.394.182.198.182.684 0 .076.021.155 0 .228-.053.187-.361.092-.502.092-.393 0-1.09-.168-1.23-.593-.042-.123.058-.34 0-.456-.068-.135-.211-.21-.32-.32m-9.532-6.704c.03-.258.025-.524.09-.775.09-.34.472-.418.73-.548.014-.006.036.011.046 0 .025-.024-.007-.725 0-.73.05-.033.538-.001.548 0 .078.016.434.225.501.183.167-.104.38-.352.548-.456a1 1 0 0 1 .364 0c.039.02.068.055.092.091.008.013-.015.041 0 .046.085.028.237-.041.319 0 .08.04.149.097.228.137.043.021.103.011.137.045s.02.096.045.137c.147.245.046-.091.183.228.024.058.017.126.045.183.005.009.334-.026.41 0 .079.025.171.033.229.09.023.024.304.608.32.685.035.177.124.597 0 .775-.069.097-.19.144-.274.228-.024.024-.022.067-.046.091-.007.008-.206-.023-.137.046.054.054.454.276.32.41-.062.062-.18-.05-.092.183.031.083.1.147.137.228.04.088.048.188.091.274.02.038.068.055.091.09.051.077 0 .183 0 .275 0 .045.02.096 0 .136-.01.02-.036.027-.045.046-.046.09.062.284-.046.365-.177.132-.228-.228-.456.228a.6.6 0 0 0 0 .137c.022.021.07-.022.091 0 .011.01-.013.039 0 .045.123.061.538-.187.73-.09a.7.7 0 0 1 .182.136c.116.115.018.052.046.137q.04.115.091.228c.058.13.123.212.092.228-.041.02-.183 0-.137 0 .03 0 .062.01.09 0 .142-.047.183-1.043.183-1.232a2 2 0 0 0-.045-.228c-.007-.013-.035.011-.046 0a.7.7 0 0 1-.137-.182c-.04-.082.015-.184 0-.274-.005-.033-.066-.064-.045-.09.041-.057.302-.104.319-.138.009-.017-.086-.681-.091-.73v-.182c-.015 0-.035.01-.046 0-.1-.1.266-.022.274-.046.019-.057 0-.121 0-.182 0-.257-.08-1.123.045-1.323.04-.064.129-.083.183-.136.016-.017.014-.3 0-.32-.247-.33-.055-.027-.183-.09-.038-.02-.05-.079-.09-.092-.03-.01-.063.007-.092 0-.108-.027-.148-.116-.228.045-.053.106-.002.232-.046.32a2 2 0 0 1-.365 0c-.063-.013-.085-.098-.136-.137-.028-.02-.082-.013-.092-.046-.008-.03-.024-.34.046-.41.034-.034.097-.02.137-.046.107-.071.196-.17.273-.273.113-.151.045-.398-.045-.548-.025-.04-.012-.103-.046-.137-.01-.01-.039.014-.045 0-.014-.027.013-.064 0-.09-.028-.055-.122.007-.183 0-.351-.045-.135-.164-.502 0-.062.027-.128.05-.182.09-.048.036.043.125.046.137.012.06-.028.128 0 .183.024.049.098.052.136.09.182.182-.043.066-.182.047a.5.5 0 0 1-.365-.183c-.03-.03-.081-.225-.091-.228-.118-.03-.246.024-.365 0-.104-.02-.06-.102-.228-.046-.014.005.007.032 0 .046-.114.228.091.435.091.365 0-.015-.03.002-.045 0-.092-.013-.184-.023-.274-.046-.487-.121-.312-.233-.867-.182-.286.026-.39.27-.684.228-.091-.013-.182-.033-.273-.046-.03-.004-.082.03-.092 0-.014-.043.017-.094 0-.136-.016-.04-.055-.068-.09-.092-.013-.008-.043.015-.046 0-.014-.054-.027-.31.045-.365.057-.042.355-.101.41-.045.013.012-.027.094.046.045.034-.022.187-.245.046-.273-.213-.043-.601-.037-.821.045-.051.02-.088.067-.137.092-.027.013-.074-.026-.091 0-.06.09-.077.36-.046.456.007.02.046.024.046.045 0 .004-.129-.005-.137 0-.122.074-.187.107-.228.228-.005.015.01.035 0 .046-.054.054-.129.083-.182.137-.063.062.086.087.09.091.013.012.063.108.092.137.03.03.122.06.091.091-.076.077-.138-.07-.182-.091-.038-.02-.154.029-.183 0-.004-.005-.035-.102-.09-.046-.011.01.006.032 0 .046-.01.019-.04.025-.046.045-.036.107.253.392.319.502.117.195.129.503.091.73-.044.265-.154.08-.228.228-.037.073-.05.157-.091.228-.021.037-.075.051-.091.091-.029.07-.026.183.045.183" style="fill:#60c841;fill-opacity:1;stroke-width:.600001;stroke-linecap:square;stroke-linejoin:bevel;stroke-dasharray:.600001,1.8" transform="matrix(-.66339 0 0 .66339 83.067 86.846)"/><path d="M72.973 81.41c.091.41.187.82.274 1.232.035.166.121.334.09.502-.01.06-.127-.028-.182 0-.068.034-.234.521-.182.547.147.073.27-.12.365-.183.09-.06.428-.003.502.046.012.008-.003.03 0 .046.051.31.045.13.045.319 0 .056-.024.18 0 .228.007.014.032-.007.046 0 .112.056-.048.091.182.091.093 0 .2.01.274-.045.065-.05.046-.16.091-.228.019-.029.067-.022.091-.046.011-.01-.007-.032 0-.046.04-.069.376-.558.41-.593.022-.021.062 0 .092 0 .27 0 .33.211.547.32.166.083.06-.43.137-.456.174-.058.272.09.41.136.015.005 0-.03 0-.045 0-.177-.13-.211-.182-.365-.005-.014 0-.03 0-.046-.045-.06-.11-.11-.137-.182-.021-.057.006-.122 0-.183-.03-.311-.15-.814.228-1.003.184-.092.369.207.502.274.087.043.222.045.32.045.03 0 .065.017.09 0 .085-.056.29-.655.32-.775.015-.06.033-.121.045-.182.006-.03-.021-.07 0-.092.049-.048.182 0 .228.046.255.255.455.64.821.41.244-.152.183-.09.183-.364 0-.122.04-.25 0-.365-.04-.112-.157-.179-.228-.274-.02-.027-.022-.067-.046-.091s-.067-.022-.091-.046c-.039-.039-.04-.115-.091-.137-.07-.03-.163.04-.228 0-.04-.023.028-.1 0-.136-.043-.054-.139-.04-.183-.092-.2-.234.022-.377-.319-.547-.148-.074-.529.046-.502.091.226.376.183-.01.183.365 0 .185.033.427-.091.593-.22.292-.162-.035-.32.091-.121.097-.183.32-.41.137-.038-.03-.02-.097-.046-.137-.017-.025-.062.008-.091 0-.047-.011-.097-.019-.137-.045-.215-.144-.228-.405-.228-.639 0-.045-.02-.096 0-.137.04-.079.08-.16.137-.228.045-.054.207-.027.091-.182-.029-.039-.093-.027-.137-.046-.08-.034-.304-.253-.41-.182-.227.151-.212.539-.183.775.012.091.117.203.092.228-.098.098-.254-.167-.274-.182-.024-.018-.063.011-.091 0-.051-.02-.092-.06-.137-.091-.204-.146-.381-.318-.41-.274-.04.058-.088.335-.092.365s-.013.064 0 .091c.007.014.046.015.046 0 0-.003-.215.004-.228 0-.02-.007-.024-.043-.046-.046-.12-.013-.243 0-.365 0-.015 0-.035-.01-.045 0-.011.011.01.035 0 .046s-.04-.014-.046 0c-.056.111.11.26.183.32a1 1 0 0 0 .136.09c.014.007.038-.012.046 0 .027.04.017.099.046.137.083.111.084-.013.136.091.028.055-.014.124 0 .183.006.02.04.025.046.046.03.088.024.429 0 .501-.01.032-.069.02-.091.046a2 2 0 0 0-.228.32c-.015.026.01.061 0 .09-.042.127-.423.012-.639-.045-.107-.029-.297.017-.319-.092-.03-.15.27-.136.365-.136m7.115.957c-.046-.273-.056-.555-.137-.82-.028-.094-.139-.142-.183-.229-.069-.138-.191-.732-.09-.866.062-.084.42-.411.5-.456.149-.082.17.078.138-.183-.058-.46.013-.026-.228-.365-.037-.05-.011-.13-.046-.182-.08-.12-.464-.196-.41-.41 0-.001.296-.012.41.045.05.025.05.1.091.137a1.6 1.6 0 0 0 .274.182c.148.084.315.134.456.228.09.06.147.158.228.229.041.036.098.052.137.09.01.011-.015.043 0 .046.059.015.122 0 .182 0 .357 0 .503.082.73.41.058.085.091.183.137.274.015.03.045.058.045.092 0 .023-.095-.112-.319-.092-.498.046-1.016.144-1.46.365-.013.007-.034-.01-.045 0-.075.075.103 1.135-.091 1.232-.04.02-.091 0-.137 0" style="fill:#52b534;fill-opacity:1;stroke-width:.600001;stroke-linecap:square;stroke-linejoin:bevel;stroke-dasharray:.600001,1.8" transform="matrix(-.66339 0 0 .66339 83.067 86.846)"/><path d="M94.201 87.248c-.238-.002-.62.358-1.064.536-.645.258-3.998 1.935-4.772 2.258s-.259 1.354-.904 2.45-.128 1.935-.128 1.935l.258 2.387s-.517.71-.065 1.677c.451.968.194.645.194 2s-.71-.646.258 1.676c.967 2.322-.452.903-.84.903-.386 0-.128 0-.192 1.87-.058 1.67.243-.549.4 2.065h1.277s.064-2.773.064-3.999-.839-5.354-.774-9.159 2.064-4.128 3.225-4.837c.685-.419 1.931-1.04 3.195-1.704a.18.18 0 0 0-.132-.058m-11.944-2.874c.105.584-.208.215.385.913.775.912.182.502 1.094 1.368s1.232 1.05 1.46 1.05 1.322.41 1.596-.137c.06-.12.125-.438.185-.86-.854 1.905-1.902-.181-1.902.43 0 .701-1.684-1.44-2.818-2.764m-3.846 1.6c.13.087.22.144.309.18.228.091 1.14.365 1.14.365s.091-.228.32 0c.227.228.683.547 1.185.547s.73.32.912.32.547.227.82-.047q.038-.038.016-.11c-1.07-.331-2.91-.871-4.682-1.25zm12.399-1.62-.061.033a7 7 0 0 1-.821.296s-.365 1.06-.445 1.129-.125-.274-.137-.365c-.01-.091-.387.513-.193.66.194.15-.331.16-.457.15-.125-.012-.41-.183-.41-.183l-.217.467-.125.388s-.376.046-.741.228.456 1.003.228 1.277c-.183.22.074.497.607.623-.39-.572-.154-1.714.907-2.434.613-.416 1.254-1.28 1.865-2.269" style="fill:#b07334;fill-opacity:1;stroke-width:.600001;stroke-linecap:square;stroke-linejoin:bevel;stroke-dasharray:.600001,1.8" transform="matrix(-.66339 0 0 .66339 83.067 86.846)"/><path d="M-77.7-43.064c-1.238 2.091-2.255 5.444-2.255 5.444l.558.144-1.112 3.91.609.093-1.228 2.8.758-.061s-2.126 3.67-1.468 3.662l.708-.01-.88 2.34 1.411-.424.015 1.113 2.615-1.199 1.33 1.146.644-1.071.667.7 1.112-.066.144-.61 2.18.326.142-.66 2.13.427-1.452-2.712 1.266.084-1.512-3.37s1.572.283 1.06-.165c-.512-.449-2.785-3.96-2.785-3.96l.557-.007-1.662-3.216s1.468.082.908-.164c-.56-.245-3.755-4.655-3.755-4.655z" style="fill:#80d266;fill-opacity:1;stroke-width:.340109;stroke-linecap:square;stroke-linejoin:bevel;stroke-dasharray:.340109,1.02032" transform="translate(68.59 171.117)scale(.52572)"/><path d="M-77.7-43.064c-1.238 2.091-2.255 5.444-2.255 5.444l.558.144-1.112 3.91.609.093-1.228 2.8.758-.061s-2.126 3.67-1.468 3.662l.708-.01-.88 2.34 1.411-.424.015 1.113 2.615-1.199 1.33 1.146.644-1.071.667.7 1.112-.066.144-.61 2.18.326.142-.66 2.13.427-1.452-2.712 1.266.084-1.512-3.37s1.572.283 1.06-.165c-.512-.449-2.785-3.96-2.785-3.96l.557-.007-1.662-3.216s1.468.082.908-.164c-.56-.245-3.755-4.655-3.755-4.655z" style="fill:#80d266;fill-opacity:1;stroke-width:.340109;stroke-linecap:square;stroke-linejoin:bevel;stroke-dasharray:.340109,1.02032" transform="translate(68.59 171.117)scale(.52572)"/></g><g style="display:inline"><path d="M6.386 153.739v10.907h46.397c-16.118-7.955-38.926-10.907-38.926-10.907z" style="fill:#3e8927;fill-opacity:1;stroke-width:.264583"/><path d="M143.437 104.443c-.273-.776.548-3.786.548-3.786l1.915.183s1.277 3.603.912 3.603z" style="fill:#92602b;fill-opacity:1;stroke-width:.600001;stroke-linecap:square;stroke-linejoin:bevel;stroke-dasharray:.600001,1.8" transform="translate(-127.373 50.296)"/><path d="M143.463 103.029c.16-.023.34.16.499.228.16.068 1.095.068 1.095.068s.205-.023.478-.365c.274-.342.89-.41.89-.41l-.091-.48-1.733-2.758-1.118 1.619.091 1.39z" style="fill:#724b22;fill-opacity:1;stroke-width:.600001;stroke-linecap:square;stroke-linejoin:bevel;stroke-dasharray:.600001,1.8" transform="translate(-127.373 50.296)"/><path d="M143.519 74.696c-1.752 2.873-3.223 7.497-3.223 7.497l.77.21-1.61 5.394.84.14-1.751 3.853 1.05-.07s-3.012 5.045-2.101 5.045h.98l-1.26 3.222 1.961-.56v1.54l3.643-1.61 1.822 1.61.91-1.47.911.98 1.542-.07.21-.84 3.012.49.21-.91 2.943.63-1.962-3.783 1.752.14-2.032-4.694s2.172.42 1.471-.21c-.7-.63-3.783-5.535-3.783-5.535h.77l-2.241-4.483s2.032.14 1.26-.21c-.77-.35-5.113-6.516-5.113-6.516z" style="fill:#4ba52f;fill-opacity:1;stroke-width:.600001;stroke-linecap:square;stroke-linejoin:bevel;stroke-dasharray:.600001,1.8" transform="translate(-128.103 51.937)"/><path d="M144.608 74.658c-.129.097-.742.355-.742.355l-.258 1.645s.613-.258.387 0-.29 1.161-.29 1.161.87-.323.387.064c-.484.387-.516.452-.42.645.098.194.323.548.323.548s.645.355.42.42c-.226.064-.484.258-.484.258s.064.903-.065.903-.484.516-.322.58c.161.065-.097.194.322.452s1.193-.032 1.193-.032l.29-.645s.388.387.517.387.322.483.645 0c.322-.484.354-.517.354-.517s.581.71.71.581.355-.355.516-.355.58-.226.58-.226.517.033.549-.193l.004-.016c-1.244-1.274-4.277-5.556-4.598-6.01z" style="fill:#59c338;fill-opacity:1;stroke-width:.600001;stroke-linecap:square;stroke-linejoin:bevel;stroke-dasharray:.600001,1.8" transform="translate(-128.103 51.937)"/><path d="M147.188 81.503c-.088.002-.182.043-.284.158-.365.41-.799.548-1.05.502-.25-.046-.455-.296-.57-.068-.113.228-.706.32-.706.32l-.639-.16-.342 1.094.114 1.414.274.045-.297.525.433.456-.455.25-.206.57.913.366.592.136.57-.547s.48.799.662.297 1.186-.73 1.186-.73.501.32.752.25c.251-.068 1.117.388.912-.136-.205-.525.639-.662.89-.867.059-.048.26-.015.53.061l-1.795-3.59-.104.017c-.684-.182-.456-.273-.752-.182-.213.065-.403-.187-.628-.181" style="fill:#57be37;fill-opacity:1;stroke-width:.600001;stroke-linecap:square;stroke-linejoin:bevel;stroke-dasharray:.600001,1.8" transform="translate(-128.103 51.937)"/><path d="M150.324 86.632c-.752.114-1.208.229-1.436.16-.228-.068-.867.091-.89.183-.023.09.297 1.3-.113.98-.411-.319-.297-.57-.89-.593s-1.482.16-1.231.229c.25.068.889.296.66.296-.227 0-1.846-.183-1.846-.183l-.707.411s.798.524 1.39 1.528c.594 1.003-.205 1.163-.205 1.163l-.09.82 1.87.092 1.573-.16s.456.456.433.297.73-1.232.73-1.232l.89.433s.934-.16 1.094-.16.25-.204.638-.113.958.342 1.05.32a3 3 0 0 0 .181-.068c-.634-.745-2.041-2.9-2.897-4.234z" style="fill:#55ba35;fill-opacity:1;stroke-width:.600001;stroke-linecap:square;stroke-linejoin:bevel;stroke-dasharray:.600001,1.8" transform="translate(-128.103 51.937)"/><path d="m150.93 91.493-.969.483.29.13-1.773.193s1.258.13.516.258c-.742.13-1.516.258-1.516.258s1.87-.387-.29-.42c-2.16-.031-1.58.194-1.58.194l-1.129.71s-.451-.13 0 .032c.452.161 2.355 1 1.613 1.032s-1.162-.032-.871.064c.29.097 1.709.13 1.16.71-.547.58-.837.967-.837.967l.58 1.42s-1.226.612-.839.677c.387.064.807 1.128.807 1.128s1.547-1.193 1.805-1 1.678.871 1.774.678c.097-.194-.355-1.032.516-.742s2.645.645 2.645.29-.387-1.419-.387-1.419.257.067.642.153l-.671-1.295 1.752.14-1.622-3.747-.101.009c-.935-.355-1.516-.903-1.516-.903" style="fill:#52b333;fill-opacity:1;stroke-width:.600001;stroke-linecap:square;stroke-linejoin:bevel;stroke-dasharray:.600001,1.8" transform="translate(-128.103 51.937)"/><path d="M144.715 74.798c-.251.296-.753.022-.502.387.25.365.524.365.41.502s-.66.045-.273.228c.388.182.57.41.57.41l-.502.867.41.319-.547.57s.25.502.388.57c.137.068.89.16.935.342s-.867 1.323-.867 1.323.046.274.616.32.775-.23.844-.024c.068.205.342-.615.684-.319.342.297 1.003.183 1.3.046.077-.036.334-.061.66-.087-1.316-1.516-3.62-4.75-4.12-5.454z" style="fill:#76df54;fill-opacity:1;stroke-width:.600001;stroke-linecap:square;stroke-linejoin:bevel;stroke-dasharray:.600001,1.8" transform="translate(-128.103 51.937)"/><path d="M148.833 82.076c-.903-.13-.742-.323-1.387-.258-.645.064-.322.225-1.193.451-.87.226-1.29.387-1.29.387l1.516.29s1.193.42.903.516-.516.033-.29.097c.225.065.677.903.419.935s-.742.484-.484.516 1.064.387 1.096.516c.033.13.613.323.613.323s1.87-.129 1.677-.58c-.193-.452-1.58-3.193-1.58-3.193m1.645 4.805h-.807v.484l-.741-.033s1.902.839 1.29 1.032c-.613.194-1.452.613-1.452.613s1.387.065 1.226.29c-.161.226-.613.162-.258.323s.613 0 .613.451c0 .452.225.645.516.549.29-.097 2.547.451 2.547.451z" style="fill:#5bd932;fill-opacity:1;stroke-width:.600001;stroke-linecap:square;stroke-linejoin:bevel;stroke-dasharray:.600001,1.8" transform="translate(-128.103 51.937)"/><path d="M152.703 92.783c-.42-.033-1.548-.516-1.548-.516l.161.87s-1.451.29-1.225.549c.225.258.935.935.935.935s-1.806-1.258-2.29-1.129c-.484.13-1.258.58-1.258.58l1.484 1.484s-.935.484-.097.677 1.064.645 1.387.839 1.225.903 1.225.903l.774-1.387s.645.323.516.13c-.129-.194-.451-.807-.451-.807l1.87.258z" style="display:inline;fill:#4fc32a;fill-opacity:1;stroke-width:.600001;stroke-linecap:square;stroke-linejoin:bevel;stroke-dasharray:.600001,1.8" transform="translate(-128.103 51.937)"/><path d="M143.437 104.443c-.273-.776.548-3.786.548-3.786l1.915.183s1.277 3.603.912 3.603z" style="fill:#92602b;fill-opacity:1;stroke-width:.600001;stroke-linecap:square;stroke-linejoin:bevel;stroke-dasharray:.600001,1.8" transform="rotate(5.338 -1242.652 -124.035)scale(.36385)"/><path d="M143.463 103.029c.16-.023.34.16.499.228.16.068 1.095.068 1.095.068s.205-.023.478-.365c.274-.342.89-.41.89-.41l-.091-.48-1.733-2.758-1.118 1.619.091 1.39z" style="fill:#724b22;fill-opacity:1;stroke-width:.600001;stroke-linecap:square;stroke-linejoin:bevel;stroke-dasharray:.600001,1.8" transform="rotate(5.338 -1242.652 -124.035)scale(.36385)"/><path d="M143.519 74.696c-1.752 2.873-3.223 7.497-3.223 7.497l.77.21-1.61 5.394.84.14-1.751 3.853 1.05-.07s-3.012 5.045-2.101 5.045h.98l-1.26 3.222 1.961-.56v1.54l3.643-1.61 1.822 1.61.91-1.47.911.98 1.542-.07.21-.84 3.012.49.21-.91 2.943.63-1.962-3.783 1.752.14-2.032-4.694s2.172.42 1.471-.21c-.7-.63-3.783-5.535-3.783-5.535h.77l-2.241-4.483s2.032.14 1.26-.21c-.77-.35-5.113-6.516-5.113-6.516z" style="fill:#45982c;fill-opacity:1;stroke-width:.600001;stroke-linecap:square;stroke-linejoin:bevel;stroke-dasharray:.600001,1.8" transform="rotate(5.338 -1248.932 -127.183)scale(.36385)"/><path d="M144.608 74.658c-.129.097-.742.355-.742.355l-.258 1.645s.613-.258.387 0-.29 1.161-.29 1.161.87-.323.387.064c-.484.387-.516.452-.42.645.098.194.323.548.323.548s.645.355.42.42c-.226.064-.484.258-.484.258s.064.903-.065.903-.484.516-.322.58c.161.065-.097.194.322.452s1.193-.032 1.193-.032l.29-.645s.388.387.517.387.322.483.645 0c.322-.484.354-.517.354-.517s.581.71.71.581.355-.355.516-.355.58-.226.58-.226.517.033.549-.193l.004-.016c-1.244-1.274-4.277-5.556-4.598-6.01z" style="fill:#55ba35;fill-opacity:1;stroke-width:.600001;stroke-linecap:square;stroke-linejoin:bevel;stroke-dasharray:.600001,1.8" transform="rotate(5.338 -1248.932 -127.183)scale(.36385)"/><path d="M147.188 81.503c-.088.002-.182.043-.284.158-.365.41-.799.548-1.05.502-.25-.046-.455-.296-.57-.068-.113.228-.706.32-.706.32l-.639-.16-.342 1.094.114 1.414.274.045-.297.525.433.456-.455.25-.206.57.913.366.592.136.57-.547s.48.799.662.297 1.186-.73 1.186-.73.501.32.752.25c.251-.068 1.117.388.912-.136-.205-.525.639-.662.89-.867.059-.048.26-.015.53.061l-1.795-3.59-.104.017c-.684-.182-.456-.273-.752-.182-.213.065-.403-.187-.628-.181" style="fill:#53b534;fill-opacity:1;stroke-width:.600001;stroke-linecap:square;stroke-linejoin:bevel;stroke-dasharray:.600001,1.8" transform="rotate(5.338 -1248.932 -127.183)scale(.36385)"/><path d="M150.324 86.632c-.752.114-1.208.229-1.436.16-.228-.068-.867.091-.89.183-.023.09.297 1.3-.113.98-.411-.319-.297-.57-.89-.593s-1.482.16-1.231.229c.25.068.889.296.66.296-.227 0-1.846-.183-1.846-.183l-.707.411s.798.524 1.39 1.528c.594 1.003-.205 1.163-.205 1.163l-.09.82 1.87.092 1.573-.16s.456.456.433.297.73-1.232.73-1.232l.89.433s.934-.16 1.094-.16.25-.204.638-.113.958.342 1.05.32a3 3 0 0 0 .181-.068c-.634-.745-2.041-2.9-2.897-4.234z" style="fill:#4da931;fill-opacity:1;stroke-width:.600001;stroke-linecap:square;stroke-linejoin:bevel;stroke-dasharray:.600001,1.8" transform="rotate(5.338 -1248.932 -127.183)scale(.36385)"/><path d="m150.93 91.493-.969.483.29.13-1.773.193s1.258.13.516.258c-.742.13-1.516.258-1.516.258s1.87-.387-.29-.42c-2.16-.031-1.58.194-1.58.194l-1.129.71s-.451-.13 0 .032c.452.161 2.355 1 1.613 1.032s-1.162-.032-.871.064c.29.097 1.709.13 1.16.71-.547.58-.837.967-.837.967l.58 1.42s-1.226.612-.839.677c.387.064.807 1.128.807 1.128s1.547-1.193 1.805-1 1.678.871 1.774.678c.097-.194-.355-1.032.516-.742s2.645.645 2.645.29-.387-1.419-.387-1.419.257.067.642.153l-.671-1.295 1.752.14-1.622-3.747-.101.009c-.935-.355-1.516-.903-1.516-.903" style="fill:#4fae32;fill-opacity:1;stroke-width:.600001;stroke-linecap:square;stroke-linejoin:bevel;stroke-dasharray:.600001,1.8" transform="rotate(5.338 -1248.932 -127.183)scale(.36385)"/><path d="M144.715 74.798c-.251.296-.753.022-.502.387.25.365.524.365.41.502s-.66.045-.273.228c.388.182.57.41.57.41l-.502.867.41.319-.547.57s.25.502.388.57c.137.068.89.16.935.342s-.867 1.323-.867 1.323.046.274.616.32.775-.23.844-.024c.068.205.342-.615.684-.319.342.297 1.003.183 1.3.046.077-.036.334-.061.66-.087-1.316-1.516-3.62-4.75-4.12-5.454z" style="fill:#69d945;fill-opacity:1;stroke-width:.600001;stroke-linecap:square;stroke-linejoin:bevel;stroke-dasharray:.600001,1.8" transform="rotate(5.338 -1248.932 -127.183)scale(.36385)"/><path d="M148.833 82.076c-.903-.13-.742-.323-1.387-.258-.645.064-.322.225-1.193.451-.87.226-1.29.387-1.29.387l1.516.29s1.193.42.903.516-.516.033-.29.097c.225.065.677.903.419.935s-.742.484-.484.516 1.064.387 1.096.516c.033.13.613.323.613.323s1.87-.129 1.677-.58c-.193-.452-1.58-3.193-1.58-3.193" style="fill:#69d048;fill-opacity:1;stroke-width:.600001;stroke-linecap:square;stroke-linejoin:bevel;stroke-dasharray:.600001,1.8" transform="rotate(5.338 -1248.932 -127.183)scale(.36385)"/><path d="M150.478 86.881h-.807v.484l-.741-.033s1.902.839 1.29 1.032c-.613.194-1.452.613-1.452.613s1.387.065 1.226.29c-.161.226-.613.162-.258.323s.613 0 .613.451c0 .452.225.645.516.549.29-.097 2.547.451 2.547.451z" style="fill:#67d045;fill-opacity:1;stroke-width:.600001;stroke-linecap:square;stroke-linejoin:bevel;stroke-dasharray:.600001,1.8" transform="rotate(5.338 -1248.932 -127.183)scale(.36385)"/><path d="M152.703 92.783c-.42-.033-1.548-.516-1.548-.516l.161.87s-1.451.29-1.225.549c.225.258.935.935.935.935s-1.806-1.258-2.29-1.129c-.484.13-1.258.58-1.258.58l1.484 1.484s-.935.484-.097.677 1.064.645 1.387.839 1.225.903 1.225.903l.774-1.387s.645.323.516.13c-.129-.194-.451-.807-.451-.807l1.87.258z" style="fill:#53c62e;fill-opacity:1;stroke-width:.600001;stroke-linecap:square;stroke-linejoin:bevel;stroke-dasharray:.600001,1.8" transform="rotate(5.338 -1248.932 -127.183)scale(.36385)"/></g><g style="display:inline"><path d="M-32.21 69.85q-.193-.002-.362.003c-1.405.05-1.874 1.396-2.407 3.353v5.877l.794-.522s2 1.483 2.838 2.515 2.193 2.387 4.709 3.483 5.998-1.225 6.579-1.225 1.29-1.226 1.87-1.548-1.032-2.774-1.677-3.935c-.645-1.16-2-3.29-2.644-4.45s-2.516-1.935-3.419-2.451c-.846-.484-4.357-1.081-6.28-1.1" style="fill:#1f4514;fill-opacity:1;stroke-width:.600001;stroke-linecap:square;stroke-linejoin:bevel;stroke-dasharray:.600001,1.8" transform="matrix(-2.08607 0 0 2.08607 29.257 -12.856)"/><path d="M-35.152 63.403c.58-1.87.903-2.838 1.87-2.773s1.226.064.968.064-.839-1.483.645-1.419 1.612.774 1.612.774 1.742-4.515 4.902-3.16 3.29 2.967 3.032 2.967-.774-2.193 2.902-.903 3.29 2.322 3.29 2.322 1.806-1.548 2.58.387.451 3.096.451 3.096l.323 2.773s-.387 4.064.387 4.128 2.515-1.741 3.225-.645.774 3.29.58 3.612c-.193.323-1.677 1.355-1.677 1.355s2.193-2.451 2.451.193-2 5.87-2 5.87.646 1.29-1.29 1.225c-1.934-.065-2.063-.129-2.063-.129s1.032 1.548 0 1.612-4.128.903-3.548-1.096 2.774-6.514 2.58-6.837-3.805-10.384-9.288-10.449c-5.482-.064-10.578.452-11.287.13-.71-.323-.645-3.097-.645-3.097" style="fill:#82c242;fill-opacity:1;stroke-width:.600001;stroke-linecap:square;stroke-linejoin:bevel;stroke-dasharray:.600001,1.8" transform="matrix(-2.08607 0 0 2.08607 29.257 -12.856)"/><path d="M-27.928 62.049s1.096-3.16 2.644-2.322a19 19 0 0 1 2.838 1.935s-.774-2.516 2.645-1.548c3.418.967 3.612 2.838 3.29 2.902s-1.936 1.548-1.936 1.548 1.42-1.806 2.71-1.354 1.74.58 1.29 1.096a25 25 0 0 1-.968 1.032s.774-2.193 2.709.903-.58 3.16-.58 3.16 2.386-1.354 3.289 1.355.064 3.999-.58 3.999c-.646 0-9.353-3.096-9.934-4.644s-7.224-6.127-7.224-6.127z" style="fill:#42922a;fill-opacity:1;stroke-width:.600001;stroke-linecap:square;stroke-linejoin:bevel;stroke-dasharray:.600001,1.8" transform="matrix(-2.08607 0 0 2.08607 29.257 -12.856)"/><path d="M-24.897 65.273s.387 6.838 1.42 6.838c1.031 0 1.874-6.386 2.644-6.483s.58.097.16 1.226c-.952 2.565-.58 5.805-2.966 8.45-.733.812-4.795 4.551-1.967 5.869 2.499 1.164 4.966-7.644 6.256-7.773s2.193-.773 1.161-.128-3.87 7.61-3.096 6.836 4.902-2.193 5.676-3.998 2.064-1.678 2.064-1.678 2.58-.258.13 1.935c-2.452 2.193-4.774 2.064-6.838 4.257s-4.902 2.065-2.967 2.194 7.353-1.162 7.353-1.162l-.516 2.322s-4.515-.644-6.708.581c-1.508.843-2.555.315-3.095 1.17h-4.63a7 7 0 0 0-.144-.331c-1.742-3.735-2.053-5.188-3.347-6.792v-2.518c1.166 1.434 2.186 2.559 2.573 2.602 1.161.129 5.29-4.128 5.934-7.353s.258-5.935.258-5.935z" style="fill:#895a28;fill-opacity:1;stroke-width:.600001;stroke-linecap:square;stroke-linejoin:bevel;stroke-dasharray:.600001,1.8" transform="matrix(-2.08607 0 0 2.08607 29.257 -12.856)"/><path d="M-28.916 77.716c-1.824-1.642-1.824-.182-2.28-3.466s-.638-5.29-.638-5.29l.82.09.457 5.656s.912-.82 1.185-2.554c.274-1.733.639-2.463.639-2.463s.547-.273.547.091c0 .365-.547 3.923-.82 5.017-.274 1.095 1.003 2.28 1.003 2.28z" style="fill:#895a28;fill-opacity:1;stroke-width:.600001;stroke-linecap:square;stroke-linejoin:bevel;stroke-dasharray:.600001,1.8" transform="matrix(-2.08607 0 0 2.08607 29.257 -12.856)"/><path d="M-34.297 64.946c.638-2.098 3.74-3.193 4.287-3.193s1.915 1.916 1.915 1.916 2.007-3.831 3.467-2.372-2.554 3.467 1.46 1.46 2.918-1.186 4.195-.548c1.277.639.821 3.467.821 3.467s.547-2.554 2.007.273 0 2.828 0 2.828 4.56-3.74 4.743-.547c.182 3.192-.912 3.83-.912 3.83s1.094-1.367 2.554 1.095c1.46 2.463.547 3.831.547 3.831s2.372 1.004-.091 2.463-.365 4.014-3.193 3.284c-2.827-.73-4.925-3.01-4.925-3.649 0-.638 2.645-3.01-.365-3.466s-5.108-2.007-5.108-2.645c0-.639 5.2-4.378-.821-5.29-6.02-.913-7.754-.913-8.666-1.004s-1.915-1.733-1.915-1.733" style="fill:#51b434;fill-opacity:1;stroke-width:.600001;stroke-linecap:square;stroke-linejoin:bevel;stroke-dasharray:.600001,1.8" transform="matrix(-2.08607 0 0 2.08607 29.257 -12.856)"/><path d="m-25.768 71.166-.032.17c-.286 1.429-1.254 3.058-2.346 4.42.393-.132.132.108.69-.32.684-.525.023-.57 1.277-.935s1.436-.388 2.12-.57c.685-.183 2.304-1.46 1.688-1.779-.133-.069-.41-.166-.761-.274-.113.147-.228.232-.346.232-.163 0-.31-.172-.443-.462a65 65 0 0 0-1.847-.482" style="fill:#613f1c;fill-opacity:1;stroke-width:.600001;stroke-linecap:square;stroke-linejoin:bevel;stroke-dasharray:.600001,1.8" transform="matrix(-2.08607 0 0 2.08607 29.257 -12.856)"/><path d="M-19.64 75.544c-.525.222-1.075.459-1.6.686-.408.813-.847 1.693-1.306 2.49q.021.209-.03.456c-.182.866-.639 1.413-.639 1.413l.137.822s1.186-.183.73.045-1.55.867-1.55.867-.365.82-.092.82c.274 0 1.551.502 1.551.502s.188.237.453.486c.7-.186 1.483-.273 2.24-.305a29 29 0 0 0 1.672-1.69c-1.73.352-4.02.757-5.146.682-1.935-.13.903 0 2.967-2.193 1.23-1.306 2.55-1.79 3.935-2.43-.062-.3-.142-.62-.232-.94-1.504 1.26-4.133 2.251-4.735 2.853-.513.513.561-2.37 1.644-4.564" style="fill:#744c22;fill-opacity:1;stroke-width:.600001;stroke-linecap:square;stroke-linejoin:bevel;stroke-dasharray:.600001,1.8" transform="matrix(-2.08607 0 0 2.08607 29.257 -12.856)"/><path d="M-32.572 66.37c.838-1.032 1.16-2.644 1.483-2.709s1.87-1.354 1.935.258.452 3.548.452 3.548 1.548-2.967 2.967-3.29 2.709 1.355 2.709 1.355l1.483.387s2.903-1.226 3.096.967-.129 3.548-.58 3.548c-.452 0-3.548 1.548-3.548 1.548s3.612-2.258 4.709-1.548.58 2.515.58 2.515.839-3.354 2.645-2.064 1.806 1.677 1.806 1.677.58-.516 1.032.839c.451 1.354.064 2.773-.516 3.289s-3.032 2-3.032 2 3.935-2.193 3.483-.13c-.451 2.065 1.226 3.419-1.29 3.677s-3.612.387-3.612.387-4.192-5.87-4.515-6.579c-.322-.71-8.514-7.353-9.223-7.417s-2.645-1.097-2.645-1.097z" style="fill:#74cf1c;fill-opacity:1;stroke-width:.600001;stroke-linecap:square;stroke-linejoin:bevel;stroke-dasharray:.600001,1.8" transform="matrix(-2.08607 0 0 2.08607 29.257 -12.856)"/><path d="M-29.127 70.915a15 15 0 0 0-.245 1.237c-.273 1.733-1.185 2.554-1.185 2.554l-.276-3.416c-.24.086-.485.175-.715.26.092.758.208 1.665.352 2.7.265 1.906.377 2.213.78 2.457a.4.4 0 0 0 .064-.154c.114-.547.16-1.277.16-1.277l.319.456.387-.889-.114-.57s.274-.57.274-.342-.023.958.137.342c.057-.22.2-.327.374-.392.165-.873.353-2.034.48-2.905a34 34 0 0 0-.792-.061" style="fill:#62401c;fill-opacity:1;stroke-width:.600001;stroke-linecap:square;stroke-linejoin:bevel;stroke-dasharray:.600001,1.8" transform="matrix(-2.08607 0 0 2.08607 29.257 -12.856)"/><path d="M-31.347 60.372c-1.29 0-1.419 3.547-1.419 4.128 0 .58-1.483-1.097-1.483-1.097l-.002-.003v5.148c2.209-.259 6.426-.565 6.774-.565.452 0 .13-4.709.13-4.709s-.84-1.741-.84-2.064-1.87-.838-3.16-.838" style="fill:#3c8627;fill-opacity:1;stroke-width:.600001;stroke-linecap:square;stroke-linejoin:bevel;stroke-dasharray:.600001,1.8" transform="matrix(-2.08607 0 0 2.08607 29.257 -12.856)"/><path d="M-21.201 62.52a1.4 1.4 0 0 0-.6.146c-1.824.82-1.915 2.189-2.463 2.189-.547 0-2.28-2.463-3.466-1.095s-1.003 1.824-1.003 1.824-2.645-2.918-4.196-2.097c-1.55.82-1.186 2.006-1.186 2.006s-.139-.473-.416-.954v16.106c.62-.144 1.26-.551 1.693-2.199.912-3.466.183-4.47.183-5.747s.638.091 2.098.639c1.459.547 1.824-2.007 2.462-.274s1.551.274 3.375.274.639 3.192 1.46 3.83c.82.64 2.28 1.187 2.28 1.187s-2.098.73-1.55 2.098 2.189 1.642 2.189 1.642-1.368 0-1.277 1.46 1.733 2.188 1.733 2.188c1.733 1.095 3.145 1.517 4.696-.216s2.145-2.155 1.142-3.432l-1.004-1.277s5.747-1.551 4.196-3.74c-1.55-2.19-1.642-2.19-1.642-2.19s.092-3.192-1.277-3.1c-1.368.09-3.283 2.006-3.283 2.006s1.368-2.554-.639-2.372c-2.007.183-3.01 2.737-3.01 2.737s-.456-3.74.638-4.287c1.095-.548 1.369-.821 1.277-2.554-.09-1.734-.182-2.372-.73-2.463-.478-.08-.468-2.325-1.68-2.335" style="fill:#3b8326;fill-opacity:1;stroke-width:.600001;stroke-linecap:square;stroke-linejoin:bevel;stroke-dasharray:.600001,1.8" transform="matrix(-2.08607 0 0 2.08607 29.257 -12.856)"/><path d="M-28.38 78.174s1.548 0 1.355.257c-.194.258-.58.516-.71 1.355-.129.838 2.451.903 1.42 1.419-1.033.516-.581.193-1.742.967s-1.097 2.193-1.097 2.193l1.097-.064-.204 1.053h-.675c-.256-.457-.509-.835-.476-.472.011.118.042.287.08.472h-1.648c-1.268-2.722-1.77-4.225-2.458-5.465l.672-1.65c.645 1.547.968 1.934 1.355 1.611s1.225-1.483 1.548-1.483.064.968.064.968 1.742-.194 1.613-.645c-.13-.452-.194-.516-.194-.516" style="fill:#794f24;fill-opacity:1;stroke-width:.600001;stroke-linecap:square;stroke-linejoin:bevel;stroke-dasharray:.600001,1.8" transform="matrix(-2.08607 0 0 2.08607 29.257 -12.856)"/><path d="M-33.352 80.05c.44.212.973.832.973.832l.967-.128s-.58 1.096-.064 1.225 2.322-2 1.742-.258-.581 2.386-.581 2.386l.546 1.292h-1.19v-.002c-1.23-2.633-1.744-4.13-2.393-5.346" style="fill:#62401c;fill-opacity:1;stroke-width:.600001;stroke-linecap:square;stroke-linejoin:bevel;stroke-dasharray:.600001,1.8" transform="matrix(-2.08607 0 0 2.08607 29.257 -12.856)"/><path d="M-32.96 70.111c1.871.58 2.58 2.58 4.451 1.484s1.226-.839.71-.774-1.484 1.032-2.064.645-3.096-1.355-3.096-1.355m10.449 3.677c.58 1.612-.323 2.58.774 3.031s2.45.58 1.419.194c-1.032-.387-1.097.451-1.42-.839s-.773-2.386-.773-2.386" style="fill:#316c1f;fill-opacity:1;stroke-width:.600001;stroke-linecap:square;stroke-linejoin:bevel;stroke-dasharray:.600001,1.8" transform="matrix(-2.08607 0 0 2.08607 29.257 -12.856)"/><path d="M-20.446 83.785c2.257 2.322 3.547 2.838 4.58 1.419 1.031-1.419 1.87-2.451.967-1.806s-1.032 2.193-2.064 2-3.483-1.613-3.483-1.613" style="fill:#377a23;fill-opacity:1;stroke-width:.600001;stroke-linecap:square;stroke-linejoin:bevel;stroke-dasharray:.600001,1.8" transform="matrix(-2.08607 0 0 2.08607 29.257 -12.856)"/><path d="M-21.201 62.52a1.4 1.4 0 0 0-.6.145c-1.824.821-1.915 2.19-2.463 2.19-.547 0-2.28-2.463-3.466-1.095-1.185 1.368-1.003 1.825-1.003 1.825s-2.646-2.92-4.196-2.098c-1.55.82-1.186 2.006-1.186 2.006s-.06-.195-.168-.452v.865c.996 1.117.622 1.79 1.13.4.613-1.677-.451-2.838 1.452-1.839.915.481 1.511.878 1.89 1.162-.142.032-.318.126-.536.322-.935.838-1.097 1.193-1.097 1.193s-.709.387 1.032-.129 2-1.032 2.645-.613 1.322.678 1.322.678-.645-.58-1.096-.968c-.452-.387-.452-1.096-.226-1.16.225-.065.258-.646 1.322-.323 1.064.322 2.71 1.386 2.806 1.225s1.064-2.225 2.128-2.257c.73-.022 1.217-.075 1.513.32-.214-.647-.506-1.391-1.203-1.397m1.472 2.13q.013.066.024.14c.194 1.322 1.129 2.064.258 2.934-.87.871-.58.323-1.322 1.839-.741 1.515.032 5.03.032 5.03s2.194-3.418 2.742-2.224.902 1.515.902 1.515 2.263-1.35 3.22-2.086c-1.36.171-3.184 1.996-3.184 1.996s1.368-2.554-.64-2.371c-2.006.182-3.01 2.736-3.01 2.736s-.455-3.74.64-4.287c1.094-.548 1.368-.822 1.276-2.555-.09-1.733-.182-2.37-.73-2.462-.08-.014-.147-.09-.208-.206m-14.554 2.622v.264c.398-.026.467-.069.001-.263z" style="display:inline;fill:#51b534;fill-opacity:1;stroke-width:.600001;stroke-linecap:square;stroke-linejoin:bevel;stroke-dasharray:.600001,1.8" transform="matrix(-2.08607 0 0 2.08607 29.257 -12.856)"/><path d="M-27.09 68.628c.452-.13 2.451-1.548 3.548-.58 1.096.967 1.806 3.16 1.548 3.224s-1.097-1.483-2.129-2.128-2.967-.516-2.967-.516" style="fill:#509d39;fill-opacity:1;stroke-width:.600001;stroke-linecap:square;stroke-linejoin:bevel;stroke-dasharray:.600001,1.8" transform="matrix(-2.08607 0 0 2.08607 29.257 -12.856)"/><path d="M-16.512 75.271c1.484-1.032 2.064-1.87 2.71-1.096.644.774.773 2.064.773 2.064s2.129.193 1.161.967c-.967.774-1.29 2.064-1.29.839s.71-1.29 0-1.29-.355-1.839-.87-1.968c-.517-.129-.613.42-1.387.484-.774.065-1.097 0-1.097 0" style="fill:#5cc73d;fill-opacity:1;stroke-width:.600001;stroke-linecap:square;stroke-linejoin:bevel;stroke-dasharray:.600001,1.8" transform="matrix(-2.08607 0 0 2.08607 29.257 -12.856)"/></g><g style="display:inline" transform="translate(-50.701 4.27)"><path d="M54.243 58.24h8.255v105.687h-8.255z" style="display:inline;fill:#764c28;fill-opacity:1;stroke-width:.251399"/><path d="M104.764-1.32c-3.637-.054-19.118.584-33.982 14.248-19.388 17.824-16.406 45.841-16.406 45.841 3.616-.02 7.232-.025 10.848-.04h-2.791s-1.229-19.167 11.054-33.478c10.878-12.676 20.87-14.937 31.874-15.59.04-.003.063-.006.18-.006.069.004.09 0 .222.007 11.003.652 20.996 2.914 31.874 15.589 12.282 14.311 9.87 33.518 9.87 33.518l-1.09-.019c3.153.008 6.305.011 9.457.02 0 0 2.981-28.018-16.407-45.842-4.31-3.962-15.495-13.963-34.703-14.248m41.654 60.07c-27.065-.069-54.13-.124-81.194-.02z" style="display:inline;fill:#764c28;fill-opacity:1;stroke-width:.264583"/><path d="M147.611 58.24h8.255v105.712h-8.255z" style="display:inline;fill:#764c28;fill-opacity:1;stroke-width:.251429"/><path d="M81.42 66.243h1.31v96.579h-1.31z" style="display:inline;fill:#764c28;fill-opacity:1;stroke-width:.0957305"/><path d="M101.799 58.809h8.255v104.443h-8.255z" style="display:inline;fill:#764c28;fill-opacity:1;stroke-width:.249916"/><path d="M55.309 58.723h100.578v8.302H55.309z" style="display:inline;fill:#764c28;fill-opacity:1;stroke-width:.230388"/><path d="M127.987 65.756h1.31v98.134h-1.31z" style="display:inline;fill:#764c28;fill-opacity:1;stroke-width:.0964981"/><path d="M105.061 36.613c-1.936-.03-9.486.202-15.417 5.82-7.673 7.266-8.04 16.374-7.852 16.244l1.58.006c.051-1.658 1.104-8.874 7.346-14.785 5.526-5.234 12.561-5.45 14.365-5.423.182.003.236.007.305.01.069-.003.124-.007.305-.01 1.804-.027 8.839.19 14.366 5.423 6.241 5.91 7.294 13.127 7.345 14.785l1.58-.006c.188.13-.179-8.978-7.852-16.245-5.931-5.617-13.481-5.849-15.417-5.82-.194.004-.253.008-.327.01-.074-.002-.132-.006-.327-.01" style="display:inline;fill:#764c28;fill-opacity:1;stroke-width:.264583"/><path d="M105.715 8.571h1.31v28.042h-1.31z" style="display:inline;fill:#764c28;fill-opacity:1;stroke-width:.0515844"/><path d="M108.809-103.209h1.249v22.308h-1.249z" style="display:inline;fill:#764c28;fill-opacity:1;stroke-width:.0398071" transform="matrix(.53082 .84749 -.83858 .54477 0 0)"/><rect width="1.444" height="22.34" x="-7.596" y="75.349" ry="0" style="display:inline;fill:#764c28;fill-opacity:1;stroke-width:.0408779" transform="matrix(-.5293 .84844 .83759 .5463 0 0)"/><path d="M104.838 58.718h2.132v102.631h-2.132z" style="display:inline;fill:#5b3b1f;fill-opacity:1;stroke-width:.125905"/><path d="m147.61 67.014 2.816 1.112v89.728h-2.815z" style="display:inline;fill:#c9976e;fill-opacity:1;stroke-width:.139146"/><path d="m101.79 67.014 1.549 1.187v95.83h-1.548z" style="display:inline;fill:#c2824b;stroke-width:.106626"/><path d="M-163.956 59.981h6.09v87.965h-6.09z" style="display:inline;fill:#764c28;fill-opacity:1;stroke-width:.196997" transform="rotate(-90)"/><path d="M-114.246 59.981h1.687v87.965h-1.687z" style="display:inline;fill:#764c28;fill-opacity:1;stroke-width:.10369" transform="rotate(-90)"/><path d="M106.078 9.588c.463.055.925.122 1.386.192 10.334.8 19.86 3.434 30.17 15.448 12.253 14.276 9.883 33.406 9.872 33.502l2.148.004c1.625-22.883-11.013-43.906-32.982-48.355-3.076-.623-10.594-.792-10.594-.792zm41.428 49.142-1.09-.002.703.012.386.001zm-1.09-.002-3.15-.006v.005zm-40.228-.067v.057l35.331.009q-17.665-.047-35.331-.066" style="display:inline;fill:#c9976e;fill-opacity:1;stroke-width:.264583"/></g></svg>