<svg xmlns="http://www.w3.org/2000/svg" xmlns:xlink="http://www.w3.org/1999/xlink" width="410.701" height="478" viewBox="0 0 108.665 126.471"><defs><filter id="e" width="1.356" height="1.373" x="-.178" y="-.187" style="color-interpolation-filters:sRGB"><feGaussianBlur stdDeviation="3.002"/></filter><filter id="d" width="1.443" height="1.443" x="-.221" y="-.221" style="color-interpolation-filters:sRGB"><feGaussianBlur stdDeviation="5.468"/></filter><filter id="c" width="1.498" height="1.498" x="-.249" y="-.249" style="color-interpolation-filters:sRGB"><feGaussianBlur stdDeviation="6.146"/></filter><filter id="i" width="1.516" height="1.516" x="-.258" y="-.258" style="color-interpolation-filters:sRGB"><feGaussianBlur stdDeviation=".133"/></filter><linearGradient id="a"><stop offset=".002" style="stop-color:#041417;stop-opacity:1"/><stop offset="1" style="stop-color:#2f5564;stop-opacity:1"/></linearGradient><linearGradient xlink:href="#a" id="b" x1="52.836" x2="55.505" y1="13.876" y2="347.438" gradientTransform="matrix(1 0 0 .33228 .47 6.598)" gradientUnits="userSpaceOnUse"/></defs><g style="display:inline"><path d="M7.408 122.22s-10.5-70.604 10.407-96.99c9.874-12.461-.8-14.908 36.025-14.908s37.893 10.996 37.893 10.996l5.87 7.892 3.203 93.188z" style="display:inline;fill:url(#b);stroke-width:.152515"/></g><g style="display:inline" transform="translate(-13.876 -89.928)"><circle cx="216.165" cy="76.994" r="29.633" style="display:inline;mix-blend-mode:normal;fill:#fcfcbe;fill-opacity:1;stroke-width:.24902;filter:url(#c)" transform="translate(-86.926 96.443)scale(.66929)"/><circle cx="216.165" cy="76.994" r="25.135" style="display:inline;mix-blend-mode:normal;fill:#dffcb8;fill-opacity:1;stroke-width:.211222;filter:url(#f)" transform="translate(-92.272 94.538)scale(.69402)"/><circle cx="216.165" cy="76.994" r="29.633" style="display:inline;mix-blend-mode:normal;fill:#fdfdd4;fill-opacity:1;stroke-width:.24902;filter:url(#d)" transform="translate(-86.926 96.443)scale(.66929)"/><path d="M199.76 89.826c-2.38-2.117-5.82-8.864-4.233-11.112 1.588-2.25 4.895 1.587 4.763-5.16-.133-6.747 1.587-10.848 2.91-11.906s5.556-1.984 5.556-1.984 4.895.264 5.556 3.307-2.778 5.291-1.587 7.144c1.19 1.852-4.366 5.688-4.498 8.466s5.292 7.144 7.54 4.234c2.25-2.91 12.436 1.852 13.759-2.646s1.72-8.202 1.19-12.171c-.529-3.969 4.102-7.54 4.763-3.043.662 4.498-2.249 6.086-1.058 12.171 1.19 6.085 2.381 11.113-3.572 10.848s-10.98-2.249-9.657 1.19 7.011 10.584 2.116 8.864-6.879-3.043-8.996-5.424c-2.116-2.381-2.91-5.953-7.276-2.646s-3.042 7.409-5.424 4.63c-2.38-2.778-1.852-4.762-1.852-4.762" style="display:inline;mix-blend-mode:normal;fill:#fff;fill-opacity:1;stroke-width:.264583;filter:url(#e)" transform="translate(-92.272 94.538)scale(.69402)"/></g><g style="display:inline" transform="translate(-50.701 4.27)"><path d="M54.243 58.24h8.255v61.957h-8.255z" style="display:inline;fill:#764c28;fill-opacity:1;stroke-width:.192486"/><path d="M104.764-1.32c-3.637-.054-19.118.584-33.982 14.248-19.388 17.824-16.406 45.841-16.406 45.841 3.616-.02 7.232-.025 10.848-.04h-2.791s-1.229-19.167 11.054-33.478c10.878-12.676 20.87-14.937 31.874-15.59.04-.003.063-.006.18-.006.069.004.09 0 .222.007 11.003.652 20.996 2.914 31.874 15.589 12.282 14.311 9.87 33.518 9.87 33.518l-1.09-.019c3.153.008 6.305.011 9.457.02 0 0 2.981-28.018-16.407-45.842-4.31-3.962-15.495-13.963-34.703-14.248m41.654 60.07c-27.065-.069-54.13-.124-81.194-.02z" style="display:inline;fill:#764c28;fill-opacity:1;stroke-width:.264583"/><path d="M147.611 58.24h8.255v61.94h-8.255z" style="display:inline;fill:#764c28;fill-opacity:1;stroke-width:.192459"/><path d="M81.42 66.243h1.31v49.783h-1.31z" style="display:inline;fill:#764c28;fill-opacity:1;stroke-width:.0687308"/><path d="M101.799 58.809h8.255v60.68h-8.255z" style="display:inline;fill:#764c28;fill-opacity:1;stroke-width:.190492"/><path d="M55.309 58.723h100.578v8.302H55.309z" style="display:inline;fill:#764c28;fill-opacity:1;stroke-width:.230388"/><path d="M127.987 65.756h1.31v49.451h-1.31z" style="display:inline;fill:#764c28;fill-opacity:1;stroke-width:.0685013"/><path d="M105.061 36.613c-1.936-.03-9.486.202-15.417 5.82-7.673 7.266-8.04 16.374-7.852 16.244l1.58.006c.051-1.658 1.104-8.874 7.346-14.785 5.526-5.234 12.561-5.45 14.365-5.423.182.003.236.007.305.01.069-.003.124-.007.305-.01 1.804-.027 8.839.19 14.366 5.423 6.241 5.91 7.294 13.127 7.345 14.785l1.58-.006c.188.13-.179-8.978-7.852-16.245-5.931-5.617-13.481-5.849-15.417-5.82-.194.004-.253.008-.327.01-.074-.002-.132-.006-.327-.01" style="display:inline;fill:#764c28;fill-opacity:1;stroke-width:.264583"/><path d="M105.715 8.571h1.31v28.42h-1.31z" style="display:inline;fill:#764c28;fill-opacity:1;stroke-width:.0519303"/><path d="M108.809-103.209h1.249v22.308h-1.249z" style="display:inline;fill:#764c28;fill-opacity:1;stroke-width:.0398071" transform="matrix(.53082 .84749 -.83858 .54477 0 0)"/><rect width="1.444" height="22.34" x="-7.596" y="75.349" ry="0" style="display:inline;fill:#764c28;fill-opacity:1;stroke-width:.0408779" transform="matrix(-.5293 .84844 .83759 .5463 0 0)"/><path d="M104.838 58.718h2.132v55.398h-2.132z" style="display:inline;fill:#5b3b1f;fill-opacity:1;stroke-width:.0925023"/><path d="m147.61 67.014 2.816.577v46.518h-2.815z" style="display:inline;fill:#c9976e;fill-opacity:1;stroke-width:.100188"/><path d="m101.79 67.014 1.549.577v46.52h-1.548z" style="display:inline;fill:#c2824b;stroke-width:.0742909"/><path d="M-122.048 54.244h7.958v101.575h-7.958z" style="display:inline;fill:#764c28;fill-opacity:1;stroke-width:.241983" transform="rotate(-90)"/><path d="M106.078 9.588c.463.055.925.122 1.386.192 10.334.8 19.86 3.434 30.17 15.448 12.253 14.276 9.883 33.406 9.872 33.502l2.148.004c1.625-22.883-11.013-43.906-32.982-48.355-3.076-.623-10.594-.792-10.594-.792zm41.428 49.142-1.09-.002.703.012.386.001zm-1.09-.002-3.15-.006v.005zm-40.228-.067v.057l35.331.009q-17.665-.047-35.331-.066" style="display:inline;fill:#c9976e;fill-opacity:1;stroke-width:.264583"/></g><path d="m20.347 84.658-.415-.14-.352.262.006-.439-.358-.253.419-.13.13-.42.253.359.439-.006-.263.352z" style="fill:#f8f6d5;fill-opacity:1;stroke-width:.776;filter:url(#i)"/><path d="m20.347 84.658-.415-.14-.352.262.006-.439-.358-.253.419-.13.13-.42.253.359.439-.006-.263.352z" style="fill:#f8f6d5;fill-opacity:1;stroke-width:.776;filter:url(#i)" transform="translate(23.384 30.772)scale(.64893)"/><path d="m20.347 84.658-.415-.14-.352.262.006-.439-.358-.253.419-.13.13-.42.253.359.439-.006-.263.352z" style="fill:#f8f6d5;fill-opacity:1;stroke-width:.776;filter:url(#i)" transform="translate(12.676 40.678)scale(.64893)"/><path d="m20.347 84.658-.415-.14-.352.262.006-.439-.358-.253.419-.13.13-.42.253.359.439-.006-.263.352z" style="fill:#f8f6d5;fill-opacity:1;stroke-width:.776;filter:url(#i)" transform="translate(60.709 5.187)scale(.64893)"/><path d="m20.347 84.658-.415-.14-.352.262.006-.439-.358-.253.419-.13.13-.42.253.359.439-.006-.263.352z" style="fill:#f8f6d5;fill-opacity:1;stroke-width:.776;filter:url(#i)" transform="matrix(.33568 .3055 -.3055 .33568 85.897 57.587)"/><path d="m20.347 84.658-.415-.14-.352.262.006-.439-.358-.253.419-.13.13-.42.253.359.439-.006-.263.352z" style="fill:#f8f6d5;fill-opacity:1;stroke-width:.776;filter:url(#i)" transform="translate(54.139 21.966)scale(.64893)"/><path d="m20.347 84.658-.415-.14-.352.262.006-.439-.358-.253.419-.13.13-.42.253.359.439-.006-.263.352z" style="fill:#f8f6d5;fill-opacity:1;stroke-width:.776;filter:url(#i)" transform="translate(85.584 52.23)scale(.4007)"/><path d="m20.347 84.658-.415-.14-.352.262.006-.439-.358-.253.419-.13.13-.42.253.359.439-.006-.263.352z" style="fill:#f8f6d5;fill-opacity:1;stroke-width:.776;filter:url(#i)" transform="translate(81.915 18.674)scale(.4007)"/><path d="m20.347 84.658-.415-.14-.352.262.006-.439-.358-.253.419-.13.13-.42.253.359.439-.006-.263.352z" style="fill:#f8f6d5;fill-opacity:1;stroke-width:.776;filter:url(#i)" transform="translate(24.861 45.446)scale(.55671)"/><path d="m20.347 84.658-.415-.14-.352.262.006-.439-.358-.253.419-.13.13-.42.253.359.439-.006-.263.352z" style="fill:#f8f6d5;fill-opacity:1;stroke-width:.776;filter:url(#i)" transform="translate(16.936 -8.267)scale(.49848)"/><path d="m20.347 84.658-.415-.14-.352.262.006-.439-.358-.253.419-.13.13-.42.253.359.439-.006-.263.352z" style="fill:#f8f6d5;fill-opacity:1;stroke-width:.776;filter:url(#i)" transform="translate(39.192 -31.615)scale(.59878)"/><path d="m20.347 84.658-.415-.14-.352.262.006-.439-.358-.253.419-.13.13-.42.253.359.439-.006-.263.352z" style="fill:#f8f6d5;fill-opacity:1;stroke-width:.776;filter:url(#i)" transform="translate(71.815 43.132)scale(.7163)"/><path d="m20.347 84.658-.415-.14-.352.262.006-.439-.358-.253.419-.13.13-.42.253.359.439-.006-.263.352z" style="fill:#f8f6d5;fill-opacity:1;stroke-width:.776;filter:url(#i)" transform="translate(6.57 49.003)scale(.7163)"/><path d="m20.347 84.658-.415-.14-.352.262.006-.439-.358-.253.419-.13.13-.42.253.359.439-.006-.263.352z" style="fill:#f8f6d5;fill-opacity:1;stroke-width:.776;filter:url(#i)" transform="translate(32.709 55.213)scale(.59878)"/><path d="m20.347 84.658-.415-.14-.352.262.006-.439-.358-.253.419-.13.13-.42.253.359.439-.006-.263.352z" style="fill:#f8f6d5;fill-opacity:1;stroke-width:.776;filter:url(#i)" transform="matrix(.33568 .3055 -.3055 .33568 93.728 71.597)"/><path d="m20.347 84.658-.415-.14-.352.262.006-.439-.358-.253.419-.13.13-.42.253.359.439-.006-.263.352z" style="fill:#f8f6d5;fill-opacity:1;stroke-width:.776;filter:url(#i)" transform="rotate(42.306 -73.088 139.195)scale(.31188)"/><path d="m20.347 84.658-.415-.14-.352.262.006-.439-.358-.253.419-.13.13-.42.253.359.439-.006-.263.352z" style="fill:#f8f6d5;fill-opacity:1;stroke-width:.776;filter:url(#i)" transform="translate(56.073 -16.06)scale(.64893)"/><path d="m20.347 84.658-.415-.14-.352.262.006-.439-.358-.253.419-.13.13-.42.253.359.439-.006-.263.352z" style="fill:#f8f6d5;fill-opacity:1;stroke-width:.776;filter:url(#i)" transform="translate(70.55 -9.923)scale(.64893)"/><path d="m20.347 84.658-.415-.14-.352.262.006-.439-.358-.253.419-.13.13-.42.253.359.439-.006-.263.352z" style="fill:#f8f6d5;fill-opacity:1;stroke-width:.776;filter:url(#i)" transform="translate(44.875 -45.94)scale(.84954)"/><path d="m20.347 84.658-.415-.14-.352.262.006-.439-.358-.253.419-.13.13-.42.253.359.439-.006-.263.352z" style="fill:#f8f6d5;fill-opacity:1;stroke-width:.776;filter:url(#i)" transform="translate(70.713 -14.117)scale(.49848)"/><path d="m20.347 84.658-.415-.14-.352.262.006-.439-.358-.253.419-.13.13-.42.253.359.439-.006-.263.352z" style="fill:#f8f6d5;fill-opacity:1;stroke-width:.776;filter:url(#i)" transform="translate(.868 17.462)scale(.64893)"/><path d="m20.347 84.658-.415-.14-.352.262.006-.439-.358-.253.419-.13.13-.42.253.359.439-.006-.263.352z" style="fill:#f8f6d5;fill-opacity:1;stroke-width:.776;filter:url(#i)" transform="matrix(.33568 .3055 -.3055 .33568 100.333 41.11)"/><path d="m20.347 84.658-.415-.14-.352.262.006-.439-.358-.253.419-.13.13-.42.253.359.439-.006-.263.352z" style="fill:#f8f6d5;fill-opacity:1;stroke-width:.776;filter:url(#i)" transform="rotate(42.305 9.817 160.115)scale(.35347)"/></svg>