<svg xmlns="http://www.w3.org/2000/svg" width="410.701" height="637" viewBox="0 0 108.665 168.54"><g transform="translate(-50.701 4.27)"><path d="M54.243 58.24h8.255v105.687h-8.255z" style="display:inline;fill:#764c28;fill-opacity:1;stroke-width:.251399"/><path d="M104.764-1.32c-3.637-.054-19.118.584-33.982 14.248-19.388 17.824-16.406 45.841-16.406 45.841 3.616-.02 7.232-.025 10.848-.04h-2.791s-1.229-19.167 11.054-33.478c10.878-12.676 20.87-14.937 31.874-15.59.04-.003.063-.006.18-.006.069.004.09 0 .222.007 11.003.652 20.996 2.914 31.874 15.589 12.282 14.311 9.87 33.518 9.87 33.518l-1.09-.019c3.153.008 6.305.011 9.457.02 0 0 2.981-28.018-16.407-45.842-4.31-3.962-15.495-13.963-34.703-14.248m41.654 60.07c-27.065-.069-54.13-.124-81.194-.02z" style="display:inline;fill:#764c28;fill-opacity:1;stroke-width:.264583"/><path d="M147.611 58.24h8.255v105.712h-8.255z" style="display:inline;fill:#764c28;fill-opacity:1;stroke-width:.251429"/><path d="M81.42 66.243h1.31v96.579h-1.31z" style="display:inline;fill:#764c28;fill-opacity:1;stroke-width:.0957305"/><path d="M101.799 58.809h8.255v104.443h-8.255z" style="display:inline;fill:#764c28;fill-opacity:1;stroke-width:.249916"/><path d="M55.309 58.723h100.578v8.302H55.309z" style="display:inline;fill:#764c28;fill-opacity:1;stroke-width:.230388"/><path d="M127.987 65.756h1.31v98.134h-1.31z" style="display:inline;fill:#764c28;fill-opacity:1;stroke-width:.0964981"/><path d="M105.061 36.613c-1.936-.03-9.486.202-15.417 5.82-7.673 7.266-8.04 16.374-7.852 16.244l1.58.006c.051-1.658 1.104-8.874 7.346-14.785 5.526-5.234 12.561-5.45 14.365-5.423.182.003.236.007.305.01.069-.003.124-.007.305-.01 1.804-.027 8.839.19 14.366 5.423 6.241 5.91 7.294 13.127 7.345 14.785l1.58-.006c.188.13-.179-8.978-7.852-16.245-5.931-5.617-13.481-5.849-15.417-5.82-.194.004-.253.008-.327.01-.074-.002-.132-.006-.327-.01" style="display:inline;fill:#764c28;fill-opacity:1;stroke-width:.264583"/><path d="M105.715 8.571h1.31v28.042h-1.31z" style="display:inline;fill:#764c28;fill-opacity:1;stroke-width:.0515844"/><path d="M108.809-103.209h1.249v22.308h-1.249z" style="display:inline;fill:#764c28;fill-opacity:1;stroke-width:.0398071" transform="matrix(.53082 .84749 -.83858 .54477 0 0)"/><rect width="1.444" height="22.34" x="-7.596" y="75.349" ry="0" style="display:inline;fill:#764c28;fill-opacity:1;stroke-width:.0408779" transform="matrix(-.5293 .84844 .83759 .5463 0 0)"/><path d="M104.838 58.718h2.132v102.631h-2.132z" style="display:inline;fill:#5b3b1f;fill-opacity:1;stroke-width:.125905"/><path d="m147.61 67.014 2.816 1.112v89.728h-2.815z" style="display:inline;fill:#c9976e;fill-opacity:1;stroke-width:.139146"/><path d="m101.79 67.014 1.549 1.187v95.83h-1.548z" style="display:inline;fill:#c2824b;stroke-width:.106626"/><path d="M-163.956 59.981h6.09v87.965h-6.09z" style="display:inline;fill:#764c28;fill-opacity:1;stroke-width:.196997" transform="rotate(-90)"/><path d="M-114.246 59.981h1.687v87.965h-1.687z" style="display:inline;fill:#764c28;fill-opacity:1;stroke-width:.10369" transform="rotate(-90)"/><path d="M106.078 9.588c.463.055.925.122 1.386.192 10.334.8 19.86 3.434 30.17 15.448 12.253 14.276 9.883 33.406 9.872 33.502l2.148.004c1.625-22.883-11.013-43.906-32.982-48.355-3.076-.623-10.594-.792-10.594-.792zm41.428 49.142-1.09-.002.703.012.386.001zm-1.09-.002-3.15-.006v.005zm-40.228-.067v.057l35.331.009q-17.665-.047-35.331-.066" style="display:inline;fill:#c9976e;fill-opacity:1;stroke-width:.264583"/></g></svg>