<svg xmlns="http://www.w3.org/2000/svg" xmlns:xlink="http://www.w3.org/1999/xlink" width="410.701" height="478" viewBox="0 0 108.665 126.471"><defs><linearGradient id="a"><stop offset="0" style="stop-color:#17687e;stop-opacity:1"/><stop offset=".733" style="stop-color:#a7eeee;stop-opacity:0"/></linearGradient><linearGradient xlink:href="#a" id="b" x1="52.836" x2="55.505" y1="13.876" y2="347.438" gradientTransform="translate(.47 -4.622)" gradientUnits="userSpaceOnUse"/></defs><g style="display:inline"><path d="M53.84 6.586c-36.825 0-44.83 33.623-44.83 33.623l-.447 84.516h92.656l.12-63.702-2.134-22.95S90.665 6.587 53.84 6.587" style="display:inline;fill:url(#b);stroke-width:.264583"/></g><g style="display:inline"><path d="M121.362 103.645c-.47.863-.698 1.518-.698 1.518s-.936-1.31-4.444-1.45-5.987 2.946-5.987 2.946-.467-2.572-3.975-2.292-3.462 4.35-3.462 4.35-3.274 2.011-1.263 5.66 6.175.56 6.175.56.28.515 1.87 2.714 4.444 3.554 9.87 2.946 7.343-5.566 7.343-5.566.382.895 1.98 1.346l-1.549-3.883s-3.014-4.556-5.86-8.85" style="display:inline;fill:#fff;fill-opacity:1;stroke-width:.264583" transform="translate(-29.575 -79.945)"/><path d="M116.322 105.115c-3.217-.041-6.135 2.714-6.135 2.714s-.843-1.918-4.35-1.076c-2.207.53-1.824 2.806-1.824 2.806s-1.45.093-2.666 1.356c0 0-.206.03-.286.04-.29.892-.29 2.039.473 3.421 2.011 3.649 6.174.562 6.174.562s.28.514 1.87 2.713 4.444 3.554 9.87 2.946c3.664-.41 5.723-2.802 6.677-4.313l-.383-.96s-3.182-4.811-6.307-9.523c-.602-.258-1.403-.495-2.467-.639a5 5 0 0 0-.646-.047" style="display:inline;fill:#f2f2f2;fill-opacity:1;stroke-width:.264583" transform="translate(-29.575 -79.945)"/><path d="M109.906 109.746s-.42.468-2.151 1.45-3.321-.234-3.321-.234l.888.795c.889.796 2.246.375 2.246.375s-1.17 1.356-3.04 2.057c-1.5.563-2.922-.433-3.446-.864.104.334.25.684.452 1.051 2.011 3.649 6.174.562 6.174.562s.28.514 1.87 2.713 4.444 3.554 9.87 2.946c4.681-.524 6.742-4.274 7.222-5.297l-.692-1.043c-.727.695-2.953 2.47-7.466 3.253-5.66.982-7.53-3.46-7.53-3.46s-.468.14-1.684.233-1.543-1.73-1.543-1.73.374-.562 1.075-1.217c.702-.655 1.076-1.59 1.076-1.59m7.952 1.123s.888 1.403 3.273 2.712c1.849 1.015 3.884.69 4.723.488l-.763-1.153-.03.01c-2.947.936-7.203-2.057-7.203-2.057" style="display:inline;fill:#d0d0d0;fill-opacity:1;stroke-width:.264583" transform="translate(-29.575 -79.945)"/><path d="M129.346 119.794c-3.482.034-5.881 2.788-5.881 2.788s-3.796-2.614-5.834.053c-2.148 2.811.53 5.198.53 5.198s-1.623-.877-3.288.954c-1.334 1.466-.425 3.713-.425 3.713s-1.06-.345-2.174.16c-.787.355-1.857 1.378-1.857 1.378s-.82-1.094-2.121-1.591c-1.459-.557-1.724-.637-3.872.106-2.464.852-2.652 4.35-2.652 4.35s-.821-.57-2.598-.266c-1.857.318-2.812 1.3-3.448 3.42-.636 2.122 3.448 2.308 3.448 2.308s.916 1.516 2.89 1.989c1.883.45 3.103-1.14 3.103-1.14s1.167 1.113 3.235 1.75c2.068.636 3.553-.478 3.553-.478s-.105 4.562 4.827 4.72c4.932.16 5.675-3.765 5.675-3.765s.716 2.042 4.773 1.167c2.097-.452 2.6-3.076 2.6-3.076s.146.234.481.484v-24.16a7 7 0 0 0-.965-.062" style="display:inline;fill:#fff;fill-opacity:1;stroke-width:.150012" transform="translate(-29.575 -79.945)"/><path d="M129.565 122.873q-.195-.004-.385.009c-2.244.14-4.124 1.769-4.124 1.769s-2.466-1.459-4.508.212c-1.892 1.548-.478 3.978-.478 3.978s-.156-.127-.901.106c-.66.206-3.342 3.023-3.342 3.023s1.697-.106 4.35 0c2.651.106 4.72 2.016 4.72 2.016s-1.936-.61-4.482-.61-3.772 1.525-3.898 1.564c-.578.18-.743-1.14-2.493-1.167-1.456-.022-2.758 1.644-2.758 1.644s-2.175-1.75-5.039-1.325c-2.864.424-4.136 3.34-4.136 3.34s-.955-.742-2.811-.265c-1.857.478-2.28.61-3.554 3.077l-.04.044c-.278 1.9 3.488 2.077 3.488 2.077s.916 1.516 2.89 1.99c1.883.45 3.103-1.14 3.103-1.14s1.167 1.113 3.235 1.75c2.068.636 3.554-.478 3.554-.478s-.106 4.561 4.826 4.72c4.932.16 5.675-3.766 5.675-3.766s.716 2.042 4.773 1.167c2.097-.452 2.6-3.076 2.6-3.076s.047.081.153.199v-10.5c-1.092.377-1.957.702-1.957.702s0-.584 1.114-1.644c.206-.197.51-.368.843-.528v-8.86a5 5 0 0 0-.418-.028" style="display:inline;fill:#ebebeb;fill-opacity:1;stroke-width:.150012" transform="translate(-29.575 -79.945)"/><path d="M127.39 137.751s.37 1.538 2.28 2.546q.308.159.641.257v-1.09c-1.82-.488-2.922-1.713-2.922-1.713m-25.406.371s.16.371 1.273 1.538c1.114 1.167 2.811 1.326 2.811 1.326s-.636.583-2.917 1.008c-2.28.424-2.44-1.75-2.44-1.75s-.424.53-2.386 1.326c-1.746.707-2.409-1.025-2.541-1.433-.02.039-.037.067-.058.107l-.04.043c-.278 1.901 3.488 2.078 3.488 2.078s.916 1.516 2.89 1.989c1.883.45 3.103-1.14 3.103-1.14s1.167 1.114 3.235 1.75 3.554-.478 3.554-.478-.106 4.562 4.826 4.721c4.932.16 5.675-3.766 5.675-3.766s.716 2.042 4.773 1.167c2.097-.452 2.6-3.076 2.6-3.076s.146.234.481.484v-1.253c-1.602-.143-2.18-1.352-2.18-1.352s-.636 2.704-4.348 2.333c-3.713-.371-3.076-2.546-3.076-2.546s.265-.318 1.379-.742 2.28-1.91 2.28-1.91-2.493 1.38-4.932 1.645-2.917-1.326-3.183-1.273c-.265.053.16 2.917-2.81 4.03s-3.713-2.386-3.713-2.386.053 0 1.008-.424c.954-.425 1.432-1.539 1.432-1.539s-2.97 1.061-5.357 1.38-4.827-1.857-4.827-1.857" style="display:inline;fill:#c8c8c8;fill-opacity:1;stroke-width:.150012" transform="translate(-29.575 -79.945)"/><path d="M40.517 132.965v30.077c.439.146.98.217 1.646.149 2.714-.281 2.808-2.036 2.808-2.036s2.62 1.591 4.586.468 3.37-3.182 3.37-3.182 1.216 2.34 5.054 2.153c3.837-.188 2.527-6.74 2.527-6.74s-.655-2.901-5.241-2.246l-4.587.655s4.614-4.437 1.498-8.236c-2.668-3.253-5.99-.75-5.99-.75s1.403-2.152.093-3.181c-1.31-1.03-3.931-.843-3.931-.843s2.62-4.025-1.591-6.177c-.082-.042-.16-.072-.242-.111" style="display:inline;fill:#fff;stroke-width:.132367" transform="translate(-29.575 -79.945)"/><path d="M38.088 136.01v25.742c.421-.18.705-.316.705-.316s.655 2.035 3.37 1.755 2.808-2.036 2.808-2.036 2.62 1.591 4.586.468 3.37-3.182 3.37-3.182 1.216 2.34 5.054 2.152 2.527-6.738 2.527-6.738-.15-.558-.676-1.128c-1.405-.312-1.243-.493-3.34.42-2.58 1.126-3.574 1.754-4.732 1.622-1.158-.133-2.812-2.416-2.78-2.846.034-.43 4.203-4.335.663-6.42s-5.758-.33-5.758-.33 2.283-3.178-.43-4.236c-2.714-1.06-3.972.43-3.575-1.159.256-1.022-.483-2.903-1.792-3.769" style="display:inline;fill:#f2f2f2;fill-opacity:1;stroke-width:.132367" transform="translate(-29.575 -79.945)"/><path d="M46.631 150.566s-1.588 3.044-4.699 2.912c-.216-.009-.404-.036-.603-.055v9.777c.254.02.53.022.834-.01 2.714-.28 2.808-2.035 2.808-2.035s2.62 1.591 4.586.468 3.37-3.183 3.37-3.183 1.216 2.34 5.054 2.153c1.896-.093 2.534-1.74 2.695-3.382-.377.8-.726 1.316-1.8 1.495-1.986.331-4.038 1.06-5.825-.728l-1.787-1.786s-.331 3.375-2.846 3.308c-2.515-.066-4.302.663-5.295-.926-.992-1.588-.86-3.177-.662-3.839.199-.662 2.052 1.06 3.376-1.522 1.324-2.58.794-2.647.794-2.647m-60.657 3.36c.07.301.157.557.25.783v-.742z" style="display:inline;fill:#c4c4c4;fill-opacity:1;stroke-width:.132367" transform="translate(-29.575 -79.945)"/><path d="M52.748 115.538c-.262 0-5.307.786-6.225-3.604-.702-3.361 2.556-5.505 3.735-5.44 1.18.066 2.621.525 3.211.263s.607-4.446 7.012-5.832c5.878-1.272 8.387.852 8.387.852s.978-3.362 4.521-4.128c4.85-1.049 5.473 2.536 6.291 2.228.868-.328 2.122.268 3.096.999 1.038.778 1.032 1.95 1.032 1.95s2.752-1.115 4.784.523c2.031 1.639 2.228 3.277 2.228 3.277s4.718-2.425 6.749.524.917 6.225.917 6.225-.786 2.032-2.62 2.687-2.622.13-2.622.13-.13 1.639-1.77 2.425c-1.637.787-4.193.197-4.193.197s.066 3.866-5.11 4.718c-5.055.831-6.226-1.442-7.012-1.77-.787-.327-.525-1.441-.983-1.244-.459.196-3.342 2.293-6.225 2.03-2.884-.261-4.718-3.144-4.718-3.144s-4.784 2.424-7.077.524-3.408-4.39-3.408-4.39" style="display:inline;fill:#fff;fill-opacity:1;stroke-width:.185339" transform="translate(-29.575 -79.945)"/><path d="M76.623 101.854a8 8 0 0 0-.985.001c-2.502.186-3.522 2.873-3.522 2.873s-3.521-1.297-5.004-.741 1.576 1.668 1.761 1.946-5.745-.463-7.414.185c-1.668.649.65-1.297.65-1.297s.74-.37-1.854-1.575-4.819 3.336-5.375 3.892-2.41.092-4.263-.186-3.985 3.522-3.985 3.522l-.198.373c-.012.347.01.707.09 1.086.917 4.39 5.962 3.604 6.224 3.604 0 0 1.114 2.49 3.408 4.39s7.077-.524 7.077-.524 1.834 2.884 4.718 3.146 5.766-1.835 6.225-2.032c.459-.196.196.917.983 1.245s1.957 2.601 7.011 1.77c5.177-.852 5.111-4.719 5.111-4.719s2.556.59 4.194-.196c1.638-.787 1.769-2.425 1.769-2.425s.786.525 2.621-.13c1.835-.656 2.621-2.687 2.621-2.687s.382-1.139.286-2.674c-.62-1.157-1.466-2.55-2.283-3.47-1.483-1.669-6.21-.186-6.21-.186s-1.575-1.76-3.243-2.687-3.614-.278-3.614-.278l-1.575-1.02s-2.838-1.064-5.224-1.206" style="display:inline;fill:#e7e7e7;fill-opacity:1;stroke-width:.185339" transform="translate(-29.575 -79.945)"/><path d="M74.155 109.362s.325 2.178 1.251 3.522c.927 1.343 2.502 6.208-3.429 6.301s-1.946-6.626-1.946-6.626-3.892 1.437-7.645 1.854-7.46-2.549-7.46-2.549.278.742 2.178 2.41 3.197 1.25 3.985 1.25-.51 1.066-.51 1.066-2.178 1.02-4.355.51-2.41-3.614-2.41-3.614-1.668.649-4.633.278c-2.685-.336-2.524-2.914-2.469-3.42-.012.022-.08.13-.08.13l-.034.065c-.047.139-.084.255-.16.49 0 .292.02.59.085.904.918 4.39 5.963 3.605 6.225 3.605 0 0 1.114 2.49 3.408 4.39s7.076-.524 7.076-.524 1.835 2.883 4.719 3.145c2.883.262 5.766-1.835 6.225-2.031s.196.917.983 1.244c.786.328 1.957 2.602 7.011 1.77 5.177-.852 5.111-4.718 5.111-4.718s2.556.59 4.194-.197 1.769-2.424 1.769-2.424.786.524 2.621-.131 2.621-2.687 2.621-2.687.24-.73.29-1.801c-.565.545-1.872 1.959-4.187 2.422-2.78.556-4.958-2.224-4.958-2.224v.463c0 .463 1.39 1.158 1.807 1.992s-.093 1.483-2.27 1.946c-2.178.464-3.568-1.343-3.568-1.343s-.927 1.02-2.456 1.297c-1.529.278-2.873-.834-3.985-1.76-1.112-.927 1.02-1.344 3.66-1.761 2.642-.417 2.92-1.9 2.92-1.9s-2.178.602-5.282.788c-3.105.185-6.302-2.132-6.302-2.132" style="display:inline;fill:#bcbcbc;fill-opacity:1;stroke-width:.185339" transform="translate(-29.575 -79.945)"/><path d="M118.85 173.86c1.824 1.499 4.166.068 4.3-.268.135-.336 1.553 2.465 4.641 1.015 3.07-1.44 1.34-4.039 1.34-4.039s1.832-1.86.94-3.158c-1.124-1.635-2.553-.672-2.822-.806-.269-.135-.134-3.268-3.158-3.696-3.02-.428-3.763 1.881-3.763 1.881s-2.331-1.869-4.818.338c-1.305 1.159-1.459 3.406-.989 4.28.47.873.431 1.094.431 1.094s-2.419-3.36-5.174-1.545 0 3.695 0 3.695-3.494 0-2.15 1.277 4.973-.067 4.973-.067-.232 1.293 2.926 1.091 2.658-1.638 2.658-1.638z" style="display:inline;fill:#fff;fill-opacity:1;stroke-width:.268779" transform="translate(-29.575 -79.945)"/><path d="M122.895 165.127c-1.316.04-1.673 1.196-1.673 1.196s-1.45-1.544-3.944-.38c-2.601 1.214-2.09 4.87-2.09 4.87s-1.758-1.71-3.659-.665c-2.144 1.179-1.093 2.352-.856 2.494.238.143-.356.19-.855.166-.433-.02-1 .076-2.495.577-.009.149.078.327.305.543 1.344 1.277 4.973-.067 4.973-.067s-.232 1.293 2.926 1.091 2.658-1.638 2.658-1.638l.665.547c1.824 1.498 4.166.067 4.3-.269.135-.336 1.553 2.465 4.641 1.015 1.533-.72 1.869-1.726 1.822-2.555a35 35 0 0 0-.504-.384c-1.14-.855-1.212-.736-1.093-1.045s.88-1.782.048-2.732-1.877-.357-1.877-.357c-.544-1.742-.804-2.484-3.292-2.407" style="display:inline;fill:#f2f2f2;fill-opacity:1;stroke-width:.268779" transform="translate(-29.575 -79.945)"/><path d="M120.438 167.107s-.175.643.305 1.472c.522.9.859 1.046.621 1.402-.237.357-.26.262-2.66.903-2.4.642-3.041-1.306-3.041-1.306s-.051.715.604 1.17c.655.456 1.7.35 2.033.706.598.641-.854 1.719-1.026 1.77-.574.17-1.611.416-2.42-.011-.734-.39-.925-.666-.973-1.165-.025-.264.348-.44.723-.558-.277.064-.626.13-1.056.178-1.283.143-2.067-.404-2.067-.404s.547.523 1.355.713.07.903.166.903c.095 0-.499.451-1.924.808-1.426.356-.855-.523-.855-.523l-.88.475c-.822.444-.848.022-1.934.023.05.082.118.17.22.265 1.343 1.277 4.972-.067 4.972-.067s-.232 1.293 2.926 1.091 2.658-1.638 2.658-1.638l.665.547c1.824 1.498 4.166.067 4.3-.269.135-.336 1.553 2.465 4.641 1.015.945-.443 1.434-.996 1.66-1.548-.053-.003-.108-.004-.152-.013-.523-.095-1.069-1.14-1.069-1.14l-.332.451c-.333.452-1.322.253-1.964.253s-1.269-.766-1.425-1.26c-.17-.534-.128-1.203.134-1.511.261-.31.855-.713 1.758-1.354s-.522.118-.618.142c-.094.024-1.58.703-3.077.703s-2.268-2.223-2.268-2.223m-5.834 4.383c.24-.056.397-.103.52-.143-.14.035-.326.081-.52.143m.52-.143c.101-.025.182-.045.206-.059.044-.027-.048.008-.206.06" style="display:inline;fill:#d8d8d8;fill-opacity:1;stroke-width:.268779" transform="translate(-29.575 -79.945)"/><path d="M51.34 177.832s-.43 1.307-1.78 1.373c-1.186.058-1.73-1.22-1.73-1.22s-.226.358-1.322 0c-1.23-.403-1.02-1.1-1.02-1.1s-1.676 1.347-1.828-.128 1.105-1.434 1.105-1.434 1.133-.898 1.642-.644l.508.254s-.305-1.373.967-1.576c1.271-.204 1.576.457 1.678 0 .102-.458-.773-.596.814-2.29 1.24-1.322 2.288-1.067 2.288-1.067s-.813-3.967 2.289-4.577 4.628 1.271 4.628 1.271 2.311-2.179 4.628-.152c1.865 1.631 1.17 3.051 1.17 3.051s1.794-.457 2.492.661c.486.78.101 1.526.101 1.526s2.136-1.577 3.662-.05c1.526 1.525.356 3.712.356 3.712s2.979-.569 3.51 1.322c.468 1.671-1.272 2.187-1.272 2.187s1.983 0 1.068.712-1.28.54-1.78.56c-2.156.08-1.526.966-3.713.457s-2.695-1.475-3.305-1.678c-.61-.204-1.323 1.22-3.662.966s-2.289-1.424-2.289-1.424.551.301-1.17.509c-1.341.162-1.83-.865-1.83-.865s-.44 1.298-2.798 1.272c-2.383-.027-3.407-1.628-3.407-1.628" style="display:inline;fill:#fff;fill-opacity:1;stroke-width:.143847" transform="translate(-29.575 -79.945)"/><path d="M62.246 167.75c-1.09-.093-2.143 1.076-2.241 1.403-.178-.343-1.388-1.657-3.528-1.29-2.518.433-3.001 3.154-3.001 3.154s-.966-.076-2.34.84-1.246 1.957-1.322 2.186c-.076.23-.813 0-1.525.102s-.916 1.144-.916 1.144-.458.102-1.73.255c-.976.117-1.36.417-1.988.848-.008.11-.01.23.005.366.152 1.474 1.828.126 1.828.126s-.21.698 1.02 1.1c1.096.359 1.323 0 1.323 0s.543 1.28 1.729 1.221c1.35-.066 1.78-1.373 1.78-1.373s1.024 1.601 3.407 1.627c2.358.027 2.797-1.27 2.797-1.27s.49 1.025 1.831.864c.804-.097 1.103-.214 1.203-.311.1.344.517 1.037 2.256 1.226 2.339.255 3.051-1.17 3.662-.966s1.118 1.17 3.305 1.678c2.187.509 1.556-.378 3.713-.457.5-.019.864.152 1.78-.56a1 1 0 0 0 .139-.126c-.142-.01-.27-.015-.419-.027-1.322-.101-1.246-.712-1.246-.712s.84-.305.661-1.805-2.95-1.297-3.026-1.017.356-1.145-.636-2.925c-.991-1.78-4.551-.127-4.551-.127s.686-.178.305-1.703-2.39-.763-2.568-.61c-.178.152.584-1.247-.865-2.493a1.46 1.46 0 0 0-.842-.368" style="display:inline;fill:#f2f2f2;fill-opacity:1;stroke-width:.143847" transform="translate(-29.575 -79.945)"/><path d="M61.893 170.89s-1.577 1.068-4.12 1.602c-2.542.534-4.043-.89-4.043-.89s-.127.203.661.89c.789.687 1.933.94 2.06.966s.024 2.005-2.645 2.136c-2.06.102-3.661-1.093-3.661-1.093s1.475 1.22 1.882 1.627-.331.433-1.577.789-2.874-.738-2.874-.738-.254.102-.94.178c-.687.076-.56-.534-.738-.28-.178.255-.203.179-1.22.306-.865.108-.356.01-1.027.134q-.003.112.009.24c.152 1.475 1.828.127 1.828.127s-.21.698 1.02 1.1c1.096.359 1.323 0 1.323 0s.543 1.28 1.729 1.221c1.35-.066 1.78-1.373 1.78-1.373s1.024 1.601 3.407 1.627c2.358.027 2.798-1.27 2.798-1.27s.489 1.025 1.83.864c.804-.097 1.103-.214 1.203-.311.1.344.518 1.037 2.256 1.226 2.34.255 3.051-1.17 3.662-.966s1.118 1.17 3.305 1.678c2.187.509 1.557-.378 3.713-.457.5-.019.865.152 1.78-.56.024-.019.039-.035.06-.054a10.5 10.5 0 0 0-1.738-.022c-.992.076-.992-.712-.992-.712s-.61.356-1.806 0c-1.195-.356.179-1.959.179-1.959s-.56.026-2.493-.228c-1.932-.255-1.042-.789-1.042-.789s.28-.28.458-.56c.178-.279.356-.533.356-.533s-1.043.788-2.493.966-2.06-1.17-2.06-1.17-.024.814 1.12 1.425c1.144.61 2.186-.051 2.186-.051s-.228.33-1.22.991-2.136-.356-2.136-.356-.483.28-3.026.026-2.873-3.026-2.873-3.026.711-.305 2.212-1.043c1.5-.737 1.907-1.678 1.907-1.678" style="display:inline;fill:#d8d8d8;fill-opacity:1;stroke-width:.143847" transform="translate(-29.575 -79.945)"/><path d="M109.807 159.213c.243 0 4.934.73 5.786-3.35.653-3.124-2.375-5.117-3.472-5.056s-2.436.488-2.984.244-.565-4.133-6.518-5.421c-5.464-1.182-7.796.792-7.796.792s-.91-3.125-4.203-3.838c-4.507-.974-5.087 2.358-5.847 2.071-.807-.304-1.973.25-2.878.93-.965.723-.96 1.811-.96 1.811s-2.558-1.035-4.446.488-2.071 3.045-2.071 3.045-4.386-2.254-6.274.487-.853 5.787-.853 5.787.731 1.888 2.437 2.497c1.705.61 2.436.122 2.436.122s.122 1.523 1.645 2.254c1.523.73 3.898.183 3.898.183s-.06 3.593 4.751 4.385c4.698.773 5.787-1.34 6.517-1.644.731-.305.488-1.34.914-1.158s3.107 2.132 5.787 1.888c2.68-.243 4.385-2.923 4.385-2.923s4.447 2.253 6.578.487 3.168-4.081 3.168-4.081" style="display:inline;fill:#fff;fill-opacity:1;stroke-width:.172278" transform="translate(-29.575 -79.945)"/><path d="M87.614 146.494a7 7 0 0 1 .916.001c2.326.172 3.273 2.67 3.273 2.67s3.274-1.206 4.652-.689-1.465 1.55-1.637 1.81c-.172.258 5.34-.432 6.891.171s-.603-1.206-.603-1.206-.689-.344 1.723-1.464 4.48 3.101 4.996 3.618c.517.517 2.24.086 3.963-.173 1.723-.258 3.704 3.274 3.704 3.274l.184.347c.011.322-.01.657-.083 1.01-.853 4.08-5.542 3.35-5.786 3.35 0 0-1.036 2.314-3.167 4.08-2.132 1.767-6.579-.487-6.579-.487s-1.705 2.68-4.385 2.924-5.36-1.706-5.787-1.888c-.426-.183-.183.852-.914 1.157-.73.304-1.82 2.418-6.517 1.645-4.812-.792-4.751-4.386-4.751-4.386s-2.376.548-3.898-.183c-1.523-.73-1.645-2.253-1.645-2.253s-.73.487-2.436-.122c-1.706-.61-2.437-2.498-2.437-2.498s-.355-1.058-.265-2.485c.576-1.076 1.362-2.37 2.122-3.226 1.379-1.55 5.772-.172 5.772-.172s1.464-1.637 3.015-2.499c1.55-.86 3.36-.258 3.36-.258l1.464-.948s2.638-.989 4.855-1.12" style="display:inline;fill:#ececec;fill-opacity:1;stroke-width:.172278" transform="translate(-29.575 -79.945)"/><path d="M89.908 153.473s-.301 2.024-1.163 3.273c-.861 1.249-2.325 5.771 3.188 5.858 5.512.086 1.808-6.16 1.808-6.16s3.618 1.336 7.107 1.723c3.489.388 6.934-2.368 6.934-2.368s-.258.689-2.024 2.24c-1.766 1.55-2.972 1.162-3.704 1.162s.474.99.474.99 2.024.948 4.048.474c2.025-.473 2.24-3.36 2.24-3.36s1.55.604 4.307.26c2.496-.313 2.346-2.71 2.295-3.18.011.021.074.122.074.122l.032.06.149.456c0 .27-.02.548-.08.84-.853 4.08-5.542 3.35-5.786 3.35 0 0-1.035 2.315-3.167 4.081s-6.579-.487-6.579-.487-1.705 2.68-4.385 2.924-5.36-1.706-5.787-1.889-.183.853-.913 1.157c-.731.305-1.82 2.418-6.518 1.645-4.812-.792-4.751-4.386-4.751-4.386s-2.375.549-3.898-.182-1.645-2.254-1.645-2.254-.73.487-2.436-.122-2.437-2.497-2.437-2.497-.222-.678-.268-1.675c.524.507 1.74 1.821 3.891 2.252 2.585.516 4.609-2.068 4.609-2.068v.43c0 .432-1.292 1.078-1.68 1.853s.086 1.378 2.11 1.809c2.025.43 3.317-1.25 3.317-1.25s.861.948 2.283 1.207c1.421.258 2.67-.775 3.704-1.637 1.033-.861-.948-1.249-3.403-1.637s-2.713-1.765-2.713-1.765 2.024.56 4.91.732c2.885.172 5.857-1.981 5.857-1.981" style="display:inline;fill:#c3c3c3;fill-opacity:1;stroke-width:.172278" transform="translate(-29.575 -79.945)"/></g><g style="display:inline" transform="translate(-50.701 4.27)"><path d="M54.243 58.24h8.255v61.957h-8.255z" style="display:inline;fill:#764c28;fill-opacity:1;stroke-width:.192486"/><path d="M104.764-1.32c-3.637-.054-19.118.584-33.982 14.248-19.388 17.824-16.406 45.841-16.406 45.841 3.616-.02 7.232-.025 10.848-.04h-2.791s-1.229-19.167 11.054-33.478c10.878-12.676 20.87-14.937 31.874-15.59.04-.003.063-.006.18-.006.069.004.09 0 .222.007 11.003.652 20.996 2.914 31.874 15.589 12.282 14.311 9.87 33.518 9.87 33.518l-1.09-.019c3.153.008 6.305.011 9.457.02 0 0 2.981-28.018-16.407-45.842-4.31-3.962-15.495-13.963-34.703-14.248m41.654 60.07c-27.065-.069-54.13-.124-81.194-.02z" style="display:inline;fill:#764c28;fill-opacity:1;stroke-width:.264583"/><path d="M147.611 58.24h8.255v61.94h-8.255z" style="display:inline;fill:#764c28;fill-opacity:1;stroke-width:.192459"/><path d="M81.42 66.243h1.31v49.783h-1.31z" style="display:inline;fill:#764c28;fill-opacity:1;stroke-width:.0687308"/><path d="M101.799 58.809h8.255v60.68h-8.255z" style="display:inline;fill:#764c28;fill-opacity:1;stroke-width:.190492"/><path d="M55.309 58.723h100.578v8.302H55.309z" style="display:inline;fill:#764c28;fill-opacity:1;stroke-width:.230388"/><path d="M127.987 65.756h1.31v49.451h-1.31z" style="display:inline;fill:#764c28;fill-opacity:1;stroke-width:.0685013"/><path d="M105.061 36.613c-1.936-.03-9.486.202-15.417 5.82-7.673 7.266-8.04 16.374-7.852 16.244l1.58.006c.051-1.658 1.104-8.874 7.346-14.785 5.526-5.234 12.561-5.45 14.365-5.423.182.003.236.007.305.01.069-.003.124-.007.305-.01 1.804-.027 8.839.19 14.366 5.423 6.241 5.91 7.294 13.127 7.345 14.785l1.58-.006c.188.13-.179-8.978-7.852-16.245-5.931-5.617-13.481-5.849-15.417-5.82-.194.004-.253.008-.327.01-.074-.002-.132-.006-.327-.01" style="display:inline;fill:#764c28;fill-opacity:1;stroke-width:.264583"/><path d="M105.715 8.571h1.31v28.42h-1.31z" style="display:inline;fill:#764c28;fill-opacity:1;stroke-width:.0519303"/><path d="M108.809-103.209h1.249v22.308h-1.249z" style="display:inline;fill:#764c28;fill-opacity:1;stroke-width:.0398071" transform="matrix(.53082 .84749 -.83858 .54477 0 0)"/><rect width="1.444" height="22.34" x="-7.596" y="75.349" ry="0" style="display:inline;fill:#764c28;fill-opacity:1;stroke-width:.0408779" transform="matrix(-.5293 .84844 .83759 .5463 0 0)"/><path d="M104.838 58.718h2.132v55.398h-2.132z" style="display:inline;fill:#5b3b1f;fill-opacity:1;stroke-width:.0925023"/><path d="m147.61 67.014 2.816.577v46.518h-2.815z" style="display:inline;fill:#c9976e;fill-opacity:1;stroke-width:.100188"/><path d="m101.79 67.014 1.549.577v46.52h-1.548z" style="display:inline;fill:#c2824b;stroke-width:.0742909"/><path d="M-122.048 54.244h7.958v101.575h-7.958z" style="display:inline;fill:#764c28;fill-opacity:1;stroke-width:.241983" transform="rotate(-90)"/><path d="M106.078 9.588c.463.055.925.122 1.386.192 10.334.8 19.86 3.434 30.17 15.448 12.253 14.276 9.883 33.406 9.872 33.502l2.148.004c1.625-22.883-11.013-43.906-32.982-48.355-3.076-.623-10.594-.792-10.594-.792zm41.428 49.142-1.09-.002.703.012.386.001zm-1.09-.002-3.15-.006v.005zm-40.228-.067v.057l35.331.009q-17.665-.047-35.331-.066" style="display:inline;fill:#c9976e;fill-opacity:1;stroke-width:.264583"/></g></svg>