<svg xmlns="http://www.w3.org/2000/svg" xml:space="preserve" width="170" height="900" viewBox="0 0 44.979 238.125"><defs><filter id="b" width="1.115" height="1.115" x="-.057" y="-.057" style="color-interpolation-filters:sRGB"><feGaussianBlur stdDeviation=".913"/></filter><filter id="a" width="1.469" height="1.017" x="-.234" y="-.008" style="color-interpolation-filters:sRGB"><feGaussianBlur stdDeviation=".575"/></filter></defs><g style="display:inline;fill:#111;fill-opacity:1;stroke:#111;stroke-width:1.00007;stroke-dasharray:none;stroke-opacity:1;filter:url(#a)" transform="translate(4.682 80.297)scale(.77994)"><path d="M23.192-90.874s-.378.265-.755.62c-.378.353-.726.948-.584 2.293.141 1.344 1.986 3.404 3.566 4.937s2.985 3.283 2.985 3.283.142-.166.495-.779c.354-.613.707-1.525.542-2.657s-1.996-3.053-3.442-4.49c-1.493-1.482-2.807-3.207-2.807-3.207zm-.215 5.709s-.378.265-.756.619c-.377.354-.725.95-.583 2.294.141 1.344 1.985 3.404 3.566 4.937s2.985 3.282 2.985 3.282.141-.164.495-.777c.354-.614.706-1.527.541-2.659s-1.995-3.052-3.442-4.489c-1.492-1.482-2.806-3.207-2.806-3.207zm-.018 5.887s-.377.266-.754.62c-.378.353-.725.949-.584 2.293s1.985 3.404 3.565 4.938 2.986 3.282 2.986 3.282.142-.165.495-.779c.354-.613.707-1.525.542-2.657s-1.996-3.053-3.442-4.489c-1.493-1.483-2.808-3.208-2.808-3.208zm-.118 5.638s-.377.265-.754.618c-.378.354-.725.95-.584 2.294s1.985 3.405 3.565 4.938 2.987 3.282 2.987 3.282.14-.165.494-.778c.354-.614.707-1.526.542-2.658s-1.996-3.052-3.442-4.489c-1.493-1.483-2.808-3.207-2.808-3.207zm.351 6.315s-.378.266-.755.62c-.378.353-.726.95-.584 2.293.141 1.345 1.986 3.405 3.566 4.938s2.985 3.282 2.985 3.282.142-.165.495-.778c.354-.613.707-1.526.542-2.658s-1.996-3.052-3.442-4.489c-1.493-1.482-2.807-3.208-2.807-3.208zm-.215 5.71s-.378.265-.756.618c-.377.354-.725.95-.583 2.294.141 1.345 1.985 3.404 3.566 4.938s2.985 3.282 2.985 3.282.141-.165.495-.779c.354-.613.706-1.525.541-2.657s-1.995-3.052-3.442-4.489c-1.492-1.483-2.806-3.207-2.806-3.207zm-.018 5.886s-.377.266-.754.62c-.378.354-.726.95-.584 2.294s1.985 3.404 3.565 4.937 2.986 3.283 2.986 3.283.142-.166.495-.779c.354-.613.707-1.525.542-2.658-.165-1.132-1.996-3.052-3.442-4.488-1.493-1.483-2.808-3.209-2.808-3.209zm-.118 5.638s-.377.265-.754.62c-.378.353-.725.948-.584 2.293.142 1.344 1.985 3.404 3.565 4.937s2.987 3.283 2.987 3.283.14-.166.494-.779.707-1.525.542-2.657-1.996-3.053-3.442-4.49c-1.493-1.482-2.808-3.207-2.808-3.207zm.351 6.201s-.378.265-.755.619c-.378.354-.726.95-.584 2.294.141 1.344 1.986 3.404 3.566 4.937s2.985 3.283 2.985 3.283.142-.165.495-.778c.354-.613.707-1.526.542-2.658-.165-1.133-1.996-3.053-3.442-4.49-1.493-1.482-2.807-3.207-2.807-3.207zm-.215 5.709s-.378.266-.756.62c-.377.353-.725.949-.583 2.293.141 1.345 1.985 3.404 3.566 4.937s2.985 3.283 2.985 3.283.141-.165.495-.779c.354-.613.706-1.526.541-2.658s-1.995-3.051-3.442-4.488c-1.492-1.483-2.806-3.208-2.806-3.208zm.215 5.984s-.378.265-.755.619c-.378.354-.726.95-.584 2.294.141 1.344 1.986 3.404 3.566 4.937s2.985 3.283 2.985 3.283.142-.166.495-.779c.354-.613.707-1.525.542-2.657s-1.996-3.053-3.442-4.49c-1.493-1.482-2.807-3.207-2.807-3.207zm-.215 5.709s-.378.265-.756.619c-.377.353-.725.95-.583 2.293.141 1.345 1.985 3.405 3.566 4.938s2.985 3.283 2.985 3.283.141-.165.495-.779c.354-.613.706-1.526.541-2.658s-1.995-3.052-3.442-4.489c-1.492-1.482-2.806-3.207-2.806-3.207zm-.018 5.887s-.377.265-.754.62c-.378.353-.726.949-.584 2.293s1.985 3.404 3.565 4.937 2.986 3.283 2.986 3.283.142-.165.495-.779c.354-.613.707-1.525.542-2.657s-1.996-3.053-3.442-4.49c-1.493-1.482-2.808-3.207-2.808-3.207zm-.118 5.638s-.377.265-.754.618c-.378.354-.725.95-.584 2.294s1.985 3.404 3.565 4.938 2.987 3.282 2.987 3.282.14-.165.494-.778.707-1.526.542-2.658-1.996-3.052-3.442-4.489c-1.493-1.483-2.808-3.207-2.808-3.207zm.351 6.315s-.378.266-.755.62c-.378.353-.726.949-.584 2.293.141 1.345 1.986 3.405 3.566 4.938s2.985 3.282 2.985 3.282.142-.165.495-.778c.354-.614.707-1.526.542-2.658s-1.996-3.052-3.442-4.489c-1.493-1.482-2.807-3.208-2.807-3.208zm-.215 5.71s-.378.264-.756.618c-.377.354-.725.95-.583 2.294.141 1.345 1.985 3.404 3.566 4.938s2.985 3.282 2.985 3.282.141-.165.495-.778.706-1.526.541-2.658-1.995-3.053-3.442-4.49c-1.492-1.482-2.806-3.207-2.806-3.207Zm-.018 5.887s-.377.265-.754.619c-.378.354-.726.95-.584 2.294s1.985 3.404 3.565 4.937 2.986 3.282 2.986 3.282.142-.165.495-.778c.354-.613.707-1.525.542-2.658-.165-1.132-1.996-3.052-3.442-4.488-1.493-1.483-2.808-3.208-2.808-3.208Zm-.118 5.637s-.377.265-.754.619c-.378.354-.725.95-.584 2.294s1.985 3.404 3.565 4.937 2.987 3.283 2.987 3.283.14-.166.494-.779.707-1.525.542-2.657-1.996-3.053-3.442-4.49c-1.493-1.482-2.808-3.207-2.808-3.207Zm.351 6.201s-.378.265-.755.619c-.378.354-.726.95-.584 2.294.141 1.344 1.986 3.404 3.566 4.937s2.985 3.283 2.985 3.283.142-.165.495-.778c.354-.614.707-1.526.542-2.659s-1.996-3.052-3.442-4.488c-1.493-1.483-2.807-3.208-2.807-3.208zm-.215 5.709s-.378.265-.756.62c-.377.353-.725.949-.583 2.293.141 1.345 1.985 3.404 3.566 4.937s2.985 3.283 2.985 3.283.141-.165.495-.779c.354-.613.706-1.525.541-2.657s-1.995-3.053-3.442-4.49c-1.492-1.482-2.806-3.207-2.806-3.207zm-.018 5.887s-.377.265-.754.62c-.378.353-.725.949-.584 2.293s1.985 3.404 3.565 4.937 2.986 3.283 2.986 3.283.142-.165.495-.778c.354-.613.707-1.526.542-2.658s-1.996-3.053-3.442-4.49c-1.493-1.482-2.808-3.207-2.808-3.207zm-.118 5.637s-.377.266-.754.62c-.378.353-.725.949-.584 2.293s1.985 3.404 3.565 4.938 2.987 3.283 2.987 3.283.14-.166.494-.779.707-1.526.542-2.658-1.996-3.053-3.442-4.489c-1.493-1.483-2.808-3.208-2.808-3.208zm.351 6.317s-.378.265-.755.619c-.378.353-.726.949-.584 2.293.141 1.345 1.986 3.405 3.566 4.938s2.985 3.282 2.985 3.282.142-.165.495-.778c.354-.614.707-1.526.542-2.658s-1.996-3.052-3.442-4.489c-1.493-1.482-2.807-3.207-2.807-3.207zm-.215 5.708s-.378.266-.756.62c-.377.354-.725.95-.583 2.294.141 1.344 1.985 3.403 3.566 4.936 1.58 1.534 2.985 3.284 2.985 3.284s.141-.166.495-.779.706-1.526.541-2.658-1.995-3.053-3.442-4.49c-1.492-1.482-2.806-3.207-2.806-3.207zm-.018 5.888s-.377.265-.754.619c-.378.354-.726.95-.584 2.294s1.985 3.404 3.565 4.937 2.986 3.282 2.986 3.282.142-.164.495-.777c.354-.614.707-1.527.542-2.659s-1.996-3.052-3.442-4.489c-1.493-1.482-2.808-3.207-2.808-3.207zm-.118 5.637s-.377.265-.754.619c-.378.354-.725.95-.584 2.294s1.985 3.404 3.565 4.937 2.987 3.283 2.987 3.283.14-.165.494-.778c.354-.614.707-1.526.542-2.659s-1.996-3.052-3.442-4.488c-1.493-1.483-2.808-3.208-2.808-3.208Zm.351 6.298s-.378.265-.755.619c-.378.353-.726.949-.584 2.293.141 1.345 1.986 3.405 3.566 4.938S28.404 73 28.404 73s.142-.165.495-.778c.354-.614.707-1.526.542-2.658s-1.996-3.052-3.442-4.489c-1.493-1.482-2.807-3.207-2.807-3.207zm-.215 5.708s-.378.266-.756.62c-.377.353-.725.949-.583 2.293.141 1.345 1.985 3.404 3.566 4.938s2.985 3.282 2.985 3.282.141-.165.495-.778.706-1.526.541-2.658-1.995-3.053-3.442-4.49c-1.492-1.482-2.806-3.207-2.806-3.207zm-.018 5.888s-.377.265-.754.619c-.378.354-.726.95-.584 2.294s1.985 3.404 3.565 4.937 2.986 3.282 2.986 3.282.142-.165.495-.778c.354-.613.707-1.525.542-2.658-.165-1.132-1.996-3.052-3.442-4.488-1.493-1.483-2.808-3.208-2.808-3.208zm-.118 5.637s-.377.265-.754.619c-.378.354-.725.95-.584 2.294s1.985 3.404 3.565 4.937 2.987 3.283 2.987 3.283.14-.166.494-.779.707-1.525.542-2.657-1.996-3.053-3.442-4.49c-1.493-1.482-2.808-3.207-2.808-3.207zm.351 6.316s-.378.265-.755.62c-.378.353-.726.949-.584 2.293.141 1.344 1.986 3.404 3.566 4.937s2.985 3.283 2.985 3.283.142-.165.495-.779c.354-.613.707-1.525.542-2.657s-1.996-3.053-3.442-4.49c-1.493-1.482-2.807-3.207-2.807-3.207zm-.215 5.71s-.378.264-.756.618c-.377.354-.725.95-.583 2.294.141 1.344 1.985 3.404 3.566 4.937s2.985 3.283 2.985 3.283.141-.166.495-.779.706-1.525.541-2.658c-.165-1.132-1.995-3.052-3.442-4.488-1.492-1.483-2.806-3.208-2.806-3.208zm-.018 5.886s-.377.266-.754.62c-.378.353-.726.949-.584 2.293s1.985 3.405 3.565 4.938 2.986 3.282 2.986 3.282.142-.165.495-.778c.354-.614.707-1.526.542-2.658s-1.996-3.052-3.442-4.489c-1.493-1.482-2.808-3.208-2.808-3.208zm-.118 5.637s-.377.266-.754.62c-.378.353-.725.949-.584 2.293s1.985 3.405 3.565 4.938 2.987 3.282 2.987 3.282.14-.165.494-.778c.354-.614.707-1.526.542-2.658s-1.996-3.052-3.442-4.489c-1.493-1.482-2.808-3.208-2.808-3.208zm.351 6.202s-.378.265-.755.619c-.378.353-.726.949-.584 2.293.141 1.345 1.986 3.405 3.566 4.938s2.985 3.282 2.985 3.282.142-.164.495-.778c.354-.613.707-1.526.542-2.658s-1.996-3.052-3.442-4.489c-1.493-1.482-2.807-3.207-2.807-3.207zm-.215 5.708s-.378.266-.756.62c-.377.354-.725.95-.583 2.294.141 1.344 1.985 3.403 3.566 4.936 1.58 1.534 2.985 3.284 2.985 3.284s.141-.166.495-.779.706-1.526.541-2.658-1.995-3.052-3.442-4.488c-1.492-1.483-2.806-3.209-2.806-3.209zm-.018 5.888s-.377.265-.754.619c-.378.354-.725.95-.584 2.294s1.985 3.404 3.565 4.937 2.986 3.282 2.986 3.282.142-.164.495-.777c.354-.614.707-1.527.542-2.659s-1.996-3.052-3.442-4.489c-1.493-1.482-2.808-3.207-2.808-3.207zm-.118 5.637s-.377.265-.754.619c-.378.354-.725.95-.584 2.294s1.985 3.404 3.565 4.937 2.987 3.283 2.987 3.283.14-.165.494-.778c.354-.614.707-1.526.542-2.659s-1.996-3.052-3.442-4.488c-1.493-1.483-2.808-3.208-2.808-3.208zm.351 6.316s-.378.265-.755.62c-.378.353-.726.949-.584 2.293.141 1.344 1.986 3.404 3.566 4.937s2.985 3.283 2.985 3.283.142-.165.495-.779c.354-.613.707-1.525.542-2.657s-1.996-3.053-3.442-4.49c-1.493-1.482-2.807-3.207-2.807-3.207zm-.215 5.709s-.378.265-.756.619c-.377.354-.725.95-.583 2.294.141 1.344 1.985 3.404 3.566 4.937s2.985 3.282 2.985 3.282.141-.164.495-.777c.354-.614.706-1.526.541-2.659s-1.995-3.052-3.442-4.488c-1.492-1.483-2.806-3.208-2.806-3.208zm-.018 5.888s-.377.265-.754.618c-.378.354-.726.95-.584 2.294s1.985 3.405 3.565 4.938 2.986 3.282 2.986 3.282.142-.165.495-.778c.354-.614.707-1.526.542-2.658s-1.996-3.052-3.442-4.489c-1.493-1.483-2.808-3.207-2.808-3.207zm-.118 5.637s-.377.265-.754.619c-.378.353-.725.949-.584 2.293s1.985 3.405 3.565 4.938 2.987 3.282 2.987 3.282.14-.165.494-.778c.354-.614.707-1.526.542-2.658s-1.996-3.052-3.442-4.489c-1.493-1.482-2.808-3.207-2.808-3.207z" style="display:inline;fill:#131313;fill-opacity:.94901961;stroke:#111;stroke-width:1.00007;stroke-dasharray:none;stroke-opacity:1"/></g><g style="display:inline"><path d="M28.172 155.13s-1.405-1.75-2.985-3.282c-1.58-1.534-3.424-3.593-3.566-4.938s.207-1.94.584-2.294c.377-.353.755-.619.755-.619s1.314 1.725 2.806 3.208c1.447 1.437 3.278 3.357 3.443 4.489s-.188 2.045-.541 2.658-.496.778-.496.778zm.017-5.887s-1.405-1.75-2.986-3.283c-1.58-1.533-3.424-3.593-3.565-4.937s.206-1.94.584-2.294c.377-.354.754-.619.754-.619s1.314 1.725 2.807 3.208c1.446 1.436 3.277 3.356 3.443 4.489.165 1.132-.188 2.044-.542 2.657-.353.614-.495.779-.495.779zm.215-5.709s-1.405-1.75-2.985-3.283-3.424-3.593-3.566-4.937.207-1.94.584-2.294.755-.619.755-.619 1.314 1.725 2.807 3.208c1.446 1.436 3.277 3.356 3.442 4.489.165 1.132-.188 2.044-.541 2.658s-.496.778-.496.778zm-.35 17.233s-1.405-1.75-2.985-3.282-3.424-3.593-3.566-4.938.207-1.94.584-2.293.755-.62.755-.62 1.314 1.726 2.807 3.208c1.446 1.437 3.277 3.357 3.442 4.49.165 1.131-.188 2.044-.541 2.657s-.496.778-.496.778zm.118-29.187s-1.405-1.749-2.985-3.282-3.424-3.593-3.566-4.937.207-1.94.584-2.294.755-.62.755-.62 1.314 1.726 2.806 3.209c1.447 1.436 3.278 3.356 3.443 4.488s-.188 2.045-.541 2.658c-.354.614-.496.779-.496.779zm.017-5.887s-1.405-1.75-2.986-3.282c-1.58-1.533-3.424-3.593-3.565-4.938s.206-1.94.584-2.293c.377-.354.754-.62.754-.62s1.314 1.726 2.807 3.208c1.446 1.437 3.277 3.357 3.443 4.49.165 1.131-.188 2.044-.542 2.657-.353.613-.495.778-.495.778zm.215-5.709s-1.405-1.75-2.985-3.282-3.424-3.593-3.566-4.937.207-1.94.584-2.294.755-.62.755-.62 1.314 1.726 2.807 3.208c1.446 1.437 3.277 3.357 3.442 4.49.165 1.131-.188 2.044-.541 2.657s-.496.778-.496.778zm-.35 17.234s-1.405-1.75-2.985-3.283-3.424-3.593-3.566-4.937.207-1.94.584-2.294.755-.619.755-.619 1.314 1.725 2.807 3.208c1.446 1.436 3.277 3.356 3.442 4.489.165 1.132-.188 2.044-.541 2.657-.354.614-.496.779-.496.779zm.118-29.072s-1.405-1.75-2.985-3.283-3.424-3.592-3.566-4.937c-.141-1.344.207-1.94.584-2.294.377-.353.755-.619.755-.619s1.314 1.725 2.806 3.208c1.447 1.437 3.278 3.357 3.443 4.489s-.188 2.044-.541 2.658-.496.778-.496.778zm.017-5.887s-1.405-1.75-2.986-3.283c-1.58-1.533-3.424-3.593-3.565-4.937s.206-1.94.584-2.294c.377-.354.754-.62.754-.62s1.314 1.726 2.807 3.209c1.446 1.436 3.277 3.356 3.443 4.488s-.188 2.045-.542 2.658c-.353.614-.495.779-.495.779zm.215-5.709S27 94.8 25.42 93.267s-3.424-3.593-3.566-4.937.207-1.94.584-2.294.755-.619.755-.619 1.314 1.725 2.807 3.208c1.446 1.436 3.277 3.356 3.442 4.489.165 1.132-.188 2.044-.541 2.657-.354.614-.496.779-.496.779zm-.35 17.233s-1.405-1.75-2.985-3.282c-1.58-1.534-3.424-3.593-3.566-4.938s.207-1.94.584-2.293.755-.62.755-.62 1.314 1.726 2.807 3.208c1.446 1.437 3.277 3.357 3.442 4.489s-.188 2.045-.541 2.658-.496.778-.496.778zm.118-29.186s-1.405-1.75-2.985-3.283-3.424-3.593-3.566-4.937.207-1.94.584-2.294.755-.62.755-.62 1.314 1.726 2.806 3.208c1.447 1.437 3.278 3.357 3.443 4.49.165 1.131-.188 2.044-.541 2.657s-.496.779-.496.779zm.017-5.887s-1.405-1.75-2.986-3.283c-1.58-1.534-3.424-3.593-3.565-4.938s.206-1.94.584-2.293c.377-.354.754-.62.754-.62s1.314 1.725 2.807 3.208c1.446 1.437 3.277 3.357 3.443 4.489s-.188 2.045-.542 2.658c-.353.613-.495.778-.495.778zm.215-5.71S27 71.25 25.42 69.718s-3.424-3.593-3.566-4.938.207-1.94.584-2.293.755-.62.755-.62 1.314 1.726 2.807 3.208c1.446 1.437 3.277 3.357 3.442 4.489s-.188 2.045-.541 2.658-.496.778-.496.778zm-.35 17.234s-1.405-1.75-2.985-3.283-3.424-3.593-3.566-4.937.207-1.94.584-2.294.755-.62.755-.62 1.314 1.726 2.807 3.209c1.446 1.436 3.277 3.356 3.442 4.488s-.188 2.045-.541 2.658c-.354.614-.496.779-.496.779zm.118-29.168s-1.405-1.75-2.985-3.283-3.424-3.593-3.566-4.937.207-1.94.584-2.294.755-.62.755-.62 1.314 1.726 2.806 3.209c1.447 1.436 3.278 3.356 3.443 4.488s-.188 2.045-.541 2.658c-.354.614-.496.779-.496.779zm.017-5.888s-1.405-1.75-2.986-3.282c-1.58-1.533-3.424-3.593-3.565-4.938s.206-1.94.584-2.293c.377-.354.754-.62.754-.62s1.314 1.726 2.807 3.208c1.446 1.437 3.277 3.357 3.443 4.489s-.188 2.045-.542 2.658c-.353.613-.495.778-.495.778zm.215-5.708S27 47.72 25.42 46.186s-3.424-3.593-3.566-4.938.207-1.94.584-2.293.755-.62.755-.62 1.314 1.726 2.807 3.208c1.446 1.437 3.277 3.357 3.442 4.49.165 1.131-.188 2.044-.541 2.657s-.496.778-.496.778zm-.35 17.233s-1.405-1.75-2.985-3.283-3.424-3.593-3.566-4.937.207-1.94.584-2.294.755-.619.755-.619 1.314 1.725 2.807 3.208c1.446 1.436 3.277 3.356 3.442 4.489.165 1.132-.188 2.044-.541 2.657-.354.614-.496.779-.496.779zm.118-29.187s-1.405-1.75-2.985-3.282c-1.58-1.534-3.424-3.593-3.566-4.938s.207-1.94.584-2.294c.377-.353.755-.619.755-.619s1.314 1.725 2.806 3.208c1.447 1.437 3.278 3.357 3.443 4.489s-.188 2.045-.541 2.658-.496.778-.496.778zm.017-5.887s-1.405-1.75-2.986-3.283c-1.58-1.533-3.424-3.593-3.565-4.937s.206-1.94.584-2.294c.377-.354.754-.619.754-.619s1.314 1.725 2.807 3.208c1.446 1.436 3.277 3.356 3.443 4.489.165 1.132-.188 2.044-.542 2.657-.353.614-.495.779-.495.779zm.215-5.709S27 24.17 25.42 22.637s-3.424-3.593-3.566-4.937.207-1.94.584-2.294.755-.619.755-.619 1.314 1.725 2.807 3.208c1.446 1.436 3.277 3.356 3.442 4.489.165 1.132-.188 2.044-.541 2.657-.354.614-.496.779-.496.779zm-.35 17.233s-1.405-1.75-2.985-3.282-3.424-3.593-3.566-4.938.207-1.94.584-2.293.755-.62.755-.62 1.314 1.726 2.807 3.208c1.446 1.437 3.277 3.357 3.442 4.49.165 1.131-.188 2.044-.541 2.657s-.496.778-.496.778zm.118-29.072s-1.405-1.749-2.985-3.282-3.424-3.593-3.566-4.937.207-1.94.584-2.294.755-.62.755-.62 1.314 1.726 2.806 3.208c1.447 1.437 3.278 3.357 3.443 4.49.165 1.131-.188 2.044-.541 2.657s-.496.778-.496.778zm.017-5.887s-1.405-1.75-2.986-3.282c-1.58-1.534-3.424-3.593-3.565-4.938s.206-1.94.584-2.294c.377-.353.754-.619.754-.619S24.29-1.214 25.783.27c1.446 1.437 3.277 3.357 3.443 4.489s-.188 2.045-.542 2.658c-.353.613-.495.778-.495.778zm.215-5.709S27 .735 25.42-.797s-3.424-3.593-3.566-4.938.207-1.94.584-2.293.755-.62.755-.62S24.507-6.922 26-5.44c1.446 1.437 3.277 3.357 3.442 4.489s-.188 2.045-.541 2.658-.496.778-.496.778zm-.35 17.234s-1.405-1.75-2.985-3.283-3.424-3.593-3.566-4.937.207-1.94.584-2.294.755-.62.755-.62 1.314 1.726 2.807 3.209c1.446 1.436 3.277 3.356 3.442 4.488s-.188 2.045-.541 2.658c-.354.614-.496.779-.496.779zm.118-29.187s-1.405-1.75-2.985-3.283-3.424-3.592-3.566-4.937c-.141-1.344.207-1.94.584-2.294.377-.353.755-.619.755-.619s1.314 1.725 2.806 3.208c1.447 1.436 3.278 3.357 3.443 4.489s-.188 2.044-.541 2.658-.496.778-.496.778zm.017-5.887s-1.405-1.75-2.986-3.283c-1.58-1.533-3.424-3.593-3.565-4.937s.206-1.94.584-2.294c.377-.354.754-.62.754-.62s1.314 1.726 2.807 3.209c1.446 1.436 3.277 3.356 3.443 4.488s-.188 2.045-.542 2.658c-.353.614-.495.779-.495.779zm.215-5.709S27-22.814 25.42-24.347s-3.424-3.593-3.566-4.937.207-1.94.584-2.294.755-.619.755-.619 1.314 1.725 2.807 3.208c1.446 1.436 3.277 3.356 3.442 4.489.165 1.132-.188 2.044-.541 2.657-.354.614-.496.779-.496.779zm-.35 17.234S26.65-5.58 25.07-7.114s-3.424-3.593-3.566-4.938.207-1.94.584-2.293.755-.62.755-.62 1.314 1.726 2.807 3.208c1.446 1.437 3.277 3.357 3.442 4.489s-.188 2.045-.541 2.658-.496.778-.496.778zm.135-23.218s-1.405-1.75-2.986-3.283c-1.58-1.533-3.424-3.593-3.565-4.937s.206-1.94.584-2.294c.377-.354.754-.62.754-.62s1.314 1.726 2.807 3.209c1.446 1.436 3.277 3.356 3.443 4.489.165 1.132-.188 2.044-.542 2.657-.353.614-.495.779-.495.779zm.215-5.709S27-34.507 25.42-36.04s-3.424-3.593-3.566-4.937.207-1.94.584-2.294.755-.619.755-.619 1.314 1.725 2.807 3.208c1.446 1.436 3.277 3.356 3.442 4.489.165 1.132-.188 2.044-.541 2.657-.354.614-.496.779-.496.779zm-.232-11.839s-1.405-1.749-2.985-3.282-3.424-3.593-3.566-4.937.207-1.94.584-2.294.755-.62.755-.62 1.314 1.726 2.806 3.208c1.447 1.437 3.278 3.357 3.443 4.49.165 1.131-.188 2.044-.541 2.657s-.496.778-.496.778zm.017-5.887s-1.405-1.75-2.986-3.282c-1.58-1.534-3.424-3.593-3.565-4.938s.206-1.94.584-2.294c.377-.353.754-.619.754-.619s1.314 1.725 2.807 3.208c1.446 1.437 3.277 3.357 3.443 4.489s-.188 2.045-.542 2.658c-.353.613-.495.778-.495.778zm.215-5.709S27-57.942 25.42-59.474s-3.424-3.593-3.566-4.938.207-1.94.584-2.293.755-.62.755-.62 1.314 1.726 2.807 3.208c1.446 1.437 3.277 3.357 3.442 4.489s-.188 2.045-.541 2.658-.496.778-.496.778zm-.35 17.234s-1.405-1.75-2.985-3.283-3.424-3.593-3.566-4.937.207-1.94.584-2.294.755-.62.755-.62 1.314 1.726 2.807 3.209c1.446 1.436 3.277 3.356 3.442 4.488s-.188 2.045-.541 2.658c-.354.614-.496.779-.496.779zm.118-29.187s-1.405-1.75-2.985-3.283-3.424-3.592-3.566-4.937c-.141-1.344.207-1.94.584-2.294.377-.353.755-.619.755-.619s1.314 1.725 2.806 3.208c1.447 1.436 3.278 3.357 3.443 4.489s-.188 2.044-.541 2.658-.496.778-.496.778zm.017-5.887s-1.405-1.75-2.986-3.283c-1.58-1.533-3.424-3.593-3.565-4.937s.206-1.94.584-2.294c.377-.354.754-.62.754-.62s1.314 1.726 2.807 3.209c1.446 1.436 3.277 3.356 3.443 4.488s-.188 2.045-.542 2.658c-.353.614-.495.779-.495.779zm.215-5.709S27-81.491 25.42-83.024s-3.424-3.593-3.566-4.937.207-1.94.584-2.294.755-.62.755-.62 1.314 1.726 2.807 3.209c1.446 1.436 3.277 3.356 3.442 4.488s-.188 2.045-.541 2.658c-.354.614-.496.779-.496.779zm-.35 17.233s-1.405-1.75-2.985-3.282c-1.58-1.534-3.424-3.593-3.566-4.938s.207-1.94.584-2.294c.377-.353.755-.619.755-.619s1.314 1.725 2.807 3.208c1.446 1.437 3.277 3.357 3.442 4.489s-.188 2.045-.541 2.658-.496.778-.496.778z" style="display:inline;fill:#59300a;fill-opacity:1;stroke:#a3a3a3;stroke-width:.565;stroke-dasharray:none;stroke-opacity:1" transform="translate(2.704 75.378)scale(.77994)"/></g><g style="display:inline;mix-blend-mode:normal;fill:#131313;fill-opacity:1;stroke:none;stroke-opacity:1;filter:url(#b)" transform="translate(1.255 45.507)"><circle cx="24.606" cy="171.737" r="19.058" style="fill:#131313;fill-opacity:1;stroke:none;stroke-width:.8;stroke-dasharray:none;stroke-opacity:1"/></g><g style="display:inline" transform="translate(-36.672 44.565)"><circle cx="59.01" cy="170.135" r="19.058" style="fill:#5f5f5f;fill-opacity:1;stroke:#47280b;stroke-width:.8;stroke-dasharray:none;stroke-opacity:1"/><circle cx="58.915" cy="170.133" r="8.957" style="fill:#fcff43;fill-opacity:1;stroke-width:.083175"/><path d="M55.276 156.795a2.292 1.275 76.49 0 0-.483.351l.964 4.013a2.292 1.275 76.49 0 0 .59.094 2.292 1.275 76.49 0 0 .5-.38l-.953-3.972a2.292 1.275 76.49 0 0-.618-.106" style="fill:#fcff43;fill-opacity:1;stroke-width:.147523"/><path d="M58.806 153.738c-.163 0-.324.1-.47.29l-.834 6.338c.147.19 1.244.202 1.408.203.17-.002 1.1-.01 1.252-.218l-.864-6.298c-.152-.207-.32-.315-.492-.315m16.572 16.321c.003-.164-.093-.327-.28-.478l-6.315-.984c-.194.142-.231 1.24-.237 1.403-.001.171-.017 1.1.189 1.257l6.317-.714c.21-.148.322-.313.326-.484m-32.936 0c-.003-.164.093-.327.28-.478l6.315-.984c.194.142.231 1.24.236 1.403.002.171.018 1.1-.188 1.257l-6.317-.714c-.21-.148-.322-.313-.326-.484m2.054-7.963c.077-.144.24-.241.476-.284l6.007 2.183c.101.218-.395 1.198-.47 1.343-.08.15-.515.973-.77 1.011l-5.19-3.671c-.113-.231-.131-.43-.053-.582m5.874-6.14c.14-.084.33-.084.554.001l4.028 4.963c-.025.24-.955.824-1.093.91-.147.088-.942.569-1.182.47l-2.56-5.818c.021-.256.108-.436.254-.526z" style="fill:#fcff43;fill-opacity:1;stroke-width:.153675"/><path d="M48.88 160.694a2.292 1.275 40.373 0 0-.182.569l3.144 2.673a2.292 1.275 40.373 0 0 .532-.272 2.292 1.275 40.373 0 0 .18-.603l-3.111-2.645a2.292 1.275 40.373 0 0-.562.278m-3.352 6.123a2.292 1.275 8.442 0 0 .145.58l4.083.605a2.292 1.275 8.442 0 0 .307-.512 2.292 1.275 8.442 0 0-.166-.607l-4.04-.6a2.292 1.275 8.442 0 0-.33.534m17.042-10.022a1.275 2.292 13.51 0 1 .483.351l-.965 4.013a1.275 2.292 13.51 0 1-.59.094 1.275 2.292 13.51 0 1-.5-.38l.953-3.972a1.275 2.292 13.51 0 1 .619-.106" style="fill:#fcff43;fill-opacity:1;stroke-width:.147523"/><path d="M73.349 162.096c-.077-.144-.239-.241-.475-.284l-6.008 2.183c-.101.218.395 1.198.47 1.343.08.15.515.973.77 1.011l5.19-3.671c.114-.231.132-.43.053-.582m-5.874-6.14c-.14-.084-.33-.084-.554.001l-4.028 4.963c.026.24.955.824 1.093.91.147.088.943.569 1.182.47l2.56-5.818c-.02-.256-.108-.436-.253-.526" style="fill:#fcff43;fill-opacity:1;stroke-width:.153675"/><path d="M68.964 160.694a1.275 2.292 49.627 0 1 .184.569l-3.145 2.673a1.275 2.292 49.627 0 1-.532-.272 1.275 2.292 49.627 0 1-.18-.603l3.112-2.645a1.275 2.292 49.627 0 1 .561.278m3.352 6.123a1.275 2.292 81.558 0 1-.145.58l-4.083.605a1.275 2.292 81.558 0 1-.307-.512 1.275 2.292 81.558 0 1 .166-.607l4.04-.6a1.275 2.292 81.558 0 1 .33.534m-17.041 16.707a1.275 2.292 13.51 0 1-.483-.351l.964-4.014a1.275 2.292 13.51 0 1 .59-.093 1.275 2.292 13.51 0 1 .5.38l-.953 3.972a1.275 2.292 13.51 0 1-.618.106" style="fill:#fcff43;fill-opacity:1;stroke-width:.147523"/><path d="M58.806 186.58c-.163 0-.324-.1-.47-.29l-.834-6.337c.147-.19 1.244-.202 1.408-.203.17.002 1.1.009 1.252.218l-.864 6.298c-.152.207-.32.315-.492.315m-14.31-8.358c.077.144.24.241.476.284l6.007-2.184c.101-.218-.395-1.197-.47-1.342-.08-.151-.515-.973-.77-1.012l-5.19 3.672c-.113.23-.131.43-.053.582m5.874 6.139c.14.085.33.084.554 0l4.028-4.964c-.025-.239-.955-.823-1.093-.91-.147-.087-.942-.568-1.182-.47l-2.56 5.819c.021.256.108.436.254.525z" style="fill:#fcff43;fill-opacity:1;stroke-width:.153675"/><path d="M48.88 179.624a1.275 2.292 49.627 0 1-.182-.568l3.144-2.674a1.275 2.292 49.627 0 1 .532.273 1.275 2.292 49.627 0 1 .18.602l-3.111 2.646a1.275 2.292 49.627 0 1-.562-.279m-3.352-6.122a1.275 2.292 81.558 0 1 .145-.58l4.083-.606a1.275 2.292 81.558 0 1 .307.512 1.275 2.292 81.558 0 1-.166.607l-4.04.6a1.275 2.292 81.558 0 1-.33-.533m17.042 10.022a2.292 1.275 76.49 0 0 .483-.351l-.965-4.014a2.292 1.275 76.49 0 0-.59-.093 2.292 1.275 76.49 0 0-.5.38l.953 3.972a2.292 1.275 76.49 0 0 .619.106" style="fill:#fcff43;fill-opacity:1;stroke-width:.147523"/><path d="M73.349 178.223c-.077.144-.239.241-.475.284l-6.008-2.184c-.101-.218.395-1.197.47-1.342.08-.151.515-.973.77-1.012l5.19 3.672c.114.23.132.43.053.582m-5.874 6.139c-.14.085-.33.084-.554 0l-4.028-4.964c.026-.239.955-.823 1.093-.91.147-.087.943-.568 1.182-.47l2.56 5.819c-.02.256-.108.436-.253.525" style="fill:#fcff43;fill-opacity:1;stroke-width:.153675"/><path d="M68.964 179.624a2.292 1.275 40.373 0 0 .184-.568l-3.145-2.674a2.292 1.275 40.373 0 0-.532.273 2.292 1.275 40.373 0 0-.18.602l3.112 2.646a2.292 1.275 40.373 0 0 .561-.279m3.352-6.122a2.292 1.275 8.442 0 0-.145-.58l-4.083-.606a2.292 1.275 8.442 0 0-.307.512 2.292 1.275 8.442 0 0 .166.607l4.04.6a2.292 1.275 8.442 0 0 .33-.533" style="fill:#fcff43;fill-opacity:1;stroke-width:.147523"/></g></svg>