<svg xmlns="http://www.w3.org/2000/svg" width="870" height="700" viewBox="0 0 230.188 185.208"><defs><filter id="d" width="2.48" height="1.096" x="-.74" y="-.048" style="color-interpolation-filters:sRGB"><feGaussianBlur stdDeviation=".138"/></filter><filter id="c" width="1.165" height="1.037" x="-.082" y="-.019" style="color-interpolation-filters:sRGB"><feGaussianBlur stdDeviation=".176"/></filter><filter id="f" width="1.149" height="1.365" x="-.075" y="-.183" style="color-interpolation-filters:sRGB"><feGaussianBlur stdDeviation=".335"/></filter><filter id="e" width="1.328" height="1.517" x="-.164" y="-.259" style="color-interpolation-filters:sRGB"><feGaussianBlur stdDeviation=".456"/></filter><filter id="g" width="1.227" height="1.851" x="-.113" y="-.425" style="color-interpolation-filters:sRGB"><feGaussianBlur stdDeviation=".102"/></filter><filter id="h" width="1.205" height="1.249" x="-.102" y="-.124" style="color-interpolation-filters:sRGB"><feGaussianBlur stdDeviation=".057"/></filter><filter id="i" width="1.129" height="1.03" x="-.064" y="-.015" style="color-interpolation-filters:sRGB"><feGaussianBlur stdDeviation=".14"/></filter><filter id="j" width="1.102" height="1.246" x="-.051" y="-.123" style="color-interpolation-filters:sRGB"><feGaussianBlur stdDeviation=".223"/></filter><filter id="k" width="1.521" height="1.502" x="-.26" y="-.251" style="color-interpolation-filters:sRGB"><feGaussianBlur stdDeviation=".112"/></filter><filter id="l" width="1.331" height="1.341" x="-.166" y="-.17" style="color-interpolation-filters:sRGB"><feGaussianBlur stdDeviation=".089"/></filter><filter id="m" width="1.644" height="1.077" x="-.322" y="-.039" style="color-interpolation-filters:sRGB"><feGaussianBlur stdDeviation="1.346"/></filter><filter id="a" width="1.052" height="1.642" x="-.026" y="-.321" style="color-interpolation-filters:sRGB"><feGaussianBlur stdDeviation=".826"/></filter><filter id="b" width="1.052" height="1.642" x="-.026" y="-.321" style="color-interpolation-filters:sRGB"><feGaussianBlur stdDeviation=".826"/></filter></defs><g style="display:inline"><path d="M41.207 83.7s.018-2.372 1.018-2.705 9.128-.283 14.218-.181c.58.011 2.745.977.42 1.807.033.9-.446 1.58-.68 1.58H41.108z" style="display:inline;fill:#ebead0;fill-opacity:1;stroke:none;stroke-width:.746001;stroke-linecap:round;stroke-linejoin:round;paint-order:markers fill stroke" transform="translate(-4.436 -2.602)"/><path d="M106.933 119.347h17.281a.794.794 45 0 1 .794.794.713.713 141.942 0 1-.794.621h-17.281a.794.794 45 0 1-.794-.793.713.713 141.942 0 1 .794-.622" style="display:inline;fill:#421600;fill-opacity:1;stroke-width:.312999;stroke-linecap:round;stroke-linejoin:round;paint-order:markers fill stroke" transform="matrix(.845 0 0 .62775 -53.46 6.232)"/><path d="M75.431 83.7s-.018-2.372-1.018-2.705-9.128-.283-14.218-.181c-.58.011-2.745.977-.42 1.807-.033.9.446 1.58.68 1.58H75.53z" style="display:inline;fill:#ebead0;fill-opacity:1;stroke:none;stroke-width:.746001;stroke-linecap:round;stroke-linejoin:round;paint-order:markers fill stroke" transform="translate(-4.436 -2.602)"/><path d="M106.933 119.347h17.281a.794.794 45 0 1 .794.794.713.713 141.942 0 1-.794.621h-17.281a.794.794 45 0 1-.794-.793.713.713 141.942 0 1 .794-.622" style="display:inline;fill:#421600;fill-opacity:1;stroke-width:.312999;stroke-linecap:round;stroke-linejoin:round;paint-order:markers fill stroke" transform="matrix(-.845 0 0 .62775 161.275 6.182)"/><path d="M56.4 84.267s.017-2.318 1.852-2.285c1.834.034 1.884 2.335 1.884 2.335" style="display:inline;fill:none;stroke:#421600;stroke-width:.746001;stroke-linecap:round;stroke-linejoin:round;paint-order:markers fill stroke" transform="translate(-4.436 -2.602)"/></g><path d="M8.034 179.089c-2.994.374-8.045 5.238-8.045 5.238l70.72.561 5.799-6.173z" style="display:inline;mix-blend-mode:normal;fill:#252525;fill-opacity:.88235295;stroke-width:1.104;filter:url(#a)" transform="translate(1.32 -5.283)"/><path d="M146.172 173.78c-2.994.375-8.045 5.24-8.045 5.24l70.72.56 5.8-6.173z" style="display:inline;mix-blend-mode:normal;fill:#262626;fill-opacity:1;stroke-width:1.104;filter:url(#b)"/><g style="display:inline"><path d="M9.391 87.984h63.778v88.685H9.391z" style="fill:#9a6222;fill-opacity:1;stroke:#909090;stroke-width:0"/><path d="M14.8 98.328h52.959v17.081H14.8z" style="fill:#9a6222;fill-opacity:1;stroke:#523412;stroke-width:.496994;stroke-dasharray:none;stroke-opacity:1"/><path d="M120.68 163.445h12.48a.265.265 45 0 1 .265.265.236.236 142.584 0 1-.265.202h-12.48a.265.265 45 0 1-.264-.264.236.236 142.584 0 1 .265-.203z" style="fill:#f95;fill-opacity:1;stroke:#523412;stroke-width:1;stroke-dasharray:none;stroke-opacity:1;paint-order:fill markers stroke" transform="translate(-85.332 -62.97)"/><path d="M9.391 87.984h63.778v5.161H9.391z" style="fill:#6c4418;fill-opacity:1;stroke:#909090;stroke-width:0"/><path d="M72.9 87.984h5.163v85.382l-5.162 3.302z" style="fill:#6c4418;stroke:#909090;stroke-width:0"/><path d="M14.8 115.31h52.959v17.081H14.8z" style="fill:#9a6222;fill-opacity:1;stroke:#523412;stroke-width:.496994;stroke-dasharray:none;stroke-opacity:1"/><path d="M120.68 180.428h12.48a.265.265 45 0 1 .265.264.236.236 142.584 0 1-.265.203h-12.48a.265.265 45 0 1-.264-.265.236.236 142.584 0 1 .265-.202z" style="fill:#f95;fill-opacity:1;stroke:#523412;stroke-width:1;stroke-dasharray:none;stroke-opacity:1;paint-order:fill markers stroke" transform="translate(-85.332 -62.97)"/><path d="M14.8 132.292h52.959v17.081H14.8z" style="fill:#9a6222;fill-opacity:1;stroke:#523412;stroke-width:.496994;stroke-dasharray:none;stroke-opacity:1"/><path d="M120.68 197.41h12.48a.265.265 45 0 1 .265.264.236.236 142.584 0 1-.265.203h-12.48a.265.265 45 0 1-.264-.265.236.236 142.584 0 1 .265-.202z" style="fill:#f95;fill-opacity:1;stroke:#523412;stroke-width:1;stroke-dasharray:none;stroke-opacity:1;paint-order:fill markers stroke" transform="translate(-85.332 -62.97)"/><path d="M14.8 149.369h52.959v17.081H14.8z" style="fill:#9a6222;fill-opacity:1;stroke:#523412;stroke-width:.496994;stroke-dasharray:none;stroke-opacity:1"/><path d="M120.68 214.486h12.48a.265.265 45 0 1 .265.265.236.236 142.584 0 1-.265.202h-12.48a.265.265 45 0 1-.264-.264.236.236 142.584 0 1 .265-.203z" style="fill:#f95;fill-opacity:1;stroke:#523412;stroke-width:1;stroke-dasharray:none;stroke-opacity:1;paint-order:fill markers stroke" transform="translate(-85.332 -62.97)"/><path d="M14.8 98.328h52.959v17.081H14.8z" style="fill:#9a6222;fill-opacity:1;stroke:#523412;stroke-width:.496994;stroke-dasharray:none;stroke-opacity:1"/><circle cx="35.264" cy="100.683" r="1.185" style="display:inline;fill:#d0cac3;fill-opacity:1;stroke:none;stroke-width:.855233;stroke-linecap:round;stroke-linejoin:round;paint-order:markers fill stroke"/><circle cx="47.954" cy="100.683" r="1.185" style="display:inline;fill:#d0cac3;fill-opacity:1;stroke:none;stroke-width:.855233;stroke-linecap:round;stroke-linejoin:round;paint-order:markers fill stroke"/><circle cx="35.264" cy="117.642" r="1.185" style="display:inline;fill:#d0cac3;fill-opacity:1;stroke:none;stroke-width:.855233;stroke-linecap:round;stroke-linejoin:round;paint-order:markers fill stroke"/><circle cx="47.954" cy="117.642" r="1.185" style="display:inline;fill:#d0cac3;fill-opacity:1;stroke:none;stroke-width:.855233;stroke-linecap:round;stroke-linejoin:round;paint-order:markers fill stroke"/><path d="M120.68 163.445h12.48a.265.265 45 0 1 .265.265.236.236 142.584 0 1-.265.202h-12.48a.265.265 45 0 1-.264-.264.236.236 142.584 0 1 .265-.203zm0 16.983h12.48a.265.265 45 0 1 .265.264.236.236 142.584 0 1-.265.203h-12.48a.265.265 45 0 1-.264-.265.236.236 142.584 0 1 .265-.202z" style="fill:#f95;fill-opacity:1;stroke:#523412;stroke-width:1;stroke-dasharray:none;stroke-opacity:1;paint-order:fill markers stroke" transform="translate(-85.332 -62.97)"/><path d="M14.8 132.292h52.959v17.081H14.8z" style="fill:#9a6222;fill-opacity:1;stroke:#523412;stroke-width:.496994;stroke-dasharray:none;stroke-opacity:1"/><circle cx="35.264" cy="134.687" r="1.185" style="display:inline;fill:#d0cac3;fill-opacity:1;stroke:none;stroke-width:.855233;stroke-linecap:round;stroke-linejoin:round;paint-order:markers fill stroke"/><circle cx="47.954" cy="134.687" r="1.185" style="display:inline;fill:#d0cac3;fill-opacity:1;stroke:none;stroke-width:.855233;stroke-linecap:round;stroke-linejoin:round;paint-order:markers fill stroke"/><path d="M120.68 197.41h12.48a.265.265 45 0 1 .265.264.236.236 142.584 0 1-.265.203h-12.48a.265.265 45 0 1-.264-.265.236.236 142.584 0 1 .265-.202z" style="fill:#f95;fill-opacity:1;stroke:#523412;stroke-width:1;stroke-dasharray:none;stroke-opacity:1;paint-order:fill markers stroke" transform="translate(-85.332 -62.97)"/><circle cx="35.264" cy="151.732" r="1.185" style="display:inline;fill:#d0cac3;fill-opacity:1;stroke:none;stroke-width:.855233;stroke-linecap:round;stroke-linejoin:round;paint-order:markers fill stroke"/><circle cx="47.954" cy="151.732" r="1.185" style="display:inline;fill:#d0cac3;fill-opacity:1;stroke:none;stroke-width:.855233;stroke-linecap:round;stroke-linejoin:round;paint-order:markers fill stroke"/><path d="M120.68 214.486h12.48a.265.265 45 0 1 .265.265.236.236 142.584 0 1-.265.202h-12.48a.265.265 45 0 1-.264-.264.236.236 142.584 0 1 .265-.203z" style="fill:#f95;fill-opacity:1;stroke:#523412;stroke-width:1;stroke-dasharray:none;stroke-opacity:1;paint-order:fill markers stroke" transform="translate(-85.332 -62.97)"/><path d="M144.15 87.984h63.778v88.685H144.15z" style="fill:#9a6222;fill-opacity:1;stroke:#909090;stroke-width:0"/><path d="M120.68 163.445h12.48a.265.265 45 0 1 .265.265.236.236 142.584 0 1-.265.202h-12.48a.265.265 45 0 1-.264-.264.236.236 142.584 0 1 .265-.203z" style="fill:#f95;fill-opacity:1;stroke:#523412;stroke-width:1;stroke-dasharray:none;stroke-opacity:1;paint-order:fill markers stroke" transform="translate(49.427 -62.97)"/><path d="M144.15 87.984h63.778v5.161H144.15z" style="fill:#6c4418;fill-opacity:1;stroke:#909090;stroke-width:0"/><path d="M207.66 87.984h5.162v85.382l-5.162 3.302z" style="fill:#6c4418;stroke:#909090;stroke-width:0"/><path d="M149.559 115.31h52.959v17.081h-52.959z" style="fill:#9a6222;fill-opacity:1;stroke:#523412;stroke-width:.496994;stroke-dasharray:none;stroke-opacity:1"/><path d="M120.68 180.428h12.48a.265.265 45 0 1 .265.264.236.236 142.584 0 1-.265.203h-12.48a.265.265 45 0 1-.264-.265.236.236 142.584 0 1 .265-.202z" style="fill:#f95;fill-opacity:1;stroke:#523412;stroke-width:1;stroke-dasharray:none;stroke-opacity:1;paint-order:fill markers stroke" transform="translate(49.427 -62.97)"/><path d="M149.559 132.292h52.959v17.081h-52.959z" style="fill:#9a6222;fill-opacity:1;stroke:#523412;stroke-width:.496994;stroke-dasharray:none;stroke-opacity:1"/><path d="M120.68 197.41h12.48a.265.265 45 0 1 .265.264.236.236 142.584 0 1-.265.203h-12.48a.265.265 45 0 1-.264-.265.236.236 142.584 0 1 .265-.202zm0 17.076h12.48a.265.265 45 0 1 .265.265.236.236 142.584 0 1-.265.202h-12.48a.265.265 45 0 1-.264-.264.236.236 142.584 0 1 .265-.203z" style="fill:#f95;fill-opacity:1;stroke:#523412;stroke-width:1;stroke-dasharray:none;stroke-opacity:1;paint-order:fill markers stroke" transform="translate(49.427 -62.97)"/><path d="M149.559 98.328h52.959v17.081h-52.959z" style="fill:#9a6222;fill-opacity:1;stroke:#523412;stroke-width:.496994;stroke-dasharray:none;stroke-opacity:1"/><circle cx="170.108" cy="100.683" r="1.185" style="display:inline;fill:#d0cac3;fill-opacity:1;stroke:none;stroke-width:.855233;stroke-linecap:round;stroke-linejoin:round;paint-order:markers fill stroke"/><circle cx="182.797" cy="100.683" r="1.185" style="display:inline;fill:#d0cac3;fill-opacity:1;stroke:none;stroke-width:.855233;stroke-linecap:round;stroke-linejoin:round;paint-order:markers fill stroke"/><path d="M120.68 163.445h12.48a.265.265 45 0 1 .265.265.236.236 142.584 0 1-.265.202h-12.48a.265.265 45 0 1-.264-.264.236.236 142.584 0 1 .265-.203z" style="fill:#f95;fill-opacity:1;stroke:#523412;stroke-width:1;stroke-dasharray:none;stroke-opacity:1;paint-order:fill markers stroke" transform="translate(49.427 -62.97)"/><path d="M149.559 115.31h52.959v17.081h-52.959z" style="fill:#9a6222;fill-opacity:1;stroke:#523412;stroke-width:.496994;stroke-dasharray:none;stroke-opacity:1"/><circle cx="170.108" cy="117.642" r="1.185" style="display:inline;fill:#d0cac3;fill-opacity:1;stroke:none;stroke-width:.855233;stroke-linecap:round;stroke-linejoin:round;paint-order:markers fill stroke"/><circle cx="182.797" cy="117.642" r="1.185" style="display:inline;fill:#d0cac3;fill-opacity:1;stroke:none;stroke-width:.855233;stroke-linecap:round;stroke-linejoin:round;paint-order:markers fill stroke"/><path d="M120.68 180.428h12.48a.265.265 45 0 1 .265.264.236.236 142.584 0 1-.265.203h-12.48a.265.265 45 0 1-.264-.265.236.236 142.584 0 1 .265-.202z" style="fill:#f95;fill-opacity:1;stroke:#523412;stroke-width:1;stroke-dasharray:none;stroke-opacity:1;paint-order:fill markers stroke" transform="translate(49.427 -62.97)"/><path d="M149.559 132.292h52.959v17.081h-52.959z" style="fill:#9a6222;fill-opacity:1;stroke:#523412;stroke-width:.496994;stroke-dasharray:none;stroke-opacity:1"/><circle cx="170.108" cy="134.687" r="1.185" style="display:inline;fill:#d0cac3;fill-opacity:1;stroke:none;stroke-width:.855233;stroke-linecap:round;stroke-linejoin:round;paint-order:markers fill stroke"/><circle cx="182.797" cy="134.687" r="1.185" style="display:inline;fill:#d0cac3;fill-opacity:1;stroke:none;stroke-width:.855233;stroke-linecap:round;stroke-linejoin:round;paint-order:markers fill stroke"/><path d="M120.68 197.41h12.48a.265.265 45 0 1 .265.264.236.236 142.584 0 1-.265.203h-12.48a.265.265 45 0 1-.264-.265.236.236 142.584 0 1 .265-.202z" style="fill:#f95;fill-opacity:1;stroke:#523412;stroke-width:1;stroke-dasharray:none;stroke-opacity:1;paint-order:fill markers stroke" transform="translate(49.427 -62.97)"/><path d="M149.559 149.369h52.959v17.081h-52.959z" style="fill:#9a6222;fill-opacity:1;stroke:#523412;stroke-width:.496994;stroke-dasharray:none;stroke-opacity:1"/><circle cx="170.108" cy="151.732" r="1.185" style="display:inline;fill:#d0cac3;fill-opacity:1;stroke:none;stroke-width:.855233;stroke-linecap:round;stroke-linejoin:round;paint-order:markers fill stroke"/><circle cx="182.797" cy="151.732" r="1.185" style="display:inline;fill:#d0cac3;fill-opacity:1;stroke:none;stroke-width:.855233;stroke-linecap:round;stroke-linejoin:round;paint-order:markers fill stroke"/><path d="M120.68 214.486h12.48a.265.265 45 0 1 .265.265.236.236 142.584 0 1-.265.202h-12.48a.265.265 45 0 1-.264-.264.236.236 142.584 0 1 .265-.203z" style="fill:#f95;fill-opacity:1;stroke:#523412;stroke-width:1;stroke-dasharray:none;stroke-opacity:1;paint-order:fill markers stroke" transform="translate(49.427 -62.97)"/><path d="M72.904 87.984h5.165v3.132l-5.165 2.028zm134.732 0h5.164v3.132l-5.164 2.028z" style="display:inline;fill:#3e270e;stroke:#909090;stroke-width:0"/><path d="M89.821 141.141h208.307a2.646 2.646 45 0 1 2.646 2.646v4.52a2.646 2.646 135 0 1-2.646 2.646H89.821a2.646 2.646 45 0 1-2.646-2.646v-4.52a2.646 2.646 135 0 1 2.646-2.646" style="display:inline;fill:#9a6222;fill-opacity:1;stroke:none;stroke-width:.7;stroke-linecap:round;stroke-linejoin:round;stroke-miterlimit:4;stroke-dasharray:none;paint-order:markers fill stroke" transform="matrix(1.01 0 0 .64645 -84.336 -9.175)"/></g><g style="display:inline"><path d="M154.795-12.796h25.217l11.475 28.42h-48.033z" style="fill:#f6f3ca;fill-opacity:1;stroke-width:1.64723;stroke-linecap:round;stroke-linejoin:round;paint-order:markers fill stroke" transform="translate(16.982 24.308)"/><path d="M165.656 16.764h3.491v7.483h-3.491z" style="fill:#423c2f;fill-opacity:1;stroke:none;stroke-width:1.55028;stroke-linecap:round;stroke-linejoin:round;stroke-miterlimit:4;stroke-dasharray:none;stroke-opacity:1;paint-order:markers fill stroke" transform="translate(16.982 24.308)"/><path d="M154.62-13.23h25.557l.515 2.102h-26.58z" style="fill:#69432a;stroke-width:1.92639;stroke-linecap:round;stroke-linejoin:round;paint-order:markers fill stroke" transform="translate(16.982 24.308)"/><path d="M154.384-12.162h26.067" style="fill:none;stroke:#fff;stroke-width:.417602;stroke-linecap:round;stroke-linejoin:round;stroke-dasharray:none;stroke-opacity:1;paint-order:markers fill stroke" transform="translate(16.982 24.308)"/><path d="M143.75 14.856h47.469l.955 2.102h-49.37z" style="fill:#69432a;stroke-width:2.62542;stroke-linecap:round;stroke-linejoin:round;paint-order:markers fill stroke" transform="translate(16.982 24.308)"/><path d="M143.41 15.924h48.319" style="fill:none;stroke:#fff;stroke-width:.56855;stroke-linecap:round;stroke-linejoin:round;stroke-dasharray:none;stroke-opacity:1;paint-order:markers fill stroke" transform="translate(16.982 24.308)"/><path d="M166.467 24.835c-1.2-.007-3.112.254-3.059 1.996.08 2.586 1.668 2.435 2.068 3.036.4.6 1.002 1.726.267 3.902-.867 2.569-2.902 5.43-1.835 9.54.673 2.59 1.608 4.076 3.477 4.164v.002h.016v-.002c1.87-.088 2.805-1.575 3.477-4.164 1.067-4.11-.967-6.971-1.835-9.54-.734-2.176-.133-3.302.267-3.902s1.989-.45 2.068-3.036c.077-2.501-3.882-1.951-3.985-1.937-.03-.004-.403-.056-.926-.06z" style="fill:#423c2f;fill-opacity:1;stroke:none;stroke-width:.312999;stroke-linecap:round;stroke-linejoin:round;stroke-dasharray:none;stroke-opacity:1;paint-order:markers fill stroke" transform="translate(16.982 24.308)"/><path d="M165.656 46.292h3.491v5.327h-3.491z" style="fill:#423c2f;fill-opacity:1;stroke:none;stroke-width:1.308;stroke-linecap:round;stroke-linejoin:round;stroke-miterlimit:4;stroke-dasharray:none;stroke-opacity:1;paint-order:markers fill stroke" transform="translate(16.982 24.308)"/><path d="M167.236 52.74a16.299 8.89 0 0 0-14.276 4.623h28.572a16.299 8.89 0 0 0-14.296-4.623" style="fill:#423c2f;fill-opacity:1;stroke:none;stroke-width:.251159;stroke-linecap:round;stroke-linejoin:round;stroke-dasharray:none;stroke-opacity:1;paint-order:markers fill stroke" transform="translate(16.982 24.308)"/><path d="M279.487 135.826h4.68a.53.53 45 0 1 .528.53v.309a.53.53 135 0 1-.529.53h-4.679a.53.53 45 0 1-.529-.53v-.31a.53.53 135 0 1 .53-.529" style="fill:#423c2f;fill-opacity:1;stroke:none;stroke-width:.312999;stroke-linecap:round;stroke-linejoin:round;stroke-dasharray:none;stroke-opacity:1;paint-order:markers fill stroke" transform="matrix(1 0 0 1.46341 -97.474 -123.048)"/><path d="M279.487 135.826h4.68a.53.53 45 0 1 .528.53v.309a.53.53 135 0 1-.529.53h-4.679a.53.53 45 0 1-.529-.53v-.31a.53.53 135 0 1 .53-.529" style="fill:#423c2f;fill-opacity:1;stroke:none;stroke-width:.312999;stroke-linecap:round;stroke-linejoin:round;stroke-dasharray:none;stroke-opacity:1;paint-order:markers fill stroke" transform="translate(-97.474 -87.556)"/><path d="M266.98 140.43h29.626a.265.265 45 0 1 .264.264v.172a.265.265 135 0 1-.264.264H266.98a.265.265 45 0 1-.265-.264v-.172a.265.265 135 0 1 .265-.264" style="fill:#423c2f;fill-opacity:1;stroke:none;stroke-width:.312999;stroke-linecap:round;stroke-linejoin:round;stroke-dasharray:none;stroke-opacity:1;paint-order:markers fill stroke" transform="matrix(.9459 0 0 1 -82.287 -59.124)"/><path d="M167.788 24.833q-.115 0-.22.004c1.194.029 2.87.356 2.82 1.994-.079 2.586-1.668 2.435-2.068 3.035s-1.002 1.726-.267 3.903c.868 2.569 2.902 5.43 1.835 9.54-.649 2.498-1.545 3.966-3.285 4.145q.094.013.192.019v.002h.016v-.002c1.869-.088 2.804-1.575 3.477-4.164 1.067-4.11-.967-6.971-1.835-9.54-.735-2.177-.133-3.302.267-3.903.4-.6 1.989-.449 2.068-3.035.053-1.72-1.802-1.997-3-1.998m-1.911.002c-.064 0-.137.004-.205.005.414.013.705.051.731.055.013-.002.086-.012.192-.023a7 7 0 0 0-.718-.037" style="mix-blend-mode:normal;fill:#8d8d8d;fill-opacity:1;stroke:none;stroke-width:.312999;stroke-linecap:round;stroke-linejoin:round;stroke-dasharray:none;stroke-opacity:1;paint-order:markers fill stroke;filter:url(#c)" transform="translate(16.982 24.308)"/><path d="M168.038 16.959h.448v6.887h-.448z" style="fill:#8d8d8d;stroke:none;stroke-width:.312999;stroke-linecap:round;stroke-linejoin:round;stroke-opacity:1;paint-order:markers fill stroke;filter:url(#d)" transform="translate(16.982 24.308)"/><path d="M282.494 128.69h.448v6.887h-.448z" style="fill:#8d8d8d;stroke:none;stroke-width:.312999;stroke-linecap:round;stroke-linejoin:round;stroke-opacity:1;paint-order:markers fill stroke;filter:url(#d)" transform="matrix(1 0 0 .6289 -97.474 -9.471)"/><path d="M164.521 52.974c-2.807.99-4.977 2.147-5.708 2.854s-.961 1.379-.961 1.379h2.11s1.117-1.701 2.752-2.802 1.807-1.43 1.807-1.43" style="display:inline;fill:#525252;fill-opacity:1;stroke:none;stroke-width:.312999;stroke-linecap:round;stroke-linejoin:round;stroke-opacity:1;paint-order:markers fill stroke;filter:url(#e)" transform="translate(16.982 24.308)"/><path d="M168.696 53.28s6.203 1.062 8.42 2.69a197 197 0 0 0 2.359 1.722h-4.41s-.732-1.015-2.36-2.052-4.009-2.36-4.009-2.36" style="fill:#8c8c8c;fill-opacity:1;stroke:none;stroke-width:.312999;stroke-linecap:round;stroke-linejoin:round;stroke-opacity:1;paint-order:markers fill stroke;filter:url(#f)" transform="translate(16.982 24.308)"/><path d="m168.076 24.066 1.852.033s.433.367.283.517-.25-.367-.884-.35-1.25-.2-1.25-.2" style="fill:#7c7c7c;fill-opacity:1;stroke:none;stroke-width:.312999;stroke-linecap:round;stroke-linejoin:round;stroke-opacity:1;paint-order:markers fill stroke;filter:url(#g)" transform="translate(16.982 24.308)"/><path d="M168.868 51.535c.951-.084.968-.117 1.118.1s.2 1.159.158.884c-.041-.275.092-.617-.342-.767-.433-.15-1.059-.008-.967-.1s.025-.117.033-.117" style="fill:#7c7c7c;fill-opacity:1;stroke:none;stroke-width:.312999;stroke-linecap:round;stroke-linejoin:round;stroke-opacity:1;paint-order:markers fill stroke;filter:url(#h)" transform="translate(16.982 24.308)"/><path d="M168.662 24.833a8 8 0 0 0-.712.033c.144.013.246.027.26.029.026-.004.3-.042.694-.056q-.125-.005-.242-.006m-1.912.002c-1.2-.007-3.112.254-3.059 1.996.08 2.587 1.668 2.435 2.069 3.036.4.6 1.001 1.726.266 3.902-.867 2.569-2.902 5.43-1.834 9.54.672 2.59 1.608 4.077 3.476 4.164v.002h.016v-.002c.09-.004.175-.015.26-.025-1.697-.21-2.578-1.673-3.219-4.139-1.067-4.11.968-6.971 1.835-9.54.735-2.176.134-3.302-.267-3.902-.4-.6-1.989-.45-2.068-3.036-.05-1.615 1.585-1.953 2.78-1.99-.081-.002-.162-.005-.254-.006z" style="mix-blend-mode:normal;fill:#2a261e;fill-opacity:1;stroke:none;stroke-width:.312999;stroke-linecap:round;stroke-linejoin:round;stroke-dasharray:none;stroke-opacity:1;paint-order:markers fill stroke;filter:url(#i)" transform="translate(16.982 24.308)"/><path d="M282.494 128.69h.448v6.887h-.448z" style="fill:#2a271e;fill-opacity:.921569;stroke:none;stroke-width:.312999;stroke-linecap:round;stroke-linejoin:round;stroke-opacity:1;paint-order:markers fill stroke;filter:url(#d)" transform="matrix(1 0 0 .6289 -99.456 -9.471)"/><path d="M282.494 128.69h.448v6.887h-.448z" style="fill:#2a271e;fill-opacity:.921569;stroke:none;stroke-width:.312999;stroke-linecap:round;stroke-linejoin:round;stroke-opacity:1;paint-order:markers fill stroke;filter:url(#d)" transform="matrix(1 0 0 .95582 -99.456 -81.254)"/><path d="M164.521 52.762c-2.547.425-5.896 1.415-7.406 2.17s-3.113 2.17-3.113 2.17h1.792s2.029-1.651 4.482-2.689a72 72 0 0 1 4.245-1.651" style="fill:#2a271e;fill-opacity:.921569;stroke-width:.312999;stroke-linecap:round;stroke-linejoin:round;paint-order:markers fill stroke;filter:url(#j)" transform="translate(16.982 24.308)"/><path d="M165.653 24.128c-.495-.024-.802-.26-.92.118-.117.377-.165 1.085 0 .778.166-.306-.047-.236.213-.424.26-.189-.095-.142.33-.283.424-.142.377-.189.377-.189" style="fill:#2a271e;fill-opacity:.921569;stroke-width:.312999;stroke-linecap:round;stroke-linejoin:round;paint-order:markers fill stroke;filter:url(#k)" transform="translate(16.982 24.308)"/><path d="M165.89 51.547c-.343.024-.744-.141-.92-.023-.178.118-.413.46-.354.766.058.307.058.496.058.425s-.011-.248.213-.496c.224-.247.684-.483.86-.518.178-.036.142-.154.142-.154" style="fill:#2a271e;fill-opacity:.921569;stroke-width:.312999;stroke-linecap:round;stroke-linejoin:round;paint-order:markers fill stroke;filter:url(#l)" transform="translate(16.982 24.308)"/><path d="m154.809-11.204 1.097.184-10.434 25.878-.471.005zm2.601 0 1.38.137-9.721 25.924-.743-.002zm2.734.092 1.206-.05-9.298 26.02-.705-.004zm2.449 0 1.277-.002-7.039 25.972-.705-.004zm1.935 0 1.276-.002-4.703 25.972-.706-.004zm2.252 0 1.277-.002-3.012 25.972-.705-.004zm3.076 0-1.276-.002 2.063 25.972.705-.004zm10.264-.092-1.096.184 10.433 25.878.472.005zm-2.061 0-1.38.137 9.722 25.924.742-.002zm-2.557.092-1.14-.05 6.763 26.02.706-.004zm-2.822 0-1.277-.002 4.503 25.972.706-.004z" style="fill:#d0ca8d;fill-opacity:1;stroke-width:.312999;stroke-linecap:round;stroke-linejoin:round;paint-order:markers fill stroke" transform="translate(16.982 24.308)"/><path d="M1021.25 412.565s9.45 2.14 6.597 9.271-4.457 11.054-5.17 11.768c-.713.713-2.318 5.705-.713 12.836s4.635 16.582 5.705 18.9 1.961 9.27-.713 17.828-7.132 13.194-7.132 13.194 3.922-4.636 5.17-14.442c1.249-9.806 1.07-16.046-2.495-25.317s-5.35-14.442-2.14-23.178 8.736-9.27 6.062-13.728c-2.674-4.457-5.17-7.132-5.17-7.132" style="mix-blend-mode:normal;fill:#747372;fill-opacity:.940959;stroke-width:1.18299;stroke-linecap:round;stroke-linejoin:round;paint-order:markers fill stroke;filter:url(#m)" transform="matrix(.25314 0 0 .26458 -73.83 -59.967)"/></g><g style="display:inline"><path d="m56.97 110.209.875-1.995.862 2.017z" style="fill:#fffcda;fill-opacity:1;fill-rule:nonzero;stroke:none;stroke-width:2;stroke-linecap:round;stroke-linejoin:round;stroke-miterlimit:4;stroke-dasharray:none;stroke-opacity:1;paint-order:markers fill stroke" transform="translate(-36.998 -53.831)scale(1.03955)"/><path d="m7.261 41.653-.373.852h.737z" style="fill:#6f7003;fill-opacity:1;stroke:none;stroke-width:2.5028;stroke-linecap:round;stroke-linejoin:round;stroke-miterlimit:4;stroke-dasharray:none;stroke-opacity:1;paint-order:markers fill stroke" transform="translate(17.103 24.062)scale(.8307)"/><path d="M6.169 44.149H8.34v16.809H6.169z" style="fill:#6f7003;fill-opacity:1;stroke:none;stroke-width:1.90924;stroke-linecap:round;stroke-linejoin:round;stroke-miterlimit:4;stroke-dasharray:none;stroke-opacity:1;paint-order:markers fill stroke" transform="translate(17.103 24.062)scale(.8307)"/></g><path d="m56.97 110.209.875-1.995.862 2.017z" style="fill:#fffcda;fill-opacity:1;fill-rule:nonzero;stroke:none;stroke-width:2;stroke-linecap:round;stroke-linejoin:round;stroke-miterlimit:4;stroke-dasharray:none;stroke-opacity:1;paint-order:markers fill stroke" transform="rotate(4.456 728.568 -351.264)scale(1.03955)"/><path d="m2.036 49.956-.374.853H2.4z" style="fill:#7c2603;fill-opacity:1;stroke:none;stroke-width:2.5028;stroke-linecap:round;stroke-linejoin:round;stroke-miterlimit:4;stroke-dasharray:none;stroke-opacity:1;paint-order:markers fill stroke" transform="rotate(4.458 -213.047 364.315)scale(.83071)"/><path d="M.944 52.452h2.171v16.809H.944z" style="fill:#7c2603;fill-opacity:1;stroke:none;stroke-width:1.90924;stroke-linecap:round;stroke-linejoin:round;stroke-miterlimit:4;stroke-dasharray:none;stroke-opacity:1;paint-order:markers fill stroke" transform="rotate(4.458 -213.047 364.315)scale(.83071)"/><path d="m56.97 110.209.875-1.995.862 2.017z" style="fill:#fffcda;fill-opacity:1;fill-rule:nonzero;stroke:none;stroke-width:2;stroke-linecap:round;stroke-linejoin:round;stroke-miterlimit:4;stroke-dasharray:none;stroke-opacity:1;paint-order:markers fill stroke" transform="rotate(-8.273 -313.524 363.26)scale(1.03955)"/><path d="M-13.646 48.925h2.171v16.809h-2.171z" style="fill:#05a897;fill-opacity:1;stroke:none;stroke-width:1.90924;stroke-linecap:round;stroke-linejoin:round;stroke-miterlimit:4;stroke-dasharray:none;stroke-opacity:1;paint-order:markers fill stroke" transform="rotate(-8.274 162.276 -161.526)scale(.83071)"/><path d="m-5.743 47.753-.247.897.73-.106z" style="fill:#05a897;fill-opacity:1;stroke:none;stroke-width:2.5028;stroke-linecap:round;stroke-linejoin:round;stroke-miterlimit:4;stroke-dasharray:none;stroke-opacity:1;paint-order:markers fill stroke" transform="translate(24.931 21.669)scale(.8307)"/><path d="m56.97 110.209.875-1.995.862 2.017z" style="fill:#fffcda;fill-opacity:1;fill-rule:nonzero;stroke:none;stroke-width:2;stroke-linecap:round;stroke-linejoin:round;stroke-miterlimit:4;stroke-dasharray:none;stroke-opacity:1;paint-order:markers fill stroke" transform="matrix(.95521 .41015 -.41015 .95521 19.62 -64.225)"/><path d="m-12.429 88.51-.374.852h.738z" style="fill:#46215e;fill-opacity:1;stroke:none;stroke-width:2.5028;stroke-linecap:round;stroke-linejoin:round;stroke-miterlimit:4;stroke-dasharray:none;stroke-opacity:1;paint-order:markers fill stroke" transform="rotate(23.238 36 167.448)scale(.83071)"/><path d="M-13.521 91.006h2.171v16.809h-2.171z" style="fill:#46215e;fill-opacity:1;stroke:none;stroke-width:1.90924;stroke-linecap:round;stroke-linejoin:round;stroke-miterlimit:4;stroke-dasharray:none;stroke-opacity:1;paint-order:markers fill stroke" transform="rotate(23.238 36 167.448)scale(.83071)"/><g style="display:inline"><path d="M18.403 69.963h11.452l-1.489 12.053h-8.302z" style="fill:#f1f1f1;fill-opacity:1;stroke-width:1.32367;stroke-linecap:round;stroke-linejoin:round;paint-order:markers fill stroke"/><path d="M114.138 127.554h11.588a.794.794 45 0 1 .794.794.77.77 136.983 0 1-.794.74h-11.588a.794.794 45 0 1-.794-.793.77.77 136.983 0 1 .794-.74" style="fill:#f1f1f1;fill-opacity:1;stroke:none;stroke-width:2;stroke-linecap:round;stroke-linejoin:round;stroke-miterlimit:4;stroke-dasharray:none;stroke-opacity:1;paint-order:markers fill stroke" transform="matrix(.99821 0 0 1 -95.552 -59.125)"/><path d="M114.138 127.554h11.588a.794.794 45 0 1 .794.794.77.77 136.983 0 1-.794.74h-11.588a.794.794 45 0 1-.794-.793.77.77 136.983 0 1 .794-.74" style="fill:#949494;fill-opacity:1;stroke:none;stroke-width:2;stroke-linecap:round;stroke-linejoin:round;stroke-miterlimit:4;stroke-dasharray:none;stroke-opacity:1;paint-order:markers fill stroke" transform="matrix(.87163 0 0 .1038 -80.42 56.64)"/><path d="m27.14 69.963-.713 12.053h1.94l1.488-12.053z" style="fill:#cecece;fill-opacity:1;stroke-width:2;stroke-linecap:round;stroke-linejoin:round;paint-order:markers fill stroke"/><path d="m27.233 68.433-.09 1.535h2.808a.766.768 0 0 0 .793-.741.792.794 0 0 0-.793-.794z" style="fill:#cecece;fill-opacity:1;stroke-width:2;stroke-linecap:round;stroke-linejoin:round;paint-order:markers fill stroke"/><path d="m27.133 69.88-.01.159h2.043a.67.08 0 0 0 .692-.077.692.082 0 0 0-.692-.083z" style="fill:#949494;fill-opacity:1;stroke-width:2;stroke-linecap:round;stroke-linejoin:round;paint-order:markers fill stroke"/></g><g style="display:inline" transform="translate(9.435 3.585)"><path d="M153.95 54.437h93.442a2.646 2.646 45 0 1 2.646 2.646v52.882a2.646 2.646 135 0 1-2.646 2.646H153.95a2.646 2.646 45 0 1-2.646-2.646V57.083a2.646 2.646 135 0 1 2.646-2.646" style="fill:#17b7b9;fill-opacity:1;stroke:#000;stroke-width:2;stroke-linecap:round;stroke-linejoin:round;stroke-miterlimit:4;stroke-dasharray:none;stroke-opacity:1;paint-order:markers fill stroke" transform="translate(-108.452 -47.543)"/><path d="M83.304 61.913h19.247v14.975H83.304z" style="fill:#fff;fill-opacity:1;stroke:none;stroke-width:.602301;stroke-linecap:round;stroke-linejoin:round;stroke-miterlimit:4;stroke-dasharray:none;stroke-opacity:1;paint-order:markers fill stroke"/><path d="M42.852 55.747v6.675a2.646 2.646 0 0 0 2.645 2.646h93.443a2.646 2.646 0 0 0 2.646-2.646v-6.675Z" style="fill:#fff;fill-opacity:1;stroke:#fff;stroke-width:2;stroke-linecap:round;stroke-linejoin:round;stroke-miterlimit:4;stroke-dasharray:none;stroke-opacity:1;paint-order:markers fill stroke"/><circle cx="93.15" cy="60.052" r="1.384" style="fill:#000;fill-opacity:1;stroke:none;stroke-width:.771867;stroke-linecap:round;stroke-linejoin:round;stroke-miterlimit:4;stroke-dasharray:none;stroke-opacity:1;paint-order:markers fill stroke"/><path d="M181.994 132.65h37.423a1.06 1.06 45 0 1 1.059 1.059v1.195a1.06 1.06 135 0 1-1.059 1.059h-37.423a1.06 1.06 45 0 1-1.059-1.059v-1.195a1.06 1.06 135 0 1 1.059-1.058" style="fill:#fff;fill-opacity:1;stroke:none;stroke-width:.406;stroke-linecap:round;stroke-linejoin:round;stroke-miterlimit:4;stroke-dasharray:none;stroke-opacity:1;paint-order:markers fill stroke" transform="matrix(1 0 0 .60058 -107.652 -3.222)"/><path d="M58.729 14.233h67.113v35.891H58.729z" style="fill:#fff;fill-opacity:1;stroke:none;stroke-width:2;stroke-linecap:round;stroke-linejoin:round;stroke-miterlimit:4;stroke-dasharray:none;stroke-opacity:1;paint-order:markers fill stroke"/><path d="M58.729 14.233h67.113v3.202H58.729z" style="fill:#626262;fill-opacity:1;stroke:none;stroke-width:.597392;stroke-linecap:round;stroke-linejoin:round;stroke-miterlimit:4;stroke-dasharray:none;stroke-opacity:1;paint-order:markers fill stroke"/><path d="M83.304 66.043h19.247v2.83H83.304z" style="fill:#cecece;fill-opacity:1;stroke:none;stroke-width:.261851;stroke-linecap:round;stroke-linejoin:round;stroke-miterlimit:4;stroke-dasharray:none;stroke-opacity:1;paint-order:markers fill stroke"/><path d="M181.994 132.65h37.423a1.06 1.06 45 0 1 1.059 1.059v1.195a1.06 1.06 135 0 1-1.059 1.059h-37.423a1.06 1.06 45 0 1-1.059-1.059v-1.195a1.06 1.06 135 0 1 1.059-1.058" style="fill:#cecece;fill-opacity:1;stroke:none;stroke-width:.406;stroke-linecap:round;stroke-linejoin:round;stroke-miterlimit:4;stroke-dasharray:none;stroke-opacity:1;paint-order:markers fill stroke" transform="matrix(.80196 0 0 .60058 -71.819 -3.222)"/><circle cx="60.647" cy="15.892" r=".717" style="fill:#db2b2b;fill-opacity:1;stroke:none;stroke-width:2;stroke-linecap:round;stroke-linejoin:round;stroke-miterlimit:4;stroke-dasharray:none;stroke-opacity:1;paint-order:markers fill stroke"/><circle cx="62.615" cy="15.892" r=".717" style="fill:#979c1a;fill-opacity:1;stroke:none;stroke-width:2;stroke-linecap:round;stroke-linejoin:round;stroke-miterlimit:4;stroke-dasharray:none;stroke-opacity:1;paint-order:markers fill stroke"/><circle cx="64.583" cy="15.892" r=".717" style="fill:#43a92c;fill-opacity:1;stroke:none;stroke-width:2;stroke-linecap:round;stroke-linejoin:round;stroke-miterlimit:4;stroke-dasharray:none;stroke-opacity:1;paint-order:markers fill stroke"/><path d="M131.098 73.919a5.186 5.186 0 0 0-5.145 4.62h10.3a5.186 5.186 0 0 0-5.155-4.62" style="fill:#cecece;fill-opacity:1;stroke:none;stroke-width:1.52692;stroke-linecap:round;stroke-linejoin:round;stroke-miterlimit:4;stroke-dasharray:none;stroke-opacity:1;paint-order:markers fill stroke"/><path d="M131.769 73.963a5.186 5.186 0 0 0-4.494 4.577h8.989a5.186 5.186 0 0 0-4.495-4.577" style="fill:#fdfdfd;fill-opacity:1;stroke:none;stroke-width:1.52692;stroke-linecap:round;stroke-linejoin:round;stroke-miterlimit:4;stroke-dasharray:none;stroke-opacity:1;paint-order:markers fill stroke"/><path d="M45.497 6.894a2.646 2.646 0 0 0-2.645 2.646v38.556l77.454-40.894-.19-.308Z" style="display:inline;fill:#fff;fill-opacity:.254613;stroke:none;stroke-width:2.36641;stroke-linecap:round;stroke-linejoin:round;stroke-miterlimit:4;stroke-dasharray:none;stroke-opacity:1;paint-order:markers fill stroke"/></g></svg>