<svg xmlns="http://www.w3.org/2000/svg" width="870" height="700" viewBox="0 0 230.188 185.208"><defs><filter id="o" width="1.644" height="1.077" x="-.322" y="-.039" style="color-interpolation-filters:sRGB"><feGaussianBlur stdDeviation="1.346"/></filter><filter id="n" width="1.331" height="1.341" x="-.166" y="-.17" style="color-interpolation-filters:sRGB"><feGaussianBlur stdDeviation=".089"/></filter><filter id="l" width="1.521" height="1.502" x="-.26" y="-.251" style="color-interpolation-filters:sRGB"><feGaussianBlur stdDeviation=".112"/></filter><filter id="k" width="1.102" height="1.246" x="-.051" y="-.123" style="color-interpolation-filters:sRGB"><feGaussianBlur stdDeviation=".223"/></filter><filter id="e" width="2.48" height="1.096" x="-.74" y="-.048" style="color-interpolation-filters:sRGB"><feGaussianBlur stdDeviation=".138"/></filter><filter id="j" width="1.205" height="1.249" x="-.102" y="-.124" style="color-interpolation-filters:sRGB"><feGaussianBlur stdDeviation=".057"/></filter><filter id="i" width="1.227" height="1.851" x="-.113" y="-.425" style="color-interpolation-filters:sRGB"><feGaussianBlur stdDeviation=".102"/></filter><filter id="h" width="1.165" height="2.032" x="-.083" y="-.516" style="color-interpolation-filters:sRGB"><feGaussianBlur stdDeviation=".197"/></filter><filter id="g" width="1.149" height="1.365" x="-.075" y="-.183" style="color-interpolation-filters:sRGB"><feGaussianBlur stdDeviation=".335"/></filter><filter id="f" width="1.328" height="1.517" x="-.164" y="-.259" style="color-interpolation-filters:sRGB"><feGaussianBlur stdDeviation=".456"/></filter><filter id="d" width="1.165" height="1.037" x="-.082" y="-.019" style="color-interpolation-filters:sRGB"><feGaussianBlur stdDeviation=".176"/></filter><filter id="c" width="1.392" height="1.662" x="-.196" y="-.331" style="color-interpolation-filters:sRGB"><feGaussianBlur stdDeviation="3.919"/></filter><filter id="a" width="1.052" height="1.642" x="-.026" y="-.321" style="color-interpolation-filters:sRGB"><feGaussianBlur stdDeviation=".826"/></filter><filter id="b" width="1.052" height="1.642" x="-.026" y="-.321" style="color-interpolation-filters:sRGB"><feGaussianBlur stdDeviation=".826"/></filter></defs><g style="display:inline"><path d="M49.684 88.952s.018-2.372 1.018-2.706c1.001-.333 9.128-.282 14.218-.18.58.01 2.745.977.42 1.806.033.901-.446 1.58-.68 1.58H49.585z" style="display:inline;fill:#bbb988;fill-opacity:1;stroke:none;stroke-width:.746001;stroke-linecap:round;stroke-linejoin:round;paint-order:markers fill stroke" transform="translate(-12.915 -7.862)"/><path d="M106.933 119.347h17.281a.794.794 45 0 1 .794.794.713.713 141.942 0 1-.794.621h-17.281a.794.794 45 0 1-.794-.793.713.713 141.942 0 1 .794-.622" style="display:inline;fill:#421600;fill-opacity:1;stroke-width:.312999;stroke-linecap:round;stroke-linejoin:round;paint-order:markers fill stroke" transform="matrix(.845 0 0 .62775 -53.46 6.223)"/><path d="M83.908 88.952s-.018-2.372-1.018-2.706c-1.001-.333-9.128-.282-14.218-.18-.58.01-2.745.977-.42 1.806-.033.901.446 1.58.68 1.58h15.076z" style="display:inline;fill:#bbb988;fill-opacity:1;stroke:none;stroke-width:.746001;stroke-linecap:round;stroke-linejoin:round;paint-order:markers fill stroke" transform="translate(-12.915 -7.862)"/><path d="M106.933 119.347h17.281a.794.794 45 0 1 .794.794.713.713 141.942 0 1-.794.621h-17.281a.794.794 45 0 1-.794-.793.713.713 141.942 0 1 .794-.622" style="display:inline;fill:#421600;fill-opacity:1;stroke-width:.312999;stroke-linecap:round;stroke-linejoin:round;paint-order:markers fill stroke" transform="matrix(-.845 0 0 .62775 161.212 6.223)"/><path d="M64.878 89.519s.016-2.318 1.85-2.285 1.885 2.335 1.885 2.335" style="display:inline;fill:none;stroke:#421600;stroke-width:.746001;stroke-linecap:round;stroke-linejoin:round;paint-order:markers fill stroke" transform="translate(-12.915 -7.862)"/></g><path d="M8.034 179.089c-2.994.374-8.045 5.238-8.045 5.238l70.72.561 5.799-6.173z" style="display:inline;mix-blend-mode:normal;fill:#131313;fill-opacity:1;stroke-width:1.104;filter:url(#a)" transform="translate(1.32 -5.283)"/><path d="M146.172 173.78c-2.994.375-8.045 5.24-8.045 5.24l70.72.56 5.8-6.173z" style="display:inline;mix-blend-mode:normal;fill:#131313;fill-opacity:1;stroke-width:1.104;filter:url(#b)"/><g style="display:inline" transform="translate(1.32 -5.283)"><path d="M89.821 141.141h208.307a2.646 2.646 45 0 1 2.646 2.646v4.52a2.646 2.646 135 0 1-2.646 2.646H89.821a2.646 2.646 45 0 1-2.646-2.646v-4.52a2.646 2.646 135 0 1 2.646-2.646" style="fill:#5c3a14;fill-opacity:1;stroke:none;stroke-width:.7;stroke-linecap:round;stroke-linejoin:round;stroke-miterlimit:4;stroke-dasharray:none;paint-order:markers fill stroke" transform="matrix(1.01 0 0 .64904 -85.737 -4.29)"/><path d="M7.99 93.684h63.778v88.685H7.99z" style="fill:#5c3a14;fill-opacity:1;stroke:#909090;stroke-width:0"/><path d="M13.399 104.028h52.959v17.081H13.399z" style="fill:#9a6222;fill-opacity:1;stroke:#523412;stroke-width:.496994;stroke-dasharray:none;stroke-opacity:1"/><path d="M120.68 163.445h12.48a.265.265 45 0 1 .265.265.236.236 142.584 0 1-.265.202h-12.48a.265.265 45 0 1-.264-.264.236.236 142.584 0 1 .265-.203z" style="fill:#f95;fill-opacity:1;stroke:#523412;stroke-width:1;stroke-dasharray:none;stroke-opacity:1;paint-order:fill markers stroke" transform="translate(-86.733 -57.269)"/><path d="M7.99 93.684h63.778v5.161H7.99z" style="fill:#301e0b;fill-opacity:1;stroke:#301e0b;stroke-width:0;stroke-opacity:1"/><path d="M71.5 93.684h5.162v85.383L71.5 182.37z" style="fill:#301e0b;fill-opacity:1;stroke:#96df71;stroke-width:0;stroke-opacity:1"/><path d="M13.399 121.011h52.959v17.081H13.399z" style="fill:#5c3a14;fill-opacity:1;stroke:#301e0b;stroke-width:.496994;stroke-dasharray:none;stroke-opacity:1"/><path d="M120.68 180.428h12.48a.265.265 45 0 1 .265.264.236.236 142.584 0 1-.265.203h-12.48a.265.265 45 0 1-.264-.265.236.236 142.584 0 1 .265-.202z" style="fill:#f95;fill-opacity:1;stroke:#523412;stroke-width:1;stroke-dasharray:none;stroke-opacity:1;paint-order:fill markers stroke" transform="translate(-86.733 -57.269)"/><path d="M13.399 137.993h52.959v17.081H13.399z" style="fill:#9a6222;fill-opacity:1;stroke:#523412;stroke-width:.496994;stroke-dasharray:none;stroke-opacity:1"/><path d="M120.68 197.41h12.48a.265.265 45 0 1 .265.264.236.236 142.584 0 1-.265.203h-12.48a.265.265 45 0 1-.264-.265.236.236 142.584 0 1 .265-.202z" style="fill:#f95;fill-opacity:1;stroke:#523412;stroke-width:1;stroke-dasharray:none;stroke-opacity:1;paint-order:fill markers stroke" transform="translate(-86.733 -57.269)"/><path d="M13.399 155.069h52.959v17.081H13.399z" style="fill:#5c3a14;fill-opacity:1;stroke:#301e0b;stroke-width:.496994;stroke-dasharray:none;stroke-opacity:1"/><path d="M120.68 214.486h12.48a.265.265 45 0 1 .265.265.236.236 142.584 0 1-.265.202h-12.48a.265.265 45 0 1-.264-.264.236.236 142.584 0 1 .265-.203z" style="fill:#f95;fill-opacity:1;stroke:#523412;stroke-width:1;stroke-dasharray:none;stroke-opacity:1;paint-order:fill markers stroke" transform="translate(-86.733 -57.269)"/><path d="M13.399 104.028h52.959v17.081H13.399z" style="fill:#5c3a14;fill-opacity:1;stroke:#301e0b;stroke-width:.496994;stroke-dasharray:none;stroke-opacity:1"/><circle cx="33.802" cy="106.418" r="1.185" style="display:inline;fill:#887a6a;fill-opacity:1;stroke:none;stroke-width:.855233;stroke-linecap:round;stroke-linejoin:round;paint-order:markers fill stroke"/><circle cx="46.492" cy="106.418" r="1.185" style="display:inline;fill:#887a6a;fill-opacity:1;stroke:none;stroke-width:.855233;stroke-linecap:round;stroke-linejoin:round;paint-order:markers fill stroke"/><path d="M120.68 163.445h12.48a.265.265 45 0 1 .265.265.236.236 142.584 0 1-.265.202h-12.48a.265.265 45 0 1-.264-.264.236.236 142.584 0 1 .265-.203z" style="fill:#0b0707;fill-opacity:1;stroke:#301e0b;stroke-width:1;stroke-dasharray:none;stroke-opacity:1;paint-order:fill markers stroke" transform="translate(-86.733 -57.269)"/><circle cx="33.874" cy="123.381" r="1.185" style="display:inline;fill:#887a6a;fill-opacity:1;stroke:none;stroke-width:.855233;stroke-linecap:round;stroke-linejoin:round;paint-order:markers fill stroke"/><circle cx="46.563" cy="123.381" r="1.185" style="display:inline;fill:#887a6a;fill-opacity:1;stroke:none;stroke-width:.855233;stroke-linecap:round;stroke-linejoin:round;paint-order:markers fill stroke"/><path d="M120.68 180.428h12.48a.265.265 45 0 1 .265.264.236.236 142.584 0 1-.265.203h-12.48a.265.265 45 0 1-.264-.265.236.236 142.584 0 1 .265-.202z" style="fill:#0b0707;fill-opacity:1;stroke:#301e0b;stroke-width:1;stroke-dasharray:none;stroke-opacity:1;paint-order:fill markers stroke" transform="translate(-86.733 -57.269)"/><path d="M13.399 137.993h52.959v17.081H13.399z" style="fill:#5c3a14;fill-opacity:1;stroke:#301e0b;stroke-width:.496994;stroke-dasharray:none;stroke-opacity:1"/><circle cx="33.886" cy="140.372" r="1.185" style="display:inline;fill:#887a6a;fill-opacity:1;stroke:none;stroke-width:.855233;stroke-linecap:round;stroke-linejoin:round;paint-order:markers fill stroke"/><circle cx="46.575" cy="140.372" r="1.185" style="display:inline;fill:#887a6a;fill-opacity:1;stroke:none;stroke-width:.855233;stroke-linecap:round;stroke-linejoin:round;paint-order:markers fill stroke"/><path d="M120.68 197.41h12.48a.265.265 45 0 1 .265.264.236.236 142.584 0 1-.265.203h-12.48a.265.265 45 0 1-.264-.265.236.236 142.584 0 1 .265-.202z" style="fill:#0b0707;fill-opacity:1;stroke:#301e0b;stroke-width:1;stroke-dasharray:none;stroke-opacity:1;paint-order:fill markers stroke" transform="translate(-86.733 -57.269)"/><circle cx="33.874" cy="157.4" r="1.185" style="display:inline;fill:#887a6a;fill-opacity:1;stroke:none;stroke-width:.855233;stroke-linecap:round;stroke-linejoin:round;paint-order:markers fill stroke"/><circle cx="46.563" cy="157.4" r="1.185" style="display:inline;fill:#887a6a;fill-opacity:1;stroke:none;stroke-width:.855233;stroke-linecap:round;stroke-linejoin:round;paint-order:markers fill stroke"/><path d="M120.68 214.486h12.48a.265.265 45 0 1 .265.265.236.236 142.584 0 1-.265.202h-12.48a.265.265 45 0 1-.264-.264.236.236 142.584 0 1 .265-.203z" style="fill:#0b0707;fill-opacity:1;stroke:#301e0b;stroke-width:1;stroke-dasharray:none;stroke-opacity:1;paint-order:fill markers stroke" transform="translate(-86.733 -57.269)"/><path d="M142.749 93.684h63.778v88.685h-63.778z" style="fill:#5c3a14;fill-opacity:1;stroke:#909090;stroke-width:0"/><path d="M120.68 163.445h12.48a.265.265 45 0 1 .265.265.236.236 142.584 0 1-.265.202h-12.48a.265.265 45 0 1-.264-.264.236.236 142.584 0 1 .265-.203z" style="fill:#f95;fill-opacity:1;stroke:#523412;stroke-width:1;stroke-dasharray:none;stroke-opacity:1;paint-order:fill markers stroke" transform="translate(48.026 -57.269)"/><path d="M142.749 93.684h63.778v5.161h-63.778z" style="fill:#301e0b;fill-opacity:1;stroke:#909090;stroke-width:0"/><path d="M206.26 93.684h5.161v85.383l-5.162 3.302z" style="fill:#301e0b;fill-opacity:1;stroke:#2d2d2d;stroke-width:0;stroke-opacity:1"/><path d="M148.158 121.011h52.959v17.081h-52.959z" style="fill:#9a6222;fill-opacity:1;stroke:#523412;stroke-width:.496994;stroke-dasharray:none;stroke-opacity:1"/><path d="M120.68 180.428h12.48a.265.265 45 0 1 .265.264.236.236 142.584 0 1-.265.203h-12.48a.265.265 45 0 1-.264-.265.236.236 142.584 0 1 .265-.202z" style="fill:#f95;fill-opacity:1;stroke:#523412;stroke-width:1;stroke-dasharray:none;stroke-opacity:1;paint-order:fill markers stroke" transform="translate(48.026 -57.269)"/><path d="M148.158 137.993h52.959v17.081h-52.959z" style="fill:#9a6222;fill-opacity:1;stroke:#523412;stroke-width:.496994;stroke-dasharray:none;stroke-opacity:1"/><path d="M120.68 197.41h12.48a.265.265 45 0 1 .265.264.236.236 142.584 0 1-.265.203h-12.48a.265.265 45 0 1-.264-.265.236.236 142.584 0 1 .265-.202zm0 17.076h12.48a.265.265 45 0 1 .265.265.236.236 142.584 0 1-.265.202h-12.48a.265.265 45 0 1-.264-.264.236.236 142.584 0 1 .265-.203z" style="fill:#f95;fill-opacity:1;stroke:#523412;stroke-width:1;stroke-dasharray:none;stroke-opacity:1;paint-order:fill markers stroke" transform="translate(48.026 -57.269)"/><path d="M148.158 104.028h52.959v17.081h-52.959z" style="fill:#5c3a14;fill-opacity:1;stroke:#301e0b;stroke-width:.496994;stroke-dasharray:none;stroke-opacity:1"/><circle cx="168.596" cy="106.418" r="1.185" style="display:inline;fill:#887a6a;fill-opacity:1;stroke:none;stroke-width:.855233;stroke-linecap:round;stroke-linejoin:round;paint-order:markers fill stroke"/><circle cx="181.285" cy="106.418" r="1.185" style="display:inline;fill:#887a6a;fill-opacity:1;stroke:none;stroke-width:.855233;stroke-linecap:round;stroke-linejoin:round;paint-order:markers fill stroke"/><path d="M120.68 163.445h12.48a.265.265 45 0 1 .265.265.236.236 142.584 0 1-.265.202h-12.48a.265.265 45 0 1-.264-.264.236.236 142.584 0 1 .265-.203z" style="fill:#0b0707;fill-opacity:1;stroke:#301e0b;stroke-width:1;stroke-dasharray:none;stroke-opacity:1;paint-order:fill markers stroke" transform="translate(48.026 -57.269)"/><path d="M148.158 121.011h52.959v17.081h-52.959z" style="fill:#5c3a14;fill-opacity:1;stroke:#301e0b;stroke-width:.496994;stroke-dasharray:none;stroke-opacity:1"/><circle cx="168.576" cy="123.404" r="1.185" style="display:inline;fill:#887a6a;fill-opacity:1;stroke:none;stroke-width:.855233;stroke-linecap:round;stroke-linejoin:round;paint-order:markers fill stroke"/><circle cx="181.265" cy="123.404" r="1.185" style="display:inline;fill:#887a6a;fill-opacity:1;stroke:none;stroke-width:.855233;stroke-linecap:round;stroke-linejoin:round;paint-order:markers fill stroke"/><path d="M120.68 180.428h12.48a.265.265 45 0 1 .265.264.236.236 142.584 0 1-.265.203h-12.48a.265.265 45 0 1-.264-.265.236.236 142.584 0 1 .265-.202z" style="fill:#0b0707;fill-opacity:1;stroke:#301e0b;stroke-width:1;stroke-dasharray:none;stroke-opacity:1;paint-order:fill markers stroke" transform="translate(48.026 -57.269)"/><path d="M148.158 137.993h52.959v17.081h-52.959z" style="fill:#5c3a14;fill-opacity:1;stroke:#301e0b;stroke-width:.496994;stroke-dasharray:none;stroke-opacity:1"/><circle cx="168.576" cy="140.379" r="1.185" style="display:inline;fill:#887a6a;fill-opacity:1;stroke:none;stroke-width:.855233;stroke-linecap:round;stroke-linejoin:round;paint-order:markers fill stroke"/><circle cx="181.265" cy="140.379" r="1.185" style="display:inline;fill:#887a6a;fill-opacity:1;stroke:none;stroke-width:.855233;stroke-linecap:round;stroke-linejoin:round;paint-order:markers fill stroke"/><path d="M120.68 197.41h12.48a.265.265 45 0 1 .265.264.236.236 142.584 0 1-.265.203h-12.48a.265.265 45 0 1-.264-.265.236.236 142.584 0 1 .265-.202z" style="fill:#0b0707;fill-opacity:1;stroke:#301e0b;stroke-width:1;stroke-dasharray:none;stroke-opacity:1;paint-order:fill markers stroke" transform="translate(48.026 -57.269)"/><path d="M148.158 155.069h52.959v17.081h-52.959z" style="fill:#5c3a14;fill-opacity:1;stroke:#301e0b;stroke-width:.496994;stroke-dasharray:none;stroke-opacity:1"/><circle cx="168.528" cy="157.471" r="1.185" style="display:inline;fill:#887a6a;fill-opacity:1;stroke:none;stroke-width:.855233;stroke-linecap:round;stroke-linejoin:round;paint-order:markers fill stroke"/><circle cx="181.218" cy="157.471" r="1.185" style="display:inline;fill:#887a6a;fill-opacity:1;stroke:none;stroke-width:.855233;stroke-linecap:round;stroke-linejoin:round;paint-order:markers fill stroke"/><path d="M120.68 214.486h12.48a.265.265 45 0 1 .265.265.236.236 142.584 0 1-.265.202h-12.48a.265.265 45 0 1-.264-.264.236.236 142.584 0 1 .265-.203z" style="fill:#0b0707;fill-opacity:1;stroke:#301e0b;stroke-width:1;stroke-dasharray:none;stroke-opacity:1;paint-order:fill markers stroke" transform="translate(48.026 -57.269)"/></g><g style="display:inline"><path d="M171.969 8.275h25.217l11.475 28.42h-48.033Z" style="display:inline;fill:#f6f3ca;fill-opacity:1;stroke-width:1.64723;stroke-linecap:round;stroke-linejoin:round;paint-order:markers fill stroke" transform="translate(0 3.175)"/><path d="M182.83 37.835h3.491v7.483h-3.491z" style="display:inline;fill:#423c2f;fill-opacity:1;stroke:none;stroke-width:1.55028;stroke-linecap:round;stroke-linejoin:round;stroke-miterlimit:4;stroke-dasharray:none;stroke-opacity:1;paint-order:markers fill stroke" transform="translate(0 3.175)"/><path d="M171.795 7.841h25.557l.514 2.102h-26.58z" style="display:inline;fill:#69432a;stroke-width:1.92639;stroke-linecap:round;stroke-linejoin:round;paint-order:markers fill stroke" transform="translate(0 3.175)"/><path d="M171.558 8.909h26.067" style="display:inline;fill:none;stroke:#fff;stroke-width:.417602;stroke-linecap:round;stroke-linejoin:round;stroke-dasharray:none;stroke-opacity:1;paint-order:markers fill stroke" transform="translate(0 3.175)"/><path d="M160.923 35.927h47.47l.955 2.102h-49.37z" style="display:inline;fill:#69432a;stroke-width:2.62542;stroke-linecap:round;stroke-linejoin:round;paint-order:markers fill stroke" transform="translate(0 3.175)"/><path d="M160.584 36.995h48.319" style="display:inline;fill:none;stroke:#fff;stroke-width:.56855;stroke-linecap:round;stroke-linejoin:round;stroke-dasharray:none;stroke-opacity:1;paint-order:markers fill stroke" transform="translate(0 3.175)"/><path d="M183.641 45.906c-1.2-.007-3.112.254-3.059 1.996.08 2.587 1.668 2.435 2.068 3.036.4.6 1.002 1.726.267 3.902-.867 2.569-2.902 5.43-1.834 9.54.672 2.59 1.607 4.077 3.476 4.164v.002h.016v-.002c1.87-.087 2.805-1.575 3.477-4.164 1.068-4.11-.967-6.971-1.834-9.54-.735-2.176-.134-3.302.266-3.902s1.99-.45 2.068-3.036c.077-2.501-3.882-1.951-3.984-1.936-.031-.004-.403-.057-.926-.06z" style="display:inline;fill:#423c2f;fill-opacity:1;stroke:none;stroke-width:.312999;stroke-linecap:round;stroke-linejoin:round;stroke-dasharray:none;stroke-opacity:1;paint-order:markers fill stroke" transform="translate(0 3.175)"/><path d="M258.03 71.511h25.217l11.475 28.42h-48.033z" style="display:inline;fill:#f5e94e;fill-opacity:1;stroke-width:1.64723;stroke-linecap:round;stroke-linejoin:round;paint-order:markers fill stroke;filter:url(#c)" transform="translate(-82.429 -58.363)scale(.98802)"/><path d="M182.83 67.363h3.491v5.327h-3.491z" style="display:inline;fill:#423c2f;fill-opacity:1;stroke:none;stroke-width:1.308;stroke-linecap:round;stroke-linejoin:round;stroke-miterlimit:4;stroke-dasharray:none;stroke-opacity:1;paint-order:markers fill stroke" transform="translate(0 3.175)"/><path d="M184.41 73.811a16.299 8.89 0 0 0-14.276 4.623h28.572a16.299 8.89 0 0 0-14.295-4.623" style="display:inline;fill:#423c2f;fill-opacity:1;stroke:none;stroke-width:.251159;stroke-linecap:round;stroke-linejoin:round;stroke-dasharray:none;stroke-opacity:1;paint-order:markers fill stroke" transform="translate(0 3.175)"/><path d="M279.487 135.826h4.68a.53.53 45 0 1 .528.53v.309a.53.53 135 0 1-.529.53h-4.679a.53.53 45 0 1-.529-.53v-.31a.53.53 135 0 1 .53-.529" style="display:inline;fill:#423c2f;fill-opacity:1;stroke:none;stroke-width:.312999;stroke-linecap:round;stroke-linejoin:round;stroke-dasharray:none;stroke-opacity:1;paint-order:markers fill stroke" transform="matrix(1 0 0 1.46341 -97.282 -123.11)"/><path d="M279.487 135.826h4.68a.53.53 45 0 1 .528.53v.309a.53.53 135 0 1-.529.53h-4.679a.53.53 45 0 1-.529-.53v-.31a.53.53 135 0 1 .53-.529" style="display:inline;fill:#423c2f;fill-opacity:1;stroke:none;stroke-width:.312999;stroke-linecap:round;stroke-linejoin:round;stroke-dasharray:none;stroke-opacity:1;paint-order:markers fill stroke" transform="translate(-97.282 -87.618)"/><path d="M266.98 140.43h29.626a.265.265 45 0 1 .264.264v.172a.265.265 135 0 1-.264.264H266.98a.265.265 45 0 1-.265-.264v-.172a.265.265 135 0 1 .265-.264" style="display:inline;fill:#423c2f;fill-opacity:1;stroke:none;stroke-width:.312999;stroke-linecap:round;stroke-linejoin:round;stroke-dasharray:none;stroke-opacity:1;paint-order:markers fill stroke" transform="matrix(.9459 0 0 1 -82.095 -59.185)"/><path d="M184.963 45.905q-.116 0-.221.004c1.195.028 2.87.356 2.82 1.993-.079 2.586-1.667 2.435-2.068 3.036-.4.6-1.001 1.726-.266 3.902.867 2.569 2.902 5.43 1.834 9.54-.649 2.498-1.545 3.966-3.285 4.145q.094.013.192.019v.002h.016v-.002c1.87-.087 2.805-1.575 3.477-4.164 1.068-4.11-.967-6.971-1.834-9.54-.735-2.176-.134-3.302.266-3.902s1.99-.45 2.068-3.036c.053-1.72-1.802-1.997-3-1.998zm-1.912.002c-.064 0-.137.004-.205.005.414.012.705.05.732.054.012-.002.085-.012.191-.022a7 7 0 0 0-.717-.038z" style="display:inline;mix-blend-mode:normal;fill:#978c4e;fill-opacity:1;stroke:none;stroke-width:.312999;stroke-linecap:round;stroke-linejoin:round;stroke-dasharray:none;stroke-opacity:1;paint-order:markers fill stroke;filter:url(#d)" transform="translate(0 3.175)"/><path d="M185.212 38.031h.448v6.887h-.448z" style="display:inline;fill:#7a7044;fill-opacity:1;stroke:none;stroke-width:.312999;stroke-linecap:round;stroke-linejoin:round;stroke-opacity:1;paint-order:markers fill stroke;filter:url(#e)" transform="translate(0 3.175)"/><path d="M282.494 128.69h.448v6.887h-.448z" style="display:inline;fill:#7a7044;fill-opacity:1;stroke:none;stroke-width:.312999;stroke-linecap:round;stroke-linejoin:round;stroke-opacity:1;paint-order:markers fill stroke;filter:url(#e)" transform="matrix(1 0 0 .6289 -97.282 -9.533)"/><path d="M181.695 74.045c-2.806.991-4.976 2.147-5.708 2.854-.73.708-.96 1.38-.96 1.38h2.109s1.117-1.702 2.752-2.803 1.807-1.43 1.807-1.43" style="display:inline;fill:#7c7244;fill-opacity:1;stroke:none;stroke-width:.312999;stroke-linecap:round;stroke-linejoin:round;stroke-opacity:1;paint-order:markers fill stroke;filter:url(#f)" transform="translate(0 3.175)"/><path d="M185.87 74.352s6.203 1.061 8.42 2.689a197 197 0 0 0 2.36 1.722h-4.412s-.73-1.014-2.358-2.052-4.01-2.359-4.01-2.359" style="display:inline;fill:#7c7244;fill-opacity:1;stroke:none;stroke-width:.312999;stroke-linecap:round;stroke-linejoin:round;stroke-opacity:1;paint-order:markers fill stroke;filter:url(#g)" transform="translate(0 3.175)"/><path d="M279.487 135.826a.53.53 0 0 0-.53.53v.309l.011.08a.53.53 0 0 1 .519-.451h4.68a.53.53 0 0 1 .522.45l.007-.079v-.31a.53.53 0 0 0-.53-.529z" style="display:inline;mix-blend-mode:normal;fill:#b3a659;fill-opacity:1;stroke:none;stroke-width:.312999;stroke-linecap:round;stroke-linejoin:round;stroke-dasharray:none;stroke-opacity:1;paint-order:markers fill stroke;filter:url(#h)" transform="matrix(.94511 0 0 .4815 -81.726 -16.961)"/><path d="m185.25 45.137 1.852.034s.433.366.283.517c-.15.15-.25-.367-.884-.35-.633.016-1.25-.2-1.25-.2" style="display:inline;fill:#7c7c7c;fill-opacity:1;stroke:none;stroke-width:.312999;stroke-linecap:round;stroke-linejoin:round;stroke-opacity:1;paint-order:markers fill stroke;filter:url(#i)" transform="translate(0 3.175)"/><path d="M186.043 72.606c.95-.083.967-.117 1.117.1s.2 1.16.159.884.091-.617-.342-.767-1.06-.008-.968-.1.025-.117.034-.117" style="display:inline;fill:#7a7044;fill-opacity:1;stroke:none;stroke-width:.312999;stroke-linecap:round;stroke-linejoin:round;stroke-opacity:1;paint-order:markers fill stroke;filter:url(#j)" transform="translate(0 3.175)"/><path d="M282.494 128.69h.448v6.887h-.448z" style="display:inline;fill:#2a271e;fill-opacity:.921569;stroke:none;stroke-width:.312999;stroke-linecap:round;stroke-linejoin:round;stroke-opacity:1;paint-order:markers fill stroke;filter:url(#e)" transform="matrix(1 0 0 .6289 -99.264 -9.533)"/><path d="M282.494 128.69h.448v6.887h-.448z" style="display:inline;fill:#2a271e;fill-opacity:.921569;stroke:none;stroke-width:.312999;stroke-linecap:round;stroke-linejoin:round;stroke-opacity:1;paint-order:markers fill stroke;filter:url(#e)" transform="matrix(1 0 0 .95582 -99.264 -81.316)"/><path d="M181.695 73.833c-2.547.425-5.896 1.415-7.406 2.17s-3.113 2.17-3.113 2.17h1.792s2.029-1.651 4.482-2.689a72 72 0 0 1 4.245-1.65" style="display:inline;fill:#2a271e;fill-opacity:.921569;stroke-width:.312999;stroke-linecap:round;stroke-linejoin:round;paint-order:markers fill stroke;filter:url(#k)" transform="translate(0 3.175)"/><path d="M182.827 45.2c-.495-.024-.801-.26-.92.117-.117.378-.165 1.085 0 .779.166-.307-.047-.236.213-.425s-.094-.142.33-.283c.425-.142.377-.189.377-.189" style="display:inline;fill:#2a271e;fill-opacity:.921569;stroke-width:.312999;stroke-linecap:round;stroke-linejoin:round;paint-order:markers fill stroke;filter:url(#l)" transform="translate(0 3.175)"/><path d="M183.063 72.618c-.342.024-.743-.141-.92-.023-.176.118-.412.46-.353.766.059.307.059.496.059.425 0-.07-.012-.248.212-.495.224-.248.684-.484.86-.52.178-.035.142-.153.142-.153" style="display:inline;fill:#2a271e;fill-opacity:.921569;stroke-width:.312999;stroke-linecap:round;stroke-linejoin:round;paint-order:markers fill stroke;filter:url(#n)" transform="translate(0 3.175)"/><path d="m171.983 9.867 1.097.184-10.434 25.878-.471.005zm2.602 0 1.38.137-9.722 25.924-.743-.003zm2.733.093 1.206-.05-9.298 26.02-.705-.005zm2.449 0 1.277-.003-7.039 25.973-.705-.004zm1.935 0 1.276-.003-4.703 25.973-.705-.004zm2.253 0 1.276-.003-3.012 25.973-.705-.004zm3.075 0-1.276-.003 2.063 25.973.705-.004zm10.265-.093-1.097.184 10.433 25.878.472.005zm-2.062 0-1.38.137 9.722 25.924.742-.003zm-2.557.093-1.14-.05 6.764 26.02.705-.005zm-2.822 0-1.277-.003 4.504 25.973.705-.004z" style="display:inline;fill:#ded044;fill-opacity:1;stroke-width:.312999;stroke-linecap:round;stroke-linejoin:round;paint-order:markers fill stroke" transform="translate(0 3.175)"/><path d="M1021.25 412.565s9.45 2.14 6.597 9.271-4.457 11.054-5.17 11.768c-.713.713-2.318 5.705-.713 12.836s4.635 16.582 5.705 18.9 1.961 9.27-.713 17.828-7.132 13.194-7.132 13.194 3.922-4.636 5.17-14.442c1.249-9.806 1.07-16.046-2.495-25.317s-5.35-14.442-2.14-23.178 8.736-9.27 6.062-13.728c-2.674-4.457-5.17-7.132-5.17-7.132" style="display:inline;mix-blend-mode:normal;fill:#665e3c;fill-opacity:1;stroke-width:1.18299;stroke-linecap:round;stroke-linejoin:round;paint-order:markers fill stroke;filter:url(#o)" transform="matrix(.25314 0 0 .26458 -73.638 -60.029)"/><path d="M267.554 109.14q-.115.001-.22.005c1.194.028 2.87.356 2.82 1.993-.08 2.586-1.668 2.435-2.068 3.036-.4.6-1.002 1.726-.267 3.902.868 2.569 2.902 5.43 1.835 9.54-.649 2.498-1.545 3.966-3.285 4.145q.095.012.192.019v.002h.016v-.002c1.869-.087 2.804-1.575 3.477-4.164 1.067-4.11-.967-6.971-1.835-9.54-.735-2.176-.133-3.302.267-3.902s1.989-.45 2.068-3.036c.053-1.72-1.802-1.997-3-1.998m-1.911.003c-.064 0-.137.004-.205.005.414.012.704.05.731.054.012-.002.086-.012.192-.022a7 7 0 0 0-.718-.038z" style="display:inline;mix-blend-mode:normal;fill:#59522e;fill-opacity:1;stroke:none;stroke-width:.312999;stroke-linecap:round;stroke-linejoin:round;stroke-dasharray:none;stroke-opacity:1;paint-order:markers fill stroke;filter:url(#d)" transform="matrix(-1 0 0 1 451.667 -60.061)"/></g><path d="m56.97 110.209.875-1.995.862 2.017z" style="fill:#fffcda;fill-opacity:1;fill-rule:nonzero;stroke:none;stroke-width:2;stroke-linecap:round;stroke-linejoin:round;stroke-miterlimit:4;stroke-dasharray:none;stroke-opacity:1;paint-order:markers fill stroke" transform="translate(-36.998 -53.831)scale(1.03955)"/><path d="m7.261 41.653-.373.852h.737z" style="fill:#6f7003;fill-opacity:1;stroke:none;stroke-width:2.5028;stroke-linecap:round;stroke-linejoin:round;stroke-miterlimit:4;stroke-dasharray:none;stroke-opacity:1;paint-order:markers fill stroke" transform="translate(17.103 24.062)scale(.8307)"/><path d="M6.169 44.149H8.34v16.809H6.169z" style="fill:#6f7003;fill-opacity:1;stroke:none;stroke-width:1.90924;stroke-linecap:round;stroke-linejoin:round;stroke-miterlimit:4;stroke-dasharray:none;stroke-opacity:1;paint-order:markers fill stroke" transform="translate(17.103 24.062)scale(.8307)"/><path d="m56.97 110.209.875-1.995.862 2.017z" style="fill:#fffcda;fill-opacity:1;fill-rule:nonzero;stroke:none;stroke-width:2;stroke-linecap:round;stroke-linejoin:round;stroke-miterlimit:4;stroke-dasharray:none;stroke-opacity:1;paint-order:markers fill stroke" transform="rotate(4.456 728.568 -351.264)scale(1.03955)"/><path d="m2.036 49.956-.374.853H2.4z" style="fill:#7c2603;fill-opacity:1;stroke:none;stroke-width:2.5028;stroke-linecap:round;stroke-linejoin:round;stroke-miterlimit:4;stroke-dasharray:none;stroke-opacity:1;paint-order:markers fill stroke" transform="rotate(4.458 -213.047 364.315)scale(.83071)"/><path d="M.944 52.452h2.171v16.809H.944z" style="fill:#7c2603;fill-opacity:1;stroke:none;stroke-width:1.90924;stroke-linecap:round;stroke-linejoin:round;stroke-miterlimit:4;stroke-dasharray:none;stroke-opacity:1;paint-order:markers fill stroke" transform="rotate(4.458 -213.047 364.315)scale(.83071)"/><path d="m56.97 110.209.875-1.995.862 2.017z" style="fill:#fffcda;fill-opacity:1;fill-rule:nonzero;stroke:none;stroke-width:2;stroke-linecap:round;stroke-linejoin:round;stroke-miterlimit:4;stroke-dasharray:none;stroke-opacity:1;paint-order:markers fill stroke" transform="rotate(-8.273 -313.524 363.26)scale(1.03955)"/><path d="M-13.646 48.925h2.171v16.809h-2.171z" style="fill:#05a897;fill-opacity:1;stroke:none;stroke-width:1.90924;stroke-linecap:round;stroke-linejoin:round;stroke-miterlimit:4;stroke-dasharray:none;stroke-opacity:1;paint-order:markers fill stroke" transform="rotate(-8.274 162.276 -161.526)scale(.83071)"/><path d="m-5.743 47.753-.247.897.73-.106z" style="fill:#05a897;fill-opacity:1;stroke:none;stroke-width:2.5028;stroke-linecap:round;stroke-linejoin:round;stroke-miterlimit:4;stroke-dasharray:none;stroke-opacity:1;paint-order:markers fill stroke" transform="translate(24.931 21.669)scale(.8307)"/><path d="m56.97 110.209.875-1.995.862 2.017z" style="fill:#fffcda;fill-opacity:1;fill-rule:nonzero;stroke:none;stroke-width:2;stroke-linecap:round;stroke-linejoin:round;stroke-miterlimit:4;stroke-dasharray:none;stroke-opacity:1;paint-order:markers fill stroke" transform="matrix(.95521 .41015 -.41015 .95521 19.62 -64.225)"/><path d="m-12.429 88.51-.374.852h.738z" style="fill:#46215e;fill-opacity:1;stroke:none;stroke-width:2.5028;stroke-linecap:round;stroke-linejoin:round;stroke-miterlimit:4;stroke-dasharray:none;stroke-opacity:1;paint-order:markers fill stroke" transform="rotate(23.238 36 167.448)scale(.83071)"/><path d="M-13.521 91.006h2.171v16.809h-2.171z" style="fill:#46215e;fill-opacity:1;stroke:none;stroke-width:1.90924;stroke-linecap:round;stroke-linejoin:round;stroke-miterlimit:4;stroke-dasharray:none;stroke-opacity:1;paint-order:markers fill stroke" transform="rotate(23.238 36 167.448)scale(.83071)"/><g style="display:inline"><path d="M94.216 100.821h11.451l-1.488 12.053h-8.303z" style="fill:#bababa;fill-opacity:1;stroke-width:1.32367;stroke-linecap:round;stroke-linejoin:round;paint-order:markers fill stroke" transform="translate(-75.796 -30.822)"/><path d="M114.138 127.554h11.588a.794.794 45 0 1 .794.794.77.77 136.983 0 1-.794.74h-11.588a.794.794 45 0 1-.794-.793.77.77 136.983 0 1 .794-.74" style="fill:#bababa;fill-opacity:1;stroke:none;stroke-width:2;stroke-linecap:round;stroke-linejoin:round;stroke-miterlimit:4;stroke-dasharray:none;stroke-opacity:1;paint-order:markers fill stroke" transform="matrix(.99821 0 0 1 -95.535 -59.09)"/><path d="M114.138 127.554h11.588a.794.794 45 0 1 .794.794.77.77 136.983 0 1-.794.74h-11.588a.794.794 45 0 1-.794-.793.77.77 136.983 0 1 .794-.74" style="fill:#6b6b6b;fill-opacity:1;stroke:none;stroke-width:2;stroke-linecap:round;stroke-linejoin:round;stroke-miterlimit:4;stroke-dasharray:none;stroke-opacity:1;paint-order:markers fill stroke" transform="matrix(.87163 0 0 .1038 -80.404 56.675)"/><path d="m102.953 100.821-.714 12.053h1.94l1.489-12.053z" style="fill:#8e8e8e;fill-opacity:1;stroke-width:2;stroke-linecap:round;stroke-linejoin:round;paint-order:markers fill stroke" transform="translate(-75.796 -30.822)"/><path d="m103.043 99.287-.09 1.535h2.809a.766.768 0 0 0 .792-.741.792.794 0 0 0-.792-.794z" style="fill:#8e8e8e;fill-opacity:1;stroke-width:2;stroke-linecap:round;stroke-linejoin:round;paint-order:markers fill stroke" transform="translate(-75.796 -30.822)"/><path d="m102.945 100.737-.009.16h2.043a.67.08 0 0 0 .692-.077.692.082 0 0 0-.692-.083z" style="fill:#6b6b6b;fill-opacity:1;stroke-width:2;stroke-linecap:round;stroke-linejoin:round;paint-order:markers fill stroke" transform="translate(-75.796 -30.822)"/></g><g style="display:inline" transform="translate(-4.49 -42.47)"><path d="M153.95 54.437h93.442a2.646 2.646 45 0 1 2.646 2.646v52.882a2.646 2.646 135 0 1-2.646 2.646H153.95a2.646 2.646 45 0 1-2.646-2.646V57.083a2.646 2.646 135 0 1 2.646-2.646" style="fill:#17b7b9;fill-opacity:1;stroke:#000;stroke-width:2;stroke-linecap:round;stroke-linejoin:round;stroke-miterlimit:4;stroke-dasharray:none;stroke-opacity:1;paint-order:markers fill stroke" transform="translate(-94.548 -1.51)"/><path d="M97.208 108.935h19.247v13.586H97.208z" style="fill:#fff;fill-opacity:1;stroke:none;stroke-width:.573687;stroke-linecap:round;stroke-linejoin:round;stroke-miterlimit:4;stroke-dasharray:none;stroke-opacity:1;paint-order:markers fill stroke"/><path d="M97.208 110.668h19.247v10.312H97.208z" style="fill:#b8b8b8;fill-opacity:1;stroke:none;stroke-width:.499802;stroke-linecap:round;stroke-linejoin:round;stroke-miterlimit:4;stroke-dasharray:none;stroke-opacity:1;paint-order:markers fill stroke"/><path d="M56.756 101.913v6.676a2.646 2.646 0 0 0 2.646 2.645h93.442a2.646 2.646 0 0 0 2.646-2.645v-6.676z" style="fill:#fff;fill-opacity:1;stroke:#fff;stroke-width:2;stroke-linecap:round;stroke-linejoin:round;stroke-miterlimit:4;stroke-dasharray:none;stroke-opacity:1;paint-order:markers fill stroke"/><circle cx="107.054" cy="106.219" r="1.384" style="fill:#000;fill-opacity:1;stroke:none;stroke-width:.771867;stroke-linecap:round;stroke-linejoin:round;stroke-miterlimit:4;stroke-dasharray:none;stroke-opacity:1;paint-order:markers fill stroke"/><path d="M181.994 132.65h37.423a1.06 1.06 45 0 1 1.059 1.059v1.195a1.06 1.06 135 0 1-1.059 1.059h-37.423a1.06 1.06 45 0 1-1.059-1.059v-1.195a1.06 1.06 135 0 1 1.059-1.058" style="fill:#fff;fill-opacity:1;stroke:none;stroke-width:.406;stroke-linecap:round;stroke-linejoin:round;stroke-miterlimit:4;stroke-dasharray:none;stroke-opacity:1;paint-order:markers fill stroke" transform="matrix(1 0 0 .62055 -93.747 40.159)"/><path d="M72.633 60.399h67.113V96.29H72.633z" style="fill:#fff;fill-opacity:1;stroke:none;stroke-width:2;stroke-linecap:round;stroke-linejoin:round;stroke-miterlimit:4;stroke-dasharray:none;stroke-opacity:1;paint-order:markers fill stroke"/><path d="M72.633 60.399h67.113v3.202H72.633z" style="fill:#626262;fill-opacity:1;stroke:none;stroke-width:.597392;stroke-linecap:round;stroke-linejoin:round;stroke-miterlimit:4;stroke-dasharray:none;stroke-opacity:1;paint-order:markers fill stroke"/><path d="M97.208 112.271h19.247v2.83H97.208z" style="fill:#5e5e5e;fill-opacity:1;stroke:none;stroke-width:.261851;stroke-linecap:round;stroke-linejoin:round;stroke-miterlimit:4;stroke-dasharray:none;stroke-opacity:1;paint-order:markers fill stroke"/><path d="M181.994 132.65h37.423a1.06 1.06 45 0 1 1.059 1.059v1.195a1.06 1.06 135 0 1-1.059 1.059h-37.423a1.06 1.06 45 0 1-1.059-1.059v-1.195a1.06 1.06 135 0 1 1.059-1.058" style="fill:#5e5e5e;fill-opacity:1;stroke:none;stroke-width:.406;stroke-linecap:round;stroke-linejoin:round;stroke-miterlimit:4;stroke-dasharray:none;stroke-opacity:1;paint-order:markers fill stroke" transform="matrix(.80196 0 0 .60058 -57.915 42.874)"/><circle cx="74.551" cy="61.924" r=".717" style="fill:#db2b2b;fill-opacity:1;stroke:none;stroke-width:2;stroke-linecap:round;stroke-linejoin:round;stroke-miterlimit:4;stroke-dasharray:none;stroke-opacity:1;paint-order:markers fill stroke"/><circle cx="76.519" cy="61.924" r=".717" style="fill:#979c1a;fill-opacity:1;stroke:none;stroke-width:2;stroke-linecap:round;stroke-linejoin:round;stroke-miterlimit:4;stroke-dasharray:none;stroke-opacity:1;paint-order:markers fill stroke"/><circle cx="78.487" cy="61.924" r=".717" style="fill:#43a92c;fill-opacity:1;stroke:none;stroke-width:2;stroke-linecap:round;stroke-linejoin:round;stroke-miterlimit:4;stroke-dasharray:none;stroke-opacity:1;paint-order:markers fill stroke"/><path d="M145.077 120.015a5.186 5.186 0 0 1 5.146 4.62h-10.3a5.186 5.186 0 0 1 5.154-4.62" style="fill:#5e5e5e;fill-opacity:1;stroke:none;stroke-width:1.52692;stroke-linecap:round;stroke-linejoin:round;stroke-miterlimit:4;stroke-dasharray:none;stroke-opacity:1;paint-order:markers fill stroke"/><path d="M145.673 120.059a5.186 5.186 0 0 0-4.493 4.577h8.988a5.186 5.186 0 0 0-4.495-4.577" style="fill:#fdfdfd;fill-opacity:1;stroke:none;stroke-width:1.52692;stroke-linecap:round;stroke-linejoin:round;stroke-miterlimit:4;stroke-dasharray:none;stroke-opacity:1;paint-order:markers fill stroke"/><path d="M59.402 53.06a2.646 2.646 0 0 0-2.646 2.647v38.556l77.455-40.894-.19-.308z" style="display:inline;fill:#fff;fill-opacity:.254613;stroke:none;stroke-width:2.36641;stroke-linecap:round;stroke-linejoin:round;stroke-miterlimit:4;stroke-dasharray:none;stroke-opacity:1;paint-order:markers fill stroke"/></g></svg>