<svg xmlns="http://www.w3.org/2000/svg" xml:space="preserve" width="207mm" height="265mm" viewBox="0 0 207 265"><defs><path id="a" d="M-402.846 159.131h232.245v136.193h-232.245z"/></defs><path d="M2.178 22.783h171.828v239.724H2.178z" style="fill:#e1cab2;fill-opacity:1;stroke-width:.862872" transform="rotate(-6.365)"/><path d="M21.621 53.335h160.828v194.658H21.621z" style="fill:#f8f3e7;fill-opacity:1;stroke-width:.752655;stroke-dasharray:none"/><circle cx="108.598" cy="31.055" r="3.027" style="fill:#fff;fill-opacity:1;stroke:none;stroke-width:.373665"/><circle cx="118.315" cy="28.962" r="5.142" style="fill:#fff;fill-opacity:1;stroke:none;stroke-width:.348113"/><path d="M124.97 26.09c-.538-2.688-1.434-8.065 3.943-9.678 5.378-1.614 8.066 1.434 11.113-.538s2.868-4.66 7.17-4.481 5.5 2.282 7.68 2.339c1.58.042 5.508-5.618 9.272 2.806 3.764 8.425 1.761 11.926-3.795 14.794-5.557 2.868-8.37 3.724-10.29 4.169-2.147.498-9.678 2.061-12.008.09-2.33-1.972-5.736-3.227-9.321-3.406s-3.764-6.094-3.764-6.094" style="fill:#fff;fill-opacity:1;stroke:none;stroke-width:.376149"/><text xml:space="preserve" style="text-align:start;writing-mode:lr-tb;direction:ltr;white-space:pre;shape-inside:url(#a);fill:#e1cab2;fill-opacity:1;stroke:none;stroke-width:3.0085" transform="translate(861.27 -273.815)scale(1.80185)"><tspan x="-402.846" y="170.049">!?!</tspan></text><path d="M78.05 115.868s-14.109-5.325-14.886-16.093c-.939-13.008 4.292-20.116 4.292-20.116s1.422-20.99 7.241-22.396c7.778-1.877 14.886 8.851 14.886 8.851s5.878-3.55 13.41-3.218c9.12.402 13.411 3.353 13.411 3.353s6.455-11.603 13.947-9.522c6.825 1.895 6.572 21.055 6.572 21.055s6.964 11.118 5.096 21.457c-2.012 11.13-14.618 16.897-14.618 16.897z" style="opacity:1;fill:#fff;fill-opacity:1;stroke:none;stroke-width:.795999" transform="translate(22.482 -14.355)scale(.58928)"/><path d="M85.962 89.18s.397-4.273 3.99-4.224c3.62.05 4.023 4.175 4.023 4.175m17.495.049s.398-4.273 3.99-4.224c3.621.05 4.024 4.175 4.024 4.175" style="opacity:.527536;fill:none;fill-opacity:1;stroke:#7f3535;stroke-width:.795999;stroke-opacity:1" transform="translate(22.482 -14.355)scale(.58928)"/><path d="M100.362 92.533s.905-1.123 2.649-1.123 2.464.99 2.464.99-.57 2.01-2.515 1.994c-1.81-.015-2.598-1.86-2.598-1.86" style="opacity:.863768;fill:#b48a88;fill-opacity:1;stroke:none;stroke-width:.795999;stroke-opacity:1" transform="translate(22.482 -14.355)scale(.58928)"/><path d="M95.56 95.043s-.177 4.565 3.478 4.699c3.654.134 4.123-2.515 4.123-2.515s.37 3.185 4.158 2.246c3.788-.938 2.887-4.592 2.887-4.592" style="opacity:.527536;fill:none;fill-opacity:1;stroke:#7f3535;stroke-width:.795999;stroke-opacity:1" transform="translate(22.482 -14.355)scale(.58928)"/><path d="M73.397 74.013c-.238-.142-1.545-12.191 2.797-12.944 4.465-.774 10.62 6.828 10.62 6.828s-4.361 1.659-6.637 2.607-6.78 3.509-6.78 3.509m45.28-6.259s7.511-8.734 10.952-6.4c4.125 2.797 1.66 12.754 1.66 12.754s-4.078-2.608-6.022-3.509-6.59-2.845-6.59-2.845" style="opacity:1;fill:#ffd3e1;fill-opacity:1;stroke:none;stroke-width:.795999;stroke-opacity:1" transform="translate(22.482 -14.355)scale(.58928)"/><path d="M53.815 117.634s1.707-8.156 9.482-8.772c7.776-.616 10.1 3.082 10.716 3.888s2.181 8.013-1.28 8.724-4.22-.9-4.22-.9-.664 3.413-3.509 3.318-3.888-3.461-3.888-3.461-1.612 2.94-4.504 1.707-2.797-4.504-2.797-4.504m96.883-1.288s-1.707-8.155-9.483-8.771-10.1 3.082-10.716 3.888-2.18 8.013 1.28 8.724c3.462.711 4.22-.901 4.22-.901s.664 3.414 3.509 3.319 3.888-3.461 3.888-3.461 1.612 2.94 4.504 1.707 2.798-4.505 2.798-4.505" style="opacity:1;fill:#fff;fill-opacity:1;stroke:none;stroke-width:.795999;stroke-opacity:1" transform="translate(22.482 -14.355)scale(.58928)"/></svg>