<svg xmlns="http://www.w3.org/2000/svg" width="160mm" height="217mm" viewBox="0 0 160 217"><defs><filter id="a" width="1.165" height="1.037" x="-.082" y="-.019" style="color-interpolation-filters:sRGB"><feGaussianBlur stdDeviation=".176"/></filter><filter id="b" width="2.48" height="1.096" x="-.74" y="-.048" style="color-interpolation-filters:sRGB"><feGaussianBlur stdDeviation=".138"/></filter><filter id="k" width="1.985" height="1.118" x="-.493" y="-.059" style="color-interpolation-filters:sRGB"><feGaussianBlur stdDeviation="2.059"/></filter><filter id="c" width="1.328" height="1.517" x="-.164" y="-.259" style="color-interpolation-filters:sRGB"><feGaussianBlur stdDeviation=".456"/></filter><filter id="d" width="1.149" height="1.365" x="-.075" y="-.183" style="color-interpolation-filters:sRGB"><feGaussianBlur stdDeviation=".335"/></filter><filter id="e" width="1.227" height="1.851" x="-.113" y="-.425" style="color-interpolation-filters:sRGB"><feGaussianBlur stdDeviation=".102"/></filter><filter id="f" width="1.205" height="1.249" x="-.102" y="-.124" style="color-interpolation-filters:sRGB"><feGaussianBlur stdDeviation=".057"/></filter><filter id="g" width="1.129" height="1.03" x="-.064" y="-.015" style="color-interpolation-filters:sRGB"><feGaussianBlur stdDeviation=".14"/></filter><filter id="h" width="1.102" height="1.246" x="-.051" y="-.123" style="color-interpolation-filters:sRGB"><feGaussianBlur stdDeviation=".223"/></filter><filter id="i" width="1.521" height="1.502" x="-.26" y="-.251" style="color-interpolation-filters:sRGB"><feGaussianBlur stdDeviation=".112"/></filter><filter id="j" width="1.331" height="1.341" x="-.166" y="-.17" style="color-interpolation-filters:sRGB"><feGaussianBlur stdDeviation=".089"/></filter></defs><g style="display:inline"><path d="M33.595 151.708h145.653a5.29 5.29 45 0 1 5.292 5.291v10.55a5.29 5.29 135 0 1-5.292 5.292H33.595a5.29 5.29 45 0 1-5.291-5.291V157a5.29 5.29 135 0 1 5.291-5.292" style="display:inline;fill:#4a3a1c;stroke:none;stroke-width:.246;stroke-linecap:round;stroke-linejoin:round;paint-order:markers fill stroke" transform="matrix(.48419 0 0 .55843 170.73 -8.917)"/><path d="M189.221 87.225h66.854V198.93h-66.854z" style="display:inline;fill:#4a3a1c;stroke:none;stroke-width:.172328;stroke-linecap:round;stroke-linejoin:round;paint-order:markers fill stroke"/><path d="M195.243 97.02v41.362h55.03V97.02Zm4.415 4.803h46.261v31.755h-46.261zm-4.415 44.823v41.361h55.03v-41.361zm4.415 4.803h46.261v31.755h-46.261z" style="display:inline;fill:#8e6f36;fill-opacity:1;stroke:none;stroke-width:.255481;stroke-linecap:round;stroke-linejoin:round;paint-order:markers fill stroke"/><circle cx="210.897" cy="111.074" r="4.057" style="display:inline;fill:gray;fill-opacity:1;stroke:none;stroke-width:.246;stroke-linecap:round;stroke-linejoin:round;paint-order:markers fill stroke"/><circle cx="235.804" cy="111.074" r="4.057" style="display:inline;fill:gray;fill-opacity:1;stroke:none;stroke-width:.246;stroke-linecap:round;stroke-linejoin:round;paint-order:markers fill stroke"/><path d="M94.854 162.378h25.907a1.323 1.323 45 0 1 1.323 1.323v2.157a1.323 1.323 135 0 1-1.323 1.323H94.854a1.323 1.323 45 0 1-1.323-1.323v-2.157a1.323 1.323 135 0 1 1.323-1.323" style="display:inline;fill:#8e6f36;fill-opacity:1;stroke:none;stroke-width:.246;stroke-linecap:round;stroke-linejoin:round;paint-order:markers fill stroke" transform="translate(115.702 -53.653)"/><circle cx="210.897" cy="160.134" r="4.057" style="display:inline;fill:gray;fill-opacity:1;stroke:none;stroke-width:.246;stroke-linecap:round;stroke-linejoin:round;paint-order:markers fill stroke"/><circle cx="235.804" cy="160.134" r="4.057" style="display:inline;fill:gray;fill-opacity:1;stroke:none;stroke-width:.246;stroke-linecap:round;stroke-linejoin:round;paint-order:markers fill stroke"/><path d="M94.854 162.378h25.907a1.323 1.323 45 0 1 1.323 1.323v2.157a1.323 1.323 135 0 1-1.323 1.323H94.854a1.323 1.323 45 0 1-1.323-1.323v-2.157a1.323 1.323 135 0 1 1.323-1.323" style="display:inline;fill:#8e6f36;fill-opacity:1;stroke:none;stroke-width:.246;stroke-linecap:round;stroke-linejoin:round;paint-order:markers fill stroke" transform="translate(115.702 -4.593)"/><path d="M195.532 197.798h18.68l-5.47 16.367h-13.21z" style="display:inline;fill:#332813;stroke-width:.225745;stroke-linecap:round;stroke-linejoin:round;paint-order:markers fill stroke"/><path d="m195.508 198.969 18.38-.034-1.552 4.499-16.828.033z" style="display:inline;fill:#211a0c;stroke-width:.0173674;stroke-linecap:round;stroke-linejoin:round;paint-order:markers fill stroke"/><path d="M250.794 197.798h-18.68l5.47 16.367h13.21z" style="display:inline;fill:#332813;stroke-width:.225745;stroke-linecap:round;stroke-linejoin:round;paint-order:markers fill stroke"/><path d="m250.819 198.969-18.38-.034 1.551 4.499 16.829.033z" style="display:inline;fill:#211a0c;stroke-width:.0173674;stroke-linecap:round;stroke-linejoin:round;paint-order:markers fill stroke"/><path d="M189.219 87.225h66.873v4.965h-66.873z" style="display:inline;fill:#332813;fill-opacity:1;stroke:none;stroke-width:.0363375;stroke-linecap:round;stroke-linejoin:round;paint-order:markers fill stroke"/><path d="M282.436 89.628h17.807a1.85 1.85 45 0 1 1.852 1.852v37.43a1.85 1.85 135 0 1-1.852 1.853h-17.807a1.85 1.85 45 0 1-1.852-1.852V91.48a1.85 1.85 135 0 1 1.852-1.853" style="display:inline;fill:#000;fill-opacity:1;stroke-width:.246;stroke-linecap:round;stroke-linejoin:round;paint-order:markers fill stroke" transform="translate(-68.785 -55.338)"/><path d="M282.436 89.628h17.807a1.85 1.85 45 0 1 1.852 1.852v37.43a1.85 1.85 135 0 1-1.852 1.853h-17.807a1.85 1.85 45 0 1-1.852-1.852V91.48a1.85 1.85 135 0 1 1.852-1.853" style="display:inline;fill:#e3dbdb;fill-opacity:1;stroke-width:.246;stroke-linecap:round;stroke-linejoin:round;paint-order:markers fill stroke" transform="matrix(.93486 0 0 .9647 -49.8 -51.408)"/><path d="M287.993 91.33h6.58a.53.53 45 0 1 .53.528v.11a.53.53 135 0 1-.53.529h-6.58a.53.53 45 0 1-.53-.53v-.109a.53.53 135 0 1 .53-.529" style="display:inline;fill:#000;fill-opacity:1;stroke-width:.231762;stroke-linecap:round;stroke-linejoin:round;paint-order:markers fill stroke" transform="matrix(1 0 0 .65655 -68.785 -23.97)"/></g><g style="display:inline"><path d="M40.873 66.902H66.09l11.475 28.42H29.532Z" style="display:inline;fill:#f6f3ca;fill-opacity:1;stroke-width:1.64723;stroke-linecap:round;stroke-linejoin:round;paint-order:markers fill stroke" transform="translate(57.74 -61.513)"/><path d="M51.734 96.462h3.491v7.483h-3.491z" style="display:inline;fill:#423c2f;fill-opacity:1;stroke:none;stroke-width:1.55028;stroke-linecap:round;stroke-linejoin:round;stroke-miterlimit:4;stroke-dasharray:none;stroke-opacity:1;paint-order:markers fill stroke" transform="translate(57.74 -61.513)"/><path d="M40.699 66.468h25.557l.514 2.102H40.19z" style="display:inline;fill:#69432a;stroke-width:1.92639;stroke-linecap:round;stroke-linejoin:round;paint-order:markers fill stroke" transform="translate(57.74 -61.513)"/><path d="M40.462 67.536H66.53" style="display:inline;fill:none;stroke:#fff;stroke-width:.417602;stroke-linecap:round;stroke-linejoin:round;stroke-dasharray:none;stroke-opacity:1;paint-order:markers fill stroke" transform="translate(57.74 -61.513)"/><path d="M29.827 94.554h47.47l.955 2.102h-49.37Z" style="display:inline;fill:#69432a;stroke-width:2.62542;stroke-linecap:round;stroke-linejoin:round;paint-order:markers fill stroke" transform="translate(57.74 -61.513)"/><path d="M29.489 95.622h48.318" style="display:inline;fill:none;stroke:#fff;stroke-width:.56855;stroke-linecap:round;stroke-linejoin:round;stroke-dasharray:none;stroke-opacity:1;paint-order:markers fill stroke" transform="translate(57.74 -61.513)"/><path d="M52.545 104.533c-1.2-.007-3.112.254-3.059 1.996.08 2.586 1.668 2.435 2.069 3.036.4.6 1.001 1.725.266 3.902-.867 2.569-2.902 5.43-1.834 9.54.672 2.59 1.608 4.076 3.476 4.164v.002h.016v-.002c1.87-.088 2.805-1.575 3.477-4.164 1.068-4.11-.967-6.971-1.834-9.54-.735-2.177-.134-3.302.266-3.902s1.99-.45 2.069-3.036c.076-2.501-3.883-1.951-3.985-1.937-.031-.004-.403-.056-.926-.06z" style="display:inline;fill:#423c2f;fill-opacity:1;stroke:none;stroke-width:.312999;stroke-linecap:round;stroke-linejoin:round;stroke-dasharray:none;stroke-opacity:1;paint-order:markers fill stroke" transform="translate(57.74 -61.513)"/><path d="M51.734 125.99h3.491v5.327h-3.491z" style="display:inline;fill:#423c2f;fill-opacity:1;stroke:none;stroke-width:1.308;stroke-linecap:round;stroke-linejoin:round;stroke-miterlimit:4;stroke-dasharray:none;stroke-opacity:1;paint-order:markers fill stroke" transform="translate(57.74 -61.513)"/><path d="M53.315 132.438a16.299 8.89 0 0 0-14.276 4.623H67.61a16.299 8.89 0 0 0-14.295-4.623" style="display:inline;fill:#423c2f;fill-opacity:1;stroke:none;stroke-width:.251159;stroke-linecap:round;stroke-linejoin:round;stroke-dasharray:none;stroke-opacity:1;paint-order:markers fill stroke" transform="translate(57.74 -61.513)"/><path d="M279.487 135.826h4.68a.53.53 45 0 1 .528.53v.309a.53.53 135 0 1-.529.53h-4.679a.53.53 45 0 1-.529-.53v-.31a.53.53 135 0 1 .53-.529" style="display:inline;fill:#423c2f;fill-opacity:1;stroke:none;stroke-width:.312999;stroke-linecap:round;stroke-linejoin:round;stroke-dasharray:none;stroke-opacity:1;paint-order:markers fill stroke" transform="matrix(1 0 0 1.46341 -170.639 -129.171)"/><path d="M279.487 135.826h4.68a.53.53 45 0 1 .528.53v.309a.53.53 135 0 1-.529.53h-4.679a.53.53 45 0 1-.529-.53v-.31a.53.53 135 0 1 .53-.529" style="display:inline;fill:#423c2f;fill-opacity:1;stroke:none;stroke-width:.312999;stroke-linecap:round;stroke-linejoin:round;stroke-dasharray:none;stroke-opacity:1;paint-order:markers fill stroke" transform="translate(-170.639 -93.68)"/><path d="M266.98 140.43h29.626a.265.265 45 0 1 .264.264v.172a.265.265 135 0 1-.264.264H266.98a.265.265 45 0 1-.265-.264v-.172a.265.265 135 0 1 .265-.264" style="display:inline;fill:#423c2f;fill-opacity:1;stroke:none;stroke-width:.312999;stroke-linecap:round;stroke-linejoin:round;stroke-dasharray:none;stroke-opacity:1;paint-order:markers fill stroke" transform="matrix(.9459 0 0 1 -155.451 -65.247)"/><path d="M53.867 104.531q-.116 0-.221.004c1.195.029 2.87.356 2.82 1.994-.079 2.586-1.667 2.435-2.068 3.035-.4.6-1.001 1.726-.266 3.903.867 2.568 2.902 5.43 1.834 9.54-.648 2.498-1.545 3.966-3.285 4.145q.095.012.192.019v.002l.008-.001h.008v-.001c1.87-.088 2.805-1.575 3.477-4.164 1.068-4.11-.967-6.972-1.834-9.54-.735-2.177-.134-3.302.266-3.903.4-.6 1.99-.449 2.068-3.035.053-1.72-1.802-1.997-3-1.998zm-1.912.002c-.064 0-.137.004-.205.005.415.013.705.051.732.055.012-.002.085-.012.191-.023a7 7 0 0 0-.717-.037z" style="display:inline;mix-blend-mode:normal;fill:#8d8d8d;fill-opacity:1;stroke:none;stroke-width:.312999;stroke-linecap:round;stroke-linejoin:round;stroke-dasharray:none;stroke-opacity:1;paint-order:markers fill stroke;filter:url(#a)" transform="translate(57.74 -61.513)"/><path d="M54.116 96.657h.448v6.887h-.448z" style="display:inline;fill:#8d8d8d;stroke:none;stroke-width:.312999;stroke-linecap:round;stroke-linejoin:round;stroke-opacity:1;paint-order:markers fill stroke;filter:url(#b)" transform="translate(57.74 -61.513)"/><path d="M282.494 128.69h.448v6.887h-.448z" style="display:inline;fill:#8d8d8d;stroke:none;stroke-width:.312999;stroke-linecap:round;stroke-linejoin:round;stroke-opacity:1;paint-order:markers fill stroke;filter:url(#b)" transform="matrix(1 0 0 .6289 -170.639 -15.595)"/><path d="M50.6 132.672c-2.807.99-4.977 2.147-5.708 2.854-.732.708-.962 1.379-.962 1.379h2.11s1.117-1.701 2.752-2.802 1.807-1.43 1.807-1.43" style="display:inline;fill:#525252;fill-opacity:1;stroke:none;stroke-width:.312999;stroke-linecap:round;stroke-linejoin:round;stroke-opacity:1;paint-order:markers fill stroke;filter:url(#c)" transform="translate(57.74 -61.513)"/><path d="M54.774 132.979s6.203 1.061 8.42 2.689a197 197 0 0 0 2.36 1.721h-4.411s-.732-1.014-2.36-2.052c-1.627-1.037-4.009-2.358-4.009-2.358" style="display:inline;fill:#8c8c8c;fill-opacity:1;stroke:none;stroke-width:.312999;stroke-linecap:round;stroke-linejoin:round;stroke-opacity:1;paint-order:markers fill stroke;filter:url(#d)" transform="translate(57.74 -61.513)"/><path d="m54.155 103.764 1.85.033s.434.367.284.517-.25-.367-.884-.35a4 4 0 0 1-1.25-.2" style="display:inline;fill:#7c7c7c;fill-opacity:1;stroke:none;stroke-width:.312999;stroke-linecap:round;stroke-linejoin:round;stroke-opacity:1;paint-order:markers fill stroke;filter:url(#e)" transform="translate(57.74 -61.513)"/><path d="M54.947 131.233c.95-.084.967-.117 1.117.1s.2 1.159.159.884c-.042-.276.091-.617-.342-.768-.434-.15-1.06-.008-.968-.1.092-.091.026-.116.034-.116" style="display:inline;fill:#7c7c7c;fill-opacity:1;stroke:none;stroke-width:.312999;stroke-linecap:round;stroke-linejoin:round;stroke-opacity:1;paint-order:markers fill stroke;filter:url(#f)" transform="translate(57.74 -61.513)"/><path d="M54.74 104.53c-.295 0-.535.018-.712.034.144.013.246.027.26.028.026-.004.301-.041.694-.055a7 7 0 0 0-.242-.006zm-1.912.003c-1.2-.007-3.112.254-3.058 1.996.079 2.586 1.668 2.435 2.068 3.036.4.6 1.001 1.726.266 3.902-.867 2.569-2.901 5.43-1.834 9.54.672 2.59 1.608 4.077 3.477 4.164v.002h.016v-.002q.132-.008.259-.025c-1.697-.21-2.578-1.673-3.218-4.139-1.068-4.11.967-6.971 1.834-9.54.735-2.176.134-3.302-.266-3.902s-1.99-.45-2.068-3.036c-.05-1.615 1.584-1.954 2.78-1.99-.082-.002-.163-.005-.255-.006z" style="display:inline;mix-blend-mode:normal;fill:#2a261e;fill-opacity:1;stroke:none;stroke-width:.312999;stroke-linecap:round;stroke-linejoin:round;stroke-dasharray:none;stroke-opacity:1;paint-order:markers fill stroke;filter:url(#g)" transform="translate(57.74 -61.513)"/><path d="M282.494 128.69h.448v6.887h-.448z" style="display:inline;fill:#2a271e;fill-opacity:.921569;stroke:none;stroke-width:.312999;stroke-linecap:round;stroke-linejoin:round;stroke-opacity:1;paint-order:markers fill stroke;filter:url(#b)" transform="matrix(1 0 0 .6289 -172.62 -15.595)"/><path d="M282.494 128.69h.448v6.887h-.448z" style="display:inline;fill:#2a271e;fill-opacity:.921569;stroke:none;stroke-width:.312999;stroke-linecap:round;stroke-linejoin:round;stroke-opacity:1;paint-order:markers fill stroke;filter:url(#b)" transform="matrix(1 0 0 .95582 -172.62 -87.378)"/><path d="M50.6 132.46c-2.548.424-5.897 1.415-7.407 2.17s-3.113 2.17-3.113 2.17h1.792s2.029-1.651 4.482-2.69a72 72 0 0 1 4.245-1.65" style="display:inline;fill:#2a271e;fill-opacity:.921569;stroke-width:.312999;stroke-linecap:round;stroke-linejoin:round;paint-order:markers fill stroke;filter:url(#h)" transform="translate(57.74 -61.513)"/><path d="M51.732 103.826c-.496-.024-.802-.26-.92.118-.118.377-.165 1.085 0 .778s-.047-.236.212-.424c.26-.189-.094-.142.33-.283.425-.142.378-.189.378-.189" style="display:inline;fill:#2a271e;fill-opacity:.921569;stroke-width:.312999;stroke-linecap:round;stroke-linejoin:round;paint-order:markers fill stroke;filter:url(#i)" transform="translate(57.74 -61.513)"/><path d="M51.967 131.245c-.342.024-.743-.141-.92-.023-.176.118-.412.46-.353.766.059.307.059.495.059.425s-.012-.248.212-.496c.224-.247.684-.483.86-.519.178-.035.142-.153.142-.153" style="display:inline;fill:#2a271e;fill-opacity:.921569;stroke-width:.312999;stroke-linecap:round;stroke-linejoin:round;paint-order:markers fill stroke;filter:url(#j)" transform="translate(57.74 -61.513)"/><path d="m40.887 68.494 1.097.184-10.433 25.878-.472.005zm2.602 0 1.38.137-9.722 25.924-.742-.003zm2.733.092 1.206-.05-9.298 26.02-.705-.004zm2.449 0 1.277-.002-7.039 25.972-.705-.004zm1.935 0 1.277-.002-4.704 25.972-.705-.004zm2.253 0 1.276-.002-3.012 25.972-.705-.004zm3.076 0-1.277-.002 2.063 25.972.706-.004zm10.264-.092-1.097.184 10.434 25.878.471.005zm-2.062 0-1.38.137 9.722 25.924.743-.003zm-2.557.092-1.14-.05 6.764 26.02.705-.004zm-2.822 0-1.277-.002 4.504 25.972.705-.004z" style="display:inline;fill:#d0ca8d;fill-opacity:1;stroke-width:.312999;stroke-linecap:round;stroke-linejoin:round;paint-order:markers fill stroke" transform="translate(57.74 -61.513)"/><path d="M1021.25 412.565s9.45 2.14 6.597 9.271-4.457 11.054-5.17 11.768c-.713.713-2.318 5.705-.713 12.836s4.635 16.582 5.705 18.9 1.961 9.27-.713 17.828-7.132 13.194-7.132 13.194 3.922-4.636 5.17-14.442c1.249-9.806 1.07-16.046-2.495-25.317s-5.35-14.442-2.14-23.178 8.736-9.27 6.062-13.728c-2.674-4.457-5.17-7.132-5.17-7.132" style="display:inline;mix-blend-mode:normal;fill:#747372;fill-opacity:.940959;stroke-width:1.18299;stroke-linecap:round;stroke-linejoin:round;paint-order:markers fill stroke;filter:url(#k)" transform="matrix(.25314 0 0 .26458 -146.994 -66.09)"/></g><g style="display:inline" transform="translate(-13.876 58.173)"><path d="M33.595 151.708h145.653a5.29 5.29 45 0 1 5.292 5.291v10.55a5.29 5.29 135 0 1-5.292 5.292H33.595a5.29 5.29 45 0 1-5.291-5.291V157a5.29 5.29 135 0 1 5.291-5.292" style="display:inline;fill:#644e26;fill-opacity:1;stroke:none;stroke-width:.246;stroke-linecap:round;stroke-linejoin:round;paint-order:markers fill stroke" transform="matrix(.96242 0 0 .55843 -8.48 -67.067)"/><path d="M155.084 139.648h-18.68l5.47 16.366h13.21zm-122.751 0h18.68l-5.47 16.366h-13.21Z" style="display:inline;fill:#413218;fill-opacity:1;stroke-width:.225745;stroke-linecap:round;stroke-linejoin:round;paint-order:markers fill stroke"/><path d="M25.37 29.075h136.235V140.78H25.37z" style="display:inline;fill:#644e26;fill-opacity:1;stroke:none;stroke-width:.246;stroke-linecap:round;stroke-linejoin:round;paint-order:markers fill stroke"/><path d="M33.153 38.87v41.36h120.882V38.87Zm4.414 4.803h112.115v31.755H37.567Zm-4.414 44.564v41.362h120.882V88.237Zm4.414 4.803h112.115v31.755H37.567Z" style="display:inline;fill:#977639;fill-opacity:1;stroke:none;stroke-width:.255481;stroke-linecap:round;stroke-linejoin:round;paint-order:markers fill stroke"/><circle cx="82.983" cy="52.924" r="4.057" style="display:inline;fill:gray;fill-opacity:1;stroke:none;stroke-width:.246;stroke-linecap:round;stroke-linejoin:round;paint-order:markers fill stroke"/><circle cx="107.89" cy="52.924" r="4.057" style="display:inline;fill:gray;fill-opacity:1;stroke:none;stroke-width:.246;stroke-linecap:round;stroke-linejoin:round;paint-order:markers fill stroke"/><path d="M94.854 162.378h25.907a1.323 1.323 45 0 1 1.323 1.323v2.157a1.323 1.323 135 0 1-1.323 1.323H94.854a1.323 1.323 45 0 1-1.323-1.323v-2.157a1.323 1.323 135 0 1 1.323-1.323" style="display:inline;fill:#977639;fill-opacity:1;stroke:none;stroke-width:.246;stroke-linecap:round;stroke-linejoin:round;paint-order:markers fill stroke" transform="translate(-12.212 -111.803)"/><path d="M25.37 29.075h136.235v4.965H25.37z" style="display:inline;fill:#3a2d15;fill-opacity:1;stroke:none;stroke-width:.0518648;stroke-linecap:round;stroke-linejoin:round;paint-order:markers fill stroke"/><circle cx="82.983" cy="101.927" r="4.057" style="display:inline;fill:gray;fill-opacity:1;stroke:none;stroke-width:.246;stroke-linecap:round;stroke-linejoin:round;paint-order:markers fill stroke"/><circle cx="107.89" cy="101.927" r="4.057" style="display:inline;fill:gray;fill-opacity:1;stroke:none;stroke-width:.246;stroke-linecap:round;stroke-linejoin:round;paint-order:markers fill stroke"/><path d="M94.854 162.378h25.907a1.323 1.323 45 0 1 1.323 1.323v2.157a1.323 1.323 135 0 1-1.323 1.323H94.854a1.323 1.323 45 0 1-1.323-1.323v-2.157a1.323 1.323 135 0 1 1.323-1.323" style="display:inline;fill:#977639;fill-opacity:1;stroke:none;stroke-width:.246;stroke-linecap:round;stroke-linejoin:round;paint-order:markers fill stroke" transform="translate(-12.212 -62.8)"/><path d="m32.35 140.805 18.379-.034-1.551 4.499-16.829.033zm122.784 0-18.38-.034 1.551 4.499 16.829.033z" style="display:inline;fill:#2c2310;fill-opacity:1;stroke-width:.0173674;stroke-linecap:round;stroke-linejoin:round;paint-order:markers fill stroke"/></g><g style="display:inline"><path d="M52.649 79.67h35.318a1.59 1.59 45 0 1 1.587 1.587v48.15a1.59 1.59 135 0 1-1.587 1.587H52.649a1.59 1.59 45 0 1-1.588-1.588V81.257a1.59 1.59 135 0 1 1.588-1.587" style="fill:#000;fill-opacity:1;stroke:none;stroke-width:.246;stroke-linecap:round;stroke-linejoin:round;paint-order:markers fill stroke" transform="translate(-26.151 -55.505)"/><path d="M27.219 26.552h34.157v44.297H27.219z" style="fill:#fff;fill-opacity:1;stroke:none;stroke-width:.251506;stroke-linecap:round;stroke-linejoin:round;paint-order:markers fill stroke"/><circle cx="43.971" cy="73.018" r="1.58" style="fill:#414141;fill-opacity:1;stroke:none;stroke-width:.246;stroke-linecap:round;stroke-linejoin:round;paint-order:markers fill stroke"/><path d="M43.971 71.874a1.144 1.144 0 0 0-1.144 1.144 1.144 1.144 0 0 0 1.144 1.144 1.144 1.144 0 0 0 1.144-1.144 1.144 1.144 0 0 0-1.144-1.144m0 .188a.955.955 0 0 1 .956.956.955.955 0 0 1-.956.955.955.955 0 0 1-.955-.955.955.955 0 0 1 .955-.956" style="fill:#fff;fill-opacity:1;stroke:none;stroke-width:.178075;stroke-linecap:round;stroke-linejoin:round;paint-order:markers fill stroke"/><circle cx="43.971" cy="25.445" r=".646" style="fill:#414141;fill-opacity:1;stroke:none;stroke-width:.10061;stroke-linecap:round;stroke-linejoin:round;paint-order:markers fill stroke"/><path d="M26.497 24.165c-.877 0-1.587.71-1.587 1.587v48.15c0 .876.71 1.587 1.587 1.587h2.111c5.181-17.445 13.184-33.715 17.906-51.324z" style="opacity:.192308;fill:#fff;fill-opacity:1;stroke:none;stroke-width:.246;stroke-linecap:round;stroke-linejoin:round;paint-order:markers fill stroke"/></g></svg>