<svg xmlns="http://www.w3.org/2000/svg" width="160mm" height="217mm" viewBox="0 0 160 217"><defs><filter id="a" width="1.392" height="1.662" x="-.196" y="-.331" style="color-interpolation-filters:sRGB"><feGaussianBlur stdDeviation="3.919"/></filter><filter id="b" width="1.165" height="1.037" x="-.082" y="-.019" style="color-interpolation-filters:sRGB"><feGaussianBlur stdDeviation=".176"/></filter><filter id="c" width="2.48" height="1.096" x="-.74" y="-.048" style="color-interpolation-filters:sRGB"><feGaussianBlur stdDeviation=".138"/></filter><filter id="d" width="1.328" height="1.517" x="-.164" y="-.259" style="color-interpolation-filters:sRGB"><feGaussianBlur stdDeviation=".456"/></filter><filter id="e" width="1.149" height="1.365" x="-.075" y="-.183" style="color-interpolation-filters:sRGB"><feGaussianBlur stdDeviation=".335"/></filter><filter id="f" width="1.165" height="2.032" x="-.083" y="-.516" style="color-interpolation-filters:sRGB"><feGaussianBlur stdDeviation=".197"/></filter><filter id="g" width="1.227" height="1.851" x="-.113" y="-.425" style="color-interpolation-filters:sRGB"><feGaussianBlur stdDeviation=".102"/></filter><filter id="h" width="1.102" height="1.246" x="-.051" y="-.123" style="color-interpolation-filters:sRGB"><feGaussianBlur stdDeviation=".223"/></filter><filter id="i" width="1.521" height="1.502" x="-.26" y="-.251" style="color-interpolation-filters:sRGB"><feGaussianBlur stdDeviation=".112"/></filter><filter id="k" width="1.331" height="1.341" x="-.166" y="-.17" style="color-interpolation-filters:sRGB"><feGaussianBlur stdDeviation=".089"/></filter><filter id="l" width="1.644" height="1.077" x="-.322" y="-.039" style="color-interpolation-filters:sRGB"><feGaussianBlur stdDeviation="1.346"/></filter></defs><g style="display:inline"><path d="M66.523 96.293H91.74l11.475 28.42H55.182Z" style="display:inline;fill:#f6f3ca;fill-opacity:1;stroke-width:1.64723;stroke-linecap:round;stroke-linejoin:round;paint-order:markers fill stroke" transform="translate(32.078 -90.572)"/><path d="M77.383 125.853h3.491v7.483h-3.491z" style="display:inline;fill:#423c2f;fill-opacity:1;stroke:none;stroke-width:1.55028;stroke-linecap:round;stroke-linejoin:round;stroke-miterlimit:4;stroke-dasharray:none;stroke-opacity:1;paint-order:markers fill stroke" transform="translate(32.078 -90.572)"/><path d="M66.348 95.86h25.557l.514 2.1H65.84z" style="display:inline;fill:#69432a;stroke-width:1.92639;stroke-linecap:round;stroke-linejoin:round;paint-order:markers fill stroke" transform="translate(32.078 -90.572)"/><path d="M66.111 96.927H92.18" style="display:inline;fill:none;stroke:#fff;stroke-width:.417602;stroke-linecap:round;stroke-linejoin:round;stroke-dasharray:none;stroke-opacity:1;paint-order:markers fill stroke" transform="translate(32.078 -90.572)"/><path d="M55.477 123.945h47.47l.955 2.102h-49.37Z" style="display:inline;fill:#69432a;stroke-width:2.62542;stroke-linecap:round;stroke-linejoin:round;paint-order:markers fill stroke" transform="translate(32.078 -90.572)"/><path d="M55.138 125.013h48.319" style="display:inline;fill:none;stroke:#fff;stroke-width:.56855;stroke-linecap:round;stroke-linejoin:round;stroke-dasharray:none;stroke-opacity:1;paint-order:markers fill stroke" transform="translate(32.078 -90.572)"/><path d="M78.195 133.924c-1.2-.007-3.112.254-3.059 1.996.08 2.586 1.668 2.435 2.068 3.036.4.6 1.002 1.725.267 3.902-.868 2.569-2.902 5.43-1.835 9.54.673 2.59 1.608 4.076 3.477 4.164v.002h.016v-.002c1.869-.088 2.804-1.575 3.477-4.164 1.067-4.11-.967-6.971-1.835-9.54-.735-2.177-.133-3.302.267-3.902s1.989-.45 2.068-3.036c.077-2.501-3.882-1.951-3.985-1.937-.03-.004-.403-.056-.926-.06z" style="display:inline;fill:#423c2f;fill-opacity:1;stroke:none;stroke-width:.312999;stroke-linecap:round;stroke-linejoin:round;stroke-dasharray:none;stroke-opacity:1;paint-order:markers fill stroke" transform="translate(32.078 -90.572)"/><path d="M258.03 71.511h25.217l11.475 28.42h-48.033z" style="display:inline;fill:#f5e94e;fill-opacity:1;stroke-width:1.64723;stroke-linecap:round;stroke-linejoin:round;paint-order:markers fill stroke;filter:url(#a)" transform="translate(-155.798 -64.093)scale(.98802)"/><path d="M77.383 155.381h3.491v5.327h-3.491z" style="display:inline;fill:#423c2f;fill-opacity:1;stroke:none;stroke-width:1.308;stroke-linecap:round;stroke-linejoin:round;stroke-miterlimit:4;stroke-dasharray:none;stroke-opacity:1;paint-order:markers fill stroke" transform="translate(32.078 -90.572)"/><path d="M78.964 161.83a16.299 8.89 0 0 0-14.276 4.622H93.26a16.299 8.89 0 0 0-14.296-4.623" style="display:inline;fill:#423c2f;fill-opacity:1;stroke:none;stroke-width:.251159;stroke-linecap:round;stroke-linejoin:round;stroke-dasharray:none;stroke-opacity:1;paint-order:markers fill stroke" transform="translate(32.078 -90.572)"/><path d="M279.487 135.826h4.68a.53.53 45 0 1 .528.53v.309a.53.53 135 0 1-.529.53h-4.679a.53.53 45 0 1-.529-.53v-.31a.53.53 135 0 1 .53-.529" style="display:inline;fill:#423c2f;fill-opacity:1;stroke:none;stroke-width:.312999;stroke-linecap:round;stroke-linejoin:round;stroke-dasharray:none;stroke-opacity:1;paint-order:markers fill stroke" transform="matrix(1 0 0 1.46341 -170.651 -128.839)"/><path d="M279.487 135.826h4.68a.53.53 45 0 1 .528.53v.309a.53.53 135 0 1-.529.53h-4.679a.53.53 45 0 1-.529-.53v-.31a.53.53 135 0 1 .53-.529" style="display:inline;fill:#423c2f;fill-opacity:1;stroke:none;stroke-width:.312999;stroke-linecap:round;stroke-linejoin:round;stroke-dasharray:none;stroke-opacity:1;paint-order:markers fill stroke" transform="translate(-170.651 -93.347)"/><path d="M266.98 140.43h29.626a.265.265 45 0 1 .264.264v.172a.265.265 135 0 1-.264.264H266.98a.265.265 45 0 1-.265-.264v-.172a.265.265 135 0 1 .265-.264" style="display:inline;fill:#423c2f;fill-opacity:1;stroke:none;stroke-width:.312999;stroke-linecap:round;stroke-linejoin:round;stroke-dasharray:none;stroke-opacity:1;paint-order:markers fill stroke" transform="matrix(.9459 0 0 1 -155.463 -64.915)"/><path d="M79.516 133.922q-.115 0-.22.004c1.194.029 2.87.356 2.82 1.994-.08 2.586-1.668 2.435-2.068 3.035s-1.002 1.726-.267 3.903c.868 2.568 2.902 5.43 1.835 9.54-.649 2.498-1.545 3.966-3.285 4.145q.095.012.192.019v.002h.016v-.002c1.869-.088 2.804-1.575 3.477-4.164 1.067-4.11-.968-6.972-1.835-9.54-.735-2.177-.133-3.302.267-3.903.4-.6 1.989-.449 2.068-3.035.053-1.72-1.802-1.997-3-1.998m-1.911.002c-.065 0-.137.004-.205.005.414.013.704.051.731.055l.192-.023a7 7 0 0 0-.718-.037" style="display:inline;mix-blend-mode:normal;fill:#978c4e;fill-opacity:1;stroke:none;stroke-width:.312999;stroke-linecap:round;stroke-linejoin:round;stroke-dasharray:none;stroke-opacity:1;paint-order:markers fill stroke;filter:url(#b)" transform="translate(32.078 -90.572)"/><path d="M79.766 126.048h.448v6.887h-.448z" style="display:inline;fill:#7a7044;fill-opacity:1;stroke:none;stroke-width:.312999;stroke-linecap:round;stroke-linejoin:round;stroke-opacity:1;paint-order:markers fill stroke;filter:url(#c)" transform="translate(32.078 -90.572)"/><path d="M282.494 128.69h.448v6.887h-.448z" style="display:inline;fill:#7a7044;fill-opacity:1;stroke:none;stroke-width:.312999;stroke-linecap:round;stroke-linejoin:round;stroke-opacity:1;paint-order:markers fill stroke;filter:url(#c)" transform="matrix(1 0 0 .6289 -170.651 -15.262)"/><path d="M76.249 162.063c-2.807.99-4.977 2.147-5.708 2.854s-.961 1.379-.961 1.379h2.11s1.117-1.701 2.751-2.802c1.635-1.1 1.808-1.43 1.808-1.43" style="display:inline;fill:#7c7244;fill-opacity:1;stroke:none;stroke-width:.312999;stroke-linecap:round;stroke-linejoin:round;stroke-opacity:1;paint-order:markers fill stroke;filter:url(#d)" transform="translate(32.078 -90.572)"/><path d="M80.424 162.37s6.203 1.061 8.42 2.689a197 197 0 0 0 2.359 1.721h-4.41s-.732-1.014-2.36-2.052c-1.627-1.037-4.01-2.358-4.01-2.358" style="display:inline;fill:#7c7244;fill-opacity:1;stroke:none;stroke-width:.312999;stroke-linecap:round;stroke-linejoin:round;stroke-opacity:1;paint-order:markers fill stroke;filter:url(#e)" transform="translate(32.078 -90.572)"/><path d="M279.487 135.826a.53.53 0 0 0-.53.53v.309l.011.08a.53.53 0 0 1 .519-.451h4.68a.53.53 0 0 1 .522.45l.007-.079v-.31a.53.53 0 0 0-.53-.529z" style="display:inline;mix-blend-mode:normal;fill:#b3a659;fill-opacity:1;stroke:none;stroke-width:.312999;stroke-linecap:round;stroke-linejoin:round;stroke-dasharray:none;stroke-opacity:1;paint-order:markers fill stroke;filter:url(#f)" transform="matrix(.94511 0 0 .4815 -155.094 -22.69)"/><path d="m79.804 133.155 1.851.033s.434.367.284.517-.25-.367-.884-.35-1.25-.2-1.25-.2" style="display:inline;fill:#7c7c7c;fill-opacity:1;stroke:none;stroke-width:.312999;stroke-linecap:round;stroke-linejoin:round;stroke-opacity:1;paint-order:markers fill stroke;filter:url(#g)" transform="translate(32.078 -90.572)"/><path d="M282.494 128.69h.448v6.887h-.448z" style="display:inline;fill:#2a271e;fill-opacity:.921569;stroke:none;stroke-width:.312999;stroke-linecap:round;stroke-linejoin:round;stroke-opacity:1;paint-order:markers fill stroke;filter:url(#c)" transform="matrix(1 0 0 .6289 -172.632 -15.262)"/><path d="M282.494 128.69h.448v6.887h-.448z" style="display:inline;fill:#2a271e;fill-opacity:.921569;stroke:none;stroke-width:.312999;stroke-linecap:round;stroke-linejoin:round;stroke-opacity:1;paint-order:markers fill stroke;filter:url(#c)" transform="matrix(1 0 0 .95582 -172.632 -87.045)"/><path d="M76.249 161.85c-2.547.425-5.897 1.416-7.406 2.17-1.51.756-3.114 2.17-3.114 2.17h1.793s2.028-1.65 4.481-2.688a72 72 0 0 1 4.246-1.651" style="display:inline;fill:#2a271e;fill-opacity:.921569;stroke-width:.312999;stroke-linecap:round;stroke-linejoin:round;paint-order:markers fill stroke;filter:url(#h)" transform="translate(32.078 -90.572)"/><path d="M77.381 133.217c-.495-.024-.802-.26-.92.118-.118.377-.165 1.085 0 .778s-.047-.236.213-.424c.259-.189-.095-.142.33-.283.424-.142.377-.189.377-.189" style="display:inline;fill:#2a271e;fill-opacity:.921569;stroke-width:.312999;stroke-linecap:round;stroke-linejoin:round;paint-order:markers fill stroke;filter:url(#i)" transform="translate(32.078 -90.572)"/><path d="M77.617 160.636c-.342.024-.743-.141-.92-.023s-.413.46-.354.766c.06.307.06.495.06.425s-.013-.248.212-.496c.224-.247.684-.483.86-.519.177-.035.142-.153.142-.153" style="display:inline;fill:#2a271e;fill-opacity:.921569;stroke-width:.312999;stroke-linecap:round;stroke-linejoin:round;paint-order:markers fill stroke;filter:url(#k)" transform="translate(32.078 -90.572)"/><path d="m66.537 97.885 1.097.184L57.2 123.947l-.472.005zm2.602 0 1.38.137-9.723 25.924-.742-.003zm2.732.092 1.207-.05-9.298 26.02-.706-.004zm2.45 0 1.276-.002-7.038 25.972-.705-.004zm1.935 0 1.276-.002-4.704 25.972-.705-.004zm2.253 0 1.276-.002-3.012 25.972-.705-.004zm3.075 0-1.276-.002 2.063 25.972.705-.004zm10.264-.092-1.096.184 10.433 25.878.472.005zm-2.061 0-1.38.137 9.722 25.924.742-.003zm-2.557.092-1.14-.05 6.763 26.02.705-.004zm-2.823 0-1.276-.002 4.503 25.972.705-.004z" style="display:inline;fill:#ded044;fill-opacity:1;stroke-width:.312999;stroke-linecap:round;stroke-linejoin:round;paint-order:markers fill stroke" transform="translate(32.078 -90.572)"/><path d="M1021.25 412.565s9.45 2.14 6.597 9.271-4.457 11.054-5.17 11.768c-.713.713-2.318 5.705-.713 12.836s4.635 16.582 5.705 18.9 1.961 9.27-.713 17.828-7.132 13.194-7.132 13.194 3.922-4.636 5.17-14.442c1.249-9.806 1.07-16.046-2.495-25.317s-5.35-14.442-2.14-23.178 8.736-9.27 6.062-13.728c-2.674-4.457-5.17-7.132-5.17-7.132" style="display:inline;mix-blend-mode:normal;fill:#665e3c;fill-opacity:1;stroke-width:1.18299;stroke-linecap:round;stroke-linejoin:round;paint-order:markers fill stroke;filter:url(#l)" transform="matrix(.25314 0 0 .26458 -147.006 -65.758)"/><path d="M267.554 109.14q-.115.001-.22.005c1.194.028 2.87.356 2.82 1.993-.08 2.586-1.668 2.435-2.068 3.036-.4.6-1.002 1.726-.267 3.902.868 2.569 2.902 5.43 1.835 9.54-.649 2.498-1.545 3.966-3.285 4.145q.095.012.192.019v.002h.016v-.002c1.869-.087 2.804-1.575 3.477-4.164 1.067-4.11-.967-6.971-1.835-9.54-.735-2.176-.133-3.302.267-3.902s1.989-.45 2.068-3.036c.053-1.72-1.802-1.997-3-1.998m-1.911.003c-.064 0-.137.004-.205.005.414.012.704.05.731.054.012-.002.086-.012.192-.022a7 7 0 0 0-.718-.038z" style="display:inline;mix-blend-mode:normal;fill:#59522e;fill-opacity:1;stroke:none;stroke-width:.312999;stroke-linecap:round;stroke-linejoin:round;stroke-dasharray:none;stroke-opacity:1;paint-order:markers fill stroke;filter:url(#b)" transform="matrix(-1 0 0 1 378.298 -65.79)"/></g><g style="display:inline"><path d="M52.649 79.67h35.318a1.59 1.59 45 0 1 1.587 1.587v48.15a1.59 1.59 135 0 1-1.587 1.587H52.649a1.59 1.59 45 0 1-1.588-1.588V81.257a1.59 1.59 135 0 1 1.588-1.587" style="fill:#000;fill-opacity:1;stroke:none;stroke-width:.246;stroke-linecap:round;stroke-linejoin:round;paint-order:markers fill stroke" transform="translate(-26.151 -55.505)"/><path d="M27.219 26.552h34.157v44.297H27.219z" style="fill:#fff;fill-opacity:1;stroke:none;stroke-width:.251506;stroke-linecap:round;stroke-linejoin:round;paint-order:markers fill stroke"/><circle cx="43.971" cy="73.018" r="1.58" style="fill:#414141;fill-opacity:1;stroke:none;stroke-width:.246;stroke-linecap:round;stroke-linejoin:round;paint-order:markers fill stroke"/><path d="M43.971 71.874a1.144 1.144 0 0 0-1.144 1.144 1.144 1.144 0 0 0 1.144 1.144 1.144 1.144 0 0 0 1.144-1.144 1.144 1.144 0 0 0-1.144-1.144m0 .188a.955.955 0 0 1 .956.956.955.955 0 0 1-.956.955.955.955 0 0 1-.955-.955.955.955 0 0 1 .955-.956" style="fill:#fff;fill-opacity:1;stroke:none;stroke-width:.178075;stroke-linecap:round;stroke-linejoin:round;paint-order:markers fill stroke"/><circle cx="43.971" cy="25.445" r=".646" style="fill:#414141;fill-opacity:1;stroke:none;stroke-width:.10061;stroke-linecap:round;stroke-linejoin:round;paint-order:markers fill stroke"/><path d="M26.497 24.165c-.877 0-1.587.71-1.587 1.587v48.15c0 .876.71 1.587 1.587 1.587h2.111c5.181-17.445 13.184-33.715 17.906-51.324z" style="opacity:.192308;fill:#fff;fill-opacity:1;stroke:none;stroke-width:.246;stroke-linecap:round;stroke-linejoin:round;paint-order:markers fill stroke"/></g><g style="display:inline"><path d="M33.595 151.708h145.653a5.29 5.29 45 0 1 5.292 5.291v10.55a5.29 5.29 135 0 1-5.292 5.292H33.595a5.29 5.29 45 0 1-5.291-5.291V157a5.29 5.29 135 0 1 5.291-5.292" style="fill:#4a3a1c;stroke:none;stroke-width:.246;stroke-linecap:round;stroke-linejoin:round;paint-order:markers fill stroke" transform="matrix(.96242 0 0 .55843 -22.42 -9.07)"/><path d="M141.145 197.645h-18.68l5.47 16.366h13.21zm-122.752 0h18.68l-5.47 16.366h-13.21Z" style="fill:#332813;stroke-width:.225745;stroke-linecap:round;stroke-linejoin:round;paint-order:markers fill stroke"/><path d="M11.431 87.072h136.235v111.705H11.431z" style="fill:#4a3a1c;stroke:none;stroke-width:.246;stroke-linecap:round;stroke-linejoin:round;paint-order:markers fill stroke"/><path d="M19.213 96.866v41.362h120.883V96.866Zm4.415 4.804h112.115v31.755H23.628Zm-4.415 44.564v41.361h120.883v-41.361zm4.415 4.803h112.115v31.755H23.628Z" style="fill:#8e6f36;fill-opacity:1;stroke:none;stroke-width:.255481;stroke-linecap:round;stroke-linejoin:round;paint-order:markers fill stroke"/><circle cx="69.043" cy="110.921" r="4.057" style="fill:gray;fill-opacity:1;stroke:none;stroke-width:.246;stroke-linecap:round;stroke-linejoin:round;paint-order:markers fill stroke"/><circle cx="93.951" cy="110.921" r="4.057" style="fill:gray;fill-opacity:1;stroke:none;stroke-width:.246;stroke-linecap:round;stroke-linejoin:round;paint-order:markers fill stroke"/><path d="M94.854 162.378h25.907a1.323 1.323 45 0 1 1.323 1.323v2.157a1.323 1.323 135 0 1-1.323 1.323H94.854a1.323 1.323 45 0 1-1.323-1.323v-2.157a1.323 1.323 135 0 1 1.323-1.323" style="fill:#8e6f36;fill-opacity:1;stroke:none;stroke-width:.246;stroke-linecap:round;stroke-linejoin:round;paint-order:markers fill stroke" transform="translate(-26.151 -53.807)"/><path d="M11.431 87.072h136.235v4.965H11.431z" style="fill:#332813;fill-opacity:1;stroke:none;stroke-width:.0518648;stroke-linecap:round;stroke-linejoin:round;paint-order:markers fill stroke"/><circle cx="69.043" cy="159.924" r="4.057" style="fill:gray;fill-opacity:1;stroke:none;stroke-width:.246;stroke-linecap:round;stroke-linejoin:round;paint-order:markers fill stroke"/><circle cx="93.951" cy="159.924" r="4.057" style="fill:gray;fill-opacity:1;stroke:none;stroke-width:.246;stroke-linecap:round;stroke-linejoin:round;paint-order:markers fill stroke"/><path d="M94.854 162.378h25.907a1.323 1.323 45 0 1 1.323 1.323v2.157a1.323 1.323 135 0 1-1.323 1.323H94.854a1.323 1.323 45 0 1-1.323-1.323v-2.157a1.323 1.323 135 0 1 1.323-1.323" style="fill:#8e6f36;fill-opacity:1;stroke:none;stroke-width:.246;stroke-linecap:round;stroke-linejoin:round;paint-order:markers fill stroke" transform="translate(-26.151 -4.803)"/><path d="m18.369 198.815 18.38-.033-1.552 4.498-16.828.034zm122.784 0-18.38-.033 1.552 4.498 16.828.034z" style="fill:#211a0c;stroke-width:.0173674;stroke-linecap:round;stroke-linejoin:round;paint-order:markers fill stroke"/></g></svg>