<svg xmlns="http://www.w3.org/2000/svg" width="88mm" height="217mm" viewBox="0 0 88 217"><defs><filter id="a" width="1.165" height="1.037" x="-.082" y="-.019" style="color-interpolation-filters:sRGB"><feGaussianBlur stdDeviation=".176"/></filter><filter id="b" width="2.48" height="1.096" x="-.74" y="-.048" style="color-interpolation-filters:sRGB"><feGaussianBlur stdDeviation=".138"/></filter><filter id="k" width="2.057" height="1.127" x="-.528" y="-.063" style="color-interpolation-filters:sRGB"><feGaussianBlur stdDeviation="2.209"/></filter><filter id="c" width="1.328" height="1.517" x="-.164" y="-.259" style="color-interpolation-filters:sRGB"><feGaussianBlur stdDeviation=".456"/></filter><filter id="d" width="1.149" height="1.365" x="-.075" y="-.183" style="color-interpolation-filters:sRGB"><feGaussianBlur stdDeviation=".335"/></filter><filter id="e" width="1.227" height="1.851" x="-.113" y="-.425" style="color-interpolation-filters:sRGB"><feGaussianBlur stdDeviation=".102"/></filter><filter id="f" width="1.205" height="1.249" x="-.102" y="-.124" style="color-interpolation-filters:sRGB"><feGaussianBlur stdDeviation=".057"/></filter><filter id="g" width="1.129" height="1.03" x="-.064" y="-.015" style="color-interpolation-filters:sRGB"><feGaussianBlur stdDeviation=".14"/></filter><filter id="h" width="1.102" height="1.246" x="-.051" y="-.123" style="color-interpolation-filters:sRGB"><feGaussianBlur stdDeviation=".223"/></filter><filter id="i" width="1.521" height="1.502" x="-.26" y="-.251" style="color-interpolation-filters:sRGB"><feGaussianBlur stdDeviation=".112"/></filter><filter id="j" width="1.331" height="1.341" x="-.166" y="-.17" style="color-interpolation-filters:sRGB"><feGaussianBlur stdDeviation=".089"/></filter></defs><g style="display:inline"><path d="M33.595 151.708h145.653a5.29 5.29 45 0 1 5.292 5.291v10.55a5.29 5.29 135 0 1-5.292 5.292H33.595a5.29 5.29 45 0 1-5.291-5.291V157a5.29 5.29 135 0 1 5.291-5.292" style="display:inline;fill:#644e26;fill-opacity:1;stroke:none;stroke-width:.246;stroke-linecap:round;stroke-linejoin:round;paint-order:markers fill stroke" transform="matrix(.48419 0 0 .55843 -10.813 -9.708)"/><path d="M13.99 197.008h18.68l-5.47 16.366H13.99zm55.262 0h-18.68l5.47 16.366h13.21z" style="display:inline;fill:#413218;stroke-width:.225745;stroke-linecap:round;stroke-linejoin:round;paint-order:markers fill stroke;fill-opacity:1"/><path d="M7.679 86.435h66.854V198.14H7.679z" style="display:inline;fill:#644e26;fill-opacity:1;stroke:none;stroke-width:.172328;stroke-linecap:round;stroke-linejoin:round;paint-order:markers fill stroke"/><path d="M13.7 145.855v41.362h55.03v-41.362zm4.415 4.803h46.262v31.756H18.115Z" style="display:inline;fill:#8e6f36;fill-opacity:1;stroke:none;stroke-width:.255481;stroke-linecap:round;stroke-linejoin:round;paint-order:markers fill stroke"/><circle cx="29.355" cy="110.284" r="4.057" style="display:inline;fill:gray;fill-opacity:1;stroke:none;stroke-width:.246;stroke-linecap:round;stroke-linejoin:round;paint-order:markers fill stroke"/><circle cx="54.262" cy="110.284" r="4.057" style="display:inline;fill:gray;fill-opacity:1;stroke:none;stroke-width:.246;stroke-linecap:round;stroke-linejoin:round;paint-order:markers fill stroke"/><path d="M94.854 162.378h25.907a1.323 1.323 45 0 1 1.323 1.323v2.157a1.323 1.323 135 0 1-1.323 1.323H94.854a1.323 1.323 45 0 1-1.323-1.323v-2.157a1.323 1.323 135 0 1 1.323-1.323" style="display:inline;fill:#8e6f36;fill-opacity:1;stroke:none;stroke-width:.246;stroke-linecap:round;stroke-linejoin:round;paint-order:markers fill stroke" transform="translate(-65.84 -54.444)"/><path d="M13.7 96.23v41.361h55.03V96.229Zm4.415 4.803h46.262v31.755H18.115Z" style="display:inline;fill:#8e6f36;fill-opacity:1;stroke:none;stroke-width:.255481;stroke-linecap:round;stroke-linejoin:round;paint-order:markers fill stroke"/><circle cx="29.355" cy="159.344" r="4.057" style="display:inline;fill:gray;fill-opacity:1;stroke:none;stroke-width:.246;stroke-linecap:round;stroke-linejoin:round;paint-order:markers fill stroke"/><circle cx="54.262" cy="159.344" r="4.057" style="display:inline;fill:gray;fill-opacity:1;stroke:none;stroke-width:.246;stroke-linecap:round;stroke-linejoin:round;paint-order:markers fill stroke"/><path d="M94.854 162.378h25.907a1.323 1.323 45 0 1 1.323 1.323v2.157a1.323 1.323 135 0 1-1.323 1.323H94.854a1.323 1.323 45 0 1-1.323-1.323v-2.157a1.323 1.323 135 0 1 1.323-1.323" style="display:inline;fill:#8e6f36;fill-opacity:1;stroke:none;stroke-width:.246;stroke-linecap:round;stroke-linejoin:round;paint-order:markers fill stroke" transform="translate(-65.84 -5.384)"/><path d="m13.965 198.178 18.38-.033-1.551 4.498-16.829.033zm55.311 0-18.38-.033 1.552 4.498 16.828.033z" style="display:inline;fill:#2c2310;stroke-width:.0173674;stroke-linecap:round;stroke-linejoin:round;paint-order:markers fill stroke;fill-opacity:1"/><path d="M7.677 86.435H74.55V91.4H7.677z" style="display:inline;fill:#3a2d15;fill-opacity:1;stroke:none;stroke-width:.0363375;stroke-linecap:round;stroke-linejoin:round;paint-order:markers fill stroke"/><path d="M282.436 89.628h17.807a1.85 1.85 45 0 1 1.852 1.852v37.43a1.85 1.85 135 0 1-1.852 1.853h-17.807a1.85 1.85 45 0 1-1.852-1.852V91.48a1.85 1.85 135 0 1 1.852-1.853" style="display:inline;fill:#000;fill-opacity:1;stroke-width:.246;stroke-linecap:round;stroke-linejoin:round;paint-order:markers fill stroke" transform="translate(-268.874 -56.129)"/><path d="M282.436 89.628h17.807a1.85 1.85 45 0 1 1.852 1.852v37.43a1.85 1.85 135 0 1-1.852 1.853h-17.807a1.85 1.85 45 0 1-1.852-1.852V91.48a1.85 1.85 135 0 1 1.852-1.853" style="display:inline;fill:#e3dbdb;fill-opacity:1;stroke-width:.246;stroke-linecap:round;stroke-linejoin:round;paint-order:markers fill stroke" transform="matrix(.93486 0 0 .9647 -249.889 -52.199)"/><path d="M287.993 91.33h6.58a.53.53 45 0 1 .53.528v.11a.53.53 135 0 1-.53.529h-6.58a.53.53 45 0 1-.53-.53v-.109a.53.53 135 0 1 .53-.529" style="display:inline;fill:#000;fill-opacity:1;stroke-width:.231762;stroke-linecap:round;stroke-linejoin:round;paint-order:markers fill stroke" transform="matrix(1 0 0 .65655 -268.874 -24.762)"/></g><g style="display:inline"><path d="M47.69 4.424h25.218l11.474 28.42H36.35z" style="display:inline;fill:#f6f3ca;fill-opacity:1;stroke-width:1.64723;stroke-linecap:round;stroke-linejoin:round;paint-order:markers fill stroke"/><path d="M58.551 33.984h3.491v7.483h-3.491z" style="display:inline;fill:#423c2f;fill-opacity:1;stroke:none;stroke-width:1.55028;stroke-linecap:round;stroke-linejoin:round;stroke-miterlimit:4;stroke-dasharray:none;stroke-opacity:1;paint-order:markers fill stroke"/><path d="M47.516 3.99h25.557l.514 2.101h-26.58z" style="display:inline;fill:#69432a;stroke-width:1.92639;stroke-linecap:round;stroke-linejoin:round;paint-order:markers fill stroke"/><path d="M47.28 5.057h26.067" style="display:inline;fill:none;stroke:#fff;stroke-width:.417602;stroke-linecap:round;stroke-linejoin:round;stroke-dasharray:none;stroke-opacity:1;paint-order:markers fill stroke"/><path d="M36.645 32.076h47.47l.954 2.101H35.7z" style="display:inline;fill:#69432a;stroke-width:2.62542;stroke-linecap:round;stroke-linejoin:round;paint-order:markers fill stroke"/><path d="M36.306 33.143h48.318" style="display:inline;fill:none;stroke:#fff;stroke-width:.56855;stroke-linecap:round;stroke-linejoin:round;stroke-dasharray:none;stroke-opacity:1;paint-order:markers fill stroke"/><path d="M59.362 42.055c-1.2-.007-3.112.254-3.058 1.996.079 2.586 1.667 2.435 2.068 3.035.4.6 1.001 1.726.266 3.903-.867 2.568-2.902 5.43-1.834 9.54.672 2.589 1.608 4.076 3.477 4.164v.002l.008-.001h.008v-.001c1.868-.088 2.804-1.575 3.476-4.164 1.068-4.11-.967-6.972-1.834-9.54-.735-2.177-.134-3.302.267-3.903.4-.6 1.988-.449 2.068-3.035.076-2.502-3.883-1.952-3.985-1.937-.031-.004-.403-.056-.926-.06z" style="display:inline;fill:#423c2f;fill-opacity:1;stroke:none;stroke-width:.312999;stroke-linecap:round;stroke-linejoin:round;stroke-dasharray:none;stroke-opacity:1;paint-order:markers fill stroke"/><path d="M58.551 63.512h3.491v5.327h-3.491z" style="display:inline;fill:#423c2f;fill-opacity:1;stroke:none;stroke-width:1.308;stroke-linecap:round;stroke-linejoin:round;stroke-miterlimit:4;stroke-dasharray:none;stroke-opacity:1;paint-order:markers fill stroke"/><path d="M60.132 69.96a16.299 8.89 0 0 0-14.276 4.623h28.572a16.299 8.89 0 0 0-14.296-4.623" style="display:inline;fill:#423c2f;fill-opacity:1;stroke:none;stroke-width:.251159;stroke-linecap:round;stroke-linejoin:round;stroke-dasharray:none;stroke-opacity:1;paint-order:markers fill stroke"/><path d="M279.487 135.826h4.68a.53.53 45 0 1 .528.53v.309a.53.53 135 0 1-.529.53h-4.679a.53.53 45 0 1-.529-.53v-.31a.53.53 135 0 1 .53-.529" style="display:inline;fill:#423c2f;fill-opacity:1;stroke:none;stroke-width:.312999;stroke-linecap:round;stroke-linejoin:round;stroke-dasharray:none;stroke-opacity:1;paint-order:markers fill stroke" transform="matrix(1 0 0 1.46341 -221.561 -130.136)"/><path d="M279.487 135.826h4.68a.53.53 45 0 1 .528.53v.309a.53.53 135 0 1-.529.53h-4.679a.53.53 45 0 1-.529-.53v-.31a.53.53 135 0 1 .53-.529" style="display:inline;fill:#423c2f;fill-opacity:1;stroke:none;stroke-width:.312999;stroke-linecap:round;stroke-linejoin:round;stroke-dasharray:none;stroke-opacity:1;paint-order:markers fill stroke" transform="translate(-221.561 -94.644)"/><path d="M266.98 140.43h29.626a.265.265 45 0 1 .264.264v.172a.265.265 135 0 1-.264.264H266.98a.265.265 45 0 1-.265-.264v-.172a.265.265 135 0 1 .265-.264" style="display:inline;fill:#423c2f;fill-opacity:1;stroke:none;stroke-width:.312999;stroke-linecap:round;stroke-linejoin:round;stroke-dasharray:none;stroke-opacity:1;paint-order:markers fill stroke" transform="matrix(.9459 0 0 1 -206.373 -66.212)"/><path d="M60.684 42.053q-.116 0-.22.004c1.194.028 2.87.356 2.82 1.994-.08 2.586-1.668 2.435-2.069 3.035-.4.6-1.001 1.726-.266 3.903.867 2.568 2.902 5.43 1.834 9.54-.648 2.497-1.545 3.966-3.285 4.145q.094.012.193.018v.002h.016v-.002c1.868-.087 2.804-1.574 3.476-4.163 1.068-4.11-.967-6.972-1.834-9.54-.735-2.177-.134-3.302.266-3.903.4-.6 1.99-.449 2.069-3.035.052-1.72-1.803-1.997-3-1.998m-1.912.002c-.064 0-.137.004-.204.005.414.013.704.05.73.054.013-.002.087-.011.193-.022a7 7 0 0 0-.718-.037z" style="display:inline;mix-blend-mode:normal;fill:#8d8d8d;fill-opacity:1;stroke:none;stroke-width:.312999;stroke-linecap:round;stroke-linejoin:round;stroke-dasharray:none;stroke-opacity:1;paint-order:markers fill stroke;filter:url(#a)"/><path d="M60.933 34.179h.448v6.887h-.448z" style="display:inline;fill:#8d8d8d;stroke:none;stroke-width:.312999;stroke-linecap:round;stroke-linejoin:round;stroke-opacity:1;paint-order:markers fill stroke;filter:url(#b)"/><path d="M282.494 128.69h.448v6.887h-.448z" style="display:inline;fill:#8d8d8d;stroke:none;stroke-width:.312999;stroke-linecap:round;stroke-linejoin:round;stroke-opacity:1;paint-order:markers fill stroke;filter:url(#b)" transform="matrix(1 0 0 .6289 -221.561 -16.56)"/><path d="M57.417 70.194c-2.807.99-4.977 2.146-5.708 2.854-.732.708-.962 1.379-.962 1.379h2.11s1.118-1.701 2.752-2.802 1.808-1.431 1.808-1.431" style="display:inline;fill:#525252;fill-opacity:1;stroke:none;stroke-width:.312999;stroke-linecap:round;stroke-linejoin:round;stroke-opacity:1;paint-order:markers fill stroke;filter:url(#c)"/><path d="M61.591 70.5s6.204 1.062 8.42 2.69a197 197 0 0 0 2.36 1.721H67.96s-.732-1.014-2.359-2.052-4.01-2.358-4.01-2.358" style="display:inline;fill:#8c8c8c;fill-opacity:1;stroke:none;stroke-width:.312999;stroke-linecap:round;stroke-linejoin:round;stroke-opacity:1;paint-order:markers fill stroke;filter:url(#d)"/><path d="m60.972 41.286 1.85.033s.435.367.284.517c-.15.15-.25-.367-.883-.35a4 4 0 0 1-1.251-.2" style="display:inline;fill:#7c7c7c;fill-opacity:1;stroke:none;stroke-width:.312999;stroke-linecap:round;stroke-linejoin:round;stroke-opacity:1;paint-order:markers fill stroke;filter:url(#e)"/><path d="M61.764 68.755c.95-.084.967-.117 1.117.1.15.216.2 1.159.159.884-.042-.276.091-.618-.342-.768s-1.06-.008-.967-.1c.091-.091.025-.116.033-.116" style="display:inline;fill:#7c7c7c;fill-opacity:1;stroke:none;stroke-width:.312999;stroke-linecap:round;stroke-linejoin:round;stroke-opacity:1;paint-order:markers fill stroke;filter:url(#f)"/><path d="M61.557 42.053c-.294 0-.535.017-.711.033.143.013.245.026.26.028.025-.004.3-.041.693-.056a7 7 0 0 0-.242-.006zm-1.911.002c-1.2-.007-3.112.254-3.06 1.996.08 2.586 1.669 2.435 2.069 3.036.4.6 1.002 1.725.267 3.902-.868 2.569-2.902 5.43-1.835 9.54.673 2.59 1.608 4.076 3.477 4.164v.002h.016v-.002q.132-.008.259-.026c-1.697-.21-2.578-1.672-3.218-4.138-1.068-4.11.967-6.971 1.834-9.54.735-2.177.134-3.302-.266-3.902s-1.99-.45-2.068-3.036c-.05-1.615 1.584-1.954 2.78-1.99-.082-.002-.163-.005-.255-.006" style="display:inline;mix-blend-mode:normal;fill:#2a261e;fill-opacity:1;stroke:none;stroke-width:.312999;stroke-linecap:round;stroke-linejoin:round;stroke-dasharray:none;stroke-opacity:1;paint-order:markers fill stroke;filter:url(#g)"/><path d="M282.494 128.69h.448v6.887h-.448z" style="display:inline;fill:#2a271e;fill-opacity:.921569;stroke:none;stroke-width:.312999;stroke-linecap:round;stroke-linejoin:round;stroke-opacity:1;paint-order:markers fill stroke;filter:url(#b)" transform="matrix(1 0 0 .6289 -223.542 -16.56)"/><path d="M282.494 128.69h.448v6.887h-.448z" style="display:inline;fill:#2a271e;fill-opacity:.921569;stroke:none;stroke-width:.312999;stroke-linecap:round;stroke-linejoin:round;stroke-opacity:1;paint-order:markers fill stroke;filter:url(#b)" transform="matrix(1 0 0 .95582 -223.542 -88.343)"/><path d="M57.417 69.982c-2.548.424-5.897 1.415-7.407 2.17s-3.113 2.17-3.113 2.17h1.793s2.028-1.651 4.481-2.69a72 72 0 0 1 4.246-1.65" style="display:inline;fill:#2a271e;fill-opacity:.921569;stroke-width:.312999;stroke-linecap:round;stroke-linejoin:round;paint-order:markers fill stroke;filter:url(#h)"/><path d="M58.549 41.348c-.496-.024-.802-.26-.92.118-.118.377-.165 1.085 0 .778s-.047-.236.212-.424c.26-.19-.094-.142.33-.283.425-.142.378-.19.378-.19" style="display:inline;fill:#2a271e;fill-opacity:.921569;stroke-width:.312999;stroke-linecap:round;stroke-linejoin:round;paint-order:markers fill stroke;filter:url(#i)"/><path d="M58.785 68.767c-.342.024-.743-.142-.92-.024s-.413.46-.354.767.059.495.059.425-.012-.248.212-.496c.224-.247.684-.483.861-.519.177-.035.142-.153.142-.153" style="display:inline;fill:#2a271e;fill-opacity:.921569;stroke-width:.312999;stroke-linecap:round;stroke-linejoin:round;paint-order:markers fill stroke;filter:url(#j)"/><path d="m47.704 6.016 1.097.184-10.433 25.878-.472.005zm2.602 0 1.38.137-9.722 25.924-.742-.003zm2.733.092 1.206-.05-9.298 26.02-.705-.004zm2.45 0 1.276-.002-7.039 25.972-.705-.004zm1.934 0 1.277-.002-4.704 25.972-.705-.004zm2.253 0 1.276-.002-3.012 25.972-.705-.004zm3.076 0-1.277-.002 2.063 25.972.706-.004zm10.264-.092L71.92 6.2l10.434 25.878.471.005zm-2.062 0-1.38.137 9.722 25.924.743-.003zm-2.557.092-1.14-.05 6.764 26.02.705-.004zm-2.822 0-1.277-.002 4.504 25.972.705-.004z" style="display:inline;fill:#d0ca8d;fill-opacity:1;stroke-width:.312999;stroke-linecap:round;stroke-linejoin:round;paint-order:markers fill stroke"/><path d="M1021.25 412.565s9.45 2.14 6.597 9.271-4.457 11.054-5.17 11.768c-.713.713-2.318 5.705-.713 12.836s4.635 16.582 5.705 18.9 1.961 9.27-.713 17.828-7.132 13.194-7.132 13.194 3.922-4.636 5.17-14.442c1.249-9.806 1.07-16.046-2.495-25.317s-5.35-14.442-2.14-23.178 8.736-9.27 6.062-13.728c-2.674-4.457-5.17-7.132-5.17-7.132" style="display:inline;mix-blend-mode:normal;fill:#747372;fill-opacity:.940959;stroke-width:1.18299;stroke-linecap:round;stroke-linejoin:round;paint-order:markers fill stroke;filter:url(#k)" transform="matrix(.25314 0 0 .26458 -197.916 -67.055)"/></g></svg>