<svg xmlns="http://www.w3.org/2000/svg" width="88mm" height="217mm" viewBox="0 0 88 217"><defs><filter id="a" width="1.392" height="1.662" x="-.196" y="-.331" style="color-interpolation-filters:sRGB"><feGaussianBlur stdDeviation="3.919"/></filter><filter id="b" width="1.165" height="1.037" x="-.082" y="-.019" style="color-interpolation-filters:sRGB"><feGaussianBlur stdDeviation=".176"/></filter><filter id="c" width="2.48" height="1.096" x="-.74" y="-.048" style="color-interpolation-filters:sRGB"><feGaussianBlur stdDeviation=".138"/></filter><filter id="d" width="1.328" height="1.517" x="-.164" y="-.259" style="color-interpolation-filters:sRGB"><feGaussianBlur stdDeviation=".456"/></filter><filter id="e" width="1.149" height="1.365" x="-.075" y="-.183" style="color-interpolation-filters:sRGB"><feGaussianBlur stdDeviation=".335"/></filter><filter id="f" width="1.165" height="2.032" x="-.083" y="-.516" style="color-interpolation-filters:sRGB"><feGaussianBlur stdDeviation=".197"/></filter><filter id="g" width="1.227" height="1.851" x="-.113" y="-.425" style="color-interpolation-filters:sRGB"><feGaussianBlur stdDeviation=".102"/></filter><filter id="h" width="1.102" height="1.246" x="-.051" y="-.123" style="color-interpolation-filters:sRGB"><feGaussianBlur stdDeviation=".223"/></filter><filter id="i" width="1.521" height="1.502" x="-.26" y="-.251" style="color-interpolation-filters:sRGB"><feGaussianBlur stdDeviation=".112"/></filter><filter id="j" width="1.331" height="1.341" x="-.166" y="-.17" style="color-interpolation-filters:sRGB"><feGaussianBlur stdDeviation=".089"/></filter><filter id="k" width="1.644" height="1.077" x="-.322" y="-.039" style="color-interpolation-filters:sRGB"><feGaussianBlur stdDeviation="1.346"/></filter></defs><g style="display:inline"><path d="M33.595 151.708h145.653a5.29 5.29 45 0 1 5.292 5.291v10.55a5.29 5.29 135 0 1-5.292 5.292H33.595a5.29 5.29 45 0 1-5.291-5.291V157a5.29 5.29 135 0 1 5.291-5.292" style="display:inline;fill:#4a3a1c;stroke:none;stroke-width:.246;stroke-linecap:round;stroke-linejoin:round;paint-order:markers fill stroke" transform="matrix(.48419 0 0 .55843 -10.807 -9.672)"/><path d="M13.995 197.043h18.68l-5.47 16.367h-13.21zm55.262 0h-18.68l5.47 16.367h13.21z" style="display:inline;fill:#332813;stroke-width:.225745;stroke-linecap:round;stroke-linejoin:round;paint-order:markers fill stroke"/><path d="M7.684 86.471h66.854v111.705H7.684z" style="display:inline;fill:#4a3a1c;stroke:none;stroke-width:.172328;stroke-linecap:round;stroke-linejoin:round;paint-order:markers fill stroke"/><path d="M13.706 145.89v41.363h55.03V145.89zm4.415 4.804h46.261v31.755H18.121z" style="display:inline;fill:#8e6f36;fill-opacity:1;stroke:none;stroke-width:.255481;stroke-linecap:round;stroke-linejoin:round;paint-order:markers fill stroke"/><circle cx="29.36" cy="110.32" r="4.057" style="display:inline;fill:gray;fill-opacity:1;stroke:none;stroke-width:.246;stroke-linecap:round;stroke-linejoin:round;paint-order:markers fill stroke"/><circle cx="54.267" cy="110.32" r="4.057" style="display:inline;fill:gray;fill-opacity:1;stroke:none;stroke-width:.246;stroke-linecap:round;stroke-linejoin:round;paint-order:markers fill stroke"/><path d="M94.854 162.378h25.907a1.323 1.323 45 0 1 1.323 1.323v2.157a1.323 1.323 135 0 1-1.323 1.323H94.854a1.323 1.323 45 0 1-1.323-1.323v-2.157a1.323 1.323 135 0 1 1.323-1.323" style="display:inline;fill:#8e6f36;fill-opacity:1;stroke:none;stroke-width:.246;stroke-linecap:round;stroke-linejoin:round;paint-order:markers fill stroke" transform="translate(-65.834 -54.408)"/><path d="M13.706 96.265v41.362h55.03V96.265Zm4.415 4.803h46.261v31.756H18.121z" style="display:inline;fill:#8e6f36;fill-opacity:1;stroke:none;stroke-width:.255481;stroke-linecap:round;stroke-linejoin:round;paint-order:markers fill stroke"/><circle cx="29.36" cy="159.379" r="4.057" style="display:inline;fill:gray;fill-opacity:1;stroke:none;stroke-width:.246;stroke-linecap:round;stroke-linejoin:round;paint-order:markers fill stroke"/><circle cx="54.267" cy="159.379" r="4.057" style="display:inline;fill:gray;fill-opacity:1;stroke:none;stroke-width:.246;stroke-linecap:round;stroke-linejoin:round;paint-order:markers fill stroke"/><path d="M94.854 162.378h25.907a1.323 1.323 45 0 1 1.323 1.323v2.157a1.323 1.323 135 0 1-1.323 1.323H94.854a1.323 1.323 45 0 1-1.323-1.323v-2.157a1.323 1.323 135 0 1 1.323-1.323" style="display:inline;fill:#8e6f36;fill-opacity:1;stroke:none;stroke-width:.246;stroke-linecap:round;stroke-linejoin:round;paint-order:markers fill stroke" transform="translate(-65.834 -5.348)"/><path d="m13.97 198.214 18.38-.033-1.55 4.498-16.83.033zm55.312 0-18.38-.033 1.551 4.498 16.829.033z" style="display:inline;fill:#211a0c;stroke-width:.0173674;stroke-linecap:round;stroke-linejoin:round;paint-order:markers fill stroke"/><path d="M7.682 86.471h66.873v4.965H7.682z" style="display:inline;fill:#332813;fill-opacity:1;stroke:none;stroke-width:.0363375;stroke-linecap:round;stroke-linejoin:round;paint-order:markers fill stroke"/><path d="M282.436 89.628h17.807a1.85 1.85 45 0 1 1.852 1.852v37.43a1.85 1.85 135 0 1-1.852 1.853h-17.807a1.85 1.85 45 0 1-1.852-1.852V91.48a1.85 1.85 135 0 1 1.852-1.853" style="display:inline;fill:#000;fill-opacity:1;stroke-width:.246;stroke-linecap:round;stroke-linejoin:round;paint-order:markers fill stroke" transform="translate(-268.868 -56.093)"/><path d="M282.436 89.628h17.807a1.85 1.85 45 0 1 1.852 1.852v37.43a1.85 1.85 135 0 1-1.852 1.853h-17.807a1.85 1.85 45 0 1-1.852-1.852V91.48a1.85 1.85 135 0 1 1.852-1.853" style="display:inline;fill:#e3dbdb;fill-opacity:1;stroke-width:.246;stroke-linecap:round;stroke-linejoin:round;paint-order:markers fill stroke" transform="matrix(.93486 0 0 .9647 -249.883 -52.163)"/><path d="M287.993 91.33h6.58a.53.53 45 0 1 .53.528v.11a.53.53 135 0 1-.53.529h-6.58a.53.53 45 0 1-.53-.53v-.109a.53.53 135 0 1 .53-.529" style="display:inline;fill:#000;fill-opacity:1;stroke-width:.231762;stroke-linecap:round;stroke-linejoin:round;paint-order:markers fill stroke" transform="matrix(1 0 0 .65655 -268.868 -24.726)"/></g><g style="display:inline"><path d="M-63.721 91.53h25.217l11.475 28.42h-48.033z" style="display:inline;fill:#f6f3ca;fill-opacity:1;stroke-width:1.64723;stroke-linecap:round;stroke-linejoin:round;paint-order:markers fill stroke" transform="translate(111.705 -86.892)"/><path d="M-52.86 121.09h3.491v7.483h-3.491z" style="display:inline;fill:#423c2f;fill-opacity:1;stroke:none;stroke-width:1.55028;stroke-linecap:round;stroke-linejoin:round;stroke-miterlimit:4;stroke-dasharray:none;stroke-opacity:1;paint-order:markers fill stroke" transform="translate(111.705 -86.892)"/><path d="M-63.895 91.097h25.557l.514 2.101h-26.58z" style="display:inline;fill:#69432a;stroke-width:1.92639;stroke-linecap:round;stroke-linejoin:round;paint-order:markers fill stroke" transform="translate(111.705 -86.892)"/><path d="M-64.132 92.164h26.067" style="display:inline;fill:none;stroke:#fff;stroke-width:.417602;stroke-linecap:round;stroke-linejoin:round;stroke-dasharray:none;stroke-opacity:1;paint-order:markers fill stroke" transform="translate(111.705 -86.892)"/><path d="M-74.767 119.183h47.47l.955 2.101h-49.37z" style="display:inline;fill:#69432a;stroke-width:2.62542;stroke-linecap:round;stroke-linejoin:round;paint-order:markers fill stroke" transform="translate(111.705 -86.892)"/><path d="M-75.105 120.25h48.318" style="display:inline;fill:none;stroke:#fff;stroke-width:.56855;stroke-linecap:round;stroke-linejoin:round;stroke-dasharray:none;stroke-opacity:1;paint-order:markers fill stroke" transform="translate(111.705 -86.892)"/><path d="M-52.049 129.161c-1.2-.007-3.112.254-3.059 1.997.08 2.586 1.668 2.435 2.068 3.035s1.002 1.726.267 3.903c-.867 2.568-2.902 5.43-1.834 9.54.672 2.589 1.607 4.076 3.476 4.163v.002h.016v-.002c1.87-.087 2.805-1.574 3.477-4.163 1.068-4.11-.967-6.972-1.834-9.54-.735-2.177-.134-3.303.266-3.903s1.99-.45 2.068-3.035c.077-2.502-3.882-1.952-3.984-1.937-.031-.004-.403-.057-.926-.06z" style="display:inline;fill:#423c2f;fill-opacity:1;stroke:none;stroke-width:.312999;stroke-linecap:round;stroke-linejoin:round;stroke-dasharray:none;stroke-opacity:1;paint-order:markers fill stroke" transform="translate(111.705 -86.892)"/><path d="M258.03 71.511h25.217l11.475 28.42h-48.033z" style="display:inline;fill:#f5e94e;fill-opacity:1;stroke-width:1.64723;stroke-linecap:round;stroke-linejoin:round;paint-order:markers fill stroke;filter:url(#a)" transform="translate(-206.414 -65.176)scale(.98802)"/><path d="M-52.86 150.618h3.491v5.327h-3.491z" style="display:inline;fill:#423c2f;fill-opacity:1;stroke:none;stroke-width:1.308;stroke-linecap:round;stroke-linejoin:round;stroke-miterlimit:4;stroke-dasharray:none;stroke-opacity:1;paint-order:markers fill stroke" transform="translate(111.705 -86.892)"/><path d="M-51.28 157.067a16.299 8.89 0 0 0-14.276 4.623h28.572a16.299 8.89 0 0 0-14.295-4.623" style="display:inline;fill:#423c2f;fill-opacity:1;stroke:none;stroke-width:.251159;stroke-linecap:round;stroke-linejoin:round;stroke-dasharray:none;stroke-opacity:1;paint-order:markers fill stroke" transform="translate(111.705 -86.892)"/><path d="M279.487 135.826h4.68a.53.53 45 0 1 .528.53v.309a.53.53 135 0 1-.529.53h-4.679a.53.53 45 0 1-.529-.53v-.31a.53.53 135 0 1 .53-.529" style="display:inline;fill:#423c2f;fill-opacity:1;stroke:none;stroke-width:.312999;stroke-linecap:round;stroke-linejoin:round;stroke-dasharray:none;stroke-opacity:1;paint-order:markers fill stroke" transform="matrix(1 0 0 1.46341 -221.267 -129.922)"/><path d="M279.487 135.826h4.68a.53.53 45 0 1 .528.53v.309a.53.53 135 0 1-.529.53h-4.679a.53.53 45 0 1-.529-.53v-.31a.53.53 135 0 1 .53-.529" style="display:inline;fill:#423c2f;fill-opacity:1;stroke:none;stroke-width:.312999;stroke-linecap:round;stroke-linejoin:round;stroke-dasharray:none;stroke-opacity:1;paint-order:markers fill stroke" transform="translate(-221.267 -94.43)"/><path d="M266.98 140.43h29.626a.265.265 45 0 1 .264.264v.172a.265.265 135 0 1-.264.264H266.98a.265.265 45 0 1-.265-.264v-.172a.265.265 135 0 1 .265-.264" style="display:inline;fill:#423c2f;fill-opacity:1;stroke:none;stroke-width:.312999;stroke-linecap:round;stroke-linejoin:round;stroke-dasharray:none;stroke-opacity:1;paint-order:markers fill stroke" transform="matrix(.9459 0 0 1 -206.08 -65.998)"/><path d="M-50.727 129.16q-.116 0-.221.004c1.195.028 2.87.356 2.82 1.993-.079 2.587-1.667 2.435-2.068 3.036-.4.6-1.001 1.726-.266 3.903.867 2.568 2.902 5.43 1.834 9.54-.649 2.497-1.545 3.965-3.285 4.144q.094.012.192.02v.001h.016v-.002c1.87-.087 2.805-1.575 3.477-4.163 1.068-4.11-.967-6.972-1.834-9.54-.735-2.177-.134-3.303.266-3.903s1.99-.45 2.068-3.036c.053-1.72-1.802-1.997-3-1.997zm-1.912.002c-.064 0-.137.004-.205.005.414.012.705.05.732.054.012-.002.085-.011.191-.022a7 7 0 0 0-.717-.037z" style="display:inline;mix-blend-mode:normal;fill:#978c4e;fill-opacity:1;stroke:none;stroke-width:.312999;stroke-linecap:round;stroke-linejoin:round;stroke-dasharray:none;stroke-opacity:1;paint-order:markers fill stroke;filter:url(#b)" transform="translate(111.705 -86.892)"/><path d="M-50.478 121.286h.448v6.887h-.448z" style="display:inline;fill:#7a7044;fill-opacity:1;stroke:none;stroke-width:.312999;stroke-linecap:round;stroke-linejoin:round;stroke-opacity:1;paint-order:markers fill stroke;filter:url(#c)" transform="translate(111.705 -86.892)"/><path d="M282.494 128.69h.448v6.887h-.448z" style="display:inline;fill:#7a7044;fill-opacity:1;stroke:none;stroke-width:.312999;stroke-linecap:round;stroke-linejoin:round;stroke-opacity:1;paint-order:markers fill stroke;filter:url(#c)" transform="matrix(1 0 0 .6289 -221.267 -16.345)"/><path d="M-53.995 157.3c-2.806.991-4.976 2.147-5.708 2.855-.73.707-.96 1.378-.96 1.378h2.109s1.117-1.7 2.752-2.802c1.634-1.1 1.807-1.43 1.807-1.43" style="display:inline;fill:#7c7244;fill-opacity:1;stroke:none;stroke-width:.312999;stroke-linecap:round;stroke-linejoin:round;stroke-opacity:1;paint-order:markers fill stroke;filter:url(#d)" transform="translate(111.705 -86.892)"/><path d="M-49.82 157.607s6.203 1.062 8.42 2.69a197 197 0 0 0 2.36 1.72h-4.412s-.73-1.013-2.358-2.051-4.01-2.359-4.01-2.359" style="display:inline;fill:#7c7244;fill-opacity:1;stroke:none;stroke-width:.312999;stroke-linecap:round;stroke-linejoin:round;stroke-opacity:1;paint-order:markers fill stroke;filter:url(#e)" transform="translate(111.705 -86.892)"/><path d="M279.487 135.826a.53.53 0 0 0-.53.53v.309l.011.08a.53.53 0 0 1 .519-.451h4.68a.53.53 0 0 1 .522.45l.007-.079v-.31a.53.53 0 0 0-.53-.529z" style="display:inline;mix-blend-mode:normal;fill:#b3a659;fill-opacity:1;stroke:none;stroke-width:.312999;stroke-linecap:round;stroke-linejoin:round;stroke-dasharray:none;stroke-opacity:1;paint-order:markers fill stroke;filter:url(#f)" transform="matrix(.94511 0 0 .4815 -205.71 -23.774)"/><path d="m-50.44 128.392 1.852.034s.433.367.283.517-.25-.367-.884-.35c-.633.016-1.25-.2-1.25-.2" style="display:inline;fill:#7c7c7c;fill-opacity:1;stroke:none;stroke-width:.312999;stroke-linecap:round;stroke-linejoin:round;stroke-opacity:1;paint-order:markers fill stroke;filter:url(#g)" transform="translate(111.705 -86.892)"/><path d="M282.494 128.69h.448v6.887h-.448z" style="display:inline;fill:#2a271e;fill-opacity:.921569;stroke:none;stroke-width:.312999;stroke-linecap:round;stroke-linejoin:round;stroke-opacity:1;paint-order:markers fill stroke;filter:url(#c)" transform="matrix(1 0 0 .6289 -223.248 -16.345)"/><path d="M282.494 128.69h.448v6.887h-.448z" style="display:inline;fill:#2a271e;fill-opacity:.921569;stroke:none;stroke-width:.312999;stroke-linecap:round;stroke-linejoin:round;stroke-opacity:1;paint-order:markers fill stroke;filter:url(#c)" transform="matrix(1 0 0 .95582 -223.248 -88.128)"/><path d="M-53.995 157.088c-2.547.425-5.896 1.416-7.406 2.17-1.51.755-3.113 2.17-3.113 2.17h1.792s2.029-1.65 4.482-2.689a72 72 0 0 1 4.245-1.65" style="display:inline;fill:#2a271e;fill-opacity:.921569;stroke-width:.312999;stroke-linecap:round;stroke-linejoin:round;paint-order:markers fill stroke;filter:url(#h)" transform="translate(111.705 -86.892)"/><path d="M-52.863 128.454c-.495-.023-.801-.259-.92.118-.117.378-.165 1.085 0 .779.166-.307-.047-.236.213-.425.26-.188-.094-.141.33-.283.425-.141.377-.189.377-.189" style="display:inline;fill:#2a271e;fill-opacity:.921569;stroke-width:.312999;stroke-linecap:round;stroke-linejoin:round;paint-order:markers fill stroke;filter:url(#i)" transform="translate(111.705 -86.892)"/><path d="M-52.627 155.874c-.342.023-.743-.142-.92-.024-.176.118-.412.46-.353.767.059.306.059.495.059.424 0-.07-.012-.247.212-.495s.684-.484.86-.519c.178-.035.142-.153.142-.153" style="display:inline;fill:#2a271e;fill-opacity:.921569;stroke-width:.312999;stroke-linecap:round;stroke-linejoin:round;paint-order:markers fill stroke;filter:url(#j)" transform="translate(111.705 -86.892)"/><path d="m-63.707 93.123 1.097.184-10.434 25.877-.471.005zm2.602 0 1.38.136-9.722 25.925-.743-.003zm2.733.092 1.206-.05-9.298 26.02-.705-.005zm2.449 0 1.277-.002-7.039 25.972-.705-.004zm1.935 0 1.276-.002-4.703 25.972-.705-.004zm2.253 0 1.276-.002-3.012 25.972-.705-.004zm3.075 0-1.276-.002 2.063 25.972.705-.004zm10.265-.092-1.097.184 10.434 25.877.471.005zm-2.062 0-1.38.136 9.722 25.925.742-.003zm-2.557.092-1.14-.05 6.764 26.02.705-.005zm-2.822 0-1.277-.002 4.504 25.972.705-.004z" style="display:inline;fill:#ded044;fill-opacity:1;stroke-width:.312999;stroke-linecap:round;stroke-linejoin:round;paint-order:markers fill stroke" transform="translate(111.705 -86.892)"/><path d="M1021.25 412.565s9.45 2.14 6.597 9.271-4.457 11.054-5.17 11.768c-.713.713-2.318 5.705-.713 12.836s4.635 16.582 5.705 18.9 1.961 9.27-.713 17.828-7.132 13.194-7.132 13.194 3.922-4.636 5.17-14.442c1.249-9.806 1.07-16.046-2.495-25.317s-5.35-14.442-2.14-23.178 8.736-9.27 6.062-13.728c-2.674-4.457-5.17-7.132-5.17-7.132" style="display:inline;mix-blend-mode:normal;fill:#665e3c;fill-opacity:1;stroke-width:1.18299;stroke-linecap:round;stroke-linejoin:round;paint-order:markers fill stroke;filter:url(#k)" transform="matrix(.25314 0 0 .26458 -197.622 -66.84)"/><path d="M267.554 109.14q-.115.001-.22.005c1.194.028 2.87.356 2.82 1.993-.08 2.586-1.668 2.435-2.068 3.036-.4.6-1.002 1.726-.267 3.902.868 2.569 2.902 5.43 1.835 9.54-.649 2.498-1.545 3.966-3.285 4.145q.095.012.192.019v.002h.016v-.002c1.869-.087 2.804-1.575 3.477-4.164 1.067-4.11-.967-6.971-1.835-9.54-.735-2.176-.133-3.302.267-3.902s1.989-.45 2.068-3.036c.053-1.72-1.802-1.997-3-1.998m-1.911.003c-.064 0-.137.004-.205.005.414.012.704.05.731.054.012-.002.086-.012.192-.022a7 7 0 0 0-.718-.038z" style="display:inline;mix-blend-mode:normal;fill:#59522e;fill-opacity:1;stroke:none;stroke-width:.312999;stroke-linecap:round;stroke-linejoin:round;stroke-dasharray:none;stroke-opacity:1;paint-order:markers fill stroke;filter:url(#b)" transform="matrix(-1 0 0 1 327.682 -66.873)"/></g></svg>