<svg xmlns="http://www.w3.org/2000/svg" width="141" height="245" viewBox="0 0 37.306 64.823"><defs><filter id="a" width="1.672" height="1.375" x="-.336" y="-.188" style="color-interpolation-filters:sRGB"><feGaussianBlur stdDeviation="5.131"/></filter></defs><g style="display:inline"><path d="M131.198 198.43s-1.694-47.742 3.234-55.443c4.928-7.7 10.318-9.702 16.325-9.394s17.248 2.31 16.786 20.79c-.462 18.482-.308 44.817-.308 44.817z" style="display:inline;fill:#fff689;fill-opacity:1;stroke-width:9.18707;filter:url(#a)" transform="matrix(.65785 0 0 .75244 -79.52 -93.365)"/><path d="M1.948 21.585h2.738v41.423H1.948zm30.883 0h2.738v41.423h-2.738z" style="display:inline;fill:#51341c;fill-opacity:1;stroke-width:.0906343"/><path d="M17.079 21.542h3.395v41.423h-3.395z" style="display:inline;fill:#51341c;fill-opacity:1;stroke-width:.100926"/><path d="M1.938 58.885h33.618v4.104H1.938z" style="display:inline;fill:#51341c;fill-opacity:1;stroke-width:.086243"/><path d="M1.87 21.542h33.695v2.571H1.87z" style="display:inline;fill:#51341c;fill-opacity:1;stroke-width:.0683394"/><path d="M18.658 1.658c-1.207-.018-6.34.194-11.27 4.725-6.429 5.91-5.44 15.202-5.44 15.202q1.8-.01 3.597-.013H4.62s-.408-6.357 3.665-11.103c3.608-4.203 6.922-4.953 10.57-5.17h.134c3.648.217 6.962.967 10.57 5.17 4.073 4.746 3.272 11.116 3.272 11.116l-.36-.007 3.135.006s.989-9.291-5.44-15.202c-1.43-1.314-5.139-4.63-11.508-4.725Zm13.812 19.92c-8.975-.023-17.95-.04-26.925-.007z" style="display:inline;fill:#51341c;fill-opacity:1;stroke-width:.0877398"/><path d="M10.916 24.113h.434v34.772h-.434zm15.254 0h.434v34.772h-.434z" style="display:inline;fill:#51341c;fill-opacity:1;stroke-width:.0330785"/><path d="M37.063-34.287h.434V-3.45h-.434z" style="display:inline;fill:#51341c;fill-opacity:1;stroke-width:.0311503" transform="rotate(90)"/><path d="M32.837 24.113h.707v34.772h-.707z" style="display:inline;fill:#8a5b33;fill-opacity:1;stroke-width:.0422023"/><path d="M18.423 21.585h.707v39.299h-.707z" style="display:inline;fill:#382413;fill-opacity:1;stroke-width:.0448655"/><path d="M18.66 14.175c-.642-.01-3.146.067-5.113 1.93-2.544 2.41-2.666 5.43-2.604 5.387l.524.002c.017-.55.366-2.943 2.436-4.903 1.833-1.736 4.166-1.808 4.764-1.798.06 0 .078.001.101.003l.101-.003c.598-.01 2.931.062 4.764 1.798 2.07 1.96 2.419 4.353 2.436 4.903l.524-.002c.062.043-.06-2.977-2.604-5.387-1.967-1.863-4.47-1.94-5.112-1.93-.065 0-.084.002-.109.004-.024-.002-.044-.002-.108-.004" style="display:inline;fill:#51341c;fill-opacity:1;stroke-width:.0877398"/><path d="M18.877 5.283h.434v8.892h-.434z" style="display:inline;fill:#51341c;fill-opacity:1;stroke-width:.0167279"/><path d="M28.973-19.432h.414v7.398h-.414z" style="display:inline;fill:#51341c;fill-opacity:1;stroke-width:.0132006" transform="matrix(.53082 .84749 -.83858 .54477 0 0)"/><rect width=".466" height="7.22" x="8.071" y="12.541" ry="0" style="display:inline;fill:#51341c;fill-opacity:1;stroke-width:.0132006" transform="matrix(-.53082 .84749 .83858 .54477 0 0)"/><path d="M19.094 5.283q.23.028.46.063c3.426.266 6.585 1.14 10.005 5.123 4.062 4.735 3.277 11.078 3.273 11.11l.712.002c.54-7.588-3.652-14.56-10.937-16.036-1.02-.206-3.513-.262-3.513-.262m13.738 16.296h-.362l.234.004h.127zm-.362 0-1.044-.002v.001zm-13.34-.023v.02l11.717.002q-5.858-.016-11.717-.022" style="display:inline;fill:#8a5b33;fill-opacity:1;stroke-width:.0877398"/><path d="M60.83-35.565h.434V-1.94h-.434z" style="display:inline;fill:#382413;fill-opacity:1;stroke-width:.0325279" transform="rotate(90)"/></g></svg>