<svg xmlns="http://www.w3.org/2000/svg" width="141" height="245" viewBox="0 0 37.306 64.823"><g style="display:inline" transform="translate(-203.525 -63.112)scale(.87079)"><path d="M236.612 141.802s-1.694-47.741 3.234-55.442c4.928-7.7 10.318-9.702 16.324-9.394s17.249 2.31 16.787 20.79c-.462 18.481-.308 44.816-.308 44.816z" style="fill:#aef2e6;fill-opacity:1;stroke-width:9.18707"/><path d="m269.94 83.395 3.982 22.058-9.595 37.793-9.525-2.191z" style="fill:#eafcf9;stroke-width:9.5681"/><path d="M264.957-1.25h5.933v67.194h-5.933z" style="fill:#eafcf9;fill-opacity:1;stroke-width:9.57242" transform="matrix(.9566 .29142 -.25051 .96811 0 0)"/><path d="m263.222 76.22 2.12 1.724-16.889 64.84-1.967-1.724z" style="fill:#eafcf9;stroke-width:9.52502"/><path d="M235.943 97.226h3.144v47.57h-3.144zm35.466 0h3.144v47.57h-3.144z" style="display:inline;fill:#764c28;fill-opacity:1;stroke-width:.104083"/><path d="M253.32 97.176h3.898v47.57h-3.898z" style="display:inline;fill:#764c28;fill-opacity:1;stroke-width:.115902"/><path d="M235.932 140.061h38.606v4.713h-38.606z" style="display:inline;fill:#764c28;fill-opacity:1;stroke-width:.0990401"/><path d="M235.853 97.176h38.695v2.953h-38.695z" style="display:inline;fill:#764c28;fill-opacity:1;stroke-width:.0784799"/><path d="M255.132 74.343c-1.385-.021-7.28.222-12.941 5.426-7.384 6.787-6.248 17.457-6.248 17.457 1.377-.008 2.754-.01 4.131-.015h-1.063s-.468-7.3 4.21-12.75c4.142-4.827 7.948-5.688 12.138-5.936.015-.002.024-.002.069-.002.026.002.034 0 .084.002 4.19.248 7.996 1.11 12.138 5.936 4.678 5.45 3.759 12.765 3.759 12.765l-.415-.008 3.601.007s1.136-10.67-6.248-17.457c-1.64-1.51-5.9-5.318-13.215-5.426zm15.862 22.876c-10.306-.027-20.613-.048-30.92-.008z" style="display:inline;fill:#764c28;fill-opacity:1;stroke-width:.100759"/><path d="M246.242 100.129h.499v39.932h-.499zm17.517 0h.499v39.932h-.499z" style="display:inline;fill:#764c28;fill-opacity:1;stroke-width:.0379868"/><path d="M115-273.08h.499v35.413H115z" style="display:inline;fill:#764c28;fill-opacity:1;stroke-width:.0357725" transform="rotate(90)"/><path d="M271.415 100.129h.812v39.932h-.812z" style="display:inline;fill:#c9976e;fill-opacity:1;stroke-width:.0484644"/><path d="M254.863 97.226h.812v45.13h-.812z" style="display:inline;fill:#5b3b1f;fill-opacity:1;stroke-width:.0515228"/><path d="M255.134 88.717c-.737-.011-3.612.077-5.87 2.216-2.923 2.767-3.062 6.236-2.991 6.187l.602.002c.02-.632.42-3.38 2.797-5.63 2.105-1.994 4.784-2.077 5.47-2.066.07 0 .09.002.117.004l.116-.004c.687-.01 3.366.072 5.47 2.065 2.378 2.251 2.779 4.999 2.798 5.63l.602-.001c.071.05-.068-3.42-2.99-6.187-2.26-2.139-5.134-2.227-5.872-2.216-.074 0-.096.002-.124.004-.028-.002-.05-.002-.125-.004" style="display:inline;fill:#764c28;fill-opacity:1;stroke-width:.100759"/><path d="M255.383 78.505h.499v10.212h-.499z" style="display:inline;fill:#764c28;fill-opacity:1;stroke-width:.01921"/><path d="M221.36-181.948h.476v8.495h-.476z" style="display:inline;fill:#764c28;fill-opacity:1;stroke-width:.0151594" transform="matrix(.53082 .84749 -.83858 .54477 0 0)"/><rect width=".535" height="8.292" x="-57.312" y="250.948" ry="0" style="display:inline;fill:#764c28;fill-opacity:1;stroke-width:.0151594" transform="matrix(-.53082 .84749 .83858 .54477 0 0)"/><path d="M255.633 78.505q.264.033.528.073c3.935.305 7.563 1.308 11.49 5.883 4.665 5.437 3.763 12.722 3.758 12.758l.819.002c.618-8.714-4.194-16.72-12.56-18.414-1.172-.238-4.035-.302-4.035-.302m15.776 18.714h-.415l.268.005h.147zm-.415 0-1.2-.002v.002zm-15.32-.026v.022l13.456.003q-6.728-.018-13.455-.025z" style="display:inline;fill:#c9976e;fill-opacity:1;stroke-width:.100759"/><path d="M142.294-274.548h.499v38.614h-.499z" style="display:inline;fill:#5b3b1f;fill-opacity:1;stroke-width:.0373545" transform="rotate(90)"/></g></svg>