<?xml version="1.0" encoding="UTF-8" standalone="no"?>
<!-- Created with Inkscape (http://www.inkscape.org/) -->

<svg
   width="141"
   height="245"
   viewBox="0 0 37.306253 64.822917"
   version="1.1"
   id="svg1"
   inkscape:version="1.4 (86a8ad7, 2024-10-11)"
   sodipodi:docname="user-window-day.svg"
   xmlns:inkscape="http://www.inkscape.org/namespaces/inkscape"
   xmlns:sodipodi="http://sodipodi.sourceforge.net/DTD/sodipodi-0.dtd"
   xmlns="http://www.w3.org/2000/svg"
   xmlns:svg="http://www.w3.org/2000/svg">
  <sodipodi:namedview
     id="namedview1"
     pagecolor="#505050"
     bordercolor="#eeeeee"
     borderopacity="1"
     inkscape:showpageshadow="0"
     inkscape:pageopacity="0"
     inkscape:pagecheckerboard="0"
     inkscape:deskcolor="#505050"
     inkscape:document-units="mm"
     inkscape:zoom="1.3950758"
     inkscape:cx="-1.0752104"
     inkscape:cy="110.74667"
     inkscape:window-width="1920"
     inkscape:window-height="1001"
     inkscape:window-x="-9"
     inkscape:window-y="-9"
     inkscape:window-maximized="1"
     inkscape:current-layer="g46" />
  <defs
     id="defs1">
    <inkscape:path-effect
       effect="fillet_chamfer"
       id="path-effect301"
       is_visible="true"
       lpeversion="1"
       nodesatellites_param="F,0,0,1,0,0,0,1 @ F,0,0,1,0,0,0,1 @ F,0,0,1,0,0,0,1 @ F,0,0,1,0,0,0,1"
       radius="0"
       unit="px"
       method="auto"
       mode="F"
       chamfer_steps="1"
       flexible="false"
       use_knot_distance="true"
       apply_no_radius="true"
       apply_with_radius="true"
       only_selected="false"
       hide_knots="false" />
    <inkscape:path-effect
       effect="fillet_chamfer"
       id="path-effect299"
       is_visible="true"
       lpeversion="1"
       nodesatellites_param="F,0,0,1,0,0,0,1 @ F,0,0,1,0,0,0,1 @ F,0,0,1,0,0,0,1 @ F,0,0,1,0,0,0,1"
       radius="0"
       unit="px"
       method="auto"
       mode="F"
       chamfer_steps="1"
       flexible="false"
       use_knot_distance="true"
       apply_no_radius="true"
       apply_with_radius="true"
       only_selected="false"
       hide_knots="false" />
  </defs>
  <g
     inkscape:groupmode="layer"
     id="g46"
     inkscape:label="window"
     transform="matrix(0.87078892,0,0,0.87078892,-203.52507,-63.111868)"
     style="display:inline">
    <path
       style="fill:#aef2e6;fill-opacity:1;stroke-width:9.18707"
       d="m 236.61165,141.80233 c 0,0 -1.69406,-47.741756 3.23412,-55.442046 4.92819,-7.70028 10.31839,-9.70236 16.32461,-9.39435 6.00622,0.30801 17.24864,2.31009 16.78662,20.79077 -0.46202,18.480686 -0.30801,44.815656 -0.30801,44.815656 z"
       id="path52-4" />
    <path
       id="rect255"
       style="fill:#eafcf9;stroke-width:9.5681"
       d="m 269.94065,83.395167 3.9814,22.057733 -9.59463,37.79268 -9.5256,-2.19099 z"
       sodipodi:nodetypes="ccccc" />
    <rect
       style="fill:#eafcf9;fill-opacity:1;stroke-width:9.57242"
       id="rect253"
       width="5.932971"
       height="67.19426"
       x="264.95712"
       y="-1.2504754"
       transform="matrix(0.95659555,0.29141886,-0.25051083,0.9681138,0,0)" />
    <path
       id="rect254"
       style="fill:#eafcf9;stroke-width:9.52502"
       d="m 263.22175,76.22069 2.12107,1.72334 -16.88936,64.83954 -1.96795,-1.72334 z"
       sodipodi:nodetypes="ccccc" />
    <rect
       style="display:inline;fill:#764c28;fill-opacity:1;stroke-width:0.104083"
       id="rect33"
       width="3.1437685"
       height="47.569706"
       x="235.94281"
       y="97.225929"
       inkscape:label="ram-left" />
    <rect
       style="display:inline;fill:#764c28;fill-opacity:1;stroke-width:0.104083"
       id="rect34"
       width="3.1437685"
       height="47.569706"
       x="271.40884"
       y="97.225929"
       inkscape:label="ram-right" />
    <rect
       style="display:inline;fill:#764c28;fill-opacity:1;stroke-width:0.115902"
       id="rect35"
       width="3.8982728"
       height="47.569706"
       x="253.31958"
       y="97.176384"
       inkscape:label="ram-middle" />
    <rect
       style="display:inline;fill:#764c28;fill-opacity:1;stroke-width:0.0990401"
       id="rect36"
       width="38.606327"
       height="4.7130919"
       x="235.93164"
       y="140.06085"
       inkscape:label="ram-down" />
    <rect
       style="display:inline;fill:#764c28;fill-opacity:1;stroke-width:0.0784799"
       id="rect37"
       width="38.694553"
       height="2.9525812"
       x="235.8533"
       y="97.176384"
       inkscape:label="ram-up" />
    <path
       id="path37"
       style="display:inline;fill:#764c28;fill-opacity:1;stroke-width:0.100759"
       d="m 255.13187,74.342564 c -1.38535,-0.0206 -7.28059,0.22231 -12.94102,5.42602 -7.38347,6.78774 -6.24803,17.45726 -6.24803,17.45726 1.3771,-0.008 2.75421,-0.01 4.13131,-0.015 l -1.06309,-1.9e-4 c 0,0 -0.46778,-7.29914 4.20964,-12.74935 4.14257,-4.82699 7.94821,-5.68825 12.13849,-5.9367 0.0151,-0.002 0.024,-0.002 0.0685,-0.002 0.0263,0.002 0.0347,-2.6e-4 0.0844,0.002 4.19026,0.24845 7.99573,1.10972 12.13829,5.9367 4.67743,5.45021 3.75848,12.76457 3.75848,12.76457 l -0.41455,-0.008 c 1.20039,0.003 2.40077,0.005 3.60115,0.007 0,0 1.13544,-10.66952 -6.24803,-17.45726 -1.64112,-1.50871 -5.90087,-5.31736 -13.21555,-5.42602 z m 15.86244,22.876 c -10.30675,-0.0263 -20.61344,-0.0472 -30.92018,-0.008 z"
       sodipodi:nodetypes="sscccscccscccssccc"
       inkscape:label="ark-up-part" />
    <rect
       style="display:inline;fill:#764c28;fill-opacity:1;stroke-width:0.0379868"
       id="rect38"
       width="0.49884829"
       height="39.931885"
       x="246.24205"
       y="100.12897"
       inkscape:label="left-ontheglass" />
    <rect
       style="display:inline;fill:#764c28;fill-opacity:1;stroke-width:0.0379868"
       id="rect39"
       width="0.49884829"
       height="39.931885"
       x="263.75861"
       y="100.12897"
       inkscape:label="right-ontheglass" />
    <rect
       style="display:inline;fill:#764c28;fill-opacity:1;stroke-width:0.0357725"
       id="rect40"
       width="0.49884829"
       height="35.412617"
       x="115.00042"
       y="-273.08032"
       inkscape:label="vertical-ontheglass"
       transform="rotate(90)" />
    <rect
       style="display:inline;fill:#c9976e;fill-opacity:1;stroke-width:0.0484644"
       id="rect41"
       width="0.811988"
       height="39.931877"
       x="271.41544"
       y="100.12897"
       inkscape:label="shadow-ram-left-rightside" />
    <rect
       style="display:inline;fill:#5b3b1f;fill-opacity:1;stroke-width:0.0515228"
       id="rect42"
       width="0.811988"
       height="45.130455"
       x="254.86273"
       y="97.225929"
       inkscape:label="shadow-ram-middle" />
    <path
       id="path42"
       style="display:inline;fill:#764c28;fill-opacity:1;stroke-width:0.100759"
       d="m 255.13435,88.717014 c -0.73717,-0.0113 -3.61233,0.0772 -5.87098,2.21611 -2.92215,2.76725 -3.06174,6.23597 -2.9905,6.18644 l 0.60201,0.002 c 0.0194,-0.63164 0.42034,-3.3796 2.79723,-5.63049 2.10467,-1.9931 4.78379,-2.07571 5.4707,-2.06516 0.0691,7.7e-4 0.0899,0.002 0.1161,0.004 0.0261,-7.7e-4 0.047,-0.002 0.11611,-0.004 0.68691,-0.0105 3.36603,0.0721 5.4707,2.06516 2.37689,2.25089 2.77782,4.99885 2.79723,5.63049 l 0.602,-0.002 c 0.0712,0.0496 -0.0683,-3.41919 -2.99049,-6.18644 -2.25865,-2.13893 -5.13381,-2.22742 -5.87098,-2.21611 -0.0741,7.7e-4 -0.0965,0.002 -0.12457,0.004 -0.0281,-0.002 -0.0504,-0.002 -0.12456,-0.004 z"
       inkscape:label="little-ark" />
    <rect
       style="display:inline;fill:#764c28;fill-opacity:1;stroke-width:0.01921"
       id="rect43"
       width="0.49884829"
       height="10.211976"
       x="255.38348"
       y="78.505058"
       inkscape:label="perekladina-up" />
    <rect
       style="display:inline;fill:#764c28;fill-opacity:1;stroke-width:0.0151594"
       id="rect44"
       width="0.47570741"
       height="8.4951992"
       x="221.36017"
       y="-181.94791"
       inkscape:label="perekladina-right"
       transform="matrix(0.5308162,0.84748697,-0.83858265,0.5447744,0,0)" />
    <rect
       style="display:inline;fill:#764c28;fill-opacity:1;stroke-width:0.0151594"
       id="rect45"
       width="0.53521025"
       height="8.2918215"
       x="-57.311554"
       y="250.9483"
       inkscape:label="perekladina-left"
       transform="matrix(-0.5308162,0.84748697,0.83858265,0.5447744,0,0)"
       ry="0" />
    <path
       id="path45"
       style="display:inline;fill:#c9976e;fill-opacity:1;stroke-width:0.100759"
       inkscape:label="ark-up-shadow"
       d="m 255.63291,78.504964 c 0.17641,0.0212 0.35218,0.0468 0.5278,0.0732 3.93555,0.30472 7.56314,1.30793 11.48967,5.88318 4.66573,5.43659 3.76351,12.72161 3.75897,12.758 0.27275,6.1e-4 0.54551,7.7e-4 0.81827,0.002 0.61883,-8.71407 -4.19396,-16.72017 -12.56042,-18.41467 -1.17113,-0.2372 -4.03429,-0.3013 -4.03429,-0.3013 z m 15.77644,18.71438 c -0.13835,-3e-4 -0.27669,-4.1e-4 -0.41504,-7.6e-4 l 0.26783,0.005 c 0.0423,1.2e-4 0.10303,2.6e-4 0.14681,3.7e-4 10e-6,-1e-5 3.9e-4,-0.005 3.9e-4,-0.005 z m -0.41504,-7.6e-4 c -0.39982,-7.7e-4 -0.79965,-0.002 -1.19947,-0.002 0,3e-5 0,0.002 0,0.002 z m -15.31968,-0.0254 v 0.0217 l 13.45505,0.003 c -4.48499,-0.0114 -8.97008,-0.0204 -13.45505,-0.025 z" />
    <rect
       style="display:inline;fill:#5b3b1f;fill-opacity:1;stroke-width:0.0373545"
       id="rect46"
       width="0.49884829"
       height="38.6143"
       x="142.29404"
       y="-274.54785"
       inkscape:label="shadow-dark-down"
       transform="rotate(90)" />
  </g>
</svg>
