<svg xmlns="http://www.w3.org/2000/svg" xml:space="preserve" width="1200" height="793.701" viewBox="0 0 317.5 210"><path d="M27.02 194.886h265.053v8.302H27.02z" style="display:inline;opacity:1;fill:#764c28;fill-opacity:1;stroke-width:.374003"/><path d="M108.568 70.35h8.255v124.914h-8.255zm93.131 0h8.255v124.914h-8.255z" style="opacity:1;fill:#764c28;fill-opacity:1;stroke-width:.273312"/><path d="M154.198 70.22h10.236v124.914h-10.236z" style="opacity:1;fill:#764c28;fill-opacity:1;stroke-width:.304347"/><path d="M31.975 182.83h258.543v12.376H31.975z" style="opacity:1;fill:#764c28;fill-opacity:1;stroke-width:.415326"/><path d="M226.003 10.103c-16.616.035-29.184 4.786-41.463 16.19 4.584 2.366 9.43 4.725 10.422 4.583.006 0 .015.009.02.008 9.877-7.758 18.55-10.395 31.021-10.431 31.122.006 55.758 19.58 56.018 51.281 3.573-.386 7.092-.77 10.061-1.115-.851-36.94-29.805-60.464-66.079-60.516" style="opacity:1;fill:#764c28;fill-opacity:1;stroke-width:.264583"/><path d="M32.188 70.22h259.885v7.753H32.188z" style="opacity:1;fill:#764c28;fill-opacity:1;stroke-width:.32958"/><path d="M158.957 10.26c-3.638-.054-19.118.584-33.982 14.248-19.388 17.824-16.407 45.842-16.407 45.842 3.617-.02 7.233-.026 10.849-.04h-2.792s-1.228-19.167 11.054-33.479c10.878-12.675 20.872-14.937 31.875-15.589.04-.004.063-.007.18-.007.069.005.09 0 .221.007 11.004.652 20.997 2.914 31.874 15.59 12.283 14.311 9.87 33.518 9.87 33.518l-1.089-.02 9.457.02s2.981-28.018-16.407-45.842c-4.31-3.961-15.495-13.962-34.703-14.248m41.653 60.07c-27.064-.069-54.129-.123-81.193-.02z" style="fill:#764c28;fill-opacity:1;stroke-width:.264583"/><path d="M135.613 77.973h1.31V182.83h-1.31zm45.997 0h1.31V182.83h-1.31z" style="opacity:1;fill:#764c28;fill-opacity:1;stroke-width:.0997497"/><path d="M117.024-290.652h1.31v254.074h-1.31z" style="opacity:1;fill:#764c28;fill-opacity:1;stroke-width:.155271" transform="rotate(90)"/><path d="M201.716 77.973h2.132V182.83h-2.132z" style="opacity:1;fill:#c9976e;fill-opacity:1;stroke-width:.127263"/><path d="M158.25 70.35h2.132v118.508h-2.132z" style="opacity:1;fill:#5b3b1f;fill-opacity:1;stroke-width:.135294"/><path d="M158.964 48.006c-1.936-.03-9.486.203-15.417 5.82-7.673 7.266-8.04 16.375-7.853 16.245l1.581.006c.051-1.659 1.104-8.875 7.345-14.785 5.527-5.234 12.562-5.451 14.366-5.423.181.002.236.006.305.009.068-.003.123-.007.305-.01 1.803-.027 8.838.19 14.365 5.424 6.242 5.91 7.294 13.126 7.345 14.785l1.581-.006c.187.13-.18-8.979-7.853-16.246-5.93-5.616-13.48-5.848-15.416-5.819-.195.003-.254.007-.327.01-.074-.003-.133-.007-.327-.01" style="fill:#764c28;fill-opacity:1;stroke-width:.264583"/><path d="M159.618 21.191h1.31v26.816h-1.31z" style="opacity:1;fill:#764c28;fill-opacity:1;stroke-width:.0504437"/><path d="M147.733-142.848h1.249v22.308h-1.249z" style="opacity:1;fill:#764c28;fill-opacity:1;stroke-width:.0398071" transform="matrix(.53082 .84749 -.83858 .54477 0 0)"/><rect width="1.405" height="21.774" x="-27.202" y="127.654" ry="0" style="opacity:1;fill:#764c28;fill-opacity:1;stroke-width:.0398071" transform="matrix(-.53082 .84749 .83858 .54477 0 0)"/><path d="M282.509 70.35h9.565v124.914h-9.565z" style="opacity:1;fill:#764c28;fill-opacity:1;stroke-width:.294194"/><path d="M232.291 19.227h1.31V182.83h-1.31z" style="opacity:1;fill:#764c28;fill-opacity:1;stroke-width:.124597"/><path d="M108.318 77.973h2.132V182.83h-2.132z" style="opacity:1;fill:#c9976e;fill-opacity:1;stroke-width:.127263"/><path d="M27.02 194.886h265.053v2.878H27.02z" style="display:inline;opacity:.338824;fill:#be7b41;fill-opacity:1;stroke-width:.220216"/><path d="m282.515 77.973 4.604 1.777v103.08h-4.604z" style="opacity:.840376;fill:#c9976e;fill-opacity:1;stroke-width:.18699"/><path d="M160.273 21.19q.695.086 1.386.193c10.334.8 19.86 3.434 30.17 15.448 12.252 14.276 9.883 33.406 9.871 33.502l2.149.004c1.625-22.883-11.013-43.906-32.983-48.356-3.075-.622-10.593-.79-10.593-.79M201.7 70.333l-1.09-.003.704.013h.385zm-1.09-.003-3.15-.005v.004zm-40.228-.066v.057l35.332.008q-17.666-.046-35.332-.065" style="fill:#c9976e;fill-opacity:1;stroke-width:.264583"/><path d="M258.71 77.368h1.31v106.445h-1.31z" style="opacity:1;fill:#764c28;fill-opacity:1;stroke-width:.100502"/><path d="m205.75 43.142.633 1.067c14.135-3.411 25.316-2.553 33.505 1.684 8.188 4.238 15.99 12.64 18.441 24.464 1.042.039.644-.119 1.687-.076-2.814-12.64-10.36-21.033-19.38-25.704-9.022-4.67-20.258-5.58-34.885-1.435" style="opacity:1;fill:#764c28;fill-opacity:1;stroke-width:.27566"/><path d="M180.675-211.276h1.529v27.409h-1.529z" style="opacity:1;fill:#764c28;fill-opacity:1;stroke-width:.0488105" transform="matrix(.53452 .84515 -.84099 .54105 0 0)"/><path d="M233.31 18.86c-4.355.116-8.557.79-12.544 1.791a73 73 0 0 1 5.237-.198c30.654.006 55 19.006 55.973 49.87 1.72.06 3.36.138 4.93-.044-.85-36.94-29.096-51.103-53.596-51.42" style="opacity:1;fill:#c9976e;fill-opacity:1;stroke-width:.264583"/><path d="M93.09 10.103c16.617.035 29.185 4.786 41.464 16.19-4.584 2.366-9.43 4.725-10.422 4.583-.006 0-.015.009-.02.008-9.877-7.758-18.55-10.395-31.021-10.431-31.122.006-55.759 19.58-56.019 51.281-3.573-.386-7.092-.77-10.06-1.115.85-36.94 29.805-60.464 66.079-60.516" style="opacity:1;fill:#764c28;fill-opacity:1;stroke-width:.264583"/><path d="M-36.585 70.35h9.565v124.536h-9.565z" style="opacity:1;fill:#764c28;fill-opacity:1;stroke-width:.293749" transform="scale(-1 1)"/><path d="M-86.802 19.227h1.31V182.83h-1.31z" style="opacity:1;fill:#764c28;fill-opacity:1;stroke-width:.124597" transform="scale(-1 1)"/><path d="M36.578 77.973 33.77 79.75v103.08h2.81z" style="opacity:.840376;fill:#49301b;fill-opacity:1;stroke-width:.146081"/><path d="M-60.384 77.368h1.31v106.445h-1.31z" style="opacity:1;fill:#764c28;fill-opacity:1;stroke-width:.100502" transform="scale(-1 1)"/><path d="m113.343 43.142-.633 1.067c-14.134-3.411-25.316-2.553-33.504 1.684-8.189 4.238-15.99 12.64-18.441 24.464-1.042.039-.644-.119-1.687-.076 2.814-12.64 10.36-21.033 19.38-25.704 9.022-4.67 20.258-5.58 34.885-1.435" style="opacity:1;fill:#764c28;fill-opacity:1;stroke-width:.27566"/><path d="M8.022 58.415h1.529v27.409H8.022z" style="opacity:1;fill:#764c28;fill-opacity:1;stroke-width:.0488105" transform="matrix(-.53452 .84515 .84099 .54105 0 0)"/><path d="M188.694-292.074h1.31v265.053h-1.31z" style="opacity:1;fill:#5b3b1f;fill-opacity:1;stroke-width:.15859" transform="rotate(90)"/><path d="M89.245 20.075c2.497-.015 6.663.136 9.083.576a73 73 0 0 0-5.237-.198c-30.654.006-55 19.006-55.973 49.87-1.72.06-1.778.41-3.349.227 4.27-37.165 31.837-50.326 55.476-50.475" style="opacity:1;fill:#49301b;fill-opacity:1;stroke-width:.264583"/><path d="M121.078 28.577c-14.834 17.434-12.59 40.939-12.52 41.636l2.199-.002s-1.642-26.672 11.159-40.521c.107-.116.178-.206.282-.32z" style="opacity:1;fill:#c9976e;fill-opacity:1;stroke-width:.264583"/></svg>