<svg xmlns="http://www.w3.org/2000/svg" width="950" height="300" viewBox="0 0 251.354 79.375"><path d="M.267.267h251.216v78.988H.267z" style="fill:#825525;fill-opacity:1;stroke-width:.36488"/><path d="M7.17 6.227h237.672v66.042H7.17z" style="fill:#98652c;fill-opacity:1;stroke-width:.374115"/><circle cx="153.797" cy="24.283" r="6.138" style="fill:#494949;fill-opacity:1;stroke-width:.0515712"/><circle cx="103.896" cy="24.283" r="6.138" style="fill:#494949;fill-opacity:1;stroke-width:.0515712"/><path d="M45.33 20.28h44.632a3.97 3.97 45 0 1 3.97 3.97v.601a3.97 3.97 135 0 1-3.97 3.969H45.33a3.97 3.97 45 0 1-3.968-3.969v-.602a3.97 3.97 135 0 1 3.968-3.968" style="fill:#b7793a;fill-opacity:1;stroke-width:.264583" transform="translate(61.467)"/><path d="M12.64 66.764h226.45l5.87 5.594-238.123.067z" style="fill:#a76f30;stroke-width:.264583"/><path d="m7.072 6.138 6.004 4.87v55.638L7.072 72.45Zm237.917 0-6.004 4.87v55.638l6.004 5.804z" style="fill:#8b5d28;fill-opacity:1;stroke-width:.264583"/><path d="M12.974 11.913h225.984l5.968-5.66H7.17Z" style="fill:#7b5223;fill-opacity:1;stroke-width:.264583"/></svg>