<?xml version="1.0" encoding="UTF-8" standalone="no"?>
<!-- Created with Inkscape (http://www.inkscape.org/) -->

<svg
   width="706"
   height="130"
   viewBox="0 0 186.7962 34.395838"
   version="1.1"
   id="svg1"
   inkscape:version="1.4 (86a8ad7, 2024-10-11)"
   sodipodi:docname="zavitushka.svg"
   xmlns:inkscape="http://www.inkscape.org/namespaces/inkscape"
   xmlns:sodipodi="http://sodipodi.sourceforge.net/DTD/sodipodi-0.dtd"
   xmlns="http://www.w3.org/2000/svg"
   xmlns:svg="http://www.w3.org/2000/svg">
  <sodipodi:namedview
     id="namedview1"
     pagecolor="#505050"
     bordercolor="#eeeeee"
     borderopacity="1"
     inkscape:showpageshadow="0"
     inkscape:pageopacity="0"
     inkscape:pagecheckerboard="0"
     inkscape:deskcolor="#505050"
     inkscape:document-units="mm"
     inkscape:zoom="0.98646753"
     inkscape:cx="280.29306"
     inkscape:cy="46.124174"
     inkscape:window-width="1920"
     inkscape:window-height="1001"
     inkscape:window-x="-9"
     inkscape:window-y="-9"
     inkscape:window-maximized="1"
     inkscape:current-layer="layer1" />
  <defs
     id="defs1">
    <inkscape:path-effect
       effect="spiro"
       id="path-effect9"
       is_visible="true"
       lpeversion="1" />
    <inkscape:path-effect
       effect="spiro"
       id="path-effect7"
       is_visible="true"
       lpeversion="1" />
    <inkscape:path-effect
       effect="spiro"
       id="path-effect6"
       is_visible="true"
       lpeversion="1" />
    <inkscape:path-effect
       effect="spiro"
       id="path-effect4"
       is_visible="true"
       lpeversion="1" />
    <inkscape:path-effect
       effect="spiro"
       id="path-effect2"
       is_visible="true"
       lpeversion="1" />
  </defs>
  <g
     inkscape:label="Layer 1"
     inkscape:groupmode="layer"
     id="layer1">
    <path
       style="fill:#d6680d;stroke:#a78c2f;stroke-width:2;stroke-dasharray:none;stroke-opacity:1"
       d="M 182.79654,24.110059 H 6.0379465"
       id="path1" />
    <path
       style="fill:none;stroke:#a78c2f;stroke-width:4.01071;stroke-dasharray:none;stroke-opacity:1"
       d="m 96.724138,119.10345 c -7.502735,0.69622 -15.253101,-1.91578 -20.803935,-7.01127 -5.550833,-5.09549 -8.815055,-12.59453 -8.761993,-20.129312 0.05306,-7.534781 3.422574,-14.987104 9.044621,-20.003911 5.622046,-5.016806 13.40843,-7.519395 20.900616,-6.717579 4.955773,0.530369 9.776903,2.4771 13.599353,5.675515 3.82245,3.198415 6.61023,7.65528 7.64203,12.531382 1.19393,5.642257 -0.0516,11.790172 -3.48401,16.424733 -3.4324,4.634562 -9.02882,7.636952 -14.79452,7.768242 -2.882849,0.0656 -5.781701,-0.56158 -8.369724,-1.8333 -2.588022,-1.27172 -4.859504,-3.18753 -6.531268,-5.53707 -1.671764,-2.349539 -2.738434,-5.129203 -3.045346,-7.996421 -0.306911,-2.867218 0.149091,-5.815417 1.328313,-8.446874 0.959252,-2.140589 2.401364,-4.076989 4.247031,-5.524676 1.845667,-1.447688 4.099092,-2.394092 6.436501,-2.591079 2.337409,-0.196988 4.749836,0.373433 6.694153,1.685649 1.94432,1.312217 3.39155,3.373796 3.86369,5.671484 0.29912,1.455674 0.21011,2.989258 -0.25541,4.400553 -0.46551,1.411294 -1.30641,2.696869 -2.4129,3.6889 -1.1065,0.992031 -2.475908,1.688107 -3.929462,1.99736 -1.453554,0.309253 -2.987722,0.23093 -4.402225,-0.224742"
       id="path2"
       inkscape:path-effect="#path-effect2"
       inkscape:original-d="m 96.724138,119.10345 c 7.586202,-17.06897 -7.965519,-36.413796 0.379309,-53.862072 8.344823,-17.448276 14.287353,12.011493 21.241383,18.206897 6.95402,6.195401 -23.264371,0.632182 -34.896555,0.37931 -11.632184,-0.252873 14.034482,-0.758622 21.241375,-0.758622 7.2069,0 -7.33333,6.574713 -10.999997,9.862071"
       sodipodi:nodetypes="cssssc"
       transform="matrix(0.27077501,0,0,0.27077501,-16.238616,-8.0545122)" />
    <path
       style="fill:none;stroke:#a78c2f;stroke-width:3.92202;stroke-dasharray:none;stroke-opacity:1"
       d="m 96.724138,119.10345 c -7.502735,0.69622 -15.253101,-1.91578 -20.803935,-7.01127 -5.550833,-5.09549 -8.815055,-12.59453 -8.761993,-20.129312 0.05306,-7.534781 3.422574,-14.987104 9.044621,-20.003911 5.622046,-5.016806 13.40843,-7.519395 20.900616,-6.717579 4.955773,0.530369 9.776903,2.4771 13.599353,5.675515 3.82245,3.198415 6.61023,7.65528 7.64203,12.531382 1.19393,5.642257 -0.0516,11.790172 -3.48401,16.424733 -3.4324,4.634562 -9.02882,7.636952 -14.79452,7.768242 -2.882849,0.0656 -5.781701,-0.56158 -8.369724,-1.8333 -2.588022,-1.27172 -4.859504,-3.18753 -6.531268,-5.53707 -1.671764,-2.349539 -2.738434,-5.129203 -3.045346,-7.996421 -0.306911,-2.867218 0.149091,-5.815417 1.328313,-8.446874 0.959252,-2.140589 2.401364,-4.076989 4.247031,-5.524676 1.845667,-1.447688 4.099092,-2.394092 6.436501,-2.591079 2.337409,-0.196988 4.749836,0.373433 6.694153,1.685649 1.94432,1.312217 3.39155,3.373796 3.86369,5.671484 0.29912,1.455674 0.21011,2.989258 -0.25541,4.400553 -0.46551,1.411294 -1.30641,2.696869 -2.4129,3.6889 -1.1065,0.992031 -2.475908,1.688107 -3.929462,1.99736 -1.453554,0.309253 -2.987722,0.23093 -4.402225,-0.224742"
       id="path3"
       inkscape:path-effect="#path-effect4"
       inkscape:original-d="m 96.724138,119.10345 c 7.586202,-17.06897 -7.965519,-36.413796 0.379309,-53.862072 8.344823,-17.448276 14.287353,12.011493 21.241383,18.206897 6.95402,6.195401 -23.264371,0.632182 -34.896555,0.37931 -11.632184,-0.252873 14.034482,-0.758622 21.241375,-0.758622 7.2069,0 -7.33333,6.574713 -10.999997,9.862071"
       sodipodi:nodetypes="cssssc"
       transform="matrix(-0.13922065,0,0,-0.13922065,193.54225,40.746292)" />
    <path
       style="fill:none;stroke:#a78c2f;stroke-width:3.48763;stroke-dasharray:none;stroke-opacity:1"
       d="m 96.724138,119.10345 c -7.502735,0.69622 -15.253101,-1.91578 -20.803935,-7.01127 -5.550833,-5.09549 -8.815055,-12.59453 -8.761993,-20.129312 0.05306,-7.534781 3.422574,-14.987104 9.044621,-20.003911 5.622046,-5.016806 13.40843,-7.519395 20.900616,-6.717579 4.955773,0.530369 9.776903,2.4771 13.599353,5.675515 3.82245,3.198415 6.61023,7.65528 7.64203,12.531382 1.19393,5.642257 -0.0516,11.790172 -3.48401,16.424733 -3.4324,4.634562 -9.02882,7.636952 -14.79452,7.768242 -2.882849,0.0656 -5.781701,-0.56158 -8.369724,-1.8333 -2.588022,-1.27172 -4.859504,-3.18753 -6.531268,-5.53707 -1.671764,-2.349539 -2.738434,-5.129203 -3.045346,-7.996421 -0.306911,-2.867218 0.149091,-5.815417 1.328313,-8.446874 0.959252,-2.140589 2.401364,-4.076989 4.247031,-5.524676 1.845667,-1.447688 4.099092,-2.394092 6.436501,-2.591079 2.337409,-0.196988 4.749836,0.373433 6.694153,1.685649 1.94432,1.312217 3.39155,3.373796 3.86369,5.671484 0.29912,1.455674 0.21011,2.989258 -0.25541,4.400553 -0.46551,1.411294 -1.30641,2.696869 -2.4129,3.6889 -1.1065,0.992031 -2.475908,1.688107 -3.929462,1.99736 -1.453554,0.309253 -2.987722,0.23093 -4.402225,-0.224742"
       id="path4"
       inkscape:path-effect="#path-effect6"
       inkscape:original-d="m 96.724138,119.10345 c 7.586202,-17.06897 -7.965519,-36.413796 0.379309,-53.862072 8.344823,-17.448276 14.287353,12.011493 21.241383,18.206897 6.95402,6.195401 -23.264371,0.632182 -34.896555,0.37931 -11.632184,-0.252873 14.034482,-0.758622 21.241375,-0.758622 7.2069,0 -7.33333,6.574713 -10.999997,9.862071"
       sodipodi:nodetypes="cssssc"
       transform="matrix(0.13487833,-0.07059028,-0.07059028,-0.13487833,1.6671849,47.281437)" />
    <path
       style="fill:none;stroke:#a78c2f;stroke-width:3.78942;stroke-dasharray:none;stroke-opacity:1"
       d="m 96.724138,119.10345 c -7.502735,0.69622 -15.253101,-1.91578 -20.803935,-7.01127 -5.550833,-5.09549 -8.815055,-12.59453 -8.761993,-20.129312 0.05306,-7.534781 3.422574,-14.987104 9.044621,-20.003911 5.622046,-5.016806 13.40843,-7.519395 20.900616,-6.717579 4.955773,0.530369 9.776903,2.4771 13.599353,5.675515 3.82245,3.198415 6.61023,7.65528 7.64203,12.531382 1.19393,5.642257 -0.0516,11.790172 -3.48401,16.424733 -3.4324,4.634562 -9.02882,7.636952 -14.79452,7.768242 -2.882849,0.0656 -5.781701,-0.56158 -8.369724,-1.8333 -2.588022,-1.27172 -4.859504,-3.18753 -6.531268,-5.53707 -1.671764,-2.349539 -2.738434,-5.129203 -3.045346,-7.996421 -0.306911,-2.867218 0.149091,-5.815417 1.328313,-8.446874 0.959252,-2.140589 2.401364,-4.076989 4.247031,-5.524676 1.845667,-1.447688 4.099092,-2.394092 6.436501,-2.591079 2.337409,-0.196988 4.749836,0.373433 6.694153,1.685649 1.94432,1.312217 3.39155,3.373796 3.86369,5.671484 0.29912,1.455674 0.21011,2.989258 -0.25541,4.400553 -0.46551,1.411294 -1.30641,2.696869 -2.4129,3.6889 -1.1065,0.992031 -2.475908,1.688107 -3.929462,1.99736 -1.453554,0.309253 -2.987722,0.23093 -4.402225,-0.224742"
       id="path7"
       inkscape:path-effect="#path-effect9"
       inkscape:original-d="m 96.724138,119.10345 c 7.586202,-17.06897 -7.965519,-36.413796 0.379309,-53.862072 8.344823,-17.448276 14.287353,12.011493 21.241383,18.206897 6.95402,6.195401 -23.264371,0.632182 -34.896555,0.37931 -11.632184,-0.252873 14.034482,-0.758622 21.241375,-0.758622 7.2069,0 -7.33333,6.574713 -10.999997,9.862071"
       sodipodi:nodetypes="cssssc"
       transform="matrix(-0.20478042,0,0,0.20478042,198.94339,0.03041386)" />
  </g>
</svg>
