<svg xmlns="http://www.w3.org/2000/svg" width="706" height="130" viewBox="0 0 186.796 34.396"><path d="M182.797 24.11H6.037" style="fill:#d6680d;stroke:#a78c2f;stroke-width:2;stroke-dasharray:none;stroke-opacity:1"/><path d="M96.724 119.103c-7.503.697-15.253-1.915-20.804-7.01-5.55-5.096-8.815-12.595-8.762-20.13s3.423-14.987 9.045-20.004 13.408-7.52 20.9-6.718c4.956.53 9.777 2.477 13.6 5.676 3.822 3.198 6.61 7.655 7.642 12.531 1.194 5.643-.052 11.79-3.484 16.425s-9.029 7.637-14.795 7.768a18.1 18.1 0 0 1-8.37-1.833 17.54 17.54 0 0 1-6.53-5.537 17 17 0 0 1-3.046-7.997 16.5 16.5 0 0 1 1.328-8.446c.96-2.141 2.402-4.077 4.247-5.525 1.846-1.448 4.1-2.394 6.437-2.591s4.75.373 6.694 1.685 3.392 3.374 3.864 5.672a8.6 8.6 0 0 1-.256 4.4 8.6 8.6 0 0 1-2.413 3.69 8.6 8.6 0 0 1-3.93 1.997 8.6 8.6 0 0 1-4.401-.225" style="fill:none;stroke:#a78c2f;stroke-width:4.01071;stroke-dasharray:none;stroke-opacity:1" transform="translate(-16.239 -8.055)scale(.27078)"/><path d="M96.724 119.103c-7.503.697-15.253-1.915-20.804-7.01-5.55-5.096-8.815-12.595-8.762-20.13s3.423-14.987 9.045-20.004 13.408-7.52 20.9-6.718c4.956.53 9.777 2.477 13.6 5.676 3.822 3.198 6.61 7.655 7.642 12.531 1.194 5.643-.052 11.79-3.484 16.425s-9.029 7.637-14.795 7.768a18.1 18.1 0 0 1-8.37-1.833 17.54 17.54 0 0 1-6.53-5.537 17 17 0 0 1-3.046-7.997 16.5 16.5 0 0 1 1.328-8.446c.96-2.141 2.402-4.077 4.247-5.525 1.846-1.448 4.1-2.394 6.437-2.591s4.75.373 6.694 1.685 3.392 3.374 3.864 5.672a8.6 8.6 0 0 1-.256 4.4 8.6 8.6 0 0 1-2.413 3.69 8.6 8.6 0 0 1-3.93 1.997 8.6 8.6 0 0 1-4.401-.225" style="fill:none;stroke:#a78c2f;stroke-width:3.92202;stroke-dasharray:none;stroke-opacity:1" transform="rotate(180 96.77 20.373)scale(.13922)"/><path d="M96.724 119.103c-7.503.697-15.253-1.915-20.804-7.01-5.55-5.096-8.815-12.595-8.762-20.13s3.423-14.987 9.045-20.004 13.408-7.52 20.9-6.718c4.956.53 9.777 2.477 13.6 5.676 3.822 3.198 6.61 7.655 7.642 12.531 1.194 5.643-.052 11.79-3.484 16.425s-9.029 7.637-14.795 7.768a18.1 18.1 0 0 1-8.37-1.833 17.54 17.54 0 0 1-6.53-5.537 17 17 0 0 1-3.046-7.997 16.5 16.5 0 0 1 1.328-8.446c.96-2.141 2.402-4.077 4.247-5.525 1.846-1.448 4.1-2.394 6.437-2.591s4.75.373 6.694 1.685 3.392 3.374 3.864 5.672a8.6 8.6 0 0 1-.256 4.4 8.6 8.6 0 0 1-2.413 3.69 8.6 8.6 0 0 1-3.93 1.997 8.6 8.6 0 0 1-4.401-.225" style="fill:none;stroke:#a78c2f;stroke-width:3.48763;stroke-dasharray:none;stroke-opacity:1" transform="matrix(.13487 -.07059 -.07059 -.13487 1.667 47.28)"/><path d="M96.724 119.103c-7.503.697-15.253-1.915-20.804-7.01-5.55-5.096-8.815-12.595-8.762-20.13s3.423-14.987 9.045-20.004 13.408-7.52 20.9-6.718c4.956.53 9.777 2.477 13.6 5.676 3.822 3.198 6.61 7.655 7.642 12.531 1.194 5.643-.052 11.79-3.484 16.425s-9.029 7.637-14.795 7.768a18.1 18.1 0 0 1-8.37-1.833 17.54 17.54 0 0 1-6.53-5.537 17 17 0 0 1-3.046-7.997 16.5 16.5 0 0 1 1.328-8.446c.96-2.141 2.402-4.077 4.247-5.525 1.846-1.448 4.1-2.394 6.437-2.591s4.75.373 6.694 1.685 3.392 3.374 3.864 5.672a8.6 8.6 0 0 1-.256 4.4 8.6 8.6 0 0 1-2.413 3.69 8.6 8.6 0 0 1-3.93 1.997 8.6 8.6 0 0 1-4.401-.225" style="fill:none;stroke:#a78c2f;stroke-width:3.78942;stroke-dasharray:none;stroke-opacity:1" transform="matrix(-.20478 0 0 .20478 198.943 .03)"/></svg>